<?xml version="1.0" encoding="UTF-8"?>
<!DOCTYPE svg PUBLIC "-//W3C//DTD SVG 1.1//EN" "http://www.w3.org/Graphics/SVG/1.1/DTD/svg11.dtd">
<svg xmlns="http://www.w3.org/2000/svg" version="1.1" width="2048px" height="2048px" style="shape-rendering:geometricPrecision; text-rendering:geometricPrecision; image-rendering:optimizeQuality; fill-rule:evenodd; clip-rule:evenodd" xmlns:xlink="http://www.w3.org/1999/xlink">
<g><path style="opacity:0.948" fill="#040303" d="M 1233.5,976.5 C 1232.33,977.496 1231.67,978.829 1231.5,980.5C 1233.44,991.134 1235.11,1001.47 1236.5,1011.5C 1235.47,1021.42 1234.8,1031.42 1234.5,1041.5C 1233.22,1044.59 1232.55,1047.92 1232.5,1051.5C 1231.14,1057.6 1229.47,1063.6 1227.5,1069.5C 1217.55,1096.4 1204.22,1121.4 1187.5,1144.5C 1185.41,1145.58 1184.08,1147.25 1183.5,1149.5C 1180.15,1151.85 1177.48,1154.85 1175.5,1158.5C 1171.6,1164.91 1166.76,1170.57 1161,1175.5C 1157.25,1181.34 1153.75,1187.34 1150.5,1193.5C 1171.28,1232.05 1190.11,1271.39 1207,1311.5C 1210.31,1321.39 1213.31,1331.39 1216,1341.5C 1217.71,1352.39 1219.54,1363.22 1221.5,1374C 1221.41,1381.9 1221.41,1389.74 1221.5,1397.5C 1220.1,1404.31 1219.1,1411.14 1218.5,1418C 1218.96,1418.41 1219.29,1418.91 1219.5,1419.5C 1217.9,1423.81 1216.4,1428.14 1215,1432.5C 1213.75,1445.56 1212.91,1458.72 1212.5,1472C 1214.1,1494.39 1217.77,1516.39 1223.5,1538C 1223.04,1538.41 1222.71,1538.91 1222.5,1539.5C 1224.42,1548.11 1226.09,1556.78 1227.5,1565.5C 1227.17,1566.17 1226.83,1566.83 1226.5,1567.5C 1228.62,1572.6 1229.28,1577.77 1228.5,1583C 1228.35,1585.03 1229.02,1586.7 1230.5,1588C 1231.6,1594.55 1231.6,1601.05 1230.5,1607.5C 1232.08,1613.82 1232.42,1619.98 1231.5,1626C 1232.17,1630.67 1232.83,1635.33 1233.5,1640C 1233.2,1650.58 1233.2,1661.25 1233.5,1672C 1233.03,1682.59 1231.87,1693.09 1230,1703.5C 1226.27,1709.23 1224.27,1715.56 1224,1722.5C 1221.73,1726.04 1219.73,1729.71 1218,1733.5C 1201.48,1746.35 1184.65,1758.85 1167.5,1771C 1147.32,1779.34 1127.82,1788.84 1109,1799.5C 1108.13,1799.26 1107.29,1798.93 1106.5,1798.5C 1103.53,1800.58 1100.19,1801.75 1096.5,1802C 1086.2,1802.71 1076.37,1804.21 1067,1806.5C 1066.44,1805.98 1065.77,1805.64 1065,1805.5C 1056.26,1808.35 1047.59,1810.68 1039,1812.5C 1038.44,1811.98 1037.77,1811.64 1037,1811.5C 1031.76,1813.76 1026.43,1814.42 1021,1813.5C 1019.81,1815.53 1018.31,1815.86 1016.5,1814.5C 1013.07,1814.91 1009.57,1815.91 1006,1817.5C 1000.9,1817.24 995.566,1817.24 990,1817.5C 985.817,1820.2 981.817,1819.87 978,1816.5C 977.581,1817.67 976.915,1818.67 976,1819.5C 972.912,1820.47 969.579,1820.47 966,1819.5C 964.739,1819.76 963.739,1820.43 963,1821.5C 960.534,1820.89 958.034,1821.22 955.5,1822.5C 954.914,1822.29 954.414,1821.96 954,1821.5C 947.536,1822.39 941.036,1823.39 934.5,1824.5C 931.674,1824.31 928.841,1823.98 926,1823.5C 918.614,1826.1 911.281,1826.76 904,1825.5C 900.803,1826.79 897.637,1827.12 894.5,1826.5C 892.813,1826.76 891.313,1827.43 890,1828.5C 881.485,1827.87 872.652,1827.54 863.5,1827.5C 836.207,1833.06 808.374,1835.06 780,1833.5C 772.323,1835.57 764.823,1835.9 757.5,1834.5C 752.047,1844.69 746.881,1855.03 742,1865.5C 737.106,1874.31 730.606,1881.65 722.5,1887.5C 715.758,1890.24 709.092,1893.08 702.5,1896C 700.485,1898.42 698.485,1900.08 696.5,1901C 694.186,1902.4 691.853,1902.56 689.5,1901.5C 687.267,1902.74 685.101,1904.08 683,1905.5C 682.311,1904.64 681.478,1903.98 680.5,1903.5C 679.719,1904.74 678.719,1905.74 677.5,1906.5C 673.995,1906.16 670.495,1906.16 667,1906.5C 664.966,1906.65 663.299,1905.98 662,1904.5C 660.667,1905.17 659.333,1905.83 658,1906.5C 654.534,1905.8 651.034,1905.13 647.5,1904.5C 645.149,1905.71 643.316,1905.05 642,1902.5C 641.261,1903.57 640.261,1904.24 639,1904.5C 637.765,1903.38 636.598,1903.38 635.5,1904.5C 623.584,1902.25 611.917,1899.08 600.5,1895C 586.713,1888.94 573.047,1882.61 559.5,1876C 541.459,1864.99 523.792,1853.49 506.5,1841.5C 491.908,1818.97 481.075,1794.64 474,1768.5C 466.339,1734.27 460.839,1700.1 457.5,1666C 457.993,1647.27 457.993,1628.43 457.5,1609.5C 459.477,1560.26 466.977,1511.26 480,1462.5C 497.01,1412.22 513.01,1361.22 528,1309.5C 534.887,1291.37 541.387,1273.87 547.5,1257C 547.167,1256.67 546.833,1256.33 546.5,1256C 548.466,1252.1 550.8,1248.44 553.5,1245C 553.167,1244.67 552.833,1244.33 552.5,1244C 555.323,1239.02 557.657,1233.85 559.5,1228.5C 562.999,1228.74 563.332,1227.91 560.5,1226C 559.5,1225.67 558.5,1225.33 557.5,1225C 554.081,1220.39 549.747,1217.22 544.5,1215.5C 543.833,1215.5 543.5,1215.17 543.5,1214.5C 540.928,1209.05 536.762,1204.39 531,1200.5C 516.289,1183.42 502.289,1165.75 489,1147.5C 482.678,1134.86 476.344,1122.19 470,1109.5C 469.601,1109.73 469.435,1110.06 469.5,1110.5C 468.662,1110.16 468.328,1109.49 468.5,1108.5C 469.043,1108.44 469.376,1108.11 469.5,1107.5C 463.816,1092.75 460.649,1077.42 460,1061.5C 459.768,1060.26 459.268,1059.26 458.5,1058.5C 457.422,1046.35 456.755,1034.35 456.5,1022.5C 457.909,1004.8 459.576,986.963 461.5,969C 461.492,967.293 461.158,965.793 460.5,964.5C 462.537,949.056 465.204,933.722 468.5,918.5C 468.587,914.674 467.087,911.674 464,909.5C 461.059,911.964 458.892,911.297 457.5,907.5C 465.515,898.147 473.182,888.48 480.5,878.5C 475.136,877.645 469.803,876.645 464.5,875.5C 460.693,873.233 460.693,871.066 464.5,869C 467.754,868.75 470.754,867.75 473.5,866C 480.293,860.875 486.793,855.375 493,849.5C 495.982,844.505 495.482,839.672 491.5,835C 492.517,833.951 492.684,832.784 492,831.5C 488.214,825.592 485.214,819.258 483,812.5C 478.796,795.431 475.296,778.265 472.5,761C 472.107,747.335 472.607,733.502 474,719.5C 491.782,675.6 523.115,649.6 568,641.5C 570.07,641.163 572.07,641.829 574,643.5C 575.261,643.241 576.261,642.574 577,641.5C 579.333,641.5 581.667,641.5 584,641.5C 587,643.173 590,643.84 593,643.5C 601.347,647.233 609.513,651.899 617.5,657.5C 619.756,658.421 620.756,660.088 620.5,662.5C 624.889,663.179 627.889,665.512 629.5,669.5C 632.505,669.25 634.338,670.583 635,673.5C 637.775,674.939 640.275,676.772 642.5,679C 647.81,684.53 652.977,690.03 658,695.5C 658.422,693.645 658.922,691.811 659.5,690C 658.961,683.884 658.628,677.884 658.5,672C 659.483,658.528 660.483,645.028 661.5,631.5C 661.291,630.914 660.957,630.414 660.5,630C 662.277,622.971 662.611,616.137 661.5,609.5C 661.833,607.833 662.833,606.833 664.5,606.5C 670.341,609.006 675.341,612.673 679.5,617.5C 683.385,618.178 686.218,620.178 688,623.5C 688.414,623.043 688.914,622.709 689.5,622.5C 719.608,642.302 751.274,644.802 784.5,630C 813.84,617.828 836.507,597.995 852.5,570.5C 858.825,577.662 864.992,584.995 871,592.5C 877.808,598.638 884.641,604.805 891.5,611C 909.271,619.924 927.938,626.257 947.5,630C 980.171,636.772 1009.5,629.772 1035.5,609C 1037.02,607.991 1038.69,607.491 1040.5,607.5C 1040.78,612.233 1040.44,616.9 1039.5,621.5C 1040.67,625.384 1041.67,629.217 1042.5,633C 1042.17,633.333 1041.83,633.667 1041.5,634C 1042.61,642.045 1043.61,650.378 1044.5,659C 1043.62,662.336 1043.96,665.67 1045.5,669C 1044.98,669.561 1044.64,670.228 1044.5,671C 1044.96,678.922 1045.96,686.922 1047.5,695C 1046.86,710.241 1046.53,725.574 1046.5,741C 1047.25,742.734 1047.75,744.567 1048,746.5C 1069.54,719.502 1096.21,701.502 1128,692.5C 1135.19,689.995 1142.52,687.995 1150,686.5C 1154.35,687.29 1159.01,686.957 1164,685.5C 1170.68,685.511 1177.35,685.511 1184,685.5C 1188.31,687.172 1192.47,688.339 1196.5,689C 1197.3,690.771 1198.47,692.271 1200,693.5C 1205.18,693.518 1209.35,695.851 1212.5,700.5C 1213.17,700.167 1213.83,699.833 1214.5,699.5C 1215.92,701.718 1217.92,703.218 1220.5,704C 1225.69,710.516 1230.85,717.016 1236,723.5C 1242.33,736.432 1247.5,749.598 1251.5,763C 1250.98,763.561 1250.64,764.228 1250.5,765C 1252.74,772.504 1254.41,780.171 1255.5,788C 1254.17,795.333 1254.17,802.667 1255.5,810C 1254.21,815.434 1253.05,820.934 1252,826.5C 1248.12,837.518 1243.45,848.518 1238,859.5C 1227.29,876.701 1212.12,888.035 1192.5,893.5C 1190.38,892.218 1188.71,892.718 1187.5,895C 1193.92,904.753 1201.09,913.92 1209,922.5C 1221.2,938.566 1229.36,956.566 1233.5,976.5 Z"/></g>
<g><path style="opacity:1" fill="#fee37a" d="M 910.5,624.5 C 921.899,629.698 933.232,635.198 944.5,641C 957.89,643.113 971.223,645.28 984.5,647.5C 984.969,657.047 983.803,666.381 981,675.5C 979.763,688.536 978.263,701.536 976.5,714.5C 971.877,714.451 967.877,716.285 964.5,720C 962.5,720.333 960.5,720.667 958.5,721C 957.62,722.356 957.286,723.856 957.5,725.5C 955.801,725.527 954.467,726.194 953.5,727.5C 931.602,724.148 909.602,721.315 887.5,719C 870.134,718.749 852.8,717.916 835.5,716.5C 818.534,717.993 801.534,718.66 784.5,718.5C 767.901,715.795 751.234,713.462 734.5,711.5C 733.43,697.118 732.43,682.452 731.5,667.5C 733.978,666.805 735.978,665.305 737.5,663C 756.828,665.517 773.162,659.517 786.5,645C 792.5,641 798.5,637 804.5,633C 816.667,622.167 828.833,611.333 841,600.5C 844.054,595.726 846.554,590.726 848.5,585.5C 849.552,582.807 850.552,580.14 851.5,577.5C 853.39,577.297 854.89,577.963 856,579.5C 869.663,600.065 887.83,615.065 910.5,624.5 Z"/></g>
<g><path style="opacity:1" fill="#f7d472" d="M 848.5,585.5 C 846.554,590.726 844.054,595.726 841,600.5C 828.833,611.333 816.667,622.167 804.5,633C 798.5,637 792.5,641 786.5,645C 773.162,659.517 756.828,665.517 737.5,663C 735.978,665.305 733.978,666.805 731.5,667.5C 732.43,682.452 733.43,697.118 734.5,711.5C 751.234,713.462 767.901,715.795 784.5,718.5C 769.214,720.033 753.881,722.199 738.5,725C 731.609,726.52 724.943,728.853 718.5,732C 712.922,733.596 707.256,734.763 701.5,735.5C 697.846,734.671 694.513,733.171 691.5,731C 690.743,729.488 689.743,728.154 688.5,727C 685.473,724.318 682.139,721.985 678.5,720C 675.488,691.448 673.654,662.948 673,634.5C 672.149,628.112 670.982,621.778 669.5,615.5C 669.733,614.068 670.4,613.568 671.5,614C 676.905,620.076 682.905,625.409 689.5,630C 713.015,640.702 737.682,644.369 763.5,641C 797.144,630.519 825.478,612.019 848.5,585.5 Z"/></g>
<g><path style="opacity:1" fill="#f7d471" d="M 910.5,624.5 C 924.024,628.465 937.691,631.965 951.5,635C 967.57,638.467 983.57,638.134 999.5,634C 1008.41,631.969 1017.08,629.469 1025.5,626.5C 1025.64,670.196 1025.64,713.863 1025.5,757.5C 1023.99,756.498 1022.32,755.831 1020.5,755.5C 1015.34,753.417 1010.34,751.084 1005.5,748.5C 1004.71,747.758 1004.05,746.925 1003.5,746C 996.333,743.231 989.333,740.397 982.5,737.5C 978.851,736.609 975.184,735.609 971.5,734.5C 966.294,731.615 960.628,729.782 954.5,729C 953.944,728.617 953.611,728.117 953.5,727.5C 954.467,726.194 955.801,725.527 957.5,725.5C 957.286,723.856 957.62,722.356 958.5,721C 960.5,720.667 962.5,720.333 964.5,720C 967.877,716.285 971.877,714.451 976.5,714.5C 978.263,701.536 979.763,688.536 981,675.5C 983.803,666.381 984.969,657.047 984.5,647.5C 971.223,645.28 957.89,643.113 944.5,641C 933.232,635.198 921.899,629.698 910.5,624.5 Z"/></g>
<g><path style="opacity:1" fill="#22a84a" d="M 858.5,647.5 C 858.569,652.854 858.902,658.187 859.5,663.5C 855.002,663.856 850.668,664.856 846.5,666.5C 845.817,666.137 845.15,665.804 844.5,665.5C 843.903,665.265 843.57,664.765 843.5,664C 844.32,662.2 844.986,660.366 845.5,658.5C 847.111,654.949 849.444,651.949 852.5,649.5C 853.627,648.878 854.627,648.045 855.5,647C 856.749,646.26 857.749,646.427 858.5,647.5 Z"/></g>
<g><path style="opacity:1" fill="#1d2014" d="M 873.5,661.5 C 868.199,657.2 863.199,652.534 858.5,647.5C 857.749,646.427 856.749,646.26 855.5,647C 854.627,648.045 853.627,648.878 852.5,649.5C 853.295,645.54 855.629,643.207 859.5,642.5C 864.148,648.82 868.815,655.153 873.5,661.5 Z"/></g>
<g><path style="opacity:1" fill="#caaa9d" d="M 589.5,659.5 C 593.907,662.417 597.241,666.417 599.5,671.5C 602.384,672.925 604.051,675.258 604.5,678.5C 611.144,686.979 617.978,695.312 625,703.5C 629.473,713.292 635.473,721.959 643,729.5C 648.253,737.674 653.753,745.674 659.5,753.5C 661.193,754.228 662.693,755.228 664,756.5C 664.833,755.667 665.667,754.833 666.5,754C 674.227,751.535 681.894,748.869 689.5,746C 691.233,744.811 692.9,743.644 694.5,742.5C 711.334,738.724 728.001,734.224 744.5,729C 756.435,727.266 768.435,726.266 780.5,726C 811.992,725.543 843.325,725.876 874.5,727C 901.196,729.447 927.863,732.113 954.5,735C 961.382,736.738 968.048,739.072 974.5,742C 992.946,750.72 1010.61,760.72 1027.5,772C 1031.37,775.702 1035.04,779.536 1038.5,783.5C 1042.94,787.415 1047.61,791.249 1052.5,795C 1053.5,795.667 1054.5,795.667 1055.5,795C 1056.73,793.471 1058.23,792.304 1060,791.5C 1061.16,780.22 1064.49,769.553 1070,759.5C 1072.07,750.651 1075.24,742.317 1079.5,734.5C 1110.69,709.377 1146.02,699.21 1185.5,704C 1190.14,706.55 1195.14,708.05 1200.5,708.5C 1202.03,710.289 1203.03,712.289 1203.5,714.5C 1204.5,714.5 1205.5,714.5 1206.5,714.5C 1207.17,716.5 1207.83,718.5 1208.5,720.5C 1210.8,721.138 1212.97,722.138 1215,723.5C 1215.63,729.067 1217.96,733.734 1222,737.5C 1224.8,746.358 1227.13,755.358 1229,764.5C 1230,766.5 1231,768.5 1232,770.5C 1233.14,782.645 1233.98,794.812 1234.5,807C 1234.53,815.198 1234.36,823.364 1234,831.5C 1231.51,846.114 1224.68,858.114 1213.5,867.5C 1207,871.586 1200.33,875.419 1193.5,879C 1184.3,882.009 1175.3,885.509 1166.5,889.5C 1173.18,897.017 1180.35,904.017 1188,910.5C 1194.66,918.841 1200.99,927.508 1207,936.5C 1215.8,954.367 1222.13,973.034 1226,992.5C 1228.2,1014.95 1226.2,1036.95 1220,1058.5C 1205.82,1106.54 1178.99,1145.87 1139.5,1176.5C 1130.81,1163.64 1120.81,1151.81 1109.5,1141C 1101.93,1137.14 1095.43,1131.97 1090,1125.5C 1088.59,1123.35 1087.76,1121.02 1087.5,1118.5C 1083.73,1118.72 1080.4,1120.05 1077.5,1122.5C 1077.17,1122.33 1076.83,1122.17 1076.5,1122C 1079.51,1119.75 1079.84,1117.42 1077.5,1115C 1073.15,1115.5 1068.81,1116.5 1064.5,1118C 1064.17,1118.33 1063.83,1118.67 1063.5,1119C 1064.67,1119.17 1065.83,1119.33 1067,1119.5C 1074.78,1117.42 1075.45,1118.76 1069,1123.5C 1068.52,1124.45 1068.35,1125.45 1068.5,1126.5C 1074.03,1126.49 1079.19,1125.16 1084,1122.5C 1086.83,1126 1089.67,1129.5 1092.5,1133C 1103.69,1140.19 1112.86,1149.36 1120,1160.5C 1125.41,1169.65 1131.08,1178.65 1137,1187.5C 1145.79,1207.08 1155.12,1226.41 1165,1245.5C 1176.02,1271.53 1187.02,1297.53 1198,1323.5C 1205.01,1346.53 1209.17,1370.03 1210.5,1394C 1209.09,1400.38 1208.26,1406.88 1208,1413.5C 1203.77,1428.95 1197.94,1443.79 1190.5,1458C 1183.43,1466.07 1175.43,1473.07 1166.5,1479C 1164.62,1479.22 1162.95,1479.88 1161.5,1481C 1147.22,1483.62 1133.22,1482.62 1119.5,1478C 1103.28,1472.43 1087.95,1465.1 1073.5,1456C 1057.94,1442.35 1042.27,1428.85 1026.5,1415.5C 1008.57,1397.08 992.739,1377.08 979,1355.5C 967.144,1334.93 955.478,1314.26 944,1293.5C 941.684,1284.11 940.184,1274.61 939.5,1265C 940.484,1244.75 942.317,1224.59 945,1204.5C 947.636,1192.92 951.636,1181.92 957,1171.5C 964.996,1163.18 974.162,1156.35 984.5,1151C 989.95,1148.85 995.284,1146.52 1000.5,1144C 1007.61,1142.14 1014.61,1140.14 1021.5,1138C 1028.47,1133.24 1035.81,1129.24 1043.5,1126C 1045.67,1123.83 1047.83,1121.67 1050,1119.5C 1050.33,1120.83 1050.67,1122.17 1051,1123.5C 1052.18,1124.73 1053.35,1124.73 1054.5,1123.5C 1053.37,1119.39 1052.7,1115.39 1052.5,1111.5C 1051.91,1111.29 1051.41,1110.96 1051,1110.5C 1047.77,1116.82 1043.27,1121.98 1037.5,1126C 1013.29,1129.72 990.621,1137.72 969.5,1150C 964.044,1153.79 958.877,1157.95 954,1162.5C 945.72,1175.67 940.386,1190 938,1205.5C 935.916,1222.26 933.416,1238.92 930.5,1255.5C 916.33,1256.04 902.164,1256.7 888,1257.5C 869.832,1256.36 851.665,1255.19 833.5,1254C 812.761,1251.04 792.095,1247.7 771.5,1244C 764.609,1241.56 757.609,1239.89 750.5,1239C 760.728,1243.62 771.062,1247.95 781.5,1252C 793.771,1260.47 807.104,1266.8 821.5,1271C 859.423,1283.65 898.089,1293.15 937.5,1299.5C 940.021,1305.89 942.854,1312.22 946,1318.5C 953.601,1331.37 960.934,1344.37 968,1357.5C 983.741,1384.26 1002.91,1408.42 1025.5,1430C 1041.91,1445.41 1059.24,1459.74 1077.5,1473C 1087.52,1476.59 1097.18,1480.92 1106.5,1486C 1116.03,1489.2 1125.7,1491.87 1135.5,1494C 1141.43,1494.32 1147.27,1494.48 1153,1494.5C 1155.13,1492.55 1157.63,1491.21 1160.5,1490.5C 1162.26,1491.95 1163.6,1491.62 1164.5,1489.5C 1166.77,1488.69 1169.1,1488.19 1171.5,1488C 1176.03,1484.84 1180.36,1481.51 1184.5,1478C 1185.45,1477.38 1186.28,1477.55 1187,1478.5C 1206.2,1545.58 1214.54,1613.92 1212,1683.5C 1209.12,1693.8 1206.45,1704.13 1204,1714.5C 1202.63,1717.88 1200.46,1720.71 1197.5,1723C 1183.67,1734.41 1169.33,1745.07 1154.5,1755C 1147.33,1757.42 1140.33,1760.09 1133.5,1763C 1122.31,1769.76 1110.97,1775.92 1099.5,1781.5C 1094.98,1782.97 1090.48,1783.3 1086,1782.5C 1082.88,1783.06 1079.88,1784.06 1077,1785.5C 1074.21,1784.48 1071.38,1784.32 1068.5,1785C 1041.42,1790.31 1014.42,1795.15 987.5,1799.5C 985.929,1798.69 984.262,1798.36 982.5,1798.5C 980.143,1798.66 977.81,1798.5 975.5,1798C 948.324,1783.62 921.324,1769.12 894.5,1754.5C 874.459,1734.63 854.626,1714.63 835,1694.5C 826.769,1684.39 818.769,1674.05 811,1663.5C 802.914,1646.27 794.248,1629.27 785,1612.5C 780.522,1589.25 774.189,1566.58 766,1544.5C 758.729,1515.03 750.063,1486.03 740,1457.5C 737.866,1446.36 735.199,1435.36 732,1424.5C 724.122,1402.53 716.455,1380.53 709,1358.5C 708,1356.83 707,1355.17 706,1353.5C 709.38,1365.62 713.38,1377.62 718,1389.5C 719.277,1393.1 719.61,1396.76 719,1400.5C 713.178,1383.04 706.178,1366.04 698,1349.5C 693.853,1339.55 690.019,1329.55 686.5,1319.5C 682.604,1319.44 680.438,1317.44 680,1313.5C 680.431,1319.17 681.931,1324.5 684.5,1329.5C 689.392,1355.55 695.558,1381.22 703,1406.5C 707.76,1431.49 712.427,1456.49 717,1481.5C 718.875,1498.45 720.208,1515.45 721,1532.5C 727.122,1574.69 732.122,1617.02 736,1659.5C 740.2,1681.63 742.7,1703.97 743.5,1726.5C 744.299,1735.82 744.966,1745.15 745.5,1754.5C 745.5,1754.83 745.5,1755.17 745.5,1755.5C 745.061,1768.12 745.061,1780.78 745.5,1793.5C 744.097,1813.53 738.597,1832.19 729,1849.5C 720.167,1859.67 710.667,1869.17 700.5,1878C 694.988,1881.51 689.155,1884.34 683,1886.5C 682.439,1885.98 681.772,1885.64 681,1885.5C 676.205,1886.25 671.372,1886.75 666.5,1887C 666,1887.5 665.5,1888 665,1888.5C 659.133,1886.3 653.3,1886.3 647.5,1888.5C 642.943,1886.4 638.277,1886.07 633.5,1887.5C 628.441,1884.77 623.108,1883.77 617.5,1884.5C 607.155,1881.06 596.822,1877.56 586.5,1874C 567.059,1865.94 548.059,1856.11 529.5,1844.5C 525.984,1840.13 524.151,1835.13 524,1829.5C 522.333,1827.5 520.667,1825.5 519,1823.5C 512.137,1808.57 505.47,1793.57 499,1778.5C 488.821,1738.43 481.988,1697.76 478.5,1656.5C 477.836,1588.63 485.002,1521.3 500,1454.5C 510.133,1418.76 519.466,1382.76 528,1346.5C 537.369,1317.67 547.035,1289.01 557,1260.5C 562.45,1248.82 568.283,1237.32 574.5,1226C 566.648,1220.57 558.981,1214.91 551.5,1209C 528.343,1185.85 508.176,1160.35 491,1132.5C 485.76,1120.34 480.76,1108.01 476,1095.5C 470.736,1075.86 468.569,1055.86 469.5,1035.5C 469.216,1013.71 470.716,992.039 474,970.5C 474.582,948.108 475.749,925.775 477.5,903.5C 474.784,903.322 472.117,902.822 469.5,902C 471.667,898.5 474.5,895.667 478,893.5C 481.642,887.048 485.142,880.548 488.5,874C 487.57,873.009 486.404,872.509 485,872.5C 481.828,873.747 478.661,873.747 475.5,872.5C 475.238,871.022 475.571,869.689 476.5,868.5C 485.736,862.435 493.903,855.101 501,846.5C 502.139,843.417 503.472,840.417 505,837.5C 505.667,834.5 505.667,831.5 505,828.5C 492.326,797.264 486.493,765.264 487.5,732.5C 492.9,711.576 503.9,694.076 520.5,680C 531.566,670.967 543.9,664.3 557.5,660C 565.287,659.043 572.954,657.543 580.5,655.5C 583.504,656.989 586.504,658.322 589.5,659.5 Z"/></g>
<g><path style="opacity:1" fill="#9f8a81" d="M 589.5,659.5 C 593.049,660.679 596.716,661.679 600.5,662.5C 601.757,666.347 604.424,668.68 608.5,669.5C 608.384,672.91 610.05,674.244 613.5,673.5C 614.099,676.168 615.766,678.002 618.5,679C 620.444,682.45 623.111,684.95 626.5,686.5C 627.833,689.167 629.167,691.833 630.5,694.5C 636.378,698.055 641.045,703.055 644.5,709.5C 645.325,710.386 646.325,710.719 647.5,710.5C 647.238,711.978 647.571,713.311 648.5,714.5C 656.062,723.889 665.062,731.723 675.5,738C 677.942,741.718 681.275,744.218 685.5,745.5C 688.199,743.653 691.199,742.653 694.5,742.5C 692.9,743.644 691.233,744.811 689.5,746C 681.894,748.869 674.227,751.535 666.5,754C 665.667,754.833 664.833,755.667 664,756.5C 662.693,755.228 661.193,754.228 659.5,753.5C 653.753,745.674 648.253,737.674 643,729.5C 635.473,721.959 629.473,713.292 625,703.5C 617.978,695.312 611.144,686.979 604.5,678.5C 604.051,675.258 602.384,672.925 599.5,671.5C 597.241,666.417 593.907,662.417 589.5,659.5 Z"/></g>
<g><path style="opacity:1" fill="#12140c" d="M 845.5,658.5 C 844.986,660.366 844.32,662.2 843.5,664C 843.57,664.765 843.903,665.265 844.5,665.5C 843.677,667.455 843.51,669.455 844,671.5C 848.712,677.891 854.212,683.058 860.5,687C 862.183,685.714 863.849,684.547 865.5,683.5C 867.754,678.496 870.421,673.662 873.5,669C 870.781,667.058 867.781,665.558 864.5,664.5C 864.735,663.903 865.235,663.57 866,663.5C 868.319,664.871 870.819,665.538 873.5,665.5C 873.5,664.167 873.5,662.833 873.5,661.5C 875.43,662.763 877.097,664.43 878.5,666.5C 873.82,676.628 868.32,685.628 862,693.5C 853.327,687.826 846.327,680.493 841,671.5C 840.247,666.349 841.747,662.015 845.5,658.5 Z"/></g>
<g><path style="opacity:1" fill="#19ae4c" d="M 864.5,664.5 C 867.781,665.558 870.781,667.058 873.5,669C 870.421,673.662 867.754,678.496 865.5,683.5C 864.167,683.5 862.833,683.5 861.5,683.5C 861.593,677.137 861.26,670.804 860.5,664.5C 861.833,664.5 863.167,664.5 864.5,664.5 Z"/></g>
<g><path style="opacity:1" fill="#64c484" d="M 858.5,647.5 C 863.199,652.534 868.199,657.2 873.5,661.5C 873.5,662.833 873.5,664.167 873.5,665.5C 870.819,665.538 868.319,664.871 866,663.5C 865.235,663.57 864.735,663.903 864.5,664.5C 863.167,664.5 861.833,664.5 860.5,664.5C 861.26,670.804 861.593,677.137 861.5,683.5C 862.833,683.5 864.167,683.5 865.5,683.5C 863.849,684.547 862.183,685.714 860.5,687C 854.212,683.058 848.712,677.891 844,671.5C 843.51,669.455 843.677,667.455 844.5,665.5C 845.15,665.804 845.817,666.137 846.5,666.5C 850.668,664.856 855.002,663.856 859.5,663.5C 858.902,658.187 858.569,652.854 858.5,647.5 Z"/></g>
<g><path style="opacity:1" fill="#120f08" d="M 712.5,681.5 C 708.379,678.881 704.713,675.714 701.5,672C 700.552,671.517 699.552,671.351 698.5,671.5C 698.5,672.5 698.5,673.5 698.5,674.5C 697.5,674.5 696.5,674.5 695.5,674.5C 695.834,671.832 697.167,669.832 699.5,668.5C 704.215,672.548 708.548,676.881 712.5,681.5 Z"/></g>
<g><path style="opacity:1" fill="#306cf2" d="M 695.5,674.5 C 696.5,674.5 697.5,674.5 698.5,674.5C 701.971,684.258 698.637,688.925 688.5,688.5C 688.5,687.833 688.5,687.167 688.5,686.5C 689.584,683.996 690.917,681.663 692.5,679.5C 693.906,679.027 694.573,678.027 694.5,676.5C 694.328,675.508 694.662,674.842 695.5,674.5 Z"/></g>
<g><path style="opacity:1" fill="#9eb9f4" d="M 1008.5,673.5 C 1008.78,678.595 1008.45,683.595 1007.5,688.5C 1003.49,688.666 999.486,688.499 995.5,688C 994.09,687.632 993.09,686.799 992.5,685.5C 997.028,680.289 1002.36,676.289 1008.5,673.5 Z"/></g>
<g><path style="opacity:1" fill="#242237" d="M 694.5,676.5 C 694.573,678.027 693.906,679.027 692.5,679.5C 692.427,677.973 693.094,676.973 694.5,676.5 Z"/></g>
<g><path style="opacity:1" fill="#2b2722" d="M 712.5,681.5 C 713.833,681.5 714.5,682.167 714.5,683.5C 714.5,682.167 713.833,681.5 712.5,681.5 Z"/></g>
<g><path style="opacity:1" fill="#13100f" d="M 1011.5,674.5 C 1010.39,674.443 1009.39,674.11 1008.5,673.5C 1002.36,676.289 997.028,680.289 992.5,685.5C 993.09,686.799 994.09,687.632 995.5,688C 999.486,688.499 1003.49,688.666 1007.5,688.5C 1007.63,689.239 1007.46,689.906 1007,690.5C 1004.16,690.753 1001.16,690.42 998,689.5C 996.029,689.281 994.862,690.115 994.5,692C 997.364,698.228 1000.36,704.395 1003.5,710.5C 1006.83,712.252 1008.5,711.252 1008.5,707.5C 1009.71,708.234 1011.04,708.567 1012.5,708.5C 1013.31,704.061 1014.98,700.061 1017.5,696.5C 1018.6,695.399 1018.76,694.066 1018,692.5C 1015.67,686.8 1013.5,681.133 1011.5,675.5C 1012.46,675.953 1013.29,676.619 1014,677.5C 1016.5,683.998 1019,690.498 1021.5,697C 1017.26,703.939 1012.93,710.939 1008.5,718C 1005.86,718.839 1003.53,718.339 1001.5,716.5C 998.038,706.25 994.038,696.25 989.5,686.5C 995.115,680.495 1001.45,675.162 1008.5,670.5C 1009.52,671.852 1010.52,673.185 1011.5,674.5 Z"/></g>
<g><path style="opacity:1" fill="#141210" d="M 714.5,683.5 C 716.613,684.548 718.28,686.048 719.5,688C 713.836,695.17 710.169,703.337 708.5,712.5C 707.127,712.657 705.793,712.49 704.5,712C 697.996,705.829 691.829,699.329 686,692.5C 685.992,690.179 686.825,688.179 688.5,686.5C 688.5,687.167 688.5,687.833 688.5,688.5C 688.586,689.496 688.252,690.329 687.5,691C 691.46,696.895 696.126,702.228 701.5,707C 702.448,707.483 703.448,707.649 704.5,707.5C 704.5,706.5 704.5,705.5 704.5,704.5C 705.822,704.67 706.989,704.337 708,703.5C 708.603,698.856 710.103,694.523 712.5,690.5C 710.936,688.749 708.936,687.749 706.5,687.5C 709.005,686.503 711.672,686.503 714.5,687.5C 714.5,686.167 714.5,684.833 714.5,683.5 Z"/></g>
<g><path style="opacity:1" fill="#9db9f6" d="M 712.5,681.5 C 712.5,682.833 713.167,683.5 714.5,683.5C 714.5,684.833 714.5,686.167 714.5,687.5C 711.672,686.503 709.005,686.503 706.5,687.5C 704.833,687.5 703.167,687.5 701.5,687.5C 702.88,693.068 703.88,698.735 704.5,704.5C 704.5,705.5 704.5,706.5 704.5,707.5C 703.448,707.649 702.448,707.483 701.5,707C 696.126,702.228 691.46,696.895 687.5,691C 688.252,690.329 688.586,689.496 688.5,688.5C 698.637,688.925 701.971,684.258 698.5,674.5C 698.5,673.5 698.5,672.5 698.5,671.5C 699.552,671.351 700.552,671.517 701.5,672C 704.713,675.714 708.379,678.881 712.5,681.5 Z"/></g>
<g><path style="opacity:1" fill="#2a6bf7" d="M 706.5,687.5 C 708.936,687.749 710.936,688.749 712.5,690.5C 710.103,694.523 708.603,698.856 708,703.5C 706.989,704.337 705.822,704.67 704.5,704.5C 703.88,698.735 702.88,693.068 701.5,687.5C 703.167,687.5 704.833,687.5 706.5,687.5 Z"/></g>
<g><path style="opacity:1" fill="#2a6bf7" d="M 1008.5,673.5 C 1009.39,674.11 1010.39,674.443 1011.5,674.5C 1011.5,674.833 1011.5,675.167 1011.5,675.5C 1013.5,681.133 1015.67,686.8 1018,692.5C 1018.76,694.066 1018.6,695.399 1017.5,696.5C 1014.53,695.345 1011.86,693.678 1009.5,691.5C 1008.51,696.792 1008.17,702.125 1008.5,707.5C 1008.5,711.252 1006.83,712.252 1003.5,710.5C 1000.36,704.395 997.364,698.228 994.5,692C 994.862,690.115 996.029,689.281 998,689.5C 1001.16,690.42 1004.16,690.753 1007,690.5C 1007.46,689.906 1007.63,689.239 1007.5,688.5C 1008.45,683.595 1008.78,678.595 1008.5,673.5 Z"/></g>
<g><path style="opacity:1" fill="#8aa2d7" d="M 1017.5,696.5 C 1014.98,700.061 1013.31,704.061 1012.5,708.5C 1011.04,708.567 1009.71,708.234 1008.5,707.5C 1008.17,702.125 1008.51,696.792 1009.5,691.5C 1011.86,693.678 1014.53,695.345 1017.5,696.5 Z"/></g>
<g><path style="opacity:0.99" fill="#090706" d="M 529.5,798.5 C 529.904,793.217 529.238,788.217 527.5,783.5C 517.008,747.694 527.341,719.86 558.5,700C 565.566,699.142 572.566,697.975 579.5,696.5C 588.498,696.377 596.831,698.544 604.5,703C 605.743,704.154 606.743,705.488 607.5,707C 611.64,707.8 614.64,710.133 616.5,714C 619.149,714.794 621.316,716.294 623,718.5C 631.045,728.256 636.712,739.256 640,751.5C 640.615,753.116 641.615,754.449 643,755.5C 643.705,762.276 645.205,768.776 647.5,775C 647.646,777.034 646.98,778.701 645.5,780C 642.794,780.77 640.294,781.937 638,783.5C 634.88,780.223 631.046,778.056 626.5,777C 619.037,775.503 611.704,773.836 604.5,772C 608.418,774.877 612.585,777.377 617,779.5C 619.84,781.951 620.006,784.451 617.5,787C 611.207,788.023 604.874,788.689 598.5,789C 597.241,789.923 595.908,790.757 594.5,791.5C 595.833,793.5 597.167,795.5 598.5,797.5C 592.006,803.414 584.339,807.247 575.5,809C 571.364,809.671 567.364,809.171 563.5,807.5C 558.238,810.102 553.238,813.102 548.5,816.5C 547.692,818.423 547.192,820.423 547,822.5C 546.261,823.574 545.261,824.241 544,824.5C 534.226,818.622 529.393,809.955 529.5,798.5 Z"/></g>
<g><path style="opacity:1" fill="#58463e" d="M 571.5,801.5 C 577.643,788.605 583.143,775.272 588,761.5C 588.823,757.262 588.156,753.262 586,749.5C 584.946,744.309 582.113,740.475 577.5,738C 565.872,734.676 554.205,731.842 542.5,729.5C 547.018,722.63 552.352,716.464 558.5,711C 570.474,703.168 582.808,702.501 595.5,709C 597.067,711.741 599.401,712.908 602.5,712.5C 606.385,717.568 610.552,722.568 615,727.5C 623.578,740.993 629.078,755.66 631.5,771.5C 629.926,772.631 628.259,772.798 626.5,772C 618.854,768.588 610.854,766.422 602.5,765.5C 599.671,765.548 597.337,766.548 595.5,768.5C 596,769.5 596.5,770.5 597,771.5C 601.237,775.036 605.737,778.202 610.5,781C 603.638,782.603 596.638,783.937 589.5,785C 586.946,787.835 586.946,790.669 589.5,793.5C 589.392,794.442 589.059,795.275 588.5,796C 583.115,798.739 577.449,800.573 571.5,801.5 Z"/></g>
<g><path style="opacity:1" fill="#775c4f" d="M 542.5,729.5 C 554.205,731.842 565.872,734.676 577.5,738C 582.113,740.475 584.946,744.309 586,749.5C 588.156,753.262 588.823,757.262 588,761.5C 583.143,775.272 577.643,788.605 571.5,801.5C 562.307,803.453 553.64,806.787 545.5,811.5C 543.827,809.914 541.827,809.247 539.5,809.5C 534.629,787.042 533.462,764.376 536,741.5C 537.961,737.377 540.127,733.377 542.5,729.5 Z"/></g>
<g><path style="opacity:1" fill="#614910" d="M 971.5,734.5 C 975.184,735.609 978.851,736.609 982.5,737.5C 978.256,738.054 974.59,737.054 971.5,734.5 Z"/></g>
<g><path style="opacity:0.995" fill="#060504" d="M 1084.5,788.5 C 1087.87,782.754 1090.87,776.754 1093.5,770.5C 1107.67,749.675 1127.17,737.675 1152,734.5C 1155,734.976 1158.17,734.976 1161.5,734.5C 1163.83,734.667 1166.17,734.833 1168.5,735C 1172.07,736.731 1175.73,738.231 1179.5,739.5C 1179.5,740.5 1179.5,741.5 1179.5,742.5C 1180.83,742.5 1182.17,742.5 1183.5,742.5C 1188.35,748.336 1192.35,754.836 1195.5,762C 1206.94,798.025 1197.6,827.359 1167.5,850C 1161.19,855.07 1154.35,859.237 1147,862.5C 1145.77,862.355 1144.61,862.022 1143.5,861.5C 1139.1,850.264 1133.77,839.598 1127.5,829.5C 1126.18,829.67 1125.01,829.337 1124,828.5C 1123.34,822.49 1126.17,819.657 1132.5,820C 1132.17,819.667 1131.83,819.333 1131.5,819C 1121.93,815.079 1112.43,811.246 1103,807.5C 1102.18,805.299 1102.68,803.466 1104.5,802C 1109.56,801.046 1114.56,799.88 1119.5,798.5C 1113.92,795.436 1107.92,793.603 1101.5,793C 1095.46,792.529 1089.46,792.529 1083.5,793C 1082.08,791.085 1082.42,789.585 1084.5,788.5 Z"/></g>
<g><path style="opacity:1" fill="#a08b82" d="M 1079.5,734.5 C 1075.24,742.317 1072.07,750.651 1070,759.5C 1064.49,769.553 1061.16,780.22 1060,791.5C 1058.23,792.304 1056.73,793.471 1055.5,795C 1054.5,795.667 1053.5,795.667 1052.5,795C 1047.61,791.249 1042.94,787.415 1038.5,783.5C 1041.97,779.859 1045.3,776.026 1048.5,772C 1047.55,771.282 1047.38,770.449 1048,769.5C 1056.2,755.797 1066.7,744.13 1079.5,734.5 Z"/></g>
<g><path style="opacity:1" fill="#58463e" d="M 1166.5,748.5 C 1163.55,749.614 1161.38,751.614 1160,754.5C 1150.67,783.279 1147.17,812.612 1149.5,842.5C 1147.78,844.447 1145.62,845.781 1143,846.5C 1139.28,839.779 1134.78,833.612 1129.5,828C 1132.83,826.834 1136.16,825.668 1139.5,824.5C 1140.77,822.305 1140.77,820.139 1139.5,818C 1131.33,812.416 1122.33,808.75 1112.5,807C 1118.24,805.987 1123.91,804.654 1129.5,803C 1131.03,800.119 1130.36,797.786 1127.5,796C 1116.8,789.407 1105.13,786.407 1092.5,787C 1106.68,765.573 1126.34,752.073 1151.5,746.5C 1156.68,746.047 1161.68,746.714 1166.5,748.5 Z"/></g>
<g><path style="opacity:1" fill="#775c4f" d="M 1166.5,748.5 C 1169.32,748.081 1171.49,749.081 1173,751.5C 1176.73,756.906 1180.07,762.573 1183,768.5C 1186.5,785.28 1185.17,801.613 1179,817.5C 1171.2,828.305 1161.36,836.639 1149.5,842.5C 1147.17,812.612 1150.67,783.279 1160,754.5C 1161.38,751.614 1163.55,749.614 1166.5,748.5 Z"/></g>
<g><path style="opacity:1" fill="#6c5215" d="M 1020.5,755.5 C 1022.32,755.831 1023.99,756.498 1025.5,757.5C 1023.26,758.858 1021.59,758.192 1020.5,755.5 Z"/></g>
<g><path style="opacity:1" fill="#423833" d="M 1093.5,770.5 C 1090.87,776.754 1087.87,782.754 1084.5,788.5C 1085.95,781.603 1088.95,775.603 1093.5,770.5 Z"/></g>
<g><path style="opacity:1" fill="#65554e" d="M 527.5,783.5 C 529.238,788.217 529.904,793.217 529.5,798.5C 527.855,793.766 527.189,788.766 527.5,783.5 Z"/></g>
<g><path style="opacity:1" fill="#050404" d="M 994.5,894.5 C 996.054,895.914 997.388,897.581 998.5,899.5C 1003.33,901.68 1006.66,900.347 1008.5,895.5C 1007.56,891.663 1006.22,887.996 1004.5,884.5C 1003.28,883.839 1001.95,883.172 1000.5,882.5C 1005.5,877.249 1011.5,875.749 1018.5,878C 1022.65,882.478 1027.15,886.645 1032,890.5C 1035.07,895.395 1037.9,900.395 1040.5,905.5C 1043.19,914.259 1043.03,922.926 1040,931.5C 1037.06,936.986 1033.9,942.319 1030.5,947.5C 1019.46,953.126 1010.3,951.126 1003,941.5C 993.142,926.961 990.309,911.294 994.5,894.5 Z"/></g>
<g><path style="opacity:1" fill="#050404" d="M 728.5,900.5 C 730.762,901.823 733.096,903.157 735.5,904.5C 742.204,902.772 744.871,898.439 743.5,891.5C 740.964,890.963 738.964,889.63 737.5,887.5C 737.297,885.61 737.963,884.11 739.5,883C 744.229,880.033 749.229,879.7 754.5,882C 762.505,885.476 767.005,891.643 768,900.5C 770.679,917.441 767.012,932.774 757,946.5C 751.006,953.207 743.506,955.874 734.5,954.5C 734.5,953.5 734.5,952.5 734.5,951.5C 733.022,951.762 731.689,951.429 730.5,950.5C 725.366,943.901 721.533,936.568 719,928.5C 718.252,922.468 718.419,916.468 719.5,910.5C 721.563,906.004 724.063,901.671 727,897.5C 727.232,898.737 727.732,899.737 728.5,900.5 Z"/></g>
<g><path style="opacity:0.047" fill="#000000" d="M 1397.5,884.5 C 1398.25,883.427 1399.25,883.26 1400.5,884C 1399.55,884.483 1398.55,884.649 1397.5,884.5 Z"/></g>
<g><path style="opacity:1" fill="#f8f8f8" d="M 1004.5,884.5 C 1006.22,887.996 1007.56,891.663 1008.5,895.5C 1006.66,900.347 1003.33,901.68 998.5,899.5C 997.388,897.581 996.054,895.914 994.5,894.5C 991.836,891.436 992.003,888.436 995,885.5C 998.057,884.549 1001.22,884.216 1004.5,884.5 Z"/></g>
<g><path style="opacity:1" fill="#f4f4f4" d="M 737.5,887.5 C 738.964,889.63 740.964,890.963 743.5,891.5C 744.871,898.439 742.204,902.772 735.5,904.5C 733.096,903.157 730.762,901.823 728.5,900.5C 726.497,892.525 729.497,888.191 737.5,887.5 Z"/></g>
<g><path style="opacity:1" fill="#0f0c0b" d="M 1028.5,1000.5 C 1013.96,994.109 1000.29,986.275 987.5,977C 976.76,972.196 966.093,967.196 955.5,962C 940.088,952.127 923.755,944.127 906.5,938C 901.096,937.228 895.762,937.561 890.5,939C 882.003,942.202 874.003,946.202 866.5,951C 861.111,955.389 855.444,959.389 849.5,963C 828.772,972.699 808.105,982.366 787.5,992C 749,1013.49 737.834,1044.99 754,1086.5C 768.573,1108.37 788.74,1122.54 814.5,1129C 825.946,1130.59 837.446,1131.43 849,1131.5C 891.497,1129.18 933.997,1127.68 976.5,1127C 999.277,1121.11 1017.94,1108.95 1032.5,1090.5C 1042.16,1076.26 1044.83,1061.09 1040.5,1045C 1043.55,1044.82 1046.55,1044.32 1049.5,1043.5C 1048,1039.64 1046.34,1035.98 1044.5,1032.5C 1047.66,1033.04 1050.33,1032.2 1052.5,1030C 1049.98,1028.3 1047.65,1026.47 1045.5,1024.5C 1045.33,1023.51 1045.66,1022.84 1046.5,1022.5C 1050.36,1024.84 1054.36,1027.01 1058.5,1029C 1059.34,1030.01 1059.67,1031.18 1059.5,1032.5C 1058.13,1032.34 1056.79,1032.51 1055.5,1033C 1053.84,1034.83 1051.84,1036.16 1049.5,1037C 1052.77,1041.37 1055.1,1046.2 1056.5,1051.5C 1056,1051.83 1055.5,1052.17 1055,1052.5C 1053.37,1051.71 1051.87,1050.71 1050.5,1049.5C 1049.57,1059.43 1048.07,1069.43 1046,1079.5C 1040.14,1094.36 1030.3,1105.86 1016.5,1114C 993.834,1126.34 969.501,1133.01 943.5,1134C 906.179,1135.61 868.846,1136.28 831.5,1136C 805.142,1135.23 782.309,1126.06 763,1108.5C 741.336,1083.55 735.669,1055.21 746,1023.5C 753.083,1010.75 762.583,1000.25 774.5,992C 798.591,979.962 822.925,968.295 847.5,957C 857.992,949.251 868.992,942.251 880.5,936C 886.573,933.253 892.906,931.42 899.5,930.5C 911.394,932.299 922.728,935.799 933.5,941C 960.89,955.532 987.89,970.865 1014.5,987C 1019.7,991.031 1024.36,995.531 1028.5,1000.5 Z"/></g>
<g><path style="opacity:1" fill="#f3c9b8" d="M 1028.5,1000.5 C 1033.58,1008.06 1040.58,1013.22 1049.5,1016C 1047.11,1016.3 1044.94,1017.14 1043,1018.5C 1042.46,1021.08 1043.29,1023.08 1045.5,1024.5C 1047.65,1026.47 1049.98,1028.3 1052.5,1030C 1050.33,1032.2 1047.66,1033.04 1044.5,1032.5C 1046.34,1035.98 1048,1039.64 1049.5,1043.5C 1046.55,1044.32 1043.55,1044.82 1040.5,1045C 1044.83,1061.09 1042.16,1076.26 1032.5,1090.5C 1017.94,1108.95 999.277,1121.11 976.5,1127C 933.997,1127.68 891.497,1129.18 849,1131.5C 837.446,1131.43 825.946,1130.59 814.5,1129C 788.74,1122.54 768.573,1108.37 754,1086.5C 737.834,1044.99 749,1013.49 787.5,992C 808.105,982.366 828.772,972.699 849.5,963C 855.444,959.389 861.111,955.389 866.5,951C 874.003,946.202 882.003,942.202 890.5,939C 895.762,937.561 901.096,937.228 906.5,938C 923.755,944.127 940.088,952.127 955.5,962C 966.093,967.196 976.76,972.196 987.5,977C 1000.29,986.275 1013.96,994.109 1028.5,1000.5 Z"/></g>
<g><path style="opacity:1" fill="#0a0807" d="M 898.5,966.5 C 906.174,966.334 913.841,966.5 921.5,967C 926.216,968.341 930.716,970.174 935,972.5C 936.38,975.428 937.88,978.262 939.5,981C 934.051,993.78 924.718,1002.45 911.5,1007C 915.728,1010.81 919.728,1014.81 923.5,1019C 926.969,1020.21 930.302,1021.71 933.5,1023.5C 936.725,1024.18 939.725,1025.35 942.5,1027C 948.194,1027.38 953.86,1027.38 959.5,1027C 961.21,1029.04 962.877,1031.04 964.5,1033C 962.346,1038.25 958.346,1040.75 952.5,1040.5C 933.431,1037.13 918.431,1027.47 907.5,1011.5C 902.775,1018.42 897.442,1024.92 891.5,1031C 880.573,1038.44 868.573,1040.94 855.5,1038.5C 853.807,1036.97 851.973,1035.64 850,1034.5C 847.598,1031.29 848.098,1028.79 851.5,1027C 856.628,1027.29 861.795,1027.79 867,1028.5C 881.114,1027.52 891.947,1021.02 899.5,1009C 893.551,1005.19 887.217,1002.19 880.5,1000C 873.455,993.84 870.121,986.173 870.5,977C 879.45,972.067 888.784,968.567 898.5,966.5 Z"/></g>
<g><path style="opacity:0.004" fill="#000000" d="M 1296.5,970.5 C 1297.83,971.167 1297.83,971.167 1296.5,970.5 Z"/></g>
<g><path style="opacity:1" fill="#503323" d="M 902.5,972.5 C 911.294,972.091 919.96,972.924 928.5,975C 931.006,976.516 931.84,978.682 931,981.5C 917.41,1000.7 900.91,1003.86 881.5,991C 880.12,987.541 878.787,984.041 877.5,980.5C 880.588,977.633 884.254,975.799 888.5,975C 893.336,974.32 898.003,973.486 902.5,972.5 Z"/></g>
<g><path style="opacity:0.004" fill="#aca938" d="M 1297.5,972.5 C 1298.78,974.608 1299.28,976.942 1299,979.5C 1297.65,977.406 1297.15,975.073 1297.5,972.5 Z"/></g>
<g><path style="opacity:1" fill="#755a4d" d="M 909.5,975.5 C 913.884,975.174 918.217,975.508 922.5,976.5C 924.339,978.527 924.839,980.86 924,983.5C 916.643,992.228 911.143,991.062 907.5,980C 908.044,978.415 908.711,976.915 909.5,975.5 Z"/></g>
<g><path style="opacity:0.118" fill="#b79f8f" d="M 460.5,964.5 C 461.158,965.793 461.492,967.293 461.5,969C 459.576,986.963 457.909,1004.8 456.5,1022.5C 456.609,1011.25 456.609,1000.08 456.5,989C 457.147,980.71 458.48,972.543 460.5,964.5 Z"/></g>
<g><path style="opacity:0.512" fill="#98837b" d="M 1233.5,976.5 C 1234.77,979.343 1235.6,982.343 1236,985.5C 1236.5,994.16 1236.67,1002.83 1236.5,1011.5C 1235.11,1001.47 1233.44,991.134 1231.5,980.5C 1231.67,978.829 1232.33,977.496 1233.5,976.5 Z"/></g>
<g><path style="opacity:0.004" fill="#feff00" d="M 1377.5,994.5 C 1378.83,995.167 1378.83,995.167 1377.5,994.5 Z"/></g>
<g><path style="opacity:1" fill="#332a27" d="M 1028.5,1000.5 C 1035.93,1006.38 1044.27,1010.38 1053.5,1012.5C 1053.58,1013.93 1053.25,1015.26 1052.5,1016.5C 1050.1,1018.24 1048.1,1020.24 1046.5,1022.5C 1045.66,1022.84 1045.33,1023.51 1045.5,1024.5C 1043.29,1023.08 1042.46,1021.08 1043,1018.5C 1044.94,1017.14 1047.11,1016.3 1049.5,1016C 1040.58,1013.22 1033.58,1008.06 1028.5,1000.5 Z"/></g>
<g><path style="opacity:0.169" fill="#c6af99" d="M 1268.5,1024.5 C 1272.05,1029.2 1272.21,1034.2 1269,1039.5C 1268.5,1034.51 1268.33,1029.51 1268.5,1024.5 Z"/></g>
<g><path style="opacity:0.078" fill="#c6beb8" d="M 1234.5,1041.5 C 1234.84,1045.16 1234.17,1048.49 1232.5,1051.5C 1232.55,1047.92 1233.22,1044.59 1234.5,1041.5 Z"/></g>
<g><path style="opacity:0.004" fill="#fefffe" d="M 1366.5,1060.5 C 1367.57,1061.25 1367.74,1062.25 1367,1063.5C 1366.52,1062.55 1366.35,1061.55 1366.5,1060.5 Z"/></g>
<g><path style="opacity:0.445" fill="#99857c" d="M 1227.5,1069.5 C 1223.28,1088.6 1215.78,1106.27 1205,1122.5C 1199.68,1130.31 1193.85,1137.64 1187.5,1144.5C 1204.22,1121.4 1217.55,1096.4 1227.5,1069.5 Z"/></g>
<g><path style="opacity:0.02" fill="#938880" d="M 458.5,1058.5 C 459.268,1059.26 459.768,1060.26 460,1061.5C 460.649,1077.42 463.816,1092.75 469.5,1107.5C 469.376,1108.11 469.043,1108.44 468.5,1108.5C 462.102,1092.04 458.769,1075.37 458.5,1058.5 Z"/></g>
<g><path style="opacity:0.118" fill="#000000" d="M 1429.5,1143.5 C 1431.34,1143.64 1431.67,1144.31 1430.5,1145.5C 1429.7,1145.04 1429.37,1144.38 1429.5,1143.5 Z"/></g>
<g><path style="opacity:0.043" fill="#af988b" d="M 543.5,1214.5 C 509.879,1186.21 485.213,1151.54 469.5,1110.5C 469.435,1110.06 469.601,1109.73 470,1109.5C 476.344,1122.19 482.678,1134.86 489,1147.5C 502.289,1165.75 516.289,1183.42 531,1200.5C 536.762,1204.39 540.928,1209.05 543.5,1214.5 Z"/></g>
<g><path style="opacity:0.027" fill="#a28f84" d="M 1187.5,1144.5 C 1186.92,1146.75 1185.59,1148.42 1183.5,1149.5C 1184.08,1147.25 1185.41,1145.58 1187.5,1144.5 Z"/></g>
<g><path style="opacity:0.008" fill="#95827e" d="M 1183.5,1149.5 C 1181.57,1153.1 1178.9,1156.1 1175.5,1158.5C 1177.48,1154.85 1180.15,1151.85 1183.5,1149.5 Z"/></g>
<g><path style="opacity:0.106" fill="#b29780" d="M 544.5,1215.5 C 549.747,1217.22 554.081,1220.39 557.5,1225C 558.5,1225.33 559.5,1225.67 560.5,1226C 563.332,1227.91 562.999,1228.74 559.5,1228.5C 554.718,1223.94 549.718,1219.6 544.5,1215.5 Z"/></g>
<g><path style="opacity:1" fill="#a18c83" d="M 930.5,1255.5 C 930.449,1270.53 932.782,1285.19 937.5,1299.5C 898.089,1293.15 859.423,1283.65 821.5,1271C 807.104,1266.8 793.771,1260.47 781.5,1252C 771.062,1247.95 760.728,1243.62 750.5,1239C 757.609,1239.89 764.609,1241.56 771.5,1244C 792.095,1247.7 812.761,1251.04 833.5,1254C 851.665,1255.19 869.832,1256.36 888,1257.5C 902.164,1256.7 916.33,1256.04 930.5,1255.5 Z"/></g>
<g><path style="opacity:1" fill="#a08b82" d="M 982.5,1798.5 C 978.027,1799.1 973.694,1800.44 969.5,1802.5C 968.389,1801.39 967.055,1800.72 965.5,1800.5C 963.167,1801.17 960.833,1801.83 958.5,1802.5C 951.88,1801.99 945.38,1801.99 939,1802.5C 932.299,1803.59 925.632,1804.92 919,1806.5C 909.459,1805.87 899.959,1806.54 890.5,1808.5C 881.457,1808.51 872.457,1808.51 863.5,1808.5C 856.157,1809.22 848.824,1810.06 841.5,1811C 814.169,1811.5 786.835,1811.67 759.5,1811.5C 759.5,1809.5 759.5,1807.5 759.5,1805.5C 757.409,1805.32 755.409,1805.65 753.5,1806.5C 753.167,1804.83 752.833,1803.17 752.5,1801.5C 753.594,1786.84 753.594,1772.17 752.5,1757.5C 752.121,1745.1 751.121,1732.77 749.5,1720.5C 750.065,1714.16 750.731,1707.83 751.5,1701.5C 743.711,1640.35 736.544,1579.01 730,1517.5C 721.893,1456.26 708.227,1396.59 689,1338.5C 687.953,1335.14 686.453,1332.14 684.5,1329.5C 681.931,1324.5 680.431,1319.17 680,1313.5C 680.438,1317.44 682.604,1319.44 686.5,1319.5C 690.019,1329.55 693.853,1339.55 698,1349.5C 706.178,1366.04 713.178,1383.04 719,1400.5C 719.61,1396.76 719.277,1393.1 718,1389.5C 713.38,1377.62 709.38,1365.62 706,1353.5C 707,1355.17 708,1356.83 709,1358.5C 716.455,1380.53 724.122,1402.53 732,1424.5C 735.199,1435.36 737.866,1446.36 740,1457.5C 750.063,1486.03 758.729,1515.03 766,1544.5C 774.189,1566.58 780.522,1589.25 785,1612.5C 794.248,1629.27 802.914,1646.27 811,1663.5C 818.769,1674.05 826.769,1684.39 835,1694.5C 854.626,1714.63 874.459,1734.63 894.5,1754.5C 921.324,1769.12 948.324,1783.62 975.5,1798C 977.81,1798.5 980.143,1798.66 982.5,1798.5 Z"/></g>
<g><path style="opacity:1" fill="#070605" d="M 684.5,1329.5 C 686.453,1332.14 687.953,1335.14 689,1338.5C 708.227,1396.59 721.893,1456.26 730,1517.5C 736.544,1579.01 743.711,1640.35 751.5,1701.5C 750.731,1707.83 750.065,1714.16 749.5,1720.5C 748.046,1723.41 746.546,1726.41 745,1729.5C 744.768,1728.26 744.268,1727.26 743.5,1726.5C 742.7,1703.97 740.2,1681.63 736,1659.5C 732.122,1617.02 727.122,1574.69 721,1532.5C 720.208,1515.45 718.875,1498.45 717,1481.5C 712.427,1456.49 707.76,1431.49 703,1406.5C 695.558,1381.22 689.392,1355.55 684.5,1329.5 Z"/></g>
<g><path style="opacity:0.031" fill="#000000" d="M 438.5,1605.5 C 439.622,1607.29 439.789,1609.29 439,1611.5C 438.505,1609.53 438.338,1607.53 438.5,1605.5 Z"/></g>
<g><path style="opacity:1" fill="#382f2c" d="M 749.5,1720.5 C 751.121,1732.77 752.121,1745.1 752.5,1757.5C 751.539,1755.74 751.205,1753.74 751.5,1751.5C 750.07,1751.58 748.736,1751.25 747.5,1750.5C 746.828,1751.95 746.161,1753.28 745.5,1754.5C 744.966,1745.15 744.299,1735.82 743.5,1726.5C 744.268,1727.26 744.768,1728.26 745,1729.5C 746.546,1726.41 748.046,1723.41 749.5,1720.5 Z"/></g>
<g><path style="opacity:1" fill="#917c74" d="M 745.5,1755.5 C 746.616,1762.64 747.282,1769.98 747.5,1777.5C 747.571,1783.07 746.904,1788.4 745.5,1793.5C 745.061,1780.78 745.061,1768.12 745.5,1755.5 Z"/></g>
</svg>
