<?xml version="1.0" encoding="UTF-8"?>
<!DOCTYPE svg PUBLIC "-//W3C//DTD SVG 1.1//EN" "http://www.w3.org/Graphics/SVG/1.1/DTD/svg11.dtd">
<svg xmlns="http://www.w3.org/2000/svg" version="1.1" width="2048px" height="2048px" style="shape-rendering:geometricPrecision; text-rendering:geometricPrecision; image-rendering:optimizeQuality; fill-rule:evenodd; clip-rule:evenodd" xmlns:xlink="http://www.w3.org/1999/xlink">
<g><path style="opacity:0.946" fill="#030302" d="M 559.5,1228.5 C 562.999,1228.74 563.332,1227.91 560.5,1226C 559.5,1225.67 558.5,1225.33 557.5,1225C 554.081,1220.39 549.747,1217.22 544.5,1215.5C 543.833,1215.5 543.5,1215.17 543.5,1214.5C 540.928,1209.05 536.762,1204.39 531,1200.5C 516.289,1183.42 502.289,1165.75 489,1147.5C 482.678,1134.86 476.344,1122.19 470,1109.5C 469.601,1109.73 469.435,1110.06 469.5,1110.5C 468.662,1110.16 468.328,1109.49 468.5,1108.5C 469.043,1108.44 469.376,1108.11 469.5,1107.5C 463.816,1092.75 460.649,1077.42 460,1061.5C 459.768,1060.26 459.268,1059.26 458.5,1058.5C 457.422,1046.35 456.755,1034.35 456.5,1022.5C 457.909,1004.8 459.576,986.963 461.5,969C 461.492,967.293 461.158,965.793 460.5,964.5C 462.537,949.056 465.204,933.722 468.5,918.5C 468.587,914.674 467.087,911.674 464,909.5C 461.059,911.964 458.892,911.297 457.5,907.5C 465.515,898.147 473.182,888.48 480.5,878.5C 475.136,877.645 469.803,876.645 464.5,875.5C 460.693,873.233 460.693,871.066 464.5,869C 467.754,868.75 470.754,867.75 473.5,866C 480.293,860.875 486.793,855.375 493,849.5C 495.982,844.505 495.482,839.672 491.5,835C 492.517,833.951 492.684,832.784 492,831.5C 488.214,825.592 485.214,819.258 483,812.5C 478.796,795.431 475.296,778.265 472.5,761C 472.107,747.335 472.607,733.502 474,719.5C 491.782,675.6 523.115,649.6 568,641.5C 570.07,641.163 572.07,641.829 574,643.5C 575.261,643.241 576.261,642.574 577,641.5C 579.333,641.5 581.667,641.5 584,641.5C 587,643.173 590,643.84 593,643.5C 601.347,647.233 609.513,651.899 617.5,657.5C 619.756,658.421 620.756,660.088 620.5,662.5C 624.889,663.179 627.889,665.512 629.5,669.5C 632.505,669.25 634.338,670.583 635,673.5C 637.775,674.939 640.275,676.772 642.5,679C 647.81,684.53 652.977,690.03 658,695.5C 658.422,693.645 658.922,691.811 659.5,690C 658.961,683.884 658.628,677.884 658.5,672C 659.483,658.528 660.483,645.028 661.5,631.5C 661.291,630.914 660.957,630.414 660.5,630C 662.277,622.971 662.611,616.137 661.5,609.5C 661.833,607.833 662.833,606.833 664.5,606.5C 670.341,609.006 675.341,612.673 679.5,617.5C 683.385,618.178 686.218,620.178 688,623.5C 688.414,623.043 688.914,622.709 689.5,622.5C 719.608,642.302 751.274,644.802 784.5,630C 813.84,617.828 836.507,597.995 852.5,570.5C 858.825,577.662 864.992,584.995 871,592.5C 877.808,598.638 884.641,604.805 891.5,611C 909.271,619.924 927.938,626.257 947.5,630C 980.171,636.772 1009.5,629.772 1035.5,609C 1037.02,607.991 1038.69,607.491 1040.5,607.5C 1040.78,612.233 1040.44,616.9 1039.5,621.5C 1040.67,625.384 1041.67,629.217 1042.5,633C 1042.17,633.333 1041.83,633.667 1041.5,634C 1042.61,642.045 1043.61,650.378 1044.5,659C 1043.62,662.336 1043.96,665.67 1045.5,669C 1044.98,669.561 1044.64,670.228 1044.5,671C 1044.96,678.922 1045.96,686.922 1047.5,695C 1046.86,710.241 1046.53,725.574 1046.5,741C 1047.25,742.734 1047.75,744.567 1048,746.5C 1069.54,719.502 1096.21,701.502 1128,692.5C 1135.19,689.995 1142.52,687.995 1150,686.5C 1154.35,687.29 1159.01,686.957 1164,685.5C 1170.68,685.511 1177.35,685.511 1184,685.5C 1188.31,687.172 1192.47,688.339 1196.5,689C 1197.3,690.771 1198.47,692.271 1200,693.5C 1205.18,693.518 1209.35,695.851 1212.5,700.5C 1213.17,700.167 1213.83,699.833 1214.5,699.5C 1215.92,701.718 1217.92,703.218 1220.5,704C 1225.69,710.516 1230.85,717.016 1236,723.5C 1242.33,736.432 1247.5,749.598 1251.5,763C 1250.98,763.561 1250.64,764.228 1250.5,765C 1252.74,772.504 1254.41,780.171 1255.5,788C 1254.17,795.333 1254.17,802.667 1255.5,810C 1254.21,815.434 1253.05,820.934 1252,826.5C 1248.12,837.518 1243.45,848.518 1238,859.5C 1227.29,876.701 1212.12,888.035 1192.5,893.5C 1190.38,892.218 1188.71,892.718 1187.5,895C 1191.62,900.73 1195.62,906.563 1199.5,912.5C 1212.4,925.282 1222.07,940.282 1228.5,957.5C 1233.51,958.248 1238.18,957.081 1242.5,954C 1249.55,947.951 1256.88,942.284 1264.5,937C 1282.64,926.76 1300.97,916.76 1319.5,907C 1328.64,903.677 1337.81,900.511 1347,897.5C 1347.33,897.833 1347.67,898.167 1348,898.5C 1357.23,893.763 1366.06,888.429 1374.5,882.5C 1376.05,883.212 1377.05,884.378 1377.5,886C 1376.21,888.05 1375.71,890.217 1376,892.5C 1383.05,887.929 1390.71,884.929 1399,883.5C 1400.96,884.292 1402.46,885.625 1403.5,887.5C 1402.41,890.094 1400.74,892.261 1398.5,894C 1402.17,894.333 1405.83,894.667 1409.5,895C 1423.29,898.915 1435.12,906.082 1445,916.5C 1445.47,918.246 1446.14,919.913 1447,921.5C 1450.23,923.036 1452.73,925.369 1454.5,928.5C 1460.1,938.412 1466.43,947.745 1473.5,956.5C 1474.47,958.396 1474.8,960.396 1474.5,962.5C 1475.68,962.281 1476.68,962.614 1477.5,963.5C 1477.98,967.789 1479.98,971.122 1483.5,973.5C 1482.46,976.678 1483.3,979.344 1486,981.5C 1487.41,988.145 1489.24,994.645 1491.5,1001C 1490.54,1004.06 1490.87,1007.39 1492.5,1011C 1491.28,1018.78 1491.28,1026.78 1492.5,1035C 1490.48,1053.49 1484.65,1070.99 1475,1087.5C 1462.78,1106.54 1449.28,1124.54 1434.5,1141.5C 1433.68,1142.39 1432.68,1142.72 1431.5,1142.5C 1429.15,1146.36 1426.15,1149.86 1422.5,1153C 1413.95,1159.4 1404.95,1165.07 1395.5,1170C 1380.35,1175.86 1365.35,1181.86 1350.5,1188C 1333.88,1196.88 1316.54,1204.21 1298.5,1210C 1278.61,1218.97 1258.27,1226.97 1237.5,1234C 1228.18,1239.64 1218.85,1245.31 1209.5,1251C 1199.95,1254.11 1191.28,1258.77 1183.5,1265C 1178.18,1267.33 1172.85,1269.66 1167.5,1272C 1160.28,1277.1 1153.28,1282.44 1146.5,1288C 1141.53,1293.44 1137.69,1299.61 1135,1306.5C 1134.45,1309.42 1135.12,1312.09 1137,1314.5C 1156.53,1343.89 1173.2,1374.89 1187,1407.5C 1188.74,1414.39 1191.08,1420.72 1194,1426.5C 1196.1,1433.42 1198.1,1440.42 1200,1447.5C 1200.67,1446.17 1201.33,1446.17 1202,1447.5C 1205.38,1460.96 1209.54,1474.13 1214.5,1487C 1214.04,1487.41 1213.71,1487.91 1213.5,1488.5C 1218.62,1514.01 1223.29,1539.68 1227.5,1565.5C 1227.17,1566.17 1226.83,1566.83 1226.5,1567.5C 1228.62,1572.6 1229.28,1577.77 1228.5,1583C 1228.97,1587.87 1229.97,1592.87 1231.5,1598C 1231.62,1601.09 1231.29,1604.26 1230.5,1607.5C 1231.94,1618.17 1232.94,1629.01 1233.5,1640C 1233.2,1650.58 1233.2,1661.25 1233.5,1672C 1232.86,1681.19 1232.03,1690.35 1231,1699.5C 1230.14,1703.54 1228.48,1707.21 1226,1710.5C 1225.52,1714.53 1224.85,1718.53 1224,1722.5C 1221.73,1726.04 1219.73,1729.71 1218,1733.5C 1201.48,1746.35 1184.65,1758.85 1167.5,1771C 1147.32,1779.34 1127.82,1788.84 1109,1799.5C 1108.13,1799.26 1107.29,1798.93 1106.5,1798.5C 1103.53,1800.58 1100.19,1801.75 1096.5,1802C 1086.2,1802.71 1076.37,1804.21 1067,1806.5C 1066.44,1805.98 1065.77,1805.64 1065,1805.5C 1056.26,1808.35 1047.59,1810.68 1039,1812.5C 1038.44,1811.98 1037.77,1811.64 1037,1811.5C 1031.76,1813.76 1026.43,1814.42 1021,1813.5C 1019.81,1815.53 1018.31,1815.86 1016.5,1814.5C 1013.07,1814.91 1009.57,1815.91 1006,1817.5C 1000.9,1817.24 995.566,1817.24 990,1817.5C 985.817,1820.2 981.817,1819.87 978,1816.5C 977.581,1817.67 976.915,1818.67 976,1819.5C 972.912,1820.47 969.579,1820.47 966,1819.5C 964.739,1819.76 963.739,1820.43 963,1821.5C 960.534,1820.89 958.034,1821.22 955.5,1822.5C 954.914,1822.29 954.414,1821.96 954,1821.5C 947.536,1822.39 941.036,1823.39 934.5,1824.5C 931.674,1824.31 928.841,1823.98 926,1823.5C 918.614,1826.1 911.281,1826.76 904,1825.5C 900.803,1826.79 897.637,1827.12 894.5,1826.5C 892.813,1826.76 891.313,1827.43 890,1828.5C 881.485,1827.87 872.652,1827.54 863.5,1827.5C 836.207,1833.06 808.374,1835.06 780,1833.5C 772.323,1835.57 764.823,1835.9 757.5,1834.5C 752.047,1844.69 746.881,1855.03 742,1865.5C 737.106,1874.31 730.606,1881.65 722.5,1887.5C 715.758,1890.24 709.092,1893.08 702.5,1896C 700.485,1898.42 698.485,1900.08 696.5,1901C 694.186,1902.4 691.853,1902.56 689.5,1901.5C 687.267,1902.74 685.101,1904.08 683,1905.5C 682.311,1904.64 681.478,1903.98 680.5,1903.5C 679.719,1904.74 678.719,1905.74 677.5,1906.5C 673.995,1906.16 670.495,1906.16 667,1906.5C 664.966,1906.65 663.299,1905.98 662,1904.5C 660.667,1905.17 659.333,1905.83 658,1906.5C 654.534,1905.8 651.034,1905.13 647.5,1904.5C 645.149,1905.71 643.316,1905.05 642,1902.5C 641.261,1903.57 640.261,1904.24 639,1904.5C 637.765,1903.38 636.598,1903.38 635.5,1904.5C 623.584,1902.25 611.917,1899.08 600.5,1895C 586.713,1888.94 573.047,1882.61 559.5,1876C 541.459,1864.99 523.792,1853.49 506.5,1841.5C 491.908,1818.97 481.075,1794.64 474,1768.5C 466.339,1734.27 460.839,1700.1 457.5,1666C 457.993,1647.27 457.993,1628.43 457.5,1609.5C 459.477,1560.26 466.977,1511.26 480,1462.5C 497.01,1412.22 513.01,1361.22 528,1309.5C 534.887,1291.37 541.387,1273.87 547.5,1257C 547.167,1256.67 546.833,1256.33 546.5,1256C 548.466,1252.1 550.8,1248.44 553.5,1245C 553.167,1244.67 552.833,1244.33 552.5,1244C 555.323,1239.02 557.657,1233.85 559.5,1228.5 Z"/></g>
<g><path style="opacity:1" fill="#fee37a" d="M 910.5,624.5 C 921.899,629.698 933.232,635.198 944.5,641C 957.89,643.113 971.223,645.28 984.5,647.5C 984.969,657.047 983.803,666.381 981,675.5C 979.763,688.536 978.263,701.536 976.5,714.5C 971.877,714.451 967.877,716.285 964.5,720C 962.5,720.333 960.5,720.667 958.5,721C 957.62,722.356 957.286,723.856 957.5,725.5C 955.801,725.527 954.467,726.194 953.5,727.5C 931.602,724.148 909.602,721.315 887.5,719C 870.134,718.749 852.8,717.916 835.5,716.5C 818.534,717.993 801.534,718.66 784.5,718.5C 767.901,715.795 751.234,713.462 734.5,711.5C 733.43,697.118 732.43,682.452 731.5,667.5C 733.978,666.805 735.978,665.305 737.5,663C 756.828,665.517 773.162,659.517 786.5,645C 792.5,641 798.5,637 804.5,633C 816.667,622.167 828.833,611.333 841,600.5C 844.054,595.726 846.554,590.726 848.5,585.5C 849.552,582.807 850.552,580.14 851.5,577.5C 853.39,577.297 854.89,577.963 856,579.5C 869.663,600.065 887.83,615.065 910.5,624.5 Z"/></g>
<g><path style="opacity:1" fill="#f7d472" d="M 848.5,585.5 C 846.554,590.726 844.054,595.726 841,600.5C 828.833,611.333 816.667,622.167 804.5,633C 798.5,637 792.5,641 786.5,645C 773.162,659.517 756.828,665.517 737.5,663C 735.978,665.305 733.978,666.805 731.5,667.5C 732.43,682.452 733.43,697.118 734.5,711.5C 751.234,713.462 767.901,715.795 784.5,718.5C 769.214,720.033 753.881,722.199 738.5,725C 731.609,726.52 724.943,728.853 718.5,732C 712.922,733.596 707.256,734.763 701.5,735.5C 697.846,734.671 694.513,733.171 691.5,731C 690.743,729.488 689.743,728.154 688.5,727C 685.473,724.318 682.139,721.985 678.5,720C 675.488,691.448 673.654,662.948 673,634.5C 672.149,628.112 670.982,621.778 669.5,615.5C 669.733,614.068 670.4,613.568 671.5,614C 676.905,620.076 682.905,625.409 689.5,630C 713.015,640.702 737.682,644.369 763.5,641C 797.144,630.519 825.478,612.019 848.5,585.5 Z"/></g>
<g><path style="opacity:1" fill="#f7d471" d="M 910.5,624.5 C 924.024,628.465 937.691,631.965 951.5,635C 967.57,638.467 983.57,638.134 999.5,634C 1008.41,631.969 1017.08,629.469 1025.5,626.5C 1025.64,670.196 1025.64,713.863 1025.5,757.5C 1023.99,756.498 1022.32,755.831 1020.5,755.5C 1015.34,753.417 1010.34,751.084 1005.5,748.5C 1004.71,747.758 1004.05,746.925 1003.5,746C 996.333,743.231 989.333,740.397 982.5,737.5C 978.851,736.609 975.184,735.609 971.5,734.5C 966.294,731.615 960.628,729.782 954.5,729C 953.944,728.617 953.611,728.117 953.5,727.5C 954.467,726.194 955.801,725.527 957.5,725.5C 957.286,723.856 957.62,722.356 958.5,721C 960.5,720.667 962.5,720.333 964.5,720C 967.877,716.285 971.877,714.451 976.5,714.5C 978.263,701.536 979.763,688.536 981,675.5C 983.803,666.381 984.969,657.047 984.5,647.5C 971.223,645.28 957.89,643.113 944.5,641C 933.232,635.198 921.899,629.698 910.5,624.5 Z"/></g>
<g><path style="opacity:1" fill="#22a84a" d="M 858.5,647.5 C 858.569,652.854 858.902,658.187 859.5,663.5C 855.002,663.856 850.668,664.856 846.5,666.5C 845.817,666.137 845.15,665.804 844.5,665.5C 843.903,665.265 843.57,664.765 843.5,664C 844.32,662.2 844.986,660.366 845.5,658.5C 847.111,654.949 849.444,651.949 852.5,649.5C 853.627,648.878 854.627,648.045 855.5,647C 856.749,646.26 857.749,646.427 858.5,647.5 Z"/></g>
<g><path style="opacity:1" fill="#1d2014" d="M 873.5,661.5 C 868.199,657.2 863.199,652.534 858.5,647.5C 857.749,646.427 856.749,646.26 855.5,647C 854.627,648.045 853.627,648.878 852.5,649.5C 853.295,645.54 855.629,643.207 859.5,642.5C 864.148,648.82 868.815,655.153 873.5,661.5 Z"/></g>
<g><path style="opacity:1" fill="#caaa9d" d="M 589.5,659.5 C 593.907,662.417 597.241,666.417 599.5,671.5C 602.384,672.925 604.051,675.258 604.5,678.5C 611.144,686.979 617.978,695.312 625,703.5C 629.473,713.292 635.473,721.959 643,729.5C 648.253,737.674 653.753,745.674 659.5,753.5C 661.193,754.228 662.693,755.228 664,756.5C 664.833,755.667 665.667,754.833 666.5,754C 674.227,751.535 681.894,748.869 689.5,746C 691.233,744.811 692.9,743.644 694.5,742.5C 714.904,736.476 735.571,731.309 756.5,727C 773.156,726.141 789.822,725.641 806.5,725.5C 819.769,725.34 832.935,726.006 846,727.5C 850.753,726.846 855.587,726.513 860.5,726.5C 891.895,728.672 923.228,731.505 954.5,735C 961.382,736.738 968.048,739.072 974.5,742C 992.946,750.72 1010.61,760.72 1027.5,772C 1031.37,775.702 1035.04,779.536 1038.5,783.5C 1042.94,787.415 1047.61,791.249 1052.5,795C 1053.5,795.667 1054.5,795.667 1055.5,795C 1056.73,793.471 1058.23,792.304 1060,791.5C 1061.16,780.22 1064.49,769.553 1070,759.5C 1072.07,750.651 1075.24,742.317 1079.5,734.5C 1110.69,709.377 1146.02,699.21 1185.5,704C 1190.14,706.55 1195.14,708.05 1200.5,708.5C 1202.03,710.289 1203.03,712.289 1203.5,714.5C 1204.5,714.5 1205.5,714.5 1206.5,714.5C 1208.17,717.167 1209.83,719.833 1211.5,722.5C 1212.5,722.5 1213.5,722.5 1214.5,722.5C 1214.19,724.924 1214.53,727.257 1215.5,729.5C 1217.44,732.314 1219.6,734.981 1222,737.5C 1224.8,746.358 1227.13,755.358 1229,764.5C 1230,766.5 1231,768.5 1232,770.5C 1233.98,789.485 1234.81,808.151 1234.5,826.5C 1231.25,852.177 1217.58,869.677 1193.5,879C 1184.3,882.009 1175.3,885.509 1166.5,889.5C 1173.18,897.017 1180.35,904.017 1188,910.5C 1194.66,918.841 1200.99,927.508 1207,936.5C 1229.69,980.068 1232.69,1025.07 1216,1071.5C 1184.49,1150.13 1127.99,1200.46 1046.5,1222.5C 1036.51,1226.71 1026.51,1230.71 1016.5,1234.5C 1007.63,1235.6 999.292,1238.43 991.5,1243C 967.05,1250.46 942.05,1254.8 916.5,1256C 888.792,1256.96 861.126,1256.29 833.5,1254C 812.761,1251.04 792.095,1247.7 771.5,1244C 764.609,1241.56 757.609,1239.89 750.5,1239C 760.728,1243.62 771.062,1247.95 781.5,1252C 789.672,1256.92 798.005,1261.59 806.5,1266C 876.125,1290.55 947.791,1304.88 1021.5,1309C 1049.52,1309.42 1077.52,1309.09 1105.5,1308C 1108.1,1311.11 1111.1,1313.61 1114.5,1315.5C 1125.52,1335.7 1137.02,1355.7 1149,1375.5C 1163.71,1404.6 1175.38,1434.93 1184,1466.5C 1204.83,1537.44 1214.16,1609.77 1212,1683.5C 1209.12,1693.8 1206.45,1704.13 1204,1714.5C 1202.63,1717.88 1200.46,1720.71 1197.5,1723C 1183.67,1734.41 1169.33,1745.07 1154.5,1755C 1147.33,1757.42 1140.33,1760.09 1133.5,1763C 1122.31,1769.76 1110.97,1775.92 1099.5,1781.5C 1094.98,1782.97 1090.48,1783.3 1086,1782.5C 1082.88,1783.06 1079.88,1784.06 1077,1785.5C 1074.21,1784.48 1071.38,1784.32 1068.5,1785C 1041.42,1790.31 1014.42,1795.15 987.5,1799.5C 985.929,1798.69 984.262,1798.36 982.5,1798.5C 980.143,1798.66 977.81,1798.5 975.5,1798C 948.324,1783.62 921.324,1769.12 894.5,1754.5C 874.459,1734.63 854.626,1714.63 835,1694.5C 826.769,1684.39 818.769,1674.05 811,1663.5C 802.914,1646.27 794.248,1629.27 785,1612.5C 780.522,1589.25 774.189,1566.58 766,1544.5C 758.729,1515.03 750.063,1486.03 740,1457.5C 737.866,1446.36 735.199,1435.36 732,1424.5C 724.122,1402.53 716.455,1380.53 709,1358.5C 708,1356.83 707,1355.17 706,1353.5C 709.38,1365.62 713.38,1377.62 718,1389.5C 719.277,1393.1 719.61,1396.76 719,1400.5C 713.178,1383.04 706.178,1366.04 698,1349.5C 693.853,1339.55 690.019,1329.55 686.5,1319.5C 682.604,1319.44 680.438,1317.44 680,1313.5C 680.431,1319.17 681.931,1324.5 684.5,1329.5C 689.392,1355.55 695.558,1381.22 703,1406.5C 707.76,1431.49 712.427,1456.49 717,1481.5C 718.875,1498.45 720.208,1515.45 721,1532.5C 727.122,1574.69 732.122,1617.02 736,1659.5C 740.2,1681.63 742.7,1703.97 743.5,1726.5C 744.299,1735.82 744.966,1745.15 745.5,1754.5C 745.5,1754.83 745.5,1755.17 745.5,1755.5C 745.061,1768.12 745.061,1780.78 745.5,1793.5C 744.097,1813.53 738.597,1832.19 729,1849.5C 720.167,1859.67 710.667,1869.17 700.5,1878C 694.988,1881.51 689.155,1884.34 683,1886.5C 682.439,1885.98 681.772,1885.64 681,1885.5C 676.205,1886.25 671.372,1886.75 666.5,1887C 666,1887.5 665.5,1888 665,1888.5C 659.133,1886.3 653.3,1886.3 647.5,1888.5C 642.943,1886.4 638.277,1886.07 633.5,1887.5C 628.441,1884.77 623.108,1883.77 617.5,1884.5C 607.155,1881.06 596.822,1877.56 586.5,1874C 567.059,1865.94 548.059,1856.11 529.5,1844.5C 525.984,1840.13 524.151,1835.13 524,1829.5C 522.333,1827.5 520.667,1825.5 519,1823.5C 512.137,1808.57 505.47,1793.57 499,1778.5C 488.821,1738.43 481.988,1697.76 478.5,1656.5C 477.836,1588.63 485.002,1521.3 500,1454.5C 510.133,1418.76 519.466,1382.76 528,1346.5C 537.369,1317.67 547.035,1289.01 557,1260.5C 562.45,1248.82 568.283,1237.32 574.5,1226C 566.648,1220.57 558.981,1214.91 551.5,1209C 528.343,1185.85 508.176,1160.35 491,1132.5C 485.76,1120.34 480.76,1108.01 476,1095.5C 470.736,1075.86 468.569,1055.86 469.5,1035.5C 469.216,1013.71 470.716,992.039 474,970.5C 474.582,948.108 475.749,925.775 477.5,903.5C 474.784,903.322 472.117,902.822 469.5,902C 471.667,898.5 474.5,895.667 478,893.5C 481.642,887.048 485.142,880.548 488.5,874C 487.57,873.009 486.404,872.509 485,872.5C 481.828,873.747 478.661,873.747 475.5,872.5C 475.238,871.022 475.571,869.689 476.5,868.5C 485.736,862.435 493.903,855.101 501,846.5C 502.139,843.417 503.472,840.417 505,837.5C 505.667,834.5 505.667,831.5 505,828.5C 492.326,797.264 486.493,765.264 487.5,732.5C 492.9,711.576 503.9,694.076 520.5,680C 531.566,670.967 543.9,664.3 557.5,660C 565.287,659.043 572.954,657.543 580.5,655.5C 583.504,656.989 586.504,658.322 589.5,659.5 Z"/></g>
<g><path style="opacity:1" fill="#9f8a81" d="M 589.5,659.5 C 593.049,660.679 596.716,661.679 600.5,662.5C 601.757,666.347 604.424,668.68 608.5,669.5C 608.384,672.91 610.05,674.244 613.5,673.5C 614.099,676.168 615.766,678.002 618.5,679C 620.444,682.45 623.111,684.95 626.5,686.5C 627.833,689.167 629.167,691.833 630.5,694.5C 636.378,698.055 641.045,703.055 644.5,709.5C 645.325,710.386 646.325,710.719 647.5,710.5C 647.238,711.978 647.571,713.311 648.5,714.5C 656.062,723.889 665.062,731.723 675.5,738C 677.942,741.718 681.275,744.218 685.5,745.5C 688.199,743.653 691.199,742.653 694.5,742.5C 692.9,743.644 691.233,744.811 689.5,746C 681.894,748.869 674.227,751.535 666.5,754C 665.667,754.833 664.833,755.667 664,756.5C 662.693,755.228 661.193,754.228 659.5,753.5C 653.753,745.674 648.253,737.674 643,729.5C 635.473,721.959 629.473,713.292 625,703.5C 617.978,695.312 611.144,686.979 604.5,678.5C 604.051,675.258 602.384,672.925 599.5,671.5C 597.241,666.417 593.907,662.417 589.5,659.5 Z"/></g>
<g><path style="opacity:1" fill="#12140c" d="M 845.5,658.5 C 844.986,660.366 844.32,662.2 843.5,664C 843.57,664.765 843.903,665.265 844.5,665.5C 843.677,667.455 843.51,669.455 844,671.5C 848.712,677.891 854.212,683.058 860.5,687C 862.183,685.714 863.849,684.547 865.5,683.5C 867.754,678.496 870.421,673.662 873.5,669C 870.781,667.058 867.781,665.558 864.5,664.5C 864.735,663.903 865.235,663.57 866,663.5C 868.319,664.871 870.819,665.538 873.5,665.5C 873.5,664.167 873.5,662.833 873.5,661.5C 875.43,662.763 877.097,664.43 878.5,666.5C 873.82,676.628 868.32,685.628 862,693.5C 853.327,687.826 846.327,680.493 841,671.5C 840.247,666.349 841.747,662.015 845.5,658.5 Z"/></g>
<g><path style="opacity:1" fill="#19ae4c" d="M 864.5,664.5 C 867.781,665.558 870.781,667.058 873.5,669C 870.421,673.662 867.754,678.496 865.5,683.5C 864.167,683.5 862.833,683.5 861.5,683.5C 861.593,677.137 861.26,670.804 860.5,664.5C 861.833,664.5 863.167,664.5 864.5,664.5 Z"/></g>
<g><path style="opacity:1" fill="#64c484" d="M 858.5,647.5 C 863.199,652.534 868.199,657.2 873.5,661.5C 873.5,662.833 873.5,664.167 873.5,665.5C 870.819,665.538 868.319,664.871 866,663.5C 865.235,663.57 864.735,663.903 864.5,664.5C 863.167,664.5 861.833,664.5 860.5,664.5C 861.26,670.804 861.593,677.137 861.5,683.5C 862.833,683.5 864.167,683.5 865.5,683.5C 863.849,684.547 862.183,685.714 860.5,687C 854.212,683.058 848.712,677.891 844,671.5C 843.51,669.455 843.677,667.455 844.5,665.5C 845.15,665.804 845.817,666.137 846.5,666.5C 850.668,664.856 855.002,663.856 859.5,663.5C 858.902,658.187 858.569,652.854 858.5,647.5 Z"/></g>
<g><path style="opacity:1" fill="#120f08" d="M 712.5,681.5 C 708.379,678.881 704.713,675.714 701.5,672C 700.552,671.517 699.552,671.351 698.5,671.5C 698.5,672.5 698.5,673.5 698.5,674.5C 697.5,674.5 696.5,674.5 695.5,674.5C 695.834,671.832 697.167,669.832 699.5,668.5C 704.215,672.548 708.548,676.881 712.5,681.5 Z"/></g>
<g><path style="opacity:1" fill="#306cf2" d="M 695.5,674.5 C 696.5,674.5 697.5,674.5 698.5,674.5C 701.971,684.258 698.637,688.925 688.5,688.5C 688.5,687.833 688.5,687.167 688.5,686.5C 689.584,683.996 690.917,681.663 692.5,679.5C 693.906,679.027 694.573,678.027 694.5,676.5C 694.328,675.508 694.662,674.842 695.5,674.5 Z"/></g>
<g><path style="opacity:1" fill="#9eb9f4" d="M 1008.5,673.5 C 1008.78,678.595 1008.45,683.595 1007.5,688.5C 1003.49,688.666 999.486,688.499 995.5,688C 994.09,687.632 993.09,686.799 992.5,685.5C 997.028,680.289 1002.36,676.289 1008.5,673.5 Z"/></g>
<g><path style="opacity:1" fill="#242237" d="M 694.5,676.5 C 694.573,678.027 693.906,679.027 692.5,679.5C 692.427,677.973 693.094,676.973 694.5,676.5 Z"/></g>
<g><path style="opacity:1" fill="#2b2722" d="M 712.5,681.5 C 713.833,681.5 714.5,682.167 714.5,683.5C 714.5,682.167 713.833,681.5 712.5,681.5 Z"/></g>
<g><path style="opacity:1" fill="#13100f" d="M 1011.5,674.5 C 1010.39,674.443 1009.39,674.11 1008.5,673.5C 1002.36,676.289 997.028,680.289 992.5,685.5C 993.09,686.799 994.09,687.632 995.5,688C 999.486,688.499 1003.49,688.666 1007.5,688.5C 1007.63,689.239 1007.46,689.906 1007,690.5C 1004.16,690.753 1001.16,690.42 998,689.5C 996.029,689.281 994.862,690.115 994.5,692C 997.364,698.228 1000.36,704.395 1003.5,710.5C 1006.83,712.252 1008.5,711.252 1008.5,707.5C 1009.71,708.234 1011.04,708.567 1012.5,708.5C 1013.31,704.061 1014.98,700.061 1017.5,696.5C 1018.6,695.399 1018.76,694.066 1018,692.5C 1015.67,686.8 1013.5,681.133 1011.5,675.5C 1012.46,675.953 1013.29,676.619 1014,677.5C 1016.5,683.998 1019,690.498 1021.5,697C 1017.26,703.939 1012.93,710.939 1008.5,718C 1005.86,718.839 1003.53,718.339 1001.5,716.5C 998.038,706.25 994.038,696.25 989.5,686.5C 995.115,680.495 1001.45,675.162 1008.5,670.5C 1009.52,671.852 1010.52,673.185 1011.5,674.5 Z"/></g>
<g><path style="opacity:1" fill="#141210" d="M 714.5,683.5 C 716.613,684.548 718.28,686.048 719.5,688C 713.836,695.17 710.169,703.337 708.5,712.5C 707.127,712.657 705.793,712.49 704.5,712C 697.996,705.829 691.829,699.329 686,692.5C 685.992,690.179 686.825,688.179 688.5,686.5C 688.5,687.167 688.5,687.833 688.5,688.5C 688.586,689.496 688.252,690.329 687.5,691C 691.46,696.895 696.126,702.228 701.5,707C 702.448,707.483 703.448,707.649 704.5,707.5C 704.5,706.5 704.5,705.5 704.5,704.5C 705.822,704.67 706.989,704.337 708,703.5C 708.603,698.856 710.103,694.523 712.5,690.5C 710.936,688.749 708.936,687.749 706.5,687.5C 709.005,686.503 711.672,686.503 714.5,687.5C 714.5,686.167 714.5,684.833 714.5,683.5 Z"/></g>
<g><path style="opacity:1" fill="#9db9f6" d="M 712.5,681.5 C 712.5,682.833 713.167,683.5 714.5,683.5C 714.5,684.833 714.5,686.167 714.5,687.5C 711.672,686.503 709.005,686.503 706.5,687.5C 704.833,687.5 703.167,687.5 701.5,687.5C 702.88,693.068 703.88,698.735 704.5,704.5C 704.5,705.5 704.5,706.5 704.5,707.5C 703.448,707.649 702.448,707.483 701.5,707C 696.126,702.228 691.46,696.895 687.5,691C 688.252,690.329 688.586,689.496 688.5,688.5C 698.637,688.925 701.971,684.258 698.5,674.5C 698.5,673.5 698.5,672.5 698.5,671.5C 699.552,671.351 700.552,671.517 701.5,672C 704.713,675.714 708.379,678.881 712.5,681.5 Z"/></g>
<g><path style="opacity:1" fill="#2a6bf7" d="M 706.5,687.5 C 708.936,687.749 710.936,688.749 712.5,690.5C 710.103,694.523 708.603,698.856 708,703.5C 706.989,704.337 705.822,704.67 704.5,704.5C 703.88,698.735 702.88,693.068 701.5,687.5C 703.167,687.5 704.833,687.5 706.5,687.5 Z"/></g>
<g><path style="opacity:1" fill="#2a6bf7" d="M 1008.5,673.5 C 1009.39,674.11 1010.39,674.443 1011.5,674.5C 1011.5,674.833 1011.5,675.167 1011.5,675.5C 1013.5,681.133 1015.67,686.8 1018,692.5C 1018.76,694.066 1018.6,695.399 1017.5,696.5C 1014.53,695.345 1011.86,693.678 1009.5,691.5C 1008.51,696.792 1008.17,702.125 1008.5,707.5C 1008.5,711.252 1006.83,712.252 1003.5,710.5C 1000.36,704.395 997.364,698.228 994.5,692C 994.862,690.115 996.029,689.281 998,689.5C 1001.16,690.42 1004.16,690.753 1007,690.5C 1007.46,689.906 1007.63,689.239 1007.5,688.5C 1008.45,683.595 1008.78,678.595 1008.5,673.5 Z"/></g>
<g><path style="opacity:1" fill="#8aa2d7" d="M 1017.5,696.5 C 1014.98,700.061 1013.31,704.061 1012.5,708.5C 1011.04,708.567 1009.71,708.234 1008.5,707.5C 1008.17,702.125 1008.51,696.792 1009.5,691.5C 1011.86,693.678 1014.53,695.345 1017.5,696.5 Z"/></g>
<g><path style="opacity:0.99" fill="#090706" d="M 529.5,798.5 C 529.904,793.217 529.238,788.217 527.5,783.5C 517.008,747.694 527.341,719.86 558.5,700C 565.566,699.142 572.566,697.975 579.5,696.5C 588.498,696.377 596.831,698.544 604.5,703C 605.743,704.154 606.743,705.488 607.5,707C 611.64,707.8 614.64,710.133 616.5,714C 619.149,714.794 621.316,716.294 623,718.5C 631.045,728.256 636.712,739.256 640,751.5C 640.615,753.116 641.615,754.449 643,755.5C 643.705,762.276 645.205,768.776 647.5,775C 647.646,777.034 646.98,778.701 645.5,780C 642.794,780.77 640.294,781.937 638,783.5C 634.88,780.223 631.046,778.056 626.5,777C 619.037,775.503 611.704,773.836 604.5,772C 608.418,774.877 612.585,777.377 617,779.5C 619.84,781.951 620.006,784.451 617.5,787C 611.207,788.023 604.874,788.689 598.5,789C 597.241,789.923 595.908,790.757 594.5,791.5C 595.833,793.5 597.167,795.5 598.5,797.5C 592.006,803.414 584.339,807.247 575.5,809C 571.364,809.671 567.364,809.171 563.5,807.5C 558.238,810.102 553.238,813.102 548.5,816.5C 547.692,818.423 547.192,820.423 547,822.5C 546.261,823.574 545.261,824.241 544,824.5C 534.226,818.622 529.393,809.955 529.5,798.5 Z"/></g>
<g><path style="opacity:1" fill="#58463e" d="M 571.5,801.5 C 577.643,788.605 583.143,775.272 588,761.5C 588.823,757.262 588.156,753.262 586,749.5C 584.946,744.309 582.113,740.475 577.5,738C 565.872,734.676 554.205,731.842 542.5,729.5C 547.018,722.63 552.352,716.464 558.5,711C 570.474,703.168 582.808,702.501 595.5,709C 597.067,711.741 599.401,712.908 602.5,712.5C 606.385,717.568 610.552,722.568 615,727.5C 623.578,740.993 629.078,755.66 631.5,771.5C 629.926,772.631 628.259,772.798 626.5,772C 618.854,768.588 610.854,766.422 602.5,765.5C 599.671,765.548 597.337,766.548 595.5,768.5C 596,769.5 596.5,770.5 597,771.5C 601.237,775.036 605.737,778.202 610.5,781C 603.638,782.603 596.638,783.937 589.5,785C 586.946,787.835 586.946,790.669 589.5,793.5C 589.392,794.442 589.059,795.275 588.5,796C 583.115,798.739 577.449,800.573 571.5,801.5 Z"/></g>
<g><path style="opacity:1" fill="#775c4f" d="M 542.5,729.5 C 554.205,731.842 565.872,734.676 577.5,738C 582.113,740.475 584.946,744.309 586,749.5C 588.156,753.262 588.823,757.262 588,761.5C 583.143,775.272 577.643,788.605 571.5,801.5C 562.307,803.453 553.64,806.787 545.5,811.5C 543.827,809.914 541.827,809.247 539.5,809.5C 534.629,787.042 533.462,764.376 536,741.5C 537.961,737.377 540.127,733.377 542.5,729.5 Z"/></g>
<g><path style="opacity:1" fill="#614910" d="M 971.5,734.5 C 975.184,735.609 978.851,736.609 982.5,737.5C 978.256,738.054 974.59,737.054 971.5,734.5 Z"/></g>
<g><path style="opacity:0.995" fill="#060504" d="M 1084.5,788.5 C 1087.87,782.754 1090.87,776.754 1093.5,770.5C 1107.67,749.675 1127.17,737.675 1152,734.5C 1155,734.976 1158.17,734.976 1161.5,734.5C 1163.83,734.667 1166.17,734.833 1168.5,735C 1172.07,736.731 1175.73,738.231 1179.5,739.5C 1179.5,740.5 1179.5,741.5 1179.5,742.5C 1180.83,742.5 1182.17,742.5 1183.5,742.5C 1188.35,748.336 1192.35,754.836 1195.5,762C 1206.94,798.025 1197.6,827.359 1167.5,850C 1161.19,855.07 1154.35,859.237 1147,862.5C 1145.77,862.355 1144.61,862.022 1143.5,861.5C 1139.1,850.264 1133.77,839.598 1127.5,829.5C 1126.18,829.67 1125.01,829.337 1124,828.5C 1123.34,822.49 1126.17,819.657 1132.5,820C 1132.17,819.667 1131.83,819.333 1131.5,819C 1121.93,815.079 1112.43,811.246 1103,807.5C 1102.18,805.299 1102.68,803.466 1104.5,802C 1109.56,801.046 1114.56,799.88 1119.5,798.5C 1113.92,795.436 1107.92,793.603 1101.5,793C 1095.46,792.529 1089.46,792.529 1083.5,793C 1082.08,791.085 1082.42,789.585 1084.5,788.5 Z"/></g>
<g><path style="opacity:1" fill="#a08b82" d="M 1079.5,734.5 C 1075.24,742.317 1072.07,750.651 1070,759.5C 1064.49,769.553 1061.16,780.22 1060,791.5C 1058.23,792.304 1056.73,793.471 1055.5,795C 1054.5,795.667 1053.5,795.667 1052.5,795C 1047.61,791.249 1042.94,787.415 1038.5,783.5C 1041.97,779.859 1045.3,776.026 1048.5,772C 1047.55,771.282 1047.38,770.449 1048,769.5C 1056.2,755.797 1066.7,744.13 1079.5,734.5 Z"/></g>
<g><path style="opacity:1" fill="#58463e" d="M 1166.5,748.5 C 1163.55,749.614 1161.38,751.614 1160,754.5C 1150.67,783.279 1147.17,812.612 1149.5,842.5C 1147.78,844.447 1145.62,845.781 1143,846.5C 1139.28,839.779 1134.78,833.612 1129.5,828C 1132.83,826.834 1136.16,825.668 1139.5,824.5C 1140.77,822.305 1140.77,820.139 1139.5,818C 1131.33,812.416 1122.33,808.75 1112.5,807C 1118.24,805.987 1123.91,804.654 1129.5,803C 1131.03,800.119 1130.36,797.786 1127.5,796C 1116.8,789.407 1105.13,786.407 1092.5,787C 1106.68,765.573 1126.34,752.073 1151.5,746.5C 1156.68,746.047 1161.68,746.714 1166.5,748.5 Z"/></g>
<g><path style="opacity:1" fill="#775c4f" d="M 1166.5,748.5 C 1169.32,748.081 1171.49,749.081 1173,751.5C 1176.73,756.906 1180.07,762.573 1183,768.5C 1186.5,785.28 1185.17,801.613 1179,817.5C 1171.2,828.305 1161.36,836.639 1149.5,842.5C 1147.17,812.612 1150.67,783.279 1160,754.5C 1161.38,751.614 1163.55,749.614 1166.5,748.5 Z"/></g>
<g><path style="opacity:1" fill="#6c5215" d="M 1020.5,755.5 C 1022.32,755.831 1023.99,756.498 1025.5,757.5C 1023.26,758.858 1021.59,758.192 1020.5,755.5 Z"/></g>
<g><path style="opacity:1" fill="#423833" d="M 1093.5,770.5 C 1090.87,776.754 1087.87,782.754 1084.5,788.5C 1085.95,781.603 1088.95,775.603 1093.5,770.5 Z"/></g>
<g><path style="opacity:1" fill="#65554e" d="M 527.5,783.5 C 529.238,788.217 529.904,793.217 529.5,798.5C 527.855,793.766 527.189,788.766 527.5,783.5 Z"/></g>
<g><path style="opacity:1" fill="#090807" d="M 1022.5,950.5 C 1018.77,950.823 1015.11,950.489 1011.5,949.5C 1010.42,948.295 1009.09,947.628 1007.5,947.5C 995.153,932.76 990.319,915.76 993,896.5C 993.278,895.584 993.778,894.918 994.5,894.5C 996.054,895.914 997.388,897.581 998.5,899.5C 1003.33,901.68 1006.66,900.347 1008.5,895.5C 1007.56,891.663 1006.22,887.996 1004.5,884.5C 1003.28,883.839 1001.95,883.172 1000.5,882.5C 1006.82,876.004 1013.82,875.171 1021.5,880C 1024.33,884.167 1027.83,887.667 1032,890.5C 1033.75,893.672 1035.75,896.672 1038,899.5C 1043.18,909.918 1043.85,920.585 1040,931.5C 1037.06,936.986 1033.9,942.319 1030.5,947.5C 1028.01,949.083 1025.34,950.083 1022.5,950.5 Z"/></g>
<g><path style="opacity:1" fill="#0a0908" d="M 732.5,952.5 C 731.508,952.672 730.842,952.338 730.5,951.5C 727.628,946.129 724.461,940.796 721,935.5C 716.064,921.54 718.064,908.874 727,897.5C 727.232,898.737 727.732,899.737 728.5,900.5C 730.762,901.823 733.096,903.157 735.5,904.5C 742.204,902.772 744.871,898.439 743.5,891.5C 740.964,890.963 738.964,889.63 737.5,887.5C 737.297,885.61 737.963,884.11 739.5,883C 744.229,880.033 749.229,879.7 754.5,882C 762.505,885.476 767.005,891.643 768,900.5C 770.816,919.373 765.982,935.873 753.5,950C 746.884,954.66 739.884,955.494 732.5,952.5 Z"/></g>
<g><path style="opacity:1" fill="#f8f8f8" d="M 1004.5,884.5 C 1006.22,887.996 1007.56,891.663 1008.5,895.5C 1006.66,900.347 1003.33,901.68 998.5,899.5C 997.388,897.581 996.054,895.914 994.5,894.5C 991.836,891.436 992.003,888.436 995,885.5C 998.057,884.549 1001.22,884.216 1004.5,884.5 Z"/></g>
<g><path style="opacity:1" fill="#f4f4f4" d="M 737.5,887.5 C 738.964,889.63 740.964,890.963 743.5,891.5C 744.871,898.439 742.204,902.772 735.5,904.5C 733.096,903.157 730.762,901.823 728.5,900.5C 726.497,892.525 729.497,888.191 737.5,887.5 Z"/></g>
<g><path style="opacity:1" fill="#caaa9d" d="M 1228.5,1218.5 C 1232.68,1208.38 1239.01,1199.21 1247.5,1191C 1266.38,1179.28 1281.71,1164.12 1293.5,1145.5C 1314.02,1112.41 1320.52,1076.74 1313,1038.5C 1310.4,1036.98 1309.9,1034.98 1311.5,1032.5C 1311.47,1030.97 1310.8,1029.8 1309.5,1029C 1310.02,1028.44 1310.36,1027.77 1310.5,1027C 1308.75,1021.16 1307.41,1015.32 1306.5,1009.5C 1305.5,1009.5 1304.5,1009.5 1303.5,1009.5C 1303.48,1007.07 1302.98,1004.74 1302,1002.5C 1297.83,998.352 1293.83,994.018 1290,989.5C 1289.52,988.552 1289.35,987.552 1289.5,986.5C 1288.5,986.5 1287.5,986.5 1286.5,986.5C 1286.25,983.53 1284.59,982.197 1281.5,982.5C 1281.5,981.5 1281.5,980.5 1281.5,979.5C 1280.32,979.719 1279.32,979.386 1278.5,978.5C 1279.67,976.167 1280.83,973.833 1282,971.5C 1288.76,964.407 1294.76,956.74 1300,948.5C 1306.06,943.938 1311.23,938.605 1315.5,932.5C 1318.84,930.485 1321.84,927.985 1324.5,925C 1338.14,918.508 1349.48,909.341 1358.5,897.5C 1362.65,895.927 1366.31,893.593 1369.5,890.5C 1370.78,893.034 1370.78,895.534 1369.5,898C 1374.97,895.934 1380.3,893.267 1385.5,890C 1398.58,885.067 1400.58,887.734 1391.5,898C 1396.48,897.672 1401.48,897.672 1406.5,898C 1420.96,907.456 1433.12,919.29 1443,933.5C 1452.82,947.801 1462.16,962.468 1471,977.5C 1473.39,982.228 1475.06,987.228 1476,992.5C 1480.07,1014.39 1478.4,1036.05 1471,1057.5C 1458.57,1082.46 1443.07,1105.46 1424.5,1126.5C 1413.39,1137.88 1400.73,1147.05 1386.5,1154C 1363.14,1162.44 1340.47,1172.11 1318.5,1183C 1288.58,1195.13 1258.58,1206.96 1228.5,1218.5 Z"/></g>
<g><path style="opacity:1" fill="#a08576" d="M 1358.5,897.5 C 1349.48,909.341 1338.14,918.508 1324.5,925C 1321.84,927.985 1318.84,930.485 1315.5,932.5C 1310.12,936.945 1304.62,941.279 1299,945.5C 1297.23,944.696 1295.73,943.529 1294.5,942C 1295.83,940.667 1297.17,939.333 1298.5,938C 1298.17,937.833 1297.83,937.667 1297.5,937.5C 1292.4,939.314 1287.57,941.647 1283,944.5C 1281.7,944.022 1280.53,943.355 1279.5,942.5C 1284.07,938.202 1289.07,934.369 1294.5,931C 1313.92,918.956 1333.92,907.956 1354.5,898C 1355.79,897.51 1357.13,897.343 1358.5,897.5 Z"/></g>
<g><path style="opacity:1" fill="#f7f7f7" d="M 1023.5,940.5 C 1018.5,940.5 1013.5,940.5 1008.5,940.5C 1001.3,933.718 998.798,925.385 1001,915.5C 1002.4,914.884 1003.9,914.551 1005.5,914.5C 1015.04,916.176 1022.87,920.509 1029,927.5C 1030.53,933.434 1028.7,937.767 1023.5,940.5 Z"/></g>
<g><path style="opacity:1" fill="#f4f4f4" d="M 730.5,917.5 C 733.518,917.335 736.518,917.502 739.5,918C 743.51,922.183 748.176,925.35 753.5,927.5C 757.353,930.544 758.186,934.211 756,938.5C 752.853,940.665 749.686,942.832 746.5,945C 743.072,945.701 739.738,945.368 736.5,944C 734.271,942.515 731.938,941.182 729.5,940C 728.355,933.248 728.189,926.414 729,919.5C 729.717,918.956 730.217,918.289 730.5,917.5 Z"/></g>
<g><path style="opacity:1" fill="#0f0c0b" d="M 995.5,976.5 C 995.5,978.167 995.5,979.833 995.5,981.5C 971.864,970.18 948.53,958.013 925.5,945C 919.167,942.667 912.833,940.333 906.5,938C 896.508,936.831 887.174,938.831 878.5,944C 868.398,949.559 858.731,955.892 849.5,963C 826.223,973.636 803.223,984.636 780.5,996C 747.288,1018.66 738.455,1048.83 754,1086.5C 768.573,1108.37 788.74,1122.54 814.5,1129C 825.946,1130.59 837.446,1131.43 849,1131.5C 884.809,1129.11 920.643,1128.11 956.5,1128.5C 964.896,1128.24 973.229,1127.4 981.5,1126C 1008.8,1117.36 1028.64,1100.19 1041,1074.5C 1042.54,1065.85 1042.7,1057.18 1041.5,1048.5C 1039.51,1047.71 1039.18,1046.54 1040.5,1045C 1043.55,1044.82 1046.55,1044.32 1049.5,1043.5C 1048,1039.64 1046.34,1035.98 1044.5,1032.5C 1047.66,1033.04 1050.33,1032.2 1052.5,1030C 1049.98,1028.3 1047.65,1026.47 1045.5,1024.5C 1045.33,1023.51 1045.66,1022.84 1046.5,1022.5C 1050.36,1024.84 1054.36,1027.01 1058.5,1029C 1059.34,1030.01 1059.67,1031.18 1059.5,1032.5C 1058.13,1032.34 1056.79,1032.51 1055.5,1033C 1053.84,1034.83 1051.84,1036.16 1049.5,1037C 1052.77,1041.37 1055.1,1046.2 1056.5,1051.5C 1056,1051.83 1055.5,1052.17 1055,1052.5C 1053.37,1051.71 1051.87,1050.71 1050.5,1049.5C 1049.57,1059.43 1048.07,1069.43 1046,1079.5C 1040.14,1094.36 1030.3,1105.86 1016.5,1114C 993.834,1126.34 969.501,1133.01 943.5,1134C 906.179,1135.61 868.846,1136.28 831.5,1136C 821.089,1134.77 810.755,1133.1 800.5,1131C 790.221,1126.53 780.221,1121.53 770.5,1116C 742.189,1089.71 734.356,1058.21 747,1021.5C 754.017,1009.61 763.184,999.774 774.5,992C 798.591,979.962 822.925,968.295 847.5,957C 857.992,949.251 868.992,942.251 880.5,936C 886.573,933.253 892.906,931.42 899.5,930.5C 917.19,933.221 933.19,939.721 947.5,950C 956.001,953.824 964.334,957.824 972.5,962C 980.24,966.862 987.907,971.695 995.5,976.5 Z"/></g>
<g><path style="opacity:1" fill="#fd4b49" d="M 1052.5,932.5 C 1056.04,933.759 1059.71,934.759 1063.5,935.5C 1063.66,938.187 1063.5,940.854 1063,943.5C 1059.59,952.739 1055.59,961.739 1051,970.5C 1050.7,975.948 1048.2,979.948 1043.5,982.5C 1039.52,981.167 1035.52,979.834 1031.5,978.5C 1030.25,973.436 1030.42,968.436 1032,963.5C 1038.24,952.763 1045.07,942.43 1052.5,932.5 Z"/></g>
<g><path style="opacity:1" fill="#110e0d" d="M 1396.5,934.5 C 1403.16,932.989 1408.33,934.989 1412,940.5C 1417.82,952.668 1414.65,961.834 1402.5,968C 1391.16,971.213 1383.83,967.38 1380.5,956.5C 1381.06,952.911 1382.23,949.578 1384,946.5C 1387.4,941.595 1391.57,937.595 1396.5,934.5 Z"/></g>
<g><path style="opacity:1" fill="#fd4b49" d="M 1092.5,933.5 C 1093.5,933.414 1094.33,933.748 1095,934.5C 1095.57,937.707 1097.41,939.374 1100.5,939.5C 1101.25,943.819 1101.42,948.152 1101,952.5C 1097.81,963.622 1094.47,974.622 1091,985.5C 1087.73,990.805 1084.23,991.305 1080.5,987C 1079.21,986.51 1077.87,986.343 1076.5,986.5C 1073.82,981.872 1072.98,976.872 1074,971.5C 1077.15,962.197 1081.15,953.197 1086,944.5C 1086.85,941.479 1087.68,938.479 1088.5,935.5C 1090.38,935.771 1091.71,935.104 1092.5,933.5 Z"/></g>
<g><path style="opacity:1" fill="#f3c9b8" d="M 995.5,981.5 C 995.5,983.167 995.5,984.833 995.5,986.5C 996.5,986.5 997.5,986.5 998.5,986.5C 998.5,987.833 998.5,989.167 998.5,990.5C 1003.28,990.57 1007.95,991.237 1012.5,992.5C 1017.49,995.728 1022.83,998.395 1028.5,1000.5C 1033.58,1008.06 1040.58,1013.22 1049.5,1016C 1047.11,1016.3 1044.94,1017.14 1043,1018.5C 1042.46,1021.08 1043.29,1023.08 1045.5,1024.5C 1047.65,1026.47 1049.98,1028.3 1052.5,1030C 1050.33,1032.2 1047.66,1033.04 1044.5,1032.5C 1046.34,1035.98 1048,1039.64 1049.5,1043.5C 1046.55,1044.32 1043.55,1044.82 1040.5,1045C 1039.18,1046.54 1039.51,1047.71 1041.5,1048.5C 1042.7,1057.18 1042.54,1065.85 1041,1074.5C 1028.64,1100.19 1008.8,1117.36 981.5,1126C 973.229,1127.4 964.896,1128.24 956.5,1128.5C 920.643,1128.11 884.809,1129.11 849,1131.5C 837.446,1131.43 825.946,1130.59 814.5,1129C 788.74,1122.54 768.573,1108.37 754,1086.5C 738.455,1048.83 747.288,1018.66 780.5,996C 803.223,984.636 826.223,973.636 849.5,963C 858.731,955.892 868.398,949.559 878.5,944C 887.174,938.831 896.508,936.831 906.5,938C 912.833,940.333 919.167,942.667 925.5,945C 948.53,958.013 971.864,970.18 995.5,981.5 Z"/></g>
<g><path style="opacity:1" fill="#a08b82" d="M 1315.5,932.5 C 1311.23,938.605 1306.06,943.938 1300,948.5C 1294.76,956.74 1288.76,964.407 1282,971.5C 1280.83,973.833 1279.67,976.167 1278.5,978.5C 1279.32,979.386 1280.32,979.719 1281.5,979.5C 1281.5,980.5 1281.5,981.5 1281.5,982.5C 1284.59,982.197 1286.25,983.53 1286.5,986.5C 1287.5,986.5 1288.5,986.5 1289.5,986.5C 1289.35,987.552 1289.52,988.552 1290,989.5C 1293.83,994.018 1297.83,998.352 1302,1002.5C 1302.98,1004.74 1303.48,1007.07 1303.5,1009.5C 1304.5,1009.5 1305.5,1009.5 1306.5,1009.5C 1307.41,1015.32 1308.75,1021.16 1310.5,1027C 1310.36,1027.77 1310.02,1028.44 1309.5,1029C 1310.8,1029.8 1311.47,1030.97 1311.5,1032.5C 1309.9,1034.98 1310.4,1036.98 1313,1038.5C 1320.52,1076.74 1314.02,1112.41 1293.5,1145.5C 1281.71,1164.12 1266.38,1179.28 1247.5,1191C 1239.01,1199.21 1232.68,1208.38 1228.5,1218.5C 1214.64,1227.94 1199.97,1236.1 1184.5,1243C 1176.59,1249.23 1167.92,1254.23 1158.5,1258C 1147.12,1267.05 1135.45,1275.72 1123.5,1284C 1117.63,1290.91 1112.63,1298.41 1108.5,1306.5C 1110.76,1309.36 1112.76,1312.36 1114.5,1315.5C 1111.1,1313.61 1108.1,1311.11 1105.5,1308C 1077.52,1309.09 1049.52,1309.42 1021.5,1309C 947.791,1304.88 876.125,1290.55 806.5,1266C 798.005,1261.59 789.672,1256.92 781.5,1252C 771.062,1247.95 760.728,1243.62 750.5,1239C 757.609,1239.89 764.609,1241.56 771.5,1244C 792.095,1247.7 812.761,1251.04 833.5,1254C 861.126,1256.29 888.792,1256.96 916.5,1256C 942.05,1254.8 967.05,1250.46 991.5,1243C 999.292,1238.43 1007.63,1235.6 1016.5,1234.5C 1015.19,1235.47 1014.53,1236.8 1014.5,1238.5C 1044.9,1232.42 1074.23,1223.25 1102.5,1211C 1110.56,1205.97 1118.89,1201.3 1127.5,1197C 1128.83,1195.33 1130.17,1193.67 1131.5,1192C 1138.47,1187.85 1145.47,1183.68 1152.5,1179.5C 1193.49,1142.59 1219.66,1096.93 1231,1042.5C 1231.73,1028.33 1232.56,1014.16 1233.5,1000C 1233.27,992.765 1232.77,985.599 1232,978.5C 1233.46,976.04 1235.29,973.873 1237.5,972C 1250.83,961.169 1264.83,951.335 1279.5,942.5C 1280.53,943.355 1281.7,944.022 1283,944.5C 1287.57,941.647 1292.4,939.314 1297.5,937.5C 1297.83,937.667 1298.17,937.833 1298.5,938C 1297.17,939.333 1295.83,940.667 1294.5,942C 1295.73,943.529 1297.23,944.696 1299,945.5C 1304.62,941.279 1310.12,936.945 1315.5,932.5 Z"/></g>
<g><path style="opacity:1" fill="#efc6b5" d="M 1399.5,937.5 C 1407.68,937.008 1411.68,941.008 1411.5,949.5C 1409.66,962.267 1402.32,967.434 1389.5,965C 1384.35,961.622 1383.18,957.122 1386,951.5C 1388.96,945.162 1393.46,940.495 1399.5,937.5 Z"/></g>
<g><path style="opacity:1" fill="#959595" d="M 1008.5,940.5 C 1013.5,940.5 1018.5,940.5 1023.5,940.5C 1023.19,941.478 1022.52,942.145 1021.5,942.5C 1017.03,941.886 1012.7,941.22 1008.5,940.5 Z"/></g>
<g><path style="opacity:1" fill="#fd4a49" d="M 688.5,943.5 C 690.986,945.464 693.819,946.798 697,947.5C 697.667,949.5 697.667,951.5 697,953.5C 690.207,966.09 684.207,979.09 679,992.5C 678.667,996.833 678.333,1001.17 678,1005.5C 674.208,1011.18 670.041,1011.68 665.5,1007C 662.715,1006.34 660.049,1005.51 657.5,1004.5C 657.09,993.908 659.257,983.908 664,974.5C 670.226,962.462 678.393,952.129 688.5,943.5 Z"/></g>
<g><path style="opacity:1" fill="#fd4b49" d="M 766.5,944.5 C 772.662,946.666 776.329,951 777.5,957.5C 772.627,969.838 768.627,982.505 765.5,995.5C 764.001,998.333 761.667,999.999 758.5,1000.5C 756.336,998.316 753.669,996.983 750.5,996.5C 747.862,994.534 746.528,991.867 746.5,988.5C 749.389,972.06 756.055,957.393 766.5,944.5 Z"/></g>
<g><path style="opacity:1" fill="#fc4b49" d="M 1007.5,947.5 C 1009.09,947.628 1010.42,948.295 1011.5,949.5C 1015.11,950.489 1018.77,950.823 1022.5,950.5C 1020.01,960.773 1017.35,971.106 1014.5,981.5C 1017.5,983.178 1018.17,985.511 1016.5,988.5C 1014.83,989.5 1013.5,990.833 1012.5,992.5C 1007.95,991.237 1003.28,990.57 998.5,990.5C 998.5,989.167 998.5,987.833 998.5,986.5C 997.5,986.5 996.5,986.5 995.5,986.5C 995.5,984.833 995.5,983.167 995.5,981.5C 995.5,979.833 995.5,978.167 995.5,976.5C 999.172,966.807 1003.17,957.14 1007.5,947.5 Z"/></g>
<g><path style="opacity:1" fill="#fe4a48" d="M 730.5,951.5 C 730.842,952.338 731.508,952.672 732.5,952.5C 732.543,955.91 732.043,959.243 731,962.5C 726.646,971.605 722.312,980.605 718,989.5C 716.601,995.185 716.101,1000.85 716.5,1006.5C 712.697,1011.62 708.697,1011.79 704.5,1007C 701.883,1006.18 699.216,1005.68 696.5,1005.5C 695.623,991.009 699.123,977.675 707,965.5C 711.844,958.661 717.344,952.494 723.5,947C 724.167,946.333 724.833,946.333 725.5,947C 726.651,949.2 728.318,950.7 730.5,951.5 Z"/></g>
<g><path style="opacity:1" fill="#151110" d="M 1435.5,962.5 C 1437.5,962.5 1439.5,962.5 1441.5,962.5C 1447.05,970.097 1446.72,977.597 1440.5,985C 1432.99,989.412 1427.99,987.412 1425.5,979C 1426.7,972.078 1430.03,966.578 1435.5,962.5 Z"/></g>
<g><path style="opacity:1" fill="#f0c6b5" d="M 1436.5,965.5 C 1441.99,967.473 1443.49,971.139 1441,976.5C 1439.71,978.249 1438.54,980.082 1437.5,982C 1435.3,983.373 1432.97,983.706 1430.5,983C 1429.27,979.826 1429.44,976.659 1431,973.5C 1432.6,970.631 1434.43,967.964 1436.5,965.5 Z"/></g>
<g><path style="opacity:1" fill="#0a0807" d="M 898.5,966.5 C 906.174,966.334 913.841,966.5 921.5,967C 926.216,968.341 930.716,970.174 935,972.5C 936.38,975.428 937.88,978.262 939.5,981C 934.051,993.78 924.718,1002.45 911.5,1007C 915.728,1010.81 919.728,1014.81 923.5,1019C 926.969,1020.21 930.302,1021.71 933.5,1023.5C 936.725,1024.18 939.725,1025.35 942.5,1027C 948.194,1027.38 953.86,1027.38 959.5,1027C 961.21,1029.04 962.877,1031.04 964.5,1033C 962.346,1038.25 958.346,1040.75 952.5,1040.5C 933.431,1037.13 918.431,1027.47 907.5,1011.5C 902.775,1018.42 897.442,1024.92 891.5,1031C 880.573,1038.44 868.573,1040.94 855.5,1038.5C 853.807,1036.97 851.973,1035.64 850,1034.5C 847.598,1031.29 848.098,1028.79 851.5,1027C 856.628,1027.29 861.795,1027.79 867,1028.5C 881.114,1027.52 891.947,1021.02 899.5,1009C 893.551,1005.19 887.217,1002.19 880.5,1000C 873.455,993.84 870.121,986.173 870.5,977C 879.45,972.067 888.784,968.567 898.5,966.5 Z"/></g>
<g><path style="opacity:1" fill="#503323" d="M 902.5,972.5 C 911.294,972.091 919.96,972.924 928.5,975C 931.006,976.516 931.84,978.682 931,981.5C 917.41,1000.7 900.91,1003.86 881.5,991C 880.12,987.541 878.787,984.041 877.5,980.5C 880.588,977.633 884.254,975.799 888.5,975C 893.336,974.32 898.003,973.486 902.5,972.5 Z"/></g>
<g><path style="opacity:1" fill="#755a4d" d="M 909.5,975.5 C 913.884,975.174 918.217,975.508 922.5,976.5C 924.339,978.527 924.839,980.86 924,983.5C 916.643,992.228 911.143,991.062 907.5,980C 908.044,978.415 908.711,976.915 909.5,975.5 Z"/></g>
<g><path style="opacity:1" fill="#120f0e" d="M 1409.5,987.5 C 1413.74,987.848 1417.74,989.015 1421.5,991C 1438.51,1005.3 1442.34,1022.47 1433,1042.5C 1430.72,1050.24 1426.55,1056.74 1420.5,1062C 1396.53,1065.01 1382.86,1054.51 1379.5,1030.5C 1380.03,1015.04 1386.03,1002.21 1397.5,992C 1401.5,990.151 1405.5,988.651 1409.5,987.5 Z"/></g>
<g><path style="opacity:1" fill="#130f0e" d="M 1016.5,988.5 C 1020.49,992.457 1024.49,996.457 1028.5,1000.5C 1022.83,998.395 1017.49,995.728 1012.5,992.5C 1013.5,990.833 1014.83,989.5 1016.5,988.5 Z"/></g>
<g><path style="opacity:0.118" fill="#b79f8f" d="M 460.5,964.5 C 461.158,965.793 461.492,967.293 461.5,969C 459.576,986.963 457.909,1004.8 456.5,1022.5C 456.609,1011.25 456.609,1000.08 456.5,989C 457.147,980.71 458.48,972.543 460.5,964.5 Z"/></g>
<g><path style="opacity:1" fill="#f0c7b6" d="M 1409.5,990.5 C 1413.41,990.263 1417.08,991.096 1420.5,993C 1426.13,999.096 1430.63,1005.93 1434,1013.5C 1434.54,1022.83 1433.21,1031.83 1430,1040.5C 1427.82,1047.68 1423.99,1053.85 1418.5,1059C 1400.47,1061.09 1388.97,1053.59 1384,1036.5C 1382.69,1020.77 1387.52,1007.27 1398.5,996C 1402.19,994.058 1405.86,992.224 1409.5,990.5 Z"/></g>
<g><path style="opacity:1" fill="#110f0d" d="M 1453.5,991.5 C 1456.19,991.336 1458.85,991.503 1461.5,992C 1462.83,993 1462.83,994 1461.5,995C 1468.53,996.878 1471.03,1001.38 1469,1008.5C 1466.62,1016.2 1461.45,1018.7 1453.5,1016C 1450.7,1014.21 1448.2,1012.04 1446,1009.5C 1445.84,1002.46 1448.34,996.461 1453.5,991.5 Z"/></g>
<g><path style="opacity:1" fill="#edc4b4" d="M 1455.5,994.5 C 1458.84,996.593 1462.34,998.593 1466,1000.5C 1466.7,1014.12 1461.37,1017.12 1450,1009.5C 1449.56,1003.7 1451.4,998.697 1455.5,994.5 Z"/></g>
<g><path style="opacity:1" fill="#372e2a" d="M 1028.5,1000.5 C 1035.93,1006.38 1044.27,1010.38 1053.5,1012.5C 1053.58,1013.93 1053.25,1015.26 1052.5,1016.5C 1050.1,1018.24 1048.1,1020.24 1046.5,1022.5C 1045.66,1022.84 1045.33,1023.51 1045.5,1024.5C 1043.29,1023.08 1042.46,1021.08 1043,1018.5C 1044.94,1017.14 1047.11,1016.3 1049.5,1016C 1040.58,1013.22 1033.58,1008.06 1028.5,1000.5 Z"/></g>
<g><path style="opacity:0.02" fill="#938880" d="M 458.5,1058.5 C 459.268,1059.26 459.768,1060.26 460,1061.5C 460.649,1077.42 463.816,1092.75 469.5,1107.5C 469.376,1108.11 469.043,1108.44 468.5,1108.5C 462.102,1092.04 458.769,1075.37 458.5,1058.5 Z"/></g>
<g><path style="opacity:0.043" fill="#af988b" d="M 543.5,1214.5 C 509.879,1186.21 485.213,1151.54 469.5,1110.5C 469.435,1110.06 469.601,1109.73 470,1109.5C 476.344,1122.19 482.678,1134.86 489,1147.5C 502.289,1165.75 516.289,1183.42 531,1200.5C 536.762,1204.39 540.928,1209.05 543.5,1214.5 Z"/></g>
<g><path style="opacity:0.106" fill="#b29780" d="M 544.5,1215.5 C 549.747,1217.22 554.081,1220.39 557.5,1225C 558.5,1225.33 559.5,1225.67 560.5,1226C 563.332,1227.91 562.999,1228.74 559.5,1228.5C 554.718,1223.94 549.718,1219.6 544.5,1215.5 Z"/></g>
<g><path style="opacity:1" fill="#a08b82" d="M 982.5,1798.5 C 978.027,1799.1 973.694,1800.44 969.5,1802.5C 968.389,1801.39 967.055,1800.72 965.5,1800.5C 963.167,1801.17 960.833,1801.83 958.5,1802.5C 951.88,1801.99 945.38,1801.99 939,1802.5C 932.299,1803.59 925.632,1804.92 919,1806.5C 909.459,1805.87 899.959,1806.54 890.5,1808.5C 881.457,1808.51 872.457,1808.51 863.5,1808.5C 856.157,1809.22 848.824,1810.06 841.5,1811C 814.169,1811.5 786.835,1811.67 759.5,1811.5C 759.5,1809.5 759.5,1807.5 759.5,1805.5C 757.409,1805.32 755.409,1805.65 753.5,1806.5C 753.167,1804.83 752.833,1803.17 752.5,1801.5C 753.594,1786.84 753.594,1772.17 752.5,1757.5C 752.121,1745.1 751.121,1732.77 749.5,1720.5C 750.065,1714.16 750.731,1707.83 751.5,1701.5C 743.711,1640.35 736.544,1579.01 730,1517.5C 721.893,1456.26 708.227,1396.59 689,1338.5C 687.953,1335.14 686.453,1332.14 684.5,1329.5C 681.931,1324.5 680.431,1319.17 680,1313.5C 680.438,1317.44 682.604,1319.44 686.5,1319.5C 690.019,1329.55 693.853,1339.55 698,1349.5C 706.178,1366.04 713.178,1383.04 719,1400.5C 719.61,1396.76 719.277,1393.1 718,1389.5C 713.38,1377.62 709.38,1365.62 706,1353.5C 707,1355.17 708,1356.83 709,1358.5C 716.455,1380.53 724.122,1402.53 732,1424.5C 735.199,1435.36 737.866,1446.36 740,1457.5C 750.063,1486.03 758.729,1515.03 766,1544.5C 774.189,1566.58 780.522,1589.25 785,1612.5C 794.248,1629.27 802.914,1646.27 811,1663.5C 818.769,1674.05 826.769,1684.39 835,1694.5C 854.626,1714.63 874.459,1734.63 894.5,1754.5C 921.324,1769.12 948.324,1783.62 975.5,1798C 977.81,1798.5 980.143,1798.66 982.5,1798.5 Z"/></g>
<g><path style="opacity:1" fill="#070605" d="M 684.5,1329.5 C 686.453,1332.14 687.953,1335.14 689,1338.5C 708.227,1396.59 721.893,1456.26 730,1517.5C 736.544,1579.01 743.711,1640.35 751.5,1701.5C 750.731,1707.83 750.065,1714.16 749.5,1720.5C 748.046,1723.41 746.546,1726.41 745,1729.5C 744.768,1728.26 744.268,1727.26 743.5,1726.5C 742.7,1703.97 740.2,1681.63 736,1659.5C 732.122,1617.02 727.122,1574.69 721,1532.5C 720.208,1515.45 718.875,1498.45 717,1481.5C 712.427,1456.49 707.76,1431.49 703,1406.5C 695.558,1381.22 689.392,1355.55 684.5,1329.5 Z"/></g>
<g><path style="opacity:0.031" fill="#000000" d="M 438.5,1605.5 C 439.622,1607.29 439.789,1609.29 439,1611.5C 438.505,1609.53 438.338,1607.53 438.5,1605.5 Z"/></g>
<g><path style="opacity:1" fill="#332a27" d="M 749.5,1720.5 C 751.121,1732.77 752.121,1745.1 752.5,1757.5C 751.539,1755.74 751.205,1753.74 751.5,1751.5C 750.07,1751.58 748.736,1751.25 747.5,1750.5C 746.828,1751.95 746.161,1753.28 745.5,1754.5C 744.966,1745.15 744.299,1735.82 743.5,1726.5C 744.268,1727.26 744.768,1728.26 745,1729.5C 746.546,1726.41 748.046,1723.41 749.5,1720.5 Z"/></g>
<g><path style="opacity:1" fill="#917c74" d="M 745.5,1755.5 C 746.616,1762.64 747.282,1769.98 747.5,1777.5C 747.571,1783.07 746.904,1788.4 745.5,1793.5C 745.061,1780.78 745.061,1768.12 745.5,1755.5 Z"/></g>
</svg>
