<svg width="292" height="90" viewBox="0 0 292 90" fill="none" xmlns="http://www.w3.org/2000/svg">
<path opacity="0.999" fill-rule="evenodd" clip-rule="evenodd" d="M242.375 5.62499C243.732 6.00302 245.149 6.16967 246.625 6.12499C252.66 8.36314 257.868 11.8631 262.25 16.625C264.405 19.6957 266.655 22.6957 269 25.625C270.918 28.7917 272.832 31.9582 274.75 35.125C275.3 36.2305 275.717 37.3972 276 38.625C276.457 41.5752 277.04 44.492 277.75 47.375C277.875 51.2075 277.918 55.0407 277.875 58.875C277.875 58.9582 277.875 59.0417 277.875 59.125C277.492 60.0667 277.242 61.0667 277.125 62.125C276.733 62.6272 276.483 63.2107 276.375 63.875C275.848 65.2232 275.098 66.4315 274.125 67.5C272.043 68.9167 269.958 70.3332 267.875 71.75C264.423 73.259 260.84 74.3425 257.125 75C254.01 75.169 250.928 75.544 247.875 76.125C246.244 76.1742 244.66 76.341 243.125 76.625C242.875 76.625 242.625 76.625 242.375 76.625C237.832 76.7835 233.332 77.0335 228.875 77.375C218.053 78.117 207.22 78.617 196.375 78.875C159.875 78.8332 123.375 78.875 86.875 79C85.413 79.0432 83.9963 79.1682 82.625 79.375C70.4948 79.453 58.3698 79.2862 46.25 78.875C38.9583 79.0417 31.6668 79.0832 24.375 79C23.8704 78.8737 23.3704 78.7487 22.875 78.625C22.7567 78.2735 22.5067 78.1067 22.125 78.125C19.6036 76.9512 17.6036 75.2012 16.125 72.875C15.8844 71.9012 15.5511 70.9847 15.125 70.125C15.1389 68.8172 14.9723 67.5672 14.625 66.375C14.6847 64.954 14.4347 63.6205 13.875 62.375C13.6512 61.047 13.4429 59.7137 13.25 58.375C13.2077 55.2482 13.0827 52.165 12.875 49.125C12.875 48.9582 12.875 48.7917 12.875 48.625C12.8334 46.9562 12.8751 45.2895 13 43.625C13.7842 40.3957 14.4092 37.1457 14.875 33.875C15.3192 33.1237 15.5692 32.2905 15.625 31.375C15.9518 30.5687 16.2018 29.7352 16.375 28.875C16.7266 28.7567 16.8933 28.5067 16.875 28.125C17.375 26.9582 17.875 25.7917 18.375 24.625C18.7266 24.5067 18.8933 24.2567 18.875 23.875C19.4272 22.1944 20.4272 20.8194 21.875 19.75C23.471 18.4038 25.1375 17.1538 26.875 16C27.6488 15.8215 28.3988 15.5715 29.125 15.25C31.29 15.125 33.4568 15.0834 35.625 15.125C36.9328 15.1389 38.1828 14.9722 39.375 14.625C44.8723 14.1808 50.3723 13.7641 55.875 13.375C57.8508 13.4659 59.7675 13.2993 61.625 12.875C72.952 11.9587 84.2853 11.1254 95.625 10.375C98.2605 10.4341 100.844 10.2674 103.375 9.87499C104.197 9.69822 105.03 9.61487 105.875 9.62499C114.75 9.50687 123.583 9.34022 132.375 9.12499C132.625 9.12499 132.875 9.12499 133.125 9.12499C137.673 9.18442 142.173 9.01774 146.625 8.62499C147.042 8.62499 147.458 8.62499 147.875 8.62499C151.378 8.50719 154.878 8.34052 158.375 8.12499C161.256 8.12219 164.09 7.95552 166.875 7.62499C185.455 7.15872 204.038 6.53372 222.625 5.74999C229.208 5.62499 235.791 5.58334 242.375 5.62499Z" fill="#0B0B0B"/>
<path opacity="0.01" fill-rule="evenodd" clip-rule="evenodd" d="M247.625 6.125C247.292 6.125 246.958 6.125 246.625 6.125C245.26 5.81568 243.843 5.649 242.375 5.625C235.791 5.58335 229.208 5.625 222.625 5.75C204.038 6.53373 185.455 7.15873 166.875 7.625C163.993 7.60905 161.16 7.77573 158.375 8.125C154.878 8.34053 151.378 8.5072 147.875 8.625C148.542 8.45833 149.208 8.29168 149.875 8.125C155.435 7.6189 161.018 7.2439 166.625 7C183.88 6.5406 201.13 5.95725 218.375 5.25C227.63 5.01838 236.88 5.10173 246.125 5.5C246.713 5.56003 247.213 5.76838 247.625 6.125Z" fill="#DDDDDD"/>
<path opacity="0.169" fill-rule="evenodd" clip-rule="evenodd" d="M242.375 5.625C243.843 5.649 245.26 5.81567 246.625 6.125C245.149 6.16967 243.732 6.00302 242.375 5.625Z" fill="#A5A5A5"/>
<path opacity="0.841" fill-rule="evenodd" clip-rule="evenodd" d="M166.875 7.62501C164.089 7.95553 161.256 8.12221 158.375 8.12501C161.159 7.77573 163.993 7.60906 166.875 7.62501Z" fill="#474747"/>
<path opacity="0.01" fill-rule="evenodd" clip-rule="evenodd" d="M149.875 8.125C149.208 8.29168 148.542 8.45832 147.875 8.625C147.458 8.625 147.042 8.625 146.625 8.625C142.081 8.65968 137.581 8.82632 133.125 9.125C132.875 9.125 132.625 9.125 132.375 9.125C125.041 9.08335 117.708 9.125 110.375 9.25C108.83 9.2931 107.33 9.4181 105.875 9.625C105.03 9.61487 104.197 9.69823 103.375 9.875C101.958 9.875 100.542 9.875 99.125 9.875C94.1192 10.0143 89.1192 10.2643 84.125 10.625C92.3162 9.7777 100.566 9.23602 108.875 9C122.547 8.93913 136.214 8.64745 149.875 8.125Z" fill="#F8F8F8"/>
<path opacity="0.277" fill-rule="evenodd" clip-rule="evenodd" d="M146.625 8.625C142.173 9.01775 137.673 9.18442 133.125 9.125C137.581 8.82632 142.081 8.65967 146.625 8.625Z" fill="#BFBFBF"/>
<path fill-rule="evenodd" clip-rule="evenodd" d="M257.625 16.375C257.87 17.1673 258.37 17.7506 259.125 18.125C260.952 20.1121 262.535 22.2788 263.875 24.625C264.02 25.1873 264.352 25.6038 264.875 25.875C266.77 28.2475 268.355 30.8308 269.625 33.625C269.607 34.0068 269.773 34.2568 270.125 34.375C270.917 35.4583 271.585 36.625 272.125 37.875C272.173 38.7138 272.423 39.4638 272.875 40.125C272.875 40.2918 272.875 40.4583 272.875 40.625C272.81 42.0485 273.06 43.3818 273.625 44.625C273.888 45.432 274.052 46.2653 274.125 47.125C274.258 52.0598 274.09 56.9763 273.625 61.875C273.45 62.8253 273.158 63.742 272.75 64.625C270.822 66.2615 268.865 67.845 266.875 69.375C266.405 69.3073 266.072 69.474 265.875 69.875C263.84 70.6553 261.758 71.322 259.625 71.875C258.962 71.8525 258.378 72.019 257.875 72.375C257.708 72.375 257.542 72.375 257.375 72.375C256.712 72.3525 256.128 72.519 255.625 72.875C254.658 72.7963 253.74 72.8795 252.875 73.125C251.568 73.111 250.318 73.2778 249.125 73.625C241.453 74.2175 233.787 74.7175 226.125 75.125C221.994 75.2118 217.911 75.4618 213.875 75.875C203.087 76.2473 192.296 76.414 181.5 76.375C150.708 76.1328 119.917 76.091 89.125 76.25C82.714 76.6348 76.2972 76.843 69.875 76.875C65.9922 76.926 62.1587 76.7593 58.375 76.375C57.171 76.1685 55.921 76.0435 54.625 76C44.5387 75.9465 34.4552 75.8215 24.375 75.625C24.1039 75.1033 23.6872 74.77 23.125 74.625C22.8539 74.1033 22.4372 73.77 21.875 73.625C20.7763 73.1095 20.0263 72.276 19.625 71.125C19.2695 69.8255 19.0611 68.4923 19 67.125C18.9044 66.986 18.7794 66.9028 18.625 66.875C18.6755 66.2625 18.5922 65.6793 18.375 65.125C18.416 64.4533 18.3744 63.7865 18.25 63.125C18.1804 62.896 18.0554 62.7295 17.875 62.625C17.6244 61.54 17.3327 60.4565 17 59.375C16.8083 53.875 16.725 48.375 16.75 42.875C16.9977 42.298 17.206 41.7148 17.375 41.125C17.7367 40.9665 17.9034 40.6748 17.875 40.25C18.1917 38.8918 18.3584 37.5168 18.375 36.125C18.7839 35.1975 18.9506 34.1975 18.875 33.125C18.875 33.0418 18.875 32.9583 18.875 32.875C19.1975 32.7355 19.4058 32.4855 19.5 32.125C19.8791 30.8693 20.2541 29.6193 20.625 28.375C21.6888 27.166 22.4388 25.7495 22.875 24.125C23.625 23.5417 24.2917 22.875 24.875 22.125C25.6068 21.8107 26.1903 21.3107 26.625 20.625C27.5908 19.4325 28.8408 18.6825 30.375 18.375C31.6828 18.3889 32.9328 18.2223 34.125 17.875C35.5063 17.495 36.9228 17.3284 38.375 17.375C47.4315 17.2462 56.4315 16.7462 65.375 15.875C66.7687 15.6369 68.1852 15.5536 69.625 15.625C72.097 15.7146 74.5137 15.548 76.875 15.125C80.9122 14.8608 84.9122 14.5275 88.875 14.125C94.0865 13.9108 99.2533 13.5775 104.375 13.125C104.792 13.125 105.208 13.125 105.625 13.125C107.125 13.125 108.625 13.125 110.125 13.125C116.042 13.1667 121.959 13.125 127.875 13C129.836 12.9573 131.753 12.8323 133.625 12.625C134.042 12.625 134.458 12.625 134.875 12.625C138.209 12.6667 141.543 12.625 144.875 12.5C145.674 12.4549 146.424 12.3299 147.125 12.125C147.375 12.125 147.625 12.125 147.875 12.125C154.378 11.8555 160.878 11.5222 167.375 11.125C172.209 11.0429 177.042 10.9179 181.875 10.75C182.591 10.7043 183.258 10.5793 183.875 10.375C184.375 10.375 184.875 10.375 185.375 10.375C195.18 10.4916 204.93 10.1583 214.625 9.37502C216.837 9.31024 219.003 9.14357 221.125 8.87502C229.211 8.50232 237.294 8.54397 245.375 9.00002C250.003 10.5635 254.085 13.0218 257.625 16.375Z" fill="#FEFEFE"/>
<path opacity="0.183" fill-rule="evenodd" clip-rule="evenodd" d="M132.375 9.12499C123.583 9.34022 114.75 9.50687 105.875 9.62499C107.33 9.41809 108.83 9.29309 110.375 9.24999C117.708 9.12499 125.041 9.08334 132.375 9.12499Z" fill="#CACACA"/>
<path fill-rule="evenodd" clip-rule="evenodd" d="M221.125 8.87498C219.003 9.14353 216.837 9.31021 214.625 9.37498C214.042 9.37498 213.458 9.37498 212.875 9.37498C215.576 9.01643 218.326 8.84976 221.125 8.87498Z" fill="#A9A9A9"/>
<path fill-rule="evenodd" clip-rule="evenodd" d="M212.875 9.375C213.458 9.375 214.042 9.375 214.625 9.375C204.93 10.1582 195.18 10.4916 185.375 10.375C194.5 9.9969 203.667 9.66357 212.875 9.375Z" fill="#C9C9C9"/>
<path opacity="0.962" fill-rule="evenodd" clip-rule="evenodd" d="M99.125 9.875C100.542 9.875 101.958 9.875 103.375 9.875C100.844 10.2675 98.2605 10.4341 95.625 10.375C96.7917 10.2083 97.9583 10.0417 99.125 9.875Z" fill="#2A2A2A"/>
<path fill-rule="evenodd" clip-rule="evenodd" d="M183.875 10.375C183.258 10.5793 182.591 10.7043 181.875 10.75C177.042 10.9179 172.209 11.0429 167.375 11.125C168.458 10.9583 169.542 10.7917 170.625 10.625C175.043 10.5989 179.46 10.5156 183.875 10.375Z" fill="#D3D3D3"/>
<path fill-rule="evenodd" clip-rule="evenodd" d="M170.625 10.625C169.542 10.7917 168.458 10.9583 167.375 11.125C160.878 11.5222 154.378 11.8555 147.875 12.125C155.412 11.4923 162.995 10.9924 170.625 10.625Z" fill="#B1B1B1"/>
<path fill-rule="evenodd" clip-rule="evenodd" d="M147.125 12.125C146.424 12.3299 145.674 12.4549 144.875 12.5C141.543 12.625 138.209 12.6666 134.875 12.625C138.915 12.3626 142.998 12.196 147.125 12.125Z" fill="#CFCFCF"/>
<path fill-rule="evenodd" clip-rule="evenodd" d="M127.375 12.625C121.625 12.7917 115.875 12.9583 110.125 13.125C108.625 13.125 107.125 13.125 105.625 13.125C106.913 12.9183 108.246 12.7933 109.625 12.75C115.541 12.625 121.458 12.5833 127.375 12.625Z" fill="#909090"/>
<path opacity="0.01" fill-rule="evenodd" clip-rule="evenodd" d="M99.125 9.875C97.9583 10.0417 96.7918 10.2083 95.625 10.375C84.2853 11.1254 72.952 11.9587 61.625 12.875C59.664 12.955 57.7473 13.1216 55.875 13.375C50.3723 13.7641 44.8723 14.1808 39.375 14.625C38.0673 14.6111 36.8173 14.7778 35.625 15.125C33.4568 15.0834 31.29 15.1251 29.125 15.25C28.3988 15.5715 27.6488 15.8215 26.875 16C25.1375 17.1538 23.471 18.4038 21.875 19.75C20.4272 20.8194 19.4272 22.1944 18.875 23.875C18.5234 23.9933 18.3568 24.2433 18.375 24.625C17.875 25.7917 17.375 26.9583 16.875 28.125C16.5234 28.2432 16.3568 28.4932 16.375 28.875C16.2018 29.7353 15.9518 30.5688 15.625 31.375C15.1809 32.1262 14.9309 32.9595 14.875 33.875C14.4092 37.1458 13.7842 40.3958 13 43.625C12.8751 45.2895 12.8334 46.9562 12.875 48.625C12.6268 46.5875 12.5435 44.5042 12.625 42.375C13.3894 38.5397 14.181 34.7065 15 30.875C16.3852 26.9792 18.2602 23.3542 20.625 20C22.6386 18.4031 24.7219 16.9031 26.875 15.5C29.4925 14.392 32.2008 14.1004 35 14.625C51.355 13.0371 67.73 11.7038 84.125 10.625C89.1193 10.2643 94.1193 10.0143 99.125 9.875Z" fill="#E3E3E3"/>
<path fill-rule="evenodd" clip-rule="evenodd" d="M127.375 12.625C129.458 12.625 131.542 12.625 133.625 12.625C131.753 12.8322 129.836 12.9572 127.875 13C121.959 13.125 116.042 13.1666 110.125 13.125C115.875 12.9583 121.625 12.7917 127.375 12.625Z" fill="#DEDEDE"/>
<path opacity="0.937" fill-rule="evenodd" clip-rule="evenodd" d="M61.625 12.875C59.7675 13.2993 57.8507 13.466 55.875 13.375C57.7472 13.1217 59.664 12.955 61.625 12.875Z" fill="#373737"/>
<path fill-rule="evenodd" clip-rule="evenodd" d="M104.375 13.125C99.2533 13.5775 94.0865 13.9108 88.875 14.125C88.875 14.0417 88.875 13.9583 88.875 13.875C94.0365 13.5211 99.2032 13.2711 104.375 13.125Z" fill="#CACACA"/>
<path fill-rule="evenodd" clip-rule="evenodd" d="M88.875 13.875C88.875 13.9583 88.875 14.0417 88.875 14.125C84.9123 14.5275 80.9123 14.8608 76.875 15.125C76.2083 15.125 75.5418 15.125 74.875 15.125C79.4983 14.6599 84.165 14.2433 88.875 13.875Z" fill="#A6A6A6"/>
<path opacity="0.925" fill-rule="evenodd" clip-rule="evenodd" d="M39.375 14.625C38.1827 14.9723 36.9327 15.1389 35.625 15.125C36.8173 14.7778 38.0673 14.6111 39.375 14.625Z" fill="#3D3D3D"/>
<path fill-rule="evenodd" clip-rule="evenodd" d="M74.875 15.125C75.5417 15.125 76.2083 15.125 76.875 15.125C74.5138 15.5479 72.097 15.7146 69.625 15.625C71.3292 15.3586 73.0792 15.192 74.875 15.125Z" fill="#C4C4C4"/>
<path fill-rule="evenodd" clip-rule="evenodd" d="M65.375 15.875C56.4315 16.7462 47.4315 17.2462 38.375 17.375C47.3368 16.8891 56.3368 16.3891 65.375 15.875Z" fill="#B5B5B5"/>
<path fill-rule="evenodd" clip-rule="evenodd" d="M257.625 16.375C258.31 16.8098 258.81 17.3931 259.125 18.125C258.37 17.7506 257.87 17.1673 257.625 16.375Z" fill="#9C9C9C"/>
<path fill-rule="evenodd" clip-rule="evenodd" d="M34.125 17.875C32.9327 18.2223 31.6827 18.3889 30.375 18.375C31.5585 17.9639 32.8085 17.7972 34.125 17.875Z" fill="#B9B9B9"/>
<path fill-rule="evenodd" clip-rule="evenodd" d="M26.625 20.625C26.1903 21.3107 25.6068 21.8107 24.875 22.125C25.3097 21.4393 25.8932 20.9393 26.625 20.625Z" fill="#ADADAD"/>
<path opacity="0.031" fill-rule="evenodd" clip-rule="evenodd" d="M246.625 6.125C246.958 6.125 247.292 6.125 247.625 6.125C253.668 8.2928 258.792 11.7928 263 16.625C264.878 19.3811 266.878 22.0478 269 24.625C271.02 28.0833 273.105 31.5 275.25 34.875C276.597 37.9867 277.39 41.2368 277.625 44.625C278.005 47.394 278.173 50.1855 278.125 53C278.125 55.0018 278.042 56.9603 277.875 58.875C277.917 55.0407 277.875 51.2075 277.75 47.375C277.04 44.492 276.458 41.5752 276 38.625C275.718 37.3972 275.3 36.2305 274.75 35.125C272.833 31.9583 270.917 28.7917 269 25.625C266.655 22.6957 264.405 19.6957 262.25 16.625C257.868 11.8632 252.66 8.36315 246.625 6.125Z" fill="#DDDDDD"/>
<path fill-rule="evenodd" clip-rule="evenodd" d="M24.875 22.125C24.2917 22.875 23.625 23.5417 22.875 24.125C23.2917 23.2083 23.9583 22.5417 24.875 22.125Z" fill="#A6A6A6"/>
<path opacity="0.549" fill-rule="evenodd" clip-rule="evenodd" d="M18.875 23.875C18.8933 24.2567 18.7266 24.5067 18.375 24.625C18.3568 24.2433 18.5234 23.9933 18.875 23.875Z" fill="#717171"/>
<path fill-rule="evenodd" clip-rule="evenodd" d="M263.875 24.625C264.397 24.8961 264.73 25.3127 264.875 25.875C264.353 25.6037 264.02 25.1873 263.875 24.625Z" fill="#ACACAC"/>
<path fill-rule="evenodd" clip-rule="evenodd" d="M22.875 24.125C22.4388 25.7495 21.6888 27.166 20.625 28.375C21.1849 26.8375 21.9349 25.421 22.875 24.125Z" fill="#C2C2C2"/>
<path opacity="0.49" fill-rule="evenodd" clip-rule="evenodd" d="M16.875 28.125C16.8933 28.5067 16.7266 28.7567 16.375 28.875C16.3568 28.4933 16.5234 28.2432 16.875 28.125Z" fill="#787878"/>
<path fill-rule="evenodd" clip-rule="evenodd" d="M20.625 28.375C20.2541 29.6193 19.8791 30.8693 19.5 32.125C19.4058 32.4855 19.1975 32.7355 18.875 32.875C19.1643 31.2565 19.7476 29.7565 20.625 28.375Z" fill="#A9A9A9"/>
<path opacity="0.733" fill-rule="evenodd" clip-rule="evenodd" d="M15.625 31.375C15.5691 32.2905 15.3192 33.1237 14.875 33.875C14.9308 32.9595 15.1808 32.1263 15.625 31.375Z" fill="#656565"/>
<path fill-rule="evenodd" clip-rule="evenodd" d="M269.625 33.625C269.978 33.7432 270.143 33.9933 270.125 34.375C269.773 34.2567 269.608 34.0067 269.625 33.625Z" fill="#8A8A8A"/>
<path fill-rule="evenodd" clip-rule="evenodd" d="M18.875 33.125C18.9506 34.1975 18.7839 35.1975 18.375 36.125C18.2994 35.0525 18.4661 34.0525 18.875 33.125Z" fill="#B1B1B1"/>
<path fill-rule="evenodd" clip-rule="evenodd" d="M18.375 36.125C18.3584 37.5167 18.1917 38.8917 17.875 40.25C17.9033 40.6747 17.7367 40.9665 17.375 41.125C17.6181 39.4093 17.9514 37.7428 18.375 36.125Z" fill="#AFAFAF"/>
<path fill-rule="evenodd" clip-rule="evenodd" d="M272.125 37.875C272.618 38.521 272.868 39.271 272.875 40.125C272.423 39.4638 272.172 38.7138 272.125 37.875Z" fill="#888888"/>
<path opacity="0.01" fill-rule="evenodd" clip-rule="evenodd" d="M12.625 42.375C12.5435 44.5043 12.6268 46.5875 12.875 48.625C12.875 48.7917 12.875 48.9583 12.875 49.125C12.8293 53.2122 12.9126 57.2955 13.125 61.375C12.7687 60.5243 12.5604 59.6075 12.5 58.625C12.4065 54.5823 12.2815 50.5405 12.125 46.5C12.0778 45.062 12.2445 43.687 12.625 42.375Z" fill="#F9F9F9"/>
<path fill-rule="evenodd" clip-rule="evenodd" d="M272.875 40.625C273.26 41.9015 273.51 43.2348 273.625 44.625C273.06 43.3818 272.81 42.0485 272.875 40.625Z" fill="#8F8F8F"/>
<path opacity="0.01" fill-rule="evenodd" clip-rule="evenodd" d="M277.625 44.625C277.94 45.3145 278.147 46.0645 278.25 46.875C278.408 50.9598 278.49 55.0433 278.5 59.125C278.403 59.776 278.195 60.3595 277.875 60.875C277.875 60.2917 277.875 59.7083 277.875 59.125C277.875 59.0417 277.875 58.9583 277.875 58.875C278.043 56.9602 278.125 55.0017 278.125 53C278.173 50.1855 278.005 47.394 277.625 44.625Z" fill="#FAFAFA"/>
<path opacity="0.27" fill-rule="evenodd" clip-rule="evenodd" d="M12.875 49.125C13.0827 52.165 13.2077 55.2483 13.25 58.375C13.4429 59.7137 13.6512 61.047 13.875 62.375C13.5357 62.1025 13.2857 61.769 13.125 61.375C12.9126 57.2955 12.8293 53.2123 12.875 49.125Z" fill="#B5B5B5"/>
<path fill-rule="evenodd" clip-rule="evenodd" d="M274.125 47.125C274.4 51.0835 274.525 55.0835 274.5 59.125C274.288 60.097 273.998 61.0138 273.625 61.875C274.09 56.9762 274.257 52.0598 274.125 47.125Z" fill="#C1C1C1"/>
<path opacity="0.122" fill-rule="evenodd" clip-rule="evenodd" d="M277.125 62.125C277.207 62.8727 276.957 63.456 276.375 63.875C276.483 63.2107 276.732 62.6273 277.125 62.125Z" fill="#A2A2A2"/>
<path fill-rule="evenodd" clip-rule="evenodd" d="M17.875 62.625C18.0554 62.7295 18.1804 62.896 18.25 63.125C18.3744 63.7865 18.416 64.4532 18.375 65.125C18.1048 64.3433 17.9382 63.51 17.875 62.625Z" fill="#929292"/>
<path opacity="0.067" fill-rule="evenodd" clip-rule="evenodd" d="M13.875 62.375C14.4347 63.6205 14.6847 64.954 14.625 66.375C14.0653 65.1295 13.8153 63.796 13.875 62.375Z" fill="#B8B8B8"/>
<path fill-rule="evenodd" clip-rule="evenodd" d="M18.625 66.875C18.7793 66.9028 18.9043 66.986 19 67.125C19.0611 68.4922 19.2695 69.8255 19.625 71.125C18.9888 69.8138 18.6555 68.3973 18.625 66.875Z" fill="#BEBEBE"/>
<path opacity="0.208" fill-rule="evenodd" clip-rule="evenodd" d="M14.625 66.375C14.9723 67.5673 15.1389 68.8173 15.125 70.125C14.7778 68.9327 14.6111 67.6827 14.625 66.375Z" fill="#A4A4A4"/>
<path fill-rule="evenodd" clip-rule="evenodd" d="M266.875 69.375C266.623 69.6685 266.287 69.835 265.875 69.875C266.073 69.474 266.405 69.3073 266.875 69.375Z" fill="#737373"/>
<path opacity="0.012" fill-rule="evenodd" clip-rule="evenodd" d="M277.875 59.125C277.875 59.7082 277.875 60.2917 277.875 60.875C277.445 63.2492 276.528 65.416 275.125 67.375C272.952 68.7948 270.87 70.3365 268.875 72C264.673 73.9882 260.255 75.2383 255.625 75.75C252.785 76.0007 249.953 76.2925 247.125 76.625C247.375 76.4583 247.625 76.2917 247.875 76.125C250.928 75.544 254.01 75.169 257.125 75C260.84 74.3425 264.423 73.259 267.875 71.75C269.958 70.3333 272.042 68.9167 274.125 67.5C275.097 66.4315 275.847 65.2232 276.375 63.875C276.958 63.456 277.208 62.8728 277.125 62.125C277.243 61.0668 277.493 60.0667 277.875 59.125Z" fill="#D5D5D5"/>
<path opacity="0.333" fill-rule="evenodd" clip-rule="evenodd" d="M15.125 70.125C15.5511 70.9847 15.8844 71.9013 16.125 72.875C15.5026 72.0935 15.1693 71.177 15.125 70.125Z" fill="#858585"/>
<path fill-rule="evenodd" clip-rule="evenodd" d="M259.625 71.875C259.122 72.231 258.538 72.3975 257.875 72.375C258.377 72.019 258.962 71.8525 259.625 71.875Z" fill="#555555"/>
<path fill-rule="evenodd" clip-rule="evenodd" d="M257.375 72.375C256.872 72.731 256.288 72.8975 255.625 72.875C256.127 72.519 256.712 72.3525 257.375 72.375Z" fill="#555555"/>
<path fill-rule="evenodd" clip-rule="evenodd" d="M252.875 73.125C251.682 73.4723 250.433 73.639 249.125 73.625C250.317 73.2778 251.568 73.111 252.875 73.125Z" fill="#383838"/>
<path fill-rule="evenodd" clip-rule="evenodd" d="M21.875 73.625C22.4372 73.77 22.8539 74.1033 23.125 74.625C22.5628 74.48 22.1461 74.1467 21.875 73.625Z" fill="#AFAFAF"/>
<path fill-rule="evenodd" clip-rule="evenodd" d="M23.125 74.625C23.6872 74.77 24.1039 75.1033 24.375 75.625C23.8128 75.48 23.3961 75.1467 23.125 74.625Z" fill="#B0B0B0"/>
<path fill-rule="evenodd" clip-rule="evenodd" d="M226.125 75.125C222.091 75.5698 218.008 75.8198 213.875 75.875C217.911 75.4618 221.994 75.2118 226.125 75.125Z" fill="#2D2D2D"/>
<path fill-rule="evenodd" clip-rule="evenodd" d="M24.375 75.625C34.4552 75.8215 44.5387 75.9465 54.625 76C55.921 76.0435 57.171 76.1685 58.375 76.375C47.3765 76.1898 36.3765 76.0648 25.375 76C24.9855 75.9475 24.6521 75.8225 24.375 75.625Z" fill="#D0D0D0"/>
<path opacity="0.094" fill-rule="evenodd" clip-rule="evenodd" d="M247.875 76.125C247.625 76.2917 247.375 76.4582 247.125 76.625C245.792 76.625 244.458 76.625 243.125 76.625C244.66 76.341 246.243 76.1742 247.875 76.125Z" fill="#A9A9A9"/>
<path opacity="0.129" fill-rule="evenodd" clip-rule="evenodd" d="M242.375 76.625C240.206 76.8512 238.04 77.1012 235.875 77.375C235.625 77.375 235.375 77.375 235.125 77.375C233.042 77.375 230.958 77.375 228.875 77.375C233.332 77.0335 237.832 76.7835 242.375 76.625Z" fill="#B8B8B8"/>
<path opacity="0.01" fill-rule="evenodd" clip-rule="evenodd" d="M242.375 76.625C242.625 76.625 242.875 76.625 243.125 76.625C244.458 76.625 245.792 76.625 247.125 76.625C243.426 77.063 239.676 77.313 235.875 77.375C238.039 77.1012 240.206 76.8512 242.375 76.625Z" fill="#F7F7F7"/>
<path opacity="0.059" fill-rule="evenodd" clip-rule="evenodd" d="M228.875 77.375C230.958 77.375 233.042 77.375 235.125 77.375C225.254 78.0907 215.337 78.674 205.375 79.125C202.375 79.125 199.375 79.125 196.375 79.125C196.375 79.0417 196.375 78.9583 196.375 78.875C207.22 78.617 218.053 78.117 228.875 77.375Z" fill="#DDDDDD"/>
<path opacity="0.545" fill-rule="evenodd" clip-rule="evenodd" d="M22.125 78.125C22.5067 78.1068 22.7567 78.2735 22.875 78.625C22.4933 78.6433 22.2433 78.4765 22.125 78.125Z" fill="#6F6F6F"/>
<path opacity="0.185" fill-rule="evenodd" clip-rule="evenodd" d="M196.375 78.875C196.375 78.9582 196.375 79.0417 196.375 79.125C158.457 79.0485 120.54 79.1317 82.625 79.375C83.9963 79.1682 85.413 79.0432 86.875 79C123.375 78.875 159.875 78.8332 196.375 78.875Z" fill="#B4B4B4"/>
<path opacity="0.014" fill-rule="evenodd" clip-rule="evenodd" d="M13.125 61.375C13.2857 61.769 13.5357 62.1025 13.875 62.375C13.8153 63.796 14.0653 65.1295 14.625 66.375C14.6111 67.6827 14.7778 68.9327 15.125 70.125C15.1693 71.177 15.5026 72.0935 16.125 72.875C17.6035 75.2013 19.6035 76.9513 22.125 78.125C22.2433 78.4765 22.4933 78.6432 22.875 78.625C23.3704 78.7488 23.8704 78.8738 24.375 79C31.6667 79.0833 38.9583 79.0417 46.25 78.875C58.3698 79.2862 70.4948 79.453 82.625 79.375C120.54 79.1318 158.457 79.0485 196.375 79.125C199.375 79.125 202.375 79.125 205.375 79.125C196.836 79.495 188.253 79.6618 179.625 79.625C143.581 79.2097 107.539 79.293 71.5 79.875C63.2875 79.8568 55.079 79.69 46.875 79.375C39.707 79.5395 32.5405 79.6645 25.375 79.75C23.9427 79.642 22.6094 79.2255 21.375 78.5C19.3113 77.3655 17.5196 75.9073 16 74.125C15.5148 73.238 15.0982 72.3215 14.75 71.375C14.2428 68.0328 13.7012 64.6992 13.125 61.375Z" fill="#EEEEEE"/>
<path d="M70.5142 52V37.4545H80.1449V39.9901H73.5895V43.456H79.5057V45.9915H73.5895V52H70.5142ZM82.1566 52V41.0909H85.1822V52H82.1566ZM83.6765 39.6847C83.2267 39.6847 82.8408 39.5355 82.5188 39.2372C82.2016 38.9342 82.043 38.572 82.043 38.1506C82.043 37.7339 82.2016 37.3764 82.5188 37.0781C82.8408 36.7751 83.2267 36.6236 83.6765 36.6236C84.1263 36.6236 84.5098 36.7751 84.8271 37.0781C85.149 37.3764 85.31 37.7339 85.31 38.1506C85.31 38.572 85.149 38.9342 84.8271 39.2372C84.5098 39.5355 84.1263 39.6847 83.6765 39.6847ZM90.6314 45.6932V52H87.6058V41.0909H90.4893V43.0156H90.6172C90.8587 42.3812 91.2635 41.8793 91.8317 41.5099C92.3999 41.1359 93.0888 40.9489 93.8984 40.9489C94.656 40.9489 95.3165 41.1146 95.88 41.446C96.4434 41.7775 96.8814 42.2509 97.1939 42.8665C97.5064 43.4773 97.6626 44.2064 97.6626 45.054V52H94.6371V45.5938C94.6418 44.9261 94.4714 44.4053 94.1257 44.0312C93.7801 43.6525 93.3042 43.4631 92.6982 43.4631C92.291 43.4631 91.9311 43.5507 91.6186 43.7259C91.3108 43.901 91.0694 44.1567 90.8942 44.4929C90.7237 44.8243 90.6361 45.2244 90.6314 45.6932ZM100.047 52V41.0909H103.073V52H100.047ZM101.567 39.6847C101.117 39.6847 100.731 39.5355 100.409 39.2372C100.092 38.9342 99.9336 38.572 99.9336 38.1506C99.9336 37.7339 100.092 37.3764 100.409 37.0781C100.731 36.7751 101.117 36.6236 101.567 36.6236C102.017 36.6236 102.4 36.7751 102.718 37.0781C103.04 37.3764 103.201 37.7339 103.201 38.1506C103.201 38.572 103.04 38.9342 102.718 39.2372C102.4 39.5355 102.017 39.6847 101.567 39.6847ZM114.573 44.2017L111.803 44.3722C111.756 44.1354 111.654 43.9223 111.498 43.733C111.342 43.5388 111.136 43.3849 110.88 43.2713C110.629 43.1529 110.328 43.0938 109.978 43.0938C109.509 43.0938 109.114 43.1932 108.792 43.392C108.47 43.5862 108.309 43.8466 108.309 44.1733C108.309 44.4337 108.413 44.6539 108.621 44.8338C108.83 45.0137 109.187 45.1581 109.694 45.267L111.668 45.6648C112.729 45.8826 113.52 46.233 114.04 46.7159C114.561 47.1989 114.822 47.8333 114.822 48.6193C114.822 49.3343 114.611 49.9616 114.19 50.5014C113.773 51.0412 113.2 51.4626 112.471 51.7656C111.746 52.0639 110.911 52.2131 109.964 52.2131C108.52 52.2131 107.369 51.9124 106.512 51.3111C105.66 50.705 105.16 49.8812 105.013 48.8395L107.989 48.6832C108.079 49.1236 108.297 49.4598 108.643 49.6918C108.988 49.919 109.431 50.0327 109.971 50.0327C110.501 50.0327 110.927 49.9309 111.249 49.7273C111.576 49.5189 111.742 49.2514 111.746 48.9247C111.742 48.6501 111.626 48.4252 111.398 48.25C111.171 48.0701 110.821 47.9328 110.347 47.8381L108.458 47.4616C107.393 47.2486 106.6 46.8793 106.079 46.3537C105.563 45.8281 105.305 45.1581 105.305 44.3438C105.305 43.643 105.494 43.0393 105.873 42.5327C106.256 42.026 106.794 41.6354 107.485 41.3608C108.181 41.0862 108.996 40.9489 109.928 40.9489C111.306 40.9489 112.39 41.2401 113.181 41.8224C113.977 42.4048 114.441 43.1979 114.573 44.2017ZM119.752 45.6932V52H116.727V37.4545H119.667V43.0156H119.795C120.041 42.3717 120.439 41.8674 120.988 41.5028C121.538 41.1335 122.226 40.9489 123.055 40.9489C123.813 40.9489 124.473 41.1146 125.037 41.446C125.605 41.7727 126.045 42.2438 126.358 42.8594C126.675 43.4702 126.831 44.2017 126.826 45.054V52H123.801V45.5938C123.806 44.9214 123.635 44.3982 123.289 44.0241C122.949 43.6501 122.47 43.4631 121.855 43.4631C121.443 43.4631 121.078 43.5507 120.761 43.7259C120.449 43.901 120.202 44.1567 120.022 44.4929C119.847 44.8243 119.757 45.2244 119.752 45.6932ZM133.893 52V37.4545H143.524V39.9901H136.968V43.456H142.885V45.9915H136.968V52H133.893ZM149.664 52.2131C148.56 52.2131 147.606 51.9787 146.801 51.5099C146.001 51.0365 145.383 50.3783 144.948 49.5355C144.512 48.688 144.294 47.7055 144.294 46.5881C144.294 45.4612 144.512 44.4763 144.948 43.6335C145.383 42.786 146.001 42.1278 146.801 41.6591C147.606 41.1856 148.56 40.9489 149.664 40.9489C150.767 40.9489 151.719 41.1856 152.519 41.6591C153.324 42.1278 153.944 42.786 154.38 43.6335C154.815 44.4763 155.033 45.4612 155.033 46.5881C155.033 47.7055 154.815 48.688 154.38 49.5355C153.944 50.3783 153.324 51.0365 152.519 51.5099C151.719 51.9787 150.767 52.2131 149.664 52.2131ZM149.678 49.8693C150.18 49.8693 150.599 49.7273 150.935 49.4432C151.271 49.1544 151.525 48.7614 151.695 48.2642C151.87 47.767 151.958 47.2012 151.958 46.5668C151.958 45.9323 151.87 45.3665 151.695 44.8693C151.525 44.3722 151.271 43.9792 150.935 43.6903C150.599 43.4015 150.18 43.2571 149.678 43.2571C149.171 43.2571 148.745 43.4015 148.4 43.6903C148.059 43.9792 147.801 44.3722 147.625 44.8693C147.455 45.3665 147.37 45.9323 147.37 46.5668C147.37 47.2012 147.455 47.767 147.625 48.2642C147.801 48.7614 148.059 49.1544 148.4 49.4432C148.745 49.7273 149.171 49.8693 149.678 49.8693ZM161.929 52.2131C160.812 52.2131 159.851 51.9763 159.046 51.5028C158.246 51.0246 157.63 50.3617 157.199 49.5142C156.773 48.6667 156.56 47.6913 156.56 46.5881C156.56 45.4706 156.775 44.4905 157.206 43.6477C157.642 42.8002 158.26 42.1397 159.06 41.6662C159.86 41.188 160.812 40.9489 161.915 40.9489C162.867 40.9489 163.7 41.1217 164.415 41.4673C165.13 41.813 165.696 42.2983 166.113 42.9233C166.529 43.5483 166.759 44.2822 166.801 45.125H163.946C163.866 44.5805 163.653 44.1425 163.307 43.8111C162.966 43.4749 162.519 43.3068 161.965 43.3068C161.496 43.3068 161.087 43.4347 160.736 43.6903C160.391 43.9413 160.121 44.3082 159.926 44.7912C159.732 45.2741 159.635 45.8589 159.635 46.5455C159.635 47.2415 159.73 47.8333 159.919 48.321C160.114 48.8087 160.386 49.1804 160.736 49.4361C161.087 49.6918 161.496 49.8196 161.965 49.8196C162.31 49.8196 162.621 49.7486 162.895 49.6065C163.175 49.4645 163.404 49.2585 163.584 48.9886C163.769 48.714 163.89 48.3849 163.946 48.0014H166.801C166.754 48.8348 166.527 49.5687 166.12 50.2031C165.717 50.8329 165.161 51.3253 164.451 51.6804C163.74 52.0355 162.9 52.2131 161.929 52.2131ZM175.734 47.3551V41.0909H178.76V52H175.855V50.0185H175.741C175.495 50.6577 175.086 51.1714 174.513 51.5597C173.945 51.9479 173.251 52.142 172.432 52.142C171.703 52.142 171.061 51.9763 170.507 51.6449C169.953 51.3134 169.52 50.8423 169.207 50.2315C168.9 49.6207 168.743 48.8892 168.739 48.0369V41.0909H171.764V47.4972C171.769 48.1411 171.942 48.6501 172.283 49.0241C172.624 49.3982 173.08 49.5852 173.653 49.5852C174.018 49.5852 174.359 49.5024 174.676 49.3366C174.993 49.1662 175.249 48.9152 175.443 48.5838C175.642 48.2524 175.739 47.8428 175.734 47.3551ZM190.257 44.2017L187.487 44.3722C187.44 44.1354 187.338 43.9223 187.181 43.733C187.025 43.5388 186.819 43.3849 186.564 43.2713C186.313 43.1529 186.012 43.0938 185.662 43.0938C185.193 43.0938 184.797 43.1932 184.475 43.392C184.154 43.5862 183.993 43.8466 183.993 44.1733C183.993 44.4337 184.097 44.6539 184.305 44.8338C184.513 45.0137 184.871 45.1581 185.377 45.267L187.352 45.6648C188.413 45.8826 189.203 46.233 189.724 46.7159C190.245 47.1989 190.505 47.8333 190.505 48.6193C190.505 49.3343 190.295 49.9616 189.873 50.5014C189.457 51.0412 188.884 51.4626 188.154 51.7656C187.43 52.0639 186.594 52.2131 185.647 52.2131C184.203 52.2131 183.053 51.9124 182.196 51.3111C181.343 50.705 180.844 49.8812 180.697 48.8395L183.673 48.6832C183.763 49.1236 183.981 49.4598 184.326 49.6918C184.672 49.919 185.115 50.0327 185.654 50.0327C186.185 50.0327 186.611 49.9309 186.933 49.7273C187.26 49.5189 187.425 49.2514 187.43 48.9247C187.425 48.6501 187.309 48.4252 187.082 48.25C186.855 48.0701 186.504 47.9328 186.031 47.8381L184.142 47.4616C183.076 47.2486 182.283 46.8793 181.762 46.3537C181.246 45.8281 180.988 45.1581 180.988 44.3438C180.988 43.643 181.178 43.0393 181.556 42.5327C181.94 42.026 182.477 41.6354 183.169 41.3608C183.865 41.0862 184.679 40.9489 185.612 40.9489C186.99 40.9489 188.074 41.2401 188.865 41.8224C189.66 42.4048 190.124 43.1979 190.257 44.2017ZM192.411 52V41.0909H195.436V52H192.411ZM193.93 39.6847C193.481 39.6847 193.095 39.5355 192.773 39.2372C192.455 38.9342 192.297 38.572 192.297 38.1506C192.297 37.7339 192.455 37.3764 192.773 37.0781C193.095 36.7751 193.481 36.6236 193.93 36.6236C194.38 36.6236 194.764 36.7751 195.081 37.0781C195.403 37.3764 195.564 37.7339 195.564 38.1506C195.564 38.572 195.403 38.9342 195.081 39.2372C194.764 39.5355 194.38 39.6847 193.93 39.6847ZM200.885 45.6932V52H197.86V41.0909H200.743V43.0156H200.871C201.113 42.3812 201.517 41.8793 202.086 41.5099C202.654 41.1359 203.343 40.9489 204.152 40.9489C204.91 40.9489 205.57 41.1146 206.134 41.446C206.697 41.7775 207.135 42.2509 207.448 42.8665C207.76 43.4773 207.917 44.2064 207.917 45.054V52H204.891V45.5938C204.896 44.9261 204.725 44.4053 204.38 44.0312C204.034 43.6525 203.558 43.4631 202.952 43.4631C202.545 43.4631 202.185 43.5507 201.873 43.7259C201.565 43.901 201.323 44.1567 201.148 44.4929C200.978 44.8243 200.89 45.2244 200.885 45.6932ZM215.216 56.3182C214.236 56.3182 213.395 56.1832 212.695 55.9134C211.999 55.6482 211.445 55.286 211.033 54.8267C210.621 54.3674 210.353 53.8513 210.23 53.2784L213.028 52.902C213.114 53.1198 213.249 53.3234 213.433 53.5128C213.618 53.7022 213.862 53.8537 214.165 53.9673C214.473 54.0857 214.847 54.1449 215.287 54.1449C215.945 54.1449 216.487 53.9839 216.913 53.6619C217.344 53.3447 217.56 52.812 217.56 52.0639V50.0682H217.432C217.299 50.3712 217.1 50.6577 216.835 50.9276C216.57 51.1974 216.229 51.4176 215.812 51.5881C215.396 51.7585 214.899 51.8438 214.321 51.8438C213.502 51.8438 212.756 51.6544 212.084 51.2756C211.416 50.892 210.884 50.3073 210.486 49.5213C210.093 48.7306 209.896 47.7315 209.896 46.5241C209.896 45.2884 210.098 44.2562 210.5 43.4276C210.902 42.599 211.438 41.9787 212.105 41.5668C212.777 41.1548 213.514 40.9489 214.314 40.9489C214.925 40.9489 215.436 41.053 215.848 41.2614C216.26 41.465 216.591 41.7206 216.842 42.0284C217.098 42.3314 217.295 42.6297 217.432 42.9233H217.545V41.0909H220.55V52.1065C220.55 53.0346 220.322 53.8111 219.868 54.4361C219.413 55.0611 218.784 55.5298 217.979 55.8423C217.179 56.1596 216.258 56.3182 215.216 56.3182ZM215.28 49.571C215.768 49.571 216.179 49.4503 216.516 49.2088C216.857 48.9626 217.117 48.6122 217.297 48.1577C217.482 47.6984 217.574 47.1491 217.574 46.5099C217.574 45.8707 217.484 45.3168 217.304 44.848C217.124 44.3745 216.864 44.0076 216.523 43.7472C216.182 43.4867 215.768 43.3565 215.28 43.3565C214.783 43.3565 214.364 43.4915 214.023 43.7614C213.682 44.0265 213.424 44.3958 213.249 44.8693C213.073 45.3428 212.986 45.8897 212.986 46.5099C212.986 47.1397 213.073 47.6842 213.249 48.1435C213.429 48.598 213.687 48.9508 214.023 49.2017C214.364 49.4479 214.783 49.571 215.28 49.571Z" fill="black"/>
</svg>
