<svg width="292" height="90" viewBox="0 0 292 90" fill="none" xmlns="http://www.w3.org/2000/svg">
<path opacity="0.999" fill-rule="evenodd" clip-rule="evenodd" d="M242.375 5.62499C243.732 6.00302 245.149 6.16967 246.625 6.12499C252.66 8.36314 257.868 11.8631 262.25 16.625C264.405 19.6957 266.655 22.6957 269 25.625C270.918 28.7917 272.832 31.9582 274.75 35.125C275.3 36.2305 275.717 37.3972 276 38.625C276.457 41.5752 277.04 44.492 277.75 47.375C277.875 51.2075 277.918 55.0407 277.875 58.875C277.875 58.9582 277.875 59.0417 277.875 59.125C277.492 60.0667 277.242 61.0667 277.125 62.125C276.733 62.6272 276.483 63.2107 276.375 63.875C275.848 65.2232 275.098 66.4315 274.125 67.5C272.043 68.9167 269.958 70.3332 267.875 71.75C264.423 73.259 260.84 74.3425 257.125 75C254.01 75.169 250.928 75.544 247.875 76.125C246.244 76.1742 244.66 76.341 243.125 76.625C242.875 76.625 242.625 76.625 242.375 76.625C237.832 76.7835 233.332 77.0335 228.875 77.375C218.053 78.117 207.22 78.617 196.375 78.875C159.875 78.8332 123.375 78.875 86.875 79C85.413 79.0432 83.9963 79.1682 82.625 79.375C70.4948 79.453 58.3698 79.2862 46.25 78.875C38.9583 79.0417 31.6668 79.0832 24.375 79C23.8704 78.8737 23.3704 78.7487 22.875 78.625C22.7567 78.2735 22.5067 78.1067 22.125 78.125C19.6036 76.9512 17.6036 75.2012 16.125 72.875C15.8844 71.9012 15.5511 70.9847 15.125 70.125C15.1389 68.8172 14.9723 67.5672 14.625 66.375C14.6847 64.954 14.4347 63.6205 13.875 62.375C13.6512 61.047 13.4429 59.7137 13.25 58.375C13.2077 55.2482 13.0827 52.165 12.875 49.125C12.875 48.9582 12.875 48.7917 12.875 48.625C12.8334 46.9562 12.8751 45.2895 13 43.625C13.7842 40.3957 14.4092 37.1457 14.875 33.875C15.3192 33.1237 15.5692 32.2905 15.625 31.375C15.9518 30.5687 16.2018 29.7352 16.375 28.875C16.7266 28.7567 16.8933 28.5067 16.875 28.125C17.375 26.9582 17.875 25.7917 18.375 24.625C18.7266 24.5067 18.8933 24.2567 18.875 23.875C19.4272 22.1944 20.4272 20.8194 21.875 19.75C23.471 18.4038 25.1375 17.1538 26.875 16C27.6488 15.8215 28.3988 15.5715 29.125 15.25C31.29 15.125 33.4568 15.0834 35.625 15.125C36.9328 15.1389 38.1828 14.9722 39.375 14.625C44.8723 14.1808 50.3723 13.7641 55.875 13.375C57.8508 13.4659 59.7675 13.2993 61.625 12.875C72.952 11.9587 84.2853 11.1254 95.625 10.375C98.2605 10.4341 100.844 10.2674 103.375 9.87499C104.197 9.69822 105.03 9.61487 105.875 9.62499C114.75 9.50687 123.583 9.34022 132.375 9.12499C132.625 9.12499 132.875 9.12499 133.125 9.12499C137.673 9.18442 142.173 9.01774 146.625 8.62499C147.042 8.62499 147.458 8.62499 147.875 8.62499C151.378 8.50719 154.878 8.34052 158.375 8.12499C161.256 8.12219 164.09 7.95552 166.875 7.62499C185.455 7.15872 204.038 6.53372 222.625 5.74999C229.208 5.62499 235.791 5.58334 242.375 5.62499Z" fill="#0B0B0B"/>
<path opacity="0.01" fill-rule="evenodd" clip-rule="evenodd" d="M247.625 6.125C247.292 6.125 246.958 6.125 246.625 6.125C245.26 5.81568 243.843 5.649 242.375 5.625C235.791 5.58335 229.208 5.625 222.625 5.75C204.038 6.53373 185.455 7.15873 166.875 7.625C163.993 7.60905 161.16 7.77573 158.375 8.125C154.878 8.34053 151.378 8.5072 147.875 8.625C148.542 8.45833 149.208 8.29168 149.875 8.125C155.435 7.6189 161.018 7.2439 166.625 7C183.88 6.5406 201.13 5.95725 218.375 5.25C227.63 5.01838 236.88 5.10173 246.125 5.5C246.713 5.56003 247.213 5.76838 247.625 6.125Z" fill="#DDDDDD"/>
<path opacity="0.169" fill-rule="evenodd" clip-rule="evenodd" d="M242.375 5.625C243.843 5.649 245.26 5.81567 246.625 6.125C245.149 6.16967 243.732 6.00302 242.375 5.625Z" fill="#A5A5A5"/>
<path opacity="0.841" fill-rule="evenodd" clip-rule="evenodd" d="M166.875 7.62501C164.089 7.95553 161.256 8.12221 158.375 8.12501C161.159 7.77573 163.993 7.60906 166.875 7.62501Z" fill="#474747"/>
<path opacity="0.01" fill-rule="evenodd" clip-rule="evenodd" d="M149.875 8.125C149.208 8.29168 148.542 8.45832 147.875 8.625C147.458 8.625 147.042 8.625 146.625 8.625C142.081 8.65968 137.581 8.82632 133.125 9.125C132.875 9.125 132.625 9.125 132.375 9.125C125.041 9.08335 117.708 9.125 110.375 9.25C108.83 9.2931 107.33 9.4181 105.875 9.625C105.03 9.61487 104.197 9.69823 103.375 9.875C101.958 9.875 100.542 9.875 99.125 9.875C94.1192 10.0143 89.1192 10.2643 84.125 10.625C92.3162 9.7777 100.566 9.23602 108.875 9C122.547 8.93913 136.214 8.64745 149.875 8.125Z" fill="#F8F8F8"/>
<path opacity="0.277" fill-rule="evenodd" clip-rule="evenodd" d="M146.625 8.625C142.173 9.01775 137.673 9.18442 133.125 9.125C137.581 8.82632 142.081 8.65967 146.625 8.625Z" fill="#BFBFBF"/>
<path fill-rule="evenodd" clip-rule="evenodd" d="M257.625 16.375C257.87 17.1673 258.37 17.7506 259.125 18.125C260.952 20.1121 262.535 22.2788 263.875 24.625C264.02 25.1873 264.352 25.6038 264.875 25.875C266.77 28.2475 268.355 30.8308 269.625 33.625C269.607 34.0068 269.773 34.2568 270.125 34.375C270.917 35.4583 271.585 36.625 272.125 37.875C272.173 38.7138 272.423 39.4638 272.875 40.125C272.875 40.2918 272.875 40.4583 272.875 40.625C272.81 42.0485 273.06 43.3818 273.625 44.625C273.888 45.432 274.052 46.2653 274.125 47.125C274.258 52.0598 274.09 56.9763 273.625 61.875C273.45 62.8253 273.158 63.742 272.75 64.625C270.822 66.2615 268.865 67.845 266.875 69.375C266.405 69.3073 266.072 69.474 265.875 69.875C263.84 70.6553 261.758 71.322 259.625 71.875C258.962 71.8525 258.378 72.019 257.875 72.375C257.708 72.375 257.542 72.375 257.375 72.375C256.712 72.3525 256.128 72.519 255.625 72.875C254.658 72.7963 253.74 72.8795 252.875 73.125C251.568 73.111 250.318 73.2778 249.125 73.625C241.453 74.2175 233.787 74.7175 226.125 75.125C221.994 75.2118 217.911 75.4618 213.875 75.875C203.087 76.2473 192.296 76.414 181.5 76.375C150.708 76.1328 119.917 76.091 89.125 76.25C82.714 76.6348 76.2972 76.843 69.875 76.875C65.9922 76.926 62.1587 76.7593 58.375 76.375C57.171 76.1685 55.921 76.0435 54.625 76C44.5387 75.9465 34.4552 75.8215 24.375 75.625C24.1039 75.1033 23.6872 74.77 23.125 74.625C22.8539 74.1033 22.4372 73.77 21.875 73.625C20.7763 73.1095 20.0263 72.276 19.625 71.125C19.2695 69.8255 19.0611 68.4923 19 67.125C18.9044 66.986 18.7794 66.9028 18.625 66.875C18.6755 66.2625 18.5922 65.6793 18.375 65.125C18.416 64.4533 18.3744 63.7865 18.25 63.125C18.1804 62.896 18.0554 62.7295 17.875 62.625C17.6244 61.54 17.3327 60.4565 17 59.375C16.8083 53.875 16.725 48.375 16.75 42.875C16.9977 42.298 17.206 41.7148 17.375 41.125C17.7367 40.9665 17.9034 40.6748 17.875 40.25C18.1917 38.8918 18.3584 37.5168 18.375 36.125C18.7839 35.1975 18.9506 34.1975 18.875 33.125C18.875 33.0418 18.875 32.9583 18.875 32.875C19.1975 32.7355 19.4058 32.4855 19.5 32.125C19.8791 30.8693 20.2541 29.6193 20.625 28.375C21.6888 27.166 22.4388 25.7495 22.875 24.125C23.625 23.5417 24.2917 22.875 24.875 22.125C25.6068 21.8107 26.1903 21.3107 26.625 20.625C27.5908 19.4325 28.8408 18.6825 30.375 18.375C31.6828 18.3889 32.9328 18.2223 34.125 17.875C35.5063 17.495 36.9228 17.3284 38.375 17.375C47.4315 17.2462 56.4315 16.7462 65.375 15.875C66.7687 15.6369 68.1852 15.5536 69.625 15.625C72.097 15.7146 74.5137 15.548 76.875 15.125C80.9122 14.8608 84.9122 14.5275 88.875 14.125C94.0865 13.9108 99.2533 13.5775 104.375 13.125C104.792 13.125 105.208 13.125 105.625 13.125C107.125 13.125 108.625 13.125 110.125 13.125C116.042 13.1667 121.959 13.125 127.875 13C129.836 12.9573 131.753 12.8323 133.625 12.625C134.042 12.625 134.458 12.625 134.875 12.625C138.209 12.6667 141.543 12.625 144.875 12.5C145.674 12.4549 146.424 12.3299 147.125 12.125C147.375 12.125 147.625 12.125 147.875 12.125C154.378 11.8555 160.878 11.5222 167.375 11.125C172.209 11.0429 177.042 10.9179 181.875 10.75C182.591 10.7043 183.258 10.5793 183.875 10.375C184.375 10.375 184.875 10.375 185.375 10.375C195.18 10.4916 204.93 10.1583 214.625 9.37502C216.837 9.31024 219.003 9.14357 221.125 8.87502C229.211 8.50232 237.294 8.54397 245.375 9.00002C250.003 10.5635 254.085 13.0218 257.625 16.375Z" fill="#FEFEFE"/>
<path opacity="0.183" fill-rule="evenodd" clip-rule="evenodd" d="M132.375 9.12499C123.583 9.34022 114.75 9.50687 105.875 9.62499C107.33 9.41809 108.83 9.29309 110.375 9.24999C117.708 9.12499 125.041 9.08334 132.375 9.12499Z" fill="#CACACA"/>
<path fill-rule="evenodd" clip-rule="evenodd" d="M221.125 8.87498C219.003 9.14353 216.837 9.31021 214.625 9.37498C214.042 9.37498 213.458 9.37498 212.875 9.37498C215.576 9.01643 218.326 8.84976 221.125 8.87498Z" fill="#A9A9A9"/>
<path fill-rule="evenodd" clip-rule="evenodd" d="M212.875 9.375C213.458 9.375 214.042 9.375 214.625 9.375C204.93 10.1582 195.18 10.4916 185.375 10.375C194.5 9.9969 203.667 9.66357 212.875 9.375Z" fill="#C9C9C9"/>
<path opacity="0.962" fill-rule="evenodd" clip-rule="evenodd" d="M99.125 9.875C100.542 9.875 101.958 9.875 103.375 9.875C100.844 10.2675 98.2605 10.4341 95.625 10.375C96.7917 10.2083 97.9583 10.0417 99.125 9.875Z" fill="#2A2A2A"/>
<path fill-rule="evenodd" clip-rule="evenodd" d="M183.875 10.375C183.258 10.5793 182.591 10.7043 181.875 10.75C177.042 10.9179 172.209 11.0429 167.375 11.125C168.458 10.9583 169.542 10.7917 170.625 10.625C175.043 10.5989 179.46 10.5156 183.875 10.375Z" fill="#D3D3D3"/>
<path fill-rule="evenodd" clip-rule="evenodd" d="M170.625 10.625C169.542 10.7917 168.458 10.9583 167.375 11.125C160.878 11.5222 154.378 11.8555 147.875 12.125C155.412 11.4923 162.995 10.9924 170.625 10.625Z" fill="#B1B1B1"/>
<path fill-rule="evenodd" clip-rule="evenodd" d="M147.125 12.125C146.424 12.3299 145.674 12.4549 144.875 12.5C141.543 12.625 138.209 12.6666 134.875 12.625C138.915 12.3626 142.998 12.196 147.125 12.125Z" fill="#CFCFCF"/>
<path fill-rule="evenodd" clip-rule="evenodd" d="M127.375 12.625C121.625 12.7917 115.875 12.9583 110.125 13.125C108.625 13.125 107.125 13.125 105.625 13.125C106.913 12.9183 108.246 12.7933 109.625 12.75C115.541 12.625 121.458 12.5833 127.375 12.625Z" fill="#909090"/>
<path opacity="0.01" fill-rule="evenodd" clip-rule="evenodd" d="M99.125 9.875C97.9583 10.0417 96.7918 10.2083 95.625 10.375C84.2853 11.1254 72.952 11.9587 61.625 12.875C59.664 12.955 57.7473 13.1216 55.875 13.375C50.3723 13.7641 44.8723 14.1808 39.375 14.625C38.0673 14.6111 36.8173 14.7778 35.625 15.125C33.4568 15.0834 31.29 15.1251 29.125 15.25C28.3988 15.5715 27.6488 15.8215 26.875 16C25.1375 17.1538 23.471 18.4038 21.875 19.75C20.4272 20.8194 19.4272 22.1944 18.875 23.875C18.5234 23.9933 18.3568 24.2433 18.375 24.625C17.875 25.7917 17.375 26.9583 16.875 28.125C16.5234 28.2432 16.3568 28.4932 16.375 28.875C16.2018 29.7353 15.9518 30.5688 15.625 31.375C15.1809 32.1262 14.9309 32.9595 14.875 33.875C14.4092 37.1458 13.7842 40.3958 13 43.625C12.8751 45.2895 12.8334 46.9562 12.875 48.625C12.6268 46.5875 12.5435 44.5042 12.625 42.375C13.3894 38.5397 14.181 34.7065 15 30.875C16.3852 26.9792 18.2602 23.3542 20.625 20C22.6386 18.4031 24.7219 16.9031 26.875 15.5C29.4925 14.392 32.2008 14.1004 35 14.625C51.355 13.0371 67.73 11.7038 84.125 10.625C89.1193 10.2643 94.1193 10.0143 99.125 9.875Z" fill="#E3E3E3"/>
<path fill-rule="evenodd" clip-rule="evenodd" d="M127.375 12.625C129.458 12.625 131.542 12.625 133.625 12.625C131.753 12.8322 129.836 12.9572 127.875 13C121.959 13.125 116.042 13.1666 110.125 13.125C115.875 12.9583 121.625 12.7917 127.375 12.625Z" fill="#DEDEDE"/>
<path opacity="0.937" fill-rule="evenodd" clip-rule="evenodd" d="M61.625 12.875C59.7675 13.2993 57.8507 13.466 55.875 13.375C57.7472 13.1217 59.664 12.955 61.625 12.875Z" fill="#373737"/>
<path fill-rule="evenodd" clip-rule="evenodd" d="M104.375 13.125C99.2533 13.5775 94.0865 13.9108 88.875 14.125C88.875 14.0417 88.875 13.9583 88.875 13.875C94.0365 13.5211 99.2032 13.2711 104.375 13.125Z" fill="#CACACA"/>
<path fill-rule="evenodd" clip-rule="evenodd" d="M88.875 13.875C88.875 13.9583 88.875 14.0417 88.875 14.125C84.9123 14.5275 80.9123 14.8608 76.875 15.125C76.2083 15.125 75.5418 15.125 74.875 15.125C79.4983 14.6599 84.165 14.2433 88.875 13.875Z" fill="#A6A6A6"/>
<path opacity="0.925" fill-rule="evenodd" clip-rule="evenodd" d="M39.375 14.625C38.1827 14.9723 36.9327 15.1389 35.625 15.125C36.8173 14.7778 38.0673 14.6111 39.375 14.625Z" fill="#3D3D3D"/>
<path fill-rule="evenodd" clip-rule="evenodd" d="M74.875 15.125C75.5417 15.125 76.2083 15.125 76.875 15.125C74.5138 15.5479 72.097 15.7146 69.625 15.625C71.3292 15.3586 73.0792 15.192 74.875 15.125Z" fill="#C4C4C4"/>
<path fill-rule="evenodd" clip-rule="evenodd" d="M65.375 15.875C56.4315 16.7462 47.4315 17.2462 38.375 17.375C47.3368 16.8891 56.3368 16.3891 65.375 15.875Z" fill="#B5B5B5"/>
<path fill-rule="evenodd" clip-rule="evenodd" d="M257.625 16.375C258.31 16.8098 258.81 17.3931 259.125 18.125C258.37 17.7506 257.87 17.1673 257.625 16.375Z" fill="#9C9C9C"/>
<path fill-rule="evenodd" clip-rule="evenodd" d="M34.125 17.875C32.9327 18.2223 31.6827 18.3889 30.375 18.375C31.5585 17.9639 32.8085 17.7972 34.125 17.875Z" fill="#B9B9B9"/>
<path fill-rule="evenodd" clip-rule="evenodd" d="M26.625 20.625C26.1903 21.3107 25.6068 21.8107 24.875 22.125C25.3097 21.4393 25.8932 20.9393 26.625 20.625Z" fill="#ADADAD"/>
<path opacity="0.031" fill-rule="evenodd" clip-rule="evenodd" d="M246.625 6.125C246.958 6.125 247.292 6.125 247.625 6.125C253.668 8.2928 258.792 11.7928 263 16.625C264.878 19.3811 266.878 22.0478 269 24.625C271.02 28.0833 273.105 31.5 275.25 34.875C276.597 37.9867 277.39 41.2368 277.625 44.625C278.005 47.394 278.173 50.1855 278.125 53C278.125 55.0018 278.042 56.9603 277.875 58.875C277.917 55.0407 277.875 51.2075 277.75 47.375C277.04 44.492 276.458 41.5752 276 38.625C275.718 37.3972 275.3 36.2305 274.75 35.125C272.833 31.9583 270.917 28.7917 269 25.625C266.655 22.6957 264.405 19.6957 262.25 16.625C257.868 11.8632 252.66 8.36315 246.625 6.125Z" fill="#DDDDDD"/>
<path fill-rule="evenodd" clip-rule="evenodd" d="M24.875 22.125C24.2917 22.875 23.625 23.5417 22.875 24.125C23.2917 23.2083 23.9583 22.5417 24.875 22.125Z" fill="#A6A6A6"/>
<path opacity="0.549" fill-rule="evenodd" clip-rule="evenodd" d="M18.875 23.875C18.8933 24.2567 18.7266 24.5067 18.375 24.625C18.3568 24.2433 18.5234 23.9933 18.875 23.875Z" fill="#717171"/>
<path fill-rule="evenodd" clip-rule="evenodd" d="M263.875 24.625C264.397 24.8961 264.73 25.3127 264.875 25.875C264.353 25.6037 264.02 25.1873 263.875 24.625Z" fill="#ACACAC"/>
<path fill-rule="evenodd" clip-rule="evenodd" d="M22.875 24.125C22.4388 25.7495 21.6888 27.166 20.625 28.375C21.1849 26.8375 21.9349 25.421 22.875 24.125Z" fill="#C2C2C2"/>
<path opacity="0.49" fill-rule="evenodd" clip-rule="evenodd" d="M16.875 28.125C16.8933 28.5067 16.7266 28.7567 16.375 28.875C16.3568 28.4933 16.5234 28.2432 16.875 28.125Z" fill="#787878"/>
<path fill-rule="evenodd" clip-rule="evenodd" d="M20.625 28.375C20.2541 29.6193 19.8791 30.8693 19.5 32.125C19.4058 32.4855 19.1975 32.7355 18.875 32.875C19.1643 31.2565 19.7476 29.7565 20.625 28.375Z" fill="#A9A9A9"/>
<path opacity="0.733" fill-rule="evenodd" clip-rule="evenodd" d="M15.625 31.375C15.5691 32.2905 15.3192 33.1237 14.875 33.875C14.9308 32.9595 15.1808 32.1263 15.625 31.375Z" fill="#656565"/>
<path fill-rule="evenodd" clip-rule="evenodd" d="M269.625 33.625C269.978 33.7432 270.143 33.9933 270.125 34.375C269.773 34.2567 269.608 34.0067 269.625 33.625Z" fill="#8A8A8A"/>
<path fill-rule="evenodd" clip-rule="evenodd" d="M18.875 33.125C18.9506 34.1975 18.7839 35.1975 18.375 36.125C18.2994 35.0525 18.4661 34.0525 18.875 33.125Z" fill="#B1B1B1"/>
<path fill-rule="evenodd" clip-rule="evenodd" d="M18.375 36.125C18.3584 37.5167 18.1917 38.8917 17.875 40.25C17.9033 40.6747 17.7367 40.9665 17.375 41.125C17.6181 39.4093 17.9514 37.7428 18.375 36.125Z" fill="#AFAFAF"/>
<path fill-rule="evenodd" clip-rule="evenodd" d="M272.125 37.875C272.618 38.521 272.868 39.271 272.875 40.125C272.423 39.4638 272.172 38.7138 272.125 37.875Z" fill="#888888"/>
<path opacity="0.01" fill-rule="evenodd" clip-rule="evenodd" d="M12.625 42.375C12.5435 44.5043 12.6268 46.5875 12.875 48.625C12.875 48.7917 12.875 48.9583 12.875 49.125C12.8293 53.2122 12.9126 57.2955 13.125 61.375C12.7687 60.5243 12.5604 59.6075 12.5 58.625C12.4065 54.5823 12.2815 50.5405 12.125 46.5C12.0778 45.062 12.2445 43.687 12.625 42.375Z" fill="#F9F9F9"/>
<path fill-rule="evenodd" clip-rule="evenodd" d="M272.875 40.625C273.26 41.9015 273.51 43.2348 273.625 44.625C273.06 43.3818 272.81 42.0485 272.875 40.625Z" fill="#8F8F8F"/>
<path opacity="0.01" fill-rule="evenodd" clip-rule="evenodd" d="M277.625 44.625C277.94 45.3145 278.147 46.0645 278.25 46.875C278.408 50.9598 278.49 55.0433 278.5 59.125C278.403 59.776 278.195 60.3595 277.875 60.875C277.875 60.2917 277.875 59.7083 277.875 59.125C277.875 59.0417 277.875 58.9583 277.875 58.875C278.043 56.9602 278.125 55.0017 278.125 53C278.173 50.1855 278.005 47.394 277.625 44.625Z" fill="#FAFAFA"/>
<path opacity="0.27" fill-rule="evenodd" clip-rule="evenodd" d="M12.875 49.125C13.0827 52.165 13.2077 55.2483 13.25 58.375C13.4429 59.7137 13.6512 61.047 13.875 62.375C13.5357 62.1025 13.2857 61.769 13.125 61.375C12.9126 57.2955 12.8293 53.2123 12.875 49.125Z" fill="#B5B5B5"/>
<path fill-rule="evenodd" clip-rule="evenodd" d="M274.125 47.125C274.4 51.0835 274.525 55.0835 274.5 59.125C274.288 60.097 273.998 61.0138 273.625 61.875C274.09 56.9762 274.257 52.0598 274.125 47.125Z" fill="#C1C1C1"/>
<path opacity="0.122" fill-rule="evenodd" clip-rule="evenodd" d="M277.125 62.125C277.207 62.8727 276.957 63.456 276.375 63.875C276.483 63.2107 276.732 62.6273 277.125 62.125Z" fill="#A2A2A2"/>
<path fill-rule="evenodd" clip-rule="evenodd" d="M17.875 62.625C18.0554 62.7295 18.1804 62.896 18.25 63.125C18.3744 63.7865 18.416 64.4532 18.375 65.125C18.1048 64.3433 17.9382 63.51 17.875 62.625Z" fill="#929292"/>
<path opacity="0.067" fill-rule="evenodd" clip-rule="evenodd" d="M13.875 62.375C14.4347 63.6205 14.6847 64.954 14.625 66.375C14.0653 65.1295 13.8153 63.796 13.875 62.375Z" fill="#B8B8B8"/>
<path fill-rule="evenodd" clip-rule="evenodd" d="M18.625 66.875C18.7793 66.9028 18.9043 66.986 19 67.125C19.0611 68.4922 19.2695 69.8255 19.625 71.125C18.9888 69.8138 18.6555 68.3973 18.625 66.875Z" fill="#BEBEBE"/>
<path opacity="0.208" fill-rule="evenodd" clip-rule="evenodd" d="M14.625 66.375C14.9723 67.5673 15.1389 68.8173 15.125 70.125C14.7778 68.9327 14.6111 67.6827 14.625 66.375Z" fill="#A4A4A4"/>
<path fill-rule="evenodd" clip-rule="evenodd" d="M266.875 69.375C266.623 69.6685 266.287 69.835 265.875 69.875C266.073 69.474 266.405 69.3073 266.875 69.375Z" fill="#737373"/>
<path opacity="0.012" fill-rule="evenodd" clip-rule="evenodd" d="M277.875 59.125C277.875 59.7082 277.875 60.2917 277.875 60.875C277.445 63.2492 276.528 65.416 275.125 67.375C272.952 68.7948 270.87 70.3365 268.875 72C264.673 73.9882 260.255 75.2383 255.625 75.75C252.785 76.0007 249.953 76.2925 247.125 76.625C247.375 76.4583 247.625 76.2917 247.875 76.125C250.928 75.544 254.01 75.169 257.125 75C260.84 74.3425 264.423 73.259 267.875 71.75C269.958 70.3333 272.042 68.9167 274.125 67.5C275.097 66.4315 275.847 65.2232 276.375 63.875C276.958 63.456 277.208 62.8728 277.125 62.125C277.243 61.0668 277.493 60.0667 277.875 59.125Z" fill="#D5D5D5"/>
<path opacity="0.333" fill-rule="evenodd" clip-rule="evenodd" d="M15.125 70.125C15.5511 70.9847 15.8844 71.9013 16.125 72.875C15.5026 72.0935 15.1693 71.177 15.125 70.125Z" fill="#858585"/>
<path fill-rule="evenodd" clip-rule="evenodd" d="M259.625 71.875C259.122 72.231 258.538 72.3975 257.875 72.375C258.377 72.019 258.962 71.8525 259.625 71.875Z" fill="#555555"/>
<path fill-rule="evenodd" clip-rule="evenodd" d="M257.375 72.375C256.872 72.731 256.288 72.8975 255.625 72.875C256.127 72.519 256.712 72.3525 257.375 72.375Z" fill="#555555"/>
<path fill-rule="evenodd" clip-rule="evenodd" d="M252.875 73.125C251.682 73.4723 250.433 73.639 249.125 73.625C250.317 73.2778 251.568 73.111 252.875 73.125Z" fill="#383838"/>
<path fill-rule="evenodd" clip-rule="evenodd" d="M21.875 73.625C22.4372 73.77 22.8539 74.1033 23.125 74.625C22.5628 74.48 22.1461 74.1467 21.875 73.625Z" fill="#AFAFAF"/>
<path fill-rule="evenodd" clip-rule="evenodd" d="M23.125 74.625C23.6872 74.77 24.1039 75.1033 24.375 75.625C23.8128 75.48 23.3961 75.1467 23.125 74.625Z" fill="#B0B0B0"/>
<path fill-rule="evenodd" clip-rule="evenodd" d="M226.125 75.125C222.091 75.5698 218.008 75.8198 213.875 75.875C217.911 75.4618 221.994 75.2118 226.125 75.125Z" fill="#2D2D2D"/>
<path fill-rule="evenodd" clip-rule="evenodd" d="M24.375 75.625C34.4552 75.8215 44.5387 75.9465 54.625 76C55.921 76.0435 57.171 76.1685 58.375 76.375C47.3765 76.1898 36.3765 76.0648 25.375 76C24.9855 75.9475 24.6521 75.8225 24.375 75.625Z" fill="#D0D0D0"/>
<path opacity="0.094" fill-rule="evenodd" clip-rule="evenodd" d="M247.875 76.125C247.625 76.2917 247.375 76.4582 247.125 76.625C245.792 76.625 244.458 76.625 243.125 76.625C244.66 76.341 246.243 76.1742 247.875 76.125Z" fill="#A9A9A9"/>
<path opacity="0.129" fill-rule="evenodd" clip-rule="evenodd" d="M242.375 76.625C240.206 76.8512 238.04 77.1012 235.875 77.375C235.625 77.375 235.375 77.375 235.125 77.375C233.042 77.375 230.958 77.375 228.875 77.375C233.332 77.0335 237.832 76.7835 242.375 76.625Z" fill="#B8B8B8"/>
<path opacity="0.01" fill-rule="evenodd" clip-rule="evenodd" d="M242.375 76.625C242.625 76.625 242.875 76.625 243.125 76.625C244.458 76.625 245.792 76.625 247.125 76.625C243.426 77.063 239.676 77.313 235.875 77.375C238.039 77.1012 240.206 76.8512 242.375 76.625Z" fill="#F7F7F7"/>
<path opacity="0.059" fill-rule="evenodd" clip-rule="evenodd" d="M228.875 77.375C230.958 77.375 233.042 77.375 235.125 77.375C225.254 78.0907 215.337 78.674 205.375 79.125C202.375 79.125 199.375 79.125 196.375 79.125C196.375 79.0417 196.375 78.9583 196.375 78.875C207.22 78.617 218.053 78.117 228.875 77.375Z" fill="#DDDDDD"/>
<path opacity="0.545" fill-rule="evenodd" clip-rule="evenodd" d="M22.125 78.125C22.5067 78.1068 22.7567 78.2735 22.875 78.625C22.4933 78.6433 22.2433 78.4765 22.125 78.125Z" fill="#6F6F6F"/>
<path opacity="0.185" fill-rule="evenodd" clip-rule="evenodd" d="M196.375 78.875C196.375 78.9582 196.375 79.0417 196.375 79.125C158.457 79.0485 120.54 79.1317 82.625 79.375C83.9963 79.1682 85.413 79.0432 86.875 79C123.375 78.875 159.875 78.8332 196.375 78.875Z" fill="#B4B4B4"/>
<path opacity="0.014" fill-rule="evenodd" clip-rule="evenodd" d="M13.125 61.375C13.2857 61.769 13.5357 62.1025 13.875 62.375C13.8153 63.796 14.0653 65.1295 14.625 66.375C14.6111 67.6827 14.7778 68.9327 15.125 70.125C15.1693 71.177 15.5026 72.0935 16.125 72.875C17.6035 75.2013 19.6035 76.9513 22.125 78.125C22.2433 78.4765 22.4933 78.6432 22.875 78.625C23.3704 78.7488 23.8704 78.8738 24.375 79C31.6667 79.0833 38.9583 79.0417 46.25 78.875C58.3698 79.2862 70.4948 79.453 82.625 79.375C120.54 79.1318 158.457 79.0485 196.375 79.125C199.375 79.125 202.375 79.125 205.375 79.125C196.836 79.495 188.253 79.6618 179.625 79.625C143.581 79.2097 107.539 79.293 71.5 79.875C63.2875 79.8568 55.079 79.69 46.875 79.375C39.707 79.5395 32.5405 79.6645 25.375 79.75C23.9427 79.642 22.6094 79.2255 21.375 78.5C19.3113 77.3655 17.5196 75.9073 16 74.125C15.5148 73.238 15.0982 72.3215 14.75 71.375C14.2428 68.0328 13.7012 64.6992 13.125 61.375Z" fill="#EEEEEE"/>
<path d="M83.2876 41.6378C83.2308 41.0649 82.987 40.6198 82.5561 40.3026C82.1252 39.9853 81.5405 39.8267 80.8018 39.8267C80.3 39.8267 79.8762 39.8977 79.5305 40.0398C79.1849 40.1771 78.9197 40.3688 78.7351 40.6151C78.5552 40.8613 78.4652 41.1406 78.4652 41.4531C78.4557 41.7135 78.5102 41.9408 78.6286 42.1349C78.7517 42.3291 78.9197 42.4972 79.1328 42.6392C79.3459 42.7765 79.5921 42.8973 79.8714 43.0014C80.1508 43.1009 80.4491 43.1861 80.7663 43.2571L82.0732 43.5696C82.7076 43.7116 83.29 43.901 83.8203 44.1378C84.3506 44.3745 84.8099 44.6657 85.1982 45.0114C85.5864 45.357 85.8871 45.7642 86.1001 46.233C86.3179 46.7017 86.4292 47.2391 86.4339 47.8452C86.4292 48.7353 86.2019 49.5071 85.7521 50.1605C85.3071 50.8092 84.6631 51.3134 83.8203 51.6733C82.9822 52.0284 81.9714 52.206 80.7876 52.206C79.6134 52.206 78.5907 52.026 77.7195 51.6662C76.853 51.3063 76.1759 50.7737 75.6882 50.0682C75.2053 49.358 74.9519 48.4796 74.9283 47.4332H77.9041C77.9373 47.9209 78.0769 48.3281 78.3232 48.6548C78.5741 48.9768 78.9079 49.2206 79.3246 49.3864C79.746 49.5473 80.2218 49.6278 80.7521 49.6278C81.273 49.6278 81.7251 49.5521 82.1087 49.4006C82.4969 49.2491 82.7976 49.0384 83.0107 48.7685C83.2237 48.4986 83.3303 48.1884 83.3303 47.8381C83.3303 47.5114 83.2332 47.2367 83.0391 47.0142C82.8497 46.7917 82.5703 46.6023 82.201 46.446C81.8364 46.2898 81.389 46.1477 80.8587 46.0199L79.2749 45.6222C78.0485 45.3239 77.0803 44.8575 76.37 44.223C75.6598 43.5885 75.3071 42.7339 75.3118 41.6591C75.3071 40.7784 75.5414 40.009 76.0149 39.3509C76.4931 38.6927 77.1489 38.179 77.9822 37.8097C78.8156 37.4403 79.7625 37.2557 80.8232 37.2557C81.9027 37.2557 82.8449 37.4403 83.6499 37.8097C84.4595 38.179 85.0893 38.6927 85.5391 39.3509C85.9889 40.009 86.2209 40.7713 86.2351 41.6378H83.2876ZM94.2482 41.0909V43.3636H87.6786V41.0909H94.2482ZM89.1701 38.4773H92.1957V48.6477C92.1957 48.9271 92.2383 49.1449 92.3235 49.3011C92.4087 49.4527 92.5271 49.5592 92.6786 49.6207C92.8349 49.6823 93.0148 49.7131 93.2184 49.7131C93.3604 49.7131 93.5025 49.7012 93.6445 49.6776C93.7866 49.6491 93.8955 49.6278 93.9712 49.6136L94.4471 51.8651C94.2956 51.9124 94.0825 51.9669 93.8079 52.0284C93.5333 52.0947 93.1995 52.1349 92.8065 52.1491C92.0773 52.1776 91.4381 52.0805 90.8888 51.858C90.3443 51.6354 89.9206 51.2898 89.6175 50.821C89.3145 50.3523 89.1654 49.7604 89.1701 49.0455V38.4773ZM99.3299 52.206C98.6339 52.206 98.0136 52.0852 97.4691 51.8438C96.9246 51.5975 96.4937 51.2353 96.1765 50.7571C95.864 50.2741 95.7077 49.6728 95.7077 48.9531C95.7077 48.3471 95.819 47.8381 96.0415 47.4261C96.2641 47.0142 96.5671 46.6828 96.9506 46.4318C97.3342 46.1809 97.7698 45.9915 98.2575 45.8636C98.7499 45.7358 99.266 45.6458 99.8058 45.5938C100.44 45.5275 100.952 45.4659 101.34 45.4091C101.728 45.3475 102.01 45.2576 102.185 45.1392C102.36 45.0208 102.448 44.8456 102.448 44.6136V44.571C102.448 44.1212 102.306 43.7732 102.022 43.527C101.742 43.2808 101.345 43.1577 100.828 43.1577C100.284 43.1577 99.8507 43.2784 99.5288 43.5199C99.2068 43.7566 98.9937 44.0549 98.8896 44.4148L96.0913 44.1875C96.2333 43.5246 96.5127 42.9517 96.9293 42.4688C97.346 41.9811 97.8834 41.607 98.5415 41.3466C99.2044 41.0814 99.9715 40.9489 100.843 40.9489C101.449 40.9489 102.029 41.0199 102.583 41.1619C103.141 41.304 103.636 41.5241 104.067 41.8224C104.503 42.1207 104.846 42.5043 105.097 42.973C105.348 43.437 105.473 43.9934 105.473 44.642V52H102.604V50.4872H102.519C102.344 50.8281 102.109 51.1288 101.816 51.3892C101.522 51.6449 101.169 51.8461 100.757 51.9929C100.346 52.1349 99.8697 52.206 99.3299 52.206ZM100.196 50.1179C100.641 50.1179 101.034 50.0303 101.375 49.8551C101.716 49.6752 101.984 49.4337 102.178 49.1307C102.372 48.8277 102.469 48.4844 102.469 48.1009V46.9432C102.374 47.0047 102.244 47.0616 102.078 47.1136C101.917 47.161 101.735 47.206 101.532 47.2486C101.328 47.2865 101.124 47.322 100.921 47.3551C100.717 47.3835 100.533 47.4096 100.367 47.4332C100.012 47.4853 99.7016 47.5682 99.4364 47.6818C99.1713 47.7955 98.9653 47.9493 98.8185 48.1435C98.6718 48.3329 98.5984 48.5696 98.5984 48.8537C98.5984 49.2656 98.7475 49.5805 99.0458 49.7983C99.3488 50.0114 99.7324 50.1179 100.196 50.1179ZM107.821 52V41.0909H110.754V42.9943H110.868C111.066 42.3172 111.4 41.8059 111.869 41.4602C112.338 41.1098 112.877 40.9347 113.488 40.9347C113.64 40.9347 113.803 40.9441 113.978 40.9631C114.154 40.982 114.307 41.008 114.44 41.0412V43.7259C114.298 43.6832 114.101 43.6454 113.85 43.6122C113.6 43.5791 113.37 43.5625 113.162 43.5625C112.717 43.5625 112.319 43.6596 111.968 43.8537C111.623 44.0431 111.348 44.3082 111.145 44.6491C110.946 44.9901 110.846 45.383 110.846 45.8281V52H107.821ZM122.354 41.0909V43.3636H115.784V41.0909H122.354ZM117.276 38.4773H120.301V48.6477C120.301 48.9271 120.344 49.1449 120.429 49.3011C120.514 49.4527 120.633 49.5592 120.784 49.6207C120.94 49.6823 121.12 49.7131 121.324 49.7131C121.466 49.7131 121.608 49.7012 121.75 49.6776C121.892 49.6491 122.001 49.6278 122.077 49.6136L122.553 51.8651C122.401 51.9124 122.188 51.9669 121.913 52.0284C121.639 52.0947 121.305 52.1349 120.912 52.1491C120.183 52.1776 119.544 52.0805 118.994 51.858C118.45 51.6354 118.026 51.2898 117.723 50.821C117.42 50.3523 117.271 49.7604 117.276 49.0455V38.4773ZM129.01 52V37.4545H138.641V39.9901H132.086V43.456H138.002V45.9915H132.086V52H129.01ZM144.781 52.2131C143.678 52.2131 142.724 51.9787 141.919 51.5099C141.118 51.0365 140.501 50.3783 140.065 49.5355C139.629 48.688 139.412 47.7055 139.412 46.5881C139.412 45.4612 139.629 44.4763 140.065 43.6335C140.501 42.786 141.118 42.1278 141.919 41.6591C142.724 41.1856 143.678 40.9489 144.781 40.9489C145.884 40.9489 146.836 41.1856 147.636 41.6591C148.441 42.1278 149.061 42.786 149.497 43.6335C149.932 44.4763 150.15 45.4612 150.15 46.5881C150.15 47.7055 149.932 48.688 149.497 49.5355C149.061 50.3783 148.441 51.0365 147.636 51.5099C146.836 51.9787 145.884 52.2131 144.781 52.2131ZM144.795 49.8693C145.297 49.8693 145.716 49.7273 146.052 49.4432C146.388 49.1544 146.642 48.7614 146.812 48.2642C146.987 47.767 147.075 47.2012 147.075 46.5668C147.075 45.9323 146.987 45.3665 146.812 44.8693C146.642 44.3722 146.388 43.9792 146.052 43.6903C145.716 43.4015 145.297 43.2571 144.795 43.2571C144.288 43.2571 143.862 43.4015 143.517 43.6903C143.176 43.9792 142.918 44.3722 142.743 44.8693C142.572 45.3665 142.487 45.9323 142.487 46.5668C142.487 47.2012 142.572 47.767 142.743 48.2642C142.918 48.7614 143.176 49.1544 143.517 49.4432C143.862 49.7273 144.288 49.8693 144.795 49.8693ZM157.047 52.2131C155.929 52.2131 154.968 51.9763 154.163 51.5028C153.363 51.0246 152.747 50.3617 152.316 49.5142C151.89 48.6667 151.677 47.6913 151.677 46.5881C151.677 45.4706 151.893 44.4905 152.324 43.6477C152.759 42.8002 153.377 42.1397 154.177 41.6662C154.977 41.188 155.929 40.9489 157.032 40.9489C157.984 40.9489 158.817 41.1217 159.532 41.4673C160.247 41.813 160.813 42.2983 161.23 42.9233C161.646 43.5483 161.876 44.2822 161.919 45.125H159.064C158.983 44.5805 158.77 44.1425 158.424 43.8111C158.083 43.4749 157.636 43.3068 157.082 43.3068C156.613 43.3068 156.204 43.4347 155.853 43.6903C155.508 43.9413 155.238 44.3082 155.044 44.7912C154.85 45.2741 154.752 45.8589 154.752 46.5455C154.752 47.2415 154.847 47.8333 155.037 48.321C155.231 48.8087 155.503 49.1804 155.853 49.4361C156.204 49.6918 156.613 49.8196 157.082 49.8196C157.428 49.8196 157.738 49.7486 158.012 49.6065C158.292 49.4645 158.521 49.2585 158.701 48.9886C158.886 48.714 159.007 48.3849 159.064 48.0014H161.919C161.871 48.8348 161.644 49.5687 161.237 50.2031C160.834 50.8329 160.278 51.3253 159.568 51.6804C158.858 52.0355 158.017 52.2131 157.047 52.2131ZM170.852 47.3551V41.0909H173.877V52H170.972V50.0185H170.859C170.612 50.6577 170.203 51.1714 169.63 51.5597C169.062 51.9479 168.368 52.142 167.549 52.142C166.82 52.142 166.178 51.9763 165.624 51.6449C165.07 51.3134 164.637 50.8423 164.325 50.2315C164.017 49.6207 163.861 48.8892 163.856 48.0369V41.0909H166.881V47.4972C166.886 48.1411 167.059 48.6501 167.4 49.0241C167.741 49.3982 168.198 49.5852 168.771 49.5852C169.135 49.5852 169.476 49.5024 169.793 49.3366C170.111 49.1662 170.366 48.9152 170.56 48.5838C170.759 48.2524 170.856 47.8428 170.852 47.3551ZM185.374 44.2017L182.604 44.3722C182.557 44.1354 182.455 43.9223 182.299 43.733C182.142 43.5388 181.936 43.3849 181.681 43.2713C181.43 43.1529 181.129 43.0938 180.779 43.0938C180.31 43.0938 179.915 43.1932 179.593 43.392C179.271 43.5862 179.11 43.8466 179.11 44.1733C179.11 44.4337 179.214 44.6539 179.422 44.8338C179.631 45.0137 179.988 45.1581 180.495 45.267L182.469 45.6648C183.53 45.8826 184.32 46.233 184.841 46.7159C185.362 47.1989 185.623 47.8333 185.623 48.6193C185.623 49.3343 185.412 49.9616 184.99 50.5014C184.574 51.0412 184.001 51.4626 183.272 51.7656C182.547 52.0639 181.712 52.2131 180.765 52.2131C179.32 52.2131 178.17 51.9124 177.313 51.3111C176.461 50.705 175.961 49.8812 175.814 48.8395L178.79 48.6832C178.88 49.1236 179.098 49.4598 179.444 49.6918C179.789 49.919 180.232 50.0327 180.772 50.0327C181.302 50.0327 181.728 49.9309 182.05 49.7273C182.377 49.5189 182.542 49.2514 182.547 48.9247C182.542 48.6501 182.426 48.4252 182.199 48.25C181.972 48.0701 181.622 47.9328 181.148 47.8381L179.259 47.4616C178.194 47.2486 177.4 46.8793 176.88 46.3537C176.364 45.8281 176.105 45.1581 176.105 44.3438C176.105 43.643 176.295 43.0393 176.674 42.5327C177.057 42.026 177.595 41.6354 178.286 41.3608C178.982 41.0862 179.796 40.9489 180.729 40.9489C182.107 40.9489 183.191 41.2401 183.982 41.8224C184.777 42.4048 185.241 43.1979 185.374 44.2017ZM187.528 52V41.0909H190.553V52H187.528ZM189.048 39.6847C188.598 39.6847 188.212 39.5355 187.89 39.2372C187.573 38.9342 187.414 38.572 187.414 38.1506C187.414 37.7339 187.573 37.3764 187.89 37.0781C188.212 36.7751 188.598 36.6236 189.048 36.6236C189.497 36.6236 189.881 36.7751 190.198 37.0781C190.52 37.3764 190.681 37.7339 190.681 38.1506C190.681 38.572 190.52 38.9342 190.198 39.2372C189.881 39.5355 189.497 39.6847 189.048 39.6847ZM196.002 45.6932V52H192.977V41.0909H195.86V43.0156H195.988C196.23 42.3812 196.635 41.8793 197.203 41.5099C197.771 41.1359 198.46 40.9489 199.27 40.9489C200.027 40.9489 200.688 41.1146 201.251 41.446C201.815 41.7775 202.252 42.2509 202.565 42.8665C202.877 43.4773 203.034 44.2064 203.034 45.054V52H200.008V45.5938C200.013 44.9261 199.842 44.4053 199.497 44.0312C199.151 43.6525 198.675 43.4631 198.069 43.4631C197.662 43.4631 197.302 43.5507 196.99 43.7259C196.682 43.901 196.44 44.1567 196.265 44.4929C196.095 44.8243 196.007 45.2244 196.002 45.6932ZM210.333 56.3182C209.353 56.3182 208.513 56.1832 207.812 55.9134C207.116 55.6482 206.562 55.286 206.15 54.8267C205.738 54.3674 205.47 53.8513 205.347 53.2784L208.146 52.902C208.231 53.1198 208.366 53.3234 208.55 53.5128C208.735 53.7022 208.979 53.8537 209.282 53.9673C209.59 54.0857 209.964 54.1449 210.404 54.1449C211.062 54.1449 211.604 53.9839 212.031 53.6619C212.461 53.3447 212.677 52.812 212.677 52.0639V50.0682H212.549C212.416 50.3712 212.218 50.6577 211.952 50.9276C211.687 51.1974 211.346 51.4176 210.93 51.5881C210.513 51.7585 210.016 51.8438 209.438 51.8438C208.619 51.8438 207.873 51.6544 207.201 51.2756C206.533 50.892 206.001 50.3073 205.603 49.5213C205.21 48.7306 205.013 47.7315 205.013 46.5241C205.013 45.2884 205.215 44.2562 205.617 43.4276C206.02 42.599 206.555 41.9787 207.222 41.5668C207.895 41.1548 208.631 40.9489 209.431 40.9489C210.042 40.9489 210.553 41.053 210.965 41.2614C211.377 41.465 211.709 41.7206 211.96 42.0284C212.215 42.3314 212.412 42.6297 212.549 42.9233H212.663V41.0909H215.667V52.1065C215.667 53.0346 215.44 53.8111 214.985 54.4361C214.531 55.0611 213.901 55.5298 213.096 55.8423C212.296 56.1596 211.375 56.3182 210.333 56.3182ZM210.397 49.571C210.885 49.571 211.297 49.4503 211.633 49.2088C211.974 48.9626 212.234 48.6122 212.414 48.1577C212.599 47.6984 212.691 47.1491 212.691 46.5099C212.691 45.8707 212.601 45.3168 212.421 44.848C212.241 44.3745 211.981 44.0076 211.64 43.7472C211.299 43.4867 210.885 43.3565 210.397 43.3565C209.9 43.3565 209.481 43.4915 209.14 43.7614C208.799 44.0265 208.541 44.3958 208.366 44.8693C208.191 45.3428 208.103 45.8897 208.103 46.5099C208.103 47.1397 208.191 47.6842 208.366 48.1435C208.546 48.598 208.804 48.9508 209.14 49.2017C209.481 49.4479 209.9 49.571 210.397 49.571Z" fill="black"/>
</svg>
