<?xml version="1.0" encoding="UTF-8"?>
<!DOCTYPE svg PUBLIC "-//W3C//DTD SVG 1.1//EN" "http://www.w3.org/Graphics/SVG/1.1/DTD/svg11.dtd">
<svg xmlns="http://www.w3.org/2000/svg" version="1.1" width="384px" height="426px" style="shape-rendering:geometricPrecision; text-rendering:geometricPrecision; image-rendering:optimizeQuality; fill-rule:evenodd; clip-rule:evenodd" xmlns:xlink="http://www.w3.org/1999/xlink">
<g><path style="opacity:0.373" fill="#b1b1b1" d="M 218.5,70.5 C 221.833,70.5 225.167,70.5 228.5,70.5C 208.672,71.5492 188.672,72.2159 168.5,72.5C 165.167,72.5 161.833,72.5 158.5,72.5C 178.32,71.1727 198.32,70.506 218.5,70.5 Z"/></g>
<g><path style="opacity:1" fill="#0a0a08" d="M 228.5,70.5 C 235.508,70.3337 242.508,70.5004 249.5,71C 250.416,71.3742 251.25,71.8742 252,72.5C 277.606,117.373 301.94,163.04 325,209.5C 326.792,212.618 327.458,215.951 327,219.5C 320.834,220.829 316.668,224.496 314.5,230.5C 319.287,239.569 323.621,248.736 327.5,258C 327.561,259.711 326.894,261.044 325.5,262C 318.019,263.275 314.685,267.442 315.5,274.5C 319.008,280.182 322.008,286.182 324.5,292.5C 324.427,294.027 325.094,295.027 326.5,295.5C 327.338,295.842 327.672,296.508 327.5,297.5C 327.552,299.903 327.219,302.236 326.5,304.5C 320.846,307.443 317.346,312.11 316,318.5C 315.718,322.039 315.218,325.539 314.5,329C 315.348,330.666 316.348,332.166 317.5,333.5C 317.685,335.196 318.519,336.529 320,337.5C 320.758,339.769 320.591,341.936 319.5,344C 303.157,344.338 286.824,344.838 270.5,345.5C 242.992,346.047 215.659,347.047 188.5,348.5C 162.985,348.349 137.652,349.015 112.5,350.5C 109.309,350.238 106.642,348.905 104.5,346.5C 81.785,297.738 59.6183,248.738 38,199.5C 37.5006,193.843 37.3339,188.176 37.5,182.5C 37.9049,179.285 38.9049,176.285 40.5,173.5C 40.8621,167.409 39.0287,161.742 35,156.5C 34.51,155.207 34.3433,153.873 34.5,152.5C 34.2319,146.044 34.8986,139.711 36.5,133.5C 36.5569,132.391 36.8902,131.391 37.5,130.5C 38.4793,129.235 39.4793,127.901 40.5,126.5C 39.1939,122.554 37.3606,118.888 35,115.5C 34.51,114.207 34.3433,112.873 34.5,111.5C 34.2319,105.044 34.8986,98.7107 36.5,92.5C 37.0722,90.7446 37.9055,89.0779 39,87.5C 42.0657,84.6043 44.8991,81.6043 47.5,78.5C 57.1392,77.4723 66.8058,76.8056 76.5,76.5C 107.331,75.3344 137.998,74.0011 168.5,72.5C 188.672,72.2159 208.672,71.5492 228.5,70.5 Z"/></g>
<g><path style="opacity:0.455" fill="#9c9c9c" d="M 158.5,72.5 C 161.833,72.5 165.167,72.5 168.5,72.5C 137.998,74.0011 107.331,75.3344 76.5,76.5C 78.2646,75.5386 80.2646,75.2053 82.5,75.5C 107.798,73.7479 133.131,72.7479 158.5,72.5 Z"/></g>
<g><path style="opacity:0.033" fill="#f1f1f1" d="M 82.5,75.5 C 80.2646,75.2053 78.2646,75.5386 76.5,76.5C 66.8058,76.8056 57.1392,77.4723 47.5,78.5C 59.0121,75.2199 70.6788,74.2199 82.5,75.5 Z"/></g>
<g><path style="opacity:1" fill="#274f5d" d="M 250.5,78.5 C 202.179,80.052 153.845,81.052 105.5,81.5C 150.003,80.1033 194.67,78.77 239.5,77.5C 243.349,77.5013 247.016,77.8346 250.5,78.5 Z"/></g>
<g><path style="opacity:1" fill="#3a84a5" d="M 250.5,78.5 C 271.108,123.05 292.775,167.05 315.5,210.5C 310.749,212.141 305.749,213.141 300.5,213.5C 266.189,215.365 231.856,216.698 197.5,217.5C 184.642,217.442 171.975,218.109 159.5,219.5C 147.335,220.117 135.168,220.783 123,221.5C 120.245,221.475 117.578,221.141 115,220.5C 93.0515,174.608 72.2182,128.275 52.5,81.5C 70.1667,81.5 87.8333,81.5 105.5,81.5C 153.845,81.052 202.179,80.052 250.5,78.5 Z"/></g>
<g><path style="opacity:1" fill="#5a86a1" d="M 104.5,233.5 C 102.363,237.961 101.029,242.628 100.5,247.5C 81.7163,202.262 61.5496,157.595 40,113.5C 36.3692,101.968 38.7025,91.9676 47,83.5C 67.1609,130.159 88.1609,176.493 110,222.5C 110.09,225.462 108.757,227.796 106,229.5C 105.209,230.745 104.709,232.078 104.5,233.5 Z"/></g>
<g><path style="opacity:1" fill="#81a2b7" d="M 109.5,88.5 C 128.974,89.8391 136.474,100.172 132,119.5C 127.132,135.348 116.632,141.515 100.5,138C 91.5097,129.567 89.0097,119.4 93,107.5C 96.6461,99.3673 102.146,93.0339 109.5,88.5 Z"/></g>
<g><path style="opacity:0.01" fill="#ededed" d="M 47.5,78.5 C 44.8991,81.6043 42.0657,84.6043 39,87.5C 37.9055,89.0779 37.0722,90.7446 36.5,92.5C 35.3995,94.2774 34.5662,96.2774 34,98.5C 33.501,102.821 33.3343,107.154 33.5,111.5C 29.609,96.9414 34.2757,85.9414 47.5,78.5 Z"/></g>
<g><path style="opacity:1" fill="#799fb5" d="M 139.5,87.5 C 141.117,89.1209 142.284,91.1209 143,93.5C 144.067,94.1905 145.234,94.6905 146.5,95C 144.722,97.1354 144.055,99.6354 144.5,102.5C 143.5,102.5 142.5,102.5 141.5,102.5C 142.015,98.0874 140.015,95.7541 135.5,95.5C 138.893,93.9193 140.227,91.2526 139.5,87.5 Z"/></g>
<g><path style="opacity:1" fill="#81a2b7" d="M 232.5,93.5 C 235.934,98.1802 239.267,103.013 242.5,108C 248.618,112.096 255.285,114.929 262.5,116.5C 260.183,119.317 257.683,121.984 255,124.5C 254.867,133.505 254.867,142.505 255,151.5C 248.678,141.699 241.512,132.532 233.5,124C 225.901,122.345 218.235,121.011 210.5,120C 216.915,116.703 222.749,112.537 228,107.5C 230.957,103.264 232.457,98.5971 232.5,93.5 Z"/></g>
<g><path style="opacity:1" fill="#5690ac" d="M 111.5,96.5 C 118.546,95.38 122.046,98.38 122,105.5C 123.516,102.949 124.349,103.282 124.5,106.5C 121.428,106.817 118.428,106.484 115.5,105.5C 116.485,103.902 116.651,102.235 116,100.5C 114.66,101.868 113.326,103.201 112,104.5C 108.699,104.215 107.365,102.548 108,99.5C 109.518,98.8366 110.685,97.8366 111.5,96.5 Z"/></g>
<g><path style="opacity:0.675" fill="#60605f" d="M 36.5,92.5 C 34.8986,98.7107 34.2319,105.044 34.5,111.5C 34.1667,111.5 33.8333,111.5 33.5,111.5C 33.3343,107.154 33.501,102.821 34,98.5C 34.5662,96.2774 35.3995,94.2774 36.5,92.5 Z"/></g>
<g><path style="opacity:0.114" fill="#cbcbcb" d="M 33.5,111.5 C 33.8333,111.5 34.1667,111.5 34.5,111.5C 34.3433,112.873 34.51,114.207 35,115.5C 37.3606,118.888 39.1939,122.554 40.5,126.5C 39.4793,127.901 38.4793,129.235 37.5,130.5C 37.5,129.833 37.5,129.167 37.5,128.5C 38.4864,124.286 37.3197,120.62 34,117.5C 33.5045,115.527 33.3379,113.527 33.5,111.5 Z"/></g>
<g><path style="opacity:1" fill="#5d93ae" d="M 98.5,112.5 C 101.915,116.087 105.748,119.087 110,121.5C 110.539,124.565 109.539,126.898 107,128.5C 106.055,128.095 105.388,127.428 105,126.5C 103.833,130.667 105.333,132.167 109.5,131C 111.417,128.502 113.084,125.835 114.5,123C 121.227,121.423 122.727,123.257 119,128.5C 111.395,134.359 104.395,133.692 98,126.5C 97.4361,121.806 97.6027,117.14 98.5,112.5 Z"/></g>
<g><path style="opacity:1" fill="#7f9c85" d="M 41.5,130.5 C 60.8338,174.31 80.6672,217.976 101,261.5C 102.683,263.514 104.683,265.18 107,266.5C 105.543,270.626 104.209,274.96 103,279.5C 102.667,283.5 102.333,287.5 102,291.5C 82.6903,245.245 62.0237,199.579 40,154.5C 37.6726,146.265 38.1726,138.265 41.5,130.5 Z"/></g>
<g><path style="opacity:1" fill="#7fa1b6" d="M 203.5,137.5 C 209.533,136.965 215.199,138.132 220.5,141C 224.399,144.447 225.399,148.614 223.5,153.5C 231.297,157.653 237.797,163.32 243,170.5C 243.789,182.053 238.623,189.886 227.5,194C 208.042,203.161 187.708,206.161 166.5,203C 154.863,201.281 146.696,195.114 142,184.5C 140.814,175.909 143.314,168.576 149.5,162.5C 143.182,159.363 140.682,154.363 142,147.5C 150.173,139.081 158.839,138.414 168,145.5C 169.289,148.351 169.789,151.351 169.5,154.5C 157.398,157.156 149.565,164.489 146,176.5C 145.849,185.228 150.016,191.228 158.5,194.5C 158.833,194.167 159.167,193.833 159.5,193.5C 156.53,188.803 156.863,184.47 160.5,180.5C 166.501,174.995 173.501,171.995 181.5,171.5C 181.147,169.365 181.98,168.032 184,167.5C 185.765,168.232 186.932,169.565 187.5,171.5C 188.931,171.023 190.264,170.357 191.5,169.5C 190.262,166.834 190.262,164.168 191.5,161.5C 193.071,160.691 194.738,160.357 196.5,160.5C 196.6,163.667 195.933,166.667 194.5,169.5C 202.615,170.006 210.615,171.172 218.5,173C 219.833,173.667 221.167,174.333 222.5,175C 225.634,178.155 228.634,181.321 231.5,184.5C 237.254,181.302 238.754,176.636 236,170.5C 229.017,162.921 220.517,157.755 210.5,155C 197.338,153.217 184.005,152.217 170.5,152C 171.328,151.085 172.328,150.419 173.5,150C 179.763,148.441 186.096,147.274 192.5,146.5C 193.04,145.252 193.707,144.085 194.5,143C 197.564,141.141 200.564,139.308 203.5,137.5 Z"/></g>
<g><path style="opacity:0.025" fill="#f6f6f6" d="M 37.5,128.5 C 37.5,129.167 37.5,129.833 37.5,130.5C 36.8902,131.391 36.5569,132.391 36.5,133.5C 35.3995,135.277 34.5662,137.277 34,139.5C 33.501,143.821 33.3343,148.154 33.5,152.5C 31.6629,149.481 31.1629,146.148 32,142.5C 32.539,139.471 33.2057,136.471 34,133.5C 34.6972,131.416 35.8639,129.749 37.5,128.5 Z"/></g>
<g><path style="opacity:1" fill="#4288a7" d="M 202.5,143.5 C 206.182,143.335 209.848,143.501 213.5,144C 217.007,145.33 218.673,147.83 218.5,151.5C 211.604,149.918 204.604,149.251 197.5,149.5C 197.351,148.448 197.517,147.448 198,146.5C 199.652,145.601 201.152,144.601 202.5,143.5 Z"/></g>
<g><path style="opacity:0.675" fill="#60605f" d="M 36.5,133.5 C 34.8986,139.711 34.2319,146.044 34.5,152.5C 34.1667,152.5 33.8333,152.5 33.5,152.5C 33.3343,148.154 33.501,143.821 34,139.5C 34.5662,137.277 35.3995,135.277 36.5,133.5 Z"/></g>
<g><path style="opacity:1" fill="#3f87a7" d="M 153.5,146.5 C 158.446,146.14 162.112,148.14 164.5,152.5C 160.407,154.963 156.241,157.296 152,159.5C 145.684,154.269 146.184,149.935 153.5,146.5 Z"/></g>
<g><path style="opacity:1" fill="#779eb4" d="M 103.5,148.5 C 106.467,148.989 109.133,150.155 111.5,152C 110.426,152.739 109.759,153.739 109.5,155C 110.547,156.578 110.547,158.078 109.5,159.5C 107.851,158.352 106.351,157.019 105,155.5C 100.559,157.111 99.8919,156.444 103,153.5C 103.494,151.866 103.66,150.199 103.5,148.5 Z"/></g>
<g><path style="opacity:0.114" fill="#cccccb" d="M 33.5,152.5 C 33.8333,152.5 34.1667,152.5 34.5,152.5C 34.3433,153.873 34.51,155.207 35,156.5C 39.0287,161.742 40.8621,167.409 40.5,173.5C 40.5,172.833 40.5,172.167 40.5,171.5C 38.9974,166.82 36.8308,162.486 34,158.5C 33.5045,156.527 33.3379,154.527 33.5,152.5 Z"/></g>
<g><path style="opacity:1" fill="#80a2b7" d="M 170.5,160.5 C 172.167,160.5 173.833,160.5 175.5,160.5C 175.5,163.5 175.5,166.5 175.5,169.5C 170.034,168.686 168.367,165.686 170.5,160.5 Z"/></g>
<g><path style="opacity:1" fill="#3c86a6" d="M 188.5,173.5 C 197.804,171.932 207.137,172.432 216.5,175C 222.326,177.47 225.826,181.637 227,187.5C 210.759,195.519 193.592,199.352 175.5,199C 171.057,198.472 166.723,197.472 162.5,196C 159.12,189.558 160.12,183.891 165.5,179C 168.661,177.587 171.661,175.92 174.5,174C 177.167,173.333 179.833,173.333 182.5,174C 185.198,176.74 184.531,178.574 180.5,179.5C 175.572,177.398 175.239,178.564 179.5,183C 182.377,183.725 185.043,183.225 187.5,181.5C 191.262,183.09 194.762,182.757 198,180.5C 198.667,178.833 198.667,177.167 198,175.5C 197.439,174.978 196.772,174.645 196,174.5C 192.752,178.685 190.252,178.351 188.5,173.5 Z"/></g>
<g><path style="opacity:1" fill="#e3cb8c" d="M 42.5,176.5 C 44.335,177.122 45.5017,178.456 46,180.5C 63.9684,221.768 82.4684,262.768 101.5,303.5C 104.856,306.608 108.856,308.275 113.5,308.5C 111.476,310.69 109.643,313.023 108,315.5C 106.105,321.34 105.105,327.34 105,333.5C 85.4459,287.721 64.7792,242.387 43,197.5C 41.2178,190.545 41.0511,183.545 42.5,176.5 Z"/></g>
<g><path style="opacity:0.025" fill="#f6f6f6" d="M 40.5,171.5 C 40.5,172.167 40.5,172.833 40.5,173.5C 38.9049,176.285 37.9049,179.285 37.5,182.5C 36.5151,186.634 36.1818,190.968 36.5,195.5C 34.6629,192.481 34.1629,189.148 35,185.5C 35.539,182.471 36.2057,179.471 37,176.5C 37.6972,174.416 38.8639,172.749 40.5,171.5 Z"/></g>
<g><path style="opacity:0.114" fill="#cacaca" d="M 37.5,182.5 C 37.3339,188.176 37.5006,193.843 38,199.5C 59.6183,248.738 81.785,297.738 104.5,346.5C 106.642,348.905 109.309,350.238 112.5,350.5C 111.432,351.434 110.099,351.768 108.5,351.5C 106.771,350.883 105.271,349.883 104,348.5C 80.828,299.827 58.4947,250.827 37,201.5C 36.5045,199.527 36.3379,197.527 36.5,195.5C 36.1818,190.968 36.5151,186.634 37.5,182.5 Z"/></g>
<g><path style="opacity:1" fill="#295565" d="M 315.5,210.5 C 316.404,211.209 316.737,212.209 316.5,213.5C 311.167,213.5 305.833,213.5 300.5,213.5C 305.749,213.141 310.749,212.141 315.5,210.5 Z"/></g>
<g><path style="opacity:1" fill="#24444d" d="M 197.5,217.5 C 185.028,218.952 172.362,219.619 159.5,219.5C 171.975,218.109 184.642,217.442 197.5,217.5 Z"/></g>
<g><path style="opacity:1" fill="#a19587" d="M 315.5,222.5 C 295.841,223.183 276.174,223.516 256.5,223.5C 272.163,222.598 287.997,221.931 304,221.5C 308.59,221.466 312.423,221.8 315.5,222.5 Z"/></g>
<g><path style="opacity:1" fill="#e0d0bc" d="M 315.5,222.5 C 309.566,232.026 307.899,242.36 310.5,253.5C 270.154,254.064 229.821,255.064 189.5,256.5C 165.982,256.838 142.648,257.838 119.5,259.5C 115.5,259.5 111.5,259.5 107.5,259.5C 106.595,255.333 106.595,251.333 107.5,247.5C 108.402,243.245 109.402,238.911 110.5,234.5C 112.233,230.435 115.233,227.768 119.5,226.5C 144.009,226.41 168.343,225.744 192.5,224.5C 213.66,223.503 234.993,223.169 256.5,223.5C 276.174,223.516 295.841,223.183 315.5,222.5 Z"/></g>
<g><path style="opacity:1" fill="#a19687" d="M 192.5,224.5 C 168.343,225.744 144.009,226.41 119.5,226.5C 143.651,225.024 167.985,224.358 192.5,224.5 Z"/></g>
<g><path style="opacity:1" fill="#7b7267" d="M 211.5,231.5 C 237.997,230.336 264.664,230.17 291.5,231C 289.975,232.009 288.308,232.509 286.5,232.5C 261.672,231.502 236.672,231.169 211.5,231.5 Z"/></g>
<g><path style="opacity:1" fill="#4f4941" d="M 211.5,231.5 C 236.672,231.169 261.672,231.502 286.5,232.5C 252.162,232.369 217.829,232.703 183.5,233.5C 175.5,233.333 167.5,233.167 159.5,233C 176.834,232.449 194.167,231.949 211.5,231.5 Z"/></g>
<g><path style="opacity:1" fill="#a5998a" d="M 110.5,234.5 C 109.402,238.911 108.402,243.245 107.5,247.5C 106.965,242.688 107.965,238.355 110.5,234.5 Z"/></g>
<g><path style="opacity:1" fill="#568099" d="M 311.5,237.5 C 314.7,240.866 317.2,244.866 319,249.5C 319.494,251.134 319.66,252.801 319.5,254.5C 317.208,254.756 315.041,254.423 313,253.5C 312.609,248.146 312.109,242.812 311.5,237.5 Z"/></g>
<g><path style="opacity:1" fill="#4d4740" d="M 234.5,243.5 C 236.726,242.441 239.059,242.608 241.5,244C 239.071,244.703 236.738,244.537 234.5,243.5 Z"/></g>
<g><path style="opacity:1" fill="#3a5159" d="M 104.5,233.5 C 103.195,238.736 102.362,244.07 102,249.5C 101.283,248.956 100.783,248.289 100.5,247.5C 101.029,242.628 102.363,237.961 104.5,233.5 Z"/></g>
<g><path style="opacity:0.035" fill="#e1e1e1" d="M 218.5,70.5 C 229.326,69.341 240.326,69.1743 251.5,70C 252.333,70.8333 253.167,71.6667 254,72.5C 280.273,118.707 305.273,165.707 329,213.5C 329.667,215.833 329.667,218.167 329,220.5C 326.181,222.669 323.014,224.169 319.5,225C 318.373,226.753 317.373,228.587 316.5,230.5C 320.427,238.689 324.593,246.689 329,254.5C 329.667,256.833 329.667,259.167 329,261.5C 326.181,263.669 323.014,265.169 319.5,266C 317.754,268.659 316.42,271.492 315.5,274.5C 314.685,267.442 318.019,263.275 325.5,262C 326.894,261.044 327.561,259.711 327.5,258C 323.621,248.736 319.287,239.569 314.5,230.5C 316.668,224.496 320.834,220.829 327,219.5C 327.458,215.951 326.792,212.618 325,209.5C 301.94,163.04 277.606,117.373 252,72.5C 251.25,71.8742 250.416,71.3742 249.5,71C 242.508,70.5004 235.508,70.3337 228.5,70.5C 225.167,70.5 221.833,70.5 218.5,70.5 Z"/></g>
<g><path style="opacity:1" fill="#918679" d="M 189.5,256.5 C 166.358,258.304 143.024,259.304 119.5,259.5C 142.648,257.838 165.982,256.838 189.5,256.5 Z"/></g>
<g><path style="opacity:1" fill="#968b7e" d="M 315.5,263.5 C 275.179,264.844 234.846,265.511 194.5,265.5C 230.829,264.156 267.329,263.156 304,262.5C 308.59,262.466 312.423,262.8 315.5,263.5 Z"/></g>
<g><path style="opacity:1" fill="#e1d0bd" d="M 315.5,263.5 C 309.566,273.026 307.899,283.36 310.5,294.5C 270.154,295.064 229.821,296.064 189.5,297.5C 165.982,297.838 142.648,298.838 119.5,300.5C 115.5,300.5 111.5,300.5 107.5,300.5C 106.595,296.333 106.595,292.333 107.5,288.5C 108.402,284.245 109.402,279.911 110.5,275.5C 112.233,271.435 115.233,268.768 119.5,267.5C 144.014,267.613 168.348,266.946 192.5,265.5C 193.167,265.5 193.833,265.5 194.5,265.5C 234.846,265.511 275.179,264.844 315.5,263.5 Z"/></g>
<g><path style="opacity:1" fill="#a39788" d="M 192.5,265.5 C 168.348,266.946 144.014,267.613 119.5,267.5C 143.649,265.943 167.983,265.276 192.5,265.5 Z"/></g>
<g><path style="opacity:1" fill="#7b7267" d="M 211.5,272.5 C 237.997,271.336 264.664,271.17 291.5,272C 289.975,273.009 288.308,273.509 286.5,273.5C 261.672,272.502 236.672,272.169 211.5,272.5 Z"/></g>
<g><path style="opacity:1" fill="#4f4941" d="M 211.5,272.5 C 236.672,272.169 261.672,272.502 286.5,273.5C 252.162,273.369 217.829,273.703 183.5,274.5C 175.5,274.333 167.5,274.167 159.5,274C 176.834,273.449 194.167,272.949 211.5,272.5 Z"/></g>
<g><path style="opacity:1" fill="#a5998a" d="M 110.5,275.5 C 109.402,279.911 108.402,284.245 107.5,288.5C 106.965,283.688 107.965,279.355 110.5,275.5 Z"/></g>
<g><path style="opacity:1" fill="#4d4740" d="M 234.5,284.5 C 236.726,283.441 239.059,283.608 241.5,285C 239.071,285.703 236.738,285.537 234.5,284.5 Z"/></g>
<g><path style="opacity:1" fill="#5e8370" d="M 312.5,285.5 C 314.897,288.309 316.23,291.642 316.5,295.5C 315.178,295.67 314.011,295.337 313,294.5C 312.502,291.518 312.335,288.518 312.5,285.5 Z"/></g>
<g><path style="opacity:0.165" fill="#bfbfbf" d="M 324.5,292.5 C 325.906,292.973 326.573,293.973 326.5,295.5C 325.094,295.027 324.427,294.027 324.5,292.5 Z"/></g>
<g><path style="opacity:1" fill="#918679" d="M 189.5,297.5 C 166.358,299.304 143.024,300.304 119.5,300.5C 142.648,298.838 165.982,297.838 189.5,297.5 Z"/></g>
<g><path style="opacity:0.004" fill="#d6d6d6" d="M 327.5,297.5 C 330.067,300.095 329.734,302.428 326.5,304.5C 327.219,302.236 327.552,299.903 327.5,297.5 Z"/></g>
<g><path style="opacity:0.004" fill="#dadada" d="M 326.5,304.5 C 323.141,307.397 320.641,311.064 319,315.5C 318.082,320.098 316.916,324.598 315.5,329C 317.037,330.11 317.703,331.61 317.5,333.5C 316.348,332.166 315.348,330.666 314.5,329C 315.218,325.539 315.718,322.039 316,318.5C 317.346,312.11 320.846,307.443 326.5,304.5 Z"/></g>
<g><path style="opacity:1" fill="#a39789" d="M 318.5,306.5 C 277.514,307.943 236.514,308.609 195.5,308.5C 232.508,307.673 269.675,306.673 307,305.5C 311.59,305.466 315.423,305.8 318.5,306.5 Z"/></g>
<g><path style="opacity:1" fill="#e0cfbb" d="M 318.5,306.5 C 315.871,310.095 314.037,314.095 313,318.5C 312.501,324.491 312.334,330.491 312.5,336.5C 292.498,336.857 272.498,337.357 252.5,338C 248.975,338.179 245.641,338.679 242.5,339.5C 226.506,340.063 210.506,340.396 194.5,340.5C 180.319,340.623 166.319,341.29 152.5,342.5C 150.5,342.5 148.5,342.5 146.5,342.5C 134.803,342.254 123.136,342.587 111.5,343.5C 109.651,339.577 109.318,335.577 110.5,331.5C 111.402,327.245 112.402,322.911 113.5,318.5C 115.321,314.515 118.321,311.681 122.5,310C 146.826,309.114 171.16,308.614 195.5,308.5C 236.514,308.609 277.514,307.943 318.5,306.5 Z"/></g>
<g><path style="opacity:1" fill="#80766b" d="M 285.5,312.5 C 290.316,311.35 295.316,311.184 300.5,312C 299.437,313.188 298.103,313.688 296.5,313.5C 293.038,312.518 289.371,312.185 285.5,312.5 Z"/></g>
<g><path style="opacity:1" fill="#686056" d="M 304.5,312.5 C 305.251,311.427 306.251,311.26 307.5,312C 306.648,313.728 305.648,313.895 304.5,312.5 Z"/></g>
<g><path style="opacity:1" fill="#46413a" d="M 215.5,313.5 C 238.661,312.502 261.994,312.169 285.5,312.5C 289.371,312.185 293.038,312.518 296.5,313.5C 284.494,313.643 272.494,313.977 260.5,314.5C 245.676,313.504 230.676,313.171 215.5,313.5 Z"/></g>
<g><path style="opacity:1" fill="#312d28" d="M 215.5,313.5 C 230.676,313.171 245.676,313.504 260.5,314.5C 233.177,315.563 205.843,315.73 178.5,315C 190.733,313.54 203.066,313.04 215.5,313.5 Z"/></g>
<g><path style="opacity:1" fill="#9f9385" d="M 213.5,321.5 C 233.663,320.337 253.996,320.171 274.5,321C 271.607,322.149 268.607,322.649 265.5,322.5C 248.341,321.503 231.008,321.17 213.5,321.5 Z"/></g>
<g><path style="opacity:1" fill="#4c463f" d="M 213.5,321.5 C 231.008,321.17 248.341,321.503 265.5,322.5C 233.646,322.228 201.813,322.895 170,324.5C 166.5,324.333 163,324.167 159.5,324C 159.833,323.667 160.167,323.333 160.5,323C 178.148,321.843 195.815,321.343 213.5,321.5 Z"/></g>
<g><path style="opacity:1" fill="#a5998a" d="M 113.5,318.5 C 112.402,322.911 111.402,327.245 110.5,331.5C 109.965,326.688 110.965,322.355 113.5,318.5 Z"/></g>
<g><path style="opacity:1" fill="#544e46" d="M 206.5,329.5 C 202.298,329.817 198.298,329.483 194.5,328.5C 219.493,327.514 244.493,327.348 269.5,328C 248.528,329.374 227.528,329.874 206.5,329.5 Z"/></g>
<g><path style="opacity:1" fill="#8b8174" d="M 194.5,328.5 C 198.298,329.483 202.298,329.817 206.5,329.5C 202.317,330.811 197.984,330.811 193.5,329.5C 193.624,328.893 193.957,328.56 194.5,328.5 Z"/></g>
<g><path style="opacity:1" fill="#736a60" d="M 312.5,336.5 C 289.344,337.984 266.011,338.984 242.5,339.5C 245.641,338.679 248.975,338.179 252.5,338C 272.498,337.357 292.498,336.857 312.5,336.5 Z"/></g>
<g><path style="opacity:1" fill="#877d71" d="M 194.5,340.5 C 180.694,341.993 166.694,342.66 152.5,342.5C 166.319,341.29 180.319,340.623 194.5,340.5 Z"/></g>
<g><path style="opacity:1" fill="#847b6f" d="M 146.5,342.5 C 136.496,343.28 126.329,343.947 116,344.5C 114.293,344.492 112.793,344.158 111.5,343.5C 123.136,342.587 134.803,342.254 146.5,342.5 Z"/></g>
<g><path style="opacity:0.253" fill="#999999" d="M 270.5,345.5 C 267.359,346.321 264.025,346.821 260.5,347C 236.505,347.797 212.505,348.297 188.5,348.5C 215.659,347.047 242.992,346.047 270.5,345.5 Z"/></g>
<g><path style="opacity:0.01" fill="#e0e0e0" d="M 317.5,333.5 C 321.314,336.152 322.481,339.819 321,344.5C 320.25,345.126 319.416,345.626 318.5,346C 248.342,348.918 178.342,350.751 108.5,351.5C 110.099,351.768 111.432,351.434 112.5,350.5C 137.652,349.015 162.985,348.349 188.5,348.5C 212.505,348.297 236.505,347.797 260.5,347C 264.025,346.821 267.359,346.321 270.5,345.5C 286.824,344.838 303.157,344.338 319.5,344C 320.591,341.936 320.758,339.769 320,337.5C 318.519,336.529 317.685,335.196 317.5,333.5 Z"/></g>
</svg>
