<?xml version="1.0" encoding="UTF-8"?>
<!DOCTYPE svg PUBLIC "-//W3C//DTD SVG 1.1//EN" "http://www.w3.org/Graphics/SVG/1.1/DTD/svg11.dtd">
<svg xmlns="http://www.w3.org/2000/svg" version="1.1" width="235px" height="207px" style="shape-rendering:geometricPrecision; text-rendering:geometricPrecision; image-rendering:optimizeQuality; fill-rule:evenodd; clip-rule:evenodd" xmlns:xlink="http://www.w3.org/1999/xlink">
<g><path style="opacity:0.027" fill="#e7e7e7" d="M 66.5,23.5 C 63.6491,32.1162 61.3158,40.7828 59.5,49.5C 59.826,40.1613 62.1594,31.4946 66.5,23.5 Z"/></g>
<g><path style="opacity:0.047" fill="#dddddd" d="M 128.5,58.5 C 128.5,58.8333 128.5,59.1667 128.5,59.5C 116.736,58.4124 105.403,55.5791 94.5,51C 86.3571,40.556 77.8571,30.3893 69,20.5C 68.6232,21.9423 67.7899,22.9423 66.5,23.5C 66.1762,20.3198 67.5096,19.1531 70.5,20C 78.9772,29.2979 86.9772,38.9646 94.5,49C 105.36,53.6728 116.693,56.8395 128.5,58.5 Z"/></g>
<g><path style="opacity:0.008" fill="#e5e5e5" d="M 134.5,55.5 C 135.623,54.2426 136.289,54.5759 136.5,56.5C 135.833,56.1667 135.167,55.8333 134.5,55.5 Z"/></g>
<g><path style="opacity:0.055" fill="#e1e1e1" d="M 186.5,68.5 C 187.167,64.1667 187.833,59.8333 188.5,55.5C 177.519,59.432 166.186,62.2653 154.5,64C 148.05,64.768 141.717,64.268 135.5,62.5C 135.263,61.209 135.596,60.209 136.5,59.5C 140.154,61.0476 143.987,62.3809 148,63.5C 161.493,62.4625 174.159,58.7958 186,52.5C 188.768,53.2749 189.934,55.1082 189.5,58C 189.176,61.8098 188.176,65.3098 186.5,68.5 Z"/></g>
<g><path style="opacity:0.047" fill="#dfdfdf" d="M 186.5,68.5 C 186.785,71.8291 186.118,74.8291 184.5,77.5C 184.676,74.2727 185.343,71.2727 186.5,68.5 Z"/></g>
<g><path style="opacity:0.078" fill="#e5e5e5" d="M 58.5,53.5 C 56.6008,65.3649 52.4342,76.3649 46,86.5C 40.3252,100.953 37.9919,115.953 39,131.5C 33.6309,136.879 28.9642,142.879 25,149.5C 23.4756,155.785 25.6422,160.118 31.5,162.5C 26.0006,161.832 23.0006,158.665 22.5,153C 24.6079,144.884 29.1079,138.384 36,133.5C 36.8333,131.833 37.6667,130.167 38.5,128.5C 36.0843,108.163 40.5843,89.4963 52,72.5C 54.1032,66.0207 56.2699,59.6873 58.5,53.5 Z"/></g>
<g><path style="opacity:0.011" fill="#dbdbdb" d="M 184.5,77.5 C 185.671,94.2064 187.338,110.873 189.5,127.5C 189.426,130.374 189.093,133.208 188.5,136C 189.414,137.406 190.08,138.906 190.5,140.5C 188.648,139.48 187.315,137.98 186.5,136C 187.592,130.874 187.759,125.707 187,120.5C 184.627,106.901 183.294,93.2346 183,79.5C 183.278,78.5842 183.778,77.9175 184.5,77.5 Z"/></g>
<g><path style="opacity:0.998" fill="#141313" d="M 128.5,59.5 C 126.489,60.8929 124.155,61.5596 121.5,61.5C 112.165,59.637 102.832,57.8036 93.5,56C 91.3911,54.8589 89.5578,53.3589 88,51.5C 83.0754,42.6471 77.4087,34.3137 71,26.5C 70.0096,39.0499 72.1763,51.0499 77.5,62.5C 77.3333,63.1667 77.1667,63.8333 77,64.5C 71.4723,58.9172 69.639,59.5839 71.5,66.5C 69.5853,66.2155 67.9187,66.5489 66.5,67.5C 63.821,67.4754 62.4877,66.142 62.5,63.5C 64.1667,63.5 65.8333,63.5 67.5,63.5C 67.3259,61.139 66.9926,58.8056 66.5,56.5C 68.7224,56.178 70.5557,56.8446 72,58.5C 70.2232,49.2735 68.5565,39.9402 67,30.5C 64.1987,42.7128 61.8653,55.0462 60,67.5C 46.8536,86.0838 41.5202,106.75 44,129.5C 44.4083,131.41 45.5749,132.41 47.5,132.5C 54.6855,129.218 62.0189,126.551 69.5,124.5C 70.791,124.737 71.791,124.404 72.5,123.5C 82.0571,123.651 91.3904,125.151 100.5,128C 108.274,132.61 114.941,138.443 120.5,145.5C 122.751,151.02 123.084,156.687 121.5,162.5C 124.167,162.5 126.833,162.5 129.5,162.5C 129.635,151.046 133.968,141.712 142.5,134.5C 147.108,131.363 152.108,129.03 157.5,127.5C 166.372,127.316 174.705,129.316 182.5,133.5C 183.663,127.863 183.83,122.196 183,116.5C 181.38,105.348 179.88,94.1816 178.5,83C 181.597,75.7282 183.431,68.2282 184,60.5C 180.265,66.9041 175.765,72.7374 170.5,78C 172.433,78.2511 174.266,78.7511 176,79.5C 176.711,81.3668 176.211,82.8668 174.5,84C 175.973,84.7096 176.64,85.8762 176.5,87.5C 175.5,87.5 174.5,87.5 173.5,87.5C 171.246,86.3068 170.58,84.6402 171.5,82.5C 169.028,81.1038 166.362,80.2704 163.5,80C 170.167,74.6667 176.167,68.6667 181.5,62C 172.763,64.5157 163.763,66.1824 154.5,67C 149.833,67.6667 145.167,67.6667 140.5,67C 137.888,66.3605 135.554,65.1938 133.5,63.5C 134.681,61.802 134.681,60.1353 133.5,58.5C 131.114,59.9884 130.448,59.6551 131.5,57.5C 133.027,57.573 134.027,56.9063 134.5,55.5C 135.167,55.8333 135.833,56.1667 136.5,56.5C 137.833,57.5 137.833,58.5 136.5,59.5C 135.596,60.209 135.263,61.209 135.5,62.5C 141.717,64.268 148.05,64.768 154.5,64C 166.186,62.2653 177.519,59.432 188.5,55.5C 187.833,59.8333 187.167,64.1667 186.5,68.5C 185.343,71.2727 184.676,74.2727 184.5,77.5C 183.778,77.9175 183.278,78.5842 183,79.5C 183.294,93.2346 184.627,106.901 187,120.5C 187.759,125.707 187.592,130.874 186.5,136C 187.315,137.98 188.648,139.48 190.5,140.5C 191.08,142.749 192.413,144.415 194.5,145.5C 195.338,145.842 195.672,146.508 195.5,147.5C 195.768,150.119 195.435,152.619 194.5,155C 181.239,154.208 171.739,159.708 166,171.5C 156.335,180.248 145.835,181.581 134.5,175.5C 133.594,174.035 132.261,173.035 130.5,172.5C 129.77,170.659 129.103,168.825 128.5,167C 125.634,165.724 122.8,165.557 120,166.5C 116.952,177.333 111.119,179.499 102.5,173C 95.2765,170.592 87.9431,168.592 80.5,167C 64.0846,166.239 47.7512,164.739 31.5,162.5C 25.6422,160.118 23.4756,155.785 25,149.5C 28.9642,142.879 33.6309,136.879 39,131.5C 37.9919,115.953 40.3252,100.953 46,86.5C 52.4342,76.3649 56.6008,65.3649 58.5,53.5C 58.2322,51.901 58.5655,50.5676 59.5,49.5C 61.3158,40.7828 63.6491,32.1162 66.5,23.5C 67.7899,22.9423 68.6232,21.9423 69,20.5C 77.8571,30.3893 86.3571,40.556 94.5,51C 105.403,55.5791 116.736,58.4124 128.5,59.5 Z"/></g>
<g><path style="opacity:1" fill="#cac5c5" d="M 168.5,159.5 C 165.337,161.811 162.003,163.978 158.5,166C 151.993,166.9 147.993,164.067 146.5,157.5C 145.914,157.709 145.414,158.043 145,158.5C 144.326,155.74 143.493,153.073 142.5,150.5C 141.325,150.719 140.325,150.386 139.5,149.5C 140.766,147.028 140.766,144.694 139.5,142.5C 145.908,132.135 155.241,127.968 167.5,130C 180.505,132.169 187.838,139.669 189.5,152.5C 181.47,151.964 174.47,154.298 168.5,159.5 Z"/></g>
<g><path style="opacity:1" fill="#cbc6c6" d="M 98.5,130.5 C 106.122,134.955 112.289,140.955 117,148.5C 117.873,153.444 117.373,158.11 115.5,162.5C 111.23,164.474 106.897,166.14 102.5,167.5C 92.3303,164.708 81.9969,162.708 71.5,161.5C 68.7172,160.841 66.0505,159.675 63.5,158C 62.8333,156 61.5,154.667 59.5,154C 60.3081,153.692 60.9747,153.192 61.5,152.5C 58.429,151.215 55.5957,149.549 53,147.5C 52.8333,147 52.6667,146.5 52.5,146C 55.1865,141.821 58.8532,138.821 63.5,137C 62.2888,136.107 62.2888,135.274 63.5,134.5C 69.0417,131.412 74.875,130.745 81,132.5C 82.1667,132.167 83.3333,131.833 84.5,131.5C 84.2907,130.914 83.9574,130.414 83.5,130C 88.5374,129.337 93.5374,129.504 98.5,130.5 Z"/></g>
<g><path style="opacity:1" fill="#b3a9a9" d="M 98.5,130.5 C 93.5374,129.504 88.5374,129.337 83.5,130C 83.9574,130.414 84.2907,130.914 84.5,131.5C 83.3333,131.833 82.1667,132.167 81,132.5C 74.875,130.745 69.0417,131.412 63.5,134.5C 62.2888,135.274 62.2888,136.107 63.5,137C 58.8532,138.821 55.1865,141.821 52.5,146C 52.6667,146.5 52.8333,147 53,147.5C 55.5957,149.549 58.429,151.215 61.5,152.5C 60.9747,153.192 60.3081,153.692 59.5,154C 61.5,154.667 62.8333,156 63.5,158C 66.0505,159.675 68.7172,160.841 71.5,161.5C 58.3573,161.245 45.3573,159.745 32.5,157C 30.7769,156.225 29.7769,154.892 29.5,153C 33.9258,142.579 41.5925,135.579 52.5,132C 65.052,126.925 78.052,125.259 91.5,127C 94.0691,127.898 96.4024,129.065 98.5,130.5 Z"/></g>
<g><path style="opacity:1" fill="#b6aaaa" d="M 54.5,100.5 C 55.8195,101.942 57.4862,102.608 59.5,102.5C 60.7579,106.036 61.5913,109.703 62,113.5C 63.8078,116.438 65.3078,119.438 66.5,122.5C 68.7354,122.205 70.7354,122.539 72.5,123.5C 71.791,124.404 70.791,124.737 69.5,124.5C 65.6824,124.414 62.0157,125.081 58.5,126.5C 54.7866,126.078 51.12,125.411 47.5,124.5C 48.8587,122.308 50.6921,120.641 53,119.5C 53.7063,117.029 53.373,114.695 52,112.5C 49.7446,109.87 47.578,107.203 45.5,104.5C 47.0064,103.253 48.5064,103.253 50,104.5C 51.1882,103.437 51.6882,102.103 51.5,100.5C 52.5,100.5 53.5,100.5 54.5,100.5 Z"/></g>
<g><path style="opacity:1" fill="#a69898" d="M 157.5,127.5 C 162.753,125.052 168.419,123.885 174.5,124C 174.957,123.586 175.291,123.086 175.5,122.5C 174.115,121.449 173.115,120.116 172.5,118.5C 175.304,117.895 177.971,117.062 180.5,116C 178.316,113.984 176.316,111.817 174.5,109.5C 175.148,102.593 176.148,95.5928 177.5,88.5C 175.901,88.7678 174.568,88.4345 173.5,87.5C 174.5,87.5 175.5,87.5 176.5,87.5C 176.64,85.8762 175.973,84.7096 174.5,84C 176.211,82.8668 176.711,81.3668 176,79.5C 174.266,78.7511 172.433,78.2511 170.5,78C 175.765,72.7374 180.265,66.9041 184,60.5C 183.431,68.2282 181.597,75.7282 178.5,83C 179.88,94.1816 181.38,105.348 183,116.5C 183.83,122.196 183.663,127.863 182.5,133.5C 174.705,129.316 166.372,127.316 157.5,127.5 Z"/></g>
<g><path style="opacity:1" fill="#a59797" d="M 66.5,67.5 C 64.53,72.3888 62.53,77.3888 60.5,82.5C 58.4212,84.5902 56.0879,85.0902 53.5,84C 54.8333,86 56.1667,88 57.5,90C 52.628,90.6272 52.2947,92.2939 56.5,95C 55.1439,96.5671 54.4772,98.4004 54.5,100.5C 53.5,100.5 52.5,100.5 51.5,100.5C 51.6882,102.103 51.1882,103.437 50,104.5C 48.5064,103.253 47.0064,103.253 45.5,104.5C 47.578,107.203 49.7446,109.87 52,112.5C 53.373,114.695 53.7063,117.029 53,119.5C 50.6921,120.641 48.8587,122.308 47.5,124.5C 51.12,125.411 54.7866,126.078 58.5,126.5C 62.0157,125.081 65.6824,124.414 69.5,124.5C 62.0189,126.551 54.6855,129.218 47.5,132.5C 45.5749,132.41 44.4083,131.41 44,129.5C 41.5202,106.75 46.8536,86.0838 60,67.5C 61.8653,55.0462 64.1987,42.7128 67,30.5C 68.5565,39.9402 70.2232,49.2735 72,58.5C 70.5557,56.8446 68.7224,56.178 66.5,56.5C 66.9926,58.8056 67.3259,61.139 67.5,63.5C 65.8333,63.5 64.1667,63.5 62.5,63.5C 62.4877,66.142 63.821,67.4754 66.5,67.5 Z"/></g>
<g><path style="opacity:0.471" fill="#c0c0c0" d="M 134.5,55.5 C 134.027,56.9063 133.027,57.573 131.5,57.5C 131.973,56.0937 132.973,55.427 134.5,55.5 Z"/></g>
<g><path style="opacity:1" fill="#cbc6c6" d="M 128.5,59.5 C 128.5,59.1667 128.5,58.8333 128.5,58.5C 129.209,57.596 130.209,57.2627 131.5,57.5C 130.448,59.6551 131.114,59.9884 133.5,58.5C 134.681,60.1353 134.681,61.802 133.5,63.5C 135.554,65.1938 137.888,66.3605 140.5,67C 145.167,67.6667 149.833,67.6667 154.5,67C 163.763,66.1824 172.763,64.5157 181.5,62C 176.167,68.6667 170.167,74.6667 163.5,80C 166.362,80.2704 169.028,81.1038 171.5,82.5C 170.58,84.6402 171.246,86.3068 173.5,87.5C 174.568,88.4345 175.901,88.7678 177.5,88.5C 176.148,95.5928 175.148,102.593 174.5,109.5C 176.316,111.817 178.316,113.984 180.5,116C 177.971,117.062 175.304,117.895 172.5,118.5C 173.115,120.116 174.115,121.449 175.5,122.5C 175.291,123.086 174.957,123.586 174.5,124C 168.419,123.885 162.753,125.052 157.5,127.5C 152.108,129.03 147.108,131.363 142.5,134.5C 135.693,138.913 128.359,142.58 120.5,145.5C 114.941,138.443 108.274,132.61 100.5,128C 91.3904,125.151 82.0571,123.651 72.5,123.5C 70.7354,122.539 68.7354,122.205 66.5,122.5C 65.3078,119.438 63.8078,116.438 62,113.5C 61.5913,109.703 60.7579,106.036 59.5,102.5C 57.4862,102.608 55.8195,101.942 54.5,100.5C 54.4772,98.4004 55.1439,96.5671 56.5,95C 52.2947,92.2939 52.628,90.6272 57.5,90C 56.1667,88 54.8333,86 53.5,84C 56.0879,85.0902 58.4212,84.5902 60.5,82.5C 62.53,77.3888 64.53,72.3888 66.5,67.5C 67.9187,66.5489 69.5853,66.2155 71.5,66.5C 69.639,59.5839 71.4723,58.9172 77,64.5C 77.1667,63.8333 77.3333,63.1667 77.5,62.5C 72.1763,51.0499 70.0096,39.0499 71,26.5C 77.4087,34.3137 83.0754,42.6471 88,51.5C 89.5578,53.3589 91.3911,54.8589 93.5,56C 102.832,57.8036 112.165,59.637 121.5,61.5C 124.155,61.5596 126.489,60.8929 128.5,59.5 Z"/></g>
<g><path style="opacity:1" fill="#191818" d="M 122.5,105.5 C 123.968,104.131 125.635,102.964 127.5,102C 126.125,100.738 124.792,100.238 123.5,100.5C 124.919,99.5489 126.585,99.2155 128.5,99.5C 128.338,101.527 128.505,103.527 129,105.5C 131.984,107.069 134.817,108.736 137.5,110.5C 132.842,111.521 128.842,110.187 125.5,106.5C 122.092,109.971 118.092,110.971 113.5,109.5C 116.639,108.43 119.639,107.096 122.5,105.5 Z"/></g>
<g><path style="opacity:1" fill="#706363" d="M 123.5,100.5 C 124.792,100.238 126.125,100.738 127.5,102C 125.635,102.964 123.968,104.131 122.5,105.5C 122.216,103.585 122.549,101.919 123.5,100.5 Z"/></g>
<g><path style="opacity:0.998" fill="#121212" d="M 148.5,95.5 C 152.473,96.0755 153.473,98.2421 151.5,102C 147.631,101.492 146.631,99.3252 148.5,95.5 Z"/></g>
<g><path style="opacity:0.999" fill="#101010" d="M 94.5,84.5 C 99.6804,85.4042 100.68,87.9042 97.5,92C 95.8659,92.4935 94.1992,92.6602 92.5,92.5C 92.1072,89.4867 92.7739,86.8201 94.5,84.5 Z"/></g>
<g><path style="opacity:0.718" fill="#9c9c9c" d="M 190.5,140.5 C 192.587,141.585 193.92,143.251 194.5,145.5C 192.413,144.415 191.08,142.749 190.5,140.5 Z"/></g>
<g><path style="opacity:1" fill="#a69898" d="M 142.5,134.5 C 133.968,141.712 129.635,151.046 129.5,162.5C 126.833,162.5 124.167,162.5 121.5,162.5C 123.084,156.687 122.751,151.02 120.5,145.5C 128.359,142.58 135.693,138.913 142.5,134.5 Z"/></g>
<g><path style="opacity:1" fill="#b4a9a9" d="M 139.5,142.5 C 140.766,144.694 140.766,147.028 139.5,149.5C 140.325,150.386 141.325,150.719 142.5,150.5C 143.493,153.073 144.326,155.74 145,158.5C 145.414,158.043 145.914,157.709 146.5,157.5C 147.993,164.067 151.993,166.9 158.5,166C 162.003,163.978 165.337,161.811 168.5,159.5C 161.251,173.303 150.251,177.803 135.5,173C 134.353,165.58 134.187,158.08 135,150.5C 135.754,147.316 137.254,144.649 139.5,142.5 Z"/></g>
<g><path style="opacity:0.012" fill="#e5e5e5" d="M 195.5,147.5 C 197.517,151.876 196.517,155.376 192.5,158C 187.771,158.273 183.104,158.939 178.5,160C 172.602,165.809 166.935,171.809 161.5,178C 155.139,181.093 148.473,182.093 141.5,181C 138.405,180.065 136.071,178.231 134.5,175.5C 145.835,181.581 156.335,180.248 166,171.5C 171.739,159.708 181.239,154.208 194.5,155C 195.435,152.619 195.768,150.119 195.5,147.5 Z"/></g>
<g><path style="opacity:1" fill="#a39696" d="M 115.5,162.5 C 115.216,166.757 113.216,169.757 109.5,171.5C 107.636,169.4 105.303,168.067 102.5,167.5C 106.897,166.14 111.23,164.474 115.5,162.5 Z"/></g>
<g><path style="opacity:0.012" fill="#e5e5e5" d="M 31.5,162.5 C 47.7512,164.739 64.0846,166.239 80.5,167C 87.9431,168.592 95.2765,170.592 102.5,173C 111.119,179.499 116.952,177.333 120,166.5C 122.8,165.557 125.634,165.724 128.5,167C 129.103,168.825 129.77,170.659 130.5,172.5C 132.261,173.035 133.594,174.035 134.5,175.5C 130.719,175.201 128.552,173.201 128,169.5C 125.833,167.536 123.499,167.202 121,168.5C 119.561,171.603 117.727,174.436 115.5,177C 113.966,177.923 112.299,178.423 110.5,178.5C 91.8117,170.16 72.145,166.327 51.5,167C 44.6367,165.781 37.9701,164.281 31.5,162.5 Z"/></g>
<g><path style="opacity:0.01" fill="#fcfcfc" d="M 95.5,206.5 C 90.8333,206.5 86.1667,206.5 81.5,206.5C 78.5,202.833 75.1667,199.5 71.5,196.5C 71.2624,194.596 70.2624,193.262 68.5,192.5C 68.5,191.833 68.1667,191.5 67.5,191.5C 66.178,189.689 65.678,187.689 66,185.5C 67.6667,184.5 69.3333,183.5 71,182.5C 79.0618,190.73 87.2285,198.73 95.5,206.5 Z"/></g>
<g><path style="opacity:0.009" fill="#fcfcfc" d="M 67.5,191.5 C 68.1667,191.5 68.5,191.833 68.5,192.5C 68.7376,194.404 69.7376,195.738 71.5,196.5C 73.0751,200.078 75.0751,203.411 77.5,206.5C 75.1667,206.5 72.8333,206.5 70.5,206.5C 65.4693,200.128 60.8026,193.461 56.5,186.5C 58.7657,185.794 61.0991,185.961 63.5,187C 64.3281,188.992 65.6614,190.492 67.5,191.5 Z"/></g>
</svg>
