<?xml version="1.0" encoding="UTF-8"?>
<!DOCTYPE svg PUBLIC "-//W3C//DTD SVG 1.1//EN" "http://www.w3.org/Graphics/SVG/1.1/DTD/svg11.dtd">
<svg xmlns="http://www.w3.org/2000/svg" version="1.1" width="2048px" height="2048px" style="shape-rendering:geometricPrecision; text-rendering:geometricPrecision; image-rendering:optimizeQuality; fill-rule:evenodd; clip-rule:evenodd" xmlns:xlink="http://www.w3.org/1999/xlink">
<g><path style="opacity:0.873" fill="#010101" d="M 981.5,624.5 C 1066.57,623.746 1151.57,625.913 1236.5,631C 1251.53,631.947 1266.53,633.281 1281.5,635C 1337.82,642.146 1394.15,649.146 1450.5,656C 1499.09,664.766 1547.76,673.099 1596.5,681C 1608.27,683.193 1619.94,685.86 1631.5,689C 1662.65,699.606 1693.65,710.606 1724.5,722C 1739.32,728.234 1752.98,736.234 1765.5,746C 1771.64,751.134 1777.47,756.634 1783,762.5C 1800.7,781.201 1818.04,800.201 1835,819.5C 1852.01,846.176 1868.01,873.51 1883,901.5C 1888.71,914.655 1892.71,928.322 1895,942.5C 1899.41,970.544 1904.08,998.544 1909,1026.5C 1910.55,1055.15 1910.88,1083.81 1910,1112.5C 1905.87,1149.56 1894.53,1184.23 1876,1216.5C 1843.51,1261.67 1802.01,1295.83 1751.5,1319C 1713.94,1335.74 1674.94,1348.07 1634.5,1356C 1612.25,1359.58 1589.91,1362.58 1567.5,1365C 1552.93,1368.18 1538.26,1370.85 1523.5,1373C 1490.48,1375.49 1457.48,1378.15 1424.5,1381C 1315.97,1381.37 1207.47,1383.2 1099,1386.5C 1071.48,1386.34 1043.98,1385.51 1016.5,1384C 946.135,1382.84 875.802,1383.84 805.5,1387C 737.502,1387.9 669.502,1388.57 601.5,1389C 569.121,1390.09 536.788,1391.93 504.5,1394.5C 494.36,1416.13 482.193,1436.46 468,1455.5C 457.471,1466.36 446.637,1476.86 435.5,1487C 430.375,1489.25 425.042,1489.91 419.5,1489C 418.424,1487.27 418.257,1485.44 419,1483.5C 422.667,1477.17 426.333,1470.83 430,1464.5C 433.726,1449.7 436.226,1434.7 437.5,1419.5C 437.935,1403.15 433.769,1388.15 425,1374.5C 422,1370.5 419,1366.5 416,1362.5C 386.421,1334.93 359.754,1304.93 336,1272.5C 324.105,1253.38 313.772,1233.38 305,1212.5C 301.603,1197.14 300.77,1181.64 302.5,1166C 301.426,1156.86 300.593,1147.69 300,1138.5C 299.667,1109.5 299.333,1080.5 299,1051.5C 294.712,1008.54 294.379,965.539 298,922.5C 304.815,871.23 323.481,824.897 354,783.5C 376.352,757.757 402.519,736.924 432.5,721C 498.061,685.524 567.727,662.19 641.5,651C 697.996,643.072 754.662,636.739 811.5,632C 868.352,630.09 925.019,627.59 981.5,624.5 Z"/></g>
<g><path style="opacity:1" fill="#7e7e7e" d="M 1082.5,647.5 C 1053.33,647.169 1024.33,647.502 995.5,648.5C 967.174,649.447 938.841,650.114 910.5,650.5C 967.787,646.614 1025.12,645.614 1082.5,647.5 Z"/></g>
<g><path style="opacity:1" fill="#c2c2c2" d="M 995.5,648.5 C 1024.33,647.502 1053.33,647.169 1082.5,647.5C 1087.83,647.5 1093.17,647.5 1098.5,647.5C 1103.17,648.167 1107.83,648.833 1112.5,649.5C 1104.17,649.5 1095.83,649.5 1087.5,649.5C 1057,648.502 1026.34,648.169 995.5,648.5 Z"/></g>
<g><path style="opacity:1" fill="#fefefe" d="M 1087.5,649.5 C 1095.83,649.5 1104.17,649.5 1112.5,649.5C 1118.36,649.178 1124.02,649.511 1129.5,650.5C 1132.64,651.321 1135.97,651.821 1139.5,652C 1161.49,653.038 1183.49,653.538 1205.5,653.5C 1224.77,654.959 1244.1,656.292 1263.5,657.5C 1264.83,657.5 1266.17,657.5 1267.5,657.5C 1267.92,658.222 1268.58,658.722 1269.5,659C 1279.62,659.725 1289.62,661.058 1299.5,663C 1314.78,664.81 1330.11,666.31 1345.5,667.5C 1345.92,668.222 1346.58,668.722 1347.5,669C 1364.79,671.096 1382.12,672.596 1399.5,673.5C 1403.47,674.162 1407.47,674.495 1411.5,674.5C 1412.83,674.5 1414.17,674.5 1415.5,674.5C 1420.27,675.889 1425.27,676.556 1430.5,676.5C 1430.83,676.5 1431.17,676.5 1431.5,676.5C 1435.57,678.054 1439.9,678.72 1444.5,678.5C 1446.38,679.341 1448.38,679.675 1450.5,679.5C 1452.51,680.924 1454.85,681.59 1457.5,681.5C 1458.83,681.5 1460.17,681.5 1461.5,681.5C 1464.56,683.132 1467.89,684.299 1471.5,685C 1480.16,686.531 1488.82,688.198 1497.5,690C 1500.82,690.498 1504.15,690.665 1507.5,690.5C 1507.83,690.5 1508.17,690.5 1508.5,690.5C 1512.21,692.264 1516.21,693.431 1520.5,694C 1530.19,695.219 1539.86,696.386 1549.5,697.5C 1549.83,697.5 1550.17,697.5 1550.5,697.5C 1550.61,698.117 1550.94,698.617 1551.5,699C 1557.51,699.501 1563.51,700.001 1569.5,700.5C 1570.83,700.5 1572.17,700.5 1573.5,700.5C 1579.57,702.889 1585.9,704.723 1592.5,706C 1595.82,706.498 1599.15,706.665 1602.5,706.5C 1604.81,706.993 1607.14,707.326 1609.5,707.5C 1611.51,708.924 1613.85,709.59 1616.5,709.5C 1618.12,710.038 1619.78,710.371 1621.5,710.5C 1621.61,711.117 1621.94,711.617 1622.5,712C 1625.85,712.838 1629.18,713.671 1632.5,714.5C 1632.83,714.5 1633.17,714.5 1633.5,714.5C 1633.47,715.497 1633.97,716.164 1635,716.5C 1642.72,719.351 1650.55,721.685 1658.5,723.5C 1658.83,723.5 1659.17,723.5 1659.5,723.5C 1659.88,724.931 1660.88,725.764 1662.5,726C 1665.83,726.61 1669.16,727.11 1672.5,727.5C 1674.62,729.655 1677.28,730.655 1680.5,730.5C 1681.17,730.5 1681.83,730.5 1682.5,730.5C 1687.07,733.253 1692.07,735.253 1697.5,736.5C 1697.83,736.5 1698.17,736.5 1698.5,736.5C 1702.22,739.027 1706.22,741.027 1710.5,742.5C 1714.86,745.068 1719.52,747.068 1724.5,748.5C 1728.1,751.088 1732.1,753.088 1736.5,754.5C 1737.39,755.11 1738.39,755.443 1739.5,755.5C 1739.84,756.338 1740.51,756.672 1741.5,756.5C 1741.97,757.906 1742.97,758.573 1744.5,758.5C 1745.26,760.262 1746.6,761.262 1748.5,761.5C 1749.58,763.587 1751.25,764.92 1753.5,765.5C 1756.17,768.833 1759.17,771.833 1762.5,774.5C 1764.43,778.1 1767.1,781.1 1770.5,783.5C 1776.78,791.445 1783.78,798.778 1791.5,805.5C 1794.77,810.44 1798.77,814.773 1803.5,818.5C 1805.77,822.436 1808.77,825.769 1812.5,828.5C 1812.74,830.404 1813.74,831.738 1815.5,832.5C 1815.74,834.404 1816.74,835.738 1818.5,836.5C 1818.43,838.027 1819.09,839.027 1820.5,839.5C 1820.74,841.404 1821.74,842.738 1823.5,843.5C 1823.5,844.167 1823.5,844.833 1823.5,845.5C 1828.63,853.949 1833.29,862.616 1837.5,871.5C 1838.64,872.826 1839.98,873.826 1841.5,874.5C 1841.43,876.027 1842.09,877.027 1843.5,877.5C 1843.5,878.167 1843.5,878.833 1843.5,879.5C 1846.86,886.922 1851.2,893.589 1856.5,899.5C 1856.43,901.027 1857.09,902.027 1858.5,902.5C 1858.84,906.836 1860.5,910.503 1863.5,913.5C 1864.43,914.568 1864.77,915.901 1864.5,917.5C 1864.37,919.292 1864.7,920.958 1865.5,922.5C 1866.06,927.165 1867.39,931.498 1869.5,935.5C 1870.11,936.391 1870.44,937.391 1870.5,938.5C 1870.34,941.187 1870.5,943.854 1871,946.5C 1871.85,950.388 1873.01,954.055 1874.5,957.5C 1874.5,958.167 1874.5,958.833 1874.5,959.5C 1874.4,965.82 1875.4,971.82 1877.5,977.5C 1877.5,978.167 1877.5,978.833 1877.5,979.5C 1877.34,982.187 1877.5,984.854 1878,987.5C 1878.28,988.416 1878.78,989.082 1879.5,989.5C 1880.22,991.764 1880.55,994.097 1880.5,996.5C 1880.5,997.833 1880.5,999.167 1880.5,1000.5C 1880.35,1003.72 1881.35,1006.38 1883.5,1008.5C 1883.5,1008.83 1883.5,1009.17 1883.5,1009.5C 1883.5,1012.17 1883.5,1014.83 1883.5,1017.5C 1886.15,1045.74 1887.15,1074.08 1886.5,1102.5C 1886.5,1103.5 1886.5,1104.5 1886.5,1105.5C 1884.73,1118.09 1882.73,1130.76 1880.5,1143.5C 1879.63,1146.79 1878.96,1150.12 1878.5,1153.5C 1875.75,1158.07 1873.75,1163.07 1872.5,1168.5C 1871.21,1169.06 1870.38,1170.06 1870,1171.5C 1869.39,1174.83 1868.89,1178.16 1868.5,1181.5C 1867.83,1181.83 1867.17,1182.17 1866.5,1182.5C 1863.84,1188.12 1861.18,1193.79 1858.5,1199.5C 1840.49,1226.68 1818.16,1249.85 1791.5,1269C 1784.93,1273.75 1778.26,1278.25 1771.5,1282.5C 1765.85,1284.99 1760.19,1287.49 1754.5,1290C 1753.75,1290.67 1753.41,1291.5 1753.5,1292.5C 1748.85,1292.33 1745.18,1294 1742.5,1297.5C 1740.8,1297.34 1739.13,1297.51 1737.5,1298C 1730.41,1301.22 1723.41,1304.38 1716.5,1307.5C 1716.5,1308.17 1716.17,1308.5 1715.5,1308.5C 1713.8,1308.34 1712.13,1308.51 1710.5,1309C 1709.24,1309.42 1708.58,1310.25 1708.5,1311.5C 1700,1313.92 1691.66,1316.59 1683.5,1319.5C 1671.3,1322.13 1659.3,1325.13 1647.5,1328.5C 1645.88,1329.04 1644.22,1329.37 1642.5,1329.5C 1637.9,1330.71 1633.23,1331.71 1628.5,1332.5C 1625.31,1332.56 1622.14,1332.89 1619,1333.5C 1617.32,1333.61 1616.15,1334.27 1615.5,1335.5C 1613.05,1335.3 1610.72,1335.63 1608.5,1336.5C 1598.59,1336.49 1588.92,1337.49 1579.5,1339.5C 1575.06,1340.11 1570.73,1340.78 1566.5,1341.5C 1558.12,1342.12 1549.78,1343.29 1541.5,1345C 1539.68,1345.2 1538.35,1346.03 1537.5,1347.5C 1537.17,1347.5 1536.83,1347.5 1536.5,1347.5C 1535.17,1347.5 1533.83,1347.5 1532.5,1347.5C 1522.83,1348.17 1513.16,1349 1503.5,1350C 1499.3,1350.53 1495.3,1351.36 1491.5,1352.5C 1485.13,1352.35 1478.8,1352.68 1472.5,1353.5C 1469.83,1353.5 1467.17,1353.5 1464.5,1353.5C 1452.82,1354.08 1441.15,1354.91 1429.5,1356C 1400,1356.17 1370.66,1356.67 1341.5,1357.5C 1338.61,1357.19 1335.95,1357.53 1333.5,1358.5C 1291.83,1358.33 1250.17,1358.5 1208.5,1359C 1204.97,1359.18 1201.64,1359.68 1198.5,1360.5C 1194.55,1361.27 1190.55,1361.61 1186.5,1361.5C 1175.5,1361.5 1164.5,1361.5 1153.5,1361.5C 1102.47,1361.95 1051.47,1361.29 1000.5,1359.5C 960.16,1359.31 919.827,1359.64 879.5,1360.5C 836.346,1361.8 793.346,1362.8 750.5,1363.5C 749.167,1363.5 747.833,1363.5 746.5,1363.5C 697.166,1363.33 647.832,1363.5 598.5,1364C 595.305,1364.18 592.305,1364.68 589.5,1365.5C 588.167,1365.5 586.833,1365.5 585.5,1365.5C 572.625,1365.15 559.959,1365.81 547.5,1367.5C 542.217,1367.1 537.217,1367.76 532.5,1369.5C 520.871,1370.44 509.204,1370.77 497.5,1370.5C 496.127,1370.34 494.793,1370.51 493.5,1371C 487.669,1375.31 483.669,1380.81 481.5,1387.5C 480.89,1388.39 480.557,1389.39 480.5,1390.5C 478.659,1392.85 477.326,1395.52 476.5,1398.5C 471.523,1404.43 467.523,1411.1 464.5,1418.5C 462.619,1414.45 461.285,1410.12 460.5,1405.5C 459.833,1403.5 459.167,1401.5 458.5,1399.5C 458.5,1398.17 458.5,1396.83 458.5,1395.5C 458.651,1384.5 454.984,1375.16 447.5,1367.5C 447.262,1365.6 446.262,1364.26 444.5,1363.5C 444.672,1362.51 444.338,1361.84 443.5,1361.5C 443.262,1359.6 442.262,1358.26 440.5,1357.5C 440.262,1355.6 439.262,1354.26 437.5,1353.5C 437.443,1352.39 437.11,1351.39 436.5,1350.5C 435.318,1348.19 433.985,1345.85 432.5,1343.5C 431.583,1342.87 430.583,1342.54 429.5,1342.5C 421.446,1333.44 412.779,1325.11 403.5,1317.5C 401.167,1314.5 398.5,1311.83 395.5,1309.5C 394.243,1306.57 392.243,1304.24 389.5,1302.5C 388.167,1300.5 386.5,1298.83 384.5,1297.5C 383.92,1295.25 382.587,1293.58 380.5,1292.5C 379.581,1289.91 377.914,1287.91 375.5,1286.5C 375.262,1284.6 374.262,1283.26 372.5,1282.5C 371.581,1279.91 369.914,1277.91 367.5,1276.5C 367.262,1274.6 366.262,1273.26 364.5,1272.5C 363.92,1270.25 362.587,1268.58 360.5,1267.5C 359.214,1264.88 357.547,1262.55 355.5,1260.5C 355.5,1259.83 355.5,1259.17 355.5,1258.5C 351.776,1250.72 347.776,1243.05 343.5,1235.5C 342.817,1235.14 342.15,1234.8 341.5,1234.5C 341.573,1232.97 340.906,1231.97 339.5,1231.5C 339.264,1228.38 337.931,1226.05 335.5,1224.5C 335.5,1223.83 335.5,1223.17 335.5,1222.5C 333.626,1216.41 331.459,1210.41 329,1204.5C 328.829,1197.32 328.329,1190.32 327.5,1183.5C 327.815,1170.42 326.981,1157.42 325,1144.5C 324.667,1113.83 324.333,1083.17 324,1052.5C 323.751,1046.94 322.918,1041.6 321.5,1036.5C 319.663,1005.87 318.996,975.208 319.5,944.5C 320.331,937.869 320.664,931.202 320.5,924.5C 321.657,921.727 322.324,918.727 322.5,915.5C 323.66,911.319 324.66,906.985 325.5,902.5C 325.5,901.167 325.5,899.833 325.5,898.5C 326.924,896.485 327.59,894.152 327.5,891.5C 327.366,889.708 327.699,888.042 328.5,886.5C 331.14,881.915 332.806,876.915 333.5,871.5C 335.94,867.183 337.607,862.517 338.5,857.5C 338.5,856.833 338.833,856.5 339.5,856.5C 345.481,844.539 351.481,832.539 357.5,820.5C 357.5,819.833 357.5,819.167 357.5,818.5C 358.906,818.027 359.573,817.027 359.5,815.5C 361.369,813.966 362.702,811.966 363.5,809.5C 365.262,808.738 366.262,807.404 366.5,805.5C 373.901,796.594 381.901,788.094 390.5,780C 398.325,774.006 405.658,767.506 412.5,760.5C 414.404,760.262 415.738,759.262 416.5,757.5C 418.404,757.262 419.738,756.262 420.5,754.5C 422.848,754.408 424.514,753.408 425.5,751.5C 446.615,741.109 467.615,730.443 488.5,719.5C 490.674,719.25 492.341,718.25 493.5,716.5C 498.35,715.884 502.683,714.217 506.5,711.5C 511.735,709.871 516.735,707.871 521.5,705.5C 524.397,704.871 527.064,703.871 529.5,702.5C 538.437,700.408 547.103,697.741 555.5,694.5C 561.487,693.591 567.153,691.924 572.5,689.5C 574.898,689.741 576.898,689.074 578.5,687.5C 581.829,687.785 584.829,687.118 587.5,685.5C 595.431,682.851 603.431,680.851 611.5,679.5C 617.374,678.951 623.041,677.951 628.5,676.5C 635.422,676.344 642.089,675.344 648.5,673.5C 652.122,673.678 655.456,673.011 658.5,671.5C 661.167,671.5 663.833,671.5 666.5,671.5C 674.066,671.228 681.399,670.228 688.5,668.5C 697.135,668.867 705.468,667.867 713.5,665.5C 719.509,665.666 725.509,665.499 731.5,665C 745.379,662.303 759.379,660.636 773.5,660C 778.598,659.523 783.265,658.356 787.5,656.5C 788.5,656.5 789.5,656.5 790.5,656.5C 816.372,656.741 842.038,655.741 867.5,653.5C 869.833,653.5 872.167,653.5 874.5,653.5C 881.5,653.5 888.5,653.5 895.5,653.5C 919.523,652.806 943.523,651.639 967.5,650C 1007.5,649.5 1047.5,649.333 1087.5,649.5 Z"/></g>
<g><path style="opacity:1" fill="#666666" d="M 1098.5,647.5 C 1122.65,648.604 1146.65,649.604 1170.5,650.5C 1167.5,650.5 1164.5,650.5 1161.5,650.5C 1150.83,650.5 1140.17,650.5 1129.5,650.5C 1124.02,649.511 1118.36,649.178 1112.5,649.5C 1107.83,648.833 1103.17,648.167 1098.5,647.5 Z"/></g>
<g><path style="opacity:1" fill="#e7e7e7" d="M 995.5,648.5 C 1026.34,648.169 1057,648.502 1087.5,649.5C 1047.5,649.333 1007.5,649.5 967.5,650C 943.523,651.639 919.523,652.806 895.5,653.5C 899.5,652.833 903.5,652.167 907.5,651.5C 908.391,650.89 909.391,650.557 910.5,650.5C 938.841,650.114 967.174,649.447 995.5,648.5 Z"/></g>
<g><path style="opacity:1" fill="#e3e3e3" d="M 1129.5,650.5 C 1140.17,650.5 1150.83,650.5 1161.5,650.5C 1175.97,652.074 1190.64,652.741 1205.5,652.5C 1205.5,652.833 1205.5,653.167 1205.5,653.5C 1183.49,653.538 1161.49,653.038 1139.5,652C 1135.97,651.821 1132.64,651.321 1129.5,650.5 Z"/></g>
<g><path style="opacity:1" fill="#888888" d="M 1161.5,650.5 C 1164.5,650.5 1167.5,650.5 1170.5,650.5C 1182.33,650.939 1194,651.606 1205.5,652.5C 1190.64,652.741 1175.97,652.074 1161.5,650.5 Z"/></g>
<g><path style="opacity:1" fill="#737373" d="M 885.5,651.5 C 881.833,652.167 878.167,652.833 874.5,653.5C 872.167,653.5 869.833,653.5 867.5,653.5C 861.833,653.5 856.167,653.5 850.5,653.5C 861.964,651.953 873.631,651.286 885.5,651.5 Z"/></g>
<g><path style="opacity:1" fill="#c2c2c2" d="M 885.5,651.5 C 892.833,651.5 900.167,651.5 907.5,651.5C 903.5,652.167 899.5,652.833 895.5,653.5C 888.5,653.5 881.5,653.5 874.5,653.5C 878.167,652.833 881.833,652.167 885.5,651.5 Z"/></g>
<g><path style="opacity:1" fill="#676767" d="M 847.5,653.5 C 830.004,654.506 812.338,655.173 794.5,655.5C 811.969,653.792 829.636,653.125 847.5,653.5 Z"/></g>
<g><path style="opacity:1" fill="#646464" d="M 1222.5,652.5 C 1228.2,652.375 1233.87,652.708 1239.5,653.5C 1239.5,653.833 1239.5,654.167 1239.5,654.5C 1233.63,654.404 1227.96,653.737 1222.5,652.5 Z"/></g>
<g><path style="opacity:1" fill="#d2d2d2" d="M 847.5,653.5 C 848.5,653.5 849.5,653.5 850.5,653.5C 856.167,653.5 861.833,653.5 867.5,653.5C 842.038,655.741 816.372,656.741 790.5,656.5C 791.568,655.566 792.901,655.232 794.5,655.5C 812.338,655.173 830.004,654.506 847.5,653.5 Z"/></g>
<g><path style="opacity:1" fill="#c2c2c2" d="M 1205.5,653.5 C 1205.5,653.167 1205.5,652.833 1205.5,652.5C 1211.17,652.5 1216.83,652.5 1222.5,652.5C 1227.96,653.737 1233.63,654.404 1239.5,654.5C 1244.18,654.669 1248.85,655.002 1253.5,655.5C 1256.83,656.167 1260.17,656.833 1263.5,657.5C 1244.1,656.292 1224.77,654.959 1205.5,653.5 Z"/></g>
<g><path style="opacity:1" fill="#4e4e4e" d="M 1239.5,654.5 C 1239.5,654.167 1239.5,653.833 1239.5,653.5C 1247.03,653.626 1254.36,654.293 1261.5,655.5C 1258.83,655.5 1256.17,655.5 1253.5,655.5C 1248.85,655.002 1244.18,654.669 1239.5,654.5 Z"/></g>
<g><path style="opacity:1" fill="#939393" d="M 1253.5,655.5 C 1256.17,655.5 1258.83,655.5 1261.5,655.5C 1265.04,655.753 1268.37,656.419 1271.5,657.5C 1270.17,657.5 1268.83,657.5 1267.5,657.5C 1266.17,657.5 1264.83,657.5 1263.5,657.5C 1260.17,656.833 1256.83,656.167 1253.5,655.5 Z"/></g>
<g><path style="opacity:1" fill="#818181" d="M 1272.5,657.5 C 1278.43,657.128 1284.1,657.795 1289.5,659.5C 1283.63,659.404 1277.96,658.737 1272.5,657.5 Z"/></g>
<g><path style="opacity:1" fill="#cfcfcf" d="M 1267.5,657.5 C 1268.83,657.5 1270.17,657.5 1271.5,657.5C 1271.83,657.5 1272.17,657.5 1272.5,657.5C 1277.96,658.737 1283.63,659.404 1289.5,659.5C 1291.17,659.5 1292.83,659.5 1294.5,659.5C 1301.58,661.415 1308.91,662.415 1316.5,662.5C 1319.79,663.257 1323.12,663.924 1326.5,664.5C 1333.98,665.584 1341.65,666.251 1349.5,666.5C 1349.5,666.833 1349.5,667.167 1349.5,667.5C 1348.17,667.5 1346.83,667.5 1345.5,667.5C 1330.11,666.31 1314.78,664.81 1299.5,663C 1289.62,661.058 1279.62,659.725 1269.5,659C 1268.58,658.722 1267.92,658.222 1267.5,657.5 Z"/></g>
<g><path style="opacity:1" fill="#6d6d6d" d="M 760.5,658.5 C 748.14,661.463 735.473,663.129 722.5,663.5C 734.968,661.361 747.634,659.694 760.5,658.5 Z"/></g>
<g><path style="opacity:1" fill="#515151" d="M 1294.5,659.5 C 1302.06,659.86 1309.39,660.86 1316.5,662.5C 1308.91,662.415 1301.58,661.415 1294.5,659.5 Z"/></g>
<g><path style="opacity:1" fill="#d2d2d2" d="M 787.5,656.5 C 783.265,658.356 778.598,659.523 773.5,660C 759.379,660.636 745.379,662.303 731.5,665C 725.509,665.499 719.509,665.666 713.5,665.5C 716.5,664.833 719.5,664.167 722.5,663.5C 735.473,663.129 748.14,661.463 760.5,658.5C 769.512,657.98 778.512,657.314 787.5,656.5 Z"/></g>
<g><path style="opacity:1" fill="#5b5b5b" d="M 1326.5,664.5 C 1334.4,664.201 1342.06,664.868 1349.5,666.5C 1341.65,666.251 1333.98,665.584 1326.5,664.5 Z"/></g>
<g><path style="opacity:1" fill="#727272" d="M 705.5,665.5 C 701.433,667.054 697.1,667.72 692.5,667.5C 696.567,665.946 700.9,665.28 705.5,665.5 Z"/></g>
<g><path style="opacity:1" fill="#c5c5c5" d="M 705.5,665.5 C 708.167,665.5 710.833,665.5 713.5,665.5C 705.468,667.867 697.135,668.867 688.5,668.5C 689.568,667.566 690.901,667.232 692.5,667.5C 697.1,667.72 701.433,667.054 705.5,665.5 Z"/></g>
<g><path style="opacity:1" fill="#e6e6e6" d="M 1345.5,667.5 C 1346.83,667.5 1348.17,667.5 1349.5,667.5C 1350.17,667.5 1350.83,667.5 1351.5,667.5C 1356.27,668.889 1361.27,669.556 1366.5,669.5C 1367.17,669.5 1367.83,669.5 1368.5,669.5C 1374.3,670.682 1380.3,671.348 1386.5,671.5C 1390.47,672.162 1394.47,672.495 1398.5,672.5C 1398.83,672.5 1399.17,672.5 1399.5,672.5C 1399.5,672.833 1399.5,673.167 1399.5,673.5C 1382.12,672.596 1364.79,671.096 1347.5,669C 1346.58,668.722 1345.92,668.222 1345.5,667.5 Z"/></g>
<g><path style="opacity:1" fill="#a3a3a3" d="M 1351.5,667.5 C 1354.17,667.5 1356.83,667.5 1359.5,667.5C 1361.83,668.167 1364.17,668.833 1366.5,669.5C 1361.27,669.556 1356.27,668.889 1351.5,667.5 Z"/></g>
<g><path style="opacity:1" fill="#4e4e4e" d="M 1359.5,667.5 C 1364.75,667.302 1369.75,667.969 1374.5,669.5C 1372.5,669.5 1370.5,669.5 1368.5,669.5C 1367.83,669.5 1367.17,669.5 1366.5,669.5C 1364.17,668.833 1361.83,668.167 1359.5,667.5 Z"/></g>
<g><path style="opacity:1" fill="#5f5f5f" d="M 680.5,668.5 C 675.833,669.5 671.167,670.5 666.5,671.5C 663.833,671.5 661.167,671.5 658.5,671.5C 665.601,669.772 672.934,668.772 680.5,668.5 Z"/></g>
<g><path style="opacity:1" fill="#bebebe" d="M 680.5,668.5 C 683.167,668.5 685.833,668.5 688.5,668.5C 681.399,670.228 674.066,671.228 666.5,671.5C 671.167,670.5 675.833,669.5 680.5,668.5 Z"/></g>
<g><path style="opacity:1" fill="#a2a2a2" d="M 1368.5,669.5 C 1370.5,669.5 1372.5,669.5 1374.5,669.5C 1376.5,669.5 1378.5,669.5 1380.5,669.5C 1382.5,670.167 1384.5,670.833 1386.5,671.5C 1380.3,671.348 1374.3,670.682 1368.5,669.5 Z"/></g>
<g><path style="opacity:1" fill="#595959" d="M 1380.5,669.5 C 1386.8,669.532 1392.8,670.532 1398.5,672.5C 1394.47,672.495 1390.47,672.162 1386.5,671.5C 1384.5,670.833 1382.5,670.167 1380.5,669.5 Z"/></g>
<g><path style="opacity:1" fill="#7a7a7a" d="M 658.5,671.5 C 655.456,673.011 652.122,673.678 648.5,673.5C 647.833,673.5 647.167,673.5 646.5,673.5C 650.21,671.864 654.21,671.198 658.5,671.5 Z"/></g>
<g><path style="opacity:1" fill="#8d8d8d" d="M 1399.5,673.5 C 1399.5,673.167 1399.5,672.833 1399.5,672.5C 1403.79,672.198 1407.79,672.864 1411.5,674.5C 1407.47,674.495 1403.47,674.162 1399.5,673.5 Z"/></g>
<g><path style="opacity:1" fill="#a5a5a5" d="M 646.5,673.5 C 647.167,673.5 647.833,673.5 648.5,673.5C 642.089,675.344 635.422,676.344 628.5,676.5C 634.268,674.872 640.268,673.872 646.5,673.5 Z"/></g>
<g><path style="opacity:1" fill="#777777" d="M 1415.5,674.5 C 1420.73,674.444 1425.73,675.111 1430.5,676.5C 1425.27,676.556 1420.27,675.889 1415.5,674.5 Z"/></g>
<g><path style="opacity:1" fill="#6c6c6c" d="M 1431.5,676.5 C 1436.1,676.28 1440.43,676.946 1444.5,678.5C 1439.9,678.72 1435.57,678.054 1431.5,676.5 Z"/></g>
<g><path style="opacity:1" fill="#707070" d="M 628.5,676.5 C 623.041,677.951 617.374,678.951 611.5,679.5C 616.83,677.333 622.497,676.333 628.5,676.5 Z"/></g>
<g><path style="opacity:1" fill="#acacac" d="M 1450.5,679.5 C 1451.83,679.5 1453.17,679.5 1454.5,679.5C 1455.5,680.167 1456.5,680.833 1457.5,681.5C 1454.85,681.59 1452.51,680.924 1450.5,679.5 Z"/></g>
<g><path style="opacity:1" fill="#515151" d="M 1454.5,679.5 C 1459.78,679.775 1464.78,680.775 1469.5,682.5C 1466.83,682.167 1464.17,681.833 1461.5,681.5C 1460.17,681.5 1458.83,681.5 1457.5,681.5C 1456.5,680.833 1455.5,680.167 1454.5,679.5 Z"/></g>
<g><path style="opacity:1" fill="#c0c0c0" d="M 1461.5,681.5 C 1464.17,681.833 1466.83,682.167 1469.5,682.5C 1473.48,683.295 1477.48,683.962 1481.5,684.5C 1483.51,685.924 1485.85,686.59 1488.5,686.5C 1493.24,686.951 1497.9,687.618 1502.5,688.5C 1504.17,689.167 1505.83,689.833 1507.5,690.5C 1504.15,690.665 1500.82,690.498 1497.5,690C 1488.82,688.198 1480.16,686.531 1471.5,685C 1467.89,684.299 1464.56,683.132 1461.5,681.5 Z"/></g>
<g><path style="opacity:1" fill="#6b6b6b" d="M 1481.5,684.5 C 1484.15,684.41 1486.49,685.076 1488.5,686.5C 1485.85,686.59 1483.51,685.924 1481.5,684.5 Z"/></g>
<g><path style="opacity:1" fill="#646464" d="M 587.5,685.5 C 584.829,687.118 581.829,687.785 578.5,687.5C 581.273,686.343 584.273,685.676 587.5,685.5 Z"/></g>
<g><path style="opacity:1" fill="#757575" d="M 578.5,687.5 C 576.898,689.074 574.898,689.741 572.5,689.5C 574.102,687.926 576.102,687.259 578.5,687.5 Z"/></g>
<g><path style="opacity:1" fill="#4e4e4e" d="M 1502.5,688.5 C 1507.41,688.362 1512.08,689.028 1516.5,690.5C 1513.83,690.5 1511.17,690.5 1508.5,690.5C 1508.17,690.5 1507.83,690.5 1507.5,690.5C 1505.83,689.833 1504.17,689.167 1502.5,688.5 Z"/></g>
<g><path style="opacity:1" fill="#4e4e4e" d="M 1520.5,691.5 C 1525.41,691.362 1530.08,692.028 1534.5,693.5C 1529.57,693.771 1524.9,693.104 1520.5,691.5 Z"/></g>
<g><path style="opacity:1" fill="#8a8a8a" d="M 572.5,689.5 C 567.153,691.924 561.487,693.591 555.5,694.5C 560.8,691.964 566.467,690.297 572.5,689.5 Z"/></g>
<g><path style="opacity:1" fill="#d7d7d7" d="M 1508.5,690.5 C 1511.17,690.5 1513.83,690.5 1516.5,690.5C 1517.57,691.434 1518.9,691.768 1520.5,691.5C 1524.9,693.104 1529.57,693.771 1534.5,693.5C 1535.92,694.451 1537.59,694.784 1539.5,694.5C 1542.74,695.865 1546.07,696.865 1549.5,697.5C 1539.86,696.386 1530.19,695.219 1520.5,694C 1516.21,693.431 1512.21,692.264 1508.5,690.5 Z"/></g>
<g><path style="opacity:1" fill="#767676" d="M 1539.5,694.5 C 1546.77,695.104 1553.77,696.438 1560.5,698.5C 1557.19,697.949 1553.86,697.616 1550.5,697.5C 1550.17,697.5 1549.83,697.5 1549.5,697.5C 1546.07,696.865 1542.74,695.865 1539.5,694.5 Z"/></g>
<g><path style="opacity:1" fill="#cecece" d="M 1550.5,697.5 C 1553.86,697.616 1557.19,697.949 1560.5,698.5C 1562.5,698.5 1564.5,698.5 1566.5,698.5C 1567.5,699.167 1568.5,699.833 1569.5,700.5C 1563.51,700.001 1557.51,699.501 1551.5,699C 1550.94,698.617 1550.61,698.117 1550.5,697.5 Z"/></g>
<g><path style="opacity:1" fill="#646464" d="M 1566.5,698.5 C 1569.15,698.41 1571.49,699.076 1573.5,700.5C 1572.17,700.5 1570.83,700.5 1569.5,700.5C 1568.5,699.833 1567.5,699.167 1566.5,698.5 Z"/></g>
<g><path style="opacity:1" fill="#929292" d="M 555.5,694.5 C 547.103,697.741 538.437,700.408 529.5,702.5C 537.746,698.724 546.413,696.058 555.5,694.5 Z"/></g>
<g><path style="opacity:1" fill="#6b6b6b" d="M 1577.5,700.5 C 1580.15,700.41 1582.49,701.076 1584.5,702.5C 1581.85,702.59 1579.51,701.924 1577.5,700.5 Z"/></g>
<g><path style="opacity:1" fill="#737373" d="M 529.5,702.5 C 527.064,703.871 524.397,704.871 521.5,705.5C 523.617,703.345 526.284,702.345 529.5,702.5 Z"/></g>
<g><path style="opacity:1" fill="#c2c2c2" d="M 1573.5,700.5 C 1574.83,700.5 1576.17,700.5 1577.5,700.5C 1579.51,701.924 1581.85,702.59 1584.5,702.5C 1587.83,702.833 1591.17,703.167 1594.5,703.5C 1596.51,704.924 1598.85,705.59 1601.5,705.5C 1601.83,705.5 1602.17,705.5 1602.5,705.5C 1602.5,705.833 1602.5,706.167 1602.5,706.5C 1599.15,706.665 1595.82,706.498 1592.5,706C 1585.9,704.723 1579.57,702.889 1573.5,700.5 Z"/></g>
<g><path style="opacity:1" fill="#565656" d="M 1594.5,703.5 C 1597.23,703.171 1599.56,703.837 1601.5,705.5C 1598.85,705.59 1596.51,704.924 1594.5,703.5 Z"/></g>
<g><path style="opacity:1" fill="#787878" d="M 1602.5,706.5 C 1602.5,706.167 1602.5,705.833 1602.5,705.5C 1605.15,705.41 1607.49,706.076 1609.5,707.5C 1607.14,707.326 1604.81,706.993 1602.5,706.5 Z"/></g>
<g><path style="opacity:1" fill="#7c7c7c" d="M 521.5,705.5 C 516.735,707.871 511.735,709.871 506.5,711.5C 510.864,708.16 515.864,706.16 521.5,705.5 Z"/></g>
<g><path style="opacity:1" fill="#9a9a9a" d="M 1609.5,707.5 C 1610.83,707.5 1612.17,707.5 1613.5,707.5C 1614.5,708.167 1615.5,708.833 1616.5,709.5C 1613.85,709.59 1611.51,708.924 1609.5,707.5 Z"/></g>
<g><path style="opacity:1" fill="#474747" d="M 1613.5,707.5 C 1616.92,707.528 1619.92,708.528 1622.5,710.5C 1622.17,710.5 1621.83,710.5 1621.5,710.5C 1619.78,710.371 1618.12,710.038 1616.5,709.5C 1615.5,708.833 1614.5,708.167 1613.5,707.5 Z"/></g>
<g><path style="opacity:1" fill="#bababa" d="M 1621.5,710.5 C 1621.83,710.5 1622.17,710.5 1622.5,710.5C 1625.37,711.634 1628.37,712.3 1631.5,712.5C 1631.83,713.167 1632.17,713.833 1632.5,714.5C 1629.18,713.671 1625.85,712.838 1622.5,712C 1621.94,711.617 1621.61,711.117 1621.5,710.5 Z"/></g>
<g><path style="opacity:1" fill="#5b5b5b" d="M 1631.5,712.5 C 1638.92,714.413 1645.92,717.079 1652.5,720.5C 1646.17,718.5 1639.83,716.5 1633.5,714.5C 1633.17,714.5 1632.83,714.5 1632.5,714.5C 1632.17,713.833 1631.83,713.167 1631.5,712.5 Z"/></g>
<g><path style="opacity:1" fill="#8d8d8d" d="M 506.5,711.5 C 502.683,714.217 498.35,715.884 493.5,716.5C 497.395,713.866 501.728,712.199 506.5,711.5 Z"/></g>
<g><path style="opacity:1" fill="#7e7e7e" d="M 493.5,716.5 C 492.341,718.25 490.674,719.25 488.5,719.5C 489.486,717.592 491.152,716.592 493.5,716.5 Z"/></g>
<g><path style="opacity:1" fill="#d3d3d3" d="M 1633.5,714.5 C 1639.83,716.5 1646.17,718.5 1652.5,720.5C 1654.04,721.301 1655.71,721.634 1657.5,721.5C 1657.83,722.167 1658.17,722.833 1658.5,723.5C 1650.55,721.685 1642.72,719.351 1635,716.5C 1633.97,716.164 1633.47,715.497 1633.5,714.5 Z"/></g>
<g><path style="opacity:1" fill="#5c5c5c" d="M 1657.5,721.5 C 1660.95,722.083 1663.95,723.416 1666.5,725.5C 1664.17,724.833 1661.83,724.167 1659.5,723.5C 1659.17,723.5 1658.83,723.5 1658.5,723.5C 1658.17,722.833 1657.83,722.167 1657.5,721.5 Z"/></g>
<g><path style="opacity:1" fill="#bbbbbb" d="M 1659.5,723.5 C 1661.83,724.167 1664.17,724.833 1666.5,725.5C 1668.79,725.595 1670.79,726.262 1672.5,727.5C 1669.16,727.11 1665.83,726.61 1662.5,726C 1660.88,725.764 1659.88,724.931 1659.5,723.5 Z"/></g>
<g><path style="opacity:1" fill="#939393" d="M 1672.5,727.5 C 1675.4,728.129 1678.06,729.129 1680.5,730.5C 1677.28,730.655 1674.62,729.655 1672.5,727.5 Z"/></g>
<g><path style="opacity:1" fill="#636363" d="M 1682.5,730.5 C 1687.93,731.747 1692.93,733.747 1697.5,736.5C 1692.07,735.253 1687.07,733.253 1682.5,730.5 Z"/></g>
<g><path style="opacity:1" fill="#9d9d9d" d="M 488.5,719.5 C 467.615,730.443 446.615,741.109 425.5,751.5C 444.47,740.011 464.136,729.511 484.5,720C 485.793,719.51 487.127,719.343 488.5,719.5 Z"/></g>
<g><path style="opacity:1" fill="#7e7e7e" d="M 1698.5,736.5 C 1704.61,738.063 1710.27,740.396 1715.5,743.5C 1713.88,742.962 1712.22,742.629 1710.5,742.5C 1706.22,741.027 1702.22,739.027 1698.5,736.5 Z"/></g>
<g><path style="opacity:1" fill="#595959" d="M 1719.5,744.5 C 1721.03,744.427 1722.03,745.094 1722.5,746.5C 1720.97,746.573 1719.97,745.906 1719.5,744.5 Z"/></g>
<g><path style="opacity:1" fill="#cbcbcb" d="M 1710.5,742.5 C 1712.22,742.629 1713.88,742.962 1715.5,743.5C 1716.83,743.833 1718.17,744.167 1719.5,744.5C 1719.97,745.906 1720.97,746.573 1722.5,746.5C 1723.17,747.167 1723.83,747.833 1724.5,748.5C 1719.52,747.068 1714.86,745.068 1710.5,742.5 Z"/></g>
<g><path style="opacity:1" fill="#b6b6b6" d="M 1724.5,748.5 C 1728.26,749.548 1731.93,750.881 1735.5,752.5C 1735.83,753.167 1736.17,753.833 1736.5,754.5C 1732.1,753.088 1728.1,751.088 1724.5,748.5 Z"/></g>
<g><path style="opacity:1" fill="#808080" d="M 425.5,751.5 C 424.514,753.408 422.848,754.408 420.5,754.5C 421.659,752.75 423.326,751.75 425.5,751.5 Z"/></g>
<g><path style="opacity:1" fill="#4e4e4e" d="M 1735.5,752.5 C 1737.4,752.738 1738.74,753.738 1739.5,755.5C 1738.39,755.443 1737.39,755.11 1736.5,754.5C 1736.17,753.833 1735.83,753.167 1735.5,752.5 Z"/></g>
<g><path style="opacity:1" fill="#7b7b7b" d="M 420.5,754.5 C 419.738,756.262 418.404,757.262 416.5,757.5C 417.262,755.738 418.596,754.738 420.5,754.5 Z"/></g>
<g><path style="opacity:1" fill="#4c4c4c" d="M 1741.5,756.5 C 1743.03,756.427 1744.03,757.094 1744.5,758.5C 1742.97,758.573 1741.97,757.906 1741.5,756.5 Z"/></g>
<g><path style="opacity:1" fill="#868686" d="M 416.5,757.5 C 415.738,759.262 414.404,760.262 412.5,760.5C 413.262,758.738 414.596,757.738 416.5,757.5 Z"/></g>
<g><path style="opacity:1" fill="#3c3c3c" d="M 1748.5,761.5 C 1750.75,762.08 1752.42,763.413 1753.5,765.5C 1751.25,764.92 1749.58,763.587 1748.5,761.5 Z"/></g>
<g><path style="opacity:1" fill="#747474" d="M 1762.5,774.5 C 1765.9,776.9 1768.57,779.9 1770.5,783.5C 1767.1,781.1 1764.43,778.1 1762.5,774.5 Z"/></g>
<g><path style="opacity:1" fill="#808080" d="M 1770.5,783.5 C 1778.22,790.222 1785.22,797.555 1791.5,805.5C 1783.78,798.778 1776.78,791.445 1770.5,783.5 Z"/></g>
<g><path style="opacity:1" fill="#8c8c8c" d="M 412.5,760.5 C 405.658,767.506 398.325,774.006 390.5,780C 381.901,788.094 373.901,796.594 366.5,805.5C 379.208,787.791 394.542,772.791 412.5,760.5 Z"/></g>
<g><path style="opacity:1" fill="#898989" d="M 366.5,805.5 C 366.262,807.404 365.262,808.738 363.5,809.5C 363.738,807.596 364.738,806.262 366.5,805.5 Z"/></g>
<g><path style="opacity:1" fill="#949494" d="M 1791.5,805.5 C 1796.23,809.227 1800.23,813.56 1803.5,818.5C 1798.77,814.773 1794.77,810.44 1791.5,805.5 Z"/></g>
<g><path style="opacity:1" fill="#989898" d="M 363.5,809.5 C 362.702,811.966 361.369,813.966 359.5,815.5C 359.845,812.802 361.178,810.802 363.5,809.5 Z"/></g>
<g><path style="opacity:1" fill="#777777" d="M 359.5,815.5 C 359.573,817.027 358.906,818.027 357.5,818.5C 357.427,816.973 358.094,815.973 359.5,815.5 Z"/></g>
<g><path style="opacity:1" fill="#979797" d="M 1803.5,818.5 C 1807.23,821.231 1810.23,824.564 1812.5,828.5C 1808.77,825.769 1805.77,822.436 1803.5,818.5 Z"/></g>
<g><path style="opacity:1" fill="#616161" d="M 357.5,818.5 C 357.5,819.167 357.5,819.833 357.5,820.5C 356.833,820.833 356.167,821.167 355.5,821.5C 355.427,819.973 356.094,818.973 357.5,818.5 Z"/></g>
<g><path style="opacity:1" fill="#8b8b8b" d="M 1812.5,828.5 C 1814.26,829.262 1815.26,830.596 1815.5,832.5C 1813.74,831.738 1812.74,830.404 1812.5,828.5 Z"/></g>
<g><path style="opacity:1" fill="#878787" d="M 1815.5,832.5 C 1817.26,833.262 1818.26,834.596 1818.5,836.5C 1816.74,835.738 1815.74,834.404 1815.5,832.5 Z"/></g>
<g><path style="opacity:1" fill="#818181" d="M 1818.5,836.5 C 1819.91,836.973 1820.57,837.973 1820.5,839.5C 1819.09,839.027 1818.43,838.027 1818.5,836.5 Z"/></g>
<g><path style="opacity:1" fill="#7d7d7d" d="M 1820.5,839.5 C 1822.26,840.262 1823.26,841.596 1823.5,843.5C 1821.74,842.738 1820.74,841.404 1820.5,839.5 Z"/></g>
<g><path style="opacity:1" fill="#9a9a9a" d="M 357.5,820.5 C 351.481,832.539 345.481,844.539 339.5,856.5C 343.487,844.195 348.82,832.528 355.5,821.5C 356.167,821.167 356.833,820.833 357.5,820.5 Z"/></g>
<g><path style="opacity:1" fill="#686868" d="M 1823.5,843.5 C 1824.91,843.973 1825.57,844.973 1825.5,846.5C 1824.83,846.167 1824.17,845.833 1823.5,845.5C 1823.5,844.833 1823.5,844.167 1823.5,843.5 Z"/></g>
<g><path style="opacity:1" fill="#adadad" d="M 1823.5,845.5 C 1824.17,845.833 1824.83,846.167 1825.5,846.5C 1828.67,850.833 1831.34,855.5 1833.5,860.5C 1833.43,862.027 1834.09,863.027 1835.5,863.5C 1836.67,864.514 1837.34,865.847 1837.5,867.5C 1837.43,869.027 1838.09,870.027 1839.5,870.5C 1840.67,871.514 1841.34,872.847 1841.5,874.5C 1839.98,873.826 1838.64,872.826 1837.5,871.5C 1833.29,862.616 1828.63,853.949 1823.5,845.5 Z"/></g>
<g><path style="opacity:1" fill="#6d6d6d" d="M 1833.5,860.5 C 1834.91,860.973 1835.57,861.973 1835.5,863.5C 1834.09,863.027 1833.43,862.027 1833.5,860.5 Z"/></g>
<g><path style="opacity:1" fill="#7b7b7b" d="M 338.5,857.5 C 337.607,862.517 335.94,867.183 333.5,871.5C 334.079,866.362 335.746,861.695 338.5,857.5 Z"/></g>
<g><path style="opacity:1" fill="#6a6a6a" d="M 1837.5,867.5 C 1838.91,867.973 1839.57,868.973 1839.5,870.5C 1838.09,870.027 1837.43,869.027 1837.5,867.5 Z"/></g>
<g><path style="opacity:1" fill="#8c8c8c" d="M 333.5,871.5 C 332.806,876.915 331.14,881.915 328.5,886.5C 329.589,881.233 331.256,876.233 333.5,871.5 Z"/></g>
<g><path style="opacity:1" fill="#757575" d="M 1841.5,874.5 C 1842.91,874.973 1843.57,875.973 1843.5,877.5C 1842.09,877.027 1841.43,876.027 1841.5,874.5 Z"/></g>
<g><path style="opacity:1" fill="#676767" d="M 1843.5,877.5 C 1844.91,877.973 1845.57,878.973 1845.5,880.5C 1844.83,880.167 1844.17,879.833 1843.5,879.5C 1843.5,878.833 1843.5,878.167 1843.5,877.5 Z"/></g>
<g><path style="opacity:1" fill="#9e9e9e" d="M 1843.5,879.5 C 1844.17,879.833 1844.83,880.167 1845.5,880.5C 1849.92,886.334 1853.59,892.668 1856.5,899.5C 1851.2,893.589 1846.86,886.922 1843.5,879.5 Z"/></g>
<g><path style="opacity:1" fill="#797979" d="M 327.5,891.5 C 327.59,894.152 326.924,896.485 325.5,898.5C 325.41,895.848 326.076,893.515 327.5,891.5 Z"/></g>
<g><path style="opacity:1" fill="#616161" d="M 1856.5,899.5 C 1857.91,899.973 1858.57,900.973 1858.5,902.5C 1857.09,902.027 1856.43,901.027 1856.5,899.5 Z"/></g>
<g><path style="opacity:1" fill="#535353" d="M 325.5,898.5 C 325.5,899.833 325.5,901.167 325.5,902.5C 324.833,903.5 324.167,904.5 323.5,905.5C 323.41,902.848 324.076,900.515 325.5,898.5 Z"/></g>
<g><path style="opacity:1" fill="#7c7c7c" d="M 1858.5,902.5 C 1860.95,905.74 1862.62,909.407 1863.5,913.5C 1860.5,910.503 1858.84,906.836 1858.5,902.5 Z"/></g>
<g><path style="opacity:1" fill="#999999" d="M 325.5,902.5 C 324.66,906.985 323.66,911.319 322.5,915.5C 322.5,914.167 322.5,912.833 322.5,911.5C 322.517,909.435 322.85,907.435 323.5,905.5C 324.167,904.5 324.833,903.5 325.5,902.5 Z"/></g>
<g><path style="opacity:1" fill="#737373" d="M 1864.5,917.5 C 1867.32,921.63 1868.99,926.297 1869.5,931.5C 1868.17,928.5 1866.83,925.5 1865.5,922.5C 1864.7,920.958 1864.37,919.292 1864.5,917.5 Z"/></g>
<g><path style="opacity:1" fill="#626262" d="M 322.5,911.5 C 322.5,912.833 322.5,914.167 322.5,915.5C 322.324,918.727 321.657,921.727 320.5,924.5C 320.28,919.9 320.946,915.567 322.5,911.5 Z"/></g>
<g><path style="opacity:1" fill="#d0d0d0" d="M 1865.5,922.5 C 1866.83,925.5 1868.17,928.5 1869.5,931.5C 1869.5,931.833 1869.5,932.167 1869.5,932.5C 1869.5,933.5 1869.5,934.5 1869.5,935.5C 1867.39,931.498 1866.06,927.165 1865.5,922.5 Z"/></g>
<g><path style="opacity:1" fill="#5d5d5d" d="M 1869.5,932.5 C 1871.07,934.102 1871.74,936.102 1871.5,938.5C 1871.17,938.5 1870.83,938.5 1870.5,938.5C 1870.44,937.391 1870.11,936.391 1869.5,935.5C 1869.5,934.5 1869.5,933.5 1869.5,932.5 Z"/></g>
<g><path style="opacity:1" fill="#595959" d="M 320.5,924.5 C 320.664,931.202 320.331,937.869 319.5,944.5C 319.167,944.5 318.833,944.5 318.5,944.5C 318.735,937.646 319.402,930.979 320.5,924.5 Z"/></g>
<g><path style="opacity:1" fill="#4a4a4a" d="M 1871.5,940.5 C 1872.92,942.515 1873.59,944.848 1873.5,947.5C 1872.08,945.485 1871.41,943.152 1871.5,940.5 Z"/></g>
<g><path style="opacity:1" fill="#a2a2a2" d="M 1870.5,938.5 C 1870.83,938.5 1871.17,938.5 1871.5,938.5C 1871.5,939.167 1871.5,939.833 1871.5,940.5C 1871.41,943.152 1872.08,945.485 1873.5,947.5C 1874.32,950.764 1874.66,954.098 1874.5,957.5C 1873.01,954.055 1871.85,950.388 1871,946.5C 1870.5,943.854 1870.34,941.187 1870.5,938.5 Z"/></g>
<g><path style="opacity:1" fill="#8c8c8c" d="M 1874.5,959.5 C 1875.86,965.31 1876.86,971.31 1877.5,977.5C 1875.4,971.82 1874.4,965.82 1874.5,959.5 Z"/></g>
<g><path style="opacity:1" fill="#9f9f9f" d="M 1877.5,979.5 C 1878.58,982.627 1879.25,985.96 1879.5,989.5C 1878.78,989.082 1878.28,988.416 1878,987.5C 1877.5,984.854 1877.34,982.187 1877.5,979.5 Z"/></g>
<g><path style="opacity:1" fill="#6f6f6f" d="M 1880.5,996.5 C 1881.92,998.515 1882.59,1000.85 1882.5,1003.5C 1881.83,1002.5 1881.17,1001.5 1880.5,1000.5C 1880.5,999.167 1880.5,997.833 1880.5,996.5 Z"/></g>
<g><path style="opacity:1" fill="#a2a2a2" d="M 1880.5,1000.5 C 1881.17,1001.5 1881.83,1002.5 1882.5,1003.5C 1883.3,1005.04 1883.63,1006.71 1883.5,1008.5C 1881.35,1006.38 1880.35,1003.72 1880.5,1000.5 Z"/></g>
<g><path style="opacity:1" fill="#999999" d="M 318.5,944.5 C 318.833,944.5 319.167,944.5 319.5,944.5C 318.996,975.208 319.663,1005.87 321.5,1036.5C 321.5,1037.5 321.5,1038.5 321.5,1039.5C 320.833,1036.83 320.167,1034.17 319.5,1031.5C 317.356,1002.52 317.023,973.523 318.5,944.5 Z"/></g>
<g><path style="opacity:1" fill="#4f4f4f" d="M 319.5,1031.5 C 320.167,1034.17 320.833,1036.83 321.5,1039.5C 322.08,1043.81 322.414,1048.14 322.5,1052.5C 322.167,1052.5 321.833,1052.5 321.5,1052.5C 320.395,1045.55 319.728,1038.55 319.5,1031.5 Z"/></g>
<g><path style="opacity:1" fill="#cccccc" d="M 1883.5,1017.5 C 1884.86,1020.58 1885.69,1023.91 1886,1027.5C 1887.33,1052.48 1887.83,1077.48 1887.5,1102.5C 1887.17,1102.5 1886.83,1102.5 1886.5,1102.5C 1887.15,1074.08 1886.15,1045.74 1883.5,1017.5 Z"/></g>
<g><path style="opacity:1" fill="#cccccc" d="M 321.5,1036.5 C 322.918,1041.6 323.751,1046.94 324,1052.5C 324.333,1083.17 324.667,1113.83 325,1144.5C 326.981,1157.42 327.815,1170.42 327.5,1183.5C 326.833,1182.17 326.167,1180.83 325.5,1179.5C 325.675,1168.96 325.009,1158.63 323.5,1148.5C 323.5,1147.17 323.5,1145.83 323.5,1144.5C 322.564,1113.85 322.23,1083.18 322.5,1052.5C 322.414,1048.14 322.08,1043.81 321.5,1039.5C 321.5,1038.5 321.5,1037.5 321.5,1036.5 Z"/></g>
<g><path style="opacity:1" fill="#3e3e3e" d="M 321.5,1052.5 C 321.833,1052.5 322.167,1052.5 322.5,1052.5C 322.23,1083.18 322.564,1113.85 323.5,1144.5C 322.686,1142.37 322.186,1140.04 322,1137.5C 321.5,1109.17 321.333,1080.84 321.5,1052.5 Z"/></g>
<g><path style="opacity:1" fill="#696969" d="M 1883.5,1009.5 C 1886.24,1019.17 1887.74,1029.17 1888,1039.5C 1888.83,1064 1888.66,1088.34 1887.5,1112.5C 1887.5,1109.17 1887.5,1105.83 1887.5,1102.5C 1887.83,1077.48 1887.33,1052.48 1886,1027.5C 1885.69,1023.91 1884.86,1020.58 1883.5,1017.5C 1883.5,1014.83 1883.5,1012.17 1883.5,1009.5 Z"/></g>
<g><path style="opacity:1" fill="#dcdcdc" d="M 1886.5,1105.5 C 1886.65,1111.87 1886.32,1118.2 1885.5,1124.5C 1885.5,1125.83 1885.5,1127.17 1885.5,1128.5C 1884.09,1131.22 1883.42,1134.22 1883.5,1137.5C 1881.93,1139.1 1881.26,1141.1 1881.5,1143.5C 1881.17,1143.5 1880.83,1143.5 1880.5,1143.5C 1882.73,1130.76 1884.73,1118.09 1886.5,1105.5 Z"/></g>
<g><path style="opacity:1" fill="#727272" d="M 1886.5,1102.5 C 1886.83,1102.5 1887.17,1102.5 1887.5,1102.5C 1887.5,1105.83 1887.5,1109.17 1887.5,1112.5C 1887.67,1115.85 1887.5,1119.18 1887,1122.5C 1886.72,1123.42 1886.22,1124.08 1885.5,1124.5C 1886.32,1118.2 1886.65,1111.87 1886.5,1105.5C 1886.5,1104.5 1886.5,1103.5 1886.5,1102.5 Z"/></g>
<g><path style="opacity:1" fill="#404040" d="M 1885.5,1128.5 C 1885.58,1131.78 1884.91,1134.78 1883.5,1137.5C 1883.42,1134.22 1884.09,1131.22 1885.5,1128.5 Z"/></g>
<g><path style="opacity:1" fill="#545454" d="M 1883.5,1137.5 C 1883.74,1139.9 1883.07,1141.9 1881.5,1143.5C 1881.26,1141.1 1881.93,1139.1 1883.5,1137.5 Z"/></g>
<g><path style="opacity:1" fill="#696969" d="M 1880.5,1143.5 C 1880.83,1143.5 1881.17,1143.5 1881.5,1143.5C 1881.28,1147.16 1880.28,1150.5 1878.5,1153.5C 1878.96,1150.12 1879.63,1146.79 1880.5,1143.5 Z"/></g>
<g><path style="opacity:1" fill="#8a8a8a" d="M 1878.5,1153.5 C 1876.87,1159.39 1874.87,1165.06 1872.5,1170.5C 1872.5,1169.83 1872.5,1169.17 1872.5,1168.5C 1873.75,1163.07 1875.75,1158.07 1878.5,1153.5 Z"/></g>
<g><path style="opacity:1" fill="#545454" d="M 323.5,1148.5 C 325.009,1158.63 325.675,1168.96 325.5,1179.5C 324.22,1169.36 323.553,1159.02 323.5,1148.5 Z"/></g>
<g><path style="opacity:1" fill="#b3b3b3" d="M 1872.5,1168.5 C 1872.5,1169.17 1872.5,1169.83 1872.5,1170.5C 1871.32,1174.22 1869.99,1177.88 1868.5,1181.5C 1868.89,1178.16 1869.39,1174.83 1870,1171.5C 1870.38,1170.06 1871.21,1169.06 1872.5,1168.5 Z"/></g>
<g><path style="opacity:1" fill="#6e6e6e" d="M 1868.5,1181.5 C 1867.92,1184.95 1866.58,1187.95 1864.5,1190.5C 1865.37,1187.89 1866.04,1185.22 1866.5,1182.5C 1867.17,1182.17 1867.83,1181.83 1868.5,1181.5 Z"/></g>
<g><path style="opacity:1" fill="#747474" d="M 325.5,1179.5 C 326.167,1180.83 326.833,1182.17 327.5,1183.5C 327.5,1190.83 327.5,1198.17 327.5,1205.5C 326.543,1197.01 325.877,1188.34 325.5,1179.5 Z"/></g>
<g><path style="opacity:1" fill="#b3b3b3" d="M 1866.5,1182.5 C 1866.04,1185.22 1865.37,1187.89 1864.5,1190.5C 1863.12,1193.59 1861.45,1196.59 1859.5,1199.5C 1859.17,1199.5 1858.83,1199.5 1858.5,1199.5C 1861.18,1193.79 1863.84,1188.12 1866.5,1182.5 Z"/></g>
<g><path style="opacity:1" fill="#c7c7c7" d="M 327.5,1183.5 C 328.329,1190.32 328.829,1197.32 329,1204.5C 331.459,1210.41 333.626,1216.41 335.5,1222.5C 334.833,1222.17 334.167,1221.83 333.5,1221.5C 333.585,1218.35 332.585,1215.68 330.5,1213.5C 329.512,1210.92 328.512,1208.26 327.5,1205.5C 327.5,1198.17 327.5,1190.83 327.5,1183.5 Z"/></g>
<g><path style="opacity:1" fill="#414141" d="M 330.5,1213.5 C 332.585,1215.68 333.585,1218.35 333.5,1221.5C 331.415,1219.32 330.415,1216.65 330.5,1213.5 Z"/></g>
<g><path style="opacity:1" fill="#515151" d="M 333.5,1221.5 C 334.167,1221.83 334.833,1222.17 335.5,1222.5C 335.5,1223.17 335.5,1223.83 335.5,1224.5C 334.094,1224.03 333.427,1223.03 333.5,1221.5 Z"/></g>
<g><path style="opacity:1" fill="#8a8a8a" d="M 335.5,1224.5 C 337.931,1226.05 339.264,1228.38 339.5,1231.5C 337.412,1229.66 336.079,1227.33 335.5,1224.5 Z"/></g>
<g><path style="opacity:1" fill="#959595" d="M 339.5,1231.5 C 340.906,1231.97 341.573,1232.97 341.5,1234.5C 340.094,1234.03 339.427,1233.03 339.5,1231.5 Z"/></g>
<g><path style="opacity:1" fill="#bebebe" d="M 341.5,1234.5 C 342.15,1234.8 342.817,1235.14 343.5,1235.5C 347.776,1243.05 351.776,1250.72 355.5,1258.5C 354.833,1258.17 354.167,1257.83 353.5,1257.5C 349.249,1250 345.249,1242.33 341.5,1234.5 Z"/></g>
<g><path style="opacity:1" fill="#7b7b7b" d="M 1858.5,1199.5 C 1858.83,1199.5 1859.17,1199.5 1859.5,1199.5C 1836.98,1234.69 1807.64,1262.69 1771.5,1283.5C 1771.5,1283.17 1771.5,1282.83 1771.5,1282.5C 1778.26,1278.25 1784.93,1273.75 1791.5,1269C 1818.16,1249.85 1840.49,1226.68 1858.5,1199.5 Z"/></g>
<g><path style="opacity:1" fill="#4b4b4b" d="M 353.5,1257.5 C 354.167,1257.83 354.833,1258.17 355.5,1258.5C 355.5,1259.17 355.5,1259.83 355.5,1260.5C 354.094,1260.03 353.427,1259.03 353.5,1257.5 Z"/></g>
<g><path style="opacity:1" fill="#484848" d="M 360.5,1267.5 C 362.587,1268.58 363.92,1270.25 364.5,1272.5C 362.413,1271.42 361.08,1269.75 360.5,1267.5 Z"/></g>
<g><path style="opacity:1" fill="#484848" d="M 367.5,1276.5 C 369.914,1277.91 371.581,1279.91 372.5,1282.5C 370.086,1281.09 368.419,1279.09 367.5,1276.5 Z"/></g>
<g><path style="opacity:1" fill="#b9b9b9" d="M 1771.5,1282.5 C 1771.5,1282.83 1771.5,1283.17 1771.5,1283.5C 1768.3,1284.93 1765.3,1286.6 1762.5,1288.5C 1759.84,1288.93 1757.51,1289.93 1755.5,1291.5C 1755.16,1292.34 1754.49,1292.67 1753.5,1292.5C 1753.41,1291.5 1753.75,1290.67 1754.5,1290C 1760.19,1287.49 1765.85,1284.99 1771.5,1282.5 Z"/></g>
<g><path style="opacity:1" fill="#4a4a4a" d="M 375.5,1286.5 C 377.914,1287.91 379.581,1289.91 380.5,1292.5C 378.086,1291.09 376.419,1289.09 375.5,1286.5 Z"/></g>
<g><path style="opacity:1" fill="#373737" d="M 1762.5,1288.5 C 1760.82,1290.83 1758.49,1291.83 1755.5,1291.5C 1757.51,1289.93 1759.84,1288.93 1762.5,1288.5 Z"/></g>
<g><path style="opacity:1" fill="#3e3e3e" d="M 380.5,1292.5 C 382.587,1293.58 383.92,1295.25 384.5,1297.5C 382.413,1296.42 381.08,1294.75 380.5,1292.5 Z"/></g>
<g><path style="opacity:1" fill="#aaaaaa" d="M 1753.5,1292.5 C 1750.07,1294.61 1746.4,1296.28 1742.5,1297.5C 1745.18,1294 1748.85,1292.33 1753.5,1292.5 Z"/></g>
<g><path style="opacity:1" fill="#c2c2c2" d="M 1742.5,1297.5 C 1740.82,1299.01 1738.82,1300.01 1736.5,1300.5C 1733.84,1300.93 1731.51,1301.93 1729.5,1303.5C 1727.83,1304.17 1726.17,1304.83 1724.5,1305.5C 1721.89,1306.37 1719.22,1307.04 1716.5,1307.5C 1723.41,1304.38 1730.41,1301.22 1737.5,1298C 1739.13,1297.51 1740.8,1297.34 1742.5,1297.5 Z"/></g>
<g><path style="opacity:1" fill="#3c3c3c" d="M 1736.5,1300.5 C 1734.82,1302.83 1732.49,1303.83 1729.5,1303.5C 1731.51,1301.93 1733.84,1300.93 1736.5,1300.5 Z"/></g>
<g><path style="opacity:1" fill="#4c4c4c" d="M 389.5,1302.5 C 392.243,1304.24 394.243,1306.57 395.5,1309.5C 392.757,1307.76 390.757,1305.43 389.5,1302.5 Z"/></g>
<g><path style="opacity:1" fill="#636363" d="M 1724.5,1305.5 C 1721.95,1307.58 1718.95,1308.92 1715.5,1309.5C 1715.5,1309.17 1715.5,1308.83 1715.5,1308.5C 1716.17,1308.5 1716.5,1308.17 1716.5,1307.5C 1719.22,1307.04 1721.89,1306.37 1724.5,1305.5 Z"/></g>
<g><path style="opacity:1" fill="#c0c0c0" d="M 1715.5,1308.5 C 1715.5,1308.83 1715.5,1309.17 1715.5,1309.5C 1713.42,1309.97 1711.42,1310.64 1709.5,1311.5C 1709.17,1311.5 1708.83,1311.5 1708.5,1311.5C 1708.58,1310.25 1709.24,1309.42 1710.5,1309C 1712.13,1308.51 1713.8,1308.34 1715.5,1308.5 Z"/></g>
<g><path style="opacity:1" fill="#8e8e8e" d="M 1708.5,1311.5 C 1708.83,1311.5 1709.17,1311.5 1709.5,1311.5C 1701.28,1315.29 1692.61,1317.95 1683.5,1319.5C 1691.66,1316.59 1700,1313.92 1708.5,1311.5 Z"/></g>
<g><path style="opacity:1" fill="#7d7d7d" d="M 403.5,1317.5 C 412.779,1325.11 421.446,1333.44 429.5,1342.5C 429.5,1342.83 429.5,1343.17 429.5,1343.5C 420.5,1335.17 411.833,1326.5 403.5,1317.5 Z"/></g>
<g><path style="opacity:1" fill="#3c3c3c" d="M 1678.5,1321.5 C 1676.49,1322.92 1674.15,1323.59 1671.5,1323.5C 1673.51,1322.08 1675.85,1321.41 1678.5,1321.5 Z"/></g>
<g><path style="opacity:1" fill="#aeaeae" d="M 1683.5,1319.5 C 1681.97,1320.31 1680.31,1320.98 1678.5,1321.5C 1675.85,1321.41 1673.51,1322.08 1671.5,1323.5C 1667.17,1324.61 1662.83,1325.61 1658.5,1326.5C 1655.85,1326.41 1653.51,1327.08 1651.5,1328.5C 1650.83,1328.5 1650.17,1328.5 1649.5,1328.5C 1648.83,1328.5 1648.17,1328.5 1647.5,1328.5C 1659.3,1325.13 1671.3,1322.13 1683.5,1319.5 Z"/></g>
<g><path style="opacity:1" fill="#484848" d="M 1658.5,1326.5 C 1656.49,1327.92 1654.15,1328.59 1651.5,1328.5C 1653.51,1327.08 1655.85,1326.41 1658.5,1326.5 Z"/></g>
<g><path style="opacity:1" fill="#696969" d="M 1647.5,1328.5 C 1648.17,1328.5 1648.83,1328.5 1649.5,1328.5C 1647.49,1329.92 1645.15,1330.59 1642.5,1330.5C 1642.5,1330.17 1642.5,1329.83 1642.5,1329.5C 1644.22,1329.37 1645.88,1329.04 1647.5,1328.5 Z"/></g>
<g><path style="opacity:1" fill="#afafaf" d="M 1628.5,1332.5 C 1628.5,1332.83 1628.5,1333.17 1628.5,1333.5C 1625,1334.92 1621.34,1335.58 1617.5,1335.5C 1616.83,1335.5 1616.17,1335.5 1615.5,1335.5C 1616.15,1334.27 1617.32,1333.61 1619,1333.5C 1622.14,1332.89 1625.31,1332.56 1628.5,1332.5 Z"/></g>
<g><path style="opacity:1" fill="#8c8c8c" d="M 1642.5,1329.5 C 1642.5,1329.83 1642.5,1330.17 1642.5,1330.5C 1638,1332.14 1633.33,1333.14 1628.5,1333.5C 1628.5,1333.17 1628.5,1332.83 1628.5,1332.5C 1633.23,1331.71 1637.9,1330.71 1642.5,1329.5 Z"/></g>
<g><path style="opacity:1" fill="#686868" d="M 1615.5,1335.5 C 1616.17,1335.5 1616.83,1335.5 1617.5,1335.5C 1614.73,1336.66 1611.73,1337.32 1608.5,1337.5C 1608.5,1337.17 1608.5,1336.83 1608.5,1336.5C 1610.72,1335.63 1613.05,1335.3 1615.5,1335.5 Z"/></g>
<g><path style="opacity:1" fill="#a7a7a7" d="M 1608.5,1336.5 C 1608.5,1336.83 1608.5,1337.17 1608.5,1337.5C 1601.14,1337.95 1593.81,1338.61 1586.5,1339.5C 1584.17,1339.5 1581.83,1339.5 1579.5,1339.5C 1588.92,1337.49 1598.59,1336.49 1608.5,1336.5 Z"/></g>
<g><path style="opacity:1" fill="#6c6c6c" d="M 1579.5,1339.5 C 1581.83,1339.5 1584.17,1339.5 1586.5,1339.5C 1580.06,1341.09 1573.39,1342.09 1566.5,1342.5C 1566.5,1342.17 1566.5,1341.83 1566.5,1341.5C 1570.73,1340.78 1575.06,1340.11 1579.5,1339.5 Z"/></g>
<g><path style="opacity:1" fill="#d4d4d4" d="M 429.5,1343.5 C 429.5,1343.17 429.5,1342.83 429.5,1342.5C 430.583,1342.54 431.583,1342.87 432.5,1343.5C 433.985,1345.85 435.318,1348.19 436.5,1350.5C 435.167,1349.5 433.833,1348.5 432.5,1347.5C 432.262,1345.6 431.262,1344.26 429.5,1343.5 Z"/></g>
<g><path style="opacity:1" fill="#ababab" d="M 1566.5,1341.5 C 1566.5,1341.83 1566.5,1342.17 1566.5,1342.5C 1556.81,1344.04 1547.15,1345.7 1537.5,1347.5C 1538.35,1346.03 1539.68,1345.2 1541.5,1345C 1549.78,1343.29 1558.12,1342.12 1566.5,1341.5 Z"/></g>
<g><path style="opacity:1" fill="#4d4d4d" d="M 429.5,1343.5 C 431.262,1344.26 432.262,1345.6 432.5,1347.5C 430.738,1346.74 429.738,1345.4 429.5,1343.5 Z"/></g>
<g><path style="opacity:1" fill="#bbbbbb" d="M 1532.5,1347.5 C 1526.17,1348.83 1519.83,1350.17 1513.5,1351.5C 1508.11,1351.27 1502.77,1351.6 1497.5,1352.5C 1495.5,1352.5 1493.5,1352.5 1491.5,1352.5C 1495.3,1351.36 1499.3,1350.53 1503.5,1350C 1513.16,1349 1522.83,1348.17 1532.5,1347.5 Z"/></g>
<g><path style="opacity:1" fill="#414141" d="M 1532.5,1347.5 C 1533.83,1347.5 1535.17,1347.5 1536.5,1347.5C 1536.08,1348.22 1535.42,1348.72 1534.5,1349C 1527.55,1350.35 1520.55,1351.18 1513.5,1351.5C 1519.83,1350.17 1526.17,1348.83 1532.5,1347.5 Z"/></g>
<g><path style="opacity:1" fill="#454545" d="M 432.5,1347.5 C 433.833,1348.5 435.167,1349.5 436.5,1350.5C 437.11,1351.39 437.443,1352.39 437.5,1353.5C 435.086,1352.09 433.419,1350.09 432.5,1347.5 Z"/></g>
<g><path style="opacity:1" fill="#444444" d="M 1491.5,1352.5 C 1493.5,1352.5 1495.5,1352.5 1497.5,1352.5C 1489.35,1353.6 1481.02,1354.27 1472.5,1354.5C 1472.5,1354.17 1472.5,1353.83 1472.5,1353.5C 1478.8,1352.68 1485.13,1352.35 1491.5,1352.5 Z"/></g>
<g><path style="opacity:1" fill="#727272" d="M 1464.5,1353.5 C 1467.17,1353.5 1469.83,1353.5 1472.5,1353.5C 1472.5,1353.83 1472.5,1354.17 1472.5,1354.5C 1468.48,1354.65 1464.48,1354.98 1460.5,1355.5C 1459.5,1355.5 1458.5,1355.5 1457.5,1355.5C 1459.83,1354.83 1462.17,1354.17 1464.5,1353.5 Z"/></g>
<g><path style="opacity:1" fill="#dadada" d="M 1464.5,1353.5 C 1462.17,1354.17 1459.83,1354.83 1457.5,1355.5C 1452.82,1355.33 1448.15,1355.5 1443.5,1356C 1441.94,1356.21 1440.61,1356.71 1439.5,1357.5C 1438.5,1357.5 1437.5,1357.5 1436.5,1357.5C 1404.83,1357.5 1373.17,1357.5 1341.5,1357.5C 1370.66,1356.67 1400,1356.17 1429.5,1356C 1441.15,1354.91 1452.82,1354.08 1464.5,1353.5 Z"/></g>
<g><path style="opacity:1" fill="#5e5e5e" d="M 1457.5,1355.5 C 1458.5,1355.5 1459.5,1355.5 1460.5,1355.5C 1453.68,1356.57 1446.68,1357.23 1439.5,1357.5C 1440.61,1356.71 1441.94,1356.21 1443.5,1356C 1448.15,1355.5 1452.82,1355.33 1457.5,1355.5 Z"/></g>
<g><path style="opacity:1" fill="#bfbfbf" d="M 1333.5,1358.5 C 1333.5,1358.83 1333.5,1359.17 1333.5,1359.5C 1328.83,1359.5 1324.17,1359.5 1319.5,1359.5C 1279.16,1359.25 1238.82,1359.58 1198.5,1360.5C 1201.64,1359.68 1204.97,1359.18 1208.5,1359C 1250.17,1358.5 1291.83,1358.33 1333.5,1358.5 Z"/></g>
<g><path style="opacity:1" fill="#464646" d="M 1341.5,1357.5 C 1373.17,1357.5 1404.83,1357.5 1436.5,1357.5C 1431.68,1358.33 1426.68,1358.83 1421.5,1359C 1392.17,1359.5 1362.84,1359.67 1333.5,1359.5C 1333.5,1359.17 1333.5,1358.83 1333.5,1358.5C 1335.95,1357.53 1338.61,1357.19 1341.5,1357.5 Z"/></g>
<g><path style="opacity:1" fill="#535353" d="M 440.5,1357.5 C 442.262,1358.26 443.262,1359.6 443.5,1361.5C 441.738,1360.74 440.738,1359.4 440.5,1357.5 Z"/></g>
<g><path style="opacity:1" fill="#999999" d="M 1000.5,1359.5 C 1000.5,1359.83 1000.5,1360.17 1000.5,1360.5C 965.151,1360.21 929.818,1360.55 894.5,1361.5C 889.5,1361.5 884.5,1361.5 879.5,1361.5C 879.5,1361.17 879.5,1360.83 879.5,1360.5C 919.827,1359.64 960.16,1359.31 1000.5,1359.5 Z"/></g>
<g><path style="opacity:1" fill="#5d5d5d" d="M 1319.5,1359.5 C 1275.31,1360 1230.97,1361 1186.5,1362.5C 1186.5,1362.17 1186.5,1361.83 1186.5,1361.5C 1190.55,1361.61 1194.55,1361.27 1198.5,1360.5C 1238.82,1359.58 1279.16,1359.25 1319.5,1359.5 Z"/></g>
<g><path style="opacity:1" fill="#d2d2d2" d="M 879.5,1360.5 C 879.5,1360.83 879.5,1361.17 879.5,1361.5C 856.173,1362.39 832.84,1363.06 809.5,1363.5C 789.833,1363.5 770.167,1363.5 750.5,1363.5C 793.346,1362.8 836.346,1361.8 879.5,1360.5 Z"/></g>
<g><path style="opacity:1" fill="#5d5d5d" d="M 879.5,1361.5 C 884.5,1361.5 889.5,1361.5 894.5,1361.5C 866.348,1363.19 838.015,1364.19 809.5,1364.5C 809.5,1364.17 809.5,1363.83 809.5,1363.5C 832.84,1363.06 856.173,1362.39 879.5,1361.5 Z"/></g>
<g><path style="opacity:1" fill="#5f5f5f" d="M 1001.5,1360.5 C 1013.36,1360.4 1025.03,1361.07 1036.5,1362.5C 1024.64,1362.6 1012.97,1361.93 1001.5,1360.5 Z"/></g>
<g><path style="opacity:1" fill="#d2d2d2" d="M 1000.5,1360.5 C 1000.5,1360.17 1000.5,1359.83 1000.5,1359.5C 1051.47,1361.29 1102.47,1361.95 1153.5,1361.5C 1115.34,1362.5 1077,1362.83 1038.5,1362.5C 1037.83,1362.5 1037.17,1362.5 1036.5,1362.5C 1025.03,1361.07 1013.36,1360.4 1001.5,1360.5C 1001.17,1360.5 1000.83,1360.5 1000.5,1360.5 Z"/></g>
<g><path style="opacity:1" fill="#848484" d="M 1153.5,1361.5 C 1164.5,1361.5 1175.5,1361.5 1186.5,1361.5C 1186.5,1361.83 1186.5,1362.17 1186.5,1362.5C 1137,1363.66 1087.67,1363.66 1038.5,1362.5C 1077,1362.83 1115.34,1362.5 1153.5,1361.5 Z"/></g>
<g><path style="opacity:1" fill="#d8d8d8" d="M 746.5,1363.5 C 735.833,1364.17 725.167,1364.83 714.5,1365.5C 672.833,1365.5 631.167,1365.5 589.5,1365.5C 592.305,1364.68 595.305,1364.18 598.5,1364C 647.832,1363.5 697.166,1363.33 746.5,1363.5 Z"/></g>
<g><path style="opacity:1" fill="#8b8b8b" d="M 746.5,1363.5 C 747.833,1363.5 749.167,1363.5 750.5,1363.5C 770.167,1363.5 789.833,1363.5 809.5,1363.5C 809.5,1363.83 809.5,1364.17 809.5,1364.5C 781.827,1364.42 754.16,1364.76 726.5,1365.5C 722.5,1365.5 718.5,1365.5 714.5,1365.5C 725.167,1364.83 735.833,1364.17 746.5,1363.5 Z"/></g>
<g><path style="opacity:1" fill="#636363" d="M 444.5,1363.5 C 446.262,1364.26 447.262,1365.6 447.5,1367.5C 445.738,1366.74 444.738,1365.4 444.5,1363.5 Z"/></g>
<g><path style="opacity:1" fill="#d6d6d6" d="M 585.5,1365.5 C 584.791,1366.4 583.791,1366.74 582.5,1366.5C 573.151,1366.48 563.818,1366.82 554.5,1367.5C 552.167,1367.5 549.833,1367.5 547.5,1367.5C 559.959,1365.81 572.625,1365.15 585.5,1365.5 Z"/></g>
<g><path style="opacity:1" fill="#7c7c7c" d="M 582.5,1366.5 C 582.5,1366.83 582.5,1367.17 582.5,1367.5C 573.154,1367.54 563.82,1367.87 554.5,1368.5C 554.5,1368.17 554.5,1367.83 554.5,1367.5C 563.818,1366.82 573.151,1366.48 582.5,1366.5 Z"/></g>
<g><path style="opacity:1" fill="#474747" d="M 585.5,1365.5 C 586.833,1365.5 588.167,1365.5 589.5,1365.5C 631.167,1365.5 672.833,1365.5 714.5,1365.5C 718.5,1365.5 722.5,1365.5 726.5,1365.5C 678.663,1366.26 630.663,1366.92 582.5,1367.5C 582.5,1367.17 582.5,1366.83 582.5,1366.5C 583.791,1366.74 584.791,1366.4 585.5,1365.5 Z"/></g>
<g><path style="opacity:1" fill="#9a9a9a" d="M 547.5,1367.5 C 549.833,1367.5 552.167,1367.5 554.5,1367.5C 554.5,1367.83 554.5,1368.17 554.5,1368.5C 548.855,1369.13 543.189,1369.47 537.5,1369.5C 535.833,1369.5 534.167,1369.5 532.5,1369.5C 537.217,1367.76 542.217,1367.1 547.5,1367.5 Z"/></g>
<g><path style="opacity:1" fill="#4f4f4f" d="M 532.5,1369.5 C 534.167,1369.5 535.833,1369.5 537.5,1369.5C 535.369,1370.31 533.036,1370.81 530.5,1371C 520.167,1371.33 509.833,1371.67 499.5,1372C 496.94,1372.38 494.606,1373.22 492.5,1374.5C 493.672,1372.46 495.338,1371.13 497.5,1370.5C 509.204,1370.77 520.871,1370.44 532.5,1369.5 Z"/></g>
<g><path style="opacity:1" fill="#9f9f9f" d="M 497.5,1370.5 C 495.338,1371.13 493.672,1372.46 492.5,1374.5C 487.642,1377.69 484.308,1382.02 482.5,1387.5C 482.167,1387.5 481.833,1387.5 481.5,1387.5C 483.669,1380.81 487.669,1375.31 493.5,1371C 494.793,1370.51 496.127,1370.34 497.5,1370.5 Z"/></g>
<g><path style="opacity:1" fill="#575757" d="M 452.5,1378.5 C 453.906,1378.97 454.573,1379.97 454.5,1381.5C 453.094,1381.03 452.427,1380.03 452.5,1378.5 Z"/></g>
<g><path style="opacity:1" fill="#b1b1b1" d="M 447.5,1367.5 C 454.984,1375.16 458.651,1384.5 458.5,1395.5C 457.662,1395.16 457.328,1394.49 457.5,1393.5C 457.59,1390.85 456.924,1388.51 455.5,1386.5C 455.371,1384.78 455.038,1383.12 454.5,1381.5C 454.573,1379.97 453.906,1378.97 452.5,1378.5C 451.091,1374.68 449.424,1371.02 447.5,1367.5 Z"/></g>
<g><path style="opacity:1" fill="#565656" d="M 481.5,1387.5 C 481.833,1387.5 482.167,1387.5 482.5,1387.5C 482.573,1389.03 481.906,1390.03 480.5,1390.5C 480.557,1389.39 480.89,1388.39 481.5,1387.5 Z"/></g>
<g><path style="opacity:1" fill="#424242" d="M 455.5,1386.5 C 456.924,1388.51 457.59,1390.85 457.5,1393.5C 456.076,1391.49 455.41,1389.15 455.5,1386.5 Z"/></g>
<g><path style="opacity:1" fill="#acacac" d="M 476.5,1398.5 C 474.909,1401.35 473.576,1404.35 472.5,1407.5C 471.094,1407.97 470.427,1408.97 470.5,1410.5C 468.929,1412.64 467.596,1414.97 466.5,1417.5C 465.833,1417.83 465.167,1418.17 464.5,1418.5C 467.523,1411.1 471.523,1404.43 476.5,1398.5 Z"/></g>
<g><path style="opacity:1" fill="#474747" d="M 472.5,1407.5 C 472.573,1409.03 471.906,1410.03 470.5,1410.5C 470.427,1408.97 471.094,1407.97 472.5,1407.5 Z"/></g>
<g><path style="opacity:1" fill="#dfdfdf" d="M 460.5,1405.5 C 461.285,1410.12 462.619,1414.45 464.5,1418.5C 463.877,1420.71 462.877,1422.71 461.5,1424.5C 460.51,1418.36 460.177,1412.02 460.5,1405.5 Z"/></g>
<g><path style="opacity:1" fill="#747474" d="M 458.5,1399.5 C 459.167,1401.5 459.833,1403.5 460.5,1405.5C 460.177,1412.02 460.51,1418.36 461.5,1424.5C 461.5,1424.83 461.5,1425.17 461.5,1425.5C 459.542,1417.23 458.542,1408.57 458.5,1399.5 Z"/></g>
<g><path style="opacity:1" fill="#3d3d3d" d="M 466.5,1417.5 C 465.564,1420.67 463.897,1423.34 461.5,1425.5C 461.5,1425.17 461.5,1424.83 461.5,1424.5C 462.877,1422.71 463.877,1420.71 464.5,1418.5C 465.167,1418.17 465.833,1417.83 466.5,1417.5 Z"/></g>
</svg>
