<svg width="292" height="90" viewBox="0 0 292 90" fill="none" xmlns="http://www.w3.org/2000/svg">
<path opacity="0.999" fill-rule="evenodd" clip-rule="evenodd" d="M242.375 5.62499C243.732 6.00302 245.149 6.16967 246.625 6.12499C252.66 8.36314 257.867 11.8631 262.25 16.625C264.405 19.6957 266.655 22.6957 269 25.625C270.917 28.7917 272.832 31.9582 274.75 35.125C275.3 36.2305 275.717 37.3972 276 38.625C276.457 41.5752 277.04 44.492 277.75 47.375C277.875 51.2075 277.917 55.0407 277.875 58.875C277.875 58.9582 277.875 59.0417 277.875 59.125C277.492 60.0667 277.242 61.0667 277.125 62.125C276.732 62.6272 276.482 63.2107 276.375 63.875C275.847 65.2232 275.097 66.4315 274.125 67.5C272.042 68.9167 269.957 70.3332 267.875 71.75C264.422 73.259 260.84 74.3425 257.125 75C254.01 75.169 250.927 75.544 247.875 76.125C246.243 76.1742 244.66 76.341 243.125 76.625C242.875 76.625 242.625 76.625 242.375 76.625C237.831 76.7835 233.331 77.0335 228.875 77.375C218.053 78.117 207.22 78.617 196.375 78.875C159.875 78.8332 123.375 78.875 86.8749 79C85.4129 79.0432 83.9962 79.1682 82.6249 79.375C70.4947 79.453 58.3697 79.2862 46.2499 78.875C38.9582 79.0417 31.6667 79.0832 24.3749 79C23.8704 78.8737 23.3704 78.7487 22.8749 78.625C22.7567 78.2735 22.5067 78.1067 22.1249 78.125C19.6035 76.9512 17.6035 75.2012 16.1249 72.875C15.8843 71.9012 15.551 70.9847 15.1249 70.125C15.1389 68.8172 14.9722 67.5672 14.6249 66.375C14.6846 64.954 14.4346 63.6205 13.8749 62.375C13.6511 61.047 13.4428 59.7137 13.2499 58.375C13.2076 55.2482 13.0826 52.165 12.8749 49.125C12.8749 48.9582 12.8749 48.7917 12.8749 48.625C12.8334 46.9562 12.875 45.2895 12.9999 43.625C13.7842 40.3957 14.4092 37.1457 14.8749 33.875C15.3191 33.1237 15.5691 32.2905 15.6249 31.375C15.9517 30.5687 16.2017 29.7352 16.3749 28.875C16.7265 28.7567 16.8932 28.5067 16.8749 28.125C17.3749 26.9582 17.8749 25.7917 18.3749 24.625C18.7265 24.5067 18.8932 24.2567 18.8749 23.875C19.4271 22.1944 20.4271 20.8194 21.8749 19.75C23.4709 18.4038 25.1374 17.1538 26.8749 16C27.6487 15.8215 28.3987 15.5715 29.1249 15.25C31.2899 15.125 33.4567 15.0834 35.6249 15.125C36.9327 15.1389 38.1827 14.9722 39.3749 14.625C44.8722 14.1808 50.3722 13.7641 55.8749 13.375C57.8507 13.4659 59.7674 13.2993 61.6249 12.875C72.9519 11.9587 84.2852 11.1254 95.6249 10.375C98.2604 10.4341 100.844 10.2674 103.375 9.87499C104.196 9.69822 105.03 9.61487 105.875 9.62499C114.75 9.50687 123.583 9.34022 132.375 9.12499C132.625 9.12499 132.875 9.12499 133.125 9.12499C137.673 9.18442 142.173 9.01774 146.625 8.62499C147.042 8.62499 147.458 8.62499 147.875 8.62499C151.377 8.50719 154.877 8.34052 158.375 8.12499C161.256 8.12219 164.089 7.95552 166.875 7.62499C185.455 7.15872 204.038 6.53372 222.625 5.74999C229.208 5.62499 235.791 5.58334 242.375 5.62499Z" fill="#0B0B0B"/>
<path opacity="0.01" fill-rule="evenodd" clip-rule="evenodd" d="M247.625 6.12507C247.292 6.12507 246.958 6.12507 246.625 6.12507C245.26 5.81574 243.843 5.64907 242.375 5.62507C235.791 5.58342 229.208 5.62507 222.625 5.75007C204.038 6.53379 185.455 7.15879 166.875 7.62507C163.993 7.60912 161.16 7.77579 158.375 8.12507C154.878 8.34059 151.378 8.50727 147.875 8.62507C148.542 8.45839 149.208 8.29174 149.875 8.12507C155.435 7.61897 161.018 7.24397 166.625 7.00007C183.88 6.54067 201.13 5.95732 218.375 5.25007C227.63 5.01844 236.88 5.10179 246.125 5.50007C246.713 5.56009 247.213 5.76844 247.625 6.12507Z" fill="#DDDDDD"/>
<path opacity="0.169" fill-rule="evenodd" clip-rule="evenodd" d="M242.375 5.625C243.843 5.649 245.26 5.81567 246.625 6.125C245.149 6.16967 243.732 6.00302 242.375 5.625Z" fill="#A5A5A5"/>
<path opacity="0.841" fill-rule="evenodd" clip-rule="evenodd" d="M166.875 7.62507C164.089 7.95559 161.256 8.12227 158.375 8.12507C161.159 7.77579 163.993 7.60912 166.875 7.62507Z" fill="#474747"/>
<path opacity="0.01" fill-rule="evenodd" clip-rule="evenodd" d="M149.875 8.125C149.208 8.29168 148.542 8.45832 147.875 8.625C147.458 8.625 147.042 8.625 146.625 8.625C142.081 8.65968 137.581 8.82632 133.125 9.125C132.875 9.125 132.625 9.125 132.375 9.125C125.041 9.08335 117.708 9.125 110.375 9.25C108.83 9.2931 107.33 9.4181 105.875 9.625C105.03 9.61487 104.197 9.69823 103.375 9.875C101.958 9.875 100.542 9.875 99.125 9.875C94.1192 10.0143 89.1192 10.2643 84.125 10.625C92.3162 9.7777 100.566 9.23602 108.875 9C122.547 8.93913 136.214 8.64745 149.875 8.125Z" fill="#F8F8F8"/>
<path opacity="0.277" fill-rule="evenodd" clip-rule="evenodd" d="M146.625 8.625C142.173 9.01775 137.673 9.18442 133.125 9.125C137.581 8.82632 142.081 8.65967 146.625 8.625Z" fill="#BFBFBF"/>
<path fill-rule="evenodd" clip-rule="evenodd" d="M257.625 16.375C257.87 17.1672 258.37 17.7506 259.125 18.125C260.952 20.1121 262.535 22.2788 263.875 24.625C264.02 25.1872 264.352 25.6037 264.875 25.875C266.77 28.2475 268.355 30.8307 269.625 33.625C269.607 34.0067 269.772 34.2567 270.125 34.375C270.917 35.4582 271.585 36.625 272.125 37.875C272.172 38.7137 272.422 39.4637 272.875 40.125C272.875 40.2917 272.875 40.4582 272.875 40.625C272.81 42.0485 273.06 43.3817 273.625 44.625C273.887 45.432 274.052 46.2652 274.125 47.125C274.257 52.0597 274.09 56.9762 273.625 61.875C273.45 62.8252 273.157 63.742 272.75 64.625C270.822 66.2615 268.865 67.845 266.875 69.375C266.405 69.3072 266.072 69.474 265.875 69.875C263.84 70.6552 261.757 71.322 259.625 71.875C258.962 71.8525 258.377 72.019 257.875 72.375C257.707 72.375 257.542 72.375 257.375 72.375C256.712 72.3525 256.127 72.519 255.625 72.875C254.657 72.7962 253.74 72.8795 252.875 73.125C251.567 73.111 250.317 73.2777 249.125 73.625C241.453 74.2175 233.787 74.7175 226.125 75.125C221.994 75.2117 217.91 75.4617 213.875 75.875C203.087 76.2472 192.296 76.414 181.5 76.375C150.708 76.1327 119.917 76.091 89.1249 76.25C82.7139 76.6347 76.2972 76.843 69.8749 76.875C65.9922 76.926 62.1587 76.7592 58.3749 76.375C57.1709 76.1685 55.9209 76.0435 54.6249 76C44.5387 75.9465 34.4552 75.8215 24.3749 75.625C24.1038 75.1032 23.6871 74.77 23.1249 74.625C22.8538 74.1032 22.4371 73.77 21.8749 73.625C20.7763 73.1095 20.0263 72.276 19.6249 71.125C19.2694 69.8255 19.0611 68.4922 18.9999 67.125C18.9043 66.986 18.7793 66.9027 18.6249 66.875C18.6754 66.2625 18.5921 65.6792 18.3749 65.125C18.416 64.4532 18.3743 63.7865 18.2499 63.125C18.1803 62.896 18.0553 62.7295 17.8749 62.625C17.6243 61.54 17.3327 60.4565 16.9999 59.375C16.8083 53.875 16.7249 48.375 16.7499 42.875C16.9976 42.298 17.2059 41.7147 17.3749 41.125C17.7366 40.9665 17.9033 40.6747 17.8749 40.25C18.1916 38.8917 18.3583 37.5167 18.3749 36.125C18.7839 35.1975 18.9505 34.1975 18.8749 33.125C18.8749 33.0417 18.8749 32.9582 18.8749 32.875C19.1974 32.7355 19.4057 32.4855 19.4999 32.125C19.879 30.8692 20.254 29.6192 20.6249 28.375C21.6887 27.166 22.4387 25.7495 22.8749 24.125C23.6249 23.5416 24.2916 22.875 24.8749 22.125C25.6067 21.8106 26.1902 21.3106 26.6249 20.625C27.5907 19.4325 28.8407 18.6825 30.3749 18.375C31.6827 18.3889 32.9327 18.2222 34.1249 17.875C35.5062 17.495 36.9227 17.3283 38.3749 17.375C47.4314 17.2462 56.4314 16.7462 65.3749 15.875C66.7687 15.6369 68.1852 15.5535 69.6249 15.625C72.0969 15.7146 74.5137 15.5479 76.8749 15.125C80.9122 14.8608 84.9122 14.5274 88.8749 14.125C94.0864 13.9108 99.2532 13.5774 104.375 13.125C104.792 13.125 105.208 13.125 105.625 13.125C107.125 13.125 108.625 13.125 110.125 13.125C116.042 13.1666 121.959 13.125 127.875 13C129.836 12.9572 131.753 12.8322 133.625 12.625C134.042 12.625 134.458 12.625 134.875 12.625C138.209 12.6666 141.543 12.6249 144.875 12.5C145.674 12.4548 146.424 12.3298 147.125 12.125C147.375 12.125 147.625 12.125 147.875 12.125C154.378 11.8555 160.878 11.5221 167.375 11.125C172.209 11.0429 177.042 10.9179 181.875 10.75C182.591 10.7042 183.258 10.5792 183.875 10.375C184.375 10.375 184.875 10.375 185.375 10.375C195.18 10.4915 204.93 10.1582 214.625 9.37496C216.837 9.31018 219.003 9.14351 221.125 8.87496C229.211 8.50226 237.294 8.54391 245.375 8.99996C250.002 10.5634 254.085 13.0218 257.625 16.375Z" fill="#FEFEFE"/>
<path opacity="0.183" fill-rule="evenodd" clip-rule="evenodd" d="M132.375 9.12499C123.583 9.34022 114.75 9.50687 105.875 9.62499C107.33 9.41809 108.83 9.29309 110.375 9.24999C117.708 9.12499 125.041 9.08334 132.375 9.12499Z" fill="#CACACA"/>
<path fill-rule="evenodd" clip-rule="evenodd" d="M221.125 8.87505C219.003 9.1436 216.837 9.31027 214.625 9.37505C214.042 9.37505 213.458 9.37505 212.875 9.37505C215.576 9.0165 218.326 8.84982 221.125 8.87505Z" fill="#A9A9A9"/>
<path fill-rule="evenodd" clip-rule="evenodd" d="M212.875 9.375C213.458 9.375 214.042 9.375 214.625 9.375C204.93 10.1582 195.18 10.4916 185.375 10.375C194.5 9.9969 203.667 9.66357 212.875 9.375Z" fill="#C9C9C9"/>
<path opacity="0.962" fill-rule="evenodd" clip-rule="evenodd" d="M99.125 9.875C100.542 9.875 101.958 9.875 103.375 9.875C100.844 10.2675 98.2605 10.4341 95.625 10.375C96.7917 10.2083 97.9583 10.0417 99.125 9.875Z" fill="#2A2A2A"/>
<path fill-rule="evenodd" clip-rule="evenodd" d="M183.875 10.375C183.258 10.5793 182.591 10.7043 181.875 10.75C177.042 10.9179 172.209 11.0429 167.375 11.125C168.458 10.9583 169.542 10.7917 170.625 10.625C175.043 10.5989 179.46 10.5156 183.875 10.375Z" fill="#D3D3D3"/>
<path fill-rule="evenodd" clip-rule="evenodd" d="M170.625 10.625C169.542 10.7917 168.458 10.9583 167.375 11.125C160.878 11.5222 154.378 11.8555 147.875 12.125C155.412 11.4923 162.995 10.9924 170.625 10.625Z" fill="#B1B1B1"/>
<path fill-rule="evenodd" clip-rule="evenodd" d="M147.125 12.125C146.424 12.3299 145.674 12.4549 144.875 12.5C141.543 12.625 138.209 12.6666 134.875 12.625C138.915 12.3626 142.998 12.196 147.125 12.125Z" fill="#CFCFCF"/>
<path fill-rule="evenodd" clip-rule="evenodd" d="M127.375 12.625C121.625 12.7917 115.875 12.9583 110.125 13.125C108.625 13.125 107.125 13.125 105.625 13.125C106.913 12.9183 108.246 12.7933 109.625 12.75C115.541 12.625 121.458 12.5833 127.375 12.625Z" fill="#909090"/>
<path opacity="0.01" fill-rule="evenodd" clip-rule="evenodd" d="M99.125 9.875C97.9582 10.0417 96.7917 10.2083 95.625 10.375C84.2852 11.1254 72.952 11.9587 61.625 12.875C59.664 12.955 57.7472 13.1216 55.875 13.375C50.3722 13.7641 44.8722 14.1808 39.375 14.625C38.0672 14.6111 36.8172 14.7778 35.625 15.125C33.4567 15.0834 31.29 15.1251 29.125 15.25C28.3987 15.5715 27.6487 15.8215 26.875 16C25.1375 17.1538 23.4709 18.4038 21.875 19.75C20.4272 20.8194 19.4272 22.1944 18.875 23.875C18.5234 23.9933 18.3567 24.2433 18.375 24.625C17.875 25.7917 17.375 26.9583 16.875 28.125C16.5234 28.2432 16.3567 28.4932 16.375 28.875C16.2017 29.7353 15.9517 30.5688 15.625 31.375C15.1808 32.1262 14.9308 32.9595 14.875 33.875C14.4092 37.1458 13.7842 40.3958 13 43.625C12.8751 45.2895 12.8334 46.9562 12.875 48.625C12.6268 46.5875 12.5434 44.5042 12.625 42.375C13.3893 38.5397 14.181 34.7065 15 30.875C16.3851 26.9792 18.2601 23.3542 20.625 20C22.6385 18.4031 24.7218 16.9031 26.875 15.5C29.4925 14.392 32.2007 14.1004 35 14.625C51.355 13.0371 67.73 11.7038 84.125 10.625C89.1192 10.2643 94.1192 10.0143 99.125 9.875Z" fill="#E3E3E3"/>
<path fill-rule="evenodd" clip-rule="evenodd" d="M127.375 12.625C129.458 12.625 131.542 12.625 133.625 12.625C131.753 12.8322 129.836 12.9572 127.875 13C121.959 13.125 116.042 13.1666 110.125 13.125C115.875 12.9583 121.625 12.7917 127.375 12.625Z" fill="#DEDEDE"/>
<path opacity="0.937" fill-rule="evenodd" clip-rule="evenodd" d="M61.625 12.875C59.7675 13.2993 57.8507 13.466 55.875 13.375C57.7472 13.1217 59.664 12.955 61.625 12.875Z" fill="#373737"/>
<path fill-rule="evenodd" clip-rule="evenodd" d="M104.375 13.125C99.2533 13.5775 94.0865 13.9108 88.875 14.125C88.875 14.0417 88.875 13.9583 88.875 13.875C94.0365 13.5211 99.2032 13.2711 104.375 13.125Z" fill="#CACACA"/>
<path fill-rule="evenodd" clip-rule="evenodd" d="M88.875 13.875C88.875 13.9583 88.875 14.0417 88.875 14.125C84.9123 14.5275 80.9123 14.8608 76.875 15.125C76.2083 15.125 75.5418 15.125 74.875 15.125C79.4983 14.6599 84.165 14.2433 88.875 13.875Z" fill="#A6A6A6"/>
<path opacity="0.925" fill-rule="evenodd" clip-rule="evenodd" d="M39.375 14.6251C38.1827 14.9723 36.9327 15.139 35.625 15.1251C36.8173 14.7778 38.0673 14.6111 39.375 14.6251Z" fill="#3D3D3D"/>
<path fill-rule="evenodd" clip-rule="evenodd" d="M74.875 15.125C75.5417 15.125 76.2083 15.125 76.875 15.125C74.5138 15.5479 72.097 15.7146 69.625 15.625C71.3292 15.3586 73.0792 15.192 74.875 15.125Z" fill="#C4C4C4"/>
<path fill-rule="evenodd" clip-rule="evenodd" d="M65.375 15.875C56.4315 16.7462 47.4315 17.2462 38.375 17.375C47.3368 16.8891 56.3368 16.3891 65.375 15.875Z" fill="#B5B5B5"/>
<path fill-rule="evenodd" clip-rule="evenodd" d="M257.625 16.375C258.31 16.8098 258.81 17.3931 259.125 18.125C258.37 17.7506 257.87 17.1673 257.625 16.375Z" fill="#9C9C9C"/>
<path fill-rule="evenodd" clip-rule="evenodd" d="M34.125 17.875C32.9327 18.2223 31.6827 18.3889 30.375 18.375C31.5585 17.9639 32.8085 17.7972 34.125 17.875Z" fill="#B9B9B9"/>
<path fill-rule="evenodd" clip-rule="evenodd" d="M26.625 20.625C26.1903 21.3107 25.6068 21.8107 24.875 22.125C25.3097 21.4393 25.8932 20.9393 26.625 20.625Z" fill="#ADADAD"/>
<path opacity="0.031" fill-rule="evenodd" clip-rule="evenodd" d="M246.625 6.125C246.958 6.125 247.292 6.125 247.625 6.125C253.668 8.2928 258.792 11.7928 263 16.625C264.878 19.3811 266.878 22.0478 269 24.625C271.02 28.0833 273.105 31.5 275.25 34.875C276.597 37.9867 277.39 41.2368 277.625 44.625C278.005 47.394 278.173 50.1855 278.125 53C278.125 55.0018 278.042 56.9603 277.875 58.875C277.917 55.0407 277.875 51.2075 277.75 47.375C277.04 44.492 276.458 41.5752 276 38.625C275.718 37.3972 275.3 36.2305 274.75 35.125C272.833 31.9583 270.917 28.7917 269 25.625C266.655 22.6957 264.405 19.6957 262.25 16.625C257.868 11.8632 252.66 8.36315 246.625 6.125Z" fill="#DDDDDD"/>
<path fill-rule="evenodd" clip-rule="evenodd" d="M24.875 22.125C24.2917 22.875 23.625 23.5417 22.875 24.125C23.2917 23.2083 23.9583 22.5417 24.875 22.125Z" fill="#A6A6A6"/>
<path opacity="0.549" fill-rule="evenodd" clip-rule="evenodd" d="M18.875 23.875C18.8933 24.2567 18.7266 24.5067 18.375 24.625C18.3568 24.2433 18.5234 23.9933 18.875 23.875Z" fill="#717171"/>
<path fill-rule="evenodd" clip-rule="evenodd" d="M263.875 24.625C264.397 24.8961 264.73 25.3127 264.875 25.875C264.353 25.6037 264.02 25.1873 263.875 24.625Z" fill="#ACACAC"/>
<path fill-rule="evenodd" clip-rule="evenodd" d="M22.875 24.125C22.4388 25.7495 21.6888 27.166 20.625 28.375C21.1849 26.8375 21.9349 25.421 22.875 24.125Z" fill="#C2C2C2"/>
<path opacity="0.49" fill-rule="evenodd" clip-rule="evenodd" d="M16.875 28.125C16.8933 28.5067 16.7266 28.7567 16.375 28.875C16.3568 28.4933 16.5234 28.2432 16.875 28.125Z" fill="#787878"/>
<path fill-rule="evenodd" clip-rule="evenodd" d="M20.625 28.375C20.2541 29.6193 19.8791 30.8693 19.5 32.125C19.4058 32.4855 19.1975 32.7355 18.875 32.875C19.1643 31.2565 19.7476 29.7565 20.625 28.375Z" fill="#A9A9A9"/>
<path opacity="0.733" fill-rule="evenodd" clip-rule="evenodd" d="M15.625 31.375C15.5691 32.2905 15.3192 33.1237 14.875 33.875C14.9308 32.9595 15.1808 32.1263 15.625 31.375Z" fill="#656565"/>
<path fill-rule="evenodd" clip-rule="evenodd" d="M269.625 33.625C269.978 33.7432 270.143 33.9933 270.125 34.375C269.773 34.2567 269.608 34.0067 269.625 33.625Z" fill="#8A8A8A"/>
<path fill-rule="evenodd" clip-rule="evenodd" d="M18.875 33.125C18.9506 34.1975 18.7839 35.1975 18.375 36.125C18.2994 35.0525 18.4661 34.0525 18.875 33.125Z" fill="#B1B1B1"/>
<path fill-rule="evenodd" clip-rule="evenodd" d="M18.375 36.125C18.3584 37.5167 18.1917 38.8917 17.875 40.25C17.9033 40.6747 17.7367 40.9665 17.375 41.125C17.6181 39.4093 17.9514 37.7428 18.375 36.125Z" fill="#AFAFAF"/>
<path fill-rule="evenodd" clip-rule="evenodd" d="M272.125 37.875C272.618 38.521 272.868 39.271 272.875 40.125C272.423 39.4638 272.172 38.7138 272.125 37.875Z" fill="#888888"/>
<path opacity="0.01" fill-rule="evenodd" clip-rule="evenodd" d="M12.625 42.375C12.5435 44.5043 12.6268 46.5875 12.875 48.625C12.875 48.7917 12.875 48.9583 12.875 49.125C12.8293 53.2122 12.9126 57.2955 13.125 61.375C12.7687 60.5243 12.5604 59.6075 12.5 58.625C12.4065 54.5823 12.2815 50.5405 12.125 46.5C12.0778 45.062 12.2445 43.687 12.625 42.375Z" fill="#F9F9F9"/>
<path fill-rule="evenodd" clip-rule="evenodd" d="M272.875 40.625C273.26 41.9015 273.51 43.2348 273.625 44.625C273.06 43.3818 272.81 42.0485 272.875 40.625Z" fill="#8F8F8F"/>
<path opacity="0.01" fill-rule="evenodd" clip-rule="evenodd" d="M277.625 44.625C277.94 45.3145 278.147 46.0645 278.25 46.875C278.408 50.9598 278.49 55.0433 278.5 59.125C278.403 59.776 278.195 60.3595 277.875 60.875C277.875 60.2917 277.875 59.7083 277.875 59.125C277.875 59.0417 277.875 58.9583 277.875 58.875C278.043 56.9602 278.125 55.0017 278.125 53C278.173 50.1855 278.005 47.394 277.625 44.625Z" fill="#FAFAFA"/>
<path opacity="0.27" fill-rule="evenodd" clip-rule="evenodd" d="M12.8749 49.125C13.0826 52.165 13.2076 55.2483 13.2499 58.375C13.4428 59.7137 13.6511 61.047 13.8749 62.375C13.5357 62.1025 13.2857 61.769 13.1249 61.375C12.9125 57.2955 12.8292 53.2123 12.8749 49.125Z" fill="#B5B5B5"/>
<path fill-rule="evenodd" clip-rule="evenodd" d="M274.125 47.125C274.4 51.0835 274.525 55.0835 274.5 59.125C274.288 60.097 273.998 61.0138 273.625 61.875C274.09 56.9762 274.257 52.0598 274.125 47.125Z" fill="#C1C1C1"/>
<path opacity="0.122" fill-rule="evenodd" clip-rule="evenodd" d="M277.125 62.125C277.207 62.8727 276.957 63.456 276.375 63.875C276.483 63.2107 276.732 62.6273 277.125 62.125Z" fill="#A2A2A2"/>
<path fill-rule="evenodd" clip-rule="evenodd" d="M17.875 62.625C18.0554 62.7295 18.1804 62.896 18.25 63.125C18.3744 63.7865 18.416 64.4532 18.375 65.125C18.1048 64.3433 17.9382 63.51 17.875 62.625Z" fill="#929292"/>
<path opacity="0.067" fill-rule="evenodd" clip-rule="evenodd" d="M13.8751 62.375C14.4348 63.6205 14.6848 64.954 14.6251 66.375C14.0654 65.1295 13.8154 63.796 13.8751 62.375Z" fill="#B8B8B8"/>
<path fill-rule="evenodd" clip-rule="evenodd" d="M18.625 66.875C18.7793 66.9028 18.9043 66.986 19 67.125C19.0611 68.4922 19.2695 69.8255 19.625 71.125C18.9888 69.8138 18.6555 68.3973 18.625 66.875Z" fill="#BEBEBE"/>
<path opacity="0.208" fill-rule="evenodd" clip-rule="evenodd" d="M14.6251 66.375C14.9723 67.5673 15.139 68.8173 15.1251 70.125C14.7778 68.9327 14.6111 67.6827 14.6251 66.375Z" fill="#A4A4A4"/>
<path fill-rule="evenodd" clip-rule="evenodd" d="M266.875 69.375C266.623 69.6685 266.287 69.835 265.875 69.875C266.073 69.474 266.405 69.3073 266.875 69.375Z" fill="#737373"/>
<path opacity="0.012" fill-rule="evenodd" clip-rule="evenodd" d="M277.875 59.125C277.875 59.7082 277.875 60.2917 277.875 60.875C277.445 63.2492 276.528 65.416 275.125 67.375C272.952 68.7948 270.87 70.3365 268.875 72C264.673 73.9882 260.255 75.2383 255.625 75.75C252.785 76.0007 249.953 76.2925 247.125 76.625C247.375 76.4583 247.625 76.2917 247.875 76.125C250.928 75.544 254.01 75.169 257.125 75C260.84 74.3425 264.423 73.259 267.875 71.75C269.958 70.3333 272.042 68.9167 274.125 67.5C275.097 66.4315 275.847 65.2232 276.375 63.875C276.958 63.456 277.208 62.8728 277.125 62.125C277.243 61.0668 277.493 60.0667 277.875 59.125Z" fill="#D5D5D5"/>
<path opacity="0.333" fill-rule="evenodd" clip-rule="evenodd" d="M15.125 70.125C15.5511 70.9847 15.8844 71.9013 16.125 72.875C15.5026 72.0935 15.1693 71.177 15.125 70.125Z" fill="#858585"/>
<path fill-rule="evenodd" clip-rule="evenodd" d="M259.625 71.8751C259.122 72.2311 258.538 72.3976 257.875 72.3751C258.377 72.0191 258.962 71.8526 259.625 71.8751Z" fill="#555555"/>
<path fill-rule="evenodd" clip-rule="evenodd" d="M257.375 72.3751C256.872 72.7311 256.288 72.8976 255.625 72.8751C256.127 72.5191 256.712 72.3526 257.375 72.3751Z" fill="#555555"/>
<path fill-rule="evenodd" clip-rule="evenodd" d="M252.875 73.1251C251.682 73.4723 250.433 73.6391 249.125 73.6251C250.317 73.2778 251.568 73.1111 252.875 73.1251Z" fill="#383838"/>
<path fill-rule="evenodd" clip-rule="evenodd" d="M21.875 73.625C22.4372 73.77 22.8539 74.1033 23.125 74.625C22.5628 74.48 22.1461 74.1467 21.875 73.625Z" fill="#AFAFAF"/>
<path fill-rule="evenodd" clip-rule="evenodd" d="M23.125 74.625C23.6872 74.77 24.1039 75.1033 24.375 75.625C23.8128 75.48 23.3961 75.1467 23.125 74.625Z" fill="#B0B0B0"/>
<path fill-rule="evenodd" clip-rule="evenodd" d="M226.125 75.125C222.091 75.5698 218.008 75.8198 213.875 75.875C217.911 75.4618 221.994 75.2118 226.125 75.125Z" fill="#2D2D2D"/>
<path fill-rule="evenodd" clip-rule="evenodd" d="M24.375 75.625C34.4552 75.8215 44.5387 75.9465 54.625 76C55.921 76.0435 57.171 76.1685 58.375 76.375C47.3765 76.1898 36.3765 76.0648 25.375 76C24.9855 75.9475 24.6521 75.8225 24.375 75.625Z" fill="#D0D0D0"/>
<path opacity="0.094" fill-rule="evenodd" clip-rule="evenodd" d="M247.875 76.125C247.625 76.2917 247.375 76.4582 247.125 76.625C245.792 76.625 244.458 76.625 243.125 76.625C244.66 76.341 246.243 76.1742 247.875 76.125Z" fill="#A9A9A9"/>
<path opacity="0.129" fill-rule="evenodd" clip-rule="evenodd" d="M242.375 76.625C240.206 76.8512 238.04 77.1012 235.875 77.375C235.625 77.375 235.375 77.375 235.125 77.375C233.042 77.375 230.958 77.375 228.875 77.375C233.332 77.0335 237.832 76.7835 242.375 76.625Z" fill="#B8B8B8"/>
<path opacity="0.01" fill-rule="evenodd" clip-rule="evenodd" d="M242.375 76.625C242.625 76.625 242.875 76.625 243.125 76.625C244.458 76.625 245.792 76.625 247.125 76.625C243.426 77.063 239.676 77.313 235.875 77.375C238.039 77.1012 240.206 76.8512 242.375 76.625Z" fill="#F7F7F7"/>
<path opacity="0.059" fill-rule="evenodd" clip-rule="evenodd" d="M228.875 77.375C230.958 77.375 233.042 77.375 235.125 77.375C225.254 78.0907 215.337 78.674 205.375 79.125C202.375 79.125 199.375 79.125 196.375 79.125C196.375 79.0417 196.375 78.9583 196.375 78.875C207.22 78.617 218.053 78.117 228.875 77.375Z" fill="#DDDDDD"/>
<path opacity="0.545" fill-rule="evenodd" clip-rule="evenodd" d="M22.125 78.125C22.5067 78.1068 22.7567 78.2735 22.875 78.625C22.4933 78.6433 22.2433 78.4765 22.125 78.125Z" fill="#6F6F6F"/>
<path opacity="0.185" fill-rule="evenodd" clip-rule="evenodd" d="M196.375 78.875C196.375 78.9583 196.375 79.0418 196.375 79.125C158.457 79.0485 120.54 79.1318 82.625 79.375C83.9963 79.1683 85.413 79.0433 86.875 79C123.375 78.875 159.875 78.8333 196.375 78.875Z" fill="#B4B4B4"/>
<path opacity="0.014" fill-rule="evenodd" clip-rule="evenodd" d="M13.125 61.375C13.2857 61.769 13.5357 62.1025 13.875 62.375C13.8153 63.796 14.0653 65.1295 14.625 66.375C14.6111 67.6827 14.7778 68.9327 15.125 70.125C15.1693 71.177 15.5026 72.0935 16.125 72.875C17.6035 75.2013 19.6035 76.9513 22.125 78.125C22.2433 78.4765 22.4933 78.6432 22.875 78.625C23.3704 78.7488 23.8704 78.8738 24.375 79C31.6667 79.0833 38.9583 79.0417 46.25 78.875C58.3698 79.2862 70.4948 79.453 82.625 79.375C120.54 79.1318 158.457 79.0485 196.375 79.125C199.375 79.125 202.375 79.125 205.375 79.125C196.836 79.495 188.253 79.6618 179.625 79.625C143.581 79.2097 107.539 79.293 71.5 79.875C63.2875 79.8568 55.079 79.69 46.875 79.375C39.707 79.5395 32.5405 79.6645 25.375 79.75C23.9427 79.642 22.6094 79.2255 21.375 78.5C19.3113 77.3655 17.5196 75.9073 16 74.125C15.5148 73.238 15.0982 72.3215 14.75 71.375C14.2428 68.0328 13.7012 64.6992 13.125 61.375Z" fill="#EEEEEE"/>
<path d="M70.1722 42.5469H67.0614C67.0046 42.1444 66.8886 41.7869 66.7134 41.4744C66.5382 41.1572 66.3133 40.8873 66.0387 40.6648C65.7641 40.4422 65.4469 40.2718 65.087 40.1534C64.7319 40.035 64.346 39.9759 63.9293 39.9759C63.1765 39.9759 62.5207 40.1629 61.962 40.5369C61.4033 40.9062 60.9701 41.446 60.6623 42.1562C60.3545 42.8617 60.2006 43.7187 60.2006 44.7273C60.2006 45.7642 60.3545 46.6354 60.6623 47.3409C60.9748 48.0464 61.4104 48.5791 61.9691 48.9389C62.5278 49.2988 63.1741 49.4787 63.908 49.4787C64.32 49.4787 64.7011 49.4242 65.0515 49.3153C65.4066 49.2064 65.7215 49.0478 65.9961 48.8395C66.2707 48.6264 66.498 48.3684 66.6779 48.0653C66.8626 47.7623 66.9904 47.4167 67.0614 47.0284L70.1722 47.0426C70.0917 47.7102 69.8905 48.3542 69.5685 48.9744C69.2513 49.59 68.8228 50.1416 68.283 50.6293C67.748 51.1122 67.1088 51.4957 66.3654 51.7798C65.6268 52.0592 64.7911 52.1989 63.8583 52.1989C62.561 52.1989 61.4009 51.9053 60.3782 51.3182C59.3602 50.7311 58.5553 49.8812 57.9634 48.7685C57.3763 47.6558 57.0827 46.3087 57.0827 44.7273C57.0827 43.1411 57.381 41.7917 57.9776 40.679C58.5742 39.5663 59.3839 38.7187 60.4066 38.1364C61.4293 37.5492 62.5799 37.2557 63.8583 37.2557C64.7011 37.2557 65.4824 37.3741 66.2021 37.6108C66.9265 37.8475 67.5681 38.1932 68.1268 38.6477C68.6855 39.0975 69.14 39.6491 69.4904 40.3026C69.8455 40.956 70.0728 41.7041 70.1722 42.5469ZM75.3462 37.4545V52H72.3207V37.4545H75.3462ZM80.8807 52.206C80.1847 52.206 79.5644 52.0852 79.0199 51.8438C78.4754 51.5975 78.0445 51.2353 77.7273 50.7571C77.4148 50.2741 77.2585 49.6728 77.2585 48.9531C77.2585 48.3471 77.3698 47.8381 77.5923 47.4261C77.8149 47.0142 78.1179 46.6828 78.5014 46.4318C78.8849 46.1809 79.3205 45.9915 79.8082 45.8636C80.3007 45.7358 80.8168 45.6458 81.3565 45.5938C81.991 45.5275 82.5024 45.4659 82.8906 45.4091C83.2789 45.3475 83.5606 45.2576 83.7358 45.1392C83.911 45.0208 83.9986 44.8456 83.9986 44.6136V44.571C83.9986 44.1212 83.8565 43.7732 83.5724 43.527C83.2931 43.2808 82.8954 43.1577 82.3793 43.1577C81.8348 43.1577 81.4015 43.2784 81.0795 43.5199C80.7576 43.7566 80.5445 44.0549 80.4403 44.4148L77.642 44.1875C77.7841 43.5246 78.0634 42.9517 78.4801 42.4688C78.8968 41.9811 79.4342 41.607 80.0923 41.3466C80.7552 41.0814 81.5223 40.9489 82.3935 40.9489C82.9995 40.9489 83.5795 41.0199 84.1335 41.1619C84.6922 41.304 85.187 41.5241 85.6179 41.8224C86.0535 42.1207 86.3968 42.5043 86.6477 42.973C86.8987 43.437 87.0241 43.9934 87.0241 44.642V52H84.1548V50.4872H84.0696C83.8944 50.8281 83.66 51.1288 83.3665 51.3892C83.0729 51.6449 82.7202 51.8461 82.3082 51.9929C81.8963 52.1349 81.4205 52.206 80.8807 52.206ZM81.7472 50.1179C82.1922 50.1179 82.5852 50.0303 82.9261 49.8551C83.267 49.6752 83.5346 49.4337 83.7287 49.1307C83.9228 48.8277 84.0199 48.4844 84.0199 48.1009V46.9432C83.9252 47.0047 83.795 47.0616 83.6293 47.1136C83.4683 47.161 83.286 47.206 83.0824 47.2486C82.8788 47.2865 82.6752 47.322 82.4716 47.3551C82.268 47.3835 82.0833 47.4096 81.9176 47.4332C81.5625 47.4853 81.2524 47.5682 80.9872 47.6818C80.7221 47.7955 80.5161 47.9493 80.3693 48.1435C80.2225 48.3329 80.1491 48.5696 80.1491 48.8537C80.1491 49.2656 80.2983 49.5805 80.5966 49.7983C80.8996 50.0114 81.2831 50.1179 81.7472 50.1179ZM89.3714 52V41.0909H92.397V52H89.3714ZM90.8913 39.6847C90.4415 39.6847 90.0556 39.5355 89.7337 39.2372C89.4164 38.9342 89.2578 38.572 89.2578 38.1506C89.2578 37.7339 89.4164 37.3764 89.7337 37.0781C90.0556 36.7751 90.4415 36.6236 90.8913 36.6236C91.3411 36.6236 91.7247 36.7751 92.0419 37.0781C92.3639 37.3764 92.5249 37.7339 92.5249 38.1506C92.5249 38.572 92.3639 38.9342 92.0419 39.2372C91.7247 39.5355 91.3411 39.6847 90.8913 39.6847ZM94.8207 52V41.0909H97.7042V43.0156H97.832C98.0593 42.3764 98.4381 41.8722 98.9684 41.5028C99.4987 41.1335 100.133 40.9489 100.872 40.9489C101.62 40.9489 102.257 41.1359 102.782 41.5099C103.308 41.8793 103.658 42.3812 103.833 43.0156H103.947C104.17 42.3906 104.572 41.8911 105.154 41.517C105.742 41.1383 106.435 40.9489 107.235 40.9489C108.253 40.9489 109.08 41.2732 109.714 41.9219C110.353 42.5658 110.673 43.4796 110.673 44.6634V52H107.654V45.2599C107.654 44.6539 107.493 44.1993 107.172 43.8963C106.85 43.5933 106.447 43.4418 105.964 43.4418C105.415 43.4418 104.986 43.617 104.679 43.9673C104.371 44.313 104.217 44.7699 104.217 45.3381V52H101.284V45.196C101.284 44.661 101.13 44.2348 100.822 43.9176C100.519 43.6004 100.119 43.4418 99.6218 43.4418C99.2856 43.4418 98.9826 43.527 98.7127 43.6974C98.4476 43.8632 98.2369 44.0975 98.0806 44.4006C97.9244 44.6989 97.8462 45.0492 97.8462 45.4517V52H94.8207ZM119.56 56.0909C119.176 56.0909 118.816 56.0601 118.48 55.9986C118.149 55.9418 117.874 55.8684 117.656 55.7784L118.338 53.5199C118.693 53.6288 119.013 53.688 119.297 53.6974C119.586 53.7069 119.834 53.6406 120.043 53.4986C120.256 53.3565 120.429 53.1151 120.561 52.7741L120.739 52.3125L116.825 41.0909H120.007L122.266 49.1023H122.379L124.659 41.0909H127.862L123.622 53.179C123.419 53.7661 123.142 54.2775 122.791 54.7131C122.446 55.1534 122.008 55.492 121.477 55.7287C120.947 55.9702 120.308 56.0909 119.56 56.0909ZM133.988 52.2131C132.885 52.2131 131.931 51.9787 131.126 51.5099C130.326 51.0365 129.708 50.3783 129.272 49.5355C128.836 48.688 128.619 47.7055 128.619 46.5881C128.619 45.4612 128.836 44.4763 129.272 43.6335C129.708 42.786 130.326 42.1278 131.126 41.6591C131.931 41.1856 132.885 40.9489 133.988 40.9489C135.091 40.9489 136.043 41.1856 136.843 41.6591C137.648 42.1278 138.268 42.786 138.704 43.6335C139.139 44.4763 139.357 45.4612 139.357 46.5881C139.357 47.7055 139.139 48.688 138.704 49.5355C138.268 50.3783 137.648 51.0365 136.843 51.5099C136.043 51.9787 135.091 52.2131 133.988 52.2131ZM134.002 49.8693C134.504 49.8693 134.923 49.7273 135.259 49.4432C135.595 49.1544 135.849 48.7614 136.019 48.2642C136.194 47.767 136.282 47.2012 136.282 46.5668C136.282 45.9323 136.194 45.3665 136.019 44.8693C135.849 44.3722 135.595 43.9792 135.259 43.6903C134.923 43.4015 134.504 43.2571 134.002 43.2571C133.496 43.2571 133.069 43.4015 132.724 43.6903C132.383 43.9792 132.125 44.3722 131.95 44.8693C131.779 45.3665 131.694 45.9323 131.694 46.5668C131.694 47.2012 131.779 47.767 131.95 48.2642C132.125 48.7614 132.383 49.1544 132.724 49.4432C133.069 49.7273 133.496 49.8693 134.002 49.8693ZM148.32 47.3551V41.0909H151.346V52H148.441V50.0185H148.327C148.081 50.6577 147.672 51.1714 147.099 51.5597C146.531 51.9479 145.837 52.142 145.018 52.142C144.289 52.142 143.647 51.9763 143.093 51.6449C142.539 51.3134 142.106 50.8423 141.793 50.2315C141.486 49.6207 141.329 48.8892 141.325 48.0369V41.0909H144.35V47.4972C144.355 48.1411 144.528 48.6501 144.869 49.0241C145.21 49.3982 145.666 49.5852 146.239 49.5852C146.604 49.5852 146.945 49.5024 147.262 49.3366C147.579 49.1662 147.835 48.9152 148.029 48.5838C148.228 48.2524 148.325 47.8428 148.32 47.3551ZM153.766 52V41.0909H156.699V42.9943H156.813C157.012 42.3172 157.346 41.8059 157.814 41.4602C158.283 41.1098 158.823 40.9347 159.434 40.9347C159.585 40.9347 159.748 40.9441 159.924 40.9631C160.099 40.982 160.253 41.008 160.385 41.0412V43.7259C160.243 43.6832 160.047 43.6454 159.796 43.6122C159.545 43.5791 159.315 43.5625 159.107 43.5625C158.662 43.5625 158.264 43.6596 157.914 43.8537C157.568 44.0431 157.293 44.3082 157.09 44.6491C156.891 44.9901 156.792 45.383 156.792 45.8281V52H153.766ZM166.578 52V41.0909H169.512V42.9943H169.625C169.824 42.3172 170.158 41.8059 170.627 41.4602C171.096 41.1098 171.635 40.9347 172.246 40.9347C172.398 40.9347 172.561 40.9441 172.736 40.9631C172.911 40.982 173.065 41.008 173.198 41.0412V43.7259C173.056 43.6832 172.859 43.6454 172.608 43.6122C172.357 43.5791 172.128 43.5625 171.919 43.5625C171.474 43.5625 171.077 43.6596 170.726 43.8537C170.381 44.0431 170.106 44.3082 169.902 44.6491C169.703 44.9901 169.604 45.383 169.604 45.8281V52H166.578ZM179.226 52.2131C178.104 52.2131 177.138 51.9858 176.328 51.5312C175.523 51.072 174.903 50.4233 174.467 49.5852C174.032 48.7424 173.814 47.7457 173.814 46.5952C173.814 45.473 174.032 44.4882 174.467 43.6406C174.903 42.7931 175.516 42.1326 176.307 41.6591C177.102 41.1856 178.035 40.9489 179.105 40.9489C179.825 40.9489 180.495 41.0649 181.115 41.2969C181.74 41.5241 182.285 41.8674 182.749 42.3267C183.217 42.786 183.582 43.3636 183.842 44.0597C184.103 44.7509 184.233 45.5606 184.233 46.4886V47.3196H175.021V45.4446H181.385C181.385 45.009 181.29 44.6231 181.101 44.2869C180.911 43.9508 180.649 43.688 180.312 43.4986C179.981 43.3045 179.595 43.2074 179.155 43.2074C178.696 43.2074 178.288 43.3139 177.933 43.527C177.583 43.7353 177.308 44.017 177.109 44.3722C176.911 44.7225 176.809 45.1132 176.804 45.544V47.3267C176.804 47.8665 176.903 48.3329 177.102 48.7259C177.306 49.1188 177.592 49.4219 177.962 49.6349C178.331 49.848 178.769 49.9545 179.276 49.9545C179.612 49.9545 179.92 49.9072 180.199 49.8125C180.478 49.7178 180.717 49.5758 180.916 49.3864C181.115 49.197 181.267 48.965 181.371 48.6903L184.169 48.875C184.027 49.5473 183.736 50.1345 183.295 50.6364C182.86 51.1335 182.296 51.5218 181.605 51.8011C180.919 52.0758 180.125 52.2131 179.226 52.2131ZM188.281 52L185.312 41.0909H188.374L190.064 48.4205H190.163L191.925 41.0909H194.929L196.719 48.3778H196.811L198.473 41.0909H201.527L198.565 52H195.362L193.487 45.1392H193.352L191.477 52H188.281ZM206.252 52.206C205.556 52.206 204.935 52.0852 204.391 51.8438C203.846 51.5975 203.416 51.2353 203.098 50.7571C202.786 50.2741 202.63 49.6728 202.63 48.9531C202.63 48.3471 202.741 47.8381 202.963 47.4261C203.186 47.0142 203.489 46.6828 203.873 46.4318C204.256 46.1809 204.692 45.9915 205.179 45.8636C205.672 45.7358 206.188 45.6458 206.728 45.5938C207.362 45.5275 207.873 45.4659 208.262 45.4091C208.65 45.3475 208.932 45.2576 209.107 45.1392C209.282 45.0208 209.37 44.8456 209.37 44.6136V44.571C209.37 44.1212 209.228 43.7732 208.944 43.527C208.664 43.2808 208.266 43.1577 207.75 43.1577C207.206 43.1577 206.773 43.2784 206.451 43.5199C206.129 43.7566 205.916 44.0549 205.811 44.4148L203.013 44.1875C203.155 43.5246 203.435 42.9517 203.851 42.4688C204.268 41.9811 204.805 41.607 205.463 41.3466C206.126 41.0814 206.893 40.9489 207.765 40.9489C208.371 40.9489 208.951 41.0199 209.505 41.1619C210.063 41.304 210.558 41.5241 210.989 41.8224C211.425 42.1207 211.768 42.5043 212.019 42.973C212.27 43.437 212.395 43.9934 212.395 44.642V52H209.526V50.4872H209.441C209.266 50.8281 209.031 51.1288 208.738 51.3892C208.444 51.6449 208.091 51.8461 207.679 51.9929C207.267 52.1349 206.792 52.206 206.252 52.206ZM207.118 50.1179C207.563 50.1179 207.956 50.0303 208.297 49.8551C208.638 49.6752 208.906 49.4337 209.1 49.1307C209.294 48.8277 209.391 48.4844 209.391 48.1009V46.9432C209.296 47.0047 209.166 47.0616 209 47.1136C208.839 47.161 208.657 47.206 208.453 47.2486C208.25 47.2865 208.046 47.322 207.843 47.3551C207.639 47.3835 207.454 47.4096 207.289 47.4332C206.934 47.4853 206.623 47.5682 206.358 47.6818C206.093 47.7955 205.887 47.9493 205.74 48.1435C205.594 48.3329 205.52 48.5696 205.52 48.8537C205.52 49.2656 205.669 49.5805 205.968 49.7983C206.271 50.0114 206.654 50.1179 207.118 50.1179ZM214.743 52V41.0909H217.676V42.9943H217.789C217.988 42.3172 218.322 41.8059 218.791 41.4602C219.26 41.1098 219.799 40.9347 220.41 40.9347C220.562 40.9347 220.725 40.9441 220.9 40.9631C221.075 40.982 221.229 41.008 221.362 41.0412V43.7259C221.22 43.6832 221.023 43.6454 220.772 43.6122C220.521 43.5791 220.292 43.5625 220.083 43.5625C219.638 43.5625 219.241 43.6596 218.89 43.8537C218.545 44.0431 218.27 44.3082 218.066 44.6491C217.868 44.9901 217.768 45.383 217.768 45.8281V52H214.743ZM226.438 52.1776C225.61 52.1776 224.859 51.9645 224.187 51.5384C223.519 51.1075 222.989 50.4754 222.596 49.642C222.208 48.804 222.013 47.7765 222.013 46.5597C222.013 45.3097 222.215 44.2704 222.617 43.4418C223.02 42.6084 223.555 41.9858 224.222 41.5739C224.895 41.1572 225.631 40.9489 226.431 40.9489C227.042 40.9489 227.551 41.053 227.958 41.2614C228.37 41.465 228.701 41.7206 228.952 42.0284C229.208 42.3314 229.402 42.6297 229.535 42.9233H229.627V37.4545H232.646V52H229.663V50.2528H229.535C229.393 50.5559 229.192 50.8565 228.931 51.1548C228.675 51.4484 228.342 51.6922 227.93 51.8864C227.522 52.0805 227.025 52.1776 226.438 52.1776ZM227.397 49.7699C227.885 49.7699 228.297 49.6373 228.633 49.3722C228.974 49.1023 229.234 48.7259 229.414 48.2429C229.599 47.7599 229.691 47.1941 229.691 46.5455C229.691 45.8968 229.601 45.3333 229.421 44.8551C229.241 44.3769 228.981 44.0076 228.64 43.7472C228.299 43.4867 227.885 43.3565 227.397 43.3565C226.9 43.3565 226.481 43.4915 226.14 43.7614C225.799 44.0312 225.541 44.4053 225.366 44.8835C225.191 45.3617 225.103 45.9157 225.103 46.5455C225.103 47.1799 225.191 47.741 225.366 48.2287C225.546 48.7116 225.804 49.0904 226.14 49.3651C226.481 49.6349 226.9 49.7699 227.397 49.7699Z" fill="black"/>
</svg>
