<svg width="283" height="153" viewBox="0 0 283 153" fill="none" xmlns="http://www.w3.org/2000/svg">
<g clip-path="url(#clip0_75_6234)">
<path opacity="0.873" fill-rule="evenodd" clip-rule="evenodd" d="M120.313 0.837557C135.2 0.705607 150.075 1.08483 164.938 1.97506C167.568 2.14078 170.193 2.37423 172.813 2.67506C182.669 3.92561 192.526 5.15061 202.388 6.35006C210.891 7.88411 219.408 9.34238 227.938 10.7251C229.997 11.1088 232.04 11.5756 234.063 12.1251C239.514 13.9811 244.939 15.9061 250.338 17.9001C252.931 18.991 255.322 20.391 257.513 22.1001C258.587 22.9985 259.607 23.961 260.575 24.9876C263.673 28.2602 266.707 31.5852 269.675 34.9626C272.652 39.6309 275.452 44.4143 278.075 49.3126C279.074 51.6147 279.774 54.0064 280.175 56.4876C280.947 61.3953 281.764 66.2953 282.625 71.1876C282.896 76.2013 282.954 81.2168 282.8 86.2376C282.077 92.7231 280.093 98.7903 276.85 104.438C271.164 112.342 263.902 118.32 255.063 122.375C248.49 125.305 241.665 127.462 234.588 128.85C230.694 129.477 226.784 130.002 222.863 130.425C220.313 130.982 217.746 131.449 215.163 131.825C209.384 132.261 203.609 132.726 197.838 133.225C178.845 133.29 159.857 133.61 140.875 134.188C136.059 134.16 131.247 134.014 126.438 133.75C114.124 133.547 101.815 133.722 89.5126 134.275C77.613 134.433 65.713 134.55 53.8126 134.625C48.1463 134.816 42.488 135.138 36.8376 135.588C35.0631 139.373 32.9339 142.931 30.4501 146.263C28.6075 148.163 26.7116 150.001 24.7626 151.775C23.8657 152.169 22.9325 152.284 21.9626 152.125C21.7743 151.822 21.7451 151.502 21.8751 151.163C22.5168 150.055 23.1584 148.945 23.8001 147.838C24.4522 145.248 24.8897 142.623 25.1126 139.963C25.1887 137.101 24.4597 134.476 22.9251 132.088C22.4001 131.388 21.8751 130.688 21.3501 129.988C16.1738 125.163 11.5071 119.913 7.35011 114.238C5.26848 110.892 3.46021 107.392 1.92511 103.738C1.33063 101.05 1.18486 98.3371 1.48761 95.6001C1.29966 94.0006 1.15388 92.3958 1.05011 90.7876C0.991832 85.7126 0.933382 80.6376 0.875107 75.5626C0.124707 68.0446 0.0664316 60.5194 0.700107 52.9876C1.89273 44.0153 5.15928 35.907 10.5001 28.6626C14.4117 24.1575 18.9909 20.5118 24.2376 17.7251C35.7108 11.5168 47.9023 7.43331 60.8126 5.47506C70.6994 4.08766 80.616 2.97938 90.5626 2.15006C100.512 1.81581 110.428 1.37831 120.313 0.837557Z" fill="#010101"/>
<path fill-rule="evenodd" clip-rule="evenodd" d="M137.988 4.86245C132.883 4.80452 127.808 4.8628 122.763 5.03745C117.805 5.20317 112.847 5.3199 107.888 5.38745C117.913 4.7074 127.946 4.5324 137.988 4.86245Z" fill="#7E7E7E"/>
<path fill-rule="evenodd" clip-rule="evenodd" d="M122.763 5.03747C127.808 4.86282 132.883 4.80455 137.988 4.86247C138.92 4.86247 139.855 4.86247 140.788 4.86247C141.605 4.9792 142.42 5.09575 143.238 5.21247C141.78 5.21247 140.32 5.21247 138.863 5.21247C133.525 5.03782 128.16 4.97955 122.763 5.03747Z" fill="#C2C2C2"/>
<path fill-rule="evenodd" clip-rule="evenodd" d="M138.863 5.21255C140.32 5.21255 141.78 5.21255 143.238 5.21255C144.263 5.1562 145.254 5.21447 146.213 5.38755C146.762 5.53122 147.345 5.61872 147.963 5.65005C151.811 5.8317 155.661 5.9192 159.513 5.91255C162.885 6.16787 166.268 6.40115 169.663 6.61255C169.895 6.61255 170.13 6.61255 170.363 6.61255C170.436 6.7389 170.552 6.8264 170.713 6.87505C172.484 7.00192 174.234 7.2352 175.963 7.57505C178.637 7.8918 181.319 8.1543 184.013 8.36255C184.086 8.4889 184.202 8.5764 184.363 8.62505C187.388 8.99185 190.421 9.25435 193.463 9.41255C194.157 9.5284 194.857 9.58667 195.563 9.58755C195.795 9.58755 196.03 9.58755 196.263 9.58755C197.097 9.83062 197.972 9.94735 198.888 9.93755C198.945 9.93755 199.005 9.93755 199.063 9.93755C199.775 10.2095 200.533 10.326 201.338 10.2875C201.667 10.4347 202.017 10.4932 202.388 10.4625C202.739 10.7117 203.149 10.8283 203.613 10.8125C203.845 10.8125 204.08 10.8125 204.313 10.8125C204.848 11.0981 205.431 11.3024 206.063 11.425C207.578 11.693 209.094 11.9847 210.613 12.3C211.194 12.3872 211.776 12.4164 212.363 12.3875C212.42 12.3875 212.48 12.3875 212.538 12.3875C213.187 12.6962 213.887 12.9005 214.638 13C216.333 13.2134 218.026 13.4176 219.713 13.6125C219.77 13.6125 219.83 13.6125 219.888 13.6125C219.907 13.7205 219.965 13.808 220.063 13.875C221.114 13.9627 222.164 14.0502 223.213 14.1375C223.445 14.1375 223.68 14.1375 223.913 14.1375C224.975 14.5556 226.083 14.8766 227.238 15.1C227.819 15.1872 228.401 15.2164 228.988 15.1875C229.392 15.2738 229.8 15.3321 230.213 15.3625C230.564 15.6117 230.974 15.7283 231.438 15.7125C231.721 15.8067 232.012 15.865 232.313 15.8875C232.332 15.9955 232.39 16.083 232.488 16.15C233.074 16.2967 233.657 16.4425 234.238 16.5875C234.295 16.5875 234.355 16.5875 234.413 16.5875C234.407 16.762 234.495 16.8787 234.675 16.9375C236.026 17.4365 237.396 17.8449 238.788 18.1625C238.845 18.1625 238.905 18.1625 238.963 18.1625C239.029 18.413 239.204 18.5587 239.488 18.6C240.07 18.7068 240.653 18.7943 241.238 18.8625C241.609 19.2397 242.074 19.4147 242.638 19.3875C242.755 19.3875 242.87 19.3875 242.988 19.3875C243.787 19.8693 244.662 20.2193 245.613 20.4375C245.67 20.4375 245.73 20.4375 245.788 20.4375C246.439 20.8798 247.139 21.2298 247.888 21.4875C248.651 21.9369 249.466 22.2869 250.338 22.5375C250.968 22.9904 251.668 23.3404 252.438 23.5875C252.593 23.6943 252.768 23.7526 252.963 23.7625C253.022 23.9092 253.139 23.9676 253.313 23.9375C253.395 24.1836 253.57 24.3003 253.838 24.2875C253.971 24.5959 254.205 24.7709 254.538 24.8125C254.727 25.1778 255.019 25.411 255.413 25.5125C255.88 26.0958 256.405 26.6208 256.988 27.0875C257.325 27.7175 257.793 28.2425 258.388 28.6625C259.487 30.0529 260.712 31.3362 262.063 32.5125C262.635 33.377 263.335 34.1353 264.163 34.7875C264.56 35.4763 265.085 36.0596 265.738 36.5375C265.78 36.8707 265.955 37.1042 266.263 37.2375C266.305 37.5708 266.48 37.8042 266.788 37.9375C266.775 38.2048 266.891 38.3798 267.138 38.4626C267.18 38.7957 267.355 39.0292 267.663 39.1625C267.663 39.2793 267.663 39.3958 267.663 39.5126C268.56 40.9911 269.376 42.5079 270.113 44.0625C270.312 44.2946 270.547 44.4696 270.813 44.5876C270.8 44.8548 270.916 45.0298 271.163 45.1125C271.163 45.2293 271.163 45.3458 271.163 45.4626C271.751 46.7614 272.51 47.9281 273.438 48.9626C273.425 49.2298 273.541 49.4048 273.788 49.4875C273.847 50.2463 274.138 50.8881 274.663 51.4126C274.825 51.5994 274.885 51.8327 274.838 52.1125C274.815 52.4262 274.873 52.7177 275.013 52.9875C275.111 53.8039 275.343 54.5622 275.713 55.2626C275.819 55.4185 275.877 55.5935 275.888 55.7876C275.86 56.2578 275.888 56.7245 275.975 57.1875C276.124 57.868 276.327 58.5097 276.588 59.1126C276.588 59.2293 276.588 59.3458 276.588 59.4626C276.57 60.5686 276.745 61.6185 277.113 62.6126C277.113 62.7293 277.113 62.8458 277.113 62.9626C277.085 63.4328 277.113 63.8995 277.2 64.3626C277.249 64.5229 277.337 64.6394 277.463 64.7126C277.589 65.1088 277.646 65.517 277.638 65.9375C277.638 66.1708 277.638 66.4043 277.638 66.6376C277.611 67.201 277.786 67.6665 278.163 68.0376C278.163 68.0953 278.163 68.1548 278.163 68.2126C278.163 68.6798 278.163 69.1453 278.163 69.6125C278.626 74.5546 278.801 79.5141 278.688 84.4876C278.688 84.6626 278.688 84.8376 278.688 85.0126C278.378 87.2158 278.028 89.4331 277.638 91.6626C277.485 92.2383 277.368 92.8211 277.288 93.4126C276.806 94.2123 276.456 95.0873 276.238 96.0376C276.012 96.1356 275.867 96.3106 275.8 96.5626C275.693 97.1453 275.606 97.7281 275.538 98.3126C275.42 98.3703 275.305 98.4298 275.188 98.4876C274.722 99.4711 274.257 100.463 273.788 101.463C270.636 106.219 266.728 110.274 262.063 113.625C260.913 114.456 259.746 115.244 258.563 115.988C257.574 116.423 256.583 116.861 255.588 117.3C255.456 117.417 255.397 117.563 255.413 117.738C254.599 117.708 253.957 118 253.488 118.613C253.19 118.585 252.898 118.614 252.613 118.7C251.372 119.264 250.147 119.817 248.938 120.363C248.938 120.48 248.88 120.538 248.763 120.538C248.465 120.51 248.173 120.539 247.888 120.625C247.667 120.699 247.552 120.844 247.538 121.063C246.05 121.486 244.591 121.953 243.163 122.463C241.028 122.923 238.928 123.448 236.863 124.038C236.579 124.132 236.289 124.19 235.988 124.213C235.183 124.424 234.365 124.599 233.538 124.738C232.979 124.748 232.425 124.806 231.875 124.913C231.581 124.932 231.376 125.047 231.263 125.263C230.834 125.228 230.426 125.285 230.038 125.438C228.303 125.436 226.611 125.611 224.963 125.963C224.186 126.069 223.428 126.187 222.688 126.313C221.221 126.421 219.762 126.626 218.313 126.925C217.994 126.96 217.761 127.105 217.613 127.363C217.555 127.363 217.495 127.363 217.438 127.363C217.205 127.363 216.97 127.363 216.738 127.363C215.045 127.48 213.353 127.625 211.663 127.8C210.928 127.893 210.228 128.038 209.563 128.238C208.448 128.211 207.34 128.269 206.238 128.413C205.77 128.413 205.305 128.413 204.838 128.413C202.794 128.514 200.751 128.659 198.713 128.85C193.55 128.88 188.416 128.967 183.313 129.113C182.807 129.058 182.341 129.118 181.913 129.288C174.62 129.258 167.33 129.288 160.038 129.375C159.42 129.407 158.837 129.494 158.288 129.638C157.596 129.772 156.896 129.832 156.188 129.813C154.263 129.813 152.338 129.813 150.413 129.813C141.482 129.891 132.557 129.776 123.638 129.463C116.578 129.429 109.52 129.487 102.463 129.638C94.9107 129.865 87.3857 130.04 79.8876 130.163C79.6543 130.163 79.4209 130.163 79.1876 130.163C70.5542 130.133 61.9207 130.163 53.2876 130.25C52.7285 130.282 52.2035 130.369 51.7126 130.513C51.4793 130.513 51.2459 130.513 51.0126 130.513C48.7595 130.451 46.5429 130.567 44.3626 130.863C43.4381 130.793 42.5631 130.908 41.7376 131.213C39.7025 131.377 37.6608 131.435 35.6126 131.388C35.3723 131.36 35.1389 131.389 34.9126 131.475C33.8922 132.229 33.1922 133.192 32.8126 134.363C32.7059 134.518 32.6476 134.693 32.6376 134.888C32.3154 135.299 32.0822 135.766 31.9376 136.288C31.0666 137.325 30.3666 138.493 29.8376 139.788C29.5084 139.079 29.275 138.321 29.1376 137.513C29.0209 137.163 28.9043 136.813 28.7876 136.463C28.7876 136.23 28.7876 135.995 28.7876 135.763C28.814 133.838 28.1723 132.203 26.8626 130.863C26.821 130.53 26.646 130.296 26.3376 130.163C26.3677 129.989 26.3093 129.872 26.1626 129.813C26.121 129.48 25.946 129.246 25.6376 129.113C25.596 128.78 25.421 128.546 25.1126 128.413C25.1026 128.218 25.0444 128.043 24.9376 127.888C24.7308 127.483 24.4975 127.074 24.2376 126.663C24.0771 126.552 23.9021 126.495 23.7126 126.488C22.3032 124.902 20.7864 123.444 19.1626 122.113C18.7543 121.588 18.2876 121.12 17.7626 120.713C17.5426 120.2 17.1926 119.792 16.7126 119.488C16.4793 119.138 16.1876 118.845 15.8376 118.613C15.7361 118.219 15.5028 117.927 15.1376 117.738C14.9768 117.284 14.6851 116.934 14.2626 116.688C14.221 116.355 14.046 116.121 13.7376 115.988C13.5768 115.534 13.2851 115.184 12.8626 114.938C12.821 114.605 12.646 114.371 12.3376 114.238C12.2361 113.844 12.0028 113.552 11.6376 113.363C11.4126 112.904 11.1208 112.496 10.7626 112.138C10.7626 112.02 10.7626 111.905 10.7626 111.788C10.1109 110.426 9.41092 109.084 8.66262 107.763C8.54309 107.7 8.42637 107.64 8.31262 107.588C8.32539 107.32 8.20867 107.145 7.96262 107.063C7.92132 106.517 7.68804 106.109 7.26262 105.838C7.26262 105.72 7.26262 105.605 7.26262 105.488C6.93467 104.422 6.55544 103.372 6.12512 102.338C6.09519 101.081 6.00769 99.8561 5.86262 98.6626C5.91774 96.3736 5.77179 94.0986 5.42512 91.8376C5.36684 86.4703 5.30839 81.1048 5.25012 75.7375C5.20654 74.7645 5.06077 73.8301 4.81262 72.9376C4.49114 67.5773 4.37442 62.2115 4.46262 56.8376C4.60804 55.6771 4.66632 54.5104 4.63762 53.3376C4.84009 52.8523 4.95682 52.3273 4.98762 51.7626C5.19062 51.0309 5.36562 50.2724 5.51262 49.4875C5.51262 49.2543 5.51262 49.0208 5.51262 48.7876C5.76182 48.4349 5.87837 48.0266 5.86262 47.5625C5.83917 47.249 5.89744 46.9574 6.03762 46.6875C6.49962 45.8852 6.79117 45.0102 6.91262 44.0625C7.33962 43.3071 7.63134 42.4905 7.78762 41.6125C7.78762 41.4958 7.84589 41.4375 7.96262 41.4375C9.00929 39.3444 10.0593 37.2444 11.1126 35.1375C11.1126 35.0208 11.1126 34.9043 11.1126 34.7875C11.3587 34.7048 11.4754 34.5298 11.4626 34.2625C11.7897 33.9941 12.023 33.6441 12.1626 33.2125C12.471 33.0792 12.646 32.8457 12.6876 32.5125C13.9828 30.954 15.3828 29.4665 16.8876 28.05C18.257 27.0011 19.5403 25.8636 20.7376 24.6375C21.0708 24.5959 21.3043 24.4209 21.4376 24.1125C21.7708 24.0709 22.0043 23.8959 22.1376 23.5875C22.5485 23.5714 22.8401 23.3964 23.0126 23.0625C26.7077 21.2441 30.3827 19.3776 34.0376 17.4625C34.4181 17.4188 34.7098 17.2438 34.9126 16.9375C35.7614 16.8297 36.5196 16.538 37.1876 16.0625C38.1037 15.7775 38.9787 15.4275 39.8126 15.0125C40.3196 14.9025 40.7863 14.7275 41.2126 14.4875C42.7766 14.1214 44.2931 13.6547 45.7626 13.0875C46.8103 12.9285 47.8019 12.6367 48.7376 12.2125C49.1573 12.2547 49.5073 12.138 49.7876 11.8625C50.3702 11.9124 50.8952 11.7957 51.3626 11.5125C52.7505 11.049 54.1505 10.699 55.5626 10.4625C56.5906 10.3665 57.5823 10.1915 58.5376 9.93755C59.749 9.91025 60.9157 9.73525 62.0376 9.41255C62.6715 9.4437 63.2549 9.32697 63.7876 9.06255C64.2543 9.06255 64.7209 9.06255 65.1876 9.06255C66.5117 9.01495 67.7949 8.83995 69.0376 8.53755C70.5487 8.60177 72.007 8.42677 73.4126 8.01255C74.4642 8.0416 75.5142 8.01237 76.5626 7.92505C78.9914 7.45307 81.4414 7.16135 83.9126 7.05005C84.8048 6.96657 85.6215 6.76235 86.3626 6.43755C86.5376 6.43755 86.7126 6.43755 86.8876 6.43755C91.4152 6.47972 95.9068 6.30472 100.363 5.91255C100.771 5.91255 101.179 5.91255 101.588 5.91255C102.813 5.91255 104.038 5.91255 105.263 5.91255C109.467 5.7911 113.667 5.58687 117.863 5.30005C124.863 5.21255 131.863 5.18332 138.863 5.21255Z" fill="#FEFEFE"/>
<path d="M27.8182 31.3636V43H26.4091V31.3636H27.8182ZM34.2571 34.2727V35.4091H29.7344V34.2727H34.2571ZM31.0526 32.1818H32.3935V40.5C32.3935 40.8788 32.4484 41.1629 32.5582 41.3523C32.6719 41.5379 32.8158 41.6629 32.9901 41.7273C33.1681 41.7879 33.3556 41.8182 33.5526 41.8182C33.7003 41.8182 33.8215 41.8106 33.9162 41.7955C34.0109 41.7765 34.0866 41.7614 34.1435 41.75L34.4162 42.9545C34.3253 42.9886 34.1984 43.0227 34.0355 43.0568C33.8726 43.0947 33.6662 43.1136 33.4162 43.1136C33.0374 43.1136 32.6662 43.0322 32.3026 42.8693C31.9427 42.7064 31.6435 42.4583 31.4048 42.125C31.17 41.7917 31.0526 41.3712 31.0526 40.8636V32.1818ZM39.8395 43.1818C38.9986 43.1818 38.2732 42.9962 37.6634 42.625C37.0573 42.25 36.5895 41.7273 36.2599 41.0568C35.9342 40.3826 35.7713 39.5985 35.7713 38.7045C35.7713 37.8106 35.9342 37.0227 36.2599 36.3409C36.5895 35.6553 37.0478 35.1212 37.6349 34.7386C38.2259 34.3523 38.9152 34.1591 39.7031 34.1591C40.1577 34.1591 40.6065 34.2348 41.0497 34.3864C41.4929 34.5379 41.8963 34.7841 42.2599 35.125C42.6236 35.4621 42.9134 35.9091 43.1293 36.4659C43.3452 37.0227 43.4531 37.7083 43.4531 38.5227V39.0909H36.7259V37.9318H42.0895C42.0895 37.4394 41.991 37 41.794 36.6136C41.6009 36.2273 41.3243 35.9223 40.9645 35.6989C40.6084 35.4754 40.188 35.3636 39.7031 35.3636C39.169 35.3636 38.7069 35.4962 38.3168 35.7614C37.9304 36.0227 37.633 36.3636 37.4247 36.7841C37.2164 37.2045 37.1122 37.6553 37.1122 38.1364V38.9091C37.1122 39.5682 37.2259 40.1269 37.4531 40.5852C37.6842 41.0398 38.0043 41.3864 38.4134 41.625C38.8224 41.8598 39.2978 41.9773 39.8395 41.9773C40.1918 41.9773 40.5099 41.928 40.794 41.8295C41.0819 41.7273 41.33 41.5758 41.5384 41.375C41.7467 41.1705 41.9077 40.9167 42.0213 40.6136L43.3168 40.9773C43.1804 41.4167 42.9512 41.803 42.6293 42.1364C42.3073 42.4659 41.9096 42.7235 41.4361 42.9091C40.9626 43.0909 40.4304 43.1818 39.8395 43.1818ZM45.4929 43V34.2727H46.7884V35.6364H46.902C47.0838 35.1705 47.3774 34.8087 47.7827 34.5511C48.188 34.2898 48.6747 34.1591 49.2429 34.1591C49.8187 34.1591 50.2978 34.2898 50.6804 34.5511C51.0668 34.8087 51.3679 35.1705 51.5838 35.6364H51.6747C51.8982 35.1856 52.2334 34.8277 52.6804 34.5625C53.1274 34.2936 53.6634 34.1591 54.2884 34.1591C55.0687 34.1591 55.7069 34.4034 56.2031 34.892C56.6993 35.3769 56.9474 36.1326 56.9474 37.1591V43H55.6065V37.1591C55.6065 36.5152 55.4304 36.0549 55.0781 35.7784C54.7259 35.5019 54.3111 35.3636 53.8338 35.3636C53.2202 35.3636 52.7448 35.5492 52.4077 35.9205C52.0705 36.2879 51.902 36.7538 51.902 37.3182V43H50.5384V37.0227C50.5384 36.5265 50.3774 36.1269 50.0554 35.8239C49.7334 35.517 49.3187 35.3636 48.8111 35.3636C48.4626 35.3636 48.1368 35.4564 47.8338 35.642C47.5346 35.8277 47.2921 36.0852 47.1065 36.4148C46.9247 36.7405 46.8338 37.1174 46.8338 37.5455V43H45.4929ZM65.2401 37.75V43H63.8991V31.3636H65.2401V35.6364H65.3537C65.5582 35.1856 65.8651 34.8277 66.2741 34.5625C66.687 34.2936 67.2363 34.1591 67.9219 34.1591C68.5166 34.1591 69.0374 34.2784 69.4844 34.517C69.9313 34.7519 70.2779 35.1136 70.5241 35.6023C70.7741 36.0871 70.8991 36.7045 70.8991 37.4545V43H69.5582V37.5455C69.5582 36.8523 69.3783 36.3163 69.0185 35.9375C68.6624 35.5549 68.1681 35.3636 67.5355 35.3636C67.0961 35.3636 66.7022 35.4564 66.3537 35.642C66.009 35.8277 65.7363 36.0985 65.5355 36.4545C65.3385 36.8106 65.2401 37.2424 65.2401 37.75ZM75.9205 43.2045C75.3674 43.2045 74.8655 43.1004 74.4148 42.892C73.964 42.6799 73.6061 42.375 73.3409 41.9773C73.0758 41.5758 72.9432 41.0909 72.9432 40.5227C72.9432 40.0227 73.0417 39.6174 73.2386 39.3068C73.4356 38.9924 73.6989 38.7462 74.0284 38.5682C74.358 38.3902 74.7216 38.2576 75.1193 38.1705C75.5208 38.0795 75.9242 38.0076 76.3295 37.9545C76.8598 37.8864 77.2898 37.8352 77.6193 37.8011C77.9527 37.7633 78.1951 37.7008 78.3466 37.6136C78.5019 37.5265 78.5795 37.375 78.5795 37.1591V37.1136C78.5795 36.553 78.4261 36.1174 78.1193 35.8068C77.8163 35.4962 77.3561 35.3409 76.7386 35.3409C76.0985 35.3409 75.5966 35.4811 75.233 35.7614C74.8693 36.0417 74.6136 36.3409 74.4659 36.6591L73.1932 36.2045C73.4205 35.6742 73.7235 35.2614 74.1023 34.9659C74.4848 34.6667 74.9015 34.4583 75.3523 34.3409C75.8068 34.2197 76.2538 34.1591 76.6932 34.1591C76.9735 34.1591 77.2955 34.1932 77.6591 34.2614C78.0265 34.3258 78.3807 34.4602 78.7216 34.6648C79.0663 34.8693 79.3523 35.178 79.5795 35.5909C79.8068 36.0038 79.9205 36.5568 79.9205 37.25V43H78.5795V41.8182H78.5114C78.4205 42.0076 78.2689 42.2102 78.0568 42.4261C77.8447 42.642 77.5625 42.8258 77.2102 42.9773C76.858 43.1288 76.428 43.2045 75.9205 43.2045ZM76.125 42C76.6553 42 77.1023 41.8958 77.4659 41.6875C77.8333 41.4792 78.1098 41.2102 78.2955 40.8807C78.4848 40.5511 78.5795 40.2045 78.5795 39.8409V38.6136C78.5227 38.6818 78.3977 38.7443 78.2045 38.8011C78.0152 38.8542 77.7955 38.9015 77.5455 38.9432C77.2992 38.9811 77.0587 39.0152 76.8239 39.0455C76.5928 39.072 76.4053 39.0947 76.2614 39.1136C75.9129 39.1591 75.5871 39.233 75.2841 39.3352C74.9848 39.4337 74.7424 39.5833 74.5568 39.7841C74.375 39.9811 74.2841 40.25 74.2841 40.5909C74.2841 41.0568 74.4564 41.4091 74.8011 41.6477C75.1496 41.8826 75.5909 42 76.125 42ZM88.5497 36.2273L87.3452 36.5682C87.2694 36.3674 87.1577 36.1723 87.0099 35.983C86.866 35.7898 86.669 35.6307 86.419 35.5057C86.169 35.3807 85.849 35.3182 85.4588 35.3182C84.9247 35.3182 84.4796 35.4413 84.1236 35.6875C83.7713 35.9299 83.5952 36.2386 83.5952 36.6136C83.5952 36.947 83.7164 37.2102 83.9588 37.4034C84.2012 37.5966 84.58 37.7576 85.0952 37.8864L86.3906 38.2045C87.1709 38.3939 87.7524 38.6837 88.1349 39.0739C88.5175 39.4602 88.7088 39.9583 88.7088 40.5682C88.7088 41.0682 88.5649 41.5152 88.277 41.9091C87.9929 42.303 87.5952 42.6136 87.0838 42.8409C86.5724 43.0682 85.9777 43.1818 85.2997 43.1818C84.4096 43.1818 83.6728 42.9886 83.0895 42.6023C82.5062 42.2159 82.1368 41.6515 81.9815 40.9091L83.2543 40.5909C83.3755 41.0606 83.6046 41.4129 83.9418 41.6477C84.2827 41.8826 84.7277 42 85.277 42C85.902 42 86.3982 41.8674 86.7656 41.6023C87.1368 41.3333 87.3224 41.0114 87.3224 40.6364C87.3224 40.3333 87.2164 40.0795 87.0043 39.875C86.7921 39.6667 86.4664 39.5114 86.027 39.4091L84.5724 39.0682C83.7732 38.8788 83.1861 38.5852 82.8111 38.1875C82.4399 37.786 82.2543 37.2841 82.2543 36.6818C82.2543 36.1894 82.3925 35.7538 82.669 35.375C82.9493 34.9962 83.33 34.6989 83.8111 34.483C84.2959 34.267 84.8452 34.1591 85.4588 34.1591C86.3224 34.1591 87.0005 34.3485 87.4929 34.7273C87.9891 35.1061 88.3414 35.6061 88.5497 36.2273ZM95.4091 43V31.3636H96.75V35.6591H96.8636C96.9621 35.5076 97.0985 35.3144 97.2727 35.0795C97.4508 34.8409 97.7045 34.6288 98.0341 34.4432C98.3674 34.2538 98.8182 34.1591 99.3864 34.1591C100.121 34.1591 100.769 34.3428 101.33 34.7102C101.89 35.0777 102.328 35.5985 102.642 36.2727C102.956 36.947 103.114 37.7424 103.114 38.6591C103.114 39.5833 102.956 40.3845 102.642 41.0625C102.328 41.7367 101.892 42.2595 101.335 42.6307C100.778 42.9981 100.136 43.1818 99.4091 43.1818C98.8485 43.1818 98.3996 43.089 98.0625 42.9034C97.7254 42.714 97.4659 42.5 97.2841 42.2614C97.1023 42.0189 96.9621 41.8182 96.8636 41.6591H96.7045V43H95.4091ZM96.7273 38.6364C96.7273 39.2955 96.8239 39.8769 97.017 40.3807C97.2102 40.8807 97.4924 41.2727 97.8636 41.5568C98.2348 41.8371 98.6894 41.9773 99.2273 41.9773C99.7879 41.9773 100.256 41.8295 100.631 41.5341C101.009 41.2348 101.294 40.8333 101.483 40.3295C101.676 39.822 101.773 39.2576 101.773 38.6364C101.773 38.0227 101.678 37.4697 101.489 36.9773C101.303 36.4811 101.021 36.089 100.642 35.8011C100.267 35.5095 99.7955 35.3636 99.2273 35.3636C98.6818 35.3636 98.2235 35.5019 97.8523 35.7784C97.4811 36.0511 97.2008 36.4337 97.0114 36.9261C96.822 37.4148 96.7273 37.9848 96.7273 38.6364ZM108.824 43.1818C107.983 43.1818 107.258 42.9962 106.648 42.625C106.042 42.25 105.574 41.7273 105.244 41.0568C104.919 40.3826 104.756 39.5985 104.756 38.7045C104.756 37.8106 104.919 37.0227 105.244 36.3409C105.574 35.6553 106.032 35.1212 106.619 34.7386C107.21 34.3523 107.9 34.1591 108.688 34.1591C109.142 34.1591 109.591 34.2348 110.034 34.3864C110.477 34.5379 110.881 34.7841 111.244 35.125C111.608 35.4621 111.898 35.9091 112.114 36.4659C112.33 37.0227 112.438 37.7083 112.438 38.5227V39.0909H105.71V37.9318H111.074C111.074 37.4394 110.975 37 110.778 36.6136C110.585 36.2273 110.309 35.9223 109.949 35.6989C109.593 35.4754 109.172 35.3636 108.688 35.3636C108.153 35.3636 107.691 35.4962 107.301 35.7614C106.915 36.0227 106.617 36.3636 106.409 36.7841C106.201 37.2045 106.097 37.6553 106.097 38.1364V38.9091C106.097 39.5682 106.21 40.1269 106.438 40.5852C106.669 41.0398 106.989 41.3864 107.398 41.625C107.807 41.8598 108.282 41.9773 108.824 41.9773C109.176 41.9773 109.494 41.928 109.778 41.8295C110.066 41.7273 110.314 41.5758 110.523 41.375C110.731 41.1705 110.892 40.9167 111.006 40.6136L112.301 40.9773C112.165 41.4167 111.936 41.803 111.614 42.1364C111.292 42.4659 110.894 42.7235 110.42 42.9091C109.947 43.0909 109.415 43.1818 108.824 43.1818ZM118.136 43.1818C117.295 43.1818 116.57 42.9962 115.96 42.625C115.354 42.25 114.886 41.7273 114.557 41.0568C114.231 40.3826 114.068 39.5985 114.068 38.7045C114.068 37.8106 114.231 37.0227 114.557 36.3409C114.886 35.6553 115.345 35.1212 115.932 34.7386C116.523 34.3523 117.212 34.1591 118 34.1591C118.455 34.1591 118.903 34.2348 119.347 34.3864C119.79 34.5379 120.193 34.7841 120.557 35.125C120.92 35.4621 121.21 35.9091 121.426 36.4659C121.642 37.0227 121.75 37.7083 121.75 38.5227V39.0909H115.023V37.9318H120.386C120.386 37.4394 120.288 37 120.091 36.6136C119.898 36.2273 119.621 35.9223 119.261 35.6989C118.905 35.4754 118.485 35.3636 118 35.3636C117.466 35.3636 117.004 35.4962 116.614 35.7614C116.227 36.0227 115.93 36.3636 115.722 36.7841C115.513 37.2045 115.409 37.6553 115.409 38.1364V38.9091C115.409 39.5682 115.523 40.1269 115.75 40.5852C115.981 41.0398 116.301 41.3864 116.71 41.625C117.119 41.8598 117.595 41.9773 118.136 41.9773C118.489 41.9773 118.807 41.928 119.091 41.8295C119.379 41.7273 119.627 41.5758 119.835 41.375C120.044 41.1705 120.205 40.9167 120.318 40.6136L121.614 40.9773C121.477 41.4167 121.248 41.803 120.926 42.1364C120.604 42.4659 120.206 42.7235 119.733 42.9091C119.259 43.0909 118.727 43.1818 118.136 43.1818ZM125.131 37.75V43H123.79V34.2727H125.085V35.6364H125.199C125.403 35.1932 125.714 34.8371 126.131 34.5682C126.547 34.2955 127.085 34.1591 127.744 34.1591C128.335 34.1591 128.852 34.2803 129.295 34.5227C129.739 34.7614 130.083 35.125 130.33 35.6136C130.576 36.0985 130.699 36.7121 130.699 37.4545V43H129.358V37.5455C129.358 36.8598 129.18 36.3258 128.824 35.9432C128.468 35.5568 127.979 35.3636 127.358 35.3636C126.93 35.3636 126.547 35.4564 126.21 35.642C125.877 35.8277 125.614 36.0985 125.42 36.4545C125.227 36.8106 125.131 37.2424 125.131 37.75ZM140.217 43.2045C139.664 43.2045 139.162 43.1004 138.712 42.892C138.261 42.6799 137.903 42.375 137.638 41.9773C137.373 41.5758 137.24 41.0909 137.24 40.5227C137.24 40.0227 137.339 39.6174 137.536 39.3068C137.732 38.9924 137.996 38.7462 138.325 38.5682C138.655 38.3902 139.018 38.2576 139.416 38.1705C139.818 38.0795 140.221 38.0076 140.626 37.9545C141.157 37.8864 141.587 37.8352 141.916 37.8011C142.25 37.7633 142.492 37.7008 142.643 37.6136C142.799 37.5265 142.876 37.375 142.876 37.1591V37.1136C142.876 36.553 142.723 36.1174 142.416 35.8068C142.113 35.4962 141.653 35.3409 141.036 35.3409C140.395 35.3409 139.893 35.4811 139.53 35.7614C139.166 36.0417 138.911 36.3409 138.763 36.6591L137.49 36.2045C137.717 35.6742 138.02 35.2614 138.399 34.9659C138.782 34.6667 139.198 34.4583 139.649 34.3409C140.104 34.2197 140.551 34.1591 140.99 34.1591C141.27 34.1591 141.592 34.1932 141.956 34.2614C142.323 34.3258 142.678 34.4602 143.018 34.6648C143.363 34.8693 143.649 35.178 143.876 35.5909C144.104 36.0038 144.217 36.5568 144.217 37.25V43H142.876V41.8182H142.808C142.717 42.0076 142.566 42.2102 142.354 42.4261C142.142 42.642 141.859 42.8258 141.507 42.9773C141.155 43.1288 140.725 43.2045 140.217 43.2045ZM140.422 42C140.952 42 141.399 41.8958 141.763 41.6875C142.13 41.4792 142.407 41.2102 142.592 40.8807C142.782 40.5511 142.876 40.2045 142.876 39.8409V38.6136C142.82 38.6818 142.695 38.7443 142.501 38.8011C142.312 38.8542 142.092 38.9015 141.842 38.9432C141.596 38.9811 141.356 39.0152 141.121 39.0455C140.89 39.072 140.702 39.0947 140.558 39.1136C140.21 39.1591 139.884 39.233 139.581 39.3352C139.282 39.4337 139.039 39.5833 138.854 39.7841C138.672 39.9811 138.581 40.25 138.581 40.5909C138.581 41.0568 138.753 41.4091 139.098 41.6477C139.446 41.8826 139.888 42 140.422 42ZM149.96 43.1818C149.233 43.1818 148.591 42.9981 148.034 42.6307C147.477 42.2595 147.042 41.7367 146.727 41.0625C146.413 40.3845 146.256 39.5833 146.256 38.6591C146.256 37.7424 146.413 36.947 146.727 36.2727C147.042 35.5985 147.479 35.0777 148.04 34.7102C148.6 34.3428 149.248 34.1591 149.983 34.1591C150.551 34.1591 151 34.2538 151.33 34.4432C151.663 34.6288 151.917 34.8409 152.091 35.0795C152.269 35.3144 152.407 35.5076 152.506 35.6591H152.619V31.3636H153.96V43H152.665V41.6591H152.506C152.407 41.8182 152.267 42.0189 152.085 42.2614C151.903 42.5 151.644 42.714 151.307 42.9034C150.97 43.089 150.521 43.1818 149.96 43.1818ZM150.142 41.9773C150.68 41.9773 151.134 41.8371 151.506 41.5568C151.877 41.2727 152.159 40.8807 152.352 40.3807C152.545 39.8769 152.642 39.2955 152.642 38.6364C152.642 37.9848 152.547 37.4148 152.358 36.9261C152.169 36.4337 151.888 36.0511 151.517 35.7784C151.146 35.5019 150.688 35.3636 150.142 35.3636C149.574 35.3636 149.1 35.5095 148.722 35.8011C148.347 36.089 148.064 36.4811 147.875 36.9773C147.689 37.4697 147.597 38.0227 147.597 38.6364C147.597 39.2576 147.691 39.822 147.881 40.3295C148.074 40.8333 148.358 41.2348 148.733 41.5341C149.112 41.8295 149.581 41.9773 150.142 41.9773ZM159.898 43.1818C159.17 43.1818 158.528 42.9981 157.972 42.6307C157.415 42.2595 156.979 41.7367 156.665 41.0625C156.35 40.3845 156.193 39.5833 156.193 38.6591C156.193 37.7424 156.35 36.947 156.665 36.2727C156.979 35.5985 157.417 35.0777 157.977 34.7102C158.538 34.3428 159.186 34.1591 159.92 34.1591C160.489 34.1591 160.938 34.2538 161.267 34.4432C161.6 34.6288 161.854 34.8409 162.028 35.0795C162.206 35.3144 162.345 35.5076 162.443 35.6591H162.557V31.3636H163.898V43H162.602V41.6591H162.443C162.345 41.8182 162.205 42.0189 162.023 42.2614C161.841 42.5 161.581 42.714 161.244 42.9034C160.907 43.089 160.458 43.1818 159.898 43.1818ZM160.08 41.9773C160.617 41.9773 161.072 41.8371 161.443 41.5568C161.814 41.2727 162.097 40.8807 162.29 40.3807C162.483 39.8769 162.58 39.2955 162.58 38.6364C162.58 37.9848 162.485 37.4148 162.295 36.9261C162.106 36.4337 161.826 36.0511 161.455 35.7784C161.083 35.5019 160.625 35.3636 160.08 35.3636C159.511 35.3636 159.038 35.5095 158.659 35.8011C158.284 36.089 158.002 36.4811 157.812 36.9773C157.627 37.4697 157.534 38.0227 157.534 38.6364C157.534 39.2576 157.629 39.822 157.818 40.3295C158.011 40.8333 158.295 41.2348 158.67 41.5341C159.049 41.8295 159.519 41.9773 160.08 41.9773ZM170.199 43.1818C169.358 43.1818 168.633 42.9962 168.023 42.625C167.417 42.25 166.949 41.7273 166.619 41.0568C166.294 40.3826 166.131 39.5985 166.131 38.7045C166.131 37.8106 166.294 37.0227 166.619 36.3409C166.949 35.6553 167.407 35.1212 167.994 34.7386C168.585 34.3523 169.275 34.1591 170.062 34.1591C170.517 34.1591 170.966 34.2348 171.409 34.3864C171.852 34.5379 172.256 34.7841 172.619 35.125C172.983 35.4621 173.273 35.9091 173.489 36.4659C173.705 37.0227 173.812 37.7083 173.812 38.5227V39.0909H167.085V37.9318H172.449C172.449 37.4394 172.35 37 172.153 36.6136C171.96 36.2273 171.684 35.9223 171.324 35.6989C170.968 35.4754 170.547 35.3636 170.062 35.3636C169.528 35.3636 169.066 35.4962 168.676 35.7614C168.29 36.0227 167.992 36.3636 167.784 36.7841C167.576 37.2045 167.472 37.6553 167.472 38.1364V38.9091C167.472 39.5682 167.585 40.1269 167.812 40.5852C168.044 41.0398 168.364 41.3864 168.773 41.625C169.182 41.8598 169.657 41.9773 170.199 41.9773C170.551 41.9773 170.869 41.928 171.153 41.8295C171.441 41.7273 171.689 41.5758 171.898 41.375C172.106 41.1705 172.267 40.9167 172.381 40.6136L173.676 40.9773C173.54 41.4167 173.311 41.803 172.989 42.1364C172.667 42.4659 172.269 42.7235 171.795 42.9091C171.322 43.0909 170.79 43.1818 170.199 43.1818ZM179.148 43.1818C178.42 43.1818 177.778 42.9981 177.222 42.6307C176.665 42.2595 176.229 41.7367 175.915 41.0625C175.6 40.3845 175.443 39.5833 175.443 38.6591C175.443 37.7424 175.6 36.947 175.915 36.2727C176.229 35.5985 176.667 35.0777 177.227 34.7102C177.788 34.3428 178.436 34.1591 179.17 34.1591C179.739 34.1591 180.188 34.2538 180.517 34.4432C180.85 34.6288 181.104 34.8409 181.278 35.0795C181.456 35.3144 181.595 35.5076 181.693 35.6591H181.807V31.3636H183.148V43H181.852V41.6591H181.693C181.595 41.8182 181.455 42.0189 181.273 42.2614C181.091 42.5 180.831 42.714 180.494 42.9034C180.157 43.089 179.708 43.1818 179.148 43.1818ZM179.33 41.9773C179.867 41.9773 180.322 41.8371 180.693 41.5568C181.064 41.2727 181.347 40.8807 181.54 40.3807C181.733 39.8769 181.83 39.2955 181.83 38.6364C181.83 37.9848 181.735 37.4148 181.545 36.9261C181.356 36.4337 181.076 36.0511 180.705 35.7784C180.333 35.5019 179.875 35.3636 179.33 35.3636C178.761 35.3636 178.288 35.5095 177.909 35.8011C177.534 36.089 177.252 36.4811 177.062 36.9773C176.877 37.4697 176.784 38.0227 176.784 38.6364C176.784 39.2576 176.879 39.822 177.068 40.3295C177.261 40.8333 177.545 41.2348 177.92 41.5341C178.299 41.8295 178.769 41.9773 179.33 41.9773ZM194.085 34.2727V35.4091H189.562V34.2727H194.085ZM190.881 32.1818H192.222V40.5C192.222 40.8788 192.277 41.1629 192.386 41.3523C192.5 41.5379 192.644 41.6629 192.818 41.7273C192.996 41.7879 193.184 41.8182 193.381 41.8182C193.528 41.8182 193.65 41.8106 193.744 41.7955C193.839 41.7765 193.915 41.7614 193.972 41.75L194.244 42.9545C194.153 42.9886 194.027 43.0227 193.864 43.0568C193.701 43.0947 193.494 43.1136 193.244 43.1136C192.866 43.1136 192.494 43.0322 192.131 42.8693C191.771 42.7064 191.472 42.4583 191.233 42.125C190.998 41.7917 190.881 41.3712 190.881 40.8636V32.1818ZM199.554 43.1818C198.766 43.1818 198.075 42.9943 197.48 42.6193C196.889 42.2443 196.427 41.7197 196.094 41.0455C195.764 40.3712 195.599 39.5833 195.599 38.6818C195.599 37.7727 195.764 36.9792 196.094 36.3011C196.427 35.6231 196.889 35.0966 197.48 34.7216C198.075 34.3466 198.766 34.1591 199.554 34.1591C200.342 34.1591 201.031 34.3466 201.622 34.7216C202.217 35.0966 202.679 35.6231 203.009 36.3011C203.342 36.9792 203.509 37.7727 203.509 38.6818C203.509 39.5833 203.342 40.3712 203.009 41.0455C202.679 41.7197 202.217 42.2443 201.622 42.6193C201.031 42.9943 200.342 43.1818 199.554 43.1818ZM199.554 41.9773C200.152 41.9773 200.645 41.8239 201.031 41.517C201.418 41.2102 201.704 40.8068 201.889 40.3068C202.075 39.8068 202.168 39.2652 202.168 38.6818C202.168 38.0985 202.075 37.5549 201.889 37.0511C201.704 36.5473 201.418 36.1402 201.031 35.8295C200.645 35.5189 200.152 35.3636 199.554 35.3636C198.955 35.3636 198.463 35.5189 198.077 35.8295C197.69 36.1402 197.404 36.5473 197.219 37.0511C197.033 37.5549 196.94 38.0985 196.94 38.6818C196.94 39.2652 197.033 39.8068 197.219 40.3068C197.404 40.8068 197.69 41.2102 198.077 41.517C198.463 41.8239 198.955 41.9773 199.554 41.9773ZM210.919 46.2727C210.692 46.2727 210.489 46.2538 210.311 46.2159C210.133 46.1818 210.01 46.1477 209.942 46.1136L210.283 44.9318C210.608 45.0152 210.896 45.0455 211.146 45.0227C211.396 45 211.618 44.8883 211.811 44.6875C212.008 44.4905 212.188 44.1705 212.351 43.7273L212.601 43.0455L209.374 34.2727H210.828L213.237 41.2273H213.328L215.737 34.2727H217.192L213.487 44.2727C213.321 44.7235 213.114 45.0966 212.868 45.392C212.622 45.6913 212.336 45.9129 212.01 46.0568C211.688 46.2008 211.324 46.2727 210.919 46.2727ZM222.195 43.1818C221.407 43.1818 220.715 42.9943 220.121 42.6193C219.53 42.2443 219.068 41.7197 218.734 41.0455C218.405 40.3712 218.24 39.5833 218.24 38.6818C218.24 37.7727 218.405 36.9792 218.734 36.3011C219.068 35.6231 219.53 35.0966 220.121 34.7216C220.715 34.3466 221.407 34.1591 222.195 34.1591C222.982 34.1591 223.672 34.3466 224.263 34.7216C224.857 35.0966 225.32 35.6231 225.649 36.3011C225.982 36.9792 226.149 37.7727 226.149 38.6818C226.149 39.5833 225.982 40.3712 225.649 41.0455C225.32 41.7197 224.857 42.2443 224.263 42.6193C223.672 42.9943 222.982 43.1818 222.195 43.1818ZM222.195 41.9773C222.793 41.9773 223.286 41.8239 223.672 41.517C224.058 41.2102 224.344 40.8068 224.53 40.3068C224.715 39.8068 224.808 39.2652 224.808 38.6818C224.808 38.0985 224.715 37.5549 224.53 37.0511C224.344 36.5473 224.058 36.1402 223.672 35.8295C223.286 35.5189 222.793 35.3636 222.195 35.3636C221.596 35.3636 221.104 35.5189 220.717 35.8295C220.331 36.1402 220.045 36.5473 219.859 37.0511C219.674 37.5549 219.581 38.0985 219.581 38.6818C219.581 39.2652 219.674 39.8068 219.859 40.3068C220.045 40.8068 220.331 41.2102 220.717 41.517C221.104 41.8239 221.596 41.9773 222.195 41.9773ZM233.696 39.4318V34.2727H235.037V43H233.696V41.5227H233.605C233.401 41.9659 233.082 42.3428 232.651 42.6534C232.219 42.9602 231.673 43.1136 231.014 43.1136C230.469 43.1136 229.984 42.9943 229.56 42.7557C229.135 42.5133 228.802 42.1496 228.56 41.6648C228.317 41.1761 228.196 40.5606 228.196 39.8182V34.2727H229.537V39.7273C229.537 40.3636 229.715 40.8712 230.071 41.25C230.431 41.6288 230.889 41.8182 231.446 41.8182C231.779 41.8182 232.118 41.733 232.463 41.5625C232.812 41.392 233.103 41.1307 233.338 40.7784C233.577 40.4261 233.696 39.9773 233.696 39.4318ZM237.493 43V34.2727H238.788V35.5909H238.879C239.038 35.1591 239.326 34.8087 239.743 34.5398C240.16 34.2708 240.629 34.1364 241.152 34.1364C241.25 34.1364 241.374 34.1383 241.521 34.142C241.669 34.1458 241.781 34.1515 241.857 34.1591V35.5227C241.811 35.5114 241.707 35.4943 241.544 35.4716C241.385 35.4451 241.216 35.4318 241.038 35.4318C240.614 35.4318 240.235 35.5208 239.902 35.6989C239.572 35.8731 239.311 36.1155 239.118 36.4261C238.929 36.733 238.834 37.0833 238.834 37.4773V43H237.493ZM29.5227 61.1818C28.7955 61.1818 28.1534 60.9981 27.5966 60.6307C27.0398 60.2595 26.6042 59.7367 26.2898 59.0625C25.9754 58.3845 25.8182 57.5833 25.8182 56.6591C25.8182 55.7424 25.9754 54.947 26.2898 54.2727C26.6042 53.5985 27.0417 53.0777 27.6023 52.7102C28.1629 52.3428 28.8106 52.1591 29.5455 52.1591C30.1136 52.1591 30.5625 52.2538 30.892 52.4432C31.2254 52.6288 31.4792 52.8409 31.6534 53.0795C31.8314 53.3144 31.9697 53.5076 32.0682 53.6591H32.1818V49.3636H33.5227V61H32.2273V59.6591H32.0682C31.9697 59.8182 31.8295 60.0189 31.6477 60.2614C31.4659 60.5 31.2064 60.714 30.8693 60.9034C30.5322 61.089 30.0833 61.1818 29.5227 61.1818ZM29.7045 59.9773C30.2424 59.9773 30.697 59.8371 31.0682 59.5568C31.4394 59.2727 31.7216 58.8807 31.9148 58.3807C32.108 57.8769 32.2045 57.2955 32.2045 56.6364C32.2045 55.9848 32.1098 55.4148 31.9205 54.9261C31.7311 54.4337 31.4508 54.0511 31.0795 53.7784C30.7083 53.5019 30.25 53.3636 29.7045 53.3636C29.1364 53.3636 28.6629 53.5095 28.2841 53.8011C27.9091 54.089 27.6269 54.4811 27.4375 54.9773C27.2519 55.4697 27.1591 56.0227 27.1591 56.6364C27.1591 57.2576 27.2538 57.822 27.4432 58.3295C27.6364 58.8333 27.9205 59.2348 28.2955 59.5341C28.6742 59.8295 29.1439 59.9773 29.7045 59.9773ZM39.8239 61.1818C38.983 61.1818 38.2576 60.9962 37.6477 60.625C37.0417 60.25 36.5739 59.7273 36.2443 59.0568C35.9186 58.3826 35.7557 57.5985 35.7557 56.7045C35.7557 55.8106 35.9186 55.0227 36.2443 54.3409C36.5739 53.6553 37.0322 53.1212 37.6193 52.7386C38.2102 52.3523 38.8996 52.1591 39.6875 52.1591C40.142 52.1591 40.5909 52.2348 41.0341 52.3864C41.4773 52.5379 41.8807 52.7841 42.2443 53.125C42.608 53.4621 42.8977 53.9091 43.1136 54.4659C43.3295 55.0227 43.4375 55.7083 43.4375 56.5227V57.0909H36.7102V55.9318H42.0739C42.0739 55.4394 41.9754 55 41.7784 54.6136C41.5852 54.2273 41.3087 53.9223 40.9489 53.6989C40.5928 53.4754 40.1723 53.3636 39.6875 53.3636C39.1534 53.3636 38.6913 53.4962 38.3011 53.7614C37.9148 54.0227 37.6174 54.3636 37.4091 54.7841C37.2008 55.2045 37.0966 55.6553 37.0966 56.1364V56.9091C37.0966 57.5682 37.2102 58.1269 37.4375 58.5852C37.6686 59.0398 37.9886 59.3864 38.3977 59.625C38.8068 59.8598 39.2822 59.9773 39.8239 59.9773C40.1761 59.9773 40.4943 59.928 40.7784 59.8295C41.0663 59.7273 41.3144 59.5758 41.5227 59.375C41.7311 59.1705 41.892 58.9167 42.0057 58.6136L43.3011 58.9773C43.1648 59.4167 42.9356 59.803 42.6136 60.1364C42.2917 60.4659 41.8939 60.7235 41.4205 60.9091C40.947 61.0909 40.4148 61.1818 39.8239 61.1818ZM51.6591 54.2273L50.4545 54.5682C50.3788 54.3674 50.267 54.1723 50.1193 53.983C49.9754 53.7898 49.7784 53.6307 49.5284 53.5057C49.2784 53.3807 48.9583 53.3182 48.5682 53.3182C48.0341 53.3182 47.589 53.4413 47.233 53.6875C46.8807 53.9299 46.7045 54.2386 46.7045 54.6136C46.7045 54.947 46.8258 55.2102 47.0682 55.4034C47.3106 55.5966 47.6894 55.7576 48.2045 55.8864L49.5 56.2045C50.2803 56.3939 50.8617 56.6837 51.2443 57.0739C51.6269 57.4602 51.8182 57.9583 51.8182 58.5682C51.8182 59.0682 51.6742 59.5152 51.3864 59.9091C51.1023 60.303 50.7045 60.6136 50.1932 60.8409C49.6818 61.0682 49.0871 61.1818 48.4091 61.1818C47.5189 61.1818 46.7822 60.9886 46.1989 60.6023C45.6155 60.2159 45.2462 59.6515 45.0909 58.9091L46.3636 58.5909C46.4848 59.0606 46.714 59.4129 47.0511 59.6477C47.392 59.8826 47.8371 60 48.3864 60C49.0114 60 49.5076 59.8674 49.875 59.6023C50.2462 59.3333 50.4318 59.0114 50.4318 58.6364C50.4318 58.3333 50.3258 58.0795 50.1136 57.875C49.9015 57.6667 49.5758 57.5114 49.1364 57.4091L47.6818 57.0682C46.8826 56.8788 46.2955 56.5852 45.9205 56.1875C45.5492 55.786 45.3636 55.2841 45.3636 54.6818C45.3636 54.1894 45.5019 53.7538 45.7784 53.375C46.0587 52.9962 46.4394 52.6989 46.9205 52.483C47.4053 52.267 47.9545 52.1591 48.5682 52.1591C49.4318 52.1591 50.1098 52.3485 50.6023 52.7273C51.0985 53.1061 51.4508 53.6061 51.6591 54.2273ZM55.0866 57.8182L55.0639 56.1591H55.3366L59.1548 52.2727H60.8139L56.7457 56.3864H56.6321L55.0866 57.8182ZM53.8366 61V49.3636H55.1776V61H53.8366ZM59.3821 61L55.973 56.6818L56.9276 55.75L61.0866 61H59.3821ZM63.517 61.0909C63.2367 61.0909 62.9962 60.9905 62.7955 60.7898C62.5947 60.589 62.4943 60.3485 62.4943 60.0682C62.4943 59.7879 62.5947 59.5473 62.7955 59.3466C62.9962 59.1458 63.2367 59.0455 63.517 59.0455C63.7973 59.0455 64.0379 59.1458 64.2386 59.3466C64.4394 59.5473 64.5398 59.7879 64.5398 60.0682C64.5398 60.2538 64.4924 60.4242 64.3977 60.5795C64.3068 60.7348 64.1837 60.8598 64.0284 60.9545C63.8769 61.0455 63.7064 61.0909 63.517 61.0909Z" fill="#1B161B"/>
<path fill-rule="evenodd" clip-rule="evenodd" d="M140.787 4.86255C145.014 5.05575 149.214 5.23075 153.387 5.38755C152.862 5.38755 152.337 5.38755 151.812 5.38755C149.945 5.38755 148.08 5.38755 146.212 5.38755C145.253 5.21447 144.263 5.1562 143.237 5.21255C142.42 5.09582 141.605 4.97927 140.787 4.86255Z" fill="#666666"/>
<path fill-rule="evenodd" clip-rule="evenodd" d="M122.763 5.03752C128.16 4.9796 133.525 5.03787 138.863 5.21252C131.863 5.1833 124.863 5.21252 117.863 5.30002C113.667 5.58685 109.467 5.79107 105.263 5.91252C105.963 5.7958 106.663 5.67925 107.363 5.56252C107.518 5.45577 107.693 5.3975 107.888 5.38752C112.847 5.31997 117.805 5.20325 122.763 5.03752Z" fill="#E7E7E7"/>
<path fill-rule="evenodd" clip-rule="evenodd" d="M146.213 5.38745C148.08 5.38745 149.945 5.38745 151.813 5.38745C154.345 5.6629 156.912 5.77963 159.513 5.73745C159.513 5.79573 159.513 5.85418 159.513 5.91245C155.661 5.9191 151.811 5.8316 147.963 5.64995C147.345 5.61863 146.762 5.53113 146.213 5.38745Z" fill="#E3E3E3"/>
<path fill-rule="evenodd" clip-rule="evenodd" d="M151.812 5.38745C152.337 5.38745 152.862 5.38745 153.387 5.38745C155.458 5.46428 157.5 5.581 159.512 5.73745C156.912 5.77963 154.345 5.6629 151.812 5.38745Z" fill="#888888"/>
<path fill-rule="evenodd" clip-rule="evenodd" d="M103.513 5.56249C102.871 5.67921 102.229 5.79576 101.588 5.91249C101.179 5.91249 100.771 5.91249 100.363 5.91249C99.3708 5.91249 98.3792 5.91249 97.3875 5.91249C99.3937 5.64176 101.435 5.52504 103.513 5.56249Z" fill="#737373"/>
<path fill-rule="evenodd" clip-rule="evenodd" d="M103.513 5.5625C104.796 5.5625 106.079 5.5625 107.363 5.5625C106.663 5.67922 105.963 5.79577 105.263 5.9125C104.038 5.9125 102.813 5.9125 101.588 5.9125C102.229 5.79577 102.871 5.67922 103.513 5.5625Z" fill="#C2C2C2"/>
<path fill-rule="evenodd" clip-rule="evenodd" d="M96.8625 5.91249C93.8007 6.08854 90.7092 6.20526 87.5875 6.26249C90.6446 5.96359 93.7363 5.84686 96.8625 5.91249Z" fill="#676767"/>
<path fill-rule="evenodd" clip-rule="evenodd" d="M162.487 5.73751C163.485 5.71563 164.477 5.77391 165.462 5.91251C165.462 5.97078 165.462 6.02923 165.462 6.08751C164.435 6.07071 163.443 5.95398 162.487 5.73751Z" fill="#646464"/>
<path fill-rule="evenodd" clip-rule="evenodd" d="M96.8625 5.91248C97.0375 5.91248 97.2125 5.91248 97.3875 5.91248C98.3792 5.91248 99.3708 5.91248 100.363 5.91248C95.9067 6.30465 91.4151 6.47965 86.8875 6.43748C87.0744 6.27403 87.3077 6.21558 87.5875 6.26248C90.7092 6.20525 93.8007 6.08853 96.8625 5.91248Z" fill="#D2D2D2"/>
<path fill-rule="evenodd" clip-rule="evenodd" d="M159.513 5.91255C159.513 5.85427 159.513 5.79582 159.513 5.73755C160.505 5.73755 161.495 5.73755 162.488 5.73755C163.443 5.95402 164.435 6.07075 165.463 6.08755C166.282 6.11712 167.099 6.1754 167.913 6.26255C168.495 6.37927 169.08 6.49582 169.663 6.61255C166.268 6.40115 162.885 6.16787 159.513 5.91255Z" fill="#C2C2C2"/>
<path fill-rule="evenodd" clip-rule="evenodd" d="M165.463 6.08748C165.463 6.0292 165.463 5.97075 165.463 5.91248C166.78 5.93453 168.063 6.05125 169.313 6.26248C168.845 6.26248 168.38 6.26248 167.913 6.26248C167.099 6.17533 166.282 6.11705 165.463 6.08748Z" fill="#4E4E4E"/>
<path fill-rule="evenodd" clip-rule="evenodd" d="M167.912 6.26245C168.38 6.26245 168.845 6.26245 169.312 6.26245C169.932 6.30673 170.515 6.42328 171.062 6.61245C170.83 6.61245 170.595 6.61245 170.362 6.61245C170.13 6.61245 169.895 6.61245 169.662 6.61245C169.08 6.49573 168.495 6.37918 167.912 6.26245Z" fill="#939393"/>
<path fill-rule="evenodd" clip-rule="evenodd" d="M171.237 6.61245C172.275 6.54735 173.267 6.66408 174.212 6.96245C173.185 6.94565 172.193 6.82893 171.237 6.61245Z" fill="#818181"/>
<path fill-rule="evenodd" clip-rule="evenodd" d="M170.362 6.61255C170.595 6.61255 170.83 6.61255 171.062 6.61255C171.12 6.61255 171.18 6.61255 171.237 6.61255C172.193 6.82902 173.185 6.94575 174.212 6.96255C174.505 6.96255 174.795 6.96255 175.087 6.96255C176.326 7.29767 177.609 7.47267 178.937 7.48755C179.513 7.62002 180.096 7.73675 180.687 7.83755C181.996 8.02725 183.339 8.14397 184.712 8.18755C184.712 8.24582 184.712 8.30427 184.712 8.36255C184.48 8.36255 184.245 8.36255 184.012 8.36255C181.319 8.1543 178.636 7.8918 175.962 7.57505C174.233 7.2352 172.483 7.00192 170.712 6.87505C170.551 6.8264 170.436 6.7389 170.362 6.61255Z" fill="#CFCFCF"/>
<path fill-rule="evenodd" clip-rule="evenodd" d="M81.6375 6.78748C79.4745 7.306 77.2578 7.59755 74.9875 7.66248C77.1694 7.28815 79.3859 6.99643 81.6375 6.78748Z" fill="#6D6D6D"/>
<path fill-rule="evenodd" clip-rule="evenodd" d="M175.088 6.96252C176.411 7.02552 177.693 7.20052 178.938 7.48752C177.609 7.47265 176.327 7.29765 175.088 6.96252Z" fill="#515151"/>
<path fill-rule="evenodd" clip-rule="evenodd" d="M86.3625 6.4375C85.6214 6.7623 84.8046 6.96653 83.9125 7.05C81.4413 7.1613 78.9913 7.45302 76.5625 7.925C75.5141 8.01232 74.4641 8.04155 73.4125 8.0125C73.9375 7.89577 74.4625 7.77922 74.9875 7.6625C77.2578 7.59757 79.4745 7.30602 81.6375 6.7875C83.2146 6.6965 84.7896 6.57995 86.3625 6.4375Z" fill="#D2D2D2"/>
<path fill-rule="evenodd" clip-rule="evenodd" d="M180.688 7.83746C182.07 7.78514 183.411 7.90186 184.713 8.18746C183.339 8.14389 181.997 8.02716 180.688 7.83746Z" fill="#5B5B5B"/>
<path fill-rule="evenodd" clip-rule="evenodd" d="M72.0125 8.01254C71.3008 8.28449 70.5425 8.40104 69.7375 8.36254C70.4492 8.09059 71.2075 7.97404 72.0125 8.01254Z" fill="#727272"/>
<path fill-rule="evenodd" clip-rule="evenodd" d="M72.0125 8.01245C72.4792 8.01245 72.9458 8.01245 73.4125 8.01245C72.0069 8.42668 70.5486 8.60168 69.0375 8.53745C69.2244 8.374 69.4577 8.31555 69.7375 8.36245C70.5425 8.40095 71.3008 8.2844 72.0125 8.01245Z" fill="#C5C5C5"/>
<path fill-rule="evenodd" clip-rule="evenodd" d="M184.013 8.36255C184.245 8.36255 184.48 8.36255 184.713 8.36255C184.83 8.36255 184.945 8.36255 185.063 8.36255C185.897 8.60562 186.772 8.72235 187.688 8.71255C187.805 8.71255 187.92 8.71255 188.038 8.71255C189.053 8.9194 190.103 9.03595 191.188 9.06255C191.882 9.1784 192.582 9.23667 193.288 9.23755C193.345 9.23755 193.405 9.23755 193.463 9.23755C193.463 9.29582 193.463 9.35427 193.463 9.41255C190.421 9.25435 187.388 8.99185 184.363 8.62505C184.202 8.5764 184.086 8.4889 184.013 8.36255Z" fill="#E6E6E6"/>
<path fill-rule="evenodd" clip-rule="evenodd" d="M185.062 8.36255C185.53 8.36255 185.995 8.36255 186.462 8.36255C186.87 8.47927 187.28 8.59582 187.688 8.71255C186.772 8.72235 185.897 8.60562 185.062 8.36255Z" fill="#A3A3A3"/>
<path fill-rule="evenodd" clip-rule="evenodd" d="M186.463 8.36252C187.381 8.32787 188.256 8.44459 189.088 8.71252C188.738 8.71252 188.388 8.71252 188.038 8.71252C187.92 8.71252 187.805 8.71252 187.688 8.71252C187.28 8.59579 186.87 8.47924 186.463 8.36252Z" fill="#4E4E4E"/>
<path fill-rule="evenodd" clip-rule="evenodd" d="M67.6375 8.53748C66.8208 8.71248 66.0042 8.88748 65.1875 9.06248C64.7208 9.06248 64.2542 9.06248 63.7875 9.06248C65.0302 8.76008 66.3134 8.58508 67.6375 8.53748Z" fill="#5F5F5F"/>
<path fill-rule="evenodd" clip-rule="evenodd" d="M67.6375 8.53748C68.1042 8.53748 68.5708 8.53748 69.0375 8.53748C67.7948 8.83988 66.5115 9.01488 65.1875 9.06248C66.0042 8.88748 66.8208 8.71248 67.6375 8.53748Z" fill="#BEBEBE"/>
<path fill-rule="evenodd" clip-rule="evenodd" d="M188.037 8.71252C188.387 8.71252 188.737 8.71252 189.087 8.71252C189.437 8.71252 189.787 8.71252 190.137 8.71252C190.487 8.82925 190.837 8.9458 191.187 9.06252C190.102 9.03592 189.052 8.91937 188.037 8.71252Z" fill="#A2A2A2"/>
<path fill-rule="evenodd" clip-rule="evenodd" d="M190.138 8.71252C191.24 8.71812 192.29 8.89312 193.288 9.23752C192.582 9.23665 191.882 9.17837 191.188 9.06252C190.838 8.9458 190.488 8.82925 190.138 8.71252Z" fill="#595959"/>
<path fill-rule="evenodd" clip-rule="evenodd" d="M63.7875 9.06254C63.2548 9.32696 62.6714 9.44369 62.0375 9.41254C61.9208 9.41254 61.8042 9.41254 61.6875 9.41254C62.3367 9.12624 63.0367 9.00969 63.7875 9.06254Z" fill="#7A7A7A"/>
<path fill-rule="evenodd" clip-rule="evenodd" d="M193.463 9.41246C193.463 9.35419 193.463 9.29574 193.463 9.23746C194.213 9.18461 194.913 9.30116 195.563 9.58746C194.857 9.58659 194.157 9.52831 193.463 9.41246Z" fill="#8D8D8D"/>
<path fill-rule="evenodd" clip-rule="evenodd" d="M61.6875 9.41248C61.8042 9.41248 61.9208 9.41248 62.0375 9.41248C60.9156 9.73518 59.7488 9.91018 58.5375 9.93748C59.5469 9.65258 60.5969 9.47758 61.6875 9.41248Z" fill="#A5A5A5"/>
<path fill-rule="evenodd" clip-rule="evenodd" d="M196.263 9.58748C197.178 9.57768 198.053 9.69441 198.888 9.93748C197.972 9.94728 197.097 9.83056 196.263 9.58748Z" fill="#777777"/>
<path fill-rule="evenodd" clip-rule="evenodd" d="M199.062 9.93747C199.868 9.89897 200.625 10.0155 201.338 10.2875C200.533 10.326 199.775 10.2094 199.062 9.93747Z" fill="#6C6C6C"/>
<path fill-rule="evenodd" clip-rule="evenodd" d="M58.5375 9.93746C57.5822 10.1914 56.5905 10.3664 55.5625 10.4625C56.4952 10.0832 57.487 9.90824 58.5375 9.93746Z" fill="#707070"/>
<path fill-rule="evenodd" clip-rule="evenodd" d="M202.388 10.4625C202.62 10.4625 202.855 10.4625 203.088 10.4625C203.263 10.5792 203.438 10.6958 203.613 10.8125C203.149 10.8283 202.739 10.7117 202.388 10.4625Z" fill="#ACACAC"/>
<path fill-rule="evenodd" clip-rule="evenodd" d="M203.088 10.4625C204.012 10.5106 204.887 10.6856 205.713 10.9875C205.245 10.9292 204.78 10.8708 204.313 10.8125C204.08 10.8125 203.845 10.8125 203.613 10.8125C203.438 10.6958 203.263 10.5792 203.088 10.4625Z" fill="#515151"/>
<path fill-rule="evenodd" clip-rule="evenodd" d="M204.312 10.8125C204.78 10.8708 205.245 10.9292 205.712 10.9875C206.409 11.1266 207.109 11.2433 207.812 11.3375C208.164 11.5867 208.574 11.7032 209.037 11.6875C209.867 11.7664 210.682 11.8831 211.487 12.0375C211.78 12.1542 212.07 12.2708 212.363 12.3875C211.776 12.4164 211.194 12.3871 210.612 12.3C209.093 11.9847 207.578 11.6929 206.062 11.425C205.431 11.3023 204.848 11.0981 204.312 10.8125Z" fill="#C0C0C0"/>
<path fill-rule="evenodd" clip-rule="evenodd" d="M207.812 11.3375C208.276 11.3217 208.686 11.4383 209.038 11.6875C208.574 11.7032 208.164 11.5867 207.812 11.3375Z" fill="#6B6B6B"/>
<path fill-rule="evenodd" clip-rule="evenodd" d="M51.3625 11.5125C50.8951 11.7956 50.3701 11.9123 49.7875 11.8625C50.2728 11.66 50.7978 11.5433 51.3625 11.5125Z" fill="#646464"/>
<path fill-rule="evenodd" clip-rule="evenodd" d="M49.7875 11.8625C49.5071 12.138 49.1571 12.2547 48.7375 12.2125C49.0178 11.9371 49.3678 11.8203 49.7875 11.8625Z" fill="#757575"/>
<path fill-rule="evenodd" clip-rule="evenodd" d="M211.487 12.0375C212.347 12.0134 213.164 12.1299 213.937 12.3875C213.47 12.3875 213.005 12.3875 212.537 12.3875C212.48 12.3875 212.42 12.3875 212.362 12.3875C212.07 12.2708 211.78 12.1543 211.487 12.0375Z" fill="#4E4E4E"/>
<path fill-rule="evenodd" clip-rule="evenodd" d="M214.638 12.5626C215.497 12.5384 216.314 12.655 217.088 12.9126C216.225 12.96 215.408 12.8433 214.638 12.5626Z" fill="#4E4E4E"/>
<path fill-rule="evenodd" clip-rule="evenodd" d="M48.7375 12.2125C47.8018 12.6367 46.8102 12.9284 45.7625 13.0875C46.69 12.6437 47.6817 12.352 48.7375 12.2125Z" fill="#8A8A8A"/>
<path fill-rule="evenodd" clip-rule="evenodd" d="M212.537 12.3875C213.005 12.3875 213.47 12.3875 213.937 12.3875C214.125 12.5509 214.357 12.6094 214.637 12.5625C215.407 12.8432 216.225 12.9599 217.087 12.9125C217.336 13.0789 217.628 13.1372 217.962 13.0875C218.529 13.3263 219.112 13.5013 219.712 13.6125C218.025 13.4175 216.333 13.2133 214.637 13C213.887 12.9004 213.187 12.6962 212.537 12.3875Z" fill="#D7D7D7"/>
<path fill-rule="evenodd" clip-rule="evenodd" d="M217.963 13.0875C219.235 13.1932 220.46 13.4267 221.638 13.7875C221.058 13.6911 220.476 13.6328 219.888 13.6125C219.83 13.6125 219.77 13.6125 219.713 13.6125C219.112 13.5014 218.53 13.3264 217.963 13.0875Z" fill="#767676"/>
<path fill-rule="evenodd" clip-rule="evenodd" d="M219.888 13.6125C220.476 13.6328 221.058 13.6911 221.638 13.7875C221.988 13.7875 222.338 13.7875 222.688 13.7875C222.863 13.9043 223.038 14.0208 223.213 14.1375C222.164 14.0502 221.114 13.9627 220.063 13.875C219.965 13.808 219.907 13.7205 219.888 13.6125Z" fill="#CECECE"/>
<path fill-rule="evenodd" clip-rule="evenodd" d="M222.688 13.7875C223.151 13.7718 223.561 13.8883 223.913 14.1375C223.68 14.1375 223.445 14.1375 223.212 14.1375C223.037 14.0208 222.862 13.9043 222.688 13.7875Z" fill="#646464"/>
<path fill-rule="evenodd" clip-rule="evenodd" d="M45.7625 13.0875C44.293 13.6547 42.7765 14.1214 41.2125 14.4875C42.6556 13.8267 44.1723 13.3602 45.7625 13.0875Z" fill="#929292"/>
<path fill-rule="evenodd" clip-rule="evenodd" d="M224.612 14.1375C225.076 14.1218 225.486 14.2383 225.837 14.4875C225.374 14.5033 224.964 14.3867 224.612 14.1375Z" fill="#6B6B6B"/>
<path fill-rule="evenodd" clip-rule="evenodd" d="M41.2125 14.4875C40.7862 14.7274 40.3195 14.9024 39.8125 15.0125C40.183 14.6353 40.6497 14.4603 41.2125 14.4875Z" fill="#737373"/>
<path fill-rule="evenodd" clip-rule="evenodd" d="M223.912 14.1375C224.145 14.1375 224.38 14.1375 224.612 14.1375C224.964 14.3867 225.374 14.5032 225.837 14.4875C226.42 14.5457 227.005 14.6042 227.587 14.6625C227.939 14.9117 228.349 15.0282 228.812 15.0125C228.87 15.0125 228.93 15.0125 228.987 15.0125C228.987 15.0707 228.987 15.1292 228.987 15.1875C228.401 15.2163 227.818 15.1871 227.237 15.1C226.082 14.8765 224.975 14.5555 223.912 14.1375Z" fill="#C2C2C2"/>
<path fill-rule="evenodd" clip-rule="evenodd" d="M227.588 14.6625C228.065 14.6049 228.473 14.7214 228.813 15.0125C228.349 15.0282 227.939 14.9117 227.588 14.6625Z" fill="#565656"/>
<path fill-rule="evenodd" clip-rule="evenodd" d="M228.987 15.1875C228.987 15.1292 228.987 15.0708 228.987 15.0125C229.451 14.9968 229.861 15.1133 230.212 15.3625C229.799 15.3321 229.392 15.2738 228.987 15.1875Z" fill="#787878"/>
<path fill-rule="evenodd" clip-rule="evenodd" d="M39.8125 15.0125C38.9786 15.4274 38.1036 15.7774 37.1875 16.0625C37.9512 15.478 38.8262 15.128 39.8125 15.0125Z" fill="#7C7C7C"/>
<path fill-rule="evenodd" clip-rule="evenodd" d="M230.213 15.3625C230.445 15.3625 230.68 15.3625 230.913 15.3625C231.088 15.4793 231.263 15.5958 231.438 15.7125C230.974 15.7283 230.564 15.6117 230.213 15.3625Z" fill="#9A9A9A"/>
<path fill-rule="evenodd" clip-rule="evenodd" d="M230.912 15.3625C231.511 15.3674 232.036 15.5424 232.487 15.8875C232.43 15.8875 232.37 15.8875 232.312 15.8875C232.011 15.865 231.721 15.8067 231.437 15.7125C231.262 15.5958 231.087 15.4793 230.912 15.3625Z" fill="#474747"/>
<path fill-rule="evenodd" clip-rule="evenodd" d="M232.312 15.8875C232.37 15.8875 232.43 15.8875 232.487 15.8875C232.99 16.0859 233.515 16.2025 234.062 16.2375C234.12 16.3542 234.18 16.4707 234.237 16.5875C233.656 16.4424 233.074 16.2966 232.487 16.15C232.389 16.0829 232.332 15.9954 232.312 15.8875Z" fill="#BABABA"/>
<path fill-rule="evenodd" clip-rule="evenodd" d="M234.062 16.2375C235.361 16.5723 236.586 17.0389 237.737 17.6375C236.63 17.2875 235.52 16.9375 234.412 16.5875C234.355 16.5875 234.295 16.5875 234.237 16.5875C234.18 16.4708 234.12 16.3543 234.062 16.2375Z" fill="#5B5B5B"/>
<path fill-rule="evenodd" clip-rule="evenodd" d="M37.1875 16.0625C36.5195 16.538 35.7612 16.8297 34.9125 16.9375C35.5941 16.4765 36.3524 16.1848 37.1875 16.0625Z" fill="#8D8D8D"/>
<path fill-rule="evenodd" clip-rule="evenodd" d="M34.9125 16.9375C34.7097 17.2438 34.4179 17.4187 34.0375 17.4625C34.21 17.1286 34.5016 16.9536 34.9125 16.9375Z" fill="#7E7E7E"/>
<path fill-rule="evenodd" clip-rule="evenodd" d="M234.412 16.5875C235.52 16.9375 236.63 17.2875 237.737 17.6375C238.007 17.7777 238.299 17.836 238.612 17.8125C238.67 17.9292 238.73 18.0458 238.787 18.1625C237.396 17.8449 236.026 17.4364 234.675 16.9375C234.495 16.8787 234.407 16.762 234.412 16.5875Z" fill="#D3D3D3"/>
<path fill-rule="evenodd" clip-rule="evenodd" d="M238.612 17.8125C239.216 17.9145 239.741 18.1478 240.187 18.5125C239.78 18.3958 239.37 18.2792 238.962 18.1625C238.905 18.1625 238.845 18.1625 238.787 18.1625C238.73 18.0458 238.67 17.9292 238.612 17.8125Z" fill="#5C5C5C"/>
<path fill-rule="evenodd" clip-rule="evenodd" d="M238.963 18.1625C239.37 18.2792 239.78 18.3958 240.188 18.5125C240.588 18.5291 240.938 18.6458 241.238 18.8625C240.653 18.7942 240.07 18.7067 239.488 18.6C239.204 18.5587 239.029 18.4129 238.963 18.1625Z" fill="#BBBBBB"/>
<path fill-rule="evenodd" clip-rule="evenodd" d="M241.237 18.8625C241.745 18.9726 242.21 19.1476 242.637 19.3875C242.074 19.4147 241.608 19.2397 241.237 18.8625Z" fill="#939393"/>
<path fill-rule="evenodd" clip-rule="evenodd" d="M242.987 19.3875C243.938 19.6057 244.813 19.9557 245.612 20.4375C244.662 20.2192 243.787 19.8692 242.987 19.3875Z" fill="#636363"/>
<path fill-rule="evenodd" clip-rule="evenodd" d="M34.0375 17.4625C30.3826 19.3775 26.7076 21.2441 23.0125 23.0625C26.3323 21.0519 29.7738 19.2144 33.3375 17.55C33.5638 17.4643 33.7972 17.435 34.0375 17.4625Z" fill="#9D9D9D"/>
<path fill-rule="evenodd" clip-rule="evenodd" d="M245.787 20.4375C246.857 20.711 247.847 21.1193 248.762 21.6625C248.479 21.5683 248.188 21.5101 247.887 21.4875C247.138 21.2297 246.438 20.8797 245.787 20.4375Z" fill="#7E7E7E"/>
<path fill-rule="evenodd" clip-rule="evenodd" d="M249.463 21.8375C249.73 21.8247 249.905 21.9414 249.988 22.1875C249.72 22.2003 249.545 22.0835 249.463 21.8375Z" fill="#595959"/>
<path fill-rule="evenodd" clip-rule="evenodd" d="M247.888 21.4875C248.189 21.5101 248.479 21.5684 248.763 21.6625C248.995 21.7208 249.23 21.7793 249.463 21.8375C249.545 22.0836 249.72 22.2003 249.988 22.1875C250.105 22.3043 250.22 22.4208 250.338 22.5375C249.466 22.2869 248.651 21.9369 247.888 21.4875Z" fill="#CBCBCB"/>
<path fill-rule="evenodd" clip-rule="evenodd" d="M250.338 22.5375C250.996 22.7209 251.638 22.9542 252.263 23.2375C252.32 23.3542 252.38 23.4708 252.438 23.5875C251.668 23.3404 250.968 22.9904 250.338 22.5375Z" fill="#B6B6B6"/>
<path fill-rule="evenodd" clip-rule="evenodd" d="M23.0125 23.0625C22.84 23.3964 22.5484 23.5714 22.1375 23.5875C22.3403 23.2812 22.6321 23.1062 23.0125 23.0625Z" fill="#808080"/>
<path fill-rule="evenodd" clip-rule="evenodd" d="M252.263 23.2375C252.595 23.2792 252.83 23.4542 252.963 23.7625C252.768 23.7526 252.593 23.6943 252.438 23.5875C252.38 23.4708 252.32 23.3543 252.263 23.2375Z" fill="#4E4E4E"/>
<path fill-rule="evenodd" clip-rule="evenodd" d="M22.1375 23.5875C22.0041 23.8959 21.7707 24.0709 21.4375 24.1125C21.5708 23.8042 21.8043 23.6292 22.1375 23.5875Z" fill="#7B7B7B"/>
<path fill-rule="evenodd" clip-rule="evenodd" d="M253.312 23.9375C253.58 23.9247 253.755 24.0414 253.837 24.2875C253.57 24.3002 253.395 24.1835 253.312 23.9375Z" fill="#4C4C4C"/>
<path fill-rule="evenodd" clip-rule="evenodd" d="M21.4375 24.1125C21.3041 24.4209 21.0707 24.5959 20.7375 24.6375C20.8708 24.3292 21.1043 24.1542 21.4375 24.1125Z" fill="#868686"/>
<path fill-rule="evenodd" clip-rule="evenodd" d="M254.537 24.8125C254.931 24.914 255.223 25.1473 255.412 25.5125C255.019 25.411 254.726 25.1777 254.537 24.8125Z" fill="#3C3C3C"/>
<path fill-rule="evenodd" clip-rule="evenodd" d="M256.987 27.0875C257.582 27.5075 258.05 28.0325 258.387 28.6625C257.792 28.2425 257.325 27.7175 256.987 27.0875Z" fill="#747474"/>
<path fill-rule="evenodd" clip-rule="evenodd" d="M258.388 28.6625C259.739 29.8388 260.964 31.1221 262.063 32.5125C260.712 31.3361 259.487 30.0529 258.388 28.6625Z" fill="#808080"/>
<path fill-rule="evenodd" clip-rule="evenodd" d="M20.7375 24.6375C19.5401 25.8635 18.2569 27.001 16.8875 28.05C15.3827 29.4664 13.9827 30.9539 12.6875 32.5125C14.9114 29.4134 17.5949 26.7884 20.7375 24.6375Z" fill="#8C8C8C"/>
<path fill-rule="evenodd" clip-rule="evenodd" d="M12.6875 32.5125C12.6458 32.8457 12.4708 33.0791 12.1625 33.2125C12.2041 32.8793 12.3791 32.6458 12.6875 32.5125Z" fill="#898989"/>
<path fill-rule="evenodd" clip-rule="evenodd" d="M262.062 32.5125C262.89 33.1647 263.59 33.923 264.162 34.7875C263.335 34.1352 262.635 33.377 262.062 32.5125Z" fill="#949494"/>
<path fill-rule="evenodd" clip-rule="evenodd" d="M12.1625 33.2125C12.0229 33.6441 11.7896 33.9941 11.4625 34.2625C11.5229 33.7904 11.7562 33.4404 12.1625 33.2125Z" fill="#989898"/>
<path fill-rule="evenodd" clip-rule="evenodd" d="M11.4624 34.2625C11.4752 34.5297 11.3584 34.7047 11.1124 34.7875C11.0996 34.5202 11.2163 34.3452 11.4624 34.2625Z" fill="#777777"/>
<path fill-rule="evenodd" clip-rule="evenodd" d="M264.162 34.7875C264.815 35.2654 265.34 35.8487 265.737 36.5375C265.085 36.0596 264.56 35.4763 264.162 34.7875Z" fill="#979797"/>
<path fill-rule="evenodd" clip-rule="evenodd" d="M11.1124 34.7875C11.1124 34.9042 11.1124 35.0208 11.1124 35.1375C10.9957 35.1958 10.8791 35.2542 10.7624 35.3125C10.7496 35.0453 10.8664 34.8703 11.1124 34.7875Z" fill="#616161"/>
<path fill-rule="evenodd" clip-rule="evenodd" d="M265.737 36.5375C266.045 36.6708 266.22 36.9043 266.262 37.2375C265.954 37.1041 265.779 36.8707 265.737 36.5375Z" fill="#8B8B8B"/>
<path fill-rule="evenodd" clip-rule="evenodd" d="M266.263 37.2375C266.571 37.3709 266.746 37.6043 266.788 37.9375C266.48 37.8042 266.305 37.5707 266.263 37.2375Z" fill="#878787"/>
<path fill-rule="evenodd" clip-rule="evenodd" d="M266.787 37.9375C267.034 38.0203 267.15 38.1953 267.137 38.4625C266.891 38.3797 266.775 38.2047 266.787 37.9375Z" fill="#818181"/>
<path fill-rule="evenodd" clip-rule="evenodd" d="M267.138 38.4625C267.446 38.5959 267.621 38.8293 267.663 39.1625C267.355 39.0292 267.18 38.7957 267.138 38.4625Z" fill="#7D7D7D"/>
<path fill-rule="evenodd" clip-rule="evenodd" d="M11.1125 35.1375C10.0592 37.2443 9.0092 39.3443 7.96252 41.4375C8.66025 39.2841 9.59352 37.2424 10.7625 35.3125C10.8792 35.2542 10.9958 35.1957 11.1125 35.1375Z" fill="#9A9A9A"/>
<path fill-rule="evenodd" clip-rule="evenodd" d="M267.662 39.1625C267.909 39.2453 268.025 39.4203 268.012 39.6875C267.895 39.6292 267.78 39.5708 267.662 39.5125C267.662 39.3958 267.662 39.2792 267.662 39.1625Z" fill="#686868"/>
<path fill-rule="evenodd" clip-rule="evenodd" d="M267.662 39.5125C267.78 39.5707 267.895 39.6292 268.012 39.6875C268.567 40.4457 269.034 41.2625 269.412 42.1375C269.4 42.4047 269.516 42.5797 269.762 42.6625C269.967 42.8399 270.084 43.0732 270.112 43.3625C270.1 43.6297 270.216 43.8047 270.462 43.8875C270.667 44.0649 270.784 44.2982 270.812 44.5875C270.546 44.4695 270.312 44.2945 270.112 44.0625C269.376 42.5078 268.56 40.991 267.662 39.5125Z" fill="#ADADAD"/>
<path fill-rule="evenodd" clip-rule="evenodd" d="M269.412 42.1375C269.659 42.2202 269.775 42.3952 269.762 42.6625C269.516 42.5797 269.4 42.4047 269.412 42.1375Z" fill="#6D6D6D"/>
<path fill-rule="evenodd" clip-rule="evenodd" d="M7.78748 41.6125C7.6312 42.4905 7.33948 43.3071 6.91248 44.0625C7.0138 43.1634 7.30553 42.3467 7.78748 41.6125Z" fill="#7B7B7B"/>
<path fill-rule="evenodd" clip-rule="evenodd" d="M270.112 43.3625C270.359 43.4453 270.475 43.6203 270.462 43.8875C270.216 43.8048 270.1 43.6298 270.112 43.3625Z" fill="#6A6A6A"/>
<path fill-rule="evenodd" clip-rule="evenodd" d="M6.91248 44.0625C6.79103 45.0101 6.49948 45.8851 6.03748 46.6875C6.22805 45.7658 6.51978 44.8908 6.91248 44.0625Z" fill="#8C8C8C"/>
<path fill-rule="evenodd" clip-rule="evenodd" d="M270.812 44.5875C271.059 44.6703 271.175 44.8453 271.162 45.1125C270.916 45.0297 270.8 44.8547 270.812 44.5875Z" fill="#757575"/>
<path fill-rule="evenodd" clip-rule="evenodd" d="M271.162 45.1125C271.409 45.1953 271.525 45.3703 271.512 45.6375C271.395 45.5793 271.28 45.5208 271.162 45.4625C271.162 45.3458 271.162 45.2293 271.162 45.1125Z" fill="#676767"/>
<path fill-rule="evenodd" clip-rule="evenodd" d="M271.162 45.4625C271.28 45.5208 271.395 45.5792 271.512 45.6375C272.286 46.6585 272.928 47.7669 273.437 48.9625C272.51 47.9281 271.75 46.7614 271.162 45.4625Z" fill="#9E9E9E"/>
<path fill-rule="evenodd" clip-rule="evenodd" d="M5.86251 47.5625C5.87826 48.0266 5.76171 48.4349 5.51251 48.7875C5.49676 48.3234 5.61331 47.9151 5.86251 47.5625Z" fill="#797979"/>
<path fill-rule="evenodd" clip-rule="evenodd" d="M273.437 48.9625C273.684 49.0453 273.8 49.2203 273.787 49.4875C273.541 49.4047 273.425 49.2297 273.437 48.9625Z" fill="#616161"/>
<path fill-rule="evenodd" clip-rule="evenodd" d="M5.51254 48.7875C5.51254 49.0208 5.51254 49.2542 5.51254 49.4875C5.39581 49.6625 5.27926 49.8375 5.16254 50.0125C5.14679 49.5484 5.26334 49.1401 5.51254 48.7875Z" fill="#535353"/>
<path fill-rule="evenodd" clip-rule="evenodd" d="M273.787 49.4875C274.216 50.0545 274.508 50.6963 274.662 51.4125C274.137 50.8881 273.847 50.2463 273.787 49.4875Z" fill="#7C7C7C"/>
<path fill-rule="evenodd" clip-rule="evenodd" d="M5.51249 49.4875C5.36549 50.2724 5.19049 51.0309 4.98749 51.7625C4.98749 51.5293 4.98749 51.2958 4.98749 51.0625C4.99046 50.7012 5.04874 50.3512 5.16249 50.0125C5.27921 49.8375 5.39576 49.6625 5.51249 49.4875Z" fill="#999999"/>
<path fill-rule="evenodd" clip-rule="evenodd" d="M274.838 52.1125C275.331 52.8353 275.623 53.652 275.713 54.5625C275.48 54.0375 275.245 53.5125 275.013 52.9875C274.873 52.7177 274.815 52.4261 274.838 52.1125Z" fill="#737373"/>
<path fill-rule="evenodd" clip-rule="evenodd" d="M4.98748 51.0625C4.98748 51.2958 4.98748 51.5292 4.98748 51.7625C4.95668 52.3272 4.83995 52.8522 4.63748 53.3375C4.59898 52.5325 4.71553 51.7742 4.98748 51.0625Z" fill="#626262"/>
<path fill-rule="evenodd" clip-rule="evenodd" d="M275.013 52.9875C275.245 53.5125 275.48 54.0375 275.713 54.5625C275.713 54.6208 275.713 54.6793 275.713 54.7375C275.713 54.9125 275.713 55.0875 275.713 55.2625C275.343 54.5622 275.111 53.8039 275.013 52.9875Z" fill="#D0D0D0"/>
<path fill-rule="evenodd" clip-rule="evenodd" d="M275.713 54.7375C275.987 55.0179 276.105 55.3679 276.063 55.7875C276.005 55.7875 275.945 55.7875 275.888 55.7875C275.877 55.5935 275.819 55.4185 275.713 55.2625C275.713 55.0875 275.713 54.9125 275.713 54.7375Z" fill="#5D5D5D"/>
<path fill-rule="evenodd" clip-rule="evenodd" d="M4.63748 53.3375C4.66618 54.5104 4.6079 55.6771 4.46248 56.8375C4.4042 56.8375 4.34575 56.8375 4.28748 56.8375C4.3286 55.6381 4.44533 54.4713 4.63748 53.3375Z" fill="#595959"/>
<path fill-rule="evenodd" clip-rule="evenodd" d="M276.063 56.1375C276.311 56.4901 276.428 56.8984 276.413 57.3625C276.164 57.0098 276.047 56.6016 276.063 56.1375Z" fill="#4A4A4A"/>
<path fill-rule="evenodd" clip-rule="evenodd" d="M275.887 55.7875C275.945 55.7875 276.005 55.7875 276.062 55.7875C276.062 55.9042 276.062 56.0208 276.062 56.1375C276.047 56.6016 276.164 57.0099 276.412 57.3625C276.556 57.9337 276.615 58.5171 276.587 59.1125C276.327 58.5096 276.124 57.8679 275.975 57.1875C275.887 56.7244 275.859 56.2577 275.887 55.7875Z" fill="#A2A2A2"/>
<path fill-rule="evenodd" clip-rule="evenodd" d="M276.588 59.4625C276.826 60.4793 277.001 61.5293 277.113 62.6125C276.745 61.6185 276.57 60.5685 276.588 59.4625Z" fill="#8C8C8C"/>
<path fill-rule="evenodd" clip-rule="evenodd" d="M277.112 62.9625C277.301 63.5097 277.419 64.093 277.462 64.7125C277.336 64.6394 277.249 64.5228 277.2 64.3625C277.112 63.8995 277.084 63.4327 277.112 62.9625Z" fill="#9F9F9F"/>
<path fill-rule="evenodd" clip-rule="evenodd" d="M277.638 65.9375C277.886 66.2901 278.003 66.6987 277.988 67.1625C277.87 66.9875 277.755 66.8125 277.638 66.6375C277.638 66.4042 277.638 66.1708 277.638 65.9375Z" fill="#6F6F6F"/>
<path fill-rule="evenodd" clip-rule="evenodd" d="M277.638 66.6375C277.755 66.8125 277.87 66.9875 277.988 67.1625C278.128 67.432 278.185 67.7242 278.163 68.0375C277.786 67.6665 277.611 67.201 277.638 66.6375Z" fill="#A2A2A2"/>
<path fill-rule="evenodd" clip-rule="evenodd" d="M4.28745 56.8375C4.34573 56.8375 4.40418 56.8375 4.46245 56.8375C4.37425 62.2114 4.49098 67.5773 4.81245 72.9375C4.81245 73.1125 4.81245 73.2875 4.81245 73.4625C4.69573 72.9953 4.57918 72.5298 4.46245 72.0625C4.08725 66.991 4.02898 61.9165 4.28745 56.8375Z" fill="#999999"/>
<path fill-rule="evenodd" clip-rule="evenodd" d="M4.46252 72.0625C4.57925 72.5298 4.6958 72.9952 4.81252 73.4625C4.91402 74.2167 4.97247 74.9745 4.98752 75.7375C4.92925 75.7375 4.8708 75.7375 4.81252 75.7375C4.61915 74.5213 4.50242 73.2962 4.46252 72.0625Z" fill="#4F4F4F"/>
<path fill-rule="evenodd" clip-rule="evenodd" d="M278.162 69.6125C278.4 70.1515 278.546 70.7343 278.6 71.3625C278.833 75.734 278.92 80.109 278.862 84.4875C278.805 84.4875 278.745 84.4875 278.687 84.4875C278.801 79.514 278.626 74.5545 278.162 69.6125Z" fill="#CCCCCC"/>
<path fill-rule="evenodd" clip-rule="evenodd" d="M4.8125 72.9375C5.06065 73.83 5.20642 74.7645 5.25 75.7375C5.30827 81.1047 5.36672 86.4703 5.425 91.8375C5.77167 94.0985 5.91762 96.3735 5.8625 98.6625C5.74577 98.4298 5.62922 98.1952 5.5125 97.9625C5.54312 96.118 5.42658 94.3102 5.1625 92.5375C5.1625 92.3048 5.1625 92.0702 5.1625 91.8375C4.9987 86.4738 4.94025 81.1065 4.9875 75.7375C4.97245 74.9745 4.914 74.2168 4.8125 73.4625C4.8125 73.2875 4.8125 73.1125 4.8125 72.9375Z" fill="#CCCCCC"/>
<path fill-rule="evenodd" clip-rule="evenodd" d="M4.81254 75.7375C4.87081 75.7375 4.92926 75.7375 4.98754 75.7375C4.94029 81.1065 4.99874 86.4738 5.16254 91.8375C5.02009 91.4648 4.93259 91.057 4.90004 90.6125C4.81254 85.6548 4.78331 80.697 4.81254 75.7375Z" fill="#3E3E3E"/>
<path fill-rule="evenodd" clip-rule="evenodd" d="M278.162 68.2125C278.642 69.9048 278.904 71.6548 278.95 73.4625C279.095 77.75 279.065 82.0095 278.862 86.2375C278.862 85.6548 278.862 85.0703 278.862 84.4875C278.92 80.109 278.833 75.734 278.6 71.3625C278.546 70.7343 278.4 70.1515 278.162 69.6125C278.162 69.1453 278.162 68.6798 278.162 68.2125Z" fill="#696969"/>
<path fill-rule="evenodd" clip-rule="evenodd" d="M278.688 85.0125C278.714 86.1272 278.656 87.235 278.513 88.3375C278.513 88.5702 278.513 88.8047 278.513 89.0375C278.266 89.5135 278.149 90.0385 278.163 90.6125C277.888 90.8925 277.771 91.2425 277.813 91.6625C277.755 91.6625 277.695 91.6625 277.638 91.6625C278.028 89.433 278.378 87.2157 278.688 85.0125Z" fill="#DCDCDC"/>
<path fill-rule="evenodd" clip-rule="evenodd" d="M278.688 84.4875C278.745 84.4875 278.805 84.4875 278.863 84.4875C278.863 85.0703 278.863 85.6548 278.863 86.2375C278.892 86.8238 278.863 87.4065 278.775 87.9875C278.726 88.1485 278.639 88.264 278.513 88.3375C278.656 87.235 278.714 86.1273 278.688 85.0125C278.688 84.8375 278.688 84.6625 278.688 84.4875Z" fill="#727272"/>
<path fill-rule="evenodd" clip-rule="evenodd" d="M278.513 89.0375C278.527 89.6115 278.409 90.1365 278.163 90.6125C278.149 90.0385 278.266 89.5135 278.513 89.0375Z" fill="#404040"/>
<path fill-rule="evenodd" clip-rule="evenodd" d="M278.163 90.6125C278.205 91.0325 278.087 91.3825 277.813 91.6625C277.771 91.2425 277.888 90.8925 278.163 90.6125Z" fill="#545454"/>
<path fill-rule="evenodd" clip-rule="evenodd" d="M277.637 91.6625C277.695 91.6625 277.755 91.6625 277.812 91.6625C277.774 92.303 277.599 92.8875 277.287 93.4125C277.368 92.821 277.485 92.2382 277.637 91.6625Z" fill="#696969"/>
<path fill-rule="evenodd" clip-rule="evenodd" d="M277.287 93.4125C277.002 94.4432 276.652 95.4355 276.237 96.3875C276.237 96.2702 276.237 96.1547 276.237 96.0375C276.456 95.0872 276.806 94.2122 277.287 93.4125Z" fill="#8A8A8A"/>
<path fill-rule="evenodd" clip-rule="evenodd" d="M5.16248 92.5375C5.42655 94.3102 5.5431 96.118 5.51248 97.9625C5.28848 96.188 5.17175 94.3785 5.16248 92.5375Z" fill="#545454"/>
<path fill-rule="evenodd" clip-rule="evenodd" d="M276.237 96.0375C276.237 96.1547 276.237 96.2702 276.237 96.3875C276.031 97.0385 275.798 97.679 275.537 98.3125C275.606 97.728 275.693 97.1452 275.8 96.5625C275.866 96.3105 276.012 96.1355 276.237 96.0375Z" fill="#B3B3B3"/>
<path fill-rule="evenodd" clip-rule="evenodd" d="M275.538 98.3125C275.436 98.9163 275.202 99.4413 274.838 99.8875C274.99 99.4308 275.107 98.9635 275.188 98.4875C275.305 98.4298 275.42 98.3703 275.538 98.3125Z" fill="#6E6E6E"/>
<path fill-rule="evenodd" clip-rule="evenodd" d="M5.51251 97.9625C5.62924 98.1953 5.74579 98.4298 5.86251 98.6625C5.86251 99.9453 5.86251 101.23 5.86251 102.513C5.69504 101.027 5.57849 99.5095 5.51251 97.9625Z" fill="#747474"/>
<path fill-rule="evenodd" clip-rule="evenodd" d="M275.187 98.4875C275.107 98.9635 274.99 99.4308 274.837 99.8875C274.596 100.428 274.304 100.953 273.962 101.463C273.905 101.463 273.845 101.463 273.787 101.463C274.256 100.463 274.722 99.471 275.187 98.4875Z" fill="#B3B3B3"/>
<path fill-rule="evenodd" clip-rule="evenodd" d="M5.86249 98.6625C6.00756 99.856 6.09506 101.081 6.12499 102.337C6.55531 103.372 6.93454 104.422 7.26249 105.487C7.14576 105.43 7.02921 105.37 6.91249 105.312C6.92736 104.761 6.75236 104.294 6.38749 103.912C6.21459 103.461 6.03959 102.995 5.86249 102.512C5.86249 101.23 5.86249 99.9452 5.86249 98.6625Z" fill="#C7C7C7"/>
<path fill-rule="evenodd" clip-rule="evenodd" d="M6.38735 103.912C6.75222 104.294 6.92722 104.761 6.91235 105.312C6.54747 104.931 6.37247 104.464 6.38735 103.912Z" fill="#414141"/>
<path fill-rule="evenodd" clip-rule="evenodd" d="M6.91244 105.312C7.02917 105.37 7.14572 105.43 7.26244 105.487C7.26244 105.605 7.26244 105.72 7.26244 105.837C7.01639 105.755 6.89967 105.58 6.91244 105.312Z" fill="#515151"/>
<path fill-rule="evenodd" clip-rule="evenodd" d="M7.26251 105.838C7.68794 106.109 7.92121 106.517 7.96251 107.063C7.59711 106.741 7.36384 106.333 7.26251 105.838Z" fill="#8A8A8A"/>
<path fill-rule="evenodd" clip-rule="evenodd" d="M7.96243 107.062C8.20848 107.145 8.32521 107.32 8.31243 107.587C8.06638 107.505 7.94966 107.33 7.96243 107.062Z" fill="#959595"/>
<path fill-rule="evenodd" clip-rule="evenodd" d="M8.3125 107.588C8.42625 107.64 8.54297 107.7 8.6625 107.763C9.4108 109.084 10.1108 110.426 10.7625 111.788C10.6458 111.73 10.5292 111.67 10.4125 111.613C9.66858 110.3 8.96858 108.958 8.3125 107.588Z" fill="#BEBEBE"/>
<path fill-rule="evenodd" clip-rule="evenodd" d="M273.787 101.463C273.845 101.463 273.905 101.463 273.962 101.463C270.021 107.621 264.887 112.521 258.562 116.163C258.562 116.105 258.562 116.045 258.562 115.988C259.745 115.244 260.913 114.456 262.062 113.625C266.728 110.274 270.636 106.219 273.787 101.463Z" fill="#7B7B7B"/>
<path fill-rule="evenodd" clip-rule="evenodd" d="M10.4124 111.613C10.5292 111.67 10.6457 111.73 10.7624 111.788C10.7624 111.905 10.7624 112.02 10.7624 112.138C10.5164 112.055 10.3997 111.88 10.4124 111.613Z" fill="#4B4B4B"/>
<path fill-rule="evenodd" clip-rule="evenodd" d="M11.6375 113.363C12.0027 113.552 12.236 113.844 12.3375 114.238C11.9723 114.049 11.739 113.756 11.6375 113.363Z" fill="#484848"/>
<path fill-rule="evenodd" clip-rule="evenodd" d="M12.8625 114.938C13.2849 115.184 13.5767 115.534 13.7375 115.987C13.315 115.741 13.0233 115.391 12.8625 114.938Z" fill="#484848"/>
<path fill-rule="evenodd" clip-rule="evenodd" d="M258.563 115.988C258.563 116.045 258.563 116.105 258.563 116.163C258.003 116.413 257.478 116.705 256.988 117.038C256.522 117.113 256.114 117.288 255.763 117.563C255.703 117.71 255.586 117.767 255.413 117.738C255.397 117.563 255.456 117.417 255.588 117.3C256.583 116.861 257.574 116.423 258.563 115.988Z" fill="#B9B9B9"/>
<path fill-rule="evenodd" clip-rule="evenodd" d="M14.2625 116.688C14.685 116.934 14.9767 117.284 15.1375 117.737C14.7151 117.491 14.4233 117.141 14.2625 116.688Z" fill="#4A4A4A"/>
<path fill-rule="evenodd" clip-rule="evenodd" d="M256.988 117.037C256.694 117.445 256.286 117.62 255.763 117.562C256.114 117.288 256.522 117.113 256.988 117.037Z" fill="#373737"/>
<path fill-rule="evenodd" clip-rule="evenodd" d="M15.1375 117.738C15.5027 117.927 15.736 118.219 15.8375 118.613C15.4723 118.424 15.239 118.131 15.1375 117.738Z" fill="#3E3E3E"/>
<path fill-rule="evenodd" clip-rule="evenodd" d="M255.412 117.738C254.812 118.107 254.17 118.399 253.487 118.613C253.956 118 254.599 117.708 255.412 117.738Z" fill="#AAAAAA"/>
<path fill-rule="evenodd" clip-rule="evenodd" d="M253.488 118.613C253.194 118.877 252.844 119.052 252.438 119.138C251.972 119.213 251.564 119.388 251.213 119.663C250.92 119.78 250.63 119.895 250.338 120.013C249.881 120.165 249.414 120.282 248.938 120.363C250.147 119.817 251.372 119.264 252.613 118.7C252.898 118.614 253.19 118.585 253.488 118.613Z" fill="#C2C2C2"/>
<path fill-rule="evenodd" clip-rule="evenodd" d="M252.438 119.137C252.144 119.545 251.736 119.72 251.213 119.662C251.564 119.388 251.972 119.213 252.438 119.137Z" fill="#3C3C3C"/>
<path fill-rule="evenodd" clip-rule="evenodd" d="M16.7125 119.488C17.1925 119.792 17.5425 120.2 17.7625 120.713C17.2825 120.408 16.9325 120 16.7125 119.488Z" fill="#4C4C4C"/>
<path fill-rule="evenodd" clip-rule="evenodd" d="M250.338 120.012C249.891 120.376 249.366 120.611 248.763 120.712C248.763 120.655 248.763 120.595 248.763 120.537C248.88 120.537 248.938 120.48 248.938 120.362C249.414 120.282 249.881 120.165 250.338 120.012Z" fill="#636363"/>
<path fill-rule="evenodd" clip-rule="evenodd" d="M248.762 120.538C248.762 120.595 248.762 120.655 248.762 120.713C248.398 120.795 248.048 120.912 247.712 121.063C247.655 121.063 247.595 121.063 247.537 121.063C247.551 120.844 247.667 120.699 247.887 120.625C248.173 120.539 248.465 120.51 248.762 120.538Z" fill="#C0C0C0"/>
<path fill-rule="evenodd" clip-rule="evenodd" d="M247.537 121.062C247.595 121.062 247.655 121.062 247.712 121.062C246.274 121.726 244.757 122.191 243.162 122.462C244.59 121.953 246.05 121.486 247.537 121.062Z" fill="#8E8E8E"/>
<path fill-rule="evenodd" clip-rule="evenodd" d="M19.1625 122.113C20.7863 123.444 22.303 124.902 23.7125 126.488C23.7125 126.545 23.7125 126.605 23.7125 126.663C22.1375 125.205 20.6208 123.688 19.1625 122.113Z" fill="#7D7D7D"/>
<path fill-rule="evenodd" clip-rule="evenodd" d="M242.288 122.813C241.936 123.061 241.526 123.178 241.062 123.163C241.414 122.914 241.824 122.797 242.288 122.813Z" fill="#3C3C3C"/>
<path fill-rule="evenodd" clip-rule="evenodd" d="M243.162 122.463C242.895 122.604 242.604 122.722 242.287 122.813C241.824 122.797 241.414 122.914 241.062 123.163C240.305 123.357 239.545 123.532 238.787 123.688C238.324 123.672 237.914 123.789 237.562 124.038C237.445 124.038 237.33 124.038 237.212 124.038C237.095 124.038 236.98 124.038 236.862 124.038C238.927 123.448 241.027 122.923 243.162 122.463Z" fill="#AEAEAE"/>
<path fill-rule="evenodd" clip-rule="evenodd" d="M238.788 123.688C238.436 123.936 238.026 124.053 237.562 124.038C237.914 123.789 238.324 123.672 238.788 123.688Z" fill="#484848"/>
<path fill-rule="evenodd" clip-rule="evenodd" d="M236.862 124.037C236.98 124.037 237.095 124.037 237.212 124.037C236.861 124.286 236.451 124.403 235.987 124.387C235.987 124.33 235.987 124.27 235.987 124.212C236.288 124.19 236.579 124.132 236.862 124.037Z" fill="#696969"/>
<path fill-rule="evenodd" clip-rule="evenodd" d="M233.538 124.738C233.538 124.795 233.538 124.855 233.538 124.913C232.925 125.161 232.285 125.277 231.613 125.263C231.495 125.263 231.38 125.263 231.263 125.263C231.376 125.047 231.581 124.932 231.875 124.913C232.425 124.806 232.979 124.748 233.538 124.738Z" fill="#AFAFAF"/>
<path fill-rule="evenodd" clip-rule="evenodd" d="M235.987 124.213C235.987 124.27 235.987 124.33 235.987 124.388C235.2 124.675 234.383 124.85 233.537 124.913C233.537 124.855 233.537 124.795 233.537 124.738C234.365 124.599 235.182 124.424 235.987 124.213Z" fill="#8C8C8C"/>
<path fill-rule="evenodd" clip-rule="evenodd" d="M231.262 125.262C231.38 125.262 231.495 125.262 231.612 125.262C231.128 125.465 230.603 125.581 230.037 125.612C230.037 125.555 230.037 125.495 230.037 125.437C230.426 125.285 230.834 125.227 231.262 125.262Z" fill="#686868"/>
<path fill-rule="evenodd" clip-rule="evenodd" d="M230.038 125.438C230.038 125.495 230.038 125.555 230.038 125.613C228.75 125.691 227.467 125.807 226.188 125.963C225.78 125.963 225.37 125.963 224.963 125.963C226.611 125.611 228.303 125.436 230.038 125.438Z" fill="#A7A7A7"/>
<path fill-rule="evenodd" clip-rule="evenodd" d="M224.962 125.963C225.37 125.963 225.78 125.963 226.188 125.963C225.06 126.241 223.893 126.416 222.688 126.488C222.688 126.43 222.688 126.37 222.688 126.313C223.428 126.187 224.185 126.069 224.962 125.963Z" fill="#6C6C6C"/>
<path fill-rule="evenodd" clip-rule="evenodd" d="M23.7125 126.663C23.7125 126.605 23.7125 126.545 23.7125 126.488C23.902 126.495 24.077 126.552 24.2375 126.663C24.4974 127.074 24.7307 127.483 24.9375 127.888C24.7042 127.713 24.4708 127.538 24.2375 127.363C24.1959 127.03 24.0209 126.796 23.7125 126.663Z" fill="#D4D4D4"/>
<path fill-rule="evenodd" clip-rule="evenodd" d="M222.687 126.312C222.687 126.37 222.687 126.43 222.687 126.487C220.992 126.757 219.301 127.048 217.612 127.362C217.761 127.105 217.994 126.96 218.312 126.925C219.761 126.626 221.221 126.421 222.687 126.312Z" fill="#ABABAB"/>
<path fill-rule="evenodd" clip-rule="evenodd" d="M23.7125 126.662C24.0209 126.795 24.1959 127.03 24.2375 127.362C23.9292 127.229 23.7542 126.995 23.7125 126.662Z" fill="#4D4D4D"/>
<path fill-rule="evenodd" clip-rule="evenodd" d="M216.738 127.363C215.63 127.595 214.52 127.83 213.413 128.063C212.469 128.022 211.535 128.08 210.613 128.238C210.263 128.238 209.913 128.238 209.562 128.238C210.228 128.038 210.928 127.893 211.663 127.8C213.353 127.625 215.045 127.48 216.738 127.363Z" fill="#BBBBBB"/>
<path fill-rule="evenodd" clip-rule="evenodd" d="M216.737 127.363C216.97 127.363 217.205 127.363 217.437 127.363C217.364 127.489 217.248 127.576 217.087 127.625C215.871 127.861 214.646 128.007 213.412 128.063C214.52 127.83 215.63 127.595 216.737 127.363Z" fill="#414141"/>
<path fill-rule="evenodd" clip-rule="evenodd" d="M24.2375 127.363C24.4708 127.538 24.7042 127.713 24.9375 127.888C25.0442 128.043 25.1025 128.218 25.1125 128.413C24.69 128.166 24.3983 127.816 24.2375 127.363Z" fill="#454545"/>
<path fill-rule="evenodd" clip-rule="evenodd" d="M209.562 128.237C209.912 128.237 210.262 128.237 210.612 128.237C209.186 128.43 207.728 128.547 206.237 128.587C206.237 128.53 206.237 128.47 206.237 128.412C207.34 128.269 208.448 128.211 209.562 128.237Z" fill="#444444"/>
<path fill-rule="evenodd" clip-rule="evenodd" d="M204.837 128.412C205.305 128.412 205.77 128.412 206.237 128.412C206.237 128.47 206.237 128.53 206.237 128.587C205.534 128.614 204.834 128.671 204.137 128.762C203.962 128.762 203.787 128.762 203.612 128.762C204.02 128.645 204.43 128.53 204.837 128.412Z" fill="#727272"/>
<path fill-rule="evenodd" clip-rule="evenodd" d="M204.837 128.412C204.43 128.53 204.02 128.645 203.612 128.762C202.793 128.733 201.976 128.762 201.163 128.85C200.889 128.887 200.657 128.974 200.462 129.112C200.288 129.112 200.112 129.112 199.938 129.112C194.395 129.112 188.855 129.112 183.312 129.112C188.415 128.967 193.55 128.88 198.712 128.85C200.751 128.659 202.793 128.514 204.837 128.412Z" fill="#DADADA"/>
<path fill-rule="evenodd" clip-rule="evenodd" d="M203.613 128.763C203.788 128.763 203.963 128.763 204.138 128.763C202.944 128.95 201.719 129.065 200.463 129.113C200.657 128.974 200.89 128.887 201.163 128.85C201.976 128.763 202.794 128.733 203.613 128.763Z" fill="#5E5E5E"/>
<path fill-rule="evenodd" clip-rule="evenodd" d="M181.912 129.288C181.912 129.345 181.912 129.405 181.912 129.463C181.095 129.463 180.28 129.463 179.462 129.463C172.403 129.419 165.343 129.477 158.287 129.638C158.837 129.494 159.42 129.407 160.037 129.375C167.33 129.288 174.62 129.258 181.912 129.288Z" fill="#BFBFBF"/>
<path fill-rule="evenodd" clip-rule="evenodd" d="M183.312 129.112C188.855 129.112 194.395 129.112 199.937 129.112C199.094 129.258 198.219 129.345 197.312 129.375C192.18 129.462 187.047 129.492 181.912 129.462C181.912 129.405 181.912 129.345 181.912 129.287C182.341 129.118 182.807 129.058 183.312 129.112Z" fill="#464646"/>
<path fill-rule="evenodd" clip-rule="evenodd" d="M25.6375 129.113C25.9459 129.246 26.1209 129.48 26.1625 129.813C25.8542 129.68 25.6792 129.445 25.6375 129.113Z" fill="#535353"/>
<path fill-rule="evenodd" clip-rule="evenodd" d="M123.638 129.462C123.638 129.52 123.638 129.58 123.638 129.637C117.451 129.587 111.268 129.646 105.088 129.812C104.213 129.812 103.338 129.812 102.463 129.812C102.463 129.755 102.463 129.695 102.463 129.637C109.52 129.487 116.578 129.429 123.638 129.462Z" fill="#999999"/>
<path fill-rule="evenodd" clip-rule="evenodd" d="M179.462 129.462C171.729 129.55 163.97 129.725 156.188 129.987C156.188 129.93 156.188 129.87 156.188 129.812C156.896 129.832 157.596 129.772 158.287 129.637C165.344 129.476 172.403 129.419 179.462 129.462Z" fill="#5D5D5D"/>
<path fill-rule="evenodd" clip-rule="evenodd" d="M102.463 129.637C102.463 129.695 102.463 129.755 102.463 129.812C98.3803 129.968 94.297 130.085 90.2125 130.162C86.7708 130.162 83.3292 130.162 79.8875 130.162C87.3856 130.04 94.9106 129.865 102.463 129.637Z" fill="#D2D2D2"/>
<path fill-rule="evenodd" clip-rule="evenodd" d="M102.463 129.812C103.338 129.812 104.213 129.812 105.088 129.812C100.161 130.108 95.2026 130.283 90.2125 130.337C90.2125 130.28 90.2125 130.22 90.2125 130.162C94.297 130.086 98.3803 129.968 102.463 129.812Z" fill="#5D5D5D"/>
<path fill-rule="evenodd" clip-rule="evenodd" d="M123.812 129.637C125.888 129.62 127.93 129.737 129.938 129.987C127.862 130.005 125.82 129.888 123.812 129.637Z" fill="#5F5F5F"/>
<path fill-rule="evenodd" clip-rule="evenodd" d="M123.638 129.638C123.638 129.58 123.638 129.52 123.638 129.463C132.557 129.776 141.482 129.891 150.413 129.813C143.735 129.988 137.025 130.045 130.288 129.988C130.17 129.988 130.055 129.988 129.938 129.988C127.93 129.737 125.888 129.62 123.813 129.638C123.755 129.638 123.695 129.638 123.638 129.638Z" fill="#D2D2D2"/>
<path fill-rule="evenodd" clip-rule="evenodd" d="M150.412 129.812C152.337 129.812 154.262 129.812 156.187 129.812C156.187 129.87 156.187 129.93 156.187 129.987C147.525 130.19 138.892 130.19 130.287 129.987C137.025 130.045 143.734 129.987 150.412 129.812Z" fill="#848484"/>
<path fill-rule="evenodd" clip-rule="evenodd" d="M79.1875 130.163C77.3208 130.28 75.4542 130.395 73.5875 130.513C66.2958 130.513 59.0042 130.513 51.7125 130.513C52.2034 130.369 52.7284 130.282 53.2875 130.25C61.9206 130.163 70.5541 130.133 79.1875 130.163Z" fill="#D8D8D8"/>
<path fill-rule="evenodd" clip-rule="evenodd" d="M79.1875 130.162C79.4208 130.162 79.6542 130.162 79.8875 130.162C83.3292 130.162 86.7708 130.162 90.2125 130.162C90.2125 130.22 90.2125 130.28 90.2125 130.337C85.3697 130.323 80.528 130.383 75.6875 130.512C74.9875 130.512 74.2875 130.512 73.5875 130.512C75.4542 130.395 77.3208 130.28 79.1875 130.162Z" fill="#8B8B8B"/>
<path fill-rule="evenodd" clip-rule="evenodd" d="M26.3375 130.162C26.6459 130.295 26.8209 130.53 26.8625 130.862C26.5542 130.729 26.3792 130.495 26.3375 130.162Z" fill="#636363"/>
<path fill-rule="evenodd" clip-rule="evenodd" d="M51.0125 130.512C50.8884 130.67 50.7134 130.729 50.4875 130.687C48.8514 130.684 47.2181 130.743 45.5875 130.862C45.1792 130.862 44.7708 130.862 44.3625 130.862C46.5428 130.567 48.7594 130.451 51.0125 130.512Z" fill="#D6D6D6"/>
<path fill-rule="evenodd" clip-rule="evenodd" d="M50.4875 130.688C50.4875 130.745 50.4875 130.805 50.4875 130.863C48.852 130.87 47.2185 130.927 45.5875 131.038C45.5875 130.98 45.5875 130.92 45.5875 130.863C47.2182 130.744 48.8514 130.684 50.4875 130.688Z" fill="#7C7C7C"/>
<path fill-rule="evenodd" clip-rule="evenodd" d="M51.0125 130.512C51.2458 130.512 51.4792 130.512 51.7125 130.512C59.0042 130.512 66.2958 130.512 73.5875 130.512C74.2875 130.512 74.9875 130.512 75.6875 130.512C67.316 130.645 58.916 130.761 50.4875 130.862C50.4875 130.805 50.4875 130.745 50.4875 130.687C50.7134 130.729 50.8884 130.67 51.0125 130.512Z" fill="#474747"/>
<path fill-rule="evenodd" clip-rule="evenodd" d="M44.3625 130.863C44.7708 130.863 45.1792 130.863 45.5875 130.863C45.5875 130.92 45.5875 130.98 45.5875 131.038C44.5996 131.148 43.6081 131.207 42.6125 131.213C42.3208 131.213 42.0292 131.213 41.7375 131.213C42.563 130.908 43.438 130.793 44.3625 130.863Z" fill="#9A9A9A"/>
<path fill-rule="evenodd" clip-rule="evenodd" d="M41.7375 131.213C42.0292 131.213 42.3208 131.213 42.6125 131.213C42.2396 131.354 41.8313 131.442 41.3875 131.475C39.5792 131.533 37.7708 131.592 35.9625 131.65C35.5145 131.717 35.106 131.864 34.7375 132.088C34.9426 131.731 35.2341 131.498 35.6125 131.388C37.6607 131.435 39.7024 131.377 41.7375 131.213Z" fill="#4F4F4F"/>
<path fill-rule="evenodd" clip-rule="evenodd" d="M35.6125 131.388C35.2341 131.498 34.9426 131.731 34.7375 132.088C33.8873 132.646 33.3039 133.404 32.9875 134.363C32.9292 134.363 32.8708 134.363 32.8125 134.363C33.1921 133.192 33.8921 132.229 34.9125 131.475C35.1388 131.389 35.3722 131.36 35.6125 131.388Z" fill="#9F9F9F"/>
<path fill-rule="evenodd" clip-rule="evenodd" d="M27.7374 132.787C27.9834 132.87 28.1002 133.045 28.0874 133.312C27.8413 133.23 27.7246 133.055 27.7374 132.787Z" fill="#575757"/>
<path fill-rule="evenodd" clip-rule="evenodd" d="M26.8625 130.863C28.1722 132.203 28.8139 133.838 28.7875 135.763C28.6408 135.703 28.5824 135.586 28.6125 135.413C28.6282 134.949 28.5117 134.539 28.2625 134.188C28.2399 133.887 28.1816 133.596 28.0875 133.313C28.1003 133.045 27.9835 132.87 27.7375 132.788C27.4909 132.119 27.1992 131.479 26.8625 130.863Z" fill="#B1B1B1"/>
<path fill-rule="evenodd" clip-rule="evenodd" d="M32.8125 134.363C32.8708 134.363 32.9292 134.363 32.9875 134.363C33.0003 134.63 32.8836 134.805 32.6375 134.888C32.6475 134.693 32.7058 134.518 32.8125 134.363Z" fill="#565656"/>
<path fill-rule="evenodd" clip-rule="evenodd" d="M28.2625 134.188C28.5117 134.539 28.6283 134.949 28.6125 135.413C28.3633 135.061 28.2468 134.651 28.2625 134.188Z" fill="#424242"/>
<path fill-rule="evenodd" clip-rule="evenodd" d="M31.9375 136.287C31.6591 136.786 31.4258 137.311 31.2375 137.862C30.9915 137.945 30.8747 138.12 30.8875 138.387C30.6126 138.762 30.3793 139.17 30.1875 139.612C30.0708 139.67 29.9542 139.73 29.8375 139.787C30.3665 138.492 31.0665 137.325 31.9375 136.287Z" fill="#ACACAC"/>
<path fill-rule="evenodd" clip-rule="evenodd" d="M31.2374 137.863C31.2502 138.13 31.1335 138.305 30.8874 138.388C30.8746 138.12 30.9914 137.945 31.2374 137.863Z" fill="#474747"/>
<path fill-rule="evenodd" clip-rule="evenodd" d="M29.1375 137.512C29.2749 138.321 29.5083 139.079 29.8375 139.787C29.7285 140.174 29.5535 140.524 29.3125 140.837C29.1393 139.763 29.081 138.653 29.1375 137.512Z" fill="#DFDFDF"/>
<path fill-rule="evenodd" clip-rule="evenodd" d="M28.7875 136.463C28.9042 136.813 29.0208 137.163 29.1375 137.513C29.081 138.654 29.1392 139.763 29.3125 140.838C29.3125 140.895 29.3125 140.955 29.3125 141.013C28.9698 139.565 28.7948 138.05 28.7875 136.463Z" fill="#747474"/>
<path fill-rule="evenodd" clip-rule="evenodd" d="M30.1875 139.613C30.0237 140.167 29.732 140.635 29.3125 141.013C29.3125 140.955 29.3125 140.895 29.3125 140.838C29.5535 140.524 29.7285 140.174 29.8375 139.788C29.9542 139.73 30.0708 139.67 30.1875 139.613Z" fill="#3D3D3D"/>
</g>
<defs>
<clipPath id="clip0_75_6234">
<rect width="283" height="153" fill="white"/>
</clipPath>
</defs>
</svg>
