<svg width="292" height="90" viewBox="0 0 292 90" fill="none" xmlns="http://www.w3.org/2000/svg">
<path opacity="0.999" fill-rule="evenodd" clip-rule="evenodd" d="M242.375 5.62499C243.732 6.00302 245.149 6.16967 246.625 6.12499C252.66 8.36314 257.868 11.8631 262.25 16.625C264.405 19.6957 266.655 22.6957 269 25.625C270.918 28.7917 272.832 31.9582 274.75 35.125C275.3 36.2305 275.717 37.3972 276 38.625C276.457 41.5752 277.04 44.492 277.75 47.375C277.875 51.2075 277.918 55.0407 277.875 58.875C277.875 58.9582 277.875 59.0417 277.875 59.125C277.492 60.0667 277.242 61.0667 277.125 62.125C276.733 62.6272 276.483 63.2107 276.375 63.875C275.848 65.2232 275.098 66.4315 274.125 67.5C272.043 68.9167 269.958 70.3332 267.875 71.75C264.423 73.259 260.84 74.3425 257.125 75C254.01 75.169 250.928 75.544 247.875 76.125C246.244 76.1742 244.66 76.341 243.125 76.625C242.875 76.625 242.625 76.625 242.375 76.625C237.832 76.7835 233.332 77.0335 228.875 77.375C218.053 78.117 207.22 78.617 196.375 78.875C159.875 78.8332 123.375 78.875 86.875 79C85.413 79.0432 83.9963 79.1682 82.625 79.375C70.4948 79.453 58.3698 79.2862 46.25 78.875C38.9583 79.0417 31.6668 79.0832 24.375 79C23.8704 78.8737 23.3704 78.7487 22.875 78.625C22.7567 78.2735 22.5067 78.1067 22.125 78.125C19.6036 76.9512 17.6036 75.2012 16.125 72.875C15.8844 71.9012 15.5511 70.9847 15.125 70.125C15.1389 68.8172 14.9723 67.5672 14.625 66.375C14.6847 64.954 14.4347 63.6205 13.875 62.375C13.6512 61.047 13.4429 59.7137 13.25 58.375C13.2077 55.2482 13.0827 52.165 12.875 49.125C12.875 48.9582 12.875 48.7917 12.875 48.625C12.8334 46.9562 12.8751 45.2895 13 43.625C13.7842 40.3957 14.4092 37.1457 14.875 33.875C15.3192 33.1237 15.5692 32.2905 15.625 31.375C15.9518 30.5687 16.2018 29.7352 16.375 28.875C16.7266 28.7567 16.8933 28.5067 16.875 28.125C17.375 26.9582 17.875 25.7917 18.375 24.625C18.7266 24.5067 18.8933 24.2567 18.875 23.875C19.4272 22.1944 20.4272 20.8194 21.875 19.75C23.471 18.4038 25.1375 17.1538 26.875 16C27.6488 15.8215 28.3988 15.5715 29.125 15.25C31.29 15.125 33.4568 15.0834 35.625 15.125C36.9328 15.1389 38.1828 14.9722 39.375 14.625C44.8723 14.1808 50.3723 13.7641 55.875 13.375C57.8508 13.4659 59.7675 13.2993 61.625 12.875C72.952 11.9587 84.2853 11.1254 95.625 10.375C98.2605 10.4341 100.844 10.2674 103.375 9.87499C104.197 9.69822 105.03 9.61487 105.875 9.62499C114.75 9.50687 123.583 9.34022 132.375 9.12499C132.625 9.12499 132.875 9.12499 133.125 9.12499C137.673 9.18442 142.173 9.01774 146.625 8.62499C147.042 8.62499 147.458 8.62499 147.875 8.62499C151.378 8.50719 154.878 8.34052 158.375 8.12499C161.256 8.12219 164.09 7.95552 166.875 7.62499C185.455 7.15872 204.038 6.53372 222.625 5.74999C229.208 5.62499 235.791 5.58334 242.375 5.62499Z" fill="#0B0B0B"/>
<path opacity="0.01" fill-rule="evenodd" clip-rule="evenodd" d="M247.625 6.12507C247.292 6.12507 246.958 6.12507 246.625 6.12507C245.26 5.81574 243.843 5.64907 242.375 5.62507C235.791 5.58342 229.208 5.62507 222.625 5.75007C204.038 6.53379 185.455 7.15879 166.875 7.62507C163.993 7.60912 161.16 7.77579 158.375 8.12507C154.878 8.34059 151.378 8.50727 147.875 8.62507C148.542 8.45839 149.208 8.29174 149.875 8.12507C155.435 7.61897 161.018 7.24397 166.625 7.00007C183.88 6.54067 201.13 5.95732 218.375 5.25007C227.63 5.01844 236.88 5.10179 246.125 5.50007C246.713 5.56009 247.213 5.76844 247.625 6.12507Z" fill="#DDDDDD"/>
<path opacity="0.169" fill-rule="evenodd" clip-rule="evenodd" d="M242.375 5.625C243.843 5.649 245.26 5.81567 246.625 6.125C245.149 6.16967 243.732 6.00302 242.375 5.625Z" fill="#A5A5A5"/>
<path opacity="0.841" fill-rule="evenodd" clip-rule="evenodd" d="M166.875 7.62507C164.089 7.95559 161.256 8.12227 158.375 8.12507C161.159 7.77579 163.993 7.60912 166.875 7.62507Z" fill="#474747"/>
<path opacity="0.01" fill-rule="evenodd" clip-rule="evenodd" d="M149.875 8.125C149.208 8.29168 148.542 8.45832 147.875 8.625C147.458 8.625 147.042 8.625 146.625 8.625C142.081 8.65968 137.581 8.82632 133.125 9.125C132.875 9.125 132.625 9.125 132.375 9.125C125.041 9.08335 117.708 9.125 110.375 9.25C108.83 9.2931 107.33 9.4181 105.875 9.625C105.03 9.61487 104.197 9.69823 103.375 9.875C101.958 9.875 100.542 9.875 99.125 9.875C94.1192 10.0143 89.1192 10.2643 84.125 10.625C92.3162 9.7777 100.566 9.23602 108.875 9C122.547 8.93913 136.214 8.64745 149.875 8.125Z" fill="#F8F8F8"/>
<path opacity="0.277" fill-rule="evenodd" clip-rule="evenodd" d="M146.625 8.625C142.173 9.01775 137.673 9.18442 133.125 9.125C137.581 8.82632 142.081 8.65967 146.625 8.625Z" fill="#BFBFBF"/>
<path fill-rule="evenodd" clip-rule="evenodd" d="M257.625 16.375C257.87 17.1672 258.37 17.7506 259.125 18.125C260.952 20.1121 262.535 22.2788 263.875 24.625C264.02 25.1872 264.352 25.6037 264.875 25.875C266.77 28.2475 268.355 30.8307 269.625 33.625C269.607 34.0067 269.773 34.2567 270.125 34.375C270.917 35.4582 271.585 36.625 272.125 37.875C272.173 38.7137 272.423 39.4637 272.875 40.125C272.875 40.2917 272.875 40.4582 272.875 40.625C272.81 42.0485 273.06 43.3817 273.625 44.625C273.888 45.432 274.052 46.2652 274.125 47.125C274.258 52.0597 274.09 56.9762 273.625 61.875C273.45 62.8252 273.158 63.742 272.75 64.625C270.822 66.2615 268.865 67.845 266.875 69.375C266.405 69.3072 266.072 69.474 265.875 69.875C263.84 70.6552 261.758 71.322 259.625 71.875C258.962 71.8525 258.378 72.019 257.875 72.375C257.708 72.375 257.542 72.375 257.375 72.375C256.712 72.3525 256.128 72.519 255.625 72.875C254.658 72.7962 253.74 72.8795 252.875 73.125C251.568 73.111 250.318 73.2777 249.125 73.625C241.453 74.2175 233.787 74.7175 226.125 75.125C221.994 75.2117 217.911 75.4617 213.875 75.875C203.087 76.2472 192.296 76.414 181.5 76.375C150.708 76.1327 119.917 76.091 89.125 76.25C82.714 76.6347 76.2972 76.843 69.875 76.875C65.9922 76.926 62.1587 76.7592 58.375 76.375C57.171 76.1685 55.921 76.0435 54.625 76C44.5387 75.9465 34.4552 75.8215 24.375 75.625C24.1039 75.1032 23.6872 74.77 23.125 74.625C22.8539 74.1032 22.4372 73.77 21.875 73.625C20.7763 73.1095 20.0263 72.276 19.625 71.125C19.2695 69.8255 19.0611 68.4922 19 67.125C18.9044 66.986 18.7794 66.9027 18.625 66.875C18.6755 66.2625 18.5922 65.6792 18.375 65.125C18.416 64.4532 18.3744 63.7865 18.25 63.125C18.1804 62.896 18.0554 62.7295 17.875 62.625C17.6244 61.54 17.3327 60.4565 17 59.375C16.8083 53.875 16.725 48.375 16.75 42.875C16.9977 42.298 17.206 41.7147 17.375 41.125C17.7367 40.9665 17.9034 40.6747 17.875 40.25C18.1917 38.8917 18.3584 37.5167 18.375 36.125C18.7839 35.1975 18.9506 34.1975 18.875 33.125C18.875 33.0417 18.875 32.9582 18.875 32.875C19.1975 32.7355 19.4058 32.4855 19.5 32.125C19.8791 30.8692 20.2541 29.6192 20.625 28.375C21.6888 27.166 22.4388 25.7495 22.875 24.125C23.625 23.5416 24.2917 22.875 24.875 22.125C25.6068 21.8106 26.1903 21.3106 26.625 20.625C27.5908 19.4325 28.8408 18.6825 30.375 18.375C31.6828 18.3889 32.9328 18.2222 34.125 17.875C35.5063 17.495 36.9228 17.3283 38.375 17.375C47.4315 17.2462 56.4315 16.7462 65.375 15.875C66.7687 15.6369 68.1852 15.5535 69.625 15.625C72.097 15.7146 74.5137 15.5479 76.875 15.125C80.9122 14.8608 84.9122 14.5274 88.875 14.125C94.0865 13.9108 99.2533 13.5774 104.375 13.125C104.792 13.125 105.208 13.125 105.625 13.125C107.125 13.125 108.625 13.125 110.125 13.125C116.042 13.1666 121.959 13.125 127.875 13C129.836 12.9572 131.753 12.8322 133.625 12.625C134.042 12.625 134.458 12.625 134.875 12.625C138.209 12.6666 141.543 12.6249 144.875 12.5C145.674 12.4548 146.424 12.3298 147.125 12.125C147.375 12.125 147.625 12.125 147.875 12.125C154.378 11.8555 160.878 11.5221 167.375 11.125C172.209 11.0429 177.042 10.9179 181.875 10.75C182.591 10.7042 183.258 10.5792 183.875 10.375C184.375 10.375 184.875 10.375 185.375 10.375C195.18 10.4915 204.93 10.1582 214.625 9.37496C216.837 9.31018 219.003 9.14351 221.125 8.87496C229.211 8.50226 237.294 8.54391 245.375 8.99996C250.003 10.5634 254.085 13.0218 257.625 16.375Z" fill="#FEFEFE"/>
<path opacity="0.183" fill-rule="evenodd" clip-rule="evenodd" d="M132.375 9.12499C123.583 9.34022 114.75 9.50687 105.875 9.62499C107.33 9.41809 108.83 9.29309 110.375 9.24999C117.708 9.12499 125.041 9.08334 132.375 9.12499Z" fill="#CACACA"/>
<path fill-rule="evenodd" clip-rule="evenodd" d="M221.125 8.87505C219.003 9.1436 216.837 9.31027 214.625 9.37505C214.042 9.37505 213.458 9.37505 212.875 9.37505C215.576 9.0165 218.326 8.84982 221.125 8.87505Z" fill="#A9A9A9"/>
<path fill-rule="evenodd" clip-rule="evenodd" d="M212.875 9.375C213.458 9.375 214.042 9.375 214.625 9.375C204.93 10.1582 195.18 10.4916 185.375 10.375C194.5 9.9969 203.667 9.66357 212.875 9.375Z" fill="#C9C9C9"/>
<path opacity="0.962" fill-rule="evenodd" clip-rule="evenodd" d="M99.125 9.875C100.542 9.875 101.958 9.875 103.375 9.875C100.844 10.2675 98.2605 10.4341 95.625 10.375C96.7917 10.2083 97.9583 10.0417 99.125 9.875Z" fill="#2A2A2A"/>
<path fill-rule="evenodd" clip-rule="evenodd" d="M183.875 10.375C183.258 10.5793 182.591 10.7043 181.875 10.75C177.042 10.9179 172.209 11.0429 167.375 11.125C168.458 10.9583 169.542 10.7917 170.625 10.625C175.043 10.5989 179.46 10.5156 183.875 10.375Z" fill="#D3D3D3"/>
<path fill-rule="evenodd" clip-rule="evenodd" d="M170.625 10.625C169.542 10.7917 168.458 10.9583 167.375 11.125C160.878 11.5222 154.378 11.8555 147.875 12.125C155.412 11.4923 162.995 10.9924 170.625 10.625Z" fill="#B1B1B1"/>
<path fill-rule="evenodd" clip-rule="evenodd" d="M147.125 12.125C146.424 12.3299 145.674 12.4549 144.875 12.5C141.543 12.625 138.209 12.6666 134.875 12.625C138.915 12.3626 142.998 12.196 147.125 12.125Z" fill="#CFCFCF"/>
<path fill-rule="evenodd" clip-rule="evenodd" d="M127.375 12.625C121.625 12.7917 115.875 12.9583 110.125 13.125C108.625 13.125 107.125 13.125 105.625 13.125C106.913 12.9183 108.246 12.7933 109.625 12.75C115.541 12.625 121.458 12.5833 127.375 12.625Z" fill="#909090"/>
<path opacity="0.01" fill-rule="evenodd" clip-rule="evenodd" d="M99.125 9.875C97.9583 10.0417 96.7918 10.2083 95.625 10.375C84.2853 11.1254 72.952 11.9587 61.625 12.875C59.664 12.955 57.7473 13.1216 55.875 13.375C50.3723 13.7641 44.8723 14.1808 39.375 14.625C38.0673 14.6111 36.8173 14.7778 35.625 15.125C33.4568 15.0834 31.29 15.1251 29.125 15.25C28.3988 15.5715 27.6488 15.8215 26.875 16C25.1375 17.1538 23.471 18.4038 21.875 19.75C20.4272 20.8194 19.4272 22.1944 18.875 23.875C18.5234 23.9933 18.3568 24.2433 18.375 24.625C17.875 25.7917 17.375 26.9583 16.875 28.125C16.5234 28.2432 16.3568 28.4932 16.375 28.875C16.2018 29.7353 15.9518 30.5688 15.625 31.375C15.1809 32.1262 14.9309 32.9595 14.875 33.875C14.4092 37.1458 13.7842 40.3958 13 43.625C12.8751 45.2895 12.8334 46.9562 12.875 48.625C12.6268 46.5875 12.5435 44.5042 12.625 42.375C13.3894 38.5397 14.181 34.7065 15 30.875C16.3852 26.9792 18.2602 23.3542 20.625 20C22.6386 18.4031 24.7219 16.9031 26.875 15.5C29.4925 14.392 32.2008 14.1004 35 14.625C51.355 13.0371 67.73 11.7038 84.125 10.625C89.1193 10.2643 94.1193 10.0143 99.125 9.875Z" fill="#E3E3E3"/>
<path fill-rule="evenodd" clip-rule="evenodd" d="M127.375 12.625C129.458 12.625 131.542 12.625 133.625 12.625C131.753 12.8322 129.836 12.9572 127.875 13C121.959 13.125 116.042 13.1666 110.125 13.125C115.875 12.9583 121.625 12.7917 127.375 12.625Z" fill="#DEDEDE"/>
<path opacity="0.937" fill-rule="evenodd" clip-rule="evenodd" d="M61.625 12.875C59.7675 13.2993 57.8507 13.466 55.875 13.375C57.7472 13.1217 59.664 12.955 61.625 12.875Z" fill="#373737"/>
<path fill-rule="evenodd" clip-rule="evenodd" d="M104.375 13.125C99.2533 13.5775 94.0865 13.9108 88.875 14.125C88.875 14.0417 88.875 13.9583 88.875 13.875C94.0365 13.5211 99.2032 13.2711 104.375 13.125Z" fill="#CACACA"/>
<path fill-rule="evenodd" clip-rule="evenodd" d="M88.875 13.875C88.875 13.9583 88.875 14.0417 88.875 14.125C84.9123 14.5275 80.9123 14.8608 76.875 15.125C76.2083 15.125 75.5418 15.125 74.875 15.125C79.4983 14.6599 84.165 14.2433 88.875 13.875Z" fill="#A6A6A6"/>
<path opacity="0.925" fill-rule="evenodd" clip-rule="evenodd" d="M39.375 14.6251C38.1827 14.9723 36.9327 15.139 35.625 15.1251C36.8173 14.7778 38.0673 14.6111 39.375 14.6251Z" fill="#3D3D3D"/>
<path fill-rule="evenodd" clip-rule="evenodd" d="M74.875 15.125C75.5417 15.125 76.2083 15.125 76.875 15.125C74.5138 15.5479 72.097 15.7146 69.625 15.625C71.3292 15.3586 73.0792 15.192 74.875 15.125Z" fill="#C4C4C4"/>
<path fill-rule="evenodd" clip-rule="evenodd" d="M65.375 15.875C56.4315 16.7462 47.4315 17.2462 38.375 17.375C47.3368 16.8891 56.3368 16.3891 65.375 15.875Z" fill="#B5B5B5"/>
<path fill-rule="evenodd" clip-rule="evenodd" d="M257.625 16.375C258.31 16.8098 258.81 17.3931 259.125 18.125C258.37 17.7506 257.87 17.1673 257.625 16.375Z" fill="#9C9C9C"/>
<path fill-rule="evenodd" clip-rule="evenodd" d="M34.125 17.875C32.9327 18.2223 31.6827 18.3889 30.375 18.375C31.5585 17.9639 32.8085 17.7972 34.125 17.875Z" fill="#B9B9B9"/>
<path fill-rule="evenodd" clip-rule="evenodd" d="M26.625 20.625C26.1903 21.3107 25.6068 21.8107 24.875 22.125C25.3097 21.4393 25.8932 20.9393 26.625 20.625Z" fill="#ADADAD"/>
<path opacity="0.031" fill-rule="evenodd" clip-rule="evenodd" d="M246.625 6.125C246.958 6.125 247.292 6.125 247.625 6.125C253.668 8.2928 258.792 11.7928 263 16.625C264.878 19.3811 266.878 22.0478 269 24.625C271.02 28.0833 273.105 31.5 275.25 34.875C276.597 37.9867 277.39 41.2368 277.625 44.625C278.005 47.394 278.173 50.1855 278.125 53C278.125 55.0018 278.042 56.9603 277.875 58.875C277.917 55.0407 277.875 51.2075 277.75 47.375C277.04 44.492 276.458 41.5752 276 38.625C275.718 37.3972 275.3 36.2305 274.75 35.125C272.833 31.9583 270.917 28.7917 269 25.625C266.655 22.6957 264.405 19.6957 262.25 16.625C257.868 11.8632 252.66 8.36315 246.625 6.125Z" fill="#DDDDDD"/>
<path fill-rule="evenodd" clip-rule="evenodd" d="M24.875 22.125C24.2917 22.875 23.625 23.5417 22.875 24.125C23.2917 23.2083 23.9583 22.5417 24.875 22.125Z" fill="#A6A6A6"/>
<path opacity="0.549" fill-rule="evenodd" clip-rule="evenodd" d="M18.875 23.875C18.8933 24.2567 18.7266 24.5067 18.375 24.625C18.3568 24.2433 18.5234 23.9933 18.875 23.875Z" fill="#717171"/>
<path fill-rule="evenodd" clip-rule="evenodd" d="M263.875 24.625C264.397 24.8961 264.73 25.3127 264.875 25.875C264.353 25.6037 264.02 25.1873 263.875 24.625Z" fill="#ACACAC"/>
<path fill-rule="evenodd" clip-rule="evenodd" d="M22.875 24.125C22.4388 25.7495 21.6888 27.166 20.625 28.375C21.1849 26.8375 21.9349 25.421 22.875 24.125Z" fill="#C2C2C2"/>
<path opacity="0.49" fill-rule="evenodd" clip-rule="evenodd" d="M16.875 28.125C16.8933 28.5067 16.7266 28.7567 16.375 28.875C16.3568 28.4933 16.5234 28.2432 16.875 28.125Z" fill="#787878"/>
<path fill-rule="evenodd" clip-rule="evenodd" d="M20.625 28.375C20.2541 29.6193 19.8791 30.8693 19.5 32.125C19.4058 32.4855 19.1975 32.7355 18.875 32.875C19.1643 31.2565 19.7476 29.7565 20.625 28.375Z" fill="#A9A9A9"/>
<path opacity="0.733" fill-rule="evenodd" clip-rule="evenodd" d="M15.625 31.375C15.5691 32.2905 15.3192 33.1237 14.875 33.875C14.9308 32.9595 15.1808 32.1263 15.625 31.375Z" fill="#656565"/>
<path fill-rule="evenodd" clip-rule="evenodd" d="M269.625 33.625C269.978 33.7432 270.143 33.9933 270.125 34.375C269.773 34.2567 269.608 34.0067 269.625 33.625Z" fill="#8A8A8A"/>
<path fill-rule="evenodd" clip-rule="evenodd" d="M18.875 33.125C18.9506 34.1975 18.7839 35.1975 18.375 36.125C18.2994 35.0525 18.4661 34.0525 18.875 33.125Z" fill="#B1B1B1"/>
<path fill-rule="evenodd" clip-rule="evenodd" d="M18.375 36.125C18.3584 37.5167 18.1917 38.8917 17.875 40.25C17.9033 40.6747 17.7367 40.9665 17.375 41.125C17.6181 39.4093 17.9514 37.7428 18.375 36.125Z" fill="#AFAFAF"/>
<path fill-rule="evenodd" clip-rule="evenodd" d="M272.125 37.875C272.618 38.521 272.868 39.271 272.875 40.125C272.423 39.4638 272.172 38.7138 272.125 37.875Z" fill="#888888"/>
<path opacity="0.01" fill-rule="evenodd" clip-rule="evenodd" d="M12.625 42.375C12.5435 44.5043 12.6268 46.5875 12.875 48.625C12.875 48.7917 12.875 48.9583 12.875 49.125C12.8293 53.2122 12.9126 57.2955 13.125 61.375C12.7687 60.5243 12.5604 59.6075 12.5 58.625C12.4065 54.5823 12.2815 50.5405 12.125 46.5C12.0778 45.062 12.2445 43.687 12.625 42.375Z" fill="#F9F9F9"/>
<path fill-rule="evenodd" clip-rule="evenodd" d="M272.875 40.625C273.26 41.9015 273.51 43.2348 273.625 44.625C273.06 43.3818 272.81 42.0485 272.875 40.625Z" fill="#8F8F8F"/>
<path opacity="0.01" fill-rule="evenodd" clip-rule="evenodd" d="M277.625 44.625C277.94 45.3145 278.147 46.0645 278.25 46.875C278.408 50.9598 278.49 55.0433 278.5 59.125C278.403 59.776 278.195 60.3595 277.875 60.875C277.875 60.2917 277.875 59.7083 277.875 59.125C277.875 59.0417 277.875 58.9583 277.875 58.875C278.043 56.9602 278.125 55.0017 278.125 53C278.173 50.1855 278.005 47.394 277.625 44.625Z" fill="#FAFAFA"/>
<path opacity="0.27" fill-rule="evenodd" clip-rule="evenodd" d="M12.875 49.125C13.0827 52.165 13.2077 55.2483 13.25 58.375C13.4429 59.7137 13.6512 61.047 13.875 62.375C13.5357 62.1025 13.2857 61.769 13.125 61.375C12.9126 57.2955 12.8293 53.2123 12.875 49.125Z" fill="#B5B5B5"/>
<path fill-rule="evenodd" clip-rule="evenodd" d="M274.125 47.125C274.4 51.0835 274.525 55.0835 274.5 59.125C274.288 60.097 273.998 61.0138 273.625 61.875C274.09 56.9762 274.257 52.0598 274.125 47.125Z" fill="#C1C1C1"/>
<path opacity="0.122" fill-rule="evenodd" clip-rule="evenodd" d="M277.125 62.125C277.207 62.8727 276.957 63.456 276.375 63.875C276.483 63.2107 276.732 62.6273 277.125 62.125Z" fill="#A2A2A2"/>
<path fill-rule="evenodd" clip-rule="evenodd" d="M17.875 62.625C18.0554 62.7295 18.1804 62.896 18.25 63.125C18.3744 63.7865 18.416 64.4532 18.375 65.125C18.1048 64.3433 17.9382 63.51 17.875 62.625Z" fill="#929292"/>
<path opacity="0.067" fill-rule="evenodd" clip-rule="evenodd" d="M13.875 62.375C14.4347 63.6205 14.6847 64.954 14.625 66.375C14.0653 65.1295 13.8153 63.796 13.875 62.375Z" fill="#B8B8B8"/>
<path fill-rule="evenodd" clip-rule="evenodd" d="M18.625 66.875C18.7793 66.9028 18.9043 66.986 19 67.125C19.0611 68.4922 19.2695 69.8255 19.625 71.125C18.9888 69.8138 18.6555 68.3973 18.625 66.875Z" fill="#BEBEBE"/>
<path opacity="0.208" fill-rule="evenodd" clip-rule="evenodd" d="M14.625 66.375C14.9723 67.5673 15.1389 68.8173 15.125 70.125C14.7778 68.9327 14.6111 67.6827 14.625 66.375Z" fill="#A4A4A4"/>
<path fill-rule="evenodd" clip-rule="evenodd" d="M266.875 69.375C266.623 69.6685 266.287 69.835 265.875 69.875C266.073 69.474 266.405 69.3073 266.875 69.375Z" fill="#737373"/>
<path opacity="0.012" fill-rule="evenodd" clip-rule="evenodd" d="M277.875 59.125C277.875 59.7082 277.875 60.2917 277.875 60.875C277.445 63.2492 276.528 65.416 275.125 67.375C272.952 68.7948 270.87 70.3365 268.875 72C264.673 73.9882 260.255 75.2383 255.625 75.75C252.785 76.0007 249.953 76.2925 247.125 76.625C247.375 76.4583 247.625 76.2917 247.875 76.125C250.928 75.544 254.01 75.169 257.125 75C260.84 74.3425 264.423 73.259 267.875 71.75C269.958 70.3333 272.042 68.9167 274.125 67.5C275.097 66.4315 275.847 65.2232 276.375 63.875C276.958 63.456 277.208 62.8728 277.125 62.125C277.243 61.0668 277.493 60.0667 277.875 59.125Z" fill="#D5D5D5"/>
<path opacity="0.333" fill-rule="evenodd" clip-rule="evenodd" d="M15.125 70.125C15.5511 70.9847 15.8844 71.9013 16.125 72.875C15.5026 72.0935 15.1693 71.177 15.125 70.125Z" fill="#858585"/>
<path fill-rule="evenodd" clip-rule="evenodd" d="M259.625 71.8751C259.122 72.2311 258.538 72.3976 257.875 72.3751C258.377 72.0191 258.962 71.8526 259.625 71.8751Z" fill="#555555"/>
<path fill-rule="evenodd" clip-rule="evenodd" d="M257.375 72.3751C256.872 72.7311 256.288 72.8976 255.625 72.8751C256.127 72.5191 256.712 72.3526 257.375 72.3751Z" fill="#555555"/>
<path fill-rule="evenodd" clip-rule="evenodd" d="M252.875 73.1251C251.682 73.4723 250.433 73.6391 249.125 73.6251C250.317 73.2778 251.568 73.1111 252.875 73.1251Z" fill="#383838"/>
<path fill-rule="evenodd" clip-rule="evenodd" d="M21.875 73.625C22.4372 73.77 22.8539 74.1033 23.125 74.625C22.5628 74.48 22.1461 74.1467 21.875 73.625Z" fill="#AFAFAF"/>
<path fill-rule="evenodd" clip-rule="evenodd" d="M23.125 74.625C23.6872 74.77 24.1039 75.1033 24.375 75.625C23.8128 75.48 23.3961 75.1467 23.125 74.625Z" fill="#B0B0B0"/>
<path fill-rule="evenodd" clip-rule="evenodd" d="M226.125 75.125C222.091 75.5698 218.008 75.8198 213.875 75.875C217.911 75.4618 221.994 75.2118 226.125 75.125Z" fill="#2D2D2D"/>
<path fill-rule="evenodd" clip-rule="evenodd" d="M24.375 75.625C34.4552 75.8215 44.5387 75.9465 54.625 76C55.921 76.0435 57.171 76.1685 58.375 76.375C47.3765 76.1898 36.3765 76.0648 25.375 76C24.9855 75.9475 24.6521 75.8225 24.375 75.625Z" fill="#D0D0D0"/>
<path opacity="0.094" fill-rule="evenodd" clip-rule="evenodd" d="M247.875 76.125C247.625 76.2917 247.375 76.4582 247.125 76.625C245.792 76.625 244.458 76.625 243.125 76.625C244.66 76.341 246.243 76.1742 247.875 76.125Z" fill="#A9A9A9"/>
<path opacity="0.129" fill-rule="evenodd" clip-rule="evenodd" d="M242.375 76.625C240.206 76.8512 238.04 77.1012 235.875 77.375C235.625 77.375 235.375 77.375 235.125 77.375C233.042 77.375 230.958 77.375 228.875 77.375C233.332 77.0335 237.832 76.7835 242.375 76.625Z" fill="#B8B8B8"/>
<path opacity="0.01" fill-rule="evenodd" clip-rule="evenodd" d="M242.375 76.625C242.625 76.625 242.875 76.625 243.125 76.625C244.458 76.625 245.792 76.625 247.125 76.625C243.426 77.063 239.676 77.313 235.875 77.375C238.039 77.1012 240.206 76.8512 242.375 76.625Z" fill="#F7F7F7"/>
<path opacity="0.059" fill-rule="evenodd" clip-rule="evenodd" d="M228.875 77.375C230.958 77.375 233.042 77.375 235.125 77.375C225.254 78.0907 215.337 78.674 205.375 79.125C202.375 79.125 199.375 79.125 196.375 79.125C196.375 79.0417 196.375 78.9583 196.375 78.875C207.22 78.617 218.053 78.117 228.875 77.375Z" fill="#DDDDDD"/>
<path opacity="0.545" fill-rule="evenodd" clip-rule="evenodd" d="M22.125 78.1249C22.5067 78.1066 22.7567 78.2734 22.875 78.6249C22.4933 78.6431 22.2433 78.4764 22.125 78.1249Z" fill="#6F6F6F"/>
<path opacity="0.185" fill-rule="evenodd" clip-rule="evenodd" d="M196.375 78.875C196.375 78.9583 196.375 79.0418 196.375 79.125C158.457 79.0485 120.54 79.1318 82.625 79.375C83.9963 79.1683 85.413 79.0433 86.875 79C123.375 78.875 159.875 78.8333 196.375 78.875Z" fill="#B4B4B4"/>
<path opacity="0.014" fill-rule="evenodd" clip-rule="evenodd" d="M13.125 61.375C13.2857 61.769 13.5357 62.1025 13.875 62.375C13.8153 63.796 14.0653 65.1295 14.625 66.375C14.6111 67.6827 14.7778 68.9327 15.125 70.125C15.1693 71.177 15.5026 72.0935 16.125 72.875C17.6035 75.2013 19.6035 76.9513 22.125 78.125C22.2433 78.4765 22.4933 78.6432 22.875 78.625C23.3704 78.7488 23.8704 78.8738 24.375 79C31.6667 79.0833 38.9583 79.0417 46.25 78.875C58.3698 79.2862 70.4948 79.453 82.625 79.375C120.54 79.1318 158.457 79.0485 196.375 79.125C199.375 79.125 202.375 79.125 205.375 79.125C196.836 79.495 188.253 79.6618 179.625 79.625C143.581 79.2097 107.539 79.293 71.5 79.875C63.2875 79.8568 55.079 79.69 46.875 79.375C39.707 79.5395 32.5405 79.6645 25.375 79.75C23.9427 79.642 22.6094 79.2255 21.375 78.5C19.3113 77.3655 17.5196 75.9073 16 74.125C15.5148 73.238 15.0982 72.3215 14.75 71.375C14.2428 68.0328 13.7012 64.6992 13.125 61.375Z" fill="#EEEEEE"/>
<path d="M52.5064 52H47.3501V37.4545H52.549C54.0121 37.4545 55.2715 37.7457 56.3274 38.3281C57.3833 38.9058 58.1953 39.7367 58.7635 40.821C59.3364 41.9053 59.6229 43.2027 59.6229 44.7131C59.6229 46.2282 59.3364 47.5303 58.7635 48.6193C58.1953 49.7083 57.3786 50.544 56.3132 51.1264C55.2526 51.7088 53.9837 52 52.5064 52ZM50.4254 49.3651H52.3786C53.2876 49.3651 54.0523 49.2041 54.6726 48.8821C55.2976 48.5554 55.7663 48.0511 56.0788 47.3693C56.3961 46.6828 56.5547 45.7973 56.5547 44.7131C56.5547 43.6383 56.3961 42.7599 56.0788 42.0781C55.7663 41.3963 55.3 40.8944 54.6797 40.5724C54.0594 40.2505 53.2947 40.0895 52.3857 40.0895H50.4254V49.3651ZM66.8157 52.2131C65.6935 52.2131 64.7276 51.9858 63.918 51.5312C63.113 51.072 62.4928 50.4233 62.0572 49.5852C61.6216 48.7424 61.4038 47.7457 61.4038 46.5952C61.4038 45.473 61.6216 44.4882 62.0572 43.6406C62.4928 42.7931 63.1059 42.1326 63.8967 41.6591C64.6921 41.1856 65.6249 40.9489 66.695 40.9489C67.4147 40.9489 68.0846 41.0649 68.7049 41.2969C69.3299 41.5241 69.8744 41.8674 70.3384 42.3267C70.8072 42.786 71.1718 43.3636 71.4322 44.0597C71.6926 44.7509 71.8228 45.5606 71.8228 46.4886V47.3196H62.6112V45.4446H68.9748C68.9748 45.009 68.8801 44.6231 68.6907 44.2869C68.5013 43.9508 68.2385 43.688 67.9023 43.4986C67.5709 43.3045 67.185 43.2074 66.7447 43.2074C66.2854 43.2074 65.8782 43.3139 65.5231 43.527C65.1727 43.7353 64.8981 44.017 64.6992 44.3722C64.5004 44.7225 64.3986 45.1132 64.3938 45.544V47.3267C64.3938 47.8665 64.4933 48.3329 64.6921 48.7259C64.8957 49.1188 65.1822 49.4219 65.5515 49.6349C65.9208 49.848 66.3588 49.9545 66.8654 49.9545C67.2016 49.9545 67.5094 49.9072 67.7887 49.8125C68.0681 49.7178 68.3072 49.5758 68.506 49.3864C68.7049 49.197 68.8564 48.965 68.9606 48.6903L71.7589 48.875C71.6168 49.5473 71.3256 50.1345 70.8853 50.6364C70.4497 51.1335 69.8862 51.5218 69.195 51.8011C68.5084 52.0758 67.7153 52.2131 66.8157 52.2131ZM78.7262 52.2131C77.6088 52.2131 76.6476 51.9763 75.8427 51.5028C75.0425 51.0246 74.427 50.3617 73.9961 49.5142C73.57 48.6667 73.3569 47.6913 73.3569 46.5881C73.3569 45.4706 73.5723 44.4905 74.0032 43.6477C74.4388 42.8002 75.0567 42.1397 75.8569 41.6662C76.6571 41.188 77.6088 40.9489 78.712 40.9489C79.6637 40.9489 80.497 41.1217 81.212 41.4673C81.927 41.813 82.4928 42.2983 82.9094 42.9233C83.3261 43.5483 83.5558 44.2822 83.5984 45.125H80.7433C80.6628 44.5805 80.4497 44.1425 80.104 43.8111C79.7631 43.4749 79.3157 43.3068 78.7617 43.3068C78.293 43.3068 77.8834 43.4347 77.533 43.6903C77.1874 43.9413 76.9175 44.3082 76.7234 44.7912C76.5292 45.2741 76.4322 45.8589 76.4322 46.5455C76.4322 47.2415 76.5269 47.8333 76.7163 48.321C76.9104 48.8087 77.1826 49.1804 77.533 49.4361C77.8834 49.6918 78.293 49.8196 78.7617 49.8196C79.1074 49.8196 79.4175 49.7486 79.6921 49.6065C79.9715 49.4645 80.2011 49.2585 80.381 48.9886C80.5657 48.714 80.6864 48.3849 80.7433 48.0014H83.5984C83.551 48.8348 83.3237 49.5687 82.9165 50.2031C82.5141 50.8329 81.9577 51.3253 81.2475 51.6804C80.5373 52.0355 79.6969 52.2131 78.7262 52.2131ZM90.4645 52.2131C89.3613 52.2131 88.4072 51.9787 87.6023 51.5099C86.8021 51.0365 86.1842 50.3783 85.7486 49.5355C85.313 48.688 85.0952 47.7055 85.0952 46.5881C85.0952 45.4612 85.313 44.4763 85.7486 43.6335C86.1842 42.786 86.8021 42.1278 87.6023 41.6591C88.4072 41.1856 89.3613 40.9489 90.4645 40.9489C91.5677 40.9489 92.5194 41.1856 93.3196 41.6591C94.1245 42.1278 94.7448 42.786 95.1804 43.6335C95.616 44.4763 95.8338 45.4612 95.8338 46.5881C95.8338 47.7055 95.616 48.688 95.1804 49.5355C94.7448 50.3783 94.1245 51.0365 93.3196 51.5099C92.5194 51.9787 91.5677 52.2131 90.4645 52.2131ZM90.4787 49.8693C90.9806 49.8693 91.3996 49.7273 91.7358 49.4432C92.072 49.1544 92.3253 48.7614 92.4957 48.2642C92.6709 47.767 92.7585 47.2012 92.7585 46.5668C92.7585 45.9323 92.6709 45.3665 92.4957 44.8693C92.3253 44.3722 92.072 43.9792 91.7358 43.6903C91.3996 43.4015 90.9806 43.2571 90.4787 43.2571C89.9721 43.2571 89.5459 43.4015 89.2003 43.6903C88.8594 43.9792 88.6013 44.3722 88.4261 44.8693C88.2557 45.3665 88.1705 45.9323 88.1705 46.5668C88.1705 47.2012 88.2557 47.767 88.4261 48.2642C88.6013 48.7614 88.8594 49.1544 89.2003 49.4432C89.5459 49.7273 89.9721 49.8693 90.4787 49.8693ZM97.8011 52V41.0909H100.734V42.9943H100.848C101.047 42.3172 101.381 41.8059 101.849 41.4602C102.318 41.1098 102.858 40.9347 103.469 40.9347C103.62 40.9347 103.784 40.9441 103.959 40.9631C104.134 40.982 104.288 41.008 104.42 41.0412V43.7259C104.278 43.6832 104.082 43.6454 103.831 43.6122C103.58 43.5791 103.35 43.5625 103.142 43.5625C102.697 43.5625 102.299 43.6596 101.949 43.8537C101.603 44.0431 101.329 44.3082 101.125 44.6491C100.926 44.9901 100.827 45.383 100.827 45.8281V52H97.8011ZM108.783 52.206C108.087 52.206 107.467 52.0852 106.922 51.8438C106.378 51.5975 105.947 51.2353 105.63 50.7571C105.317 50.2741 105.161 49.6728 105.161 48.9531C105.161 48.3471 105.272 47.8381 105.495 47.4261C105.717 47.0142 106.02 46.6828 106.404 46.4318C106.787 46.1809 107.223 45.9915 107.711 45.8636C108.203 45.7358 108.719 45.6458 109.259 45.5938C109.893 45.5275 110.405 45.4659 110.793 45.4091C111.181 45.3475 111.463 45.2576 111.638 45.1392C111.813 45.0208 111.901 44.8456 111.901 44.6136V44.571C111.901 44.1212 111.759 43.7732 111.475 43.527C111.195 43.2808 110.798 43.1577 110.282 43.1577C109.737 43.1577 109.304 43.2784 108.982 43.5199C108.66 43.7566 108.447 44.0549 108.343 44.4148L105.544 44.1875C105.686 43.5246 105.966 42.9517 106.382 42.4688C106.799 41.9811 107.337 41.607 107.995 41.3466C108.658 41.0814 109.425 40.9489 110.296 40.9489C110.902 40.9489 111.482 41.0199 112.036 41.1619C112.595 41.304 113.089 41.5241 113.52 41.8224C113.956 42.1207 114.299 42.5043 114.55 42.973C114.801 43.437 114.926 43.9934 114.926 44.642V52H112.057V50.4872H111.972C111.797 50.8281 111.562 51.1288 111.269 51.3892C110.975 51.6449 110.623 51.8461 110.211 51.9929C109.799 52.1349 109.323 52.206 108.783 52.206ZM109.65 50.1179C110.095 50.1179 110.488 50.0303 110.828 49.8551C111.169 49.6752 111.437 49.4337 111.631 49.1307C111.825 48.8277 111.922 48.4844 111.922 48.1009V46.9432C111.828 47.0047 111.697 47.0616 111.532 47.1136C111.371 47.161 111.188 47.206 110.985 47.2486C110.781 47.2865 110.578 47.322 110.374 47.3551C110.17 47.3835 109.986 47.4096 109.82 47.4332C109.465 47.4853 109.155 47.5682 108.89 47.6818C108.624 47.7955 108.418 47.9493 108.272 48.1435C108.125 48.3329 108.051 48.5696 108.051 48.8537C108.051 49.2656 108.201 49.5805 108.499 49.7983C108.802 50.0114 109.185 50.1179 109.65 50.1179ZM123.076 41.0909V43.3636H116.507V41.0909H123.076ZM117.998 38.4773H121.024V48.6477C121.024 48.9271 121.066 49.1449 121.152 49.3011C121.237 49.4527 121.355 49.5592 121.507 49.6207C121.663 49.6823 121.843 49.7131 122.047 49.7131C122.189 49.7131 122.331 49.7012 122.473 49.6776C122.615 49.6491 122.724 49.6278 122.799 49.6136L123.275 51.8651C123.124 51.9124 122.911 51.9669 122.636 52.0284C122.361 52.0947 122.028 52.1349 121.635 52.1491C120.905 52.1776 120.266 52.0805 119.717 51.858C119.172 51.6354 118.749 51.2898 118.446 50.821C118.143 50.3523 117.993 49.7604 117.998 49.0455V38.4773ZM129.902 52.2131C128.779 52.2131 127.814 51.9858 127.004 51.5312C126.199 51.072 125.579 50.4233 125.143 49.5852C124.708 48.7424 124.49 47.7457 124.49 46.5952C124.49 45.473 124.708 44.4882 125.143 43.6406C125.579 42.7931 126.192 42.1326 126.983 41.6591C127.778 41.1856 128.711 40.9489 129.781 40.9489C130.501 40.9489 131.171 41.0649 131.791 41.2969C132.416 41.5241 132.96 41.8674 133.424 42.3267C133.893 42.786 134.258 43.3636 134.518 44.0597C134.779 44.7509 134.909 45.5606 134.909 46.4886V47.3196H125.697V45.4446H132.061C132.061 45.009 131.966 44.6231 131.777 44.2869C131.587 43.9508 131.324 43.688 130.988 43.4986C130.657 43.3045 130.271 43.2074 129.831 43.2074C129.371 43.2074 128.964 43.3139 128.609 43.527C128.259 43.7353 127.984 44.017 127.785 44.3722C127.586 44.7225 127.484 45.1132 127.48 45.544V47.3267C127.48 47.8665 127.579 48.3329 127.778 48.7259C127.982 49.1188 128.268 49.4219 128.637 49.6349C129.007 49.848 129.445 49.9545 129.951 49.9545C130.288 49.9545 130.595 49.9072 130.875 49.8125C131.154 49.7178 131.393 49.5758 131.592 49.3864C131.791 49.197 131.942 48.965 132.047 48.6903L134.845 48.875C134.703 49.5473 134.412 50.1345 133.971 50.6364C133.536 51.1335 132.972 51.5218 132.281 51.8011C131.594 52.0758 130.801 52.2131 129.902 52.2131ZM143.38 56.0909C142.996 56.0909 142.637 56.0601 142.3 55.9986C141.969 55.9418 141.694 55.8684 141.477 55.7784L142.158 53.5199C142.513 53.6288 142.833 53.688 143.117 53.6974C143.406 53.7069 143.655 53.6406 143.863 53.4986C144.076 53.3565 144.249 53.1151 144.381 52.7741L144.559 52.3125L140.646 41.0909H143.827L146.086 49.1023H146.2L148.479 41.0909H151.683L147.442 53.179C147.239 53.7661 146.962 54.2775 146.612 54.7131C146.266 55.1534 145.828 55.492 145.298 55.7287C144.767 55.9702 144.128 56.0909 143.38 56.0909ZM157.808 52.2131C156.705 52.2131 155.751 51.9787 154.946 51.5099C154.146 51.0365 153.528 50.3783 153.092 49.5355C152.657 48.688 152.439 47.7055 152.439 46.5881C152.439 45.4612 152.657 44.4763 153.092 43.6335C153.528 42.786 154.146 42.1278 154.946 41.6591C155.751 41.1856 156.705 40.9489 157.808 40.9489C158.911 40.9489 159.863 41.1856 160.663 41.6591C161.468 42.1278 162.089 42.786 162.524 43.6335C162.96 44.4763 163.178 45.4612 163.178 46.5881C163.178 47.7055 162.96 48.688 162.524 49.5355C162.089 50.3783 161.468 51.0365 160.663 51.5099C159.863 51.9787 158.911 52.2131 157.808 52.2131ZM157.822 49.8693C158.324 49.8693 158.743 49.7273 159.08 49.4432C159.416 49.1544 159.669 48.7614 159.839 48.2642C160.015 47.767 160.102 47.2012 160.102 46.5668C160.102 45.9323 160.015 45.3665 159.839 44.8693C159.669 44.3722 159.416 43.9792 159.08 43.6903C158.743 43.4015 158.324 43.2571 157.822 43.2571C157.316 43.2571 156.89 43.4015 156.544 43.6903C156.203 43.9792 155.945 44.3722 155.77 44.8693C155.599 45.3665 155.514 45.9323 155.514 46.5668C155.514 47.2012 155.599 47.767 155.77 48.2642C155.945 48.7614 156.203 49.1544 156.544 49.4432C156.89 49.7273 157.316 49.8693 157.822 49.8693ZM172.141 47.3551V41.0909H175.166V52H172.261V50.0185H172.148C171.902 50.6577 171.492 51.1714 170.919 51.5597C170.351 51.9479 169.657 52.142 168.838 52.142C168.109 52.142 167.467 51.9763 166.913 51.6449C166.359 51.3134 165.926 50.8423 165.614 50.2315C165.306 49.6207 165.15 48.8892 165.145 48.0369V41.0909H168.17V47.4972C168.175 48.1411 168.348 48.6501 168.689 49.0241C169.03 49.3982 169.487 49.5852 170.06 49.5852C170.424 49.5852 170.765 49.5024 171.082 49.3366C171.4 49.1662 171.655 48.9152 171.849 48.5838C172.048 48.2524 172.145 47.8428 172.141 47.3551ZM177.586 52V41.0909H180.52V42.9943H180.633C180.832 42.3172 181.166 41.8059 181.635 41.4602C182.103 41.1098 182.643 40.9347 183.254 40.9347C183.405 40.9347 183.569 40.9441 183.744 40.9631C183.919 40.982 184.073 41.008 184.206 41.0412V43.7259C184.064 43.6832 183.867 43.6454 183.616 43.6122C183.365 43.5791 183.136 43.5625 182.927 43.5625C182.482 43.5625 182.084 43.6596 181.734 43.8537C181.388 44.0431 181.114 44.3082 180.91 44.6491C180.711 44.9901 180.612 45.383 180.612 45.8281V52H177.586ZM190.456 52V37.4545H196.194C197.293 37.4545 198.23 37.651 199.007 38.044C199.788 38.4323 200.382 38.9839 200.789 39.6989C201.201 40.4091 201.407 41.2448 201.407 42.206C201.407 43.1719 201.199 44.0028 200.782 44.6989C200.366 45.3902 199.762 45.9205 198.971 46.2898C198.185 46.6591 197.234 46.8438 196.116 46.8438H192.274V44.3722H195.619C196.206 44.3722 196.694 44.2917 197.082 44.1307C197.47 43.9697 197.759 43.7282 197.949 43.4062C198.143 43.0843 198.24 42.6842 198.24 42.206C198.24 41.723 198.143 41.3158 197.949 40.9844C197.759 40.6529 197.468 40.402 197.075 40.2315C196.687 40.0563 196.197 39.9688 195.605 39.9688H193.531V52H190.456ZM198.311 45.3807L201.926 52H198.531L194.994 45.3807H198.311ZM208.277 52.2131C207.174 52.2131 206.22 51.9787 205.415 51.5099C204.615 51.0365 203.997 50.3783 203.561 49.5355C203.125 48.688 202.908 47.7055 202.908 46.5881C202.908 45.4612 203.125 44.4763 203.561 43.6335C203.997 42.786 204.615 42.1278 205.415 41.6591C206.22 41.1856 207.174 40.9489 208.277 40.9489C209.38 40.9489 210.332 41.1856 211.132 41.6591C211.937 42.1278 212.557 42.786 212.993 43.6335C213.429 44.4763 213.646 45.4612 213.646 46.5881C213.646 47.7055 213.429 48.688 212.993 49.5355C212.557 50.3783 211.937 51.0365 211.132 51.5099C210.332 51.9787 209.38 52.2131 208.277 52.2131ZM208.291 49.8693C208.793 49.8693 209.212 49.7273 209.548 49.4432C209.884 49.1544 210.138 48.7614 210.308 48.2642C210.483 47.767 210.571 47.2012 210.571 46.5668C210.571 45.9323 210.483 45.3665 210.308 44.8693C210.138 44.3722 209.884 43.9792 209.548 43.6903C209.212 43.4015 208.793 43.2571 208.291 43.2571C207.785 43.2571 207.358 43.4015 207.013 43.6903C206.672 43.9792 206.414 44.3722 206.239 44.8693C206.068 45.3665 205.983 45.9323 205.983 46.5668C205.983 47.2012 206.068 47.767 206.239 48.2642C206.414 48.7614 206.672 49.1544 207.013 49.4432C207.358 49.7273 207.785 49.8693 208.291 49.8693ZM220.543 52.2131C219.439 52.2131 218.485 51.9787 217.68 51.5099C216.88 51.0365 216.262 50.3783 215.827 49.5355C215.391 48.688 215.173 47.7055 215.173 46.5881C215.173 45.4612 215.391 44.4763 215.827 43.6335C216.262 42.786 216.88 42.1278 217.68 41.6591C218.485 41.1856 219.439 40.9489 220.543 40.9489C221.646 40.9489 222.598 41.1856 223.398 41.6591C224.203 42.1278 224.823 42.786 225.259 43.6335C225.694 44.4763 225.912 45.4612 225.912 46.5881C225.912 47.7055 225.694 48.688 225.259 49.5355C224.823 50.3783 224.203 51.0365 223.398 51.5099C222.598 51.9787 221.646 52.2131 220.543 52.2131ZM220.557 49.8693C221.059 49.8693 221.478 49.7273 221.814 49.4432C222.15 49.1544 222.403 48.7614 222.574 48.2642C222.749 47.767 222.837 47.2012 222.837 46.5668C222.837 45.9323 222.749 45.3665 222.574 44.8693C222.403 44.3722 222.15 43.9792 221.814 43.6903C221.478 43.4015 221.059 43.2571 220.557 43.2571C220.05 43.2571 219.624 43.4015 219.278 43.6903C218.938 43.9792 218.679 44.3722 218.504 44.8693C218.334 45.3665 218.249 45.9323 218.249 46.5668C218.249 47.2012 218.334 47.767 218.504 48.2642C218.679 48.7614 218.938 49.1544 219.278 49.4432C219.624 49.7273 220.05 49.8693 220.557 49.8693ZM227.879 52V41.0909H230.763V43.0156H230.891C231.118 42.3764 231.497 41.8722 232.027 41.5028C232.557 41.1335 233.192 40.9489 233.93 40.9489C234.679 40.9489 235.315 41.1359 235.841 41.5099C236.366 41.8793 236.717 42.3812 236.892 43.0156H237.006C237.228 42.3906 237.631 41.8911 238.213 41.517C238.8 41.1383 239.494 40.9489 240.294 40.9489C241.312 40.9489 242.138 41.2732 242.773 41.9219C243.412 42.5658 243.732 43.4796 243.732 44.6634V52H240.713V45.2599C240.713 44.6539 240.552 44.1993 240.23 43.8963C239.908 43.5933 239.506 43.4418 239.023 43.4418C238.473 43.4418 238.045 43.617 237.737 43.9673C237.429 44.313 237.276 44.7699 237.276 45.3381V52H234.342V45.196C234.342 44.661 234.188 44.2348 233.881 43.9176C233.578 43.6004 233.178 43.4418 232.68 43.4418C232.344 43.4418 232.041 43.527 231.771 43.6974C231.506 43.8632 231.295 44.0975 231.139 44.4006C230.983 44.6989 230.905 45.0492 230.905 45.4517V52H227.879Z" fill="black"/>
</svg>
