<?xml version="1.0" encoding="UTF-8"?>
<!DOCTYPE svg PUBLIC "-//W3C//DTD SVG 1.1//EN" "http://www.w3.org/Graphics/SVG/1.1/DTD/svg11.dtd">
<svg xmlns="http://www.w3.org/2000/svg" version="1.1" width="318px" height="283px" style="shape-rendering:geometricPrecision; text-rendering:geometricPrecision; image-rendering:optimizeQuality; fill-rule:evenodd; clip-rule:evenodd" xmlns:xlink="http://www.w3.org/1999/xlink">
<g><path style="opacity:0.999" fill="#101010" d="M 236.5,41.5 C 235.965,46.3118 236.965,50.6452 239.5,54.5C 241.435,58.8949 242.769,63.5615 243.5,68.5C 243.41,71.1522 244.076,73.4855 245.5,75.5C 256.71,115.16 267.71,154.994 278.5,195C 275.631,198.886 273.131,203.053 271,207.5C 268.658,212.71 268.158,218.043 269.5,223.5C 269.41,226.152 270.076,228.485 271.5,230.5C 272.3,232.607 272.967,234.774 273.5,237C 273.561,238.711 272.894,240.044 271.5,241C 265.652,241.173 259.985,241.673 254.5,242.5C 243.614,242.101 232.947,242.767 222.5,244.5C 180.997,245.858 139.663,247.525 98.5,249.5C 96.8561,249.714 95.3561,249.38 94,248.5C 92.6667,245.833 91.3333,243.167 90,240.5C 83.1115,219.117 76.6115,197.783 70.5,176.5C 70.5905,173.848 69.9238,171.515 68.5,169.5C 65.1069,153.924 61.1069,138.591 56.5,123.5C 56.2018,105.447 57.0351,87.447 59,69.5C 59.3869,61.99 62.8869,56.49 69.5,53C 75.5,52 81.5,51 87.5,50C 129.852,47.3558 172.186,44.5224 214.5,41.5C 222.007,40.8017 229.341,40.8017 236.5,41.5 Z"/></g>
<g><path style="opacity:1" fill="#979797" d="M 221.5,46.5 C 224.976,45.3567 228.642,45.1901 232.5,46C 234.107,47.049 234.773,48.549 234.5,50.5C 233.814,49.1516 232.814,47.985 231.5,47C 228.183,46.5017 224.85,46.335 221.5,46.5 Z"/></g>
<g><path style="opacity:1" fill="#fcfcfc" d="M 221.5,46.5 C 224.85,46.335 228.183,46.5017 231.5,47C 232.814,47.985 233.814,49.1516 234.5,50.5C 236.435,55.5729 237.768,60.9063 238.5,66.5C 238.41,69.1522 239.076,71.4855 240.5,73.5C 242.102,77.2393 243.102,81.2393 243.5,85.5C 243.41,88.1522 244.076,90.4855 245.5,92.5C 247.102,96.2393 248.102,100.239 248.5,104.5C 248.41,107.152 249.076,109.485 250.5,111.5C 251.768,113.905 252.435,116.572 252.5,119.5C 252.41,122.152 253.076,124.485 254.5,126.5C 255.768,128.905 256.435,131.572 256.5,134.5C 256.41,137.152 257.076,139.485 258.5,141.5C 259.768,143.905 260.435,146.572 260.5,149.5C 260.41,152.152 261.076,154.485 262.5,156.5C 263.434,157.568 263.768,158.901 263.5,160.5C 263.41,163.152 264.076,165.485 265.5,167.5C 266.768,169.905 267.435,172.572 267.5,175.5C 267.41,178.152 268.076,180.485 269.5,182.5C 271.26,186.547 272.26,190.88 272.5,195.5C 263.849,196.347 255.182,197.014 246.5,197.5C 242.486,197.334 238.486,197.501 234.5,198C 233.944,198.383 233.611,198.883 233.5,199.5C 232.167,199.5 230.833,199.5 229.5,199.5C 222.159,199.334 214.826,199.5 207.5,200C 205.292,200.191 203.292,200.691 201.5,201.5C 199.833,201.5 198.167,201.5 196.5,201.5C 189.825,201.334 183.158,201.5 176.5,202C 175.263,202.232 174.263,202.732 173.5,203.5C 154.853,204.832 136.186,205.832 117.5,206.5C 112.405,206.779 107.405,206.445 102.5,205.5C 100.397,199.616 98.564,193.616 97,187.5C 91.9278,161.73 86.4278,136.064 80.5,110.5C 80.1375,105.248 79.1375,100.248 77.5,95.5C 75.6214,82.5602 74.2881,69.5602 73.5,56.5C 76.5176,56.2962 79.5176,55.9629 82.5,55.5C 90.4033,55.8638 98.07,55.1972 105.5,53.5C 144.199,51.5133 182.866,49.1799 221.5,46.5 Z"/></g>
<g><path style="opacity:0.871" fill="#404040" d="M 236.5,41.5 C 237.66,45.6813 238.66,50.0146 239.5,54.5C 236.965,50.6452 235.965,46.3118 236.5,41.5 Z"/></g>
<g><path style="opacity:1" fill="#adadad" d="M 105.5,53.5 C 98.07,55.1972 90.4033,55.8638 82.5,55.5C 89.9891,54.4866 97.6558,53.82 105.5,53.5 Z"/></g>
<g><path style="opacity:1" fill="#f3f3f3" d="M 70.5,75.5 C 70.3618,80.4141 71.0285,85.0808 72.5,89.5C 72.5,89.8333 72.5,90.1667 72.5,90.5C 72.3325,96.5032 73.3325,102.17 75.5,107.5C 75.5,107.833 75.5,108.167 75.5,108.5C 75.3359,111.187 75.5026,113.854 76,116.5C 76.2784,117.416 76.7784,118.082 77.5,118.5C 79.8787,127.725 81.8787,137.058 83.5,146.5C 83.3359,149.187 83.5026,151.854 84,154.5C 84.3826,155.056 84.8826,155.389 85.5,155.5C 85.5,155.833 85.5,156.167 85.5,156.5C 85.3359,159.187 85.5026,161.854 86,164.5C 86.3826,165.056 86.8826,165.389 87.5,165.5C 90.6917,179.933 94.3584,194.267 98.5,208.5C 91.9229,219.791 91.9229,231.124 98.5,242.5C 98.1667,243.167 97.8333,243.833 97.5,244.5C 95.7328,242.084 94.2328,239.417 93,236.5C 92.2675,231.229 90.7675,226.229 88.5,221.5C 88.5905,218.848 87.9238,216.515 86.5,214.5C 77.8516,183.576 69.3516,152.576 61,121.5C 61.1724,101.763 62.5058,82.0959 65,62.5C 66.353,61.3147 67.5197,59.9814 68.5,58.5C 69.5267,64.1286 70.1934,69.7953 70.5,75.5 Z"/></g>
<g><path style="opacity:0.033" fill="#d6d6d6" d="M 214.5,40.5 C 214.5,40.8333 214.5,41.1667 214.5,41.5C 172.186,44.5224 129.852,47.3558 87.5,50C 81.5,51 75.5,52 69.5,53C 62.8869,56.49 59.3869,61.99 59,69.5C 57.0351,87.447 56.2018,105.447 56.5,123.5C 56.5,125.833 56.5,128.167 56.5,130.5C 54.0272,124.546 53.0272,118.213 53.5,111.5C 53.9165,94.325 55.7498,77.325 59,60.5C 62.2863,54.2122 67.4529,50.7122 74.5,50C 121.085,45.6897 167.752,42.523 214.5,40.5 Z"/></g>
<g><path style="opacity:1" fill="#959595" d="M 238.5,66.5 C 239.924,68.5145 240.59,70.8478 240.5,73.5C 239.076,71.4855 238.41,69.1522 238.5,66.5 Z"/></g>
<g><path style="opacity:0.847" fill="#505050" d="M 243.5,68.5 C 244.924,70.5145 245.59,72.8478 245.5,75.5C 244.076,73.4855 243.41,71.1522 243.5,68.5 Z"/></g>
<g><path style="opacity:1" fill="#151515" d="M 202.5,112.5 C 203.166,120.483 203.499,128.483 203.5,136.5C 202.58,151.202 195.58,161.702 182.5,168C 166.874,171.277 154.708,166.11 146,152.5C 144.153,148.807 142.32,145.14 140.5,141.5C 139.871,138.603 138.871,135.936 137.5,133.5C 136.245,123.162 136.245,112.829 137.5,102.5C 141.079,89.8697 149.079,81.3697 161.5,77C 174.626,76.0454 185.126,80.8788 193,91.5C 197.795,97.758 200.962,104.758 202.5,112.5 Z"/></g>
<g><path style="opacity:1" fill="#f9f9f9" d="M 198.5,113.5 C 198.984,124.605 198.317,135.605 196.5,146.5C 189.754,163.139 178.087,167.972 161.5,161C 150.453,152.082 143.619,140.582 141,126.5C 137.979,112.283 140.646,99.2829 149,87.5C 159.093,77.9186 169.926,77.0852 181.5,85C 190.33,92.6525 195.997,102.152 198.5,113.5 Z"/></g>
<g><path style="opacity:1" fill="#999999" d="M 70.5,75.5 C 71.9715,79.9192 72.6382,84.5859 72.5,89.5C 71.0285,85.0808 70.3618,80.4141 70.5,75.5 Z"/></g>
<g><path style="opacity:1" fill="#909090" d="M 243.5,85.5 C 244.924,87.5145 245.59,89.8478 245.5,92.5C 244.076,90.4855 243.41,88.1522 243.5,85.5 Z"/></g>
<g><path style="opacity:1" fill="#999999" d="M 72.5,90.5 C 73.9508,95.9595 74.9508,101.626 75.5,107.5C 73.3325,102.17 72.3325,96.5032 72.5,90.5 Z"/></g>
<g><path style="opacity:1" fill="#1b1b1b" d="M 175.5,132.5 C 174.041,132.567 172.708,132.234 171.5,131.5C 170.92,127.19 170.586,122.857 170.5,118.5C 182.182,115.597 183.515,110.097 174.5,102C 167.92,101.372 162.753,103.872 159,109.5C 158.014,112.742 158.848,115.408 161.5,117.5C 161.167,117.833 160.833,118.167 160.5,118.5C 154.686,114.781 154.019,110.281 158.5,105C 162.037,101.231 166.37,99.0648 171.5,98.5C 181.953,100.451 185.453,106.451 182,116.5C 178.921,117.969 176.087,119.802 173.5,122C 174.726,125.402 175.393,128.902 175.5,132.5 Z"/></g>
<g><path style="opacity:1" fill="#3b3b3b" d="M 77.5,95.5 C 79.1375,100.248 80.1375,105.248 80.5,110.5C 78.1242,105.894 77.1242,100.894 77.5,95.5 Z"/></g>
<g><path style="opacity:0.009" fill="#e1e1e1" d="M 259.5,242.5 C 257.833,242.5 256.167,242.5 254.5,242.5C 259.985,241.673 265.652,241.173 271.5,241C 272.894,240.044 273.561,238.711 273.5,237C 272.967,234.774 272.3,232.607 271.5,230.5C 271.59,227.848 270.924,225.515 269.5,223.5C 268.158,218.043 268.658,212.71 271,207.5C 273.131,203.053 275.631,198.886 278.5,195C 267.71,154.994 256.71,115.16 245.5,75.5C 245.59,72.8478 244.924,70.5145 243.5,68.5C 242.769,63.5615 241.435,58.8949 239.5,54.5C 238.66,50.0146 237.66,45.6813 236.5,41.5C 229.341,40.8017 222.007,40.8017 214.5,41.5C 214.5,41.1667 214.5,40.8333 214.5,40.5C 221.767,39.0082 229.1,38.5082 236.5,39C 237.333,39.8333 238.167,40.6667 239,41.5C 252.51,91.872 266.176,142.205 280,192.5C 280.667,194.167 280.667,195.833 280,197.5C 274.138,203.229 270.971,210.229 270.5,218.5C 272.81,225.397 274.31,232.397 275,239.5C 274.626,240.416 274.126,241.25 273.5,242C 268.845,242.499 264.179,242.666 259.5,242.5 Z"/></g>
<g><path style="opacity:1" fill="#8e8e8e" d="M 248.5,104.5 C 249.924,106.515 250.59,108.848 250.5,111.5C 249.076,109.485 248.41,107.152 248.5,104.5 Z"/></g>
<g><path style="opacity:1" fill="#9c9c9c" d="M 75.5,108.5 C 76.5808,111.627 77.2474,114.96 77.5,118.5C 76.7784,118.082 76.2784,117.416 76,116.5C 75.5026,113.854 75.3359,111.187 75.5,108.5 Z"/></g>
<g><path style="opacity:1" fill="#a6a6a6" d="M 137.5,102.5 C 136.245,112.829 136.245,123.162 137.5,133.5C 136.035,128.41 135.368,123.077 135.5,117.5C 135.334,112.245 136.001,107.245 137.5,102.5 Z"/></g>
<g><path style="opacity:1" fill="#343434" d="M 202.5,112.5 C 203.99,117.077 204.656,121.91 204.5,127C 204.498,130.352 204.165,133.518 203.5,136.5C 203.499,128.483 203.166,120.483 202.5,112.5 Z"/></g>
<g><path style="opacity:1" fill="#8d8d8d" d="M 252.5,119.5 C 253.924,121.515 254.59,123.848 254.5,126.5C 253.076,124.485 252.41,122.152 252.5,119.5 Z"/></g>
<g><path style="opacity:1" fill="#bcbcbc" d="M 198.5,113.5 C 199.302,114.952 199.802,116.618 200,118.5C 200.667,124.5 200.667,130.5 200,136.5C 199.428,140.163 198.262,143.497 196.5,146.5C 198.317,135.605 198.984,124.605 198.5,113.5 Z"/></g>
<g><path style="opacity:1" fill="#7b7b7b" d="M 171.5,131.5 C 172.708,132.234 174.041,132.567 175.5,132.5C 175.083,133.124 174.416,133.457 173.5,133.5C 172.287,133.253 171.62,132.586 171.5,131.5 Z"/></g>
<g><path style="opacity:1" fill="#aaaaaa" d="M 137.5,133.5 C 138.871,135.936 139.871,138.603 140.5,141.5C 138.345,139.383 137.345,136.716 137.5,133.5 Z"/></g>
<g><path style="opacity:1" fill="#939393" d="M 256.5,134.5 C 257.924,136.515 258.59,138.848 258.5,141.5C 257.076,139.485 256.41,137.152 256.5,134.5 Z"/></g>
<g><path style="opacity:1" fill="#272727" d="M 172.5,139.5 C 176.138,138.737 177.638,140.07 177,143.5C 173.331,145.009 171.831,143.676 172.5,139.5 Z"/></g>
<g><path style="opacity:1" fill="#959595" d="M 260.5,149.5 C 261.924,151.515 262.59,153.848 262.5,156.5C 261.076,154.485 260.41,152.152 260.5,149.5 Z"/></g>
<g><path style="opacity:1" fill="#9c9c9c" d="M 83.5,146.5 C 84.6572,149.273 85.3239,152.273 85.5,155.5C 84.8826,155.389 84.3826,155.056 84,154.5C 83.5026,151.854 83.3359,149.187 83.5,146.5 Z"/></g>
<g><path style="opacity:1" fill="#9d9d9d" d="M 85.5,156.5 C 86.6572,159.273 87.3239,162.273 87.5,165.5C 86.8826,165.389 86.3826,165.056 86,164.5C 85.5026,161.854 85.3359,159.187 85.5,156.5 Z"/></g>
<g><path style="opacity:1" fill="#909090" d="M 263.5,160.5 C 264.924,162.515 265.59,164.848 265.5,167.5C 264.076,165.485 263.41,163.152 263.5,160.5 Z"/></g>
<g><path style="opacity:0.357" fill="#888888" d="M 68.5,169.5 C 69.9238,171.515 70.5905,173.848 70.5,176.5C 69.0762,174.485 68.4095,172.152 68.5,169.5 Z"/></g>
<g><path style="opacity:1" fill="#989898" d="M 267.5,175.5 C 268.924,177.515 269.59,179.848 269.5,182.5C 268.076,180.485 267.41,178.152 267.5,175.5 Z"/></g>
<g><path style="opacity:1" fill="#bcbcbc" d="M 246.5,197.5 C 242.361,198.563 238.028,199.23 233.5,199.5C 233.611,198.883 233.944,198.383 234.5,198C 238.486,197.501 242.486,197.334 246.5,197.5 Z"/></g>
<g><path style="opacity:1" fill="#c5c5c5" d="M 229.5,199.5 C 220.352,200.656 211.019,201.323 201.5,201.5C 203.292,200.691 205.292,200.191 207.5,200C 214.826,199.5 222.159,199.334 229.5,199.5 Z"/></g>
<g><path style="opacity:1" fill="#c1c1c1" d="M 196.5,201.5 C 189.017,202.584 181.35,203.251 173.5,203.5C 174.263,202.732 175.263,202.232 176.5,202C 183.158,201.5 189.825,201.334 196.5,201.5 Z"/></g>
<g><path style="opacity:1" fill="#d2d2d2" d="M 268.5,202.5 C 268.083,201.876 267.416,201.543 266.5,201.5C 256.565,203.052 246.565,203.719 236.5,203.5C 247.999,201.683 259.665,200.517 271.5,200C 270.627,201.045 269.627,201.878 268.5,202.5 Z"/></g>
<g><path style="opacity:1" fill="#f6f6f6" d="M 268.5,202.5 C 267.171,206.822 265.837,211.155 264.5,215.5C 264.131,219.768 263.131,223.768 261.5,227.5C 230.84,228.265 200.173,228.598 169.5,228.5C 147.813,228.938 126.147,229.772 104.5,231C 131.674,231.389 158.674,230.889 185.5,229.5C 210.841,229.611 236.174,229.278 261.5,228.5C 263.554,228.365 265.221,229.032 266.5,230.5C 267.341,232.379 267.675,234.379 267.5,236.5C 212.822,239.437 158.155,242.437 103.5,245.5C 103.12,242.255 101.953,239.255 100,236.5C 98.9847,232.56 98.4847,228.56 98.5,224.5C 122.155,223.453 145.822,222.786 169.5,222.5C 172.713,222.81 175.713,222.477 178.5,221.5C 189.346,221.828 200.013,221.494 210.5,220.5C 222.849,220.433 235.182,219.933 247.5,219C 233.502,218.833 219.502,219 205.5,219.5C 194.852,220.277 184.185,220.61 173.5,220.5C 165.648,220.175 157.982,220.508 150.5,221.5C 133.133,221.406 115.799,222.073 98.5,223.5C 98.5,222.167 98.5,220.833 98.5,219.5C 146.464,217.267 194.464,215.1 242.5,213C 248.189,212.298 253.856,211.465 259.5,210.5C 258.333,210.167 257.167,209.833 256,209.5C 249.564,210.812 243.064,211.646 236.5,212C 190.819,213.629 145.152,215.463 99.5,217.5C 99.4208,216.07 99.7542,214.736 100.5,213.5C 103.107,212.682 105.774,212.182 108.5,212C 151.37,209.858 194.037,207.024 236.5,203.5C 246.565,203.719 256.565,203.052 266.5,201.5C 267.416,201.543 268.083,201.876 268.5,202.5 Z"/></g>
<g><path style="opacity:1" fill="#b9b9b9" d="M 102.5,205.5 C 107.405,206.445 112.405,206.779 117.5,206.5C 115.19,207.164 112.69,207.497 110,207.5C 107.071,207.475 104.571,206.809 102.5,205.5 Z"/></g>
<g><path style="opacity:1" fill="#414141" d="M 98.5,219.5 C 98.8333,218.833 99.1667,218.167 99.5,217.5C 145.152,215.463 190.819,213.629 236.5,212C 243.064,211.646 249.564,210.812 256,209.5C 257.167,209.833 258.333,210.167 259.5,210.5C 253.856,211.465 248.189,212.298 242.5,213C 194.464,215.1 146.464,217.267 98.5,219.5 Z"/></g>
<g><path style="opacity:1" fill="#555555" d="M 86.5,214.5 C 87.9238,216.515 88.5905,218.848 88.5,221.5C 87.0762,219.485 86.4095,217.152 86.5,214.5 Z"/></g>
<g><path style="opacity:1" fill="#4a4a4a" d="M 210.5,220.5 C 208.585,220.784 206.919,220.451 205.5,219.5C 219.502,219 233.502,218.833 247.5,219C 235.182,219.933 222.849,220.433 210.5,220.5 Z"/></g>
<g><path style="opacity:1" fill="#8c8c8c" d="M 150.5,221.5 C 157.982,220.508 165.648,220.175 173.5,220.5C 174.919,221.451 176.585,221.784 178.5,221.5C 175.713,222.477 172.713,222.81 169.5,222.5C 163.355,221.51 157.022,221.177 150.5,221.5 Z"/></g>
<g><path style="opacity:1" fill="#6a6a6a" d="M 205.5,219.5 C 206.919,220.451 208.585,220.784 210.5,220.5C 200.013,221.494 189.346,221.828 178.5,221.5C 176.585,221.784 174.919,221.451 173.5,220.5C 184.185,220.61 194.852,220.277 205.5,219.5 Z"/></g>
<g><path style="opacity:1" fill="#5b5b5b" d="M 150.5,221.5 C 157.022,221.177 163.355,221.51 169.5,222.5C 145.822,222.786 122.155,223.453 98.5,224.5C 98.5,224.167 98.5,223.833 98.5,223.5C 115.799,222.073 133.133,221.406 150.5,221.5 Z"/></g>
<g><path style="opacity:1" fill="#a8a8a8" d="M 264.5,215.5 C 264.431,220.616 265.098,225.616 266.5,230.5C 265.221,229.032 263.554,228.365 261.5,228.5C 261.5,228.167 261.5,227.833 261.5,227.5C 263.131,223.768 264.131,219.768 264.5,215.5 Z"/></g>
<g><path style="opacity:1" fill="#464646" d="M 261.5,227.5 C 261.5,227.833 261.5,228.167 261.5,228.5C 236.174,229.278 210.841,229.611 185.5,229.5C 179.974,229.821 174.64,229.488 169.5,228.5C 200.173,228.598 230.84,228.265 261.5,227.5 Z"/></g>
<g><path style="opacity:0.761" fill="#585858" d="M 269.5,223.5 C 270.924,225.515 271.59,227.848 271.5,230.5C 270.076,228.485 269.41,226.152 269.5,223.5 Z"/></g>
<g><path style="opacity:1" fill="#757575" d="M 169.5,228.5 C 174.64,229.488 179.974,229.821 185.5,229.5C 158.674,230.889 131.674,231.389 104.5,231C 126.147,229.772 147.813,228.938 169.5,228.5 Z"/></g>
<g><path style="opacity:0.01" fill="#d3d3d3" d="M 254.5,242.5 C 256.167,242.5 257.833,242.5 259.5,242.5C 250.398,244.27 241.065,244.937 231.5,244.5C 228.5,244.5 225.5,244.5 222.5,244.5C 232.947,242.767 243.614,242.101 254.5,242.5 Z"/></g>
<g><path style="opacity:0.008" fill="#dcdcdc" d="M 222.5,244.5 C 225.5,244.5 228.5,244.5 231.5,244.5C 229.708,245.309 227.708,245.809 225.5,246C 183.528,248.386 141.528,250.052 99.5,251C 97.3299,252.888 95.3299,252.721 93.5,250.5C 95.4147,250.784 97.0813,250.451 98.5,249.5C 139.663,247.525 180.997,245.858 222.5,244.5 Z"/></g>
<g><path style="opacity:0.063" fill="#d3d3d3" d="M 56.5,123.5 C 61.1069,138.591 65.1069,153.924 68.5,169.5C 68.4095,172.152 69.0762,174.485 70.5,176.5C 76.6115,197.783 83.1115,219.117 90,240.5C 91.3333,243.167 92.6667,245.833 94,248.5C 95.3561,249.38 96.8561,249.714 98.5,249.5C 97.0813,250.451 95.4147,250.784 93.5,250.5C 90.3389,247.525 88.1723,243.858 87,239.5C 74.8996,203.7 64.7329,167.367 56.5,130.5C 56.5,128.167 56.5,125.833 56.5,123.5 Z"/></g>
</svg>
