<?xml version="1.0" encoding="UTF-8"?>
<!DOCTYPE svg PUBLIC "-//W3C//DTD SVG 1.1//EN" "http://www.w3.org/Graphics/SVG/1.1/DTD/svg11.dtd">
<svg xmlns="http://www.w3.org/2000/svg" version="1.1" width="313px" height="292px" style="shape-rendering:geometricPrecision; text-rendering:geometricPrecision; image-rendering:optimizeQuality; fill-rule:evenodd; clip-rule:evenodd" xmlns:xlink="http://www.w3.org/1999/xlink">
<g><path style="opacity:0.999" fill="#0d0d0d" d="M 213.5,49.5 C 217.437,49.2065 221.27,49.5399 225,50.5C 238.41,100.962 252.077,151.295 266,201.5C 266.667,203.167 266.667,204.833 266,206.5C 260.137,212.23 256.97,219.23 256.5,227.5C 258.433,233.596 260.099,239.763 261.5,246C 261.481,247.833 260.815,249.333 259.5,250.5C 249.826,250.574 240.159,250.908 230.5,251.5C 226.435,251.511 222.768,252.178 219.5,253.5C 175.496,254.788 131.496,256.288 87.5,258C 86.4366,259.188 85.1033,259.688 83.5,259.5C 81.4251,256.354 79.5918,253.021 78,249.5C 65.2894,210.992 54.2894,171.992 45,132.5C 43.9689,111.997 45.3022,91.6637 49,71.5C 53.1392,63.0566 59.9725,59.2232 69.5,60C 107.824,56.7764 146.157,53.943 184.5,51.5C 194.359,51.4431 204.026,50.7765 213.5,49.5 Z"/></g>
<g><path style="opacity:0.404" fill="#b4b4b4" d="M 205.5,49.5 C 208.167,49.5 210.833,49.5 213.5,49.5C 204.026,50.7765 194.359,51.4431 184.5,51.5C 184.5,51.1667 184.5,50.8333 184.5,50.5C 191.313,49.5088 198.313,49.1755 205.5,49.5 Z"/></g>
<g><path style="opacity:1" fill="#a8a8a8" d="M 220.5,55.5 C 211.513,56.1071 202.513,56.4404 193.5,56.5C 200.493,55.6104 207.66,54.9437 215,54.5C 217.033,54.5056 218.866,54.8389 220.5,55.5 Z"/></g>
<g><path style="opacity:1" fill="#fcfcfc" d="M 220.5,55.5 C 221.586,55.62 222.253,56.2867 222.5,57.5C 235.098,106.29 248.098,154.957 261.5,203.5C 252.612,205.451 243.612,206.451 234.5,206.5C 230.154,206.334 225.821,206.501 221.5,207C 220.584,207.278 219.918,207.778 219.5,208.5C 207.879,209.482 196.212,210.149 184.5,210.5C 175.267,210.075 166.267,210.741 157.5,212.5C 140.536,213.956 123.536,214.956 106.5,215.5C 101.5,215.5 96.5,215.5 91.5,215.5C 91.8432,213.517 91.1765,212.183 89.5,211.5C 87.5405,206.668 86.0405,201.668 85,196.5C 76.7119,159.349 69.3785,122.015 63,84.5C 61.9882,78.2041 61.4882,71.8708 61.5,65.5C 105.437,61.8372 149.437,58.8372 193.5,56.5C 202.513,56.4404 211.513,56.1071 220.5,55.5 Z"/></g>
<g><path style="opacity:1" fill="#f5f5f5" d="M 59.5,90.5 C 59.8891,97.1697 60.3891,103.836 61,110.5C 61.5662,112.723 62.3995,114.723 63.5,116.5C 69.7227,145.11 75.8894,173.777 82,202.5C 83.3614,207.386 84.8614,212.219 86.5,217C 83.8566,221.26 82.1899,225.927 81.5,231C 81.3988,238.353 83.0655,245.186 86.5,251.5C 86.1667,252.167 85.8333,252.833 85.5,253.5C 83.7328,251.084 82.2328,248.417 81,245.5C 78.003,232.177 74.003,219.177 69,206.5C 63.1339,181.369 56.8006,156.369 50,131.5C 49.3749,113.125 50.0415,94.7917 52,76.5C 52.6499,73.0348 54.1499,70.0348 56.5,67.5C 57.61,75.1587 58.61,82.8254 59.5,90.5 Z"/></g>
<g><path style="opacity:1" fill="#121212" d="M 149.5,85.5 C 163.145,85.0722 173.978,90.4055 182,101.5C 193.699,120.103 195.699,139.77 188,160.5C 178.44,178.017 164.607,182.517 146.5,174C 134.034,164.243 126.867,151.41 125,135.5C 121.639,117.245 126.806,102.078 140.5,90C 143.592,88.4541 146.592,86.9541 149.5,85.5 Z"/></g>
<g><path style="opacity:1" fill="#f9f9f9" d="M 149.5,88.5 C 162.863,88.3503 173.03,94.017 180,105.5C 190.845,124.69 191.178,144.023 181,163.5C 170.865,175.082 159.365,176.582 146.5,168C 129.84,150.861 124.673,130.695 131,107.5C 132.746,103.673 134.746,100.007 137,96.5C 140.671,92.9227 144.838,90.2561 149.5,88.5 Z"/></g>
<g><path style="opacity:1" fill="#cacaca" d="M 59.5,90.5 C 61.1478,98.9856 62.4811,107.652 63.5,116.5C 62.3995,114.723 61.5662,112.723 61,110.5C 60.3891,103.836 59.8891,97.1697 59.5,90.5 Z"/></g>
<g><path style="opacity:1" fill="#171717" d="M 165.5,112.5 C 172.518,113.191 176.184,117.191 176.5,124.5C 175.599,131.077 172.266,136.077 166.5,139.5C 165.614,140.325 165.281,141.325 165.5,142.5C 156.89,142.136 149.723,138.803 144,132.5C 141.191,122.983 144.691,118.483 154.5,119C 155.333,119.833 156.167,120.667 157,121.5C 159.362,117.973 162.196,114.973 165.5,112.5 Z"/></g>
<g><path style="opacity:1" fill="#f3f3f3" d="M 165.5,116.5 C 170.332,116.502 172.666,119.002 172.5,124C 169.579,135.12 162.912,138.787 152.5,135C 144.671,131.693 143.671,127.026 149.5,121C 153.115,120.644 155.782,122.144 157.5,125.5C 160.16,122.506 162.827,119.506 165.5,116.5 Z"/></g>
<g><path style="opacity:0.009" fill="#e3e3e3" d="M 259.5,251.5 C 259.5,251.167 259.5,250.833 259.5,250.5C 260.815,249.333 261.481,247.833 261.5,246C 260.099,239.763 258.433,233.596 256.5,227.5C 256.97,219.23 260.137,212.23 266,206.5C 266.667,204.833 266.667,203.167 266,201.5C 252.077,151.295 238.41,100.962 225,50.5C 221.27,49.5399 217.437,49.2065 213.5,49.5C 210.833,49.5 208.167,49.5 205.5,49.5C 211.61,47.8399 217.944,47.3399 224.5,48C 225.333,48.8333 226.167,49.6667 227,50.5C 240.51,100.872 254.176,151.205 268,201.5C 268.667,203.167 268.667,204.833 268,206.5C 262.138,212.229 258.971,219.229 258.5,227.5C 260.245,233.647 261.912,239.814 263.5,246C 263.471,248.925 262.138,250.758 259.5,251.5 Z"/></g>
<g><path style="opacity:0.009" fill="#dcdcdc" d="M 184.5,50.5 C 184.5,50.8333 184.5,51.1667 184.5,51.5C 146.157,53.943 107.824,56.7764 69.5,60C 59.9725,59.2232 53.1392,63.0566 49,71.5C 45.3022,91.6637 43.9689,111.997 45,132.5C 54.2894,171.992 65.2894,210.992 78,249.5C 79.5918,253.021 81.4251,256.354 83.5,259.5C 82.8333,259.5 82.1667,259.5 81.5,259.5C 79.1904,256.898 77.3571,253.898 76,250.5C 62.6066,209.869 51.1066,168.702 41.5,127C 42.3623,111.818 43.529,96.6514 45,81.5C 45.5138,66.3195 53.3472,58.4862 68.5,58C 107.125,54.7986 145.792,52.2986 184.5,50.5 Z"/></g>
<g><path style="opacity:1" fill="#c2c2c2" d="M 234.5,206.5 C 229.71,207.725 224.71,208.392 219.5,208.5C 219.918,207.778 220.584,207.278 221.5,207C 225.821,206.501 230.154,206.334 234.5,206.5 Z"/></g>
<g><path style="opacity:1" fill="#c4c4c4" d="M 184.5,210.5 C 175.694,211.772 166.694,212.439 157.5,212.5C 166.267,210.741 175.267,210.075 184.5,210.5 Z"/></g>
<g><path style="opacity:1" fill="#f5f5f5" d="M 86.5,233.5 C 97.1747,233.377 107.841,233.043 118.5,232.5C 123.363,232.819 128.03,232.486 132.5,231.5C 166.862,231.18 201.195,230.013 235.5,228C 197.845,228.936 160.178,229.77 122.5,230.5C 118.298,230.183 114.298,230.517 110.5,231.5C 102.505,231.935 94.5052,232.269 86.5,232.5C 86.5,231.167 86.5,229.833 86.5,228.5C 93.9648,227.899 101.298,227.232 108.5,226.5C 149.194,225.793 189.86,224.293 230.5,222C 236.208,221.421 241.875,220.588 247.5,219.5C 199.95,222.065 152.283,224.065 104.5,225.5C 98.8477,226.032 93.181,226.365 87.5,226.5C 88.038,224.883 88.3713,223.216 88.5,221.5C 145.022,219.363 201.355,215.03 257.5,208.5C 258.167,208.667 258.833,208.833 259.5,209C 255.307,214.407 252.973,220.574 252.5,227.5C 253.757,233.453 254.757,239.453 255.5,245.5C 200.828,248.5 146.162,251.5 91.5,254.5C 89.7664,250.002 88.2664,245.336 87,240.5C 86.5034,238.19 86.3367,235.857 86.5,233.5 Z"/></g>
<g><path style="opacity:1" fill="#bdbdbd" d="M 89.5,211.5 C 91.1765,212.183 91.8432,213.517 91.5,215.5C 96.5,215.5 101.5,215.5 106.5,215.5C 101.36,216.488 96.0262,216.821 90.5,216.5C 90.634,214.708 90.3007,213.042 89.5,211.5 Z"/></g>
<g><path style="opacity:1" fill="#3a3a3a" d="M 108.5,226.5 C 106.901,226.768 105.568,226.434 104.5,225.5C 152.283,224.065 199.95,222.065 247.5,219.5C 241.875,220.588 236.208,221.421 230.5,222C 189.86,224.293 149.194,225.793 108.5,226.5 Z"/></g>
<g><path style="opacity:1" fill="#575757" d="M 104.5,225.5 C 105.568,226.434 106.901,226.768 108.5,226.5C 101.298,227.232 93.9648,227.899 86.5,228.5C 86.8333,227.833 87.1667,227.167 87.5,226.5C 93.181,226.365 98.8477,226.032 104.5,225.5 Z"/></g>
<g><path style="opacity:1" fill="#474747" d="M 132.5,231.5 C 128.958,231.813 125.625,231.479 122.5,230.5C 160.178,229.77 197.845,228.936 235.5,228C 201.195,230.013 166.862,231.18 132.5,231.5 Z"/></g>
<g><path style="opacity:1" fill="#888888" d="M 110.5,231.5 C 114.298,230.517 118.298,230.183 122.5,230.5C 125.625,231.479 128.958,231.813 132.5,231.5C 128.03,232.486 123.363,232.819 118.5,232.5C 116.052,231.527 113.385,231.194 110.5,231.5 Z"/></g>
<g><path style="opacity:1" fill="#535353" d="M 110.5,231.5 C 113.385,231.194 116.052,231.527 118.5,232.5C 107.841,233.043 97.1747,233.377 86.5,233.5C 86.5,233.167 86.5,232.833 86.5,232.5C 94.5052,232.269 102.505,231.935 110.5,231.5 Z"/></g>
<g><path style="opacity:1" fill="#464646" d="M 174.5,238.5 C 167.978,238.823 161.645,238.49 155.5,237.5C 186.508,237.447 217.508,237.281 248.5,237C 223.852,238.301 199.185,238.801 174.5,238.5 Z"/></g>
<g><path style="opacity:1" fill="#8a8a8a" d="M 144.5,238.5 C 147.962,237.518 151.629,237.185 155.5,237.5C 161.645,238.49 167.978,238.823 174.5,238.5C 166.684,239.492 158.684,239.826 150.5,239.5C 148.735,238.539 146.735,238.205 144.5,238.5 Z"/></g>
<g><path style="opacity:1" fill="#6d6d6d" d="M 144.5,238.5 C 146.735,238.205 148.735,238.539 150.5,239.5C 131.171,240.288 111.837,240.455 92.5,240C 109.801,238.64 127.135,238.14 144.5,238.5 Z"/></g>
<g><path style="opacity:0.276" fill="#bdbdbd" d="M 259.5,250.5 C 259.5,250.833 259.5,251.167 259.5,251.5C 246.212,252.895 232.879,253.561 219.5,253.5C 222.768,252.178 226.435,251.511 230.5,251.5C 240.159,250.908 249.826,250.574 259.5,250.5 Z"/></g>
<g><path style="opacity:0.008" fill="#dedede" d="M 219.5,253.5 C 217.708,254.309 215.708,254.809 213.5,255C 171.528,257.386 129.528,259.052 87.5,260C 85.3299,261.888 83.3299,261.721 81.5,259.5C 82.1667,259.5 82.8333,259.5 83.5,259.5C 85.1033,259.688 86.4366,259.188 87.5,258C 131.496,256.288 175.496,254.788 219.5,253.5 Z"/></g>
</svg>
