<?xml version="1.0" encoding="UTF-8"?>
<!DOCTYPE svg PUBLIC "-//W3C//DTD SVG 1.1//EN" "http://www.w3.org/Graphics/SVG/1.1/DTD/svg11.dtd">
<svg xmlns="http://www.w3.org/2000/svg" version="1.1" width="405px" height="377px" style="shape-rendering:geometricPrecision; text-rendering:geometricPrecision; image-rendering:optimizeQuality; fill-rule:evenodd; clip-rule:evenodd" xmlns:xlink="http://www.w3.org/1999/xlink">
<g><path style="opacity:0.078" fill="#d5d5d5" d="M 198.5,40.5 C 200.199,40.3398 201.866,40.5065 203.5,41C 250.638,86.4709 297.471,132.304 344,178.5C 344.978,181.669 344.478,184.503 342.5,187C 257.841,189.654 173.174,191.82 88.5,193.5C 83.4262,193.219 78.0928,192.719 72.5,192C 70.5561,189.847 70.0561,187.347 71,184.5C 111.259,138.237 152.259,92.5702 194,47.5C 195.511,45.1384 197.011,42.8051 198.5,40.5 Z"/></g>
<g><path style="opacity:0.999" fill="#0d0d0d" d="M 199.5,42.5 C 200.873,42.3433 202.207,42.51 203.5,43C 249.667,88.5 295.833,134 342,179.5C 342.667,181.167 342.667,182.833 342,184.5C 313.928,186.474 285.761,187.641 257.5,188C 196.501,189.444 135.501,190.444 74.5,191C 73.1955,190.196 72.5288,189.029 72.5,187.5C 73.7669,185.056 75.2669,182.723 77,180.5C 117.67,134.332 158.503,88.3315 199.5,42.5 Z"/></g>
<g><path style="opacity:1" fill="#fdfdfd" d="M 329.5,177.5 C 312.833,178.167 296.167,178.833 279.5,179.5C 225.82,179.953 172.154,180.953 118.5,182.5C 107.654,182.828 96.9869,182.494 86.5,181.5C 124.506,137.828 162.506,94.161 200.5,50.5C 243.853,92.5199 286.853,134.853 329.5,177.5 Z"/></g>
<g><path style="opacity:1" fill="#929292" d="M 329.5,177.5 C 330.289,177.783 330.956,178.283 331.5,179C 314.17,179.5 296.837,179.667 279.5,179.5C 296.167,178.833 312.833,178.167 329.5,177.5 Z"/></g>
<g><path style="opacity:1" fill="#868686" d="M 86.5,181.5 C 96.9869,182.494 107.654,182.828 118.5,182.5C 107.341,183.659 96.0076,183.826 84.5,183C 85.0442,182.283 85.7109,181.783 86.5,181.5 Z"/></g>
<g><path style="opacity:0.012" fill="#fbfbfb" d="M 101.5,196.5 C 104.64,195.359 107.973,195.192 111.5,196C 108.183,196.498 104.85,196.665 101.5,196.5 Z"/></g>
<g><path style="opacity:0.131" fill="#d5d5d5" d="M 271.5,196.5 C 287.009,196.17 302.342,196.504 317.5,197.5C 306.833,197.5 296.167,197.5 285.5,197.5C 257.99,197.504 230.657,198.171 203.5,199.5C 193.5,199.5 183.5,199.5 173.5,199.5C 158.167,199.5 142.833,199.5 127.5,199.5C 175.334,198.305 223.334,197.305 271.5,196.5 Z"/></g>
<g><path style="opacity:0.765" fill="#555555" d="M 285.5,197.5 C 258.344,198.861 231.011,199.528 203.5,199.5C 230.657,198.171 257.99,197.504 285.5,197.5 Z"/></g>
<g><path style="opacity:0.998" fill="#111111" d="M 285.5,197.5 C 296.167,197.5 306.833,197.5 317.5,197.5C 318.496,197.414 319.329,197.748 320,198.5C 320.273,215.515 320.773,232.515 321.5,249.5C 322.379,273.829 322.546,298.162 322,322.5C 321.167,323.333 320.333,324.167 319.5,325C 301.662,325.168 283.995,325.668 266.5,326.5C 264.5,326.5 262.5,326.5 260.5,326.5C 260.83,306.993 260.497,287.659 259.5,268.5C 258.627,264.802 257.627,261.135 256.5,257.5C 256.741,254.966 255.741,253.3 253.5,252.5C 252.5,252.167 251.833,251.5 251.5,250.5C 251.5,248.5 250.5,247.5 248.5,247.5C 243.732,245.28 238.732,243.946 233.5,243.5C 230.215,243.269 227.715,244.603 226,247.5C 223.196,251.443 221.196,255.777 220,260.5C 217.996,271.409 217.163,282.409 217.5,293.5C 217.5,294.167 217.5,294.833 217.5,295.5C 216.506,305.987 216.172,316.654 216.5,327.5C 178.834,328.098 141.167,328.265 103.5,328C 102.619,327.292 101.953,326.458 101.5,325.5C 101.32,284.494 101.653,243.494 102.5,202.5C 102.5,201.833 102.833,201.5 103.5,201.5C 127.004,201.201 150.337,200.534 173.5,199.5C 183.5,199.5 193.5,199.5 203.5,199.5C 231.011,199.528 258.344,198.861 285.5,197.5 Z M 161.5,223.5 C 167.5,223.5 173.5,223.5 179.5,223.5C 179.5,226.5 179.5,229.5 179.5,232.5C 173.69,232.878 168.023,232.211 162.5,230.5C 161.626,228.253 161.292,225.92 161.5,223.5 Z M 134.5,223.5 C 140.167,223.5 145.833,223.5 151.5,223.5C 151.784,226.777 151.451,229.943 150.5,233C 145.177,233.499 139.844,233.666 134.5,233.5C 135.833,230.167 135.833,226.833 134.5,223.5 Z M 134.5,246.5 C 140.536,246.36 146.536,246.693 152.5,247.5C 152.67,248.822 152.337,249.989 151.5,251C 148.964,251.186 146.631,251.686 144.5,252.5C 141.5,252.5 138.5,252.5 135.5,252.5C 135.167,250.5 134.833,248.5 134.5,246.5 Z M 161.5,246.5 C 166.833,246.5 172.167,246.5 177.5,246.5C 177.714,248.144 177.38,249.644 176.5,251C 171.511,251.499 166.511,251.666 161.5,251.5C 161.5,249.833 161.5,248.167 161.5,246.5 Z"/></g>
<g><path style="opacity:0.253" fill="#aaaaaa" d="M 126.5,199.5 C 126.833,199.5 127.167,199.5 127.5,199.5C 142.833,199.5 158.167,199.5 173.5,199.5C 150.337,200.534 127.004,201.201 103.5,201.5C 111.167,200.833 118.833,200.167 126.5,199.5 Z"/></g>
<g><path style="opacity:1" fill="#fcfcfc" d="M 293.5,203.5 C 300.5,203.5 307.5,203.5 314.5,203.5C 314.5,241.833 314.5,280.167 314.5,318.5C 298.5,318.5 282.5,318.5 266.5,318.5C 265.999,298.49 265.166,278.49 264,258.5C 259.026,248.858 251.526,242.025 241.5,238C 233.737,235.905 227.237,237.739 222,243.5C 214.47,256.435 210.803,270.435 211,285.5C 210.5,297.162 210.333,308.829 210.5,320.5C 189.167,320.5 167.833,320.5 146.5,320.5C 133.833,320.5 121.167,320.5 108.5,320.5C 108.831,297.327 108.498,274.327 107.5,251.5C 107.591,236.488 107.257,221.488 106.5,206.5C 133.167,206.167 159.833,205.833 186.5,205.5C 222.35,205.917 258.016,205.251 293.5,203.5 Z M 161.5,223.5 C 161.292,225.92 161.626,228.253 162.5,230.5C 168.023,232.211 173.69,232.878 179.5,232.5C 179.5,229.5 179.5,226.5 179.5,223.5C 173.5,223.5 167.5,223.5 161.5,223.5 Z M 134.5,223.5 C 140.167,223.5 145.833,223.5 151.5,223.5C 151.784,226.777 151.451,229.943 150.5,233C 145.177,233.499 139.844,233.666 134.5,233.5C 135.833,230.167 135.833,226.833 134.5,223.5 Z M 134.5,246.5 C 140.536,246.36 146.536,246.693 152.5,247.5C 152.67,248.822 152.337,249.989 151.5,251C 148.964,251.186 146.631,251.686 144.5,252.5C 141.5,252.5 138.5,252.5 135.5,252.5C 135.167,250.5 134.833,248.5 134.5,246.5 Z M 161.5,246.5 C 161.5,248.167 161.5,249.833 161.5,251.5C 166.511,251.666 171.511,251.499 176.5,251C 177.38,249.644 177.714,248.144 177.5,246.5C 172.167,246.5 166.833,246.5 161.5,246.5 Z"/></g>
<g><path style="opacity:1" fill="#d0d0d0" d="M 290.5,203.5 C 291.5,203.5 292.5,203.5 293.5,203.5C 258.016,205.251 222.35,205.917 186.5,205.5C 220.995,204.347 255.662,203.68 290.5,203.5 Z"/></g>
<g><path style="opacity:0.03" fill="#dedede" d="M 271.5,196.5 C 287.328,195.339 303.328,195.172 319.5,196C 320.308,196.308 320.975,196.808 321.5,197.5C 322.92,221.113 323.586,244.78 323.5,268.5C 322.833,262.167 322.167,255.833 321.5,249.5C 320.773,232.515 320.273,215.515 320,198.5C 319.329,197.748 318.496,197.414 317.5,197.5C 302.342,196.504 287.009,196.17 271.5,196.5 Z"/></g>
<g><path style="opacity:1" fill="#a2a2a2" d="M 129.5,215.5 C 137.984,214.507 146.651,214.174 155.5,214.5C 155.737,215.791 155.404,216.791 154.5,217.5C 146.567,215.532 138.234,214.865 129.5,215.5 Z"/></g>
<g><path style="opacity:1" fill="#121212" d="M 129.5,215.5 C 138.234,214.865 146.567,215.532 154.5,217.5C 154.5,219.833 154.5,222.167 154.5,224.5C 154.5,228.5 154.5,232.5 154.5,236.5C 152.585,236.216 150.919,236.549 149.5,237.5C 142.167,237.5 134.833,237.5 127.5,237.5C 127.334,230.492 127.5,223.492 128,216.5C 128.383,215.944 128.883,215.611 129.5,215.5 Z M 134.5,223.5 C 140.167,223.5 145.833,223.5 151.5,223.5C 151.784,226.777 151.451,229.943 150.5,233C 145.177,233.499 139.844,233.666 134.5,233.5C 135.833,230.167 135.833,226.833 134.5,223.5 Z"/></g>
<g><path style="opacity:1" fill="#0e0e0e" d="M 159.5,215.5 C 168.276,215.059 176.942,215.559 185.5,217C 185.987,223.747 185.987,230.58 185.5,237.5C 183.5,237.5 181.5,237.5 179.5,237.5C 173.021,236.509 166.354,236.176 159.5,236.5C 159.19,233.287 159.523,230.287 160.5,227.5C 160.5,229.5 160.5,231.5 160.5,233.5C 167.167,233.5 173.833,233.5 180.5,233.5C 180.5,229.833 180.5,226.167 180.5,222.5C 173.833,222.5 167.167,222.5 160.5,222.5C 159.532,220.393 159.198,218.059 159.5,215.5 Z"/></g>
<g><path style="opacity:0.271" fill="#a6a6a6" d="M 152.5,234.5 C 152.815,230.629 152.482,226.962 151.5,223.5C 145.833,223.5 140.167,223.5 134.5,223.5C 133.532,225.607 133.198,227.941 133.5,230.5C 132.527,228.052 132.194,225.385 132.5,222.5C 139.5,222.5 146.5,222.5 153.5,222.5C 153.817,226.702 153.483,230.702 152.5,234.5 Z"/></g>
<g><path style="opacity:0.204" fill="#d2d2d2" d="M 160.5,222.5 C 167.167,222.5 173.833,222.5 180.5,222.5C 180.5,226.167 180.5,229.833 180.5,233.5C 173.833,233.5 167.167,233.5 160.5,233.5C 160.5,231.5 160.5,229.5 160.5,227.5C 160.5,225.833 160.5,224.167 160.5,222.5 Z M 161.5,223.5 C 161.292,225.92 161.626,228.253 162.5,230.5C 168.023,232.211 173.69,232.878 179.5,232.5C 179.5,229.5 179.5,226.5 179.5,223.5C 173.5,223.5 167.5,223.5 161.5,223.5 Z"/></g>
<g><path style="opacity:0.997" fill="#373737" d="M 159.5,215.5 C 159.198,218.059 159.532,220.393 160.5,222.5C 160.5,224.167 160.5,225.833 160.5,227.5C 159.523,230.287 159.19,233.287 159.5,236.5C 166.354,236.176 173.021,236.509 179.5,237.5C 172.5,237.5 165.5,237.5 158.5,237.5C 158.175,229.981 158.508,222.648 159.5,215.5 Z"/></g>
<g><path style="opacity:0.082" fill="#dddddd" d="M 134.5,223.5 C 135.833,226.833 135.833,230.167 134.5,233.5C 139.844,233.666 145.177,233.499 150.5,233C 151.451,229.943 151.784,226.777 151.5,223.5C 152.482,226.962 152.815,230.629 152.5,234.5C 146.162,234.767 139.829,235.1 133.5,235.5C 133.5,233.833 133.5,232.167 133.5,230.5C 133.198,227.941 133.532,225.607 134.5,223.5 Z M 134.5,223.5 C 140.167,223.5 145.833,223.5 151.5,223.5C 151.784,226.777 151.451,229.943 150.5,233C 145.177,233.499 139.844,233.666 134.5,233.5C 135.833,230.167 135.833,226.833 134.5,223.5 Z"/></g>
<g><path style="opacity:1" fill="#7d7d7d" d="M 154.5,224.5 C 155.485,228.634 155.818,232.968 155.5,237.5C 153.5,237.5 151.5,237.5 149.5,237.5C 150.919,236.549 152.585,236.216 154.5,236.5C 154.5,232.5 154.5,228.5 154.5,224.5 Z"/></g>
<g><path style="opacity:1" fill="#7e7e7e" d="M 290.5,203.5 C 298.65,202.507 306.983,202.174 315.5,202.5C 315.5,241.5 315.5,280.5 315.5,319.5C 298.991,319.83 282.658,319.496 266.5,318.5C 282.5,318.5 298.5,318.5 314.5,318.5C 314.5,280.167 314.5,241.833 314.5,203.5C 307.5,203.5 300.5,203.5 293.5,203.5C 292.5,203.5 291.5,203.5 290.5,203.5 Z"/></g>
<g><path style="opacity:1" fill="#4d4d4d" d="M 155.5,243.5 C 146.5,243.5 137.5,243.5 128.5,243.5C 128.5,248.5 128.5,253.5 128.5,258.5C 127.512,253.36 127.179,248.026 127.5,242.5C 137.015,242.173 146.348,242.506 155.5,243.5 Z"/></g>
<g><path style="opacity:0.999" fill="#050505" d="M 155.5,243.5 C 155.5,245.5 155.5,247.5 155.5,249.5C 154.521,252.625 154.187,255.958 154.5,259.5C 153.209,259.263 152.209,259.596 151.5,260.5C 144.159,260.666 136.826,260.5 129.5,260C 128.944,259.617 128.611,259.117 128.5,258.5C 128.5,253.5 128.5,248.5 128.5,243.5C 137.5,243.5 146.5,243.5 155.5,243.5 Z M 134.5,246.5 C 140.536,246.36 146.536,246.693 152.5,247.5C 152.67,248.822 152.337,249.989 151.5,251C 148.964,251.186 146.631,251.686 144.5,252.5C 141.5,252.5 138.5,252.5 135.5,252.5C 135.167,250.5 134.833,248.5 134.5,246.5 Z"/></g>
<g><path style="opacity:0.999" fill="#0d0d0d" d="M 184.5,256.5 C 183.711,256.783 183.044,257.283 182.5,258C 177.649,258.174 172.982,258.674 168.5,259.5C 167.833,259.5 167.167,259.5 166.5,259.5C 164.167,259.5 161.833,259.5 159.5,259.5C 159.815,255.629 159.482,251.962 158.5,248.5C 158.5,246.5 158.5,244.5 158.5,242.5C 167.533,242.284 176.533,242.617 185.5,243.5C 185.706,247.898 185.373,252.232 184.5,256.5 Z M 161.5,246.5 C 161.5,248.167 161.5,249.833 161.5,251.5C 166.511,251.666 171.511,251.499 176.5,251C 177.38,249.644 177.714,248.144 177.5,246.5C 172.167,246.5 166.833,246.5 161.5,246.5 Z"/></g>
<g><path style="opacity:0.341" fill="#a4a4a4" d="M 160.5,245.5 C 166.645,244.51 172.978,244.177 179.5,244.5C 179.802,247.059 179.468,249.393 178.5,251.5C 178.5,249.5 178.5,247.5 178.5,245.5C 172.5,245.5 166.5,245.5 160.5,245.5 Z"/></g>
<g><path style="opacity:0.107" fill="#e7e7e7" d="M 134.5,246.5 C 135.919,245.549 137.585,245.216 139.5,245.5C 144.167,245.5 148.833,245.5 153.5,245.5C 153.5,247.833 153.5,250.167 153.5,252.5C 150.5,252.5 147.5,252.5 144.5,252.5C 146.631,251.686 148.964,251.186 151.5,251C 152.337,249.989 152.67,248.822 152.5,247.5C 146.536,246.693 140.536,246.36 134.5,246.5 Z"/></g>
<g><path style="opacity:0.029" fill="#dadada" d="M 160.5,245.5 C 166.5,245.5 172.5,245.5 178.5,245.5C 178.5,247.5 178.5,249.5 178.5,251.5C 172.69,252.49 166.69,252.823 160.5,252.5C 160.5,250.167 160.5,247.833 160.5,245.5 Z M 161.5,246.5 C 161.5,248.167 161.5,249.833 161.5,251.5C 166.511,251.666 171.511,251.499 176.5,251C 177.38,249.644 177.714,248.144 177.5,246.5C 172.167,246.5 166.833,246.5 161.5,246.5 Z"/></g>
<g><path style="opacity:0.847" fill="#8c8c8c" d="M 248.5,247.5 C 250.5,247.5 251.5,248.5 251.5,250.5C 250.167,249.833 249.167,248.833 248.5,247.5 Z"/></g>
<g><path style="opacity:0.459" fill="#959595" d="M 139.5,245.5 C 137.585,245.216 135.919,245.549 134.5,246.5C 134.833,248.5 135.167,250.5 135.5,252.5C 138.5,252.5 141.5,252.5 144.5,252.5C 147.5,252.5 150.5,252.5 153.5,252.5C 146.998,253.383 140.332,254.049 133.5,254.5C 133.5,251.167 133.5,247.833 133.5,244.5C 135.735,244.205 137.735,244.539 139.5,245.5 Z"/></g>
<g><path style="opacity:0.953" fill="#848484" d="M 253.5,252.5 C 255.741,253.3 256.741,254.966 256.5,257.5C 255.263,256.035 254.263,254.368 253.5,252.5 Z"/></g>
<g><path style="opacity:1" fill="#4e4e4e" d="M 155.5,249.5 C 155.5,253.167 155.5,256.833 155.5,260.5C 154.167,260.5 152.833,260.5 151.5,260.5C 152.209,259.596 153.209,259.263 154.5,259.5C 154.187,255.958 154.521,252.625 155.5,249.5 Z"/></g>
<g><path style="opacity:1" fill="#bdbdbd" d="M 184.5,256.5 C 184.586,257.496 184.252,258.329 183.5,259C 178.511,259.499 173.511,259.666 168.5,259.5C 172.982,258.674 177.649,258.174 182.5,258C 183.044,257.283 183.711,256.783 184.5,256.5 Z"/></g>
<g><path style="opacity:1" fill="#a3a3a3" d="M 158.5,248.5 C 159.482,251.962 159.815,255.629 159.5,259.5C 161.833,259.5 164.167,259.5 166.5,259.5C 164.052,260.473 161.385,260.806 158.5,260.5C 158.5,256.5 158.5,252.5 158.5,248.5 Z"/></g>
<g><path style="opacity:0.09" fill="#d3d3d3" d="M 233.5,243.5 C 226.891,248.007 222.724,254.34 221,262.5C 219.318,272.925 218.152,283.258 217.5,293.5C 217.163,282.409 217.996,271.409 220,260.5C 221.196,255.777 223.196,251.443 226,247.5C 227.715,244.603 230.215,243.269 233.5,243.5 Z"/></g>
<g><path style="opacity:0.649" fill="#6a6a6a" d="M 102.5,202.5 C 101.653,243.494 101.32,284.494 101.5,325.5C 100.336,290.336 100.169,255.002 101,219.5C 101.173,213.652 101.673,207.985 102.5,202.5 Z"/></g>
<g><path style="opacity:0.108" fill="#c3c3c3" d="M 321.5,249.5 C 322.167,255.833 322.833,262.167 323.5,268.5C 324.439,286.825 324.605,305.159 324,323.5C 323.578,325.426 322.411,326.426 320.5,326.5C 302.5,326.5 284.5,326.5 266.5,326.5C 283.995,325.668 301.662,325.168 319.5,325C 320.333,324.167 321.167,323.333 322,322.5C 322.546,298.162 322.379,273.829 321.5,249.5 Z"/></g>
<g><path style="opacity:1" fill="#8c8c8c" d="M 107.5,251.5 C 108.498,274.327 108.831,297.327 108.5,320.5C 121.167,320.5 133.833,320.5 146.5,320.5C 133.677,321.495 120.677,321.829 107.5,321.5C 107.5,298.167 107.5,274.833 107.5,251.5 Z"/></g>
<g><path style="opacity:0.031" fill="#ececec" d="M 259.5,268.5 C 260.497,287.659 260.83,306.993 260.5,326.5C 262.5,326.5 264.5,326.5 266.5,326.5C 284.5,326.5 302.5,326.5 320.5,326.5C 300.352,328.591 280.018,328.925 259.5,327.5C 259.393,307.897 259.393,288.231 259.5,268.5 Z"/></g>
<g><path style="opacity:0.033" fill="#dedede" d="M 126.5,199.5 C 118.833,200.167 111.167,200.833 103.5,201.5C 102.833,201.5 102.5,201.833 102.5,202.5C 101.673,207.985 101.173,213.652 101,219.5C 100.169,255.002 100.336,290.336 101.5,325.5C 101.953,326.458 102.619,327.292 103.5,328C 141.167,328.265 178.834,328.098 216.5,327.5C 216.172,316.654 216.506,305.987 217.5,295.5C 217.821,306.748 217.487,317.915 216.5,329C 178.171,330.076 139.837,330.41 101.5,330C 101,329.5 100.5,329 100,328.5C 98.2014,286.187 98.5348,243.854 101,201.5C 101.5,201 102,200.5 102.5,200C 110.493,199.5 118.493,199.334 126.5,199.5 Z"/></g>
</svg>
