<?xml version="1.0" encoding="UTF-8"?>
<!DOCTYPE svg PUBLIC "-//W3C//DTD SVG 1.1//EN" "http://www.w3.org/Graphics/SVG/1.1/DTD/svg11.dtd">
<svg xmlns="http://www.w3.org/2000/svg" version="1.1" width="410px" height="379px" style="shape-rendering:geometricPrecision; text-rendering:geometricPrecision; image-rendering:optimizeQuality; fill-rule:evenodd; clip-rule:evenodd" xmlns:xlink="http://www.w3.org/1999/xlink">
<g><path style="opacity:0.078" fill="#d5d5d5" d="M 197.5,42.5 C 199.199,42.3398 200.866,42.5065 202.5,43C 249.638,88.4709 296.471,134.304 343,180.5C 343.978,183.669 343.478,186.503 341.5,189C 256.841,191.654 172.174,193.82 87.5,195.5C 82.4262,195.219 77.0928,194.719 71.5,194C 69.5561,191.847 69.0561,189.347 70,186.5C 110.259,140.237 151.259,94.5702 193,49.5C 194.511,47.1384 196.011,44.8051 197.5,42.5 Z"/></g>
<g><path style="opacity:0.999" fill="#0d0d0d" d="M 198.5,44.5 C 199.873,44.3433 201.207,44.51 202.5,45C 248.667,90.5 294.833,136 341,181.5C 341.667,183.167 341.667,184.833 341,186.5C 312.928,188.474 284.761,189.641 256.5,190C 195.501,191.444 134.501,192.444 73.5,193C 72.1955,192.196 71.5288,191.029 71.5,189.5C 72.7669,187.056 74.2669,184.723 76,182.5C 116.67,136.332 157.503,90.3315 198.5,44.5 Z"/></g>
<g><path style="opacity:1" fill="#fdfdfd" d="M 328.5,179.5 C 311.833,180.167 295.167,180.833 278.5,181.5C 224.82,181.953 171.154,182.953 117.5,184.5C 106.654,184.828 95.9869,184.494 85.5,183.5C 123.506,139.828 161.506,96.161 199.5,52.5C 242.853,94.5199 285.853,136.853 328.5,179.5 Z"/></g>
<g><path style="opacity:1" fill="#929292" d="M 328.5,179.5 C 329.289,179.783 329.956,180.283 330.5,181C 313.17,181.5 295.837,181.667 278.5,181.5C 295.167,180.833 311.833,180.167 328.5,179.5 Z"/></g>
<g><path style="opacity:1" fill="#868686" d="M 85.5,183.5 C 95.9869,184.494 106.654,184.828 117.5,184.5C 106.341,185.659 95.0076,185.826 83.5,185C 84.0442,184.283 84.7109,183.783 85.5,183.5 Z"/></g>
<g><path style="opacity:0.012" fill="#fbfbfb" d="M 100.5,198.5 C 103.64,197.359 106.973,197.192 110.5,198C 107.183,198.498 103.85,198.665 100.5,198.5 Z"/></g>
<g><path style="opacity:0.131" fill="#d5d5d5" d="M 270.5,198.5 C 286.009,198.17 301.342,198.504 316.5,199.5C 305.833,199.5 295.167,199.5 284.5,199.5C 256.99,199.504 229.657,200.171 202.5,201.5C 192.5,201.5 182.5,201.5 172.5,201.5C 157.167,201.5 141.833,201.5 126.5,201.5C 174.334,200.305 222.334,199.305 270.5,198.5 Z"/></g>
<g><path style="opacity:0.765" fill="#555555" d="M 284.5,199.5 C 257.344,200.861 230.011,201.528 202.5,201.5C 229.657,200.171 256.99,199.504 284.5,199.5 Z"/></g>
<g><path style="opacity:0.998" fill="#101010" d="M 284.5,199.5 C 295.167,199.5 305.833,199.5 316.5,199.5C 317.496,199.414 318.329,199.748 319,200.5C 319.273,217.515 319.773,234.515 320.5,251.5C 321.379,275.829 321.546,300.162 321,324.5C 320.167,325.333 319.333,326.167 318.5,327C 292.834,327.616 267.168,328.116 241.5,328.5C 215.331,328.836 189.331,329.502 163.5,330.5C 143.164,330.667 122.831,330.5 102.5,330C 101.619,329.292 100.953,328.458 100.5,327.5C 100.32,286.494 100.653,245.494 101.5,204.5C 101.5,203.833 101.833,203.5 102.5,203.5C 126.004,203.201 149.337,202.534 172.5,201.5C 182.5,201.5 192.5,201.5 202.5,201.5C 230.011,201.528 257.344,200.861 284.5,199.5 Z M 160.5,225.5 C 166.5,225.5 172.5,225.5 178.5,225.5C 178.5,228.5 178.5,231.5 178.5,234.5C 172.69,234.878 167.023,234.211 161.5,232.5C 160.626,230.253 160.292,227.92 160.5,225.5 Z M 133.5,225.5 C 139.167,225.5 144.833,225.5 150.5,225.5C 150.784,228.777 150.451,231.943 149.5,235C 144.177,235.499 138.844,235.666 133.5,235.5C 134.833,232.167 134.833,228.833 133.5,225.5 Z M 133.5,248.5 C 139.536,248.36 145.536,248.693 151.5,249.5C 151.67,250.822 151.337,251.989 150.5,253C 147.964,253.186 145.631,253.686 143.5,254.5C 140.5,254.5 137.5,254.5 134.5,254.5C 134.167,252.5 133.833,250.5 133.5,248.5 Z M 160.5,248.5 C 165.833,248.5 171.167,248.5 176.5,248.5C 176.714,250.144 176.38,251.644 175.5,253C 170.511,253.499 165.511,253.666 160.5,253.5C 160.5,251.833 160.5,250.167 160.5,248.5 Z"/></g>
<g><path style="opacity:0.253" fill="#aaaaaa" d="M 125.5,201.5 C 125.833,201.5 126.167,201.5 126.5,201.5C 141.833,201.5 157.167,201.5 172.5,201.5C 149.337,202.534 126.004,203.201 102.5,203.5C 110.167,202.833 117.833,202.167 125.5,201.5 Z"/></g>
<g><path style="opacity:1" fill="#fcfcfc" d="M 292.5,205.5 C 299.5,205.5 306.5,205.5 313.5,205.5C 313.5,243.833 313.5,282.167 313.5,320.5C 297.5,320.5 281.5,320.5 265.5,320.5C 264.999,300.49 264.166,280.49 263,260.5C 256.968,247.956 247.134,240.622 233.5,238.5C 225.886,239.927 220.386,244.26 217,251.5C 212.463,263.057 210.13,275.057 210,287.5C 209.5,299.162 209.333,310.829 209.5,322.5C 188.167,322.5 166.833,322.5 145.5,322.5C 132.833,322.5 120.167,322.5 107.5,322.5C 107.831,299.327 107.498,276.327 106.5,253.5C 106.591,238.488 106.257,223.488 105.5,208.5C 132.167,208.167 158.833,207.833 185.5,207.5C 221.35,207.917 257.016,207.251 292.5,205.5 Z M 160.5,225.5 C 160.292,227.92 160.626,230.253 161.5,232.5C 167.023,234.211 172.69,234.878 178.5,234.5C 178.5,231.5 178.5,228.5 178.5,225.5C 172.5,225.5 166.5,225.5 160.5,225.5 Z M 133.5,225.5 C 139.167,225.5 144.833,225.5 150.5,225.5C 150.784,228.777 150.451,231.943 149.5,235C 144.177,235.499 138.844,235.666 133.5,235.5C 134.833,232.167 134.833,228.833 133.5,225.5 Z M 133.5,248.5 C 139.536,248.36 145.536,248.693 151.5,249.5C 151.67,250.822 151.337,251.989 150.5,253C 147.964,253.186 145.631,253.686 143.5,254.5C 140.5,254.5 137.5,254.5 134.5,254.5C 134.167,252.5 133.833,250.5 133.5,248.5 Z M 160.5,248.5 C 160.5,250.167 160.5,251.833 160.5,253.5C 165.511,253.666 170.511,253.499 175.5,253C 176.38,251.644 176.714,250.144 176.5,248.5C 171.167,248.5 165.833,248.5 160.5,248.5 Z"/></g>
<g><path style="opacity:1" fill="#d0d0d0" d="M 289.5,205.5 C 290.5,205.5 291.5,205.5 292.5,205.5C 257.016,207.251 221.35,207.917 185.5,207.5C 219.995,206.347 254.662,205.68 289.5,205.5 Z"/></g>
<g><path style="opacity:0.03" fill="#dedede" d="M 270.5,198.5 C 286.328,197.339 302.328,197.172 318.5,198C 319.308,198.308 319.975,198.808 320.5,199.5C 321.92,223.113 322.586,246.78 322.5,270.5C 321.833,264.167 321.167,257.833 320.5,251.5C 319.773,234.515 319.273,217.515 319,200.5C 318.329,199.748 317.496,199.414 316.5,199.5C 301.342,198.504 286.009,198.17 270.5,198.5 Z"/></g>
<g><path style="opacity:1" fill="#a2a2a2" d="M 128.5,217.5 C 136.984,216.507 145.651,216.174 154.5,216.5C 154.737,217.791 154.404,218.791 153.5,219.5C 145.567,217.532 137.234,216.865 128.5,217.5 Z"/></g>
<g><path style="opacity:1" fill="#121212" d="M 128.5,217.5 C 137.234,216.865 145.567,217.532 153.5,219.5C 153.5,221.833 153.5,224.167 153.5,226.5C 153.5,230.5 153.5,234.5 153.5,238.5C 151.585,238.216 149.919,238.549 148.5,239.5C 141.167,239.5 133.833,239.5 126.5,239.5C 126.334,232.492 126.5,225.492 127,218.5C 127.383,217.944 127.883,217.611 128.5,217.5 Z M 133.5,225.5 C 139.167,225.5 144.833,225.5 150.5,225.5C 150.784,228.777 150.451,231.943 149.5,235C 144.177,235.499 138.844,235.666 133.5,235.5C 134.833,232.167 134.833,228.833 133.5,225.5 Z"/></g>
<g><path style="opacity:1" fill="#0e0e0e" d="M 158.5,217.5 C 167.276,217.059 175.942,217.559 184.5,219C 184.987,225.747 184.987,232.58 184.5,239.5C 182.5,239.5 180.5,239.5 178.5,239.5C 172.021,238.509 165.354,238.176 158.5,238.5C 158.19,235.287 158.523,232.287 159.5,229.5C 159.5,231.5 159.5,233.5 159.5,235.5C 166.167,235.5 172.833,235.5 179.5,235.5C 179.5,231.833 179.5,228.167 179.5,224.5C 172.833,224.5 166.167,224.5 159.5,224.5C 158.532,222.393 158.198,220.059 158.5,217.5 Z"/></g>
<g><path style="opacity:0.271" fill="#a6a6a6" d="M 151.5,236.5 C 151.815,232.629 151.482,228.962 150.5,225.5C 144.833,225.5 139.167,225.5 133.5,225.5C 132.532,227.607 132.198,229.941 132.5,232.5C 131.527,230.052 131.194,227.385 131.5,224.5C 138.5,224.5 145.5,224.5 152.5,224.5C 152.817,228.702 152.483,232.702 151.5,236.5 Z"/></g>
<g><path style="opacity:0.204" fill="#d2d2d2" d="M 159.5,224.5 C 166.167,224.5 172.833,224.5 179.5,224.5C 179.5,228.167 179.5,231.833 179.5,235.5C 172.833,235.5 166.167,235.5 159.5,235.5C 159.5,233.5 159.5,231.5 159.5,229.5C 159.5,227.833 159.5,226.167 159.5,224.5 Z M 160.5,225.5 C 160.292,227.92 160.626,230.253 161.5,232.5C 167.023,234.211 172.69,234.878 178.5,234.5C 178.5,231.5 178.5,228.5 178.5,225.5C 172.5,225.5 166.5,225.5 160.5,225.5 Z"/></g>
<g><path style="opacity:0.997" fill="#373737" d="M 158.5,217.5 C 158.198,220.059 158.532,222.393 159.5,224.5C 159.5,226.167 159.5,227.833 159.5,229.5C 158.523,232.287 158.19,235.287 158.5,238.5C 165.354,238.176 172.021,238.509 178.5,239.5C 171.5,239.5 164.5,239.5 157.5,239.5C 157.175,231.981 157.508,224.648 158.5,217.5 Z"/></g>
<g><path style="opacity:0.082" fill="#dddddd" d="M 133.5,225.5 C 134.833,228.833 134.833,232.167 133.5,235.5C 138.844,235.666 144.177,235.499 149.5,235C 150.451,231.943 150.784,228.777 150.5,225.5C 151.482,228.962 151.815,232.629 151.5,236.5C 145.162,236.767 138.829,237.1 132.5,237.5C 132.5,235.833 132.5,234.167 132.5,232.5C 132.198,229.941 132.532,227.607 133.5,225.5 Z M 133.5,225.5 C 139.167,225.5 144.833,225.5 150.5,225.5C 150.784,228.777 150.451,231.943 149.5,235C 144.177,235.499 138.844,235.666 133.5,235.5C 134.833,232.167 134.833,228.833 133.5,225.5 Z"/></g>
<g><path style="opacity:1" fill="#7d7d7d" d="M 153.5,226.5 C 154.485,230.634 154.818,234.968 154.5,239.5C 152.5,239.5 150.5,239.5 148.5,239.5C 149.919,238.549 151.585,238.216 153.5,238.5C 153.5,234.5 153.5,230.5 153.5,226.5 Z"/></g>
<g><path style="opacity:1" fill="#7e7e7e" d="M 289.5,205.5 C 297.65,204.507 305.983,204.174 314.5,204.5C 314.5,243.5 314.5,282.5 314.5,321.5C 297.991,321.83 281.658,321.496 265.5,320.5C 281.5,320.5 297.5,320.5 313.5,320.5C 313.5,282.167 313.5,243.833 313.5,205.5C 306.5,205.5 299.5,205.5 292.5,205.5C 291.5,205.5 290.5,205.5 289.5,205.5 Z"/></g>
<g><path style="opacity:1" fill="#4d4d4d" d="M 154.5,245.5 C 145.5,245.5 136.5,245.5 127.5,245.5C 127.5,250.5 127.5,255.5 127.5,260.5C 126.512,255.36 126.179,250.026 126.5,244.5C 136.015,244.173 145.348,244.506 154.5,245.5 Z"/></g>
<g><path style="opacity:1" fill="#fbfbfb" d="M 259.5,322.5 C 245.5,322.5 231.5,322.5 217.5,322.5C 217.817,318.298 217.483,314.298 216.5,310.5C 214.89,294.454 215.39,278.454 218,262.5C 225.512,239.85 237.178,237.517 253,255.5C 256.968,262.996 259.301,270.996 260,279.5C 260.575,293.842 260.408,308.176 259.5,322.5 Z"/></g>
<g><path style="opacity:0.999" fill="#050505" d="M 154.5,245.5 C 154.5,247.5 154.5,249.5 154.5,251.5C 153.521,254.625 153.187,257.958 153.5,261.5C 152.209,261.263 151.209,261.596 150.5,262.5C 143.159,262.666 135.826,262.5 128.5,262C 127.944,261.617 127.611,261.117 127.5,260.5C 127.5,255.5 127.5,250.5 127.5,245.5C 136.5,245.5 145.5,245.5 154.5,245.5 Z M 133.5,248.5 C 139.536,248.36 145.536,248.693 151.5,249.5C 151.67,250.822 151.337,251.989 150.5,253C 147.964,253.186 145.631,253.686 143.5,254.5C 140.5,254.5 137.5,254.5 134.5,254.5C 134.167,252.5 133.833,250.5 133.5,248.5 Z"/></g>
<g><path style="opacity:0.999" fill="#0d0d0d" d="M 165.5,261.5 C 163.167,261.5 160.833,261.5 158.5,261.5C 158.815,257.629 158.482,253.962 157.5,250.5C 157.5,248.5 157.5,246.5 157.5,244.5C 166.533,244.284 175.533,244.617 184.5,245.5C 184.665,249.182 184.499,252.848 184,256.5C 183.535,257.931 182.701,259.097 181.5,260C 176.118,260.265 170.785,260.765 165.5,261.5 Z M 160.5,248.5 C 160.5,250.167 160.5,251.833 160.5,253.5C 165.511,253.666 170.511,253.499 175.5,253C 176.38,251.644 176.714,250.144 176.5,248.5C 171.167,248.5 165.833,248.5 160.5,248.5 Z"/></g>
<g><path style="opacity:0.341" fill="#a4a4a4" d="M 159.5,247.5 C 165.645,246.51 171.978,246.177 178.5,246.5C 178.802,249.059 178.468,251.393 177.5,253.5C 177.5,251.5 177.5,249.5 177.5,247.5C 171.5,247.5 165.5,247.5 159.5,247.5 Z"/></g>
<g><path style="opacity:0.107" fill="#e7e7e7" d="M 133.5,248.5 C 134.919,247.549 136.585,247.216 138.5,247.5C 143.167,247.5 147.833,247.5 152.5,247.5C 152.5,249.833 152.5,252.167 152.5,254.5C 149.5,254.5 146.5,254.5 143.5,254.5C 145.631,253.686 147.964,253.186 150.5,253C 151.337,251.989 151.67,250.822 151.5,249.5C 145.536,248.693 139.536,248.36 133.5,248.5 Z"/></g>
<g><path style="opacity:0.029" fill="#dadada" d="M 159.5,247.5 C 165.5,247.5 171.5,247.5 177.5,247.5C 177.5,249.5 177.5,251.5 177.5,253.5C 171.69,254.49 165.69,254.823 159.5,254.5C 159.5,252.167 159.5,249.833 159.5,247.5 Z M 160.5,248.5 C 160.5,250.167 160.5,251.833 160.5,253.5C 165.511,253.666 170.511,253.499 175.5,253C 176.38,251.644 176.714,250.144 176.5,248.5C 171.167,248.5 165.833,248.5 160.5,248.5 Z"/></g>
<g><path style="opacity:0.459" fill="#959595" d="M 138.5,247.5 C 136.585,247.216 134.919,247.549 133.5,248.5C 133.833,250.5 134.167,252.5 134.5,254.5C 137.5,254.5 140.5,254.5 143.5,254.5C 146.5,254.5 149.5,254.5 152.5,254.5C 145.998,255.383 139.332,256.049 132.5,256.5C 132.5,253.167 132.5,249.833 132.5,246.5C 134.735,246.205 136.735,246.539 138.5,247.5 Z"/></g>
<g><path style="opacity:1" fill="#4e4e4e" d="M 154.5,251.5 C 154.5,255.167 154.5,258.833 154.5,262.5C 153.167,262.5 151.833,262.5 150.5,262.5C 151.209,261.596 152.209,261.263 153.5,261.5C 153.187,257.958 153.521,254.625 154.5,251.5 Z"/></g>
<g><path style="opacity:1" fill="#a3a3a3" d="M 157.5,250.5 C 158.482,253.962 158.815,257.629 158.5,261.5C 160.833,261.5 163.167,261.5 165.5,261.5C 163.052,262.473 160.385,262.806 157.5,262.5C 157.5,258.5 157.5,254.5 157.5,250.5 Z"/></g>
<g><path style="opacity:0.649" fill="#6a6a6a" d="M 101.5,204.5 C 100.653,245.494 100.32,286.494 100.5,327.5C 99.3357,292.336 99.169,257.002 100,221.5C 100.173,215.652 100.673,209.985 101.5,204.5 Z"/></g>
<g><path style="opacity:1" fill="#0d0d0d" d="M 250.5,284.5 C 255.999,285 257.332,287.5 254.5,292C 248.158,292.592 246.824,290.092 250.5,284.5 Z"/></g>
<g><path style="opacity:1" fill="#8c8c8c" d="M 106.5,253.5 C 107.498,276.327 107.831,299.327 107.5,322.5C 120.167,322.5 132.833,322.5 145.5,322.5C 132.677,323.495 119.677,323.829 106.5,323.5C 106.5,300.167 106.5,276.833 106.5,253.5 Z"/></g>
<g><path style="opacity:1" fill="#bebebe" d="M 216.5,310.5 C 217.483,314.298 217.817,318.298 217.5,322.5C 231.5,322.5 245.5,322.5 259.5,322.5C 245.343,323.496 231.01,323.829 216.5,323.5C 216.5,319.167 216.5,314.833 216.5,310.5 Z"/></g>
<g><path style="opacity:0.249" fill="#a5a5a5" d="M 241.5,328.5 C 241.5,328.833 241.5,329.167 241.5,329.5C 232.603,329.603 223.936,329.936 215.5,330.5C 198.167,330.5 180.833,330.5 163.5,330.5C 189.331,329.502 215.331,328.836 241.5,328.5 Z"/></g>
<g><path style="opacity:0.006" fill="#d9d9d9" d="M 320.5,251.5 C 321.167,257.833 321.833,264.167 322.5,270.5C 323.439,288.825 323.605,307.159 323,325.5C 322.626,326.416 322.126,327.25 321.5,328C 308.121,329.899 294.621,330.733 281,330.5C 267.829,330.248 254.662,329.915 241.5,329.5C 241.5,329.167 241.5,328.833 241.5,328.5C 267.168,328.116 292.834,327.616 318.5,327C 319.333,326.167 320.167,325.333 321,324.5C 321.546,300.162 321.379,275.829 320.5,251.5 Z"/></g>
<g><path style="opacity:0.033" fill="#e8e8e8" d="M 125.5,201.5 C 117.833,202.167 110.167,202.833 102.5,203.5C 101.833,203.5 101.5,203.833 101.5,204.5C 100.673,209.985 100.173,215.652 100,221.5C 99.169,257.002 99.3357,292.336 100.5,327.5C 100.953,328.458 101.619,329.292 102.5,330C 122.831,330.5 143.164,330.667 163.5,330.5C 180.833,330.5 198.167,330.5 215.5,330.5C 177.341,332.073 139.008,332.573 100.5,332C 100,331.5 99.5,331 99,330.5C 97.2014,288.187 97.5348,245.854 100,203.5C 100.5,203 101,202.5 101.5,202C 109.493,201.5 117.493,201.334 125.5,201.5 Z"/></g>
</svg>
