<?xml version="1.0" encoding="UTF-8"?>
<!DOCTYPE svg PUBLIC "-//W3C//DTD SVG 1.1//EN" "http://www.w3.org/Graphics/SVG/1.1/DTD/svg11.dtd">
<svg xmlns="http://www.w3.org/2000/svg" version="1.1" width="241px" height="268px" style="shape-rendering:geometricPrecision; text-rendering:geometricPrecision; image-rendering:optimizeQuality; fill-rule:evenodd; clip-rule:evenodd" xmlns:xlink="http://www.w3.org/1999/xlink">
<g><path style="opacity:0.995" fill="#272623" d="M 94.5,67.5 C 110.955,66.8573 127.289,67.8573 143.5,70.5C 146.167,71.1667 148.833,71.8333 151.5,72.5C 156.941,74.8709 162.608,76.8709 168.5,78.5C 169.833,78.8333 171.167,79.1667 172.5,79.5C 172.973,80.9063 173.973,81.573 175.5,81.5C 175.973,82.9063 176.973,83.573 178.5,83.5C 178.842,84.3382 179.508,84.6716 180.5,84.5C 181.262,86.2624 182.596,87.2624 184.5,87.5C 185.5,88.8333 186.5,90.1667 187.5,91.5C 187.261,93.4672 187.594,95.3005 188.5,97C 194.406,97.1171 200.072,98.2838 205.5,100.5C 205.842,101.338 206.508,101.672 207.5,101.5C 209.167,103.833 211.167,105.833 213.5,107.5C 214.674,108.514 215.34,109.847 215.5,111.5C 217.21,117.011 217.877,122.677 217.5,128.5C 217.5,129.167 217.5,129.833 217.5,130.5C 216.076,132.515 215.41,134.848 215.5,137.5C 214.094,137.973 213.427,138.973 213.5,140.5C 212.35,141.85 211.683,141.684 211.5,140C 212.233,138.234 212.567,136.401 212.5,134.5C 213.038,132.883 213.371,131.216 213.5,129.5C 214.648,125.019 214.815,120.352 214,115.5C 213.392,113.934 212.558,112.6 211.5,111.5C 211.573,109.973 210.906,108.973 209.5,108.5C 208.5,107.833 207.5,107.167 206.5,106.5C 205.694,105.272 204.694,104.272 203.5,103.5C 202.653,102.034 201.32,101.2 199.5,101C 195.914,99.8924 192.247,99.3924 188.5,99.5C 187.095,97.6211 185.428,97.2878 183.5,98.5C 182.702,98.0431 182.369,97.3764 182.5,96.5C 182.784,94.5853 182.451,92.9187 181.5,91.5C 180.564,90.0256 179.23,89.0256 177.5,88.5C 176.965,86.5544 175.632,85.5544 173.5,85.5C 171.163,83.6036 168.496,82.2703 165.5,81.5C 163.605,79.7587 161.272,78.7587 158.5,78.5C 157.508,78.6716 156.842,78.3382 156.5,77.5C 154.485,76.0762 152.152,75.4095 149.5,75.5C 148.833,75.5 148.167,75.5 147.5,75.5C 145.485,74.0762 143.152,73.4095 140.5,73.5C 123.544,70.5226 106.544,69.8559 89.5,71.5C 83.2226,71.5792 77.2226,72.5792 71.5,74.5C 71.1667,74.5 70.8333,74.5 70.5,74.5C 64.0249,75.0968 58.3582,77.4301 53.5,81.5C 49.8998,83.4302 46.8998,86.0969 44.5,89.5C 43.9779,91.2191 42.9779,92.5525 41.5,93.5C 41.5,91.8333 41.5,90.1667 41.5,88.5C 41.5,88.1667 41.5,87.8333 41.5,87.5C 45.5259,83.8051 49.5259,80.1384 53.5,76.5C 54.1667,76.5 54.8333,76.5 55.5,76.5C 58.6489,76.5848 61.3155,75.5848 63.5,73.5C 65.403,73.2041 67.0697,72.5375 68.5,71.5C 71.3303,71.0372 73.997,70.3705 76.5,69.5C 82.4284,68.3425 88.4284,67.6758 94.5,67.5 Z"/></g>
<g><path style="opacity:0.005" fill="#f1f1f1" d="M 178.5,80.5 C 177.167,80.1667 175.833,79.8333 174.5,79.5C 172.898,77.9261 170.898,77.2594 168.5,77.5C 163.02,75.2292 157.353,73.5625 151.5,72.5C 148.833,71.8333 146.167,71.1667 143.5,70.5C 143.082,69.7784 142.416,69.2784 141.5,69C 125.749,66.4194 110.082,65.9194 94.5,67.5C 88.4284,67.6758 82.4284,68.3425 76.5,69.5C 72.8405,69.1588 69.5072,69.8255 66.5,71.5C 64.597,71.7959 62.9303,72.4625 61.5,73.5C 59.1815,73.9925 57.1815,74.9925 55.5,76.5C 54.8333,76.5 54.1667,76.5 53.5,76.5C 48.2227,78.7774 44.2227,82.4441 41.5,87.5C 41.5,87.8333 41.5,88.1667 41.5,88.5C 40.6618,88.8417 40.3284,89.5084 40.5,90.5C 39.3398,103.327 39.1731,116.327 40,129.5C 40.0085,141.053 40.8418,152.386 42.5,163.5C 42.19,166.713 42.5233,169.713 43.5,172.5C 43.5,173.167 43.8333,173.5 44.5,173.5C 44.3367,175.857 44.5034,178.19 45,180.5C 45.3826,181.056 45.8826,181.389 46.5,181.5C 46.3284,182.492 46.6618,183.158 47.5,183.5C 48.1667,186.167 49.8333,187.833 52.5,188.5C 53.2623,190.262 54.5956,191.262 56.5,191.5C 56.9731,192.906 57.9731,193.573 59.5,193.5C 60.1667,193.5 60.8333,193.5 61.5,193.5C 61.9731,194.906 62.9731,195.573 64.5,195.5C 65.5137,196.674 66.847,197.34 68.5,197.5C 73.4436,199.983 78.4436,202.317 83.5,204.5C 70.6742,202.419 59.0076,197.586 48.5,190C 43.1456,184.285 40.3123,177.451 40,169.5C 38.4064,143.517 37.7397,117.517 38,91.5C 40.248,83.5802 45.0813,77.7468 52.5,74C 70.8735,67.3266 89.8735,64.16 109.5,64.5C 130.937,64.3501 151.604,68.1834 171.5,76C 174.239,77.0259 176.572,78.5259 178.5,80.5 Z"/></g>
<g><path style="opacity:0.416" fill="#adadad" d="M 76.5,69.5 C 73.997,70.3705 71.3303,71.0372 68.5,71.5C 67.8333,71.5 67.1667,71.5 66.5,71.5C 69.5072,69.8255 72.8405,69.1588 76.5,69.5 Z"/></g>
<g><path style="opacity:0.153" fill="#b7b7b7" d="M 94.5,67.5 C 110.082,65.9194 125.749,66.4194 141.5,69C 142.416,69.2784 143.082,69.7784 143.5,70.5C 127.289,67.8573 110.955,66.8573 94.5,67.5 Z"/></g>
<g><path style="opacity:0.663" fill="#777777" d="M 66.5,71.5 C 67.1667,71.5 67.8333,71.5 68.5,71.5C 67.0697,72.5375 65.403,73.2041 63.5,73.5C 62.8333,73.5 62.1667,73.5 61.5,73.5C 62.9303,72.4625 64.597,71.7959 66.5,71.5 Z"/></g>
<g><path style="opacity:1" fill="#897f67" d="M 89.5,71.5 C 89.5,71.8333 89.5,72.1667 89.5,72.5C 83.5524,73.6022 77.5524,74.2688 71.5,74.5C 77.2226,72.5792 83.2226,71.5792 89.5,71.5 Z"/></g>
<g><path style="opacity:1" fill="#d2c49e" d="M 89.5,72.5 C 109.65,71.7947 129.65,73.128 149.5,76.5C 153.144,78.0772 156.644,80.0772 160,82.5C 161.079,85.0627 161.579,87.7294 161.5,90.5C 153.102,91.1352 145.102,89.6352 137.5,86C 116.151,80.8359 94.9844,81.3359 74,87.5C 72.3821,89.7833 70.2154,91.2833 67.5,92C 65.8588,93.129 64.8588,94.629 64.5,96.5C 62.9891,97.5025 61.3224,98.1692 59.5,98.5C 54.9924,95.7467 50.6591,92.7467 46.5,89.5C 48.8333,86.8333 51.1667,84.1667 53.5,81.5C 59.292,79.4362 64.9587,77.1029 70.5,74.5C 70.8333,74.5 71.1667,74.5 71.5,74.5C 77.5524,74.2688 83.5524,73.6022 89.5,72.5 Z"/></g>
<g><path style="opacity:1" fill="#a79c7e" d="M 140.5,73.5 C 142.515,74.9238 144.848,75.5905 147.5,75.5C 148.167,75.5 148.833,75.5 149.5,75.5C 149.5,75.8333 149.5,76.1667 149.5,76.5C 129.65,73.128 109.65,71.7947 89.5,72.5C 89.5,72.1667 89.5,71.8333 89.5,71.5C 106.544,69.8559 123.544,70.5226 140.5,73.5 Z"/></g>
<g><path style="opacity:0.482" fill="#636363" d="M 151.5,72.5 C 157.353,73.5625 163.02,75.2292 168.5,77.5C 168.5,77.8333 168.5,78.1667 168.5,78.5C 162.608,76.8709 156.941,74.8709 151.5,72.5 Z"/></g>
<g><path style="opacity:0.835" fill="#474747" d="M 61.5,73.5 C 62.1667,73.5 62.8333,73.5 63.5,73.5C 61.3155,75.5848 58.6489,76.5848 55.5,76.5C 57.1815,74.9925 59.1815,73.9925 61.5,73.5 Z"/></g>
<g><path style="opacity:1" fill="#756e59" d="M 140.5,73.5 C 143.152,73.4095 145.485,74.0762 147.5,75.5C 144.848,75.5905 142.515,74.9238 140.5,73.5 Z"/></g>
<g><path style="opacity:0.996" fill="#5b5544" d="M 149.5,76.5 C 149.5,76.1667 149.5,75.8333 149.5,75.5C 152.152,75.4095 154.485,76.0762 156.5,77.5C 154.139,77.3259 151.806,76.9926 149.5,76.5 Z"/></g>
<g><path style="opacity:0.11" fill="#c1c1c1" d="M 168.5,78.5 C 168.5,78.1667 168.5,77.8333 168.5,77.5C 170.898,77.2594 172.898,77.9261 174.5,79.5C 173.833,79.5 173.167,79.5 172.5,79.5C 171.167,79.1667 169.833,78.8333 168.5,78.5 Z"/></g>
<g><path style="opacity:1" fill="#857c64" d="M 70.5,74.5 C 64.9587,77.1029 59.292,79.4362 53.5,81.5C 58.3582,77.4301 64.0249,75.0968 70.5,74.5 Z"/></g>
<g><path style="opacity:1" fill="#736b56" d="M 158.5,78.5 C 161.272,78.7587 163.605,79.7587 165.5,81.5C 162.728,81.2413 160.395,80.2413 158.5,78.5 Z"/></g>
<g><path style="opacity:0.51" fill="#7a7a7a" d="M 172.5,79.5 C 173.167,79.5 173.833,79.5 174.5,79.5C 174.833,80.1667 175.167,80.8333 175.5,81.5C 173.973,81.573 172.973,80.9063 172.5,79.5 Z"/></g>
<g><path style="opacity:0.573" fill="#666666" d="M 175.5,81.5 C 177.027,81.427 178.027,82.0937 178.5,83.5C 176.973,83.573 175.973,82.9063 175.5,81.5 Z"/></g>
<g><path style="opacity:1" fill="#c0b189" d="M 149.5,76.5 C 151.806,76.9926 154.139,77.3259 156.5,77.5C 156.842,78.3382 157.508,78.6716 158.5,78.5C 160.395,80.2413 162.728,81.2413 165.5,81.5C 168.496,82.2703 171.163,83.6036 173.5,85.5C 174.048,87.5323 175.381,88.5323 177.5,88.5C 179.23,89.0256 180.564,90.0256 181.5,91.5C 179.402,95.4336 176.402,98.6003 172.5,101C 174.134,101.494 175.801,101.66 177.5,101.5C 177.167,102.167 176.833,102.833 176.5,103.5C 168.651,100.106 160.651,97.1057 152.5,94.5C 152.389,93.8826 152.056,93.3826 151.5,93C 137.239,89.47 122.906,88.3033 108.5,89.5C 93.4692,89.7743 78.8025,92.1076 64.5,96.5C 64.8588,94.629 65.8588,93.129 67.5,92C 70.2154,91.2833 72.3821,89.7833 74,87.5C 94.9844,81.3359 116.151,80.8359 137.5,86C 145.102,89.6352 153.102,91.1352 161.5,90.5C 161.579,87.7294 161.079,85.0627 160,82.5C 156.644,80.0772 153.144,78.0772 149.5,76.5 Z"/></g>
<g><path style="opacity:0.62" fill="#828282" d="M 53.5,76.5 C 49.5259,80.1384 45.5259,83.8051 41.5,87.5C 44.2227,82.4441 48.2227,78.7774 53.5,76.5 Z"/></g>
<g><path style="opacity:1" fill="#90866b" d="M 53.5,81.5 C 51.1667,84.1667 48.8333,86.8333 46.5,89.5C 45.596,90.209 45.2627,91.209 45.5,92.5C 44.596,91.791 44.2627,90.791 44.5,89.5C 46.8998,86.0969 49.8998,83.4302 53.5,81.5 Z"/></g>
<g><path style="opacity:0.325" fill="#858585" d="M 180.5,84.5 C 182.404,84.7376 183.738,85.7376 184.5,87.5C 182.596,87.2624 181.262,86.2624 180.5,84.5 Z"/></g>
<g><path style="opacity:1" fill="#867c62" d="M 173.5,85.5 C 175.632,85.5544 176.965,86.5544 177.5,88.5C 175.381,88.5323 174.048,87.5323 173.5,85.5 Z"/></g>
<g><path style="opacity:1" fill="#aa9a76" d="M 108.5,89.5 C 122.906,88.3033 137.239,89.47 151.5,93C 152.056,93.3826 152.389,93.8826 152.5,94.5C 150.708,94.634 149.042,94.3007 147.5,93.5C 143.057,92.1985 138.391,91.5319 133.5,91.5C 128.859,90.8734 124.193,90.5401 119.5,90.5C 116.038,89.5184 112.371,89.185 108.5,89.5 Z"/></g>
<g><path style="opacity:1" fill="#665041" d="M 108.5,89.5 C 112.371,89.185 116.038,89.5184 119.5,90.5C 115.154,90.3343 110.821,90.501 106.5,91C 110.356,91.1773 114.023,91.6773 117.5,92.5C 107.595,92.2437 98.4286,94.577 90,99.5C 88.0874,103.631 89.5874,105.798 94.5,106C 105.475,107.042 116.475,107.709 127.5,108C 124.911,109.197 122.244,110.197 119.5,111C 112.498,111.901 105.498,112.735 98.5,113.5C 85.348,112.536 72.6813,109.536 60.5,104.5C 58.6508,103.407 56.9842,102.074 55.5,100.5C 57.1993,100.473 58.5326,99.8062 59.5,98.5C 61.3224,98.1692 62.9891,97.5025 64.5,96.5C 78.8025,92.1076 93.4692,89.7743 108.5,89.5 Z"/></g>
<g><path style="opacity:1" fill="#4d392c" d="M 119.5,90.5 C 124.193,90.5401 128.859,90.8734 133.5,91.5C 135.042,92.1635 136.709,92.8302 138.5,93.5C 137.833,93.8333 137.167,94.1667 136.5,94.5C 130.201,93.5034 123.868,92.8368 117.5,92.5C 114.023,91.6773 110.356,91.1773 106.5,91C 110.821,90.501 115.154,90.3343 119.5,90.5 Z"/></g>
<g><path style="opacity:1" fill="#958a64" d="M 47.5,94.5 C 49.7488,95.0798 51.4154,96.4131 52.5,98.5C 50.2512,97.9202 48.5846,96.5869 47.5,94.5 Z"/></g>
<g><path style="opacity:1" fill="#c6b175" d="M 46.5,89.5 C 50.6591,92.7467 54.9924,95.7467 59.5,98.5C 58.5326,99.8062 57.1993,100.473 55.5,100.5C 55.0269,99.0937 54.0269,98.427 52.5,98.5C 51.4154,96.4131 49.7488,95.0798 47.5,94.5C 46.5,94.1667 45.8333,93.5 45.5,92.5C 45.2627,91.209 45.596,90.209 46.5,89.5 Z"/></g>
<g><path style="opacity:0.408" fill="#717171" d="M 187.5,91.5 C 188.234,92.8775 188.901,94.3775 189.5,96C 192.5,96.3333 195.5,96.6667 198.5,97C 201.281,97.5218 203.615,98.6885 205.5,100.5C 200.072,98.2838 194.406,97.1171 188.5,97C 187.594,95.3005 187.261,93.4672 187.5,91.5 Z"/></g>
<g><path style="opacity:1" fill="#c9b274" d="M 45.5,97.5 C 48.2985,100.637 51.6319,102.971 55.5,104.5C 55.9731,105.906 56.9731,106.573 58.5,106.5C 60.3684,107.263 62.0351,108.263 63.5,109.5C 61.396,109.799 59.396,109.466 57.5,108.5C 55.0234,106.666 52.3567,105.333 49.5,104.5C 51.3865,126.088 53.5531,147.754 56,169.5C 61.5061,178.847 68.3395,187.181 76.5,194.5C 75.8333,194.5 75.1667,194.5 74.5,194.5C 70.4775,192.266 66.1442,190.599 61.5,189.5C 60.5084,189.672 59.8417,189.338 59.5,188.5C 58.7377,186.738 57.4044,185.738 55.5,185.5C 55.0269,184.094 54.0269,183.427 52.5,183.5C 51.075,182.078 50.075,180.411 49.5,178.5C 48.8265,169.331 47.8265,160.331 46.5,151.5C 46.7845,149.585 46.4511,147.919 45.5,146.5C 45.5,144.5 45.5,142.5 45.5,140.5C 45.4599,135.807 45.1266,131.141 44.5,126.5C 44.4754,119.321 44.142,112.154 43.5,105C 43.5248,102.071 44.1914,99.5706 45.5,97.5 Z"/></g>
<g><path style="opacity:1" fill="#82795c" d="M 52.5,98.5 C 54.0269,98.427 55.0269,99.0937 55.5,100.5C 53.9731,100.573 52.9731,99.9063 52.5,98.5 Z"/></g>
<g><path style="opacity:1" fill="#c6b176" d="M 181.5,91.5 C 182.451,92.9187 182.784,94.5853 182.5,96.5C 181.061,98.3603 179.395,100.027 177.5,101.5C 175.801,101.66 174.134,101.494 172.5,101C 176.402,98.6003 179.402,95.4336 181.5,91.5 Z"/></g>
<g><path style="opacity:1" fill="#8b7d56" d="M 188.5,99.5 C 192.247,99.3924 195.914,99.8924 199.5,101C 201.32,101.2 202.653,102.034 203.5,103.5C 198.976,101.869 194.309,100.869 189.5,100.5C 189.5,101.5 189.5,102.5 189.5,103.5C 190.791,103.263 191.791,103.596 192.5,104.5C 191.167,104.5 189.833,104.5 188.5,104.5C 188.5,102.833 188.5,101.167 188.5,99.5 Z"/></g>
<g><path style="opacity:1" fill="#624b3c" d="M 133.5,91.5 C 138.391,91.5319 143.057,92.1985 147.5,93.5C 145.143,93.3367 142.81,93.5034 140.5,94C 140.833,94.3333 141.167,94.6667 141.5,95C 150.053,96.3449 158.22,98.8449 166,102.5C 167.009,104.025 167.509,105.692 167.5,107.5C 161.211,110.759 154.544,113.092 147.5,114.5C 131.851,115.569 116.185,115.735 100.5,115C 99.5842,114.722 98.9175,114.222 98.5,113.5C 105.498,112.735 112.498,111.901 119.5,111C 122.244,110.197 124.911,109.197 127.5,108C 116.475,107.709 105.475,107.042 94.5,106C 89.5874,105.798 88.0874,103.631 90,99.5C 98.4286,94.577 107.595,92.2437 117.5,92.5C 123.868,92.8368 130.201,93.5034 136.5,94.5C 137.167,94.1667 137.833,93.8333 138.5,93.5C 136.709,92.8302 135.042,92.1635 133.5,91.5 Z"/></g>
<g><path style="opacity:0.29" fill="#919191" d="M 207.5,101.5 C 210.5,102.5 212.5,104.5 213.5,107.5C 211.167,105.833 209.167,103.833 207.5,101.5 Z"/></g>
<g><path style="opacity:0.856" fill="#6e6857" d="M 41.5,88.5 C 41.5,90.1667 41.5,91.8333 41.5,93.5C 42.6252,94.9999 43.9586,96.3332 45.5,97.5C 44.1914,99.5706 43.5248,102.071 43.5,105C 44.142,112.154 44.4754,119.321 44.5,126.5C 43.6954,120.311 42.8621,113.977 42,107.5C 41.501,111.821 41.3343,116.154 41.5,120.5C 40.506,110.681 40.1726,100.681 40.5,90.5C 40.3284,89.5084 40.6618,88.8417 41.5,88.5 Z"/></g>
<g><path style="opacity:1" fill="#c3aa66" d="M 185.5,104.5 C 185.5,105.5 185.5,106.5 185.5,107.5C 184.722,115.723 183.722,124.056 182.5,132.5C 181.111,137.269 180.444,142.269 180.5,147.5C 180.034,153.491 179.701,159.491 179.5,165.5C 178.413,171.653 177.58,177.986 177,184.5C 176.34,186.324 175.173,187.657 173.5,188.5C 172.144,161.318 174.144,134.318 179.5,107.5C 181.594,105.441 183.428,103.107 185,100.5C 185.49,101.793 185.657,103.127 185.5,104.5 Z"/></g>
<g><path style="opacity:0.982" fill="#3b362a" d="M 44.5,89.5 C 44.2627,90.791 44.596,91.791 45.5,92.5C 45.8333,93.5 46.5,94.1667 47.5,94.5C 48.5846,96.5869 50.2512,97.9202 52.5,98.5C 52.9731,99.9063 53.9731,100.573 55.5,100.5C 56.9842,102.074 58.6508,103.407 60.5,104.5C 59.2617,104.81 59.2617,105.31 60.5,106C 63.1739,106.67 65.5073,107.837 67.5,109.5C 66.1667,109.5 64.8333,109.5 63.5,109.5C 62.0351,108.263 60.3684,107.263 58.5,106.5C 58.0269,105.094 57.0269,104.427 55.5,104.5C 51.6319,102.971 48.2985,100.637 45.5,97.5C 43.9586,96.3332 42.6252,94.9999 41.5,93.5C 42.9779,92.5525 43.9779,91.2191 44.5,89.5 Z"/></g>
<g><path style="opacity:1" fill="#48382a" d="M 147.5,93.5 C 149.042,94.3007 150.708,94.634 152.5,94.5C 160.651,97.1057 168.651,100.106 176.5,103.5C 172.232,106.309 167.898,109.143 163.5,112C 164.448,112.483 165.448,112.649 166.5,112.5C 163.5,113.833 160.5,115.167 157.5,116.5C 156.833,116.5 156.167,116.5 155.5,116.5C 154.167,116.5 152.833,116.5 151.5,116.5C 153.74,115.736 156.073,114.902 158.5,114C 154.852,113.938 151.185,114.105 147.5,114.5C 154.544,113.092 161.211,110.759 167.5,107.5C 167.509,105.692 167.009,104.025 166,102.5C 158.22,98.8449 150.053,96.3449 141.5,95C 141.167,94.6667 140.833,94.3333 140.5,94C 142.81,93.5034 145.143,93.3367 147.5,93.5 Z"/></g>
<g><path style="opacity:1" fill="#90825a" d="M 185.5,104.5 C 185.657,103.127 185.49,101.793 185,100.5C 183.428,103.107 181.594,105.441 179.5,107.5C 172.625,111.679 165.291,114.679 157.5,116.5C 160.5,115.167 163.5,113.833 166.5,112.5C 170.981,109.758 175.647,107.258 180.5,105C 181.337,103.989 181.67,102.822 181.5,101.5C 182.82,100.058 184.486,99.3915 186.5,99.5C 186.784,101.415 186.451,103.081 185.5,104.5 Z"/></g>
<g><path style="opacity:1" fill="#817656" d="M 55.5,104.5 C 57.0269,104.427 58.0269,105.094 58.5,106.5C 56.9731,106.573 55.9731,105.906 55.5,104.5 Z"/></g>
<g><path style="opacity:1" fill="#dfcb97" d="M 63.5,109.5 C 64.8333,109.5 66.1667,109.5 67.5,109.5C 70.318,111.072 73.318,112.406 76.5,113.5C 80.4997,115.772 84.833,117.605 89.5,119C 96.2283,120.454 102.895,122.121 109.5,124C 112.817,127.275 116.817,129.108 121.5,129.5C 121.33,130.822 121.663,131.989 122.5,133C 120.563,133.122 119.23,133.955 118.5,135.5C 117.053,136.134 116.387,137.301 116.5,139C 116.528,140.07 116.861,140.903 117.5,141.5C 117.427,143.027 118.094,144.027 119.5,144.5C 120.828,148.254 123.494,149.421 127.5,148C 128.305,146.887 128.972,145.721 129.5,144.5C 130.794,146.048 131.461,148.048 131.5,150.5C 131.276,153.855 130.943,157.188 130.5,160.5C 129.209,160.263 128.209,160.596 127.5,161.5C 126.448,161.351 125.448,161.517 124.5,162C 123.837,163.518 122.837,164.685 121.5,165.5C 120.857,163.924 119.857,162.59 118.5,161.5C 117.585,159.246 116.252,157.246 114.5,155.5C 113.759,152.587 113.259,149.587 113,146.5C 110.888,140.891 107.055,139.224 101.5,141.5C 100.5,143.167 99.1667,144.5 97.5,145.5C 96.3652,147.707 95.6985,150.04 95.5,152.5C 92.8333,152.5 90.1667,152.5 87.5,152.5C 86.361,149.566 84.6943,146.9 82.5,144.5C 82.4894,142.983 81.8228,141.816 80.5,141C 76.9733,140.192 73.6399,140.359 70.5,141.5C 69.8439,146.186 69.5106,150.852 69.5,155.5C 67.6729,161.037 68.6729,166.037 72.5,170.5C 72.8333,170.5 73.1667,170.5 73.5,170.5C 75.6102,174.884 78.9435,177.884 83.5,179.5C 85.0897,181.821 87.4231,182.821 90.5,182.5C 95.5,182.5 100.5,182.5 105.5,182.5C 108.577,182.821 110.91,181.821 112.5,179.5C 116.76,178.861 119.76,176.528 121.5,172.5C 122.417,173.127 123.417,173.461 124.5,173.5C 125.785,179.473 123.785,184.306 118.5,188C 110.549,190.392 102.882,193.225 95.5,196.5C 89.7119,196.688 84.0452,196.022 78.5,194.5C 77.8333,194.5 77.1667,194.5 76.5,194.5C 68.3395,187.181 61.5061,178.847 56,169.5C 53.5531,147.754 51.3865,126.088 49.5,104.5C 52.3567,105.333 55.0234,106.666 57.5,108.5C 59.396,109.466 61.396,109.799 63.5,109.5 Z"/></g>
<g><path style="opacity:1" fill="#7d7152" d="M 195.5,106.5 C 195.5,106.167 195.5,105.833 195.5,105.5C 197.027,105.427 198.027,106.094 198.5,107.5C 197.391,107.443 196.391,107.11 195.5,106.5 Z"/></g>
<g><path style="opacity:0.971" fill="#1e1c17" d="M 181.5,101.5 C 181.67,102.822 181.337,103.989 180.5,105C 175.647,107.258 170.981,109.758 166.5,112.5C 165.448,112.649 164.448,112.483 163.5,112C 167.898,109.143 172.232,106.309 176.5,103.5C 178.371,103.141 179.871,102.141 181,100.5C 181.399,100.728 181.565,101.062 181.5,101.5 Z"/></g>
<g><path style="opacity:1" fill="#ccb373" d="M 179.5,107.5 C 174.144,134.318 172.144,161.318 173.5,188.5C 172.167,189.833 170.833,191.167 169.5,192.5C 164.403,193.977 159.403,195.643 154.5,197.5C 152.435,197.517 150.435,197.85 148.5,198.5C 137.513,199.166 126.513,199.499 115.5,199.5C 124.014,197.415 132.014,193.915 139.5,189C 141.833,186 144.167,183 146.5,180C 145.906,179.536 145.239,179.369 144.5,179.5C 144.833,178.833 145.167,178.167 145.5,177.5C 148.916,173.677 151.582,169.343 153.5,164.5C 153.5,162.833 153.5,161.167 153.5,159.5C 154.183,157.824 155.517,157.157 157.5,157.5C 157.5,158.833 157.5,160.167 157.5,161.5C 158.959,161.433 160.292,161.766 161.5,162.5C 166.394,165.788 168.227,164.454 167,158.5C 166.283,157.956 165.783,157.289 165.5,156.5C 164.081,155.549 162.415,155.216 160.5,155.5C 160.737,154.209 160.404,153.209 159.5,152.5C 157.5,151.167 155.5,151.167 153.5,152.5C 153.336,149.813 153.503,147.146 154,144.5C 158.169,141.06 158.669,137.06 155.5,132.5C 152.909,129.534 149.909,127.034 146.5,125C 141.5,124.667 136.5,124.333 131.5,124C 128.848,123.647 126.848,122.48 125.5,120.5C 130.363,120.819 135.03,120.486 139.5,119.5C 139.833,119.5 140.167,119.5 140.5,119.5C 145.874,119.664 150.874,118.664 155.5,116.5C 156.167,116.5 156.833,116.5 157.5,116.5C 165.291,114.679 172.625,111.679 179.5,107.5 Z"/></g>
<g><path style="opacity:0.178" fill="#b0b0b0" d="M 191.5,107.5 C 192.71,107.932 193.71,108.599 194.5,109.5C 194.833,110.167 195.167,110.833 195.5,111.5C 194.2,110.892 192.867,110.225 191.5,109.5C 190.833,109.833 190.167,110.167 189.5,110.5C 188.874,116.298 188.207,121.964 187.5,127.5C 187.5,125.833 187.5,124.167 187.5,122.5C 187.334,117.821 187.501,113.155 188,108.5C 189.011,107.663 190.178,107.33 191.5,107.5 Z"/></g>
<g><path style="opacity:0.714" fill="#6e6e6e" d="M 194.5,109.5 C 197.5,110.5 199.5,112.5 200.5,115.5C 200.5,116.167 200.5,116.833 200.5,117.5C 199.615,114.94 197.949,112.94 195.5,111.5C 195.167,110.833 194.833,110.167 194.5,109.5 Z"/></g>
<g><path style="opacity:0.984" fill="#1b1a17" d="M 195.5,106.5 C 196.391,107.11 197.391,107.443 198.5,107.5C 199.5,109.167 200.833,110.5 202.5,111.5C 202.66,113.199 202.494,114.866 202,116.5C 201.617,115.944 201.117,115.611 200.5,115.5C 199.5,112.5 197.5,110.5 194.5,109.5C 193.71,108.599 192.71,107.932 191.5,107.5C 190.391,106.71 189.058,106.21 187.5,106C 190.221,105.398 192.887,105.565 195.5,106.5 Z"/></g>
<g><path style="opacity:1" fill="#9e8e5f" d="M 198.5,107.5 C 203.569,109.281 205.902,112.948 205.5,118.5C 204.349,116.221 203.349,113.888 202.5,111.5C 200.833,110.5 199.5,109.167 198.5,107.5 Z"/></g>
<g><path style="opacity:1" fill="#5d5540" d="M 209.5,108.5 C 210.906,108.973 211.573,109.973 211.5,111.5C 210.094,111.027 209.427,110.027 209.5,108.5 Z"/></g>
<g><path style="opacity:0.98" fill="#58503b" d="M 67.5,109.5 C 72.8541,110.356 77.8541,112.023 82.5,114.5C 80.4352,114.483 78.4352,114.15 76.5,113.5C 73.318,112.406 70.318,111.072 67.5,109.5 Z"/></g>
<g><path style="opacity:1" fill="#c5ae6f" d="M 203.5,103.5 C 204.694,104.272 205.694,105.272 206.5,106.5C 206.575,109.407 207.409,112.073 209,114.5C 209.667,121.5 209.667,128.5 209,135.5C 206.531,139.091 205.031,143.091 204.5,147.5C 203.4,148.605 202.733,149.938 202.5,151.5C 197.83,156.499 192.163,159.832 185.5,161.5C 185.5,159.167 185.5,156.833 185.5,154.5C 189.143,151.865 192.81,149.199 196.5,146.5C 198.587,145.415 199.92,143.749 200.5,141.5C 201.471,139.517 202.471,137.517 203.5,135.5C 204.966,134.653 205.8,133.32 206,131.5C 206.814,126.98 206.647,122.646 205.5,118.5C 205.902,112.948 203.569,109.281 198.5,107.5C 198.027,106.094 197.027,105.427 195.5,105.5C 194.609,104.89 193.609,104.557 192.5,104.5C 191.791,103.596 190.791,103.263 189.5,103.5C 189.5,102.5 189.5,101.5 189.5,100.5C 194.309,100.869 198.976,101.869 203.5,103.5 Z"/></g>
<g><path style="opacity:0.969" fill="#24211c" d="M 60.5,104.5 C 72.6813,109.536 85.348,112.536 98.5,113.5C 98.9175,114.222 99.5842,114.722 100.5,115C 116.185,115.735 131.851,115.569 147.5,114.5C 151.185,114.105 154.852,113.938 158.5,114C 156.073,114.902 153.74,115.736 151.5,116.5C 138.555,118.081 125.555,118.748 112.5,118.5C 110.5,118.5 108.5,118.5 106.5,118.5C 98.7115,116.688 90.7115,115.354 82.5,114.5C 77.8541,112.023 72.8541,110.356 67.5,109.5C 65.5073,107.837 63.1739,106.67 60.5,106C 59.2617,105.31 59.2617,104.81 60.5,104.5 Z"/></g>
<g><path style="opacity:0.711" fill="#524e42" d="M 182.5,96.5 C 182.369,97.3764 182.702,98.0431 183.5,98.5C 185.428,97.2878 187.095,97.6211 188.5,99.5C 188.5,101.167 188.5,102.833 188.5,104.5C 189.833,104.5 191.167,104.5 192.5,104.5C 193.609,104.557 194.609,104.89 195.5,105.5C 195.5,105.833 195.5,106.167 195.5,106.5C 192.887,105.565 190.221,105.398 187.5,106C 189.058,106.21 190.391,106.71 191.5,107.5C 190.178,107.33 189.011,107.663 188,108.5C 187.501,113.155 187.334,117.821 187.5,122.5C 187.167,122.5 186.833,122.5 186.5,122.5C 186.813,118.958 186.479,115.625 185.5,112.5C 185.5,110.833 185.5,109.167 185.5,107.5C 185.5,106.5 185.5,105.5 185.5,104.5C 186.451,103.081 186.784,101.415 186.5,99.5C 184.486,99.3915 182.82,100.058 181.5,101.5C 181.565,101.062 181.399,100.728 181,100.5C 179.871,102.141 178.371,103.141 176.5,103.5C 176.833,102.833 177.167,102.167 177.5,101.5C 179.395,100.027 181.061,98.3603 182.5,96.5 Z"/></g>
<g><path style="opacity:0.996" fill="#756b4e" d="M 82.5,114.5 C 90.7115,115.354 98.7115,116.688 106.5,118.5C 105.833,118.5 105.167,118.5 104.5,118.5C 96.8502,118.174 89.5168,116.841 82.5,114.5 Z"/></g>
<g><path style="opacity:1" fill="#ab9a6a" d="M 151.5,116.5 C 152.833,116.5 154.167,116.5 155.5,116.5C 150.874,118.664 145.874,119.664 140.5,119.5C 144.142,118.393 147.809,117.393 151.5,116.5 Z"/></g>
<g><path style="opacity:0.996" fill="#695f47" d="M 151.5,116.5 C 147.809,117.393 144.142,118.393 140.5,119.5C 140.167,119.5 139.833,119.5 139.5,119.5C 130.318,119.827 121.318,119.493 112.5,118.5C 125.555,118.748 138.555,118.081 151.5,116.5 Z"/></g>
<g><path style="opacity:1" fill="#ab9a6b" d="M 104.5,118.5 C 105.167,118.5 105.833,118.5 106.5,118.5C 108.5,118.5 110.5,118.5 112.5,118.5C 121.318,119.493 130.318,119.827 139.5,119.5C 135.03,120.486 130.363,120.819 125.5,120.5C 118.262,120.82 111.262,120.153 104.5,118.5 Z"/></g>
<g><path style="opacity:1" fill="#ceb880" d="M 76.5,113.5 C 78.4352,114.15 80.4352,114.483 82.5,114.5C 89.5168,116.841 96.8502,118.174 104.5,118.5C 111.262,120.153 118.262,120.82 125.5,120.5C 126.848,122.48 128.848,123.647 131.5,124C 136.5,124.333 141.5,124.667 146.5,125C 149.909,127.034 152.909,129.534 155.5,132.5C 158.669,137.06 158.169,141.06 154,144.5C 153.503,147.146 153.336,149.813 153.5,152.5C 153.5,153.167 153.167,153.5 152.5,153.5C 150.787,154.635 150.12,156.302 150.5,158.5C 144.516,157.668 138.516,157.501 132.5,158C 131.663,159.011 131.33,160.178 131.5,161.5C 130.167,161.5 128.833,161.5 127.5,161.5C 128.209,160.596 129.209,160.263 130.5,160.5C 130.943,157.188 131.276,153.855 131.5,150.5C 131.461,148.048 130.794,146.048 129.5,144.5C 129.5,144.167 129.5,143.833 129.5,143.5C 130.672,141.156 130.672,138.823 129.5,136.5C 128.042,135.218 126.708,135.218 125.5,136.5C 123.194,136.007 120.861,135.674 118.5,135.5C 119.23,133.955 120.563,133.122 122.5,133C 121.663,131.989 121.33,130.822 121.5,129.5C 116.817,129.108 112.817,127.275 109.5,124C 102.895,122.121 96.2283,120.454 89.5,119C 84.833,117.605 80.4997,115.772 76.5,113.5 Z"/></g>
<g><path style="opacity:0.5" fill="#909090" d="M 215.5,111.5 C 216.79,112.058 217.623,113.058 218,114.5C 218.815,119.352 218.648,124.019 217.5,128.5C 217.877,122.677 217.21,117.011 215.5,111.5 Z"/></g>
<g><path style="opacity:0.105" fill="#c9c9c9" d="M 40.5,90.5 C 40.1726,100.681 40.506,110.681 41.5,120.5C 41.7465,134.836 42.0798,149.169 42.5,163.5C 40.8418,152.386 40.0085,141.053 40,129.5C 39.1731,116.327 39.3398,103.327 40.5,90.5 Z"/></g>
<g><path style="opacity:1" fill="#6d634a" d="M 211.5,111.5 C 212.558,112.6 213.392,113.934 214,115.5C 214.815,120.352 214.648,125.019 213.5,129.5C 213.822,123.346 213.155,117.346 211.5,111.5 Z"/></g>
<g><path style="opacity:0.949" fill="#5b533e" d="M 185.5,107.5 C 185.5,109.167 185.5,110.833 185.5,112.5C 185.67,121.109 184.67,129.442 182.5,137.5C 182.5,135.833 182.5,134.167 182.5,132.5C 183.722,124.056 184.722,115.723 185.5,107.5 Z"/></g>
<g><path style="opacity:1" fill="#cbb681" d="M 206.5,106.5 C 207.5,107.167 208.5,107.833 209.5,108.5C 209.427,110.027 210.094,111.027 211.5,111.5C 213.155,117.346 213.822,123.346 213.5,129.5C 213.371,131.216 213.038,132.883 212.5,134.5C 211.037,138.208 209.37,141.874 207.5,145.5C 206.5,146.167 205.5,146.833 204.5,147.5C 205.031,143.091 206.531,139.091 209,135.5C 209.667,128.5 209.667,121.5 209,114.5C 207.409,112.073 206.575,109.407 206.5,106.5 Z"/></g>
<g><path style="opacity:0.832" fill="#4f4d49" d="M 44.5,126.5 C 45.1266,131.141 45.4599,135.807 45.5,140.5C 44.6981,139.048 44.1981,137.382 44,135.5C 43.5003,143.827 43.3336,152.16 43.5,160.5C 43.5,164.5 43.5,168.5 43.5,172.5C 42.5233,169.713 42.19,166.713 42.5,163.5C 42.0798,149.169 41.7465,134.836 41.5,120.5C 41.3343,116.154 41.501,111.821 42,107.5C 42.8621,113.977 43.6954,120.311 44.5,126.5 Z"/></g>
<g><path style="opacity:1" fill="#93845a" d="M 205.5,118.5 C 206.647,122.646 206.814,126.98 206,131.5C 205.8,133.32 204.966,134.653 203.5,135.5C 205.21,129.989 205.877,124.323 205.5,118.5 Z"/></g>
<g><path style="opacity:0.922" fill="#2e2c26" d="M 202.5,111.5 C 203.349,113.888 204.349,116.221 205.5,118.5C 205.877,124.323 205.21,129.989 203.5,135.5C 202.471,137.517 201.471,139.517 200.5,141.5C 198.413,142.585 197.08,144.251 196.5,146.5C 192.81,149.199 189.143,151.865 185.5,154.5C 185.167,154.5 184.833,154.5 184.5,154.5C 184.666,149.821 184.499,145.155 184,140.5C 183.802,142.382 183.302,144.048 182.5,145.5C 182.5,143.833 182.5,142.167 182.5,140.5C 182.5,139.5 182.5,138.5 182.5,137.5C 184.67,129.442 185.67,121.109 185.5,112.5C 186.479,115.625 186.813,118.958 186.5,122.5C 186.167,127.833 185.833,133.167 185.5,138.5C 185.5,142.167 185.5,145.833 185.5,149.5C 186.5,149.5 187.5,149.5 188.5,149.5C 192.167,147.833 194.833,145.167 196.5,141.5C 198.104,140.713 198.771,139.38 198.5,137.5C 202.148,132.498 203.315,126.831 202,120.5C 201.768,119.263 201.268,118.263 200.5,117.5C 200.5,116.833 200.5,116.167 200.5,115.5C 201.117,115.611 201.617,115.944 202,116.5C 202.494,114.866 202.66,113.199 202.5,111.5 Z"/></g>
<g><path style="opacity:0.494" fill="#7f7f7f" d="M 200.5,117.5 C 201.268,118.263 201.768,119.263 202,120.5C 203.315,126.831 202.148,132.498 198.5,137.5C 201.471,131.064 202.138,124.398 200.5,117.5 Z"/></g>
<g><path style="opacity:0.322" fill="#8e8e8e" d="M 217.5,130.5 C 217.59,133.152 216.924,135.485 215.5,137.5C 215.41,134.848 216.076,132.515 217.5,130.5 Z"/></g>
<g><path style="opacity:1" fill="#6e5a43" d="M 118.5,135.5 C 120.861,135.674 123.194,136.007 125.5,136.5C 126.209,137.404 127.209,137.737 128.5,137.5C 128.768,139.099 128.434,140.432 127.5,141.5C 127.351,137.877 126.184,137.543 124,140.5C 123.05,139.978 122.216,139.311 121.5,138.5C 120.702,138.957 120.369,139.624 120.5,140.5C 119.81,139.12 119.476,137.786 119.5,136.5C 117.783,137.668 117.116,139.335 117.5,141.5C 116.861,140.903 116.528,140.07 116.5,139C 116.387,137.301 117.053,136.134 118.5,135.5 Z"/></g>
<g><path style="opacity:0.537" fill="#727272" d="M 186.5,122.5 C 186.833,122.5 187.167,122.5 187.5,122.5C 187.5,124.167 187.5,125.833 187.5,127.5C 187.5,128.833 187.5,130.167 187.5,131.5C 186.833,133.833 186.167,136.167 185.5,138.5C 185.833,133.167 186.167,127.833 186.5,122.5 Z"/></g>
<g><path style="opacity:1" fill="#473225" d="M 129.5,143.5 C 126.672,148.37 123.338,148.703 119.5,144.5C 119.573,142.973 118.906,141.973 117.5,141.5C 117.116,139.335 117.783,137.668 119.5,136.5C 119.476,137.786 119.81,139.12 120.5,140.5C 122.384,144.017 124.717,144.351 127.5,141.5C 128.434,140.432 128.768,139.099 128.5,137.5C 127.209,137.737 126.209,137.404 125.5,136.5C 126.708,135.218 128.042,135.218 129.5,136.5C 130.672,138.823 130.672,141.156 129.5,143.5 Z"/></g>
<g><path style="opacity:0.486" fill="#838383" d="M 215.5,137.5 C 215.573,139.027 214.906,140.027 213.5,140.5C 213.427,138.973 214.094,137.973 215.5,137.5 Z"/></g>
<g><path style="opacity:1" fill="#9f8b67" d="M 70.5,141.5 C 73.6399,140.359 76.9733,140.192 80.5,141C 81.8228,141.816 82.4894,142.983 82.5,144.5C 79.0725,141.769 75.0725,140.769 70.5,141.5 Z"/></g>
<g><path style="opacity:0.588" fill="#7c7c7c" d="M 198.5,137.5 C 198.771,139.38 198.104,140.713 196.5,141.5C 196.66,139.847 197.326,138.514 198.5,137.5 Z"/></g>
<g><path style="opacity:1" fill="#b29d75" d="M 127.5,141.5 C 124.717,144.351 122.384,144.017 120.5,140.5C 120.369,139.624 120.702,138.957 121.5,138.5C 122.216,139.311 123.05,139.978 124,140.5C 126.184,137.543 127.351,137.877 127.5,141.5 Z"/></g>
<g><path style="opacity:1" fill="#94805f" d="M 117.5,141.5 C 118.906,141.973 119.573,142.973 119.5,144.5C 118.094,144.027 117.427,143.027 117.5,141.5 Z"/></g>
<g><path style="opacity:0.014" fill="#ededed" d="M 195.5,111.5 C 197.949,112.94 199.615,114.94 200.5,117.5C 202.138,124.398 201.471,131.064 198.5,137.5C 197.326,138.514 196.66,139.847 196.5,141.5C 194.167,143.5 191.833,145.5 189.5,147.5C 188.5,147.5 187.5,147.5 186.5,147.5C 186.98,142.178 187.313,136.845 187.5,131.5C 187.5,130.167 187.5,128.833 187.5,127.5C 188.207,121.964 188.874,116.298 189.5,110.5C 190.167,110.167 190.833,109.833 191.5,109.5C 192.867,110.225 194.2,110.892 195.5,111.5 Z M 189.5,143.5 C 189.672,132.673 190.505,122.006 192,111.5C 200.082,119.667 201.082,128.667 195,138.5C 193.25,140.424 191.417,142.091 189.5,143.5 Z"/></g>
<g><path style="opacity:1" fill="#7e724e" d="M 200.5,141.5 C 199.92,143.749 198.587,145.415 196.5,146.5C 197.08,144.251 198.413,142.585 200.5,141.5 Z"/></g>
<g><path style="opacity:0.929" fill="#434038" d="M 212.5,134.5 C 212.567,136.401 212.233,138.234 211.5,140C 211.683,141.684 212.35,141.85 213.5,140.5C 212.833,141.833 212.167,143.167 211.5,144.5C 210.094,144.973 209.427,145.973 209.5,147.5C 207.413,148.585 206.08,150.251 205.5,152.5C 204.833,152.833 204.167,153.167 203.5,153.5C 202.662,153.158 202.328,152.492 202.5,151.5C 204.914,150.089 206.581,148.089 207.5,145.5C 209.37,141.874 211.037,138.208 212.5,134.5 Z"/></g>
<g><path style="opacity:0.314" fill="#a9a9a9" d="M 187.5,131.5 C 187.313,136.845 186.98,142.178 186.5,147.5C 187.5,147.5 188.5,147.5 189.5,147.5C 189.167,148.167 188.833,148.833 188.5,149.5C 187.5,149.5 186.5,149.5 185.5,149.5C 185.5,145.833 185.5,142.167 185.5,138.5C 186.167,136.167 186.833,133.833 187.5,131.5 Z"/></g>
<g><path style="opacity:0.722" fill="#575757" d="M 196.5,141.5 C 194.833,145.167 192.167,147.833 188.5,149.5C 188.833,148.833 189.167,148.167 189.5,147.5C 191.833,145.5 194.167,143.5 196.5,141.5 Z"/></g>
<g><path style="opacity:0.912" fill="#24221e" d="M 45.5,140.5 C 45.5,142.5 45.5,144.5 45.5,146.5C 45.6664,155.173 45.4998,163.84 45,172.5C 44.8238,168.312 44.3238,164.312 43.5,160.5C 43.3336,152.16 43.5003,143.827 44,135.5C 44.1981,137.382 44.6981,139.048 45.5,140.5 Z"/></g>
<g><path style="opacity:1" fill="#b39e76" d="M 84.5,155.5 C 75.1418,154.156 71.8085,158.156 74.5,167.5C 73.8826,167.389 73.3826,167.056 73,166.5C 72.5639,164.153 72.0639,161.819 71.5,159.5C 72.1859,157.653 73.1859,155.986 74.5,154.5C 72.9741,151.346 72.3075,148.013 72.5,144.5C 74.8568,144.337 77.1902,144.503 79.5,145C 82.6525,147.805 84.3192,151.305 84.5,155.5 Z"/></g>
<g><path style="opacity:0.996" fill="#93845a" d="M 182.5,132.5 C 182.5,134.167 182.5,135.833 182.5,137.5C 182.5,138.5 182.5,139.5 182.5,140.5C 181.833,142.833 181.167,145.167 180.5,147.5C 180.444,142.269 181.111,137.269 182.5,132.5 Z"/></g>
<g><path style="opacity:0.388" fill="#909090" d="M 211.5,144.5 C 211.573,146.027 210.906,147.027 209.5,147.5C 209.427,145.973 210.094,144.973 211.5,144.5 Z"/></g>
<g><path style="opacity:1" fill="#ae9a72" d="M 129.5,143.5 C 129.5,143.833 129.5,144.167 129.5,144.5C 128.972,145.721 128.305,146.887 127.5,148C 123.494,149.421 120.828,148.254 119.5,144.5C 123.338,148.703 126.672,148.37 129.5,143.5 Z"/></g>
<g><path style="opacity:0.988" fill="#746a4f" d="M 207.5,145.5 C 206.581,148.089 204.914,150.089 202.5,151.5C 202.733,149.938 203.4,148.605 204.5,147.5C 205.5,146.833 206.5,146.167 207.5,145.5 Z"/></g>
<g><path style="opacity:0.318" fill="#999999" d="M 209.5,147.5 C 208.92,149.749 207.587,151.415 205.5,152.5C 206.08,150.251 207.413,148.585 209.5,147.5 Z"/></g>
<g><path style="opacity:1" fill="#cdb98a" d="M 114.5,155.5 C 113.5,155.5 112.5,155.5 111.5,155.5C 111.665,152.482 111.498,149.482 111,146.5C 110.583,145.244 109.75,144.577 108.5,144.5C 106.989,142.559 104.989,142.059 102.5,143C 98.5601,145.379 96.5601,148.879 96.5,153.5C 93.2869,153.81 90.2869,153.477 87.5,152.5C 90.1667,152.5 92.8333,152.5 95.5,152.5C 95.6985,150.04 96.3652,147.707 97.5,145.5C 99.1667,144.5 100.5,143.167 101.5,141.5C 107.055,139.224 110.888,140.891 113,146.5C 113.259,149.587 113.759,152.587 114.5,155.5 Z"/></g>
<g><path style="opacity:1" fill="#bda97e" d="M 107.5,145.5 C 107.483,150.015 105.817,150.682 102.5,147.5C 103.635,145.787 105.302,145.12 107.5,145.5 Z"/></g>
<g><path style="opacity:1" fill="#8e795b" d="M 108.5,144.5 C 109.75,144.577 110.583,145.244 111,146.5C 111.498,149.482 111.665,152.482 111.5,155.5C 112.5,155.5 113.5,155.5 114.5,155.5C 116.252,157.246 117.585,159.246 118.5,161.5C 116.07,159.055 113.404,157.055 110.5,155.5C 110.663,153.143 110.497,150.81 110,148.5C 108.857,151.777 108.023,155.11 107.5,158.5C 106.221,157.032 104.554,156.365 102.5,156.5C 101.791,155.596 100.791,155.263 99.5,155.5C 99.3072,152.189 100.307,149.522 102.5,147.5C 105.817,150.682 107.483,150.015 107.5,145.5C 108.167,145.5 108.5,145.167 108.5,144.5 Z"/></g>
<g><path style="opacity:1" fill="#523c27" d="M 159.5,152.5 C 159.5,153.5 159.5,154.5 159.5,155.5C 157.409,155.318 155.409,155.652 153.5,156.5C 152.614,155.675 152.281,154.675 152.5,153.5C 153.167,153.5 153.5,153.167 153.5,152.5C 155.5,151.167 157.5,151.167 159.5,152.5 Z"/></g>
<g><path style="opacity:0.008" fill="#e9e9e9" d="M 174.5,79.5 C 175.833,79.8333 177.167,80.1667 178.5,80.5C 184.602,82.934 188.602,87.2674 190.5,93.5C 207.58,94.081 217.746,102.748 221,119.5C 219.957,142.231 208.957,158.231 188,167.5C 186.813,174.844 185.479,182.177 184,189.5C 180.191,195.822 174.691,199.822 167.5,201.5C 163.833,202.167 160.167,202.833 156.5,203.5C 157.5,202.833 158.5,202.167 159.5,201.5C 161.403,201.204 163.07,200.537 164.5,199.5C 166.403,199.204 168.07,198.537 169.5,197.5C 171.848,197.408 173.514,196.408 174.5,194.5C 178.537,193.796 180.87,191.463 181.5,187.5C 183.243,180.297 183.909,172.964 183.5,165.5C 191.137,163.019 197.804,159.019 203.5,153.5C 204.167,153.167 204.833,152.833 205.5,152.5C 207.587,151.415 208.92,149.749 209.5,147.5C 210.906,147.027 211.573,146.027 211.5,144.5C 212.167,143.167 212.833,141.833 213.5,140.5C 214.906,140.027 215.573,139.027 215.5,137.5C 216.924,135.485 217.59,133.152 217.5,130.5C 217.5,129.833 217.5,129.167 217.5,128.5C 218.648,124.019 218.815,119.352 218,114.5C 217.623,113.058 216.79,112.058 215.5,111.5C 215.34,109.847 214.674,108.514 213.5,107.5C 212.5,104.5 210.5,102.5 207.5,101.5C 206.508,101.672 205.842,101.338 205.5,100.5C 203.615,98.6885 201.281,97.5218 198.5,97C 195.5,96.6667 192.5,96.3333 189.5,96C 188.901,94.3775 188.234,92.8775 187.5,91.5C 186.5,90.1667 185.5,88.8333 184.5,87.5C 183.738,85.7376 182.404,84.7376 180.5,84.5C 179.508,84.6716 178.842,84.3382 178.5,83.5C 178.027,82.0937 177.027,81.427 175.5,81.5C 175.167,80.8333 174.833,80.1667 174.5,79.5 Z"/></g>
<g><path style="opacity:1" fill="#614c38" d="M 70.5,141.5 C 75.0725,140.769 79.0725,141.769 82.5,144.5C 84.6943,146.9 86.361,149.566 87.5,152.5C 90.2869,153.477 93.2869,153.81 96.5,153.5C 96.5601,148.879 98.5601,145.379 102.5,143C 104.989,142.059 106.989,142.559 108.5,144.5C 108.5,145.167 108.167,145.5 107.5,145.5C 105.302,145.12 103.635,145.787 102.5,147.5C 100.307,149.522 99.3072,152.189 99.5,155.5C 94.5999,156.8 89.5999,156.8 84.5,155.5C 84.3192,151.305 82.6525,147.805 79.5,145C 77.1902,144.503 74.8568,144.337 72.5,144.5C 72.3075,148.013 72.9741,151.346 74.5,154.5C 73.1859,155.986 72.1859,157.653 71.5,159.5C 72.0639,161.819 72.5639,164.153 73,166.5C 73.3826,167.056 73.8826,167.389 74.5,167.5C 75.1667,168.5 75.8333,169.5 76.5,170.5C 76.5,170.833 76.5,171.167 76.5,171.5C 75.5416,171.047 74.7083,170.381 74,169.5C 73.6012,169.728 73.4346,170.062 73.5,170.5C 73.1667,170.5 72.8333,170.5 72.5,170.5C 70.4618,165.716 69.4618,160.716 69.5,155.5C 69.5106,150.852 69.8439,146.186 70.5,141.5 Z"/></g>
<g><path style="opacity:1" fill="#816d51" d="M 75.5,147.5 C 79.8004,147.815 81.467,150.149 80.5,154.5C 76.352,154.166 74.6853,151.833 75.5,147.5 Z"/></g>
<g><path style="opacity:1" fill="#dcc895" d="M 84.5,155.5 C 84.8333,156.833 85.1667,158.167 85.5,159.5C 85.7852,161.288 85.4519,162.955 84.5,164.5C 83.1552,165.347 82.1552,166.513 81.5,168C 80.0997,169.438 78.433,170.271 76.5,170.5C 75.8333,169.5 75.1667,168.5 74.5,167.5C 71.8085,158.156 75.1418,154.156 84.5,155.5 Z"/></g>
<g><path style="opacity:1" fill="#69543e" d="M 110.5,155.5 C 108.952,155.821 108.285,156.821 108.5,158.5C 109.791,158.263 110.791,158.596 111.5,159.5C 110.833,159.5 110.167,159.5 109.5,159.5C 108.508,159.672 107.842,159.338 107.5,158.5C 108.023,155.11 108.857,151.777 110,148.5C 110.497,150.81 110.663,153.143 110.5,155.5 Z"/></g>
<g><path style="opacity:0.988" fill="#5c543d" d="M 182.5,140.5 C 182.5,142.167 182.5,143.833 182.5,145.5C 181.782,152.339 180.782,159.005 179.5,165.5C 179.701,159.491 180.034,153.491 180.5,147.5C 181.167,145.167 181.833,142.833 182.5,140.5 Z"/></g>
<g><path style="opacity:1" fill="#aa9463" d="M 159.5,152.5 C 160.404,153.209 160.737,154.209 160.5,155.5C 162.415,155.216 164.081,155.549 165.5,156.5C 163.585,156.216 161.919,156.549 160.5,157.5C 159.115,158.947 159.448,159.947 161.5,160.5C 161.5,161.167 161.5,161.833 161.5,162.5C 160.292,161.766 158.959,161.433 157.5,161.5C 157.5,160.167 157.5,158.833 157.5,157.5C 155.517,157.157 154.183,157.824 153.5,159.5C 146.829,158.999 140.163,158.832 133.5,159C 132.934,159.995 132.267,160.828 131.5,161.5C 131.33,160.178 131.663,159.011 132.5,158C 138.516,157.501 144.516,157.668 150.5,158.5C 150.12,156.302 150.787,154.635 152.5,153.5C 152.281,154.675 152.614,155.675 153.5,156.5C 155.409,155.652 157.409,155.318 159.5,155.5C 159.5,154.5 159.5,153.5 159.5,152.5 Z"/></g>
<g><path style="opacity:1" fill="#c4b083" d="M 84.5,155.5 C 89.5999,156.8 94.5999,156.8 99.5,155.5C 100.791,155.263 101.791,155.596 102.5,156.5C 101.244,156.461 100.244,156.961 99.5,158C 100.756,158.417 101.423,159.25 101.5,160.5C 100.5,160.5 99.5,160.5 98.5,160.5C 98.5,161.5 98.5,162.5 98.5,163.5C 95.1667,163.5 91.8333,163.5 88.5,163.5C 88.5,162.167 88.5,160.833 88.5,159.5C 87.5,159.5 86.5,159.5 85.5,159.5C 85.1667,158.167 84.8333,156.833 84.5,155.5 Z"/></g>
<g><path style="opacity:0.922" fill="#69624f" d="M 202.5,151.5 C 202.328,152.492 202.662,153.158 203.5,153.5C 197.804,159.019 191.137,163.019 183.5,165.5C 183.185,161.629 183.518,157.962 184.5,154.5C 184.833,154.5 185.167,154.5 185.5,154.5C 185.5,156.833 185.5,159.167 185.5,161.5C 192.163,159.832 197.83,156.499 202.5,151.5 Z"/></g>
<g><path style="opacity:1" fill="#ddc996" d="M 98.5,160.5 C 95.8555,162.242 92.8555,162.909 89.5,162.5C 89.5,161.167 89.5,159.833 89.5,158.5C 93.0122,157.945 96.0122,158.612 98.5,160.5 Z"/></g>
<g><path style="opacity:1" fill="#d7c392" d="M 102.5,156.5 C 104.554,156.365 106.221,157.032 107.5,158.5C 107.842,159.338 108.508,159.672 109.5,159.5C 111.355,161.033 113.188,162.7 115,164.5C 115.495,166.473 115.662,168.473 115.5,170.5C 115.5,170.833 115.5,171.167 115.5,171.5C 114.127,171.657 112.793,171.49 111.5,171C 108.594,168.381 105.261,166.547 101.5,165.5C 101.5,163.833 101.5,162.167 101.5,160.5C 101.423,159.25 100.756,158.417 99.5,158C 100.244,156.961 101.244,156.461 102.5,156.5 Z"/></g>
<g><path style="opacity:1" fill="#29150e" d="M 160.5,157.5 C 164.349,157.019 166.349,158.686 166.5,162.5C 164.486,162.608 162.82,161.942 161.5,160.5C 160.89,159.609 160.557,158.609 160.5,157.5 Z"/></g>
<g><path style="opacity:1" fill="#624b30" d="M 160.5,157.5 C 160.557,158.609 160.89,159.609 161.5,160.5C 159.448,159.947 159.115,158.947 160.5,157.5 Z"/></g>
<g><path style="opacity:1" fill="#978261" d="M 109.5,159.5 C 110.167,159.5 110.833,159.5 111.5,159.5C 116.274,161.983 117.608,165.649 115.5,170.5C 115.662,168.473 115.495,166.473 115,164.5C 113.188,162.7 111.355,161.033 109.5,159.5 Z"/></g>
<g><path style="opacity:1" fill="#24120c" d="M 152.5,164.5 C 148.649,165.809 144.649,165.809 140.5,164.5C 141.325,163.614 142.325,163.281 143.5,163.5C 145.196,163.315 146.529,162.481 147.5,161C 149.134,160.506 150.801,160.34 152.5,160.5C 152.5,161.833 152.5,163.167 152.5,164.5 Z"/></g>
<g><path style="opacity:1" fill="#78613e" d="M 160.5,157.5 C 161.919,156.549 163.585,156.216 165.5,156.5C 165.783,157.289 166.283,157.956 167,158.5C 168.227,164.454 166.394,165.788 161.5,162.5C 161.5,161.833 161.5,161.167 161.5,160.5C 162.82,161.942 164.486,162.608 166.5,162.5C 166.349,158.686 164.349,157.019 160.5,157.5 Z"/></g>
<g><path style="opacity:1" fill="#7e6a4f" d="M 85.5,159.5 C 86.5,159.5 87.5,159.5 88.5,159.5C 88.5,160.833 88.5,162.167 88.5,163.5C 91.8333,163.5 95.1667,163.5 98.5,163.5C 98.5,162.5 98.5,161.5 98.5,160.5C 99.5,160.5 100.5,160.5 101.5,160.5C 101.5,162.167 101.5,163.833 101.5,165.5C 100.065,166.096 98.398,166.096 96.5,165.5C 96.5,167.5 96.5,169.5 96.5,171.5C 94.8007,171.473 93.4674,170.806 92.5,169.5C 92.5,168.167 92.5,166.833 92.5,165.5C 90.5853,165.216 88.9187,165.549 87.5,166.5C 86.8333,166.5 86.5,166.833 86.5,167.5C 82.9074,168.43 81.2407,170.763 81.5,174.5C 79.9991,173.248 78.3325,172.248 76.5,171.5C 76.5,171.167 76.5,170.833 76.5,170.5C 78.433,170.271 80.0997,169.438 81.5,168C 82.1552,166.513 83.1552,165.347 84.5,164.5C 85.4519,162.955 85.7852,161.288 85.5,159.5 Z"/></g>
<g><path style="opacity:1" fill="#aa956f" d="M 69.5,155.5 C 69.4618,160.716 70.4618,165.716 72.5,170.5C 68.6729,166.037 67.6729,161.037 69.5,155.5 Z"/></g>
<g><path style="opacity:1" fill="#836f52" d="M 127.5,161.5 C 128.833,161.5 130.167,161.5 131.5,161.5C 129.958,162.163 128.291,162.83 126.5,163.5C 127.32,165.111 128.654,165.778 130.5,165.5C 130.784,167.415 130.451,169.081 129.5,170.5C 128.328,171.705 126.995,171.705 125.5,170.5C 124.702,170.957 124.369,171.624 124.5,172.5C 122.166,170.824 121.166,168.491 121.5,165.5C 122.837,164.685 123.837,163.518 124.5,162C 125.448,161.517 126.448,161.351 127.5,161.5 Z"/></g>
<g><path style="opacity:1" fill="#c7b17b" d="M 144.5,176.5 C 135.515,179.699 131.515,176.699 132.5,167.5C 133.404,166.791 133.737,165.791 133.5,164.5C 138.696,166.087 144.03,166.754 149.5,166.5C 147.88,169.807 146.213,173.14 144.5,176.5 Z"/></g>
<g><path style="opacity:1" fill="#ad9b6a" d="M 46.5,151.5 C 47.8265,160.331 48.8265,169.331 49.5,178.5C 48.7784,178.082 48.2784,177.416 48,176.5C 47.31,168.174 46.81,159.841 46.5,151.5 Z"/></g>
<g><path style="opacity:1" fill="#dac694" d="M 87.5,166.5 C 88.8333,166.5 90.1667,166.5 91.5,166.5C 91.5514,168.57 90.8847,170.403 89.5,172C 89.6448,172.772 89.9781,173.439 90.5,174C 94.1516,174.499 97.8183,174.665 101.5,174.5C 101.737,173.209 101.404,172.209 100.5,171.5C 98.8958,170.713 98.2291,169.38 98.5,167.5C 100.199,167.34 101.866,167.506 103.5,168C 105.156,169.829 107.156,171.163 109.5,172C 110.38,173.356 110.714,174.856 110.5,176.5C 108.833,177.167 107.167,177.833 105.5,178.5C 98.349,178.891 91.349,178.225 84.5,176.5C 83.645,175.469 82.9783,174.303 82.5,173C 83.6502,171.019 84.9835,169.186 86.5,167.5C 86.5,166.833 86.8333,166.5 87.5,166.5 Z"/></g>
<g><path style="opacity:1" fill="#927e5e" d="M 101.5,165.5 C 105.261,166.547 108.594,168.381 111.5,171C 112.793,171.49 114.127,171.657 115.5,171.5C 113.948,173.342 112.282,175.009 110.5,176.5C 110.714,174.856 110.38,173.356 109.5,172C 107.156,171.163 105.156,169.829 103.5,168C 101.866,167.506 100.199,167.34 98.5,167.5C 98.2291,169.38 98.8958,170.713 100.5,171.5C 100.53,172.497 100.03,173.164 99,173.5C 96.536,172.839 94.036,172.339 91.5,172C 92.2524,171.329 92.5858,170.496 92.5,169.5C 93.4674,170.806 94.8007,171.473 96.5,171.5C 96.5,169.5 96.5,167.5 96.5,165.5C 98.398,166.096 100.065,166.096 101.5,165.5 Z"/></g>
<g><path style="opacity:1" fill="#c8b485" d="M 129.5,170.5 C 128.414,170.38 127.747,169.713 127.5,168.5C 127.833,167.833 128.167,167.167 128.5,166.5C 129.429,167.689 129.762,169.022 129.5,170.5 Z"/></g>
<g><path style="opacity:1" fill="#b29e76" d="M 86.5,167.5 C 84.9835,169.186 83.6502,171.019 82.5,173C 82.9783,174.303 83.645,175.469 84.5,176.5C 82.9731,176.573 81.9731,175.906 81.5,174.5C 81.2407,170.763 82.9074,168.43 86.5,167.5 Z"/></g>
<g><path style="opacity:1" fill="#c2ad81" d="M 87.5,166.5 C 88.9187,165.549 90.5853,165.216 92.5,165.5C 92.5,166.833 92.5,168.167 92.5,169.5C 92.5858,170.496 92.2524,171.329 91.5,172C 94.036,172.339 96.536,172.839 99,173.5C 100.03,173.164 100.53,172.497 100.5,171.5C 101.404,172.209 101.737,173.209 101.5,174.5C 97.8183,174.665 94.1516,174.499 90.5,174C 89.9781,173.439 89.6448,172.772 89.5,172C 90.8847,170.403 91.5514,168.57 91.5,166.5C 90.1667,166.5 88.8333,166.5 87.5,166.5 Z"/></g>
<g><path style="opacity:0.884" fill="#454035" d="M 45.5,146.5 C 46.4511,147.919 46.7845,149.585 46.5,151.5C 46.81,159.841 47.31,168.174 48,176.5C 48.2784,177.416 48.7784,178.082 49.5,178.5C 50.075,180.411 51.075,182.078 52.5,183.5C 50.9826,183.489 49.8159,182.823 49,181.5C 48.5357,182.094 48.369,182.761 48.5,183.5C 48.1667,183.5 47.8333,183.5 47.5,183.5C 46.6618,183.158 46.3284,182.492 46.5,181.5C 46.0372,178.67 45.3705,176.003 44.5,173.5C 43.8333,173.5 43.5,173.167 43.5,172.5C 43.5,168.5 43.5,164.5 43.5,160.5C 44.3238,164.312 44.8238,168.312 45,172.5C 45.4998,163.84 45.6664,155.173 45.5,146.5 Z"/></g>
<g><path style="opacity:1" fill="#755f42" d="M 135.5,160.5 C 137.635,162.369 140.302,163.036 143.5,162.5C 143.5,162.833 143.5,163.167 143.5,163.5C 142.325,163.281 141.325,163.614 140.5,164.5C 144.649,165.809 148.649,165.809 152.5,164.5C 152.833,164.5 153.167,164.5 153.5,164.5C 151.582,169.343 148.916,173.677 145.5,177.5C 145.5,176.833 145.167,176.5 144.5,176.5C 146.213,173.14 147.88,169.807 149.5,166.5C 144.03,166.754 138.696,166.087 133.5,164.5C 133.737,165.791 133.404,166.791 132.5,167.5C 132.706,164.762 133.706,162.428 135.5,160.5 Z"/></g>
<g><path style="opacity:1" fill="#826d52" d="M 118.5,172.5 C 118.771,174.38 118.104,175.713 116.5,176.5C 116.66,174.847 117.326,173.514 118.5,172.5 Z"/></g>
<g><path style="opacity:1" fill="#b7a279" d="M 118.5,161.5 C 119.857,162.59 120.857,163.924 121.5,165.5C 121.166,168.491 122.166,170.824 124.5,172.5C 124.5,172.833 124.5,173.167 124.5,173.5C 123.417,173.461 122.417,173.127 121.5,172.5C 119.76,176.528 116.76,178.861 112.5,179.5C 113.436,178.026 114.77,177.026 116.5,176.5C 118.104,175.713 118.771,174.38 118.5,172.5C 119.715,168.967 119.715,165.301 118.5,161.5 Z"/></g>
<g><path style="opacity:1" fill="#ceb980" d="M 124.5,173.5 C 128.22,175.05 131.553,177.217 134.5,180C 137.849,180.388 141.183,180.221 144.5,179.5C 145.239,179.369 145.906,179.536 146.5,180C 144.167,183 141.833,186 139.5,189C 132.014,193.915 124.014,197.415 115.5,199.5C 109.523,198.859 103.523,198.359 97.5,198C 96.9558,197.283 96.2891,196.783 95.5,196.5C 102.882,193.225 110.549,190.392 118.5,188C 123.785,184.306 125.785,179.473 124.5,173.5 Z"/></g>
<g><path style="opacity:1" fill="#4d3726" d="M 153.5,159.5 C 153.5,161.167 153.5,162.833 153.5,164.5C 153.167,164.5 152.833,164.5 152.5,164.5C 152.5,163.167 152.5,161.833 152.5,160.5C 150.801,160.34 149.134,160.506 147.5,161C 146.529,162.481 145.196,163.315 143.5,163.5C 143.5,163.167 143.5,162.833 143.5,162.5C 144.043,162.44 144.376,162.107 144.5,161.5C 141.572,160.516 138.572,160.183 135.5,160.5C 133.706,162.428 132.706,164.762 132.5,167.5C 131.515,176.699 135.515,179.699 144.5,176.5C 145.167,176.5 145.5,176.833 145.5,177.5C 145.167,178.167 144.833,178.833 144.5,179.5C 141.183,180.221 137.849,180.388 134.5,180C 131.553,177.217 128.22,175.05 124.5,173.5C 124.5,173.167 124.5,172.833 124.5,172.5C 124.369,171.624 124.702,170.957 125.5,170.5C 126.995,171.705 128.328,171.705 129.5,170.5C 130.451,169.081 130.784,167.415 130.5,165.5C 128.654,165.778 127.32,165.111 126.5,163.5C 128.291,162.83 129.958,162.163 131.5,161.5C 132.267,160.828 132.934,159.995 133.5,159C 140.163,158.832 146.829,158.999 153.5,159.5 Z"/></g>
<g><path style="opacity:1" fill="#a08a5f" d="M 135.5,160.5 C 138.572,160.183 141.572,160.516 144.5,161.5C 144.376,162.107 144.043,162.44 143.5,162.5C 140.302,163.036 137.635,162.369 135.5,160.5 Z"/></g>
<g><path style="opacity:1" fill="#432d22" d="M 110.5,155.5 C 113.404,157.055 116.07,159.055 118.5,161.5C 119.715,165.301 119.715,168.967 118.5,172.5C 117.326,173.514 116.66,174.847 116.5,176.5C 114.77,177.026 113.436,178.026 112.5,179.5C 109.982,180.264 107.649,181.264 105.5,182.5C 100.5,182.5 95.5,182.5 90.5,182.5C 88.351,181.264 86.0177,180.264 83.5,179.5C 78.9435,177.884 75.6102,174.884 73.5,170.5C 73.4346,170.062 73.6012,169.728 74,169.5C 74.7083,170.381 75.5416,171.047 76.5,171.5C 78.3325,172.248 79.9991,173.248 81.5,174.5C 81.9731,175.906 82.9731,176.573 84.5,176.5C 85.842,177.793 87.5087,178.626 89.5,179C 95.0164,179.817 100.35,179.651 105.5,178.5C 107.167,177.833 108.833,177.167 110.5,176.5C 112.282,175.009 113.948,173.342 115.5,171.5C 115.5,171.167 115.5,170.833 115.5,170.5C 117.608,165.649 116.274,161.983 111.5,159.5C 110.791,158.596 109.791,158.263 108.5,158.5C 108.285,156.821 108.952,155.821 110.5,155.5 Z"/></g>
<g><path style="opacity:1" fill="#9b8765" d="M 84.5,176.5 C 91.349,178.225 98.349,178.891 105.5,178.5C 100.35,179.651 95.0164,179.817 89.5,179C 87.5087,178.626 85.842,177.793 84.5,176.5 Z"/></g>
<g><path style="opacity:0.529" fill="#727171" d="M 44.5,173.5 C 45.3705,176.003 46.0372,178.67 46.5,181.5C 45.8826,181.389 45.3826,181.056 45,180.5C 44.5034,178.19 44.3367,175.857 44.5,173.5 Z"/></g>
<g><path style="opacity:1" fill="#a4906c" d="M 83.5,179.5 C 86.0177,180.264 88.351,181.264 90.5,182.5C 87.4231,182.821 85.0897,181.821 83.5,179.5 Z"/></g>
<g><path style="opacity:1" fill="#917c5d" d="M 112.5,179.5 C 110.91,181.821 108.577,182.821 105.5,182.5C 107.649,181.264 109.982,180.264 112.5,179.5 Z"/></g>
<g><path style="opacity:0.333" fill="#888888" d="M 47.5,183.5 C 47.8333,183.5 48.1667,183.5 48.5,183.5C 49.8333,185.167 51.1667,186.833 52.5,188.5C 49.8333,187.833 48.1667,186.167 47.5,183.5 Z"/></g>
<g><path style="opacity:1" fill="#6d6346" d="M 179.5,165.5 C 179.666,171.509 179.499,177.509 179,183.5C 177.256,188.079 174.09,191.079 169.5,192.5C 170.833,191.167 172.167,189.833 173.5,188.5C 175.173,187.657 176.34,186.324 177,184.5C 177.58,177.986 178.413,171.653 179.5,165.5 Z"/></g>
<g><path style="opacity:0.58" fill="#7b7b7b" d="M 52.5,188.5 C 54.4044,188.738 55.7377,189.738 56.5,191.5C 54.5956,191.262 53.2623,190.262 52.5,188.5 Z"/></g>
<g><path style="opacity:0.384" fill="#858585" d="M 181.5,187.5 C 180.87,191.463 178.537,193.796 174.5,194.5C 177.167,192.5 179.5,190.167 181.5,187.5 Z"/></g>
<g><path style="opacity:0.38" fill="#9f9f9f" d="M 56.5,191.5 C 58.0269,191.427 59.0269,192.094 59.5,193.5C 57.9731,193.573 56.9731,192.906 56.5,191.5 Z"/></g>
<g><path style="opacity:0.541" fill="#747474" d="M 61.5,193.5 C 63.0269,193.427 64.0269,194.094 64.5,195.5C 62.9731,195.573 61.9731,194.906 61.5,193.5 Z"/></g>
<g><path style="opacity:0.753" fill="#676767" d="M 64.5,195.5 C 66.8984,195.259 68.8984,195.926 70.5,197.5C 69.8333,197.5 69.1667,197.5 68.5,197.5C 66.847,197.34 65.5137,196.674 64.5,195.5 Z"/></g>
<g><path style="opacity:0.435" fill="#828282" d="M 174.5,194.5 C 173.514,196.408 171.848,197.408 169.5,197.5C 170.659,195.75 172.326,194.75 174.5,194.5 Z"/></g>
<g><path style="opacity:0.749" fill="#616161" d="M 70.5,197.5 C 74.1621,197.723 77.4954,198.723 80.5,200.5C 76.8379,200.277 73.5046,199.277 70.5,197.5 Z"/></g>
<g><path style="opacity:0.506" fill="#6c6c6c" d="M 169.5,197.5 C 168.07,198.537 166.403,199.204 164.5,199.5C 165.635,197.787 167.302,197.12 169.5,197.5 Z"/></g>
<g><path style="opacity:0.612" fill="#5f5f5f" d="M 164.5,199.5 C 163.07,200.537 161.403,201.204 159.5,201.5C 158.167,201.5 156.833,201.5 155.5,201.5C 158.273,200.343 161.273,199.676 164.5,199.5 Z"/></g>
<g><path style="opacity:0.608" fill="#707070" d="M 80.5,200.5 C 83.1522,200.41 85.4855,201.076 87.5,202.5C 84.8478,202.59 82.5145,201.924 80.5,200.5 Z"/></g>
<g><path style="opacity:0.525" fill="#5f5f5f" d="M 155.5,201.5 C 154.5,202.167 153.5,202.833 152.5,203.5C 151.167,203.5 149.833,203.5 148.5,203.5C 150.515,202.076 152.848,201.41 155.5,201.5 Z"/></g>
<g><path style="opacity:0.251" fill="#a7a7a7" d="M 155.5,201.5 C 156.833,201.5 158.167,201.5 159.5,201.5C 158.5,202.167 157.5,202.833 156.5,203.5C 156.167,203.5 155.833,203.5 155.5,203.5C 154.5,203.5 153.5,203.5 152.5,203.5C 153.5,202.833 154.5,202.167 155.5,201.5 Z"/></g>
<g><path style="opacity:0.031" fill="#d1d1d1" d="M 68.5,197.5 C 69.1667,197.5 69.8333,197.5 70.5,197.5C 73.5046,199.277 76.8379,200.277 80.5,200.5C 82.5145,201.924 84.8478,202.59 87.5,202.5C 87.8333,202.5 88.1667,202.5 88.5,202.5C 89.8333,203.167 91.1667,203.833 92.5,204.5C 89.5,204.5 86.5,204.5 83.5,204.5C 78.4436,202.317 73.4436,199.983 68.5,197.5 Z"/></g>
<g><path style="opacity:0.651" fill="#666666" d="M 88.5,202.5 C 92.7905,202.198 96.7905,202.864 100.5,204.5C 97.8333,204.5 95.1667,204.5 92.5,204.5C 91.1667,203.833 89.8333,203.167 88.5,202.5 Z"/></g>
<g><path style="opacity:0.938" fill="#1c1c1a" d="M 184.5,154.5 C 183.518,157.962 183.185,161.629 183.5,165.5C 183.909,172.964 183.243,180.297 181.5,187.5C 179.5,190.167 177.167,192.5 174.5,194.5C 172.326,194.75 170.659,195.75 169.5,197.5C 167.302,197.12 165.635,197.787 164.5,199.5C 161.273,199.676 158.273,200.343 155.5,201.5C 152.848,201.41 150.515,202.076 148.5,203.5C 148.167,203.5 147.833,203.5 147.5,203.5C 132.517,204.355 117.517,204.689 102.5,204.5C 101.833,204.5 101.167,204.5 100.5,204.5C 96.7905,202.864 92.7905,202.198 88.5,202.5C 88.1667,202.5 87.8333,202.5 87.5,202.5C 85.4855,201.076 83.1522,200.41 80.5,200.5C 77.4954,198.723 74.1621,197.723 70.5,197.5C 68.8984,195.926 66.8984,195.259 64.5,195.5C 64.0269,194.094 63.0269,193.427 61.5,193.5C 60.8333,193.5 60.1667,193.5 59.5,193.5C 59.0269,192.094 58.0269,191.427 56.5,191.5C 55.7377,189.738 54.4044,188.738 52.5,188.5C 51.1667,186.833 49.8333,185.167 48.5,183.5C 48.369,182.761 48.5357,182.094 49,181.5C 49.8159,182.823 50.9826,183.489 52.5,183.5C 52.9731,184.906 53.9731,185.573 55.5,185.5C 56.2623,187.262 57.5956,188.262 59.5,188.5C 59.8417,189.338 60.5084,189.672 61.5,189.5C 65.2058,192.509 69.5392,194.176 74.5,194.5C 77.5046,196.277 80.8379,197.277 84.5,197.5C 84.8333,197.5 85.1667,197.5 85.5,197.5C 88.8448,199.217 92.5115,199.884 96.5,199.5C 103.605,201.012 110.938,201.679 118.5,201.5C 123.678,201.499 128.678,201.166 133.5,200.5C 138.518,200.387 143.518,200.053 148.5,199.5C 150.898,199.741 152.898,199.074 154.5,197.5C 160.175,197.447 165.175,195.781 169.5,192.5C 174.09,191.079 177.256,188.079 179,183.5C 179.499,177.509 179.666,171.509 179.5,165.5C 180.782,159.005 181.782,152.339 182.5,145.5C 183.302,144.048 183.802,142.382 184,140.5C 184.499,145.155 184.666,149.821 184.5,154.5 Z"/></g>
<g><path style="opacity:0.976" fill="#685f47" d="M 96.5,199.5 C 108.815,200.315 121.148,200.649 133.5,200.5C 128.678,201.166 123.678,201.499 118.5,201.5C 110.938,201.679 103.605,201.012 96.5,199.5 Z"/></g>
<g><path style="opacity:1" fill="#ae9e6f" d="M 78.5,194.5 C 84.0452,196.022 89.7119,196.688 95.5,196.5C 96.2891,196.783 96.9558,197.283 97.5,198C 103.523,198.359 109.523,198.859 115.5,199.5C 126.513,199.499 137.513,199.166 148.5,198.5C 148.5,198.833 148.5,199.167 148.5,199.5C 143.518,200.053 138.518,200.387 133.5,200.5C 121.148,200.649 108.815,200.315 96.5,199.5C 93.0264,198.475 89.3597,197.808 85.5,197.5C 85.1667,197.5 84.8333,197.5 84.5,197.5C 82.5,196.5 80.5,195.5 78.5,194.5 Z"/></g>
<g><path style="opacity:0.988" fill="#58513c" d="M 154.5,197.5 C 152.898,199.074 150.898,199.741 148.5,199.5C 148.5,199.167 148.5,198.833 148.5,198.5C 150.435,197.85 152.435,197.517 154.5,197.5 Z"/></g>
<g><path style="opacity:0.992" fill="#524b38" d="M 85.5,197.5 C 89.3597,197.808 93.0264,198.475 96.5,199.5C 92.5115,199.884 88.8448,199.217 85.5,197.5 Z"/></g>
<g><path style="opacity:0.996" fill="#6e6449" d="M 169.5,192.5 C 165.175,195.781 160.175,197.447 154.5,197.5C 159.403,195.643 164.403,193.977 169.5,192.5 Z"/></g>
<g><path style="opacity:0.996" fill="#6e644b" d="M 74.5,194.5 C 75.1667,194.5 75.8333,194.5 76.5,194.5C 77.1667,194.5 77.8333,194.5 78.5,194.5C 80.5,195.5 82.5,196.5 84.5,197.5C 80.8379,197.277 77.5046,196.277 74.5,194.5 Z"/></g>
<g><path style="opacity:1" fill="#59513c" d="M 61.5,189.5 C 66.1442,190.599 70.4775,192.266 74.5,194.5C 69.5392,194.176 65.2058,192.509 61.5,189.5 Z"/></g>
<g><path style="opacity:1" fill="#6e6449" d="M 55.5,185.5 C 57.4044,185.738 58.7377,186.738 59.5,188.5C 57.5956,188.262 56.2623,187.262 55.5,185.5 Z"/></g>
<g><path style="opacity:1" fill="#6b6147" d="M 52.5,183.5 C 54.0269,183.427 55.0269,184.094 55.5,185.5C 53.9731,185.573 52.9731,184.906 52.5,183.5 Z"/></g>
<g><path style="opacity:0.459" fill="#6d6d6d" d="M 147.5,203.5 C 143.056,204.813 138.389,205.646 133.5,206C 124.506,206.5 115.506,206.666 106.5,206.5C 104.847,206.34 103.514,205.674 102.5,204.5C 117.517,204.689 132.517,204.355 147.5,203.5 Z"/></g>
<g><path style="opacity:0.009" fill="#f5f5f5" d="M 167.5,201.5 C 160.651,204.884 153.318,207.051 145.5,208C 129.833,210 114.167,210 98.5,208C 93.2422,207.386 88.2422,206.219 83.5,204.5C 86.5,204.5 89.5,204.5 92.5,204.5C 95.1667,204.5 97.8333,204.5 100.5,204.5C 101.167,204.5 101.833,204.5 102.5,204.5C 103.514,205.674 104.847,206.34 106.5,206.5C 122.44,208.136 138.44,207.636 154.5,205C 155.056,204.617 155.389,204.117 155.5,203.5C 155.833,203.5 156.167,203.5 156.5,203.5C 160.167,202.833 163.833,202.167 167.5,201.5 Z"/></g>
<g><path style="opacity:0.033" fill="#dddddd" d="M 147.5,203.5 C 147.833,203.5 148.167,203.5 148.5,203.5C 149.833,203.5 151.167,203.5 152.5,203.5C 153.5,203.5 154.5,203.5 155.5,203.5C 155.389,204.117 155.056,204.617 154.5,205C 138.44,207.636 122.44,208.136 106.5,206.5C 115.506,206.666 124.506,206.5 133.5,206C 138.389,205.646 143.056,204.813 147.5,203.5 Z"/></g>
</svg>
