<?xml version="1.0" encoding="UTF-8"?>
<!DOCTYPE svg PUBLIC "-//W3C//DTD SVG 1.1//EN" "http://www.w3.org/Graphics/SVG/1.1/DTD/svg11.dtd">
<svg xmlns="http://www.w3.org/2000/svg" version="1.1" width="335px" height="265px" style="shape-rendering:geometricPrecision; text-rendering:geometricPrecision; image-rendering:optimizeQuality; fill-rule:evenodd; clip-rule:evenodd" xmlns:xlink="http://www.w3.org/1999/xlink">
<g><path style="opacity:0.999" fill="#060404" d="M 193.5,10.5 C 197.534,10.5045 201.534,10.8379 205.5,11.5C 208.273,12.6572 211.273,13.3239 214.5,13.5C 217.518,15.3999 220.851,16.7333 224.5,17.5C 233.613,21.2229 242.613,25.2229 251.5,29.5C 251.973,30.9063 252.973,31.573 254.5,31.5C 258.553,34.8827 262.886,37.8827 267.5,40.5C 271.833,45.5 276.5,50.1667 281.5,54.5C 288.076,61.3231 293.409,68.9897 297.5,77.5C 297.427,79.0269 298.094,80.0269 299.5,80.5C 301.112,84.0584 302.445,87.7251 303.5,91.5C 304.88,97.2741 306.213,102.941 307.5,108.5C 308.369,110.717 308.702,113.05 308.5,115.5C 309.325,136.531 304.658,156.198 294.5,174.5C 293.094,174.973 292.427,175.973 292.5,177.5C 291.094,177.973 290.427,178.973 290.5,180.5C 288.738,181.262 287.738,182.596 287.5,184.5C 282.861,189.474 278.195,194.474 273.5,199.5C 270.911,200.419 268.911,202.086 267.5,204.5C 262.886,207.117 258.553,210.117 254.5,213.5C 248.849,215.659 243.516,218.326 238.5,221.5C 232.267,223.462 226.267,225.796 220.5,228.5C 200.115,233.739 179.448,235.405 158.5,233.5C 154.455,231.823 150.122,231.156 145.5,231.5C 143.194,231.007 140.861,230.674 138.5,230.5C 135.495,228.723 132.162,227.723 128.5,227.5C 126.708,227.634 125.042,227.301 123.5,226.5C 121.491,224.935 119.157,223.935 116.5,223.5C 111.349,221.424 106.349,219.09 101.5,216.5C 101.027,215.094 100.027,214.427 98.5,214.5C 96.847,214.34 95.5137,213.674 94.5,212.5C 94.0269,211.094 93.0269,210.427 91.5,210.5C 83.6144,205.623 76.281,199.956 69.5,193.5C 67.5698,189.9 64.9031,186.9 61.5,184.5C 60.9202,182.251 59.5869,180.585 57.5,179.5C 57.573,177.973 56.9063,176.973 55.5,176.5C 53.7505,172.665 51.7505,168.999 49.5,165.5C 48.6743,162.515 47.341,159.849 45.5,157.5C 45.5,157.167 45.5,156.833 45.5,156.5C 44.2042,151.607 42.5376,146.94 40.5,142.5C 40.5,141.833 40.5,141.167 40.5,140.5C 40.5905,137.848 39.9238,135.515 38.5,133.5C 38.5,131.833 38.5,130.167 38.5,128.5C 37.611,115.563 38.9443,102.896 42.5,90.5C 43.5375,89.0697 44.2041,87.403 44.5,85.5C 45.5,82.8333 46.5,80.1667 47.5,77.5C 48.9063,77.0269 49.573,76.0269 49.5,74.5C 49.3284,73.5084 49.6618,72.8417 50.5,72.5C 51.9063,72.0269 52.573,71.0269 52.5,69.5C 69.252,43.93 92.252,26.43 121.5,17C 128.712,14.8633 136.045,13.3633 143.5,12.5C 156.149,11.6784 168.815,11.3451 181.5,11.5C 185.566,11.693 189.566,11.3597 193.5,10.5 Z"/></g>
<g><path style="opacity:1" fill="#c26262" d="M 188.5,20.5 C 190.113,22.2696 192.113,23.4363 194.5,24C 200.838,25.5669 207.171,27.0669 213.5,28.5C 215.369,30.0295 217.369,31.5295 219.5,33C 224.888,34.7905 230.221,36.6239 235.5,38.5C 246.249,43.5803 255.916,50.2469 264.5,58.5C 265.757,61.4274 267.757,63.7607 270.5,65.5C 271.75,68.0668 272.917,70.7334 274,73.5C 276.16,75.7174 278.327,77.7174 280.5,79.5C 282.588,81.3356 283.921,83.6689 284.5,86.5C 285.924,92.112 287.924,97.4453 290.5,102.5C 291.277,113.148 291.61,123.815 291.5,134.5C 290.883,139.584 289.883,144.584 288.5,149.5C 286.755,151.033 285.755,153.033 285.5,155.5C 281.898,162.429 277.898,169.095 273.5,175.5C 270.757,177.239 268.757,179.573 267.5,182.5C 261.762,187.58 255.762,192.246 249.5,196.5C 247.973,196.427 246.973,197.094 246.5,198.5C 244.973,198.427 243.973,199.094 243.5,200.5C 241.033,200.755 239.033,201.755 237.5,203.5C 231.011,206.749 224.345,209.416 217.5,211.5C 211.82,211.963 206.486,213.297 201.5,215.5C 197.481,215.646 193.481,215.979 189.5,216.5C 182.159,216.666 174.826,216.5 167.5,216C 158.902,214.289 150.236,213.123 141.5,212.5C 140.167,212.5 138.833,212.5 137.5,212.5C 134.495,210.723 131.162,209.723 127.5,209.5C 126.833,209.5 126.5,209.167 126.5,208.5C 122.541,206.027 118.207,204.36 113.5,203.5C 111.847,203.34 110.514,202.674 109.5,201.5C 107.867,198.203 105.2,196.536 101.5,196.5C 99.1475,195.66 97.1475,194.326 95.5,192.5C 94.4154,190.413 92.7488,189.08 90.5,188.5C 72.5699,174.974 60.9032,157.307 55.5,135.5C 54.5871,123.864 54.2537,112.197 54.5,100.5C 56.6098,96.4979 57.9431,92.1646 58.5,87.5C 62.1666,77.1819 67.8333,68.1819 75.5,60.5C 78.8333,57.8333 81.8333,54.8333 84.5,51.5C 95.1947,40.8087 107.861,33.142 122.5,28.5C 126.162,28.2766 129.495,27.2766 132.5,25.5C 134.588,24.0605 136.921,23.3939 139.5,23.5C 145.601,23.4277 151.601,22.5944 157.5,21C 167.828,20.5002 178.161,20.3335 188.5,20.5 Z"/></g>
<g><path style="opacity:0.149" fill="#8f8f8f" d="M 267.5,40.5 C 268.167,40.5 268.833,40.5 269.5,40.5C 273.897,44.8918 277.897,49.5584 281.5,54.5C 276.5,50.1667 271.833,45.5 267.5,40.5 Z"/></g>
<g><path style="opacity:1" fill="#7d3f3f" d="M 84.5,51.5 C 81.8333,54.8333 78.8333,57.8333 75.5,60.5C 77.5,56.5 80.5,53.5 84.5,51.5 Z"/></g>
<g><path style="opacity:1" fill="#6b3636" d="M 264.5,58.5 C 267.243,60.2393 269.243,62.5726 270.5,65.5C 267.757,63.7607 265.757,61.4274 264.5,58.5 Z"/></g>
<g><path style="opacity:0.008" fill="#eaeaea" d="M 269.5,39.5 C 303.09,67.2694 316.09,102.603 308.5,145.5C 309.563,135.339 309.563,125.339 308.5,115.5C 308.702,113.05 308.369,110.717 307.5,108.5C 307.776,102.354 306.443,96.6877 303.5,91.5C 302.445,87.7251 301.112,84.0584 299.5,80.5C 299.573,78.9731 298.906,77.9731 297.5,77.5C 293.409,68.9897 288.076,61.3231 281.5,54.5C 277.897,49.5584 273.897,44.8918 269.5,40.5C 269.5,40.1667 269.5,39.8333 269.5,39.5 Z"/></g>
<g><path style="opacity:0.694" fill="#545454" d="M 52.5,69.5 C 52.573,71.0269 51.9063,72.0269 50.5,72.5C 50.427,70.9731 51.0937,69.9731 52.5,69.5 Z"/></g>
<g><path style="opacity:1" fill="#9a4e4e" d="M 270.5,65.5 C 274.812,69.4538 278.145,74.1205 280.5,79.5C 278.327,77.7174 276.16,75.7174 274,73.5C 272.917,70.7334 271.75,68.0668 270.5,65.5 Z"/></g>
<g><path style="opacity:0.01" fill="#dbdbdb" d="M 269.5,39.5 C 269.5,39.8333 269.5,40.1667 269.5,40.5C 268.833,40.5 268.167,40.5 267.5,40.5C 262.886,37.8827 258.553,34.8827 254.5,31.5C 254.027,30.0937 253.027,29.427 251.5,29.5C 242.613,25.2229 233.613,21.2229 224.5,17.5C 221.691,15.1034 218.358,13.7701 214.5,13.5C 211.273,13.3239 208.273,12.6572 205.5,11.5C 203.321,10.0744 200.821,9.40778 198,9.5C 196.293,9.50848 194.793,9.84182 193.5,10.5C 189.566,11.3597 185.566,11.693 181.5,11.5C 176.511,10.834 171.344,10.5006 166,10.5C 158.272,10.316 150.772,10.9826 143.5,12.5C 136.045,13.3633 128.712,14.8633 121.5,17C 92.252,26.43 69.252,43.93 52.5,69.5C 51.0937,69.9731 50.427,70.9731 50.5,72.5C 49.6618,72.8417 49.3284,73.5084 49.5,74.5C 48.0937,74.9731 47.427,75.9731 47.5,77.5C 46.5,80.1667 45.5,82.8333 44.5,85.5C 42.7868,86.6354 42.1201,88.302 42.5,90.5C 38.9443,102.896 37.611,115.563 38.5,128.5C 37.8826,128.389 37.3826,128.056 37,127.5C 36.8333,124.333 36.6667,121.167 36.5,118C 36.9262,110.801 37.5928,103.635 38.5,96.5C 44.1985,74.2884 55.8651,55.7884 73.5,41C 106.328,15.731 143.495,5.23103 185,9.5C 192.117,7.19075 199.283,7.02408 206.5,9C 229.989,14.4134 250.989,24.58 269.5,39.5 Z"/></g>
<g><path style="opacity:1" fill="#994d4d" d="M 213.5,28.5 C 221.409,30.7916 228.742,34.125 235.5,38.5C 230.221,36.6239 224.888,34.7905 219.5,33C 217.369,31.5295 215.369,30.0295 213.5,28.5 Z"/></g>
<g><path style="opacity:0.439" fill="#848484" d="M 251.5,29.5 C 253.027,29.427 254.027,30.0937 254.5,31.5C 252.973,31.573 251.973,30.9063 251.5,29.5 Z"/></g>
<g><path style="opacity:1" fill="#7b3e3e" d="M 132.5,25.5 C 129.495,27.2766 126.162,28.2766 122.5,28.5C 125.505,26.7234 128.838,25.7234 132.5,25.5 Z"/></g>
<g><path style="opacity:1" fill="#7e4040" d="M 188.5,20.5 C 178.161,20.3335 167.828,20.5002 157.5,21C 151.601,22.5944 145.601,23.4277 139.5,23.5C 144.943,21.8948 150.61,20.7281 156.5,20C 167.341,19.1745 178.008,19.3412 188.5,20.5 Z"/></g>
<g><path style="opacity:0.31" fill="#848484" d="M 214.5,13.5 C 218.358,13.7701 221.691,15.1034 224.5,17.5C 220.851,16.7333 217.518,15.3999 214.5,13.5 Z"/></g>
<g><path style="opacity:0.937" fill="#333333" d="M 181.5,11.5 C 168.815,11.3451 156.149,11.6784 143.5,12.5C 150.772,10.9826 158.272,10.316 166,10.5C 171.344,10.5006 176.511,10.834 181.5,11.5 Z"/></g>
<g><path style="opacity:0.153" fill="#adadad" d="M 193.5,10.5 C 194.793,9.84182 196.293,9.50848 198,9.5C 200.821,9.40778 203.321,10.0744 205.5,11.5C 201.534,10.8379 197.534,10.5045 193.5,10.5 Z"/></g>
<g><path style="opacity:0.514" fill="#7a7a7a" d="M 49.5,74.5 C 49.573,76.0269 48.9063,77.0269 47.5,77.5C 47.427,75.9731 48.0937,74.9731 49.5,74.5 Z"/></g>
<g><path style="opacity:1" fill="#070303" d="M 199.5,133.5 C 201.8,135.984 204.467,137.984 207.5,139.5C 208.911,141.914 210.911,143.581 213.5,144.5C 214.585,146.587 216.251,147.92 218.5,148.5C 222.833,153.5 227.5,158.167 232.5,162.5C 238.572,168.457 238.905,174.624 233.5,181C 230.833,181.667 228.167,181.667 225.5,181C 208.54,165.527 191.207,150.527 173.5,136C 172.5,135.333 171.5,135.333 170.5,136C 168.255,138.731 166.255,141.564 164.5,144.5C 162.413,145.585 161.08,147.251 160.5,149.5C 151.863,160.985 143.363,172.651 135,184.5C 131.584,189.478 127.084,191.145 121.5,189.5C 119.494,185.802 118.994,181.802 120,177.5C 121.481,176.529 122.315,175.196 122.5,173.5C 122.738,171.596 123.738,170.262 125.5,169.5C 127.587,168.415 128.92,166.749 129.5,164.5C 132.243,162.761 134.243,160.427 135.5,157.5C 137.587,156.415 138.92,154.749 139.5,152.5C 139.833,151.5 140.5,150.833 141.5,150.5C 143.587,149.415 144.92,147.749 145.5,145.5C 145.833,144.5 146.5,143.833 147.5,143.5C 149.587,142.415 150.92,140.749 151.5,138.5C 155.011,134.823 158.344,130.989 161.5,127C 145.749,113.252 130.582,98.7516 116,83.5C 115.219,82.0563 115.386,80.723 116.5,79.5C 124.662,83.7467 132.662,88.2467 140.5,93C 151.089,100.876 161.922,108.376 173,115.5C 185.155,104.68 197.322,93.8464 209.5,83C 213.579,79.2126 218.079,76.0459 223,73.5C 224.543,74.5772 224.543,75.9106 223,77.5C 210,91.8333 197,106.167 184,120.5C 183.316,121.784 183.483,122.951 184.5,124C 189.556,127.188 194.556,130.355 199.5,133.5 Z"/></g>
<g><path style="opacity:0.486" fill="#7f7f7f" d="M 297.5,77.5 C 298.906,77.9731 299.573,78.9731 299.5,80.5C 298.094,80.0269 297.427,79.0269 297.5,77.5 Z"/></g>
<g><path style="opacity:0.357" fill="#868686" d="M 44.5,85.5 C 44.2041,87.403 43.5375,89.0697 42.5,90.5C 42.1201,88.302 42.7868,86.6354 44.5,85.5 Z"/></g>
<g><path style="opacity:1" fill="#723a3a" d="M 284.5,86.5 C 287.585,91.3531 289.585,96.6865 290.5,102.5C 287.924,97.4453 285.924,92.112 284.5,86.5 Z"/></g>
<g><path style="opacity:1" fill="#6e3737" d="M 58.5,87.5 C 57.9431,92.1646 56.6098,96.4979 54.5,100.5C 55.0569,95.8354 56.3902,91.5021 58.5,87.5 Z"/></g>
<g><path style="opacity:0.851" fill="#5c5c5c" d="M 303.5,91.5 C 306.443,96.6877 307.776,102.354 307.5,108.5C 306.213,102.941 304.88,97.2741 303.5,91.5 Z"/></g>
<g><path style="opacity:1" fill="#773c3c" d="M 54.5,100.5 C 54.2537,112.197 54.5871,123.864 55.5,135.5C 54.7321,134.737 54.2321,133.737 54,132.5C 51.8798,121.637 52.0464,110.97 54.5,100.5 Z"/></g>
<g><path style="opacity:1" fill="#814141" d="M 290.5,102.5 C 294.044,113.072 294.377,123.739 291.5,134.5C 291.61,123.815 291.277,113.148 290.5,102.5 Z"/></g>
<g><path style="opacity:1" fill="#904949" d="M 199.5,133.5 C 203.568,133.562 206.235,135.562 207.5,139.5C 204.467,137.984 201.8,135.984 199.5,133.5 Z"/></g>
<g><path style="opacity:0.557" fill="#686868" d="M 38.5,133.5 C 39.9238,135.515 40.5905,137.848 40.5,140.5C 39.0762,138.485 38.4095,136.152 38.5,133.5 Z"/></g>
<g><path style="opacity:1" fill="#422121" d="M 151.5,138.5 C 150.92,140.749 149.587,142.415 147.5,143.5C 148.08,141.251 149.413,139.585 151.5,138.5 Z"/></g>
<g><path style="opacity:1" fill="#683434" d="M 207.5,139.5 C 210.089,140.419 212.089,142.086 213.5,144.5C 210.911,143.581 208.911,141.914 207.5,139.5 Z"/></g>
<g><path style="opacity:1" fill="#6f3838" d="M 213.5,144.5 C 215.749,145.08 217.415,146.413 218.5,148.5C 216.251,147.92 214.585,146.587 213.5,144.5 Z"/></g>
<g><path style="opacity:0.333" fill="#727272" d="M 40.5,142.5 C 42.5376,146.94 44.2042,151.607 45.5,156.5C 42.6761,152.37 41.0094,147.703 40.5,142.5 Z"/></g>
<g><path style="opacity:0.009" fill="#cccccc" d="M 308.5,115.5 C 309.563,125.339 309.563,135.339 308.5,145.5C 307.61,151.166 305.943,156.5 303.5,161.5C 302.542,161.953 301.708,162.619 301,163.5C 299.801,167.923 297.634,171.59 294.5,174.5C 304.658,156.198 309.325,136.531 308.5,115.5 Z"/></g>
<g><path style="opacity:1" fill="#7c3e3e" d="M 164.5,144.5 C 163.92,146.749 162.587,148.415 160.5,149.5C 161.08,147.251 162.413,145.585 164.5,144.5 Z"/></g>
<g><path style="opacity:1" fill="#482525" d="M 145.5,145.5 C 144.92,147.749 143.587,149.415 141.5,150.5C 142.08,148.251 143.413,146.585 145.5,145.5 Z"/></g>
<g><path style="opacity:1" fill="#6a3636" d="M 218.5,148.5 C 224.167,152.167 228.833,156.833 232.5,162.5C 227.5,158.167 222.833,153.5 218.5,148.5 Z"/></g>
<g><path style="opacity:0.047" fill="#f0f0f0" d="M 38.5,96.5 C 37.5928,103.635 36.9262,110.801 36.5,118C 36.6667,121.167 36.8333,124.333 37,127.5C 37.3826,128.056 37.8826,128.389 38.5,128.5C 38.5,130.167 38.5,131.833 38.5,133.5C 38.4095,136.152 39.0762,138.485 40.5,140.5C 40.5,141.167 40.5,141.833 40.5,142.5C 41.0094,147.703 42.6761,152.37 45.5,156.5C 45.5,156.833 45.5,157.167 45.5,157.5C 45.4152,160.649 46.4152,163.316 48.5,165.5C 48.5,166.833 48.5,168.167 48.5,169.5C 35.1056,146.454 31.7723,122.121 38.5,96.5 Z"/></g>
<g><path style="opacity:1" fill="#633232" d="M 288.5,149.5 C 288.245,151.967 287.245,153.967 285.5,155.5C 285.755,153.033 286.755,151.033 288.5,149.5 Z"/></g>
<g><path style="opacity:1" fill="#522929" d="M 139.5,152.5 C 138.92,154.749 137.587,156.415 135.5,157.5C 136.08,155.251 137.413,153.585 139.5,152.5 Z"/></g>
<g><path style="opacity:0.169" fill="#939393" d="M 45.5,157.5 C 47.341,159.849 48.6743,162.515 49.5,165.5C 49.1667,165.5 48.8333,165.5 48.5,165.5C 46.4152,163.316 45.4152,160.649 45.5,157.5 Z"/></g>
<g><path style="opacity:1" fill="#4d2727" d="M 135.5,157.5 C 134.243,160.427 132.243,162.761 129.5,164.5C 130.757,161.573 132.757,159.239 135.5,157.5 Z"/></g>
<g><path style="opacity:1" fill="#592d2d" d="M 129.5,164.5 C 128.92,166.749 127.587,168.415 125.5,169.5C 126.08,167.251 127.413,165.585 129.5,164.5 Z"/></g>
<g><path style="opacity:0.027" fill="#cccccc" d="M 48.5,165.5 C 48.8333,165.5 49.1667,165.5 49.5,165.5C 51.7505,168.999 53.7505,172.665 55.5,176.5C 54.391,176.443 53.391,176.11 52.5,175.5C 50.684,173.882 49.3507,171.882 48.5,169.5C 48.5,168.167 48.5,166.833 48.5,165.5 Z"/></g>
<g><path style="opacity:0.4" fill="#8c8c8c" d="M 294.5,174.5 C 294.573,176.027 293.906,177.027 292.5,177.5C 292.427,175.973 293.094,174.973 294.5,174.5 Z"/></g>
<g><path style="opacity:1" fill="#8a4646" d="M 122.5,173.5 C 122.315,175.196 121.481,176.529 120,177.5C 118.994,181.802 119.494,185.802 121.5,189.5C 120.167,189.5 118.833,189.5 117.5,189.5C 117.335,186.15 117.502,182.817 118,179.5C 118.566,176.771 120.066,174.771 122.5,173.5 Z"/></g>
<g><path style="opacity:0.007" fill="#efefef" d="M 303.5,161.5 C 288.588,193.908 264.255,216.075 230.5,228C 182.511,244.356 136.511,240.023 92.5,215C 75.9812,204.981 62.6478,191.814 52.5,175.5C 53.391,176.11 54.391,176.443 55.5,176.5C 56.9063,176.973 57.573,177.973 57.5,179.5C 58.0798,181.749 59.4131,183.415 61.5,184.5C 63.4302,188.1 66.0969,191.1 69.5,193.5C 76.281,199.956 83.6144,205.623 91.5,210.5C 91.9731,211.906 92.9731,212.573 94.5,212.5C 95.5137,213.674 96.847,214.34 98.5,214.5C 98.9731,215.906 99.9731,216.573 101.5,216.5C 106.349,219.09 111.349,221.424 116.5,223.5C 118.09,225.821 120.423,226.821 123.5,226.5C 125.042,227.301 126.708,227.634 128.5,227.5C 131.505,229.277 134.838,230.277 138.5,230.5C 140.515,231.924 142.848,232.59 145.5,232.5C 148.833,232.833 152.167,233.167 155.5,233.5C 156.263,234.268 157.263,234.768 158.5,235C 177.692,236.35 196.692,235.016 215.5,231C 217.744,230.95 219.411,230.117 220.5,228.5C 225.109,227.244 229.775,226.078 234.5,225C 236.093,224.051 237.426,222.885 238.5,221.5C 243.79,220.359 248.79,218.359 253.5,215.5C 254.298,215.043 254.631,214.376 254.5,213.5C 258.553,210.117 262.886,207.117 267.5,204.5C 270.089,203.581 272.089,201.914 273.5,199.5C 279.55,195.783 284.217,190.783 287.5,184.5C 287.738,182.596 288.738,181.262 290.5,180.5C 291.906,180.027 292.573,179.027 292.5,177.5C 293.906,177.027 294.573,176.027 294.5,174.5C 297.634,171.59 299.801,167.923 301,163.5C 301.708,162.619 302.542,161.953 303.5,161.5 Z"/></g>
<g><path style="opacity:0.212" fill="#a1a1a1" d="M 220.5,228.5 C 219.411,230.117 217.744,230.95 215.5,231C 196.692,235.016 177.692,236.35 158.5,235C 157.263,234.768 156.263,234.268 155.5,233.5C 156.5,233.5 157.5,233.5 158.5,233.5C 179.448,235.405 200.115,233.739 220.5,228.5 Z"/></g>
<g><path style="opacity:0.859" fill="#353535" d="M 145.5,232.5 C 145.5,232.167 145.5,231.833 145.5,231.5C 150.122,231.156 154.455,231.823 158.5,233.5C 157.5,233.5 156.5,233.5 155.5,233.5C 152.167,233.167 148.833,232.833 145.5,232.5 Z"/></g>
<g><path style="opacity:0.455" fill="#8f8f8f" d="M 138.5,230.5 C 140.861,230.674 143.194,231.007 145.5,231.5C 145.5,231.833 145.5,232.167 145.5,232.5C 142.848,232.59 140.515,231.924 138.5,230.5 Z"/></g>
<g><path style="opacity:0.82" fill="#4a4a4a" d="M 128.5,227.5 C 132.162,227.723 135.495,228.723 138.5,230.5C 134.838,230.277 131.505,229.277 128.5,227.5 Z"/></g>
<g><path style="opacity:0.275" fill="#979797" d="M 238.5,221.5 C 237.426,222.885 236.093,224.051 234.5,225C 229.775,226.078 225.109,227.244 220.5,228.5C 226.267,225.796 232.267,223.462 238.5,221.5 Z"/></g>
<g><path style="opacity:0.224" fill="#9a9a9a" d="M 116.5,223.5 C 119.157,223.935 121.491,224.935 123.5,226.5C 120.423,226.821 118.09,225.821 116.5,223.5 Z"/></g>
<g><path style="opacity:0.192" fill="#a0a0a0" d="M 254.5,213.5 C 254.631,214.376 254.298,215.043 253.5,215.5C 248.79,218.359 243.79,220.359 238.5,221.5C 243.516,218.326 248.849,215.659 254.5,213.5 Z"/></g>
<g><path style="opacity:1" fill="#341b1b" d="M 201.5,215.5 C 201.833,215.5 202.167,215.5 202.5,215.5C 198.433,217.054 194.1,217.72 189.5,217.5C 189.5,217.167 189.5,216.833 189.5,216.5C 193.481,215.979 197.481,215.646 201.5,215.5 Z"/></g>
<g><path style="opacity:0.671" fill="#575757" d="M 98.5,214.5 C 100.027,214.427 101.027,215.094 101.5,216.5C 99.9731,216.573 98.9731,215.906 98.5,214.5 Z"/></g>
<g><path style="opacity:1" fill="#683535" d="M 144.5,214.5 C 149.1,214.28 153.433,214.946 157.5,216.5C 152.9,216.72 148.567,216.054 144.5,214.5 Z"/></g>
<g><path style="opacity:1" fill="#a45353" d="M 141.5,212.5 C 150.236,213.123 158.902,214.289 167.5,216C 174.826,216.5 182.159,216.666 189.5,216.5C 189.5,216.833 189.5,217.167 189.5,217.5C 178.752,217.809 168.085,217.476 157.5,216.5C 153.433,214.946 149.1,214.28 144.5,214.5C 143.5,213.833 142.5,213.167 141.5,212.5 Z"/></g>
<g><path style="opacity:1" fill="#562b2b" d="M 137.5,212.5 C 138.833,212.5 140.167,212.5 141.5,212.5C 142.5,213.167 143.5,213.833 144.5,214.5C 141.848,214.59 139.515,213.924 137.5,212.5 Z"/></g>
<g><path style="opacity:1" fill="#6d3737" d="M 217.5,211.5 C 212.745,213.325 207.745,214.658 202.5,215.5C 202.167,215.5 201.833,215.5 201.5,215.5C 206.486,213.297 211.82,211.963 217.5,211.5 Z"/></g>
<g><path style="opacity:0.651" fill="#606060" d="M 91.5,210.5 C 93.0269,210.427 94.0269,211.094 94.5,212.5C 92.9731,212.573 91.9731,211.906 91.5,210.5 Z"/></g>
<g><path style="opacity:1" fill="#562c2c" d="M 127.5,209.5 C 131.162,209.723 134.495,210.723 137.5,212.5C 133.838,212.277 130.505,211.277 127.5,209.5 Z"/></g>
<g><path style="opacity:1" fill="#723a3a" d="M 113.5,203.5 C 118.207,204.36 122.541,206.027 126.5,208.5C 121.57,208.193 117.237,206.527 113.5,203.5 Z"/></g>
<g><path style="opacity:0.255" fill="#9e9e9e" d="M 273.5,199.5 C 272.089,201.914 270.089,203.581 267.5,204.5C 268.911,202.086 270.911,200.419 273.5,199.5 Z"/></g>
<g><path style="opacity:1" fill="#5d2f2f" d="M 243.5,200.5 C 241.967,202.245 239.967,203.245 237.5,203.5C 239.033,201.755 241.033,200.755 243.5,200.5 Z"/></g>
<g><path style="opacity:1" fill="#603131" d="M 249.5,196.5 C 249.027,197.906 248.027,198.573 246.5,198.5C 246.973,197.094 247.973,196.427 249.5,196.5 Z"/></g>
<g><path style="opacity:1" fill="#884545" d="M 101.5,196.5 C 105.2,196.536 107.867,198.203 109.5,201.5C 106.489,200.331 103.822,198.664 101.5,196.5 Z"/></g>
<g><path style="opacity:0.196" fill="#a9a9a9" d="M 287.5,184.5 C 284.217,190.783 279.55,195.783 273.5,199.5C 278.195,194.474 282.861,189.474 287.5,184.5 Z"/></g>
<g><path style="opacity:1" fill="#733a3a" d="M 90.5,188.5 C 92.7488,189.08 94.4154,190.413 95.5,192.5C 93.2512,191.92 91.5846,190.587 90.5,188.5 Z"/></g>
<g><path style="opacity:0.2" fill="#8d8d8d" d="M 61.5,184.5 C 64.9031,186.9 67.5698,189.9 69.5,193.5C 66.0969,191.1 63.4302,188.1 61.5,184.5 Z"/></g>
<g><path style="opacity:0.318" fill="#949494" d="M 57.5,179.5 C 59.5869,180.585 60.9202,182.251 61.5,184.5C 59.4131,183.415 58.0798,181.749 57.5,179.5 Z"/></g>
<g><path style="opacity:1" fill="#492525" d="M 273.5,175.5 C 272.243,178.427 270.243,180.761 267.5,182.5C 268.757,179.573 270.757,177.239 273.5,175.5 Z"/></g>
<g><path style="opacity:0.373" fill="#909090" d="M 292.5,177.5 C 292.573,179.027 291.906,180.027 290.5,180.5C 290.427,178.973 291.094,177.973 292.5,177.5 Z"/></g>
</svg>
