<?xml version="1.0" encoding="UTF-8"?>
<!DOCTYPE svg PUBLIC "-//W3C//DTD SVG 1.1//EN" "http://www.w3.org/Graphics/SVG/1.1/DTD/svg11.dtd">
<svg xmlns="http://www.w3.org/2000/svg" version="1.1" width="295px" height="304px" style="shape-rendering:geometricPrecision; text-rendering:geometricPrecision; image-rendering:optimizeQuality; fill-rule:evenodd; clip-rule:evenodd" xmlns:xlink="http://www.w3.org/1999/xlink">
<g><path style="opacity:0.482" fill="#919292" d="M 147.5,64.5 C 147.5,64.8333 147.5,65.1667 147.5,65.5C 136.81,65.3215 126.143,65.6548 115.5,66.5C 114.833,66.5 114.167,66.5 113.5,66.5C 115.292,65.6909 117.292,65.1909 119.5,65C 128.827,64.5002 138.161,64.3335 147.5,64.5 Z"/></g>
<g><path style="opacity:0.443" fill="#757575" d="M 149.5,65.5 C 156.175,65.3337 162.842,65.5004 169.5,66C 171.058,66.21 172.391,66.71 173.5,67.5C 165.34,67.0048 157.34,66.3381 149.5,65.5 Z"/></g>
<g><path style="opacity:0.902" fill="#484a4b" d="M 113.5,66.5 C 114.167,66.5 114.833,66.5 115.5,66.5C 111.79,68.1357 107.79,68.8023 103.5,68.5C 103.5,68.1667 103.5,67.8333 103.5,67.5C 106.807,66.9492 110.14,66.6159 113.5,66.5 Z"/></g>
<g><path style="opacity:0.773" fill="#656565" d="M 103.5,67.5 C 103.5,67.8333 103.5,68.1667 103.5,68.5C 97.412,69.7501 91.412,71.4168 85.5,73.5C 90.8256,69.8553 96.8256,67.8553 103.5,67.5 Z"/></g>
<g><path style="opacity:0.97" fill="#1e2021" d="M 147.5,65.5 C 148.167,65.5 148.833,65.5 149.5,65.5C 157.34,66.3381 165.34,67.0048 173.5,67.5C 181.788,68.6434 189.454,71.4767 196.5,76C 197.46,79.73 197.793,83.5633 197.5,87.5C 196.833,89.8333 196.167,92.1667 195.5,94.5C 195.795,92.2646 195.461,90.2646 194.5,88.5C 194.5,86.5 194.5,84.5 194.5,82.5C 193.209,82.2627 192.209,82.596 191.5,83.5C 191.167,83.5 190.833,83.5 190.5,83.5C 188.033,83.7549 186.033,84.7549 184.5,86.5C 181.37,86.6997 178.37,87.3664 175.5,88.5C 157.667,91.8756 139.667,93.2089 121.5,92.5C 115.466,92.1141 109.466,91.4474 103.5,90.5C 97.9584,89.0967 92.6251,87.0967 87.5,84.5C 87.189,83.5222 86.5223,82.8555 85.5,82.5C 84.3058,84.5156 84.3058,86.5156 85.5,88.5C 85.0339,92.162 85.7006,95.4954 87.5,98.5C 85.3248,102.028 84.9915,105.695 86.5,109.5C 87.041,118.491 87.3744,127.491 87.5,136.5C 86.6745,132.018 86.1745,127.351 86,122.5C 85.5005,128.491 85.3338,134.491 85.5,140.5C 85.1667,140.5 84.8333,140.5 84.5,140.5C 84.5,138.167 84.5,135.833 84.5,133.5C 83.6262,113.839 83.4595,94.1725 84,74.5C 84.3826,73.944 84.8826,73.6107 85.5,73.5C 91.412,71.4168 97.412,69.7501 103.5,68.5C 107.79,68.8023 111.79,68.1357 115.5,66.5C 126.143,65.6548 136.81,65.3215 147.5,65.5 Z"/></g>
<g><path style="opacity:1" fill="#52768d" d="M 173.5,84.5 C 173.5,84.8333 173.5,85.1667 173.5,85.5C 165.301,86.422 157.301,87.7553 149.5,89.5C 136.495,90.6771 123.495,90.6771 110.5,89.5C 108.162,87.9605 105.495,87.2938 102.5,87.5C 100.302,87.8799 98.6354,87.2132 97.5,85.5C 111.098,83.2893 124.765,81.6227 138.5,80.5C 150.385,80.8203 162.052,82.1536 173.5,84.5 Z"/></g>
<g><path style="opacity:1" fill="#607f93" d="M 161.5,69.5 C 173.041,69.2679 183.708,71.9346 193.5,77.5C 193.5,78.5 193.5,79.5 193.5,80.5C 186.833,81.8333 180.167,83.1667 173.5,84.5C 162.052,82.1536 150.385,80.8203 138.5,80.5C 124.765,81.6227 111.098,83.2893 97.5,85.5C 93.7779,84.3562 90.2779,82.6896 87,80.5C 85.9231,77.7383 86.7564,76.0717 89.5,75.5C 92.1522,75.5905 94.4855,74.9238 96.5,73.5C 99.1522,73.5905 101.485,72.9238 103.5,71.5C 122.763,69.6938 142.096,69.0271 161.5,69.5 Z"/></g>
<g><path style="opacity:1" fill="#435560" d="M 96.5,73.5 C 94.4855,74.9238 92.1522,75.5905 89.5,75.5C 91.5145,74.0762 93.8478,73.4095 96.5,73.5 Z"/></g>
<g><path style="opacity:1" fill="#40525e" d="M 103.5,71.5 C 101.485,72.9238 99.1522,73.5905 96.5,73.5C 98.5145,72.0762 100.848,71.4095 103.5,71.5 Z"/></g>
<g><path style="opacity:1" fill="#485b68" d="M 161.5,69.5 C 142.096,69.0271 122.763,69.6938 103.5,71.5C 107.264,70.1682 111.264,69.3349 115.5,69C 131.006,68.1721 146.339,68.3388 161.5,69.5 Z"/></g>
<g><path style="opacity:1" fill="#7d7560" d="M 87.5,84.5 C 86.5655,85.5676 86.2322,86.901 86.5,88.5C 86.1667,88.5 85.8333,88.5 85.5,88.5C 84.3058,86.5156 84.3058,84.5156 85.5,82.5C 86.5223,82.8555 87.189,83.5222 87.5,84.5 Z"/></g>
<g><path style="opacity:1" fill="#666457" d="M 190.5,83.5 C 188.967,85.2451 186.967,86.2451 184.5,86.5C 186.033,84.7549 188.033,83.7549 190.5,83.5 Z"/></g>
<g><path style="opacity:1" fill="#625d51" d="M 191.5,83.5 C 192.209,82.596 193.209,82.2627 194.5,82.5C 194.5,84.5 194.5,86.5 194.5,88.5C 194.167,88.5 193.833,88.5 193.5,88.5C 193.923,86.2188 193.256,84.5521 191.5,83.5 Z"/></g>
<g><path style="opacity:1" fill="#aa9e80" d="M 87.5,84.5 C 92.6251,87.0967 97.9584,89.0967 103.5,90.5C 109.155,92.7759 115.155,93.7759 121.5,93.5C 138.288,94.1535 154.955,93.1535 171.5,90.5C 166.732,92.3829 162.066,94.5496 157.5,97C 158.793,97.49 160.127,97.6567 161.5,97.5C 160.167,98.1667 158.833,98.8333 157.5,99.5C 155.833,99.5 154.167,99.5 152.5,99.5C 135.284,100.398 118.284,99.0648 101.5,95.5C 100.432,94.5655 99.099,94.2322 97.5,94.5C 94.4034,92.6199 91.07,91.2865 87.5,90.5C 87.1667,89.8333 86.8333,89.1667 86.5,88.5C 86.2322,86.901 86.5655,85.5676 87.5,84.5 Z"/></g>
<g><path style="opacity:1" fill="#1e282e" d="M 173.5,85.5 C 165.961,88.7367 157.961,90.0701 149.5,89.5C 157.301,87.7553 165.301,86.422 173.5,85.5 Z"/></g>
<g><path style="opacity:1" fill="#2d3f49" d="M 102.5,87.5 C 105.495,87.2938 108.162,87.9605 110.5,89.5C 107.572,89.4349 104.905,88.7682 102.5,87.5 Z"/></g>
<g><path style="opacity:1" fill="#625c4c" d="M 175.5,88.5 C 174.329,89.3446 172.995,90.0113 171.5,90.5C 154.955,93.1535 138.288,94.1535 121.5,93.5C 121.5,93.1667 121.5,92.8333 121.5,92.5C 139.667,93.2089 157.667,91.8756 175.5,88.5 Z"/></g>
<g><path style="opacity:1" fill="#58666a" d="M 87.5,90.5 C 91.07,91.2865 94.4034,92.6199 97.5,94.5C 94.7835,94.3215 92.1168,93.8215 89.5,93C 88.244,92.5831 87.5774,91.7498 87.5,90.5 Z"/></g>
<g><path style="opacity:1" fill="#6e6755" d="M 103.5,90.5 C 109.466,91.4474 115.466,92.1141 121.5,92.5C 121.5,92.8333 121.5,93.1667 121.5,93.5C 115.155,93.7759 109.155,92.7759 103.5,90.5 Z"/></g>
<g><path style="opacity:1" fill="#d3caaf" d="M 192.5,88.5 C 188.947,89.5174 185.614,91.0174 182.5,93C 178.595,94.3591 174.595,95.1924 170.5,95.5C 169.127,95.6567 167.793,95.49 166.5,95C 173.192,90.7675 180.525,88.1008 188.5,87C 189.931,86.5348 191.097,85.7014 192,84.5C 192.49,85.7932 192.657,87.1266 192.5,88.5 Z"/></g>
<g><path style="opacity:1" fill="#666c69" d="M 192.5,88.5 C 192.833,88.5 193.167,88.5 193.5,88.5C 193.5,91.8333 193.5,95.1667 193.5,98.5C 193.167,98.5 192.833,98.5 192.5,98.5C 192.5,95.8333 192.5,93.1667 192.5,90.5C 187.329,92.9488 181.996,95.1154 176.5,97C 172.661,97.236 168.994,98.0693 165.5,99.5C 162.833,99.5 160.167,99.5 157.5,99.5C 158.833,98.8333 160.167,98.1667 161.5,97.5C 164.781,97.5797 167.781,96.913 170.5,95.5C 174.595,95.1924 178.595,94.3591 182.5,93C 185.614,91.0174 188.947,89.5174 192.5,88.5 Z"/></g>
<g><path style="opacity:1" fill="#52758b" d="M 85.5,88.5 C 85.8333,88.5 86.1667,88.5 86.5,88.5C 86.8333,89.1667 87.1667,89.8333 87.5,90.5C 87.5774,91.7498 88.244,92.5831 89.5,93C 92.1168,93.8215 94.7835,94.3215 97.5,94.5C 99.099,94.2322 100.432,94.5655 101.5,95.5C 104.607,97.828 108.274,99.328 112.5,100C 116.486,100.499 120.486,100.666 124.5,100.5C 136.655,101.495 148.989,101.829 161.5,101.5C 157.186,103.657 152.853,105.824 148.5,108C 149.793,108.49 151.127,108.657 152.5,108.5C 129.693,112.939 108.027,109.606 87.5,98.5C 85.7006,95.4954 85.0339,92.162 85.5,88.5 Z"/></g>
<g><path style="opacity:1" fill="#c3b99f" d="M 190.5,83.5 C 190.833,83.5 191.167,83.5 191.5,83.5C 193.256,84.5521 193.923,86.2188 193.5,88.5C 193.167,88.5 192.833,88.5 192.5,88.5C 192.657,87.1266 192.49,85.7932 192,84.5C 191.097,85.7014 189.931,86.5348 188.5,87C 180.525,88.1008 173.192,90.7675 166.5,95C 167.793,95.49 169.127,95.6567 170.5,95.5C 167.781,96.913 164.781,97.5797 161.5,97.5C 160.127,97.6567 158.793,97.49 157.5,97C 162.066,94.5496 166.732,92.3829 171.5,90.5C 172.995,90.0113 174.329,89.3446 175.5,88.5C 178.37,87.3664 181.37,86.6997 184.5,86.5C 186.967,86.2451 188.967,85.2451 190.5,83.5 Z"/></g>
<g><path style="opacity:1" fill="#738fa0" d="M 192.5,98.5 C 179.649,103.713 166.315,107.046 152.5,108.5C 151.127,108.657 149.793,108.49 148.5,108C 152.853,105.824 157.186,103.657 161.5,101.5C 162.995,101.011 164.329,100.345 165.5,99.5C 168.994,98.0693 172.661,97.236 176.5,97C 181.996,95.1154 187.329,92.9488 192.5,90.5C 192.5,93.1667 192.5,95.8333 192.5,98.5 Z"/></g>
<g><path style="opacity:1" fill="#5f6765" d="M 101.5,95.5 C 118.284,99.0648 135.284,100.398 152.5,99.5C 143.348,100.494 134.015,100.827 124.5,100.5C 120.486,100.666 116.486,100.499 112.5,100C 108.274,99.328 104.607,97.828 101.5,95.5 Z"/></g>
<g><path style="opacity:0.647" fill="#5d5d5d" d="M 197.5,87.5 C 196.923,100.681 195.923,113.681 194.5,126.5C 194.686,115.828 195.019,105.161 195.5,94.5C 196.167,92.1667 196.833,89.8333 197.5,87.5 Z"/></g>
<g><path style="opacity:1" fill="#d4cbb1" d="M 187.5,102.5 C 188.833,102.5 190.167,102.5 191.5,102.5C 191.5,104.167 191.5,105.833 191.5,107.5C 187.917,108.797 184.584,110.463 181.5,112.5C 176.278,113.387 171.278,114.721 166.5,116.5C 161.474,117.007 156.474,117.674 151.5,118.5C 140.73,118.953 130.063,118.453 119.5,117C 123.397,116.776 127.064,115.776 130.5,114C 137.308,113.117 143.975,112.283 150.5,111.5C 150.833,111.5 151.167,111.5 151.5,111.5C 154.85,111.665 158.183,111.498 161.5,111C 162.416,110.722 163.082,110.222 163.5,109.5C 165.415,109.784 167.081,109.451 168.5,108.5C 171.698,109.036 174.365,108.369 176.5,106.5C 180.708,106.323 184.374,104.99 187.5,102.5 Z"/></g>
<g><path style="opacity:1" fill="#9f9a85" d="M 150.5,111.5 C 143.975,112.283 137.308,113.117 130.5,114C 127.064,115.776 123.397,116.776 119.5,117C 130.063,118.453 140.73,118.953 151.5,118.5C 134.077,121.124 117.077,119.457 100.5,113.5C 98.4855,112.076 96.1522,111.41 93.5,111.5C 91.0283,110.091 88.695,108.424 86.5,106.5C 86.3379,104.473 86.5045,102.473 87,100.5C 94.4826,106.219 102.983,109.385 112.5,110C 125.12,111.374 137.787,111.874 150.5,111.5 Z"/></g>
<g><path style="opacity:1" fill="#a6a08d" d="M 176.5,106.5 C 174.365,108.369 171.698,109.036 168.5,108.5C 170.905,107.232 173.572,106.565 176.5,106.5 Z"/></g>
<g><path style="opacity:0.009" fill="#e6e6e6" d="M 166.5,64.5 C 160.167,64.5 153.833,64.5 147.5,64.5C 138.161,64.3335 128.827,64.5002 119.5,65C 117.292,65.1909 115.292,65.6909 113.5,66.5C 110.14,66.6159 106.807,66.9492 103.5,67.5C 96.8256,67.8553 90.8256,69.8553 85.5,73.5C 84.8826,73.6107 84.3826,73.944 84,74.5C 83.4595,94.1725 83.6262,113.839 84.5,133.5C 83.5056,143.987 83.1722,154.654 83.5,165.5C 82.3197,136.979 80.9864,108.312 79.5,79.5C 80.891,73.6066 84.5576,69.7732 90.5,68C 115.76,62.2082 141.093,61.0415 166.5,64.5 Z"/></g>
<g><path style="opacity:1" fill="#394143" d="M 87.5,98.5 C 108.027,109.606 129.693,112.939 152.5,108.5C 166.315,107.046 179.649,103.713 192.5,98.5C 192.833,98.5 193.167,98.5 193.5,98.5C 193.81,101.713 193.477,104.713 192.5,107.5C 192.808,105.076 192.474,102.743 191.5,100.5C 189.974,100.994 188.641,101.661 187.5,102.5C 183.605,103.462 179.939,104.796 176.5,106.5C 173.572,106.565 170.905,107.232 168.5,108.5C 167.081,109.451 165.415,109.784 163.5,109.5C 159.295,109.717 155.295,110.383 151.5,111.5C 151.167,111.5 150.833,111.5 150.5,111.5C 137.787,111.874 125.12,111.374 112.5,110C 102.983,109.385 94.4826,106.219 87,100.5C 86.5045,102.473 86.3379,104.473 86.5,106.5C 86.5,107.5 86.5,108.5 86.5,109.5C 84.9915,105.695 85.3248,102.028 87.5,98.5 Z"/></g>
<g><path style="opacity:1" fill="#999583" d="M 187.5,102.5 C 184.374,104.99 180.708,106.323 176.5,106.5C 179.939,104.796 183.605,103.462 187.5,102.5 Z"/></g>
<g><path style="opacity:1" fill="#928f80" d="M 192.5,107.5 C 192.167,107.5 191.833,107.5 191.5,107.5C 191.5,105.833 191.5,104.167 191.5,102.5C 190.167,102.5 188.833,102.5 187.5,102.5C 188.641,101.661 189.974,100.994 191.5,100.5C 192.474,102.743 192.808,105.076 192.5,107.5 Z"/></g>
<g><path style="opacity:1" fill="#41545e" d="M 152.5,99.5 C 154.167,99.5 155.833,99.5 157.5,99.5C 160.167,99.5 162.833,99.5 165.5,99.5C 164.329,100.345 162.995,101.011 161.5,101.5C 148.989,101.829 136.655,101.495 124.5,100.5C 134.015,100.827 143.348,100.494 152.5,99.5 Z"/></g>
<g><path style="opacity:1" fill="#507289" d="M 86.5,106.5 C 88.695,108.424 91.0283,110.091 93.5,111.5C 93.3334,134.502 93.5,157.502 94,180.5C 94.4265,196.891 95.4265,213.225 97,229.5C 100.573,232.748 104.407,235.581 108.5,238C 118.288,240.596 127.955,243.596 137.5,247C 143.491,247.499 149.491,247.666 155.5,247.5C 153.031,248.317 150.365,248.817 147.5,249C 139.173,249.5 130.84,249.666 122.5,249.5C 118.433,247.946 114.1,247.28 109.5,247.5C 109.167,247.5 108.833,247.5 108.5,247.5C 106.898,245.926 104.898,245.259 102.5,245.5C 100.898,243.926 98.8984,243.259 96.5,243.5C 94.7708,242.883 93.2708,241.883 92,240.5C 90.9807,205.899 89.4807,171.232 87.5,136.5C 87.3744,127.491 87.041,118.491 86.5,109.5C 86.5,108.5 86.5,107.5 86.5,106.5 Z"/></g>
<g><path style="opacity:1" fill="#979280" d="M 163.5,109.5 C 163.082,110.222 162.416,110.722 161.5,111C 158.183,111.498 154.85,111.665 151.5,111.5C 155.295,110.383 159.295,109.717 163.5,109.5 Z"/></g>
<g><path style="opacity:1" fill="#7a97a9" d="M 191.5,107.5 C 191.5,108.167 191.5,108.833 191.5,109.5C 190.244,109.461 189.244,109.961 188.5,111C 189.153,115.586 189.487,120.253 189.5,125C 189.535,133.576 188.868,142.076 187.5,150.5C 182.891,174.139 180.058,198.139 179,222.5C 175.007,237.088 165.507,242.921 150.5,240C 142.177,239.115 134.511,236.448 127.5,232C 124.667,227.833 121.167,224.333 117,221.5C 115.375,217.668 114.375,213.668 114,209.5C 113.554,202.811 112.887,196.144 112,189.5C 111,188.833 110,188.167 109,187.5C 108.756,182.05 107.923,176.717 106.5,171.5C 107.71,171.932 108.71,172.599 109.5,173.5C 109.334,177.846 109.501,182.179 110,186.5C 110.414,186.957 110.914,187.291 111.5,187.5C 112.484,184.572 112.817,181.572 112.5,178.5C 113.28,175.042 114.947,172.042 117.5,169.5C 120.482,169.037 123.482,168.704 126.5,168.5C 126.5,167.5 126.5,166.5 126.5,165.5C 125.167,165.5 123.833,165.5 122.5,165.5C 115.909,162.36 112.243,157.027 111.5,149.5C 110.533,152.763 109.199,155.763 107.5,158.5C 108.61,147.913 107.277,137.579 103.5,127.5C 102.817,127.863 102.15,128.196 101.5,128.5C 101.703,126.956 102.37,125.622 103.5,124.5C 102.717,122.712 101.384,121.712 99.5,121.5C 101.756,120.535 103.423,118.868 104.5,116.5C 102.668,115.943 101.335,114.943 100.5,113.5C 117.077,119.457 134.077,121.124 151.5,118.5C 156.474,117.674 161.474,117.007 166.5,116.5C 170.188,116.219 173.855,115.719 177.5,115C 179.32,114.8 180.653,113.966 181.5,112.5C 184.584,110.463 187.917,108.797 191.5,107.5 Z"/></g>
<g><path style="opacity:1" fill="#8b928e" d="M 181.5,112.5 C 180.653,113.966 179.32,114.8 177.5,115C 173.855,115.719 170.188,116.219 166.5,116.5C 171.278,114.721 176.278,113.387 181.5,112.5 Z"/></g>
<g><path style="opacity:1" fill="#c6cac1" d="M 99.5,121.5 C 101.384,121.712 102.717,122.712 103.5,124.5C 102.37,125.622 101.703,126.956 101.5,128.5C 100.686,130.631 100.186,132.964 100,135.5C 99.8105,131.83 98.9772,128.33 97.5,125C 97.9783,123.697 98.645,122.531 99.5,121.5 Z"/></g>
<g><path style="opacity:1" fill="#3b4953" d="M 191.5,107.5 C 191.833,107.5 192.167,107.5 192.5,107.5C 192.603,114.386 191.936,121.053 190.5,127.5C 190.593,121.484 190.926,115.484 191.5,109.5C 191.5,108.833 191.5,108.167 191.5,107.5 Z"/></g>
<g><path style="opacity:0.078" fill="#d3d3d3" d="M 147.5,65.5 C 147.5,65.1667 147.5,64.8333 147.5,64.5C 153.833,64.5 160.167,64.5 166.5,64.5C 178.096,65.3095 188.929,68.6428 199,74.5C 199.704,76.2784 200.204,78.1118 200.5,80C 198.343,103.477 196.676,126.977 195.5,150.5C 193.891,162.807 192.558,175.141 191.5,187.5C 192.358,167.154 193.358,146.82 194.5,126.5C 195.923,113.681 196.923,100.681 197.5,87.5C 197.793,83.5633 197.46,79.73 196.5,76C 189.454,71.4767 181.788,68.6434 173.5,67.5C 172.391,66.71 171.058,66.21 169.5,66C 162.842,65.5004 156.175,65.3337 149.5,65.5C 148.833,65.5 148.167,65.5 147.5,65.5 Z"/></g>
<g><path style="opacity:1" fill="#5c7484" d="M 191.5,109.5 C 190.926,115.484 190.593,121.484 190.5,127.5C 190.5,133.167 190.5,138.833 190.5,144.5C 189.167,159.167 187.833,173.833 186.5,188.5C 186.345,175.815 186.678,163.149 187.5,150.5C 188.868,142.076 189.535,133.576 189.5,125C 189.487,120.253 189.153,115.586 188.5,111C 189.244,109.961 190.244,109.461 191.5,109.5 Z"/></g>
<g><path style="opacity:1" fill="#688599" d="M 93.5,111.5 C 96.1522,111.41 98.4855,112.076 100.5,113.5C 101.335,114.943 102.668,115.943 104.5,116.5C 103.423,118.868 101.756,120.535 99.5,121.5C 98.645,122.531 97.9783,123.697 97.5,125C 98.9772,128.33 99.8105,131.83 100,135.5C 100.186,132.964 100.686,130.631 101.5,128.5C 102.15,128.196 102.817,127.863 103.5,127.5C 107.277,137.579 108.61,147.913 107.5,158.5C 107.5,158.833 107.5,159.167 107.5,159.5C 104.878,161.719 101.878,163.386 98.5,164.5C 97.5713,165.689 97.238,167.022 97.5,168.5C 100.237,168.401 102.904,168.735 105.5,169.5C 105.833,170.167 106.167,170.833 106.5,171.5C 107.923,176.717 108.756,182.05 109,187.5C 110,188.167 111,188.833 112,189.5C 112.887,196.144 113.554,202.811 114,209.5C 114.375,213.668 115.375,217.668 117,221.5C 121.167,224.333 124.667,227.833 127.5,232C 134.511,236.448 142.177,239.115 150.5,240C 165.507,242.921 175.007,237.088 179,222.5C 180.058,198.139 182.891,174.139 187.5,150.5C 186.678,163.149 186.345,175.815 186.5,188.5C 186.5,194.167 186.5,199.833 186.5,205.5C 186.5,205.833 186.5,206.167 186.5,206.5C 184.841,217.288 184.174,228.288 184.5,239.5C 180.844,241.321 177.177,242.987 173.5,244.5C 170.273,244.676 167.273,245.343 164.5,246.5C 161.518,246.963 158.518,247.296 155.5,247.5C 149.491,247.666 143.491,247.499 137.5,247C 127.955,243.596 118.288,240.596 108.5,238C 104.407,235.581 100.573,232.748 97,229.5C 95.4265,213.225 94.4265,196.891 94,180.5C 93.5,157.502 93.3334,134.502 93.5,111.5 Z"/></g>
<g><path style="opacity:0.571" fill="#7d7d7d" d="M 84.5,140.5 C 84.8333,140.5 85.1667,140.5 85.5,140.5C 86.0352,159.162 86.3685,177.829 86.5,196.5C 84.8744,178.025 84.2078,159.359 84.5,140.5 Z"/></g>
<g><path style="opacity:0.035" fill="#e7e7e7" d="M 84.5,133.5 C 84.5,135.833 84.5,138.167 84.5,140.5C 84.2078,159.359 84.8744,178.025 86.5,196.5C 87.2901,211.82 87.6234,227.153 87.5,242.5C 87.8333,244.833 89.1667,246.167 91.5,246.5C 92.1667,246.833 92.8333,247.167 93.5,247.5C 93.9731,248.906 94.9731,249.573 96.5,249.5C 97.8333,249.833 99.1667,250.167 100.5,250.5C 102.102,252.074 104.102,252.741 106.5,252.5C 108.905,253.768 111.572,254.435 114.5,254.5C 116.292,255.309 118.292,255.809 120.5,256C 128.493,256.5 136.493,256.666 144.5,256.5C 150.21,256.529 155.877,256.029 161.5,255C 162.416,254.722 163.082,254.222 163.5,253.5C 169.843,253.055 175.509,251.055 180.5,247.5C 181.514,246.326 182.847,245.66 184.5,245.5C 186.404,245.262 187.738,244.262 188.5,242.5C 188.205,235.412 188.538,228.412 189.5,221.5C 190.999,210.702 191.666,199.702 191.5,188.5C 191.5,188.167 191.5,187.833 191.5,187.5C 192.558,175.141 193.891,162.807 195.5,150.5C 194.194,181.529 192.361,212.529 190,243.5C 180.705,251.493 169.872,255.993 157.5,257C 137.508,259.966 117.842,258.632 98.5,253C 94.1266,251.287 90.2933,248.787 87,245.5C 85.7446,238.941 85.0779,232.274 85,225.5C 84.288,205.504 83.788,185.504 83.5,165.5C 83.1722,154.654 83.5056,143.987 84.5,133.5 Z"/></g>
<g><path style="opacity:0.518" fill="#858585" d="M 191.5,188.5 C 191.666,199.702 190.999,210.702 189.5,221.5C 189.472,210.306 190.139,199.306 191.5,188.5 Z"/></g>
<g><path style="opacity:0.998" fill="#131415" d="M 193.5,88.5 C 193.833,88.5 194.167,88.5 194.5,88.5C 195.461,90.2646 195.795,92.2646 195.5,94.5C 195.019,105.161 194.686,115.828 194.5,126.5C 193.358,146.82 192.358,167.154 191.5,187.5C 191.5,187.833 191.5,188.167 191.5,188.5C 190.139,199.306 189.472,210.306 189.5,221.5C 188.538,228.412 188.205,235.412 188.5,242.5C 186.596,242.738 185.262,243.738 184.5,245.5C 182.847,245.66 181.514,246.326 180.5,247.5C 173.918,250.14 167.252,252.14 160.5,253.5C 158.283,254.369 155.95,254.702 153.5,254.5C 140.493,255.649 127.493,255.649 114.5,254.5C 111.572,254.435 108.905,253.768 106.5,252.5C 104.898,250.926 102.898,250.259 100.5,250.5C 99.1667,250.167 97.8333,249.833 96.5,249.5C 96.0269,248.094 95.0269,247.427 93.5,247.5C 92.8333,247.167 92.1667,246.833 91.5,246.5C 90.5,244.833 89.1667,243.5 87.5,242.5C 87.6234,227.153 87.2901,211.82 86.5,196.5C 86.3685,177.829 86.0352,159.162 85.5,140.5C 85.3338,134.491 85.5005,128.491 86,122.5C 86.1745,127.351 86.6745,132.018 87.5,136.5C 89.4807,171.232 90.9807,205.899 92,240.5C 93.2708,241.883 94.7708,242.883 96.5,243.5C 98.1016,245.074 100.102,245.741 102.5,245.5C 104.102,247.074 106.102,247.741 108.5,247.5C 108.833,247.5 109.167,247.5 109.5,247.5C 113.567,249.054 117.9,249.72 122.5,249.5C 130.84,249.666 139.173,249.5 147.5,249C 150.365,248.817 153.031,248.317 155.5,247.5C 158.518,247.296 161.518,246.963 164.5,246.5C 167.829,246.785 170.829,246.118 173.5,244.5C 177.177,242.987 180.844,241.321 184.5,239.5C 185.934,228.698 186.601,217.698 186.5,206.5C 186.5,206.167 186.5,205.833 186.5,205.5C 188.637,185.369 189.97,165.035 190.5,144.5C 190.5,138.833 190.5,133.167 190.5,127.5C 191.936,121.053 192.603,114.386 192.5,107.5C 193.477,104.713 193.81,101.713 193.5,98.5C 193.5,95.1667 193.5,91.8333 193.5,88.5 Z"/></g>
<g><path style="opacity:1" fill="#36434b" d="M 186.5,206.5 C 186.601,217.698 185.934,228.698 184.5,239.5C 184.174,228.288 184.841,217.288 186.5,206.5 Z"/></g>
<g><path style="opacity:1" fill="#e2e0ce" d="M 157.5,194.5 C 158.5,194.5 159.5,194.5 160.5,194.5C 160.338,196.527 160.505,198.527 161,200.5C 162.353,201.685 163.52,203.019 164.5,204.5C 162.807,205.228 161.307,206.228 160,207.5C 159.682,219.209 158.349,219.209 156,207.5C 154.933,206.057 153.766,204.724 152.5,203.5C 155.103,201.031 156.769,198.031 157.5,194.5 Z"/></g>
<g><path style="opacity:1" fill="#b0bbb9" d="M 109.5,173.5 C 110.324,177.312 110.824,181.312 111,185.5C 111.186,182.964 111.686,180.631 112.5,178.5C 112.817,181.572 112.484,184.572 111.5,187.5C 110.914,187.291 110.414,186.957 110,186.5C 109.501,182.179 109.334,177.846 109.5,173.5 Z"/></g>
<g><path style="opacity:1" fill="#1f262b" d="M 190.5,144.5 C 189.97,165.035 188.637,185.369 186.5,205.5C 186.5,199.833 186.5,194.167 186.5,188.5C 187.833,173.833 189.167,159.167 190.5,144.5 Z"/></g>
<g><path style="opacity:1" fill="#a5b5b9" d="M 122.5,165.5 C 123.833,165.5 125.167,165.5 126.5,165.5C 126.5,166.5 126.5,167.5 126.5,168.5C 123.482,168.704 120.482,169.037 117.5,169.5C 119.349,168.407 121.016,167.074 122.5,165.5 Z"/></g>
<g><path style="opacity:1" fill="#b8c0ba" d="M 107.5,159.5 C 107.631,160.239 107.464,160.906 107,161.5C 104.704,163.057 102.538,164.724 100.5,166.5C 102.544,167.065 104.21,168.065 105.5,169.5C 102.904,168.735 100.237,168.401 97.5,168.5C 97.238,167.022 97.5713,165.689 98.5,164.5C 101.878,163.386 104.878,161.719 107.5,159.5 Z"/></g>
<g><path style="opacity:1" fill="#f2ecd4" d="M 122.5,165.5 C 121.016,167.074 119.349,168.407 117.5,169.5C 114.947,172.042 113.28,175.042 112.5,178.5C 111.686,180.631 111.186,182.964 111,185.5C 110.824,181.312 110.324,177.312 109.5,173.5C 108.71,172.599 107.71,171.932 106.5,171.5C 106.167,170.833 105.833,170.167 105.5,169.5C 104.21,168.065 102.544,167.065 100.5,166.5C 102.538,164.724 104.704,163.057 107,161.5C 107.464,160.906 107.631,160.239 107.5,159.5C 107.5,159.167 107.5,158.833 107.5,158.5C 109.199,155.763 110.533,152.763 111.5,149.5C 112.243,157.027 115.909,162.36 122.5,165.5 Z"/></g>
<g><path style="opacity:1" fill="#9bafb5" d="M 175.5,137.5 C 175.246,141.331 173.912,144.665 171.5,147.5C 170.52,144.914 170.187,142.247 170.5,139.5C 171.29,140.609 171.79,141.942 172,143.5C 173.082,141.382 174.249,139.382 175.5,137.5 Z"/></g>
<g><path style="opacity:1" fill="#d6d8ca" d="M 175.5,137.5 C 174.249,139.382 173.082,141.382 172,143.5C 171.79,141.942 171.29,140.609 170.5,139.5C 169.883,137.771 168.883,136.271 167.5,135C 168.793,134.51 170.127,134.343 171.5,134.5C 171.201,132.396 171.534,130.396 172.5,128.5C 173.104,131.263 174.438,133.597 176.5,135.5C 176.137,136.183 175.804,136.85 175.5,137.5 Z"/></g>
<g><path style="opacity:0.173" fill="#afafaf" d="M 87.5,242.5 C 89.1667,243.5 90.5,244.833 91.5,246.5C 89.1667,246.167 87.8333,244.833 87.5,242.5 Z"/></g>
<g><path style="opacity:0.231" fill="#acacac" d="M 188.5,242.5 C 187.738,244.262 186.404,245.262 184.5,245.5C 185.262,243.738 186.596,242.738 188.5,242.5 Z"/></g>
<g><path style="opacity:1" fill="#344753" d="M 96.5,243.5 C 98.8984,243.259 100.898,243.926 102.5,245.5C 100.102,245.741 98.1016,245.074 96.5,243.5 Z"/></g>
<g><path style="opacity:1" fill="#344149" d="M 173.5,244.5 C 170.829,246.118 167.829,246.785 164.5,246.5C 167.273,245.343 170.273,244.676 173.5,244.5 Z"/></g>
<g><path style="opacity:1" fill="#2a3942" d="M 102.5,245.5 C 104.898,245.259 106.898,245.926 108.5,247.5C 106.102,247.741 104.102,247.074 102.5,245.5 Z"/></g>
<g><path style="opacity:0.502" fill="#808080" d="M 93.5,247.5 C 95.0269,247.427 96.0269,248.094 96.5,249.5C 94.9731,249.573 93.9731,248.906 93.5,247.5 Z"/></g>
<g><path style="opacity:1" fill="#29373f" d="M 109.5,247.5 C 114.1,247.28 118.433,247.946 122.5,249.5C 117.9,249.72 113.567,249.054 109.5,247.5 Z"/></g>
<g><path style="opacity:0.435" fill="#707070" d="M 180.5,247.5 C 175.509,251.055 169.843,253.055 163.5,253.5C 162.5,253.5 161.5,253.5 160.5,253.5C 167.252,252.14 173.918,250.14 180.5,247.5 Z"/></g>
<g><path style="opacity:0.776" fill="#494949" d="M 100.5,250.5 C 102.898,250.259 104.898,250.926 106.5,252.5C 104.102,252.741 102.102,252.074 100.5,250.5 Z"/></g>
<g><path style="opacity:0.563" fill="#6e6e6e" d="M 114.5,254.5 C 127.493,255.649 140.493,255.649 153.5,254.5C 150.5,255.167 147.5,255.833 144.5,256.5C 136.493,256.666 128.493,256.5 120.5,256C 118.292,255.809 116.292,255.309 114.5,254.5 Z"/></g>
<g><path style="opacity:0.202" fill="#bfbfbf" d="M 160.5,253.5 C 161.5,253.5 162.5,253.5 163.5,253.5C 163.082,254.222 162.416,254.722 161.5,255C 155.877,256.029 150.21,256.529 144.5,256.5C 147.5,255.833 150.5,255.167 153.5,254.5C 155.95,254.702 158.283,254.369 160.5,253.5 Z"/></g>
</svg>
