<?xml version="1.0" encoding="UTF-8"?>
<!DOCTYPE svg PUBLIC "-//W3C//DTD SVG 1.1//EN" "http://www.w3.org/Graphics/SVG/1.1/DTD/svg11.dtd">
<svg xmlns="http://www.w3.org/2000/svg" version="1.1" width="136px" height="129px" style="shape-rendering:geometricPrecision; text-rendering:geometricPrecision; image-rendering:optimizeQuality; fill-rule:evenodd; clip-rule:evenodd" xmlns:xlink="http://www.w3.org/1999/xlink">
<g><path style="opacity:0.031" fill="#e5e5e5" d="M 48.5,79.5 C 50.7253,88.4018 51.7253,97.4018 51.5,106.5C 49.5,107.5 47.5,108.5 45.5,109.5C 40.7748,108.854 36.2748,107.521 32,105.5C 25.4988,80.1618 18.9988,54.8284 12.5,29.5C 13.6032,21.1134 18.2699,17.9468 26.5,20C 27.6667,21.1667 28.8333,22.3333 30,23.5C 36.1854,42.2744 42.352,60.9411 48.5,79.5 Z"/></g>
<g><path style="opacity:0.549" fill="#8b8b8a" d="M 25.5,22.5 C 21.8875,21.9238 18.8875,22.9238 16.5,25.5C 16.5106,23.9826 17.1772,22.8159 18.5,22C 21.0385,21.2042 23.3718,21.3709 25.5,22.5 Z"/></g>
<g><path style="opacity:1" fill="#8b7e6c" d="M 26.5,27.5 C 23.5513,25.8746 21.5513,26.708 20.5,30C 21.7173,32.368 22.5506,34.868 23,37.5C 25.0065,38.6687 27.1732,39.3354 29.5,39.5C 29.5,38.5 29.5,37.5 29.5,36.5C 30.4345,37.5676 30.7678,38.901 30.5,40.5C 26.9682,40.31 23.6348,40.9767 20.5,42.5C 19.5293,37.4544 18.6959,32.4544 18,27.5C 19.6658,24.6212 22.1658,23.7879 25.5,25C 26.2524,25.6708 26.5858,26.5041 26.5,27.5 Z"/></g>
<g><path style="opacity:0.033" fill="#e5e5e5" d="M 78.5,78.5 C 78.1667,78.5 77.8333,78.5 77.5,78.5C 77.5,72.5 77.5,66.5 77.5,60.5C 78.5827,51.0067 78.5827,41.6734 77.5,32.5C 76.0384,31.5423 74.7051,30.3756 73.5,29C 71.8659,28.5065 70.1992,28.3398 68.5,28.5C 66.9826,28.5106 65.8159,29.1772 65,30.5C 63.8011,33.7256 63.3011,37.059 63.5,40.5C 62.111,45.2688 61.4443,50.2688 61.5,55.5C 60.6983,67.8502 59.6983,80.1836 58.5,92.5C 58.5,93.8333 58.5,95.1667 58.5,96.5C 57.8333,96.5 57.5,96.8333 57.5,97.5C 56.5184,100.962 56.185,104.629 56.5,108.5C 58.099,108.768 59.4324,108.434 60.5,107.5C 64.5,107.5 68.5,107.5 72.5,107.5C 76.1667,107.5 79.8333,107.5 83.5,107.5C 74.1386,109.472 64.6386,109.806 55,108.5C 56.2695,85.4677 58.2695,62.4677 61,39.5C 60.4708,28.6786 65.3041,24.512 75.5,27C 77.8102,28.6374 79.3102,30.804 80,33.5C 79.4795,48.483 78.9795,63.483 78.5,78.5 Z"/></g>
<g><path style="opacity:1" fill="#a8b886" d="M 68.5,31.5 C 69.4959,31.4142 70.3292,31.7476 71,32.5C 71.6667,36.5 71.6667,40.5 71,44.5C 69.1978,45.7893 68.0312,47.4559 67.5,49.5C 66.1883,47.2568 65.5217,44.5902 65.5,41.5C 65.6667,38.8333 65.8333,36.1667 66,33.5C 66.7083,32.6195 67.5416,31.9528 68.5,31.5 Z"/></g>
<g><path style="opacity:1" fill="#8fa06a" d="M 68.5,31.5 C 69.5676,30.5655 70.901,30.2322 72.5,30.5C 74.9754,31.6874 75.9754,33.6874 75.5,36.5C 74.5151,40.6344 74.1818,44.9677 74.5,49.5C 72.1667,49.5 69.8333,49.5 67.5,49.5C 68.0312,47.4559 69.1978,45.7893 71,44.5C 71.6667,40.5 71.6667,36.5 71,32.5C 70.3292,31.7476 69.4959,31.4142 68.5,31.5 Z"/></g>
<g><path style="opacity:1" fill="#aa9b89" d="M 26.5,27.5 C 27.1667,27.5 27.5,27.8333 27.5,28.5C 28.1667,31.1667 28.8333,33.8333 29.5,36.5C 29.5,37.5 29.5,38.5 29.5,39.5C 27.1732,39.3354 25.0065,38.6687 23,37.5C 22.5506,34.868 21.7173,32.368 20.5,30C 21.5513,26.708 23.5513,25.8746 26.5,27.5 Z"/></g>
<g><path style="opacity:0.008" fill="#dfdfde" d="M 108.5,56.5 C 108.5,55.1667 108.5,53.8333 108.5,52.5C 110.215,46.7363 112.215,41.0697 114.5,35.5C 116.547,28.0297 113.547,24.5297 105.5,25C 102.865,26.9605 101.031,29.4605 100,32.5C 97.6283,39.8031 94.795,46.8031 91.5,53.5C 86.8007,65.9066 81.8007,78.2399 76.5,90.5C 75.7288,80.6697 75.7288,70.6697 76.5,60.5C 76.8333,60.5 77.1667,60.5 77.5,60.5C 77.5,66.5 77.5,72.5 77.5,78.5C 77.8333,81.1667 78.1667,81.1667 78.5,78.5C 85.8906,62.0391 93.0573,45.3724 100,28.5C 103.016,22.628 107.516,21.128 113.5,24C 115.63,26.2609 116.964,28.9275 117.5,32C 115.363,40.5867 112.363,48.7534 108.5,56.5 Z"/></g>
<g><path style="opacity:1" fill="#6f7f4c" d="M 113.5,30.5 C 112.454,36.3187 110.454,41.652 107.5,46.5C 105.317,43.9683 102.65,42.3017 99.5,41.5C 102.059,41.6104 104.392,40.9438 106.5,39.5C 107.137,37.6969 108.303,36.3636 110,35.5C 110.495,33.5273 110.662,31.5273 110.5,29.5C 108.5,29.1667 106.5,28.8333 104.5,28.5C 106.808,26.2276 109.475,25.8943 112.5,27.5C 112.263,28.791 112.596,29.791 113.5,30.5 Z"/></g>
<g><path style="opacity:1" fill="#8b9d65" d="M 104.5,28.5 C 106.5,28.8333 108.5,29.1667 110.5,29.5C 110.662,31.5273 110.495,33.5273 110,35.5C 108.303,36.3636 107.137,37.6969 106.5,39.5C 104.392,40.9438 102.059,41.6104 99.5,41.5C 100.418,36.7821 102.085,32.4488 104.5,28.5 Z"/></g>
<g><path style="opacity:0.712" fill="#50524c" d="M 68.5,28.5 C 70.1992,28.3398 71.8659,28.5065 73.5,29C 74.7051,30.3756 76.0384,31.5423 77.5,32.5C 77.8235,39.0221 77.4902,45.3554 76.5,51.5C 76.81,48.2869 76.4767,45.2869 75.5,42.5C 75.5,40.5 75.5,38.5 75.5,36.5C 75.9754,33.6874 74.9754,31.6874 72.5,30.5C 71.1667,29.8333 69.8333,29.1667 68.5,28.5 Z"/></g>
<g><path style="opacity:0.882" fill="#5e5952" d="M 28.5,25.5 C 29.1174,25.6107 29.6174,25.944 30,26.5C 31.3741,33.6649 33.2074,40.6649 35.5,47.5C 35.5,48.1667 35.5,48.8333 35.5,49.5C 34.6618,49.8417 34.3284,50.5084 34.5,51.5C 33.7487,48.754 32.7487,46.0873 31.5,43.5C 28.1966,42.0958 25.1966,42.7625 22.5,45.5C 22.2178,44.2223 21.5511,43.2223 20.5,42.5C 23.6348,40.9767 26.9682,40.31 30.5,40.5C 30.7678,38.901 30.4345,37.5676 29.5,36.5C 28.8333,33.8333 28.1667,31.1667 27.5,28.5C 28.404,27.791 28.7373,26.791 28.5,25.5 Z"/></g>
<g><path style="opacity:0.996" fill="#3d4134" d="M 114.5,35.5 C 114.851,32.9588 114.518,31.2921 113.5,30.5C 112.596,29.791 112.263,28.791 112.5,27.5C 109.475,25.8943 106.808,26.2276 104.5,28.5C 102.085,32.4488 100.418,36.7821 99.5,41.5C 102.65,42.3017 105.317,43.9683 107.5,46.5C 106.833,46.5 106.5,46.8333 106.5,47.5C 100.198,42.409 96.5314,43.7423 95.5,51.5C 94.8333,52.1667 94.1667,52.8333 93.5,53.5C 93.0623,52.4937 92.3957,52.4937 91.5,53.5C 94.795,46.8031 97.6283,39.8031 100,32.5C 101.031,29.4605 102.865,26.9605 105.5,25C 113.547,24.5297 116.547,28.0297 114.5,35.5 Z"/></g>
<g><path style="opacity:1" fill="#6f7f4b" d="M 106.5,47.5 C 107.573,48.2506 107.74,49.2506 107,50.5C 99.8662,68.3701 92.6995,86.0368 85.5,103.5C 82.1667,103.5 78.8333,103.5 75.5,103.5C 75.5,102.5 75.5,101.5 75.5,100.5C 79.1322,90.2528 83.1322,80.2528 87.5,70.5C 85.8376,76.2748 84.5042,82.2748 83.5,88.5C 85.9032,88.607 87.7365,87.607 89,85.5C 89.9203,82.8987 90.587,80.2321 91,77.5C 93.8143,71.9266 96.481,66.2599 99,60.5C 100.574,55.6158 101.407,50.6158 101.5,45.5C 100.448,45.3505 99.448,45.5172 98.5,46C 97.7709,48.0581 96.7709,49.8914 95.5,51.5C 96.5314,43.7423 100.198,42.409 106.5,47.5 Z"/></g>
<g><path style="opacity:1" fill="#a69885" d="M 31.5,43.5 C 32.7487,46.0873 33.7487,48.754 34.5,51.5C 36.6579,59.7982 38.6579,68.1315 40.5,76.5C 41.1621,80.4659 41.4955,84.4659 41.5,88.5C 40.1779,88.67 39.0113,88.3366 38,87.5C 35.7376,76.7706 32.4043,66.4373 28,56.5C 27.3333,52.5 27.3333,48.5 28,44.5C 29.0113,43.6634 30.1779,43.33 31.5,43.5 Z"/></g>
<g><path style="opacity:1" fill="#889a62" d="M 87.5,70.5 C 89.8823,65.0226 91.8823,59.3559 93.5,53.5C 94.1667,52.8333 94.8333,52.1667 95.5,51.5C 96.7709,49.8914 97.7709,48.0581 98.5,46C 99.448,45.5172 100.448,45.3505 101.5,45.5C 101.407,50.6158 100.574,55.6158 99,60.5C 96.481,66.2599 93.8143,71.9266 91,77.5C 90.587,80.2321 89.9203,82.8987 89,85.5C 87.7365,87.607 85.9032,88.607 83.5,88.5C 84.5042,82.2748 85.8376,76.2748 87.5,70.5 Z"/></g>
<g><path style="opacity:0.18" fill="#b9b9b9" d="M 35.5,47.5 C 38.3303,52.3314 39.997,57.6647 40.5,63.5C 38.8333,58.8333 37.1667,54.1667 35.5,49.5C 35.5,48.8333 35.5,48.1667 35.5,47.5 Z"/></g>
<g><path style="opacity:1" fill="#626a4f" d="M 68.5,28.5 C 69.8333,29.1667 71.1667,29.8333 72.5,30.5C 70.901,30.2322 69.5676,30.5655 68.5,31.5C 67.5416,31.9528 66.7083,32.6195 66,33.5C 65.8333,36.1667 65.6667,38.8333 65.5,41.5C 65.5217,44.5902 66.1883,47.2568 67.5,49.5C 69.8333,49.5 72.1667,49.5 74.5,49.5C 74.1818,44.9677 74.5151,40.6344 75.5,36.5C 75.5,38.5 75.5,40.5 75.5,42.5C 75.7359,45.6085 75.4025,48.6085 74.5,51.5C 72.1667,51.5 69.8333,51.5 67.5,51.5C 66.5,51.5 65.5,51.5 64.5,51.5C 64.8128,47.9581 64.4794,44.6248 63.5,41.5C 63.5,41.1667 63.5,40.8333 63.5,40.5C 63.3011,37.059 63.8011,33.7256 65,30.5C 65.8159,29.1772 66.9826,28.5106 68.5,28.5 Z"/></g>
<g><path style="opacity:0.133" fill="#bbbbbb" d="M 77.5,32.5 C 78.5827,41.6734 78.5827,51.0067 77.5,60.5C 77.1667,60.5 76.8333,60.5 76.5,60.5C 76.5,59.5 76.5,58.5 76.5,57.5C 76.5,55.5 76.5,53.5 76.5,51.5C 77.4902,45.3554 77.8235,39.0221 77.5,32.5 Z"/></g>
<g><path style="opacity:0.984" fill="#272922" d="M 114.5,35.5 C 112.215,41.0697 110.215,46.7363 108.5,52.5C 100.786,69.6415 94.4522,87.3081 89.5,105.5C 87.8333,105.5 86.1667,105.5 84.5,105.5C 84.5,105.167 84.5,104.833 84.5,104.5C 85.1667,104.5 85.5,104.167 85.5,103.5C 92.6995,86.0368 99.8662,68.3701 107,50.5C 107.74,49.2506 107.573,48.2506 106.5,47.5C 106.5,46.8333 106.833,46.5 107.5,46.5C 110.454,41.652 112.454,36.3187 113.5,30.5C 114.518,31.2921 114.851,32.9588 114.5,35.5 Z"/></g>
<g><path style="opacity:0.553" fill="#878786" d="M 63.5,40.5 C 63.5,40.8333 63.5,41.1667 63.5,41.5C 63.4681,46.3907 62.8015,51.0574 61.5,55.5C 61.4443,50.2688 62.111,45.2688 63.5,40.5 Z"/></g>
<g><path style="opacity:1" fill="#a8b885" d="M 64.5,51.5 C 65.5,51.5 66.5,51.5 67.5,51.5C 67.6854,53.1958 68.5187,54.5291 70,55.5C 69.881,70.167 69.381,84.8336 68.5,99.5C 66.8561,99.7135 65.3561,99.3802 64,98.5C 63.5003,91.1742 63.3337,83.8409 63.5,76.5C 64.2881,68.1912 64.6214,59.8578 64.5,51.5 Z"/></g>
<g><path style="opacity:0.969" fill="#4c4843" d="M 25.5,22.5 C 26.1667,23.8333 27.1667,24.8333 28.5,25.5C 28.7373,26.791 28.404,27.791 27.5,28.5C 27.5,27.8333 27.1667,27.5 26.5,27.5C 26.5858,26.5041 26.2524,25.6708 25.5,25C 22.1658,23.7879 19.6658,24.6212 18,27.5C 18.6959,32.4544 19.5293,37.4544 20.5,42.5C 21.5511,43.2223 22.2178,44.2223 22.5,45.5C 25.0388,56.8601 27.7055,68.1934 30.5,79.5C 29.6618,79.8417 29.3284,80.5084 29.5,81.5C 27.5394,76.3437 25.8727,71.0104 24.5,65.5C 24.7406,63.1016 24.0739,61.1016 22.5,59.5C 22.5,59.1667 22.5,58.8333 22.5,58.5C 22.7406,56.1016 22.0739,54.1016 20.5,52.5C 19.3185,45.773 17.8185,39.1063 16,32.5C 15.2042,29.9615 15.3709,27.6282 16.5,25.5C 18.8875,22.9238 21.8875,21.9238 25.5,22.5 Z"/></g>
<g><path style="opacity:0.314" fill="#a6a6a6" d="M 20.5,52.5 C 22.0739,54.1016 22.7406,56.1016 22.5,58.5C 20.9261,56.8984 20.2594,54.8984 20.5,52.5 Z"/></g>
<g><path style="opacity:0.337" fill="#a1a1a1" d="M 22.5,59.5 C 24.0739,61.1016 24.7406,63.1016 24.5,65.5C 22.9261,63.8984 22.2594,61.8984 22.5,59.5 Z"/></g>
<g><path style="opacity:1" fill="#717d57" d="M 64.5,51.5 C 64.6214,59.8578 64.2881,68.1912 63.5,76.5C 63.1667,76.5 62.8333,76.5 62.5,76.5C 62.3709,67.9561 63.0375,59.6228 64.5,51.5 Z"/></g>
<g><path style="opacity:0.071" fill="#dbdbdb" d="M 108.5,52.5 C 108.5,53.8333 108.5,55.1667 108.5,56.5C 102.847,73.6309 96.5135,90.4642 89.5,107C 87.5273,107.495 85.5273,107.662 83.5,107.5C 79.8333,107.5 76.1667,107.5 72.5,107.5C 72.5,107.167 72.5,106.833 72.5,106.5C 76.6002,106.763 80.6002,106.43 84.5,105.5C 86.1667,105.5 87.8333,105.5 89.5,105.5C 94.4522,87.3081 100.786,69.6415 108.5,52.5 Z"/></g>
<g><path style="opacity:1" fill="#8d806d" d="M 31.5,43.5 C 30.1779,43.33 29.0113,43.6634 28,44.5C 27.3333,48.5 27.3333,52.5 28,56.5C 32.4043,66.4373 35.7376,76.7706 38,87.5C 39.0113,88.3366 40.1779,88.67 41.5,88.5C 41.4955,84.4659 41.1621,80.4659 40.5,76.5C 42.7969,80.7628 43.9635,85.4295 44,90.5C 47.0365,94.6369 48.5365,99.3036 48.5,104.5C 44.516,104.531 40.6827,103.864 37,102.5C 35.297,94.5754 33.1303,86.9087 30.5,79.5C 27.7055,68.1934 25.0388,56.8601 22.5,45.5C 25.1966,42.7625 28.1966,42.0958 31.5,43.5 Z"/></g>
<g><path style="opacity:0.004" fill="#fdfefd" d="M 48.5,79.5 C 48.3379,77.4727 48.5045,75.4727 49,73.5C 49.7891,75.7116 49.6225,77.7116 48.5,79.5 Z"/></g>
<g><path style="opacity:0.886" fill="#403e3b" d="M 35.5,49.5 C 37.1667,54.1667 38.8333,58.8333 40.5,63.5C 42.793,71.0873 44.793,78.754 46.5,86.5C 46.7234,90.1621 47.7234,93.4954 49.5,96.5C 51.0268,99.7956 50.6935,102.962 48.5,106C 43.2649,107.052 38.4316,106.219 34,103.5C 32.4988,96.1625 30.9988,88.8292 29.5,81.5C 29.3284,80.5084 29.6618,79.8417 30.5,79.5C 33.1303,86.9087 35.297,94.5754 37,102.5C 40.6827,103.864 44.516,104.531 48.5,104.5C 48.5365,99.3036 47.0365,94.6369 44,90.5C 43.9635,85.4295 42.7969,80.7628 40.5,76.5C 38.6579,68.1315 36.6579,59.7982 34.5,51.5C 34.3284,50.5084 34.6618,49.8417 35.5,49.5 Z"/></g>
<g><path style="opacity:0.961" fill="#353730" d="M 63.5,41.5 C 64.4794,44.6248 64.8128,47.9581 64.5,51.5C 63.0375,59.6228 62.3709,67.9561 62.5,76.5C 61.6862,85.8108 61.0196,95.1442 60.5,104.5C 59.9536,99.3383 59.7869,94.0049 60,88.5C 59.79,90.0581 59.29,91.3915 58.5,92.5C 59.6983,80.1836 60.6983,67.8502 61.5,55.5C 62.8015,51.0574 63.4681,46.3907 63.5,41.5 Z"/></g>
<g><path style="opacity:0.887" fill="#3d4133" d="M 75.5,42.5 C 76.4767,45.2869 76.81,48.2869 76.5,51.5C 76.5,53.5 76.5,55.5 76.5,57.5C 74.7008,69.476 74.3675,81.476 75.5,93.5C 74.828,94.2674 73.9947,94.9341 73,95.5C 73.0704,98.992 72.2371,101.992 70.5,104.5C 72.3257,86.9198 73.6591,69.2531 74.5,51.5C 75.4025,48.6085 75.7359,45.6085 75.5,42.5 Z"/></g>
<g><path style="opacity:0.827" fill="#5b5b5b" d="M 46.5,86.5 C 48.2766,89.5046 49.2766,92.8379 49.5,96.5C 47.7234,93.4954 46.7234,90.1621 46.5,86.5 Z"/></g>
<g><path style="opacity:0.469" fill="#7a7b7a" d="M 76.5,57.5 C 76.5,58.5 76.5,59.5 76.5,60.5C 75.7288,70.6697 75.7288,80.6697 76.5,90.5C 75.8902,91.391 75.5569,92.391 75.5,93.5C 74.3675,81.476 74.7008,69.476 76.5,57.5 Z"/></g>
<g><path style="opacity:1" fill="#8b9b68" d="M 67.5,51.5 C 69.8333,51.5 72.1667,51.5 74.5,51.5C 73.6591,69.2531 72.3257,86.9198 70.5,104.5C 67.1667,104.5 63.8333,104.5 60.5,104.5C 61.0196,95.1442 61.6862,85.8108 62.5,76.5C 62.8333,76.5 63.1667,76.5 63.5,76.5C 63.3337,83.8409 63.5003,91.1742 64,98.5C 65.3561,99.3802 66.8561,99.7135 68.5,99.5C 69.381,84.8336 69.881,70.167 70,55.5C 68.5187,54.5291 67.6854,53.1958 67.5,51.5 Z"/></g>
<g><path style="opacity:0.761" fill="#4d4e4e" d="M 58.5,96.5 C 58.5,99.8333 58.5,103.167 58.5,106.5C 63.1667,106.5 67.8333,106.5 72.5,106.5C 72.5,106.833 72.5,107.167 72.5,107.5C 68.5,107.5 64.5,107.5 60.5,107.5C 59.5,107.5 58.5,107.5 57.5,107.5C 57.5,104.167 57.5,100.833 57.5,97.5C 57.5,96.8333 57.8333,96.5 58.5,96.5 Z"/></g>
<g><path style="opacity:1" fill="#444e2f" d="M 75.5,100.5 C 75.5,101.5 75.5,102.5 75.5,103.5C 78.8333,103.5 82.1667,103.5 85.5,103.5C 85.5,104.167 85.1667,104.5 84.5,104.5C 81.1667,104.5 77.8333,104.5 74.5,104.5C 74.2322,102.901 74.5655,101.568 75.5,100.5 Z"/></g>
<g><path style="opacity:0.388" fill="#b1b1b1" d="M 57.5,97.5 C 57.5,100.833 57.5,104.167 57.5,107.5C 58.5,107.5 59.5,107.5 60.5,107.5C 59.4324,108.434 58.099,108.768 56.5,108.5C 56.185,104.629 56.5184,100.962 57.5,97.5 Z"/></g>
<g><path style="opacity:0.948" fill="#1d1e1b" d="M 93.5,53.5 C 91.8823,59.3559 89.8823,65.0226 87.5,70.5C 83.1322,80.2528 79.1322,90.2528 75.5,100.5C 74.5655,101.568 74.2322,102.901 74.5,104.5C 77.8333,104.5 81.1667,104.5 84.5,104.5C 84.5,104.833 84.5,105.167 84.5,105.5C 80.6002,106.43 76.6002,106.763 72.5,106.5C 67.8333,106.5 63.1667,106.5 58.5,106.5C 58.5,103.167 58.5,99.8333 58.5,96.5C 58.5,95.1667 58.5,93.8333 58.5,92.5C 59.29,91.3915 59.79,90.0581 60,88.5C 59.7869,94.0049 59.9536,99.3383 60.5,104.5C 63.8333,104.5 67.1667,104.5 70.5,104.5C 72.2371,101.992 73.0704,98.992 73,95.5C 73.9947,94.9341 74.828,94.2674 75.5,93.5C 75.5569,92.391 75.8902,91.391 76.5,90.5C 81.8007,78.2399 86.8007,65.9066 91.5,53.5C 92.3957,52.4937 93.0623,52.4937 93.5,53.5 Z"/></g>
</svg>
