<?xml version="1.0" encoding="UTF-8"?>
<!DOCTYPE svg PUBLIC "-//W3C//DTD SVG 1.1//EN" "http://www.w3.org/Graphics/SVG/1.1/DTD/svg11.dtd">
<svg xmlns="http://www.w3.org/2000/svg" version="1.1" width="308px" height="301px" style="shape-rendering:geometricPrecision; text-rendering:geometricPrecision; image-rendering:optimizeQuality; fill-rule:evenodd; clip-rule:evenodd" xmlns:xlink="http://www.w3.org/1999/xlink">
<g><path style="opacity:0.712" fill="#0a0a0a" d="M 148.5,20.5 C 181.609,21.1324 204.109,36.7991 216,67.5C 223.007,102.523 210.84,128.356 179.5,145C 178.941,145.725 178.608,146.558 178.5,147.5C 188.835,193.007 200.168,238.173 212.5,283C 212.561,284.711 211.894,286.044 210.5,287C 174.167,287.667 137.833,287.667 101.5,287C 100.069,286.535 98.9025,285.701 98,284.5C 98.8289,281.586 99.8289,278.586 101,275.5C 110.362,231.854 119.529,188.187 128.5,144.5C 106.229,136.05 92.7286,120.05 88,96.5C 84.5071,63.9798 97.3404,40.4798 126.5,26C 133.763,23.3206 141.097,21.4872 148.5,20.5 Z"/></g>
<g><path style="opacity:1" fill="#f8f8f8" d="M 198.5,70.5 C 197.5,70.5 196.5,70.5 195.5,70.5C 195.759,68.0107 194.759,66.344 192.5,65.5C 188.494,59.6959 182.827,56.6959 175.5,56.5C 171.827,56.9533 168.16,57.4533 164.5,58C 162.945,60.255 161.945,62.755 161.5,65.5C 160.637,67.8783 159.137,69.8783 157,71.5C 155.324,68.871 153.824,66.2044 152.5,63.5C 141.428,57.2837 130.094,56.9504 118.5,62.5C 116.974,65.6538 116.307,68.9872 116.5,72.5C 109.5,72.5 102.5,72.5 95.5,72.5C 95.5516,69.6538 96.5516,67.3204 98.5,65.5C 100.074,63.8984 100.741,61.8984 100.5,59.5C 101.906,59.0269 102.573,58.0269 102.5,56.5C 108.498,45.1448 117.498,36.9781 129.5,32C 159.708,22.1961 184.208,30.0294 203,55.5C 205.017,59.3928 206.517,63.3928 207.5,67.5C 204.402,68.2163 201.402,69.2163 198.5,70.5 Z"/></g>
<g><path style="opacity:1" fill="#828282" d="M 102.5,56.5 C 102.573,58.0269 101.906,59.0269 100.5,59.5C 100.427,57.9731 101.094,56.9731 102.5,56.5 Z"/></g>
<g><path style="opacity:1" fill="#a6a6a6" d="M 100.5,59.5 C 100.741,61.8984 100.074,63.8984 98.5,65.5C 98.2594,63.1016 98.9261,61.1016 100.5,59.5 Z"/></g>
<g><path style="opacity:1" fill="#f2f2f2" d="M 188.5,68.5 C 189.344,72.0991 189.677,75.7657 189.5,79.5C 185.013,85.5752 179.013,88.0752 171.5,87C 166.381,82.8822 164.048,77.5489 164.5,71C 164.522,67.9136 164.855,64.9136 165.5,62C 171.167,61.3333 176.833,61.3333 182.5,62C 185.409,63.4055 187.409,65.5722 188.5,68.5 Z"/></g>
<g><path style="opacity:1" fill="#f2f2f2" d="M 142.5,86.5 C 135.933,86.4912 129.6,85.3246 123.5,83C 121.157,77.4297 120.157,71.5964 120.5,65.5C 130.306,61.3615 139.973,61.5282 149.5,66C 150.892,71.9277 150.392,77.761 148,83.5C 146.736,85.607 144.903,86.607 142.5,86.5 Z"/></g>
<g><path style="opacity:1" fill="#191919" d="M 174.5,68.5 C 180.367,68.2056 182.033,70.8723 179.5,76.5C 172.411,77.6146 170.744,74.948 174.5,68.5 Z"/></g>
<g><path style="opacity:1" fill="#0f0f0f" d="M 131.5,76.5 C 131.448,74.0971 131.781,71.7638 132.5,69.5C 134.288,68.3775 136.288,68.2109 138.5,69C 140.793,75.0226 138.793,78.0226 132.5,78C 131.944,77.6174 131.611,77.1174 131.5,76.5 Z"/></g>
<g><path style="opacity:1" fill="#a4a4a4" d="M 192.5,65.5 C 194.759,66.344 195.759,68.0107 195.5,70.5C 196.5,70.5 197.5,70.5 198.5,70.5C 197.432,71.4345 196.099,71.7678 194.5,71.5C 194.386,69.2821 193.72,67.2821 192.5,65.5 Z"/></g>
<g><path style="opacity:1" fill="#acacac" d="M 152.5,63.5 C 153.824,66.2044 155.324,68.871 157,71.5C 159.137,69.8783 160.637,67.8783 161.5,65.5C 161.326,67.861 160.993,70.1944 160.5,72.5C 158.194,72.9926 155.861,73.3259 153.5,73.5C 153.658,70.0977 153.324,66.7644 152.5,63.5 Z"/></g>
<g><path style="opacity:1" fill="#b0b0b0" d="M 188.5,68.5 C 190.876,69.512 191.876,71.3454 191.5,74C 191.607,76.2206 190.94,78.0539 189.5,79.5C 189.677,75.7657 189.344,72.0991 188.5,68.5 Z"/></g>
<g><path style="opacity:1" fill="#a9a9a9" d="M 210.5,75.5 C 210.5,76.8333 210.5,78.1667 210.5,79.5C 209.691,77.7078 209.191,75.7078 209,73.5C 208.439,72.9781 207.772,72.6448 207,72.5C 203.283,74.0182 199.449,75.0182 195.5,75.5C 196.172,78.9419 195.172,81.6086 192.5,83.5C 193.578,80.5979 194.244,77.5979 194.5,74.5C 199.754,73.0824 205.087,72.0824 210.5,71.5C 210.5,72.8333 210.5,74.1667 210.5,75.5 Z"/></g>
<g><path style="opacity:1" fill="#626262" d="M 132.5,69.5 C 131.781,71.7638 131.448,74.0971 131.5,76.5C 130.853,75.7261 130.52,74.7261 130.5,73.5C 130.34,71.6455 131.007,70.3121 132.5,69.5 Z"/></g>
<g><path style="opacity:1" fill="#fdfdfd" d="M 210.5,79.5 C 210.653,85.8692 210.32,92.2026 209.5,98.5C 203.749,118.612 191.082,132.612 171.5,140.5C 170.386,143.156 170.386,145.823 171.5,148.5C 171.41,151.152 172.076,153.485 173.5,155.5C 174.025,160.6 175.025,165.6 176.5,170.5C 176.41,173.152 177.076,175.485 178.5,177.5C 179.19,182.257 180.19,186.924 181.5,191.5C 181.41,194.152 182.076,196.485 183.5,198.5C 184.19,203.257 185.19,207.924 186.5,212.5C 186.41,215.152 187.076,217.485 188.5,219.5C 189.19,224.257 190.19,228.924 191.5,233.5C 191.41,236.152 192.076,238.485 193.5,240.5C 195.857,251.927 198.524,263.26 201.5,274.5C 201.286,276.144 201.62,277.644 202.5,279C 170.997,279.831 139.664,279.664 108.5,278.5C 108.724,274.821 109.058,271.154 109.5,267.5C 110.924,265.485 111.59,263.152 111.5,260.5C 112.552,256.574 113.218,252.574 113.5,248.5C 114.924,246.485 115.59,244.152 115.5,241.5C 116.552,237.574 117.218,233.574 117.5,229.5C 118.924,227.485 119.59,225.152 119.5,222.5C 121.763,212.187 123.763,201.854 125.5,191.5C 126.117,191.389 126.617,191.056 127,190.5C 129.539,177.473 132.205,164.473 135,151.5C 135.805,148.304 135.638,145.304 134.5,142.5C 119.279,135.902 107.946,125.236 100.5,110.5C 100.245,108.033 99.2451,106.033 97.5,104.5C 97.634,102.708 97.3007,101.042 96.5,99.5C 95.6502,92.2015 95.3169,84.8681 95.5,77.5C 102.167,77.5 108.833,77.5 115.5,77.5C 115.337,79.8568 115.503,82.1902 116,84.5C 116.708,85.3805 117.542,86.0472 118.5,86.5C 121.481,89.4876 125.148,91.1543 129.5,91.5C 134.985,92.6517 140.651,92.8184 146.5,92C 147.942,91.6232 148.942,90.7899 149.5,89.5C 151.969,88.3933 152.969,86.3933 152.5,83.5C 152.5,83.1667 152.5,82.8333 152.5,82.5C 154.28,81.0101 154.946,79.0101 154.5,76.5C 156.167,76.5 157.833,76.5 159.5,76.5C 160.434,77.5676 160.768,78.901 160.5,80.5C 160.427,82.0269 161.094,83.0269 162.5,83.5C 162.241,85.9893 163.241,87.656 165.5,88.5C 175.728,93.6725 184.728,92.0059 192.5,83.5C 195.172,81.6086 196.172,78.9419 195.5,75.5C 199.449,75.0182 203.283,74.0182 207,72.5C 207.772,72.6448 208.439,72.9781 209,73.5C 209.191,75.7078 209.691,77.7078 210.5,79.5 Z"/></g>
<g><path style="opacity:1" fill="#aaaaaa" d="M 95.5,77.5 C 102.313,76.5088 109.313,76.1755 116.5,76.5C 116.155,80.1151 116.822,83.4484 118.5,86.5C 117.542,86.0472 116.708,85.3805 116,84.5C 115.503,82.1902 115.337,79.8568 115.5,77.5C 108.833,77.5 102.167,77.5 95.5,77.5 Z"/></g>
<g><path style="opacity:1" fill="#a2a2a2" d="M 120.5,65.5 C 120.157,71.5964 121.157,77.4297 123.5,83C 129.6,85.3246 135.933,86.4912 142.5,86.5C 135.692,88.1036 129.026,87.2702 122.5,84C 120.996,82.5093 120.163,80.676 120,78.5C 119.186,73.9796 119.353,69.6463 120.5,65.5 Z"/></g>
<g><path style="opacity:1" fill="#909090" d="M 159.5,76.5 C 157.833,76.5 156.167,76.5 154.5,76.5C 154.946,79.0101 154.28,81.0101 152.5,82.5C 151.747,76.4635 154.08,74.4635 159.5,76.5 Z"/></g>
<g><path style="opacity:1" fill="#828282" d="M 160.5,80.5 C 161.906,80.9731 162.573,81.9731 162.5,83.5C 161.094,83.0269 160.427,82.0269 160.5,80.5 Z"/></g>
<g><path style="opacity:1" fill="#555555" d="M 210.5,75.5 C 211.654,81.987 211.821,88.6536 211,95.5C 210.768,96.7375 210.268,97.7375 209.5,98.5C 210.32,92.2026 210.653,85.8692 210.5,79.5C 210.5,78.1667 210.5,76.8333 210.5,75.5 Z"/></g>
<g><path style="opacity:1" fill="#a6a6a6" d="M 152.5,83.5 C 152.969,86.3933 151.969,88.3933 149.5,89.5C 150.13,87.2504 151.13,85.2504 152.5,83.5 Z"/></g>
<g><path style="opacity:1" fill="#a9a9a9" d="M 162.5,83.5 C 163.89,84.8993 164.89,86.5659 165.5,88.5C 163.241,87.656 162.241,85.9893 162.5,83.5 Z"/></g>
<g><path style="opacity:1" fill="#b8b8b8" d="M 149.5,89.5 C 148.942,90.7899 147.942,91.6232 146.5,92C 140.651,92.8184 134.985,92.6517 129.5,91.5C 136.317,91.9357 142.984,91.2691 149.5,89.5 Z"/></g>
<g><path style="opacity:1" fill="#8a8a8a" d="M 95.5,77.5 C 95.3169,84.8681 95.6502,92.2015 96.5,99.5C 95.7321,98.7375 95.2321,97.7375 95,96.5C 94.18,89.9863 94.3467,83.6529 95.5,77.5 Z"/></g>
<g><path style="opacity:1" fill="#565656" d="M 152.5,105.5 C 157.316,104.35 162.316,104.184 167.5,105C 168.8,106.579 168.466,107.745 166.5,108.5C 166.5,107.5 166.5,106.5 166.5,105.5C 161.833,105.5 157.167,105.5 152.5,105.5 Z"/></g>
<g><path style="opacity:1" fill="#0b0b0b" d="M 152.5,105.5 C 157.167,105.5 161.833,105.5 166.5,105.5C 166.5,106.5 166.5,107.5 166.5,108.5C 159.468,108.83 152.468,108.497 145.5,107.5C 147.608,106.056 149.941,105.39 152.5,105.5 Z"/></g>
<g><path style="opacity:1" fill="#7d7d7d" d="M 97.5,104.5 C 99.2451,106.033 100.245,108.033 100.5,110.5C 98.7549,108.967 97.7549,106.967 97.5,104.5 Z"/></g>
<g><path style="opacity:1" fill="#8c8c8c" d="M 134.5,142.5 C 135.638,145.304 135.805,148.304 135,151.5C 132.205,164.473 129.539,177.473 127,190.5C 126.617,191.056 126.117,191.389 125.5,191.5C 128.629,175.189 131.629,158.856 134.5,142.5 Z"/></g>
<g><path style="opacity:1" fill="#656565" d="M 171.5,148.5 C 172.924,150.515 173.59,152.848 173.5,155.5C 172.076,153.485 171.41,151.152 171.5,148.5 Z"/></g>
<g><path style="opacity:1" fill="#727272" d="M 176.5,170.5 C 177.924,172.515 178.59,174.848 178.5,177.5C 177.076,175.485 176.41,173.152 176.5,170.5 Z"/></g>
<g><path style="opacity:1" fill="#717171" d="M 181.5,191.5 C 182.924,193.515 183.59,195.848 183.5,198.5C 182.076,196.485 181.41,194.152 181.5,191.5 Z"/></g>
<g><path style="opacity:1" fill="#707070" d="M 186.5,212.5 C 187.924,214.515 188.59,216.848 188.5,219.5C 187.076,217.485 186.41,215.152 186.5,212.5 Z"/></g>
<g><path style="opacity:1" fill="#616161" d="M 119.5,222.5 C 119.59,225.152 118.924,227.485 117.5,229.5C 117.41,226.848 118.076,224.515 119.5,222.5 Z"/></g>
<g><path style="opacity:1" fill="#757575" d="M 191.5,233.5 C 192.924,235.515 193.59,237.848 193.5,240.5C 192.076,238.485 191.41,236.152 191.5,233.5 Z"/></g>
<g><path style="opacity:1" fill="#616161" d="M 115.5,241.5 C 115.59,244.152 114.924,246.485 113.5,248.5C 113.41,245.848 114.076,243.515 115.5,241.5 Z"/></g>
<g><path style="opacity:1" fill="#666666" d="M 111.5,260.5 C 111.59,263.152 110.924,265.485 109.5,267.5C 109.41,264.848 110.076,262.515 111.5,260.5 Z"/></g>
<g><path style="opacity:1" fill="#c7c7c7" d="M 201.5,274.5 C 202.738,276.214 203.405,278.214 203.5,280.5C 171.493,280.833 139.493,280.5 107.5,279.5C 107.624,278.893 107.957,278.56 108.5,278.5C 139.664,279.664 170.997,279.831 202.5,279C 201.62,277.644 201.286,276.144 201.5,274.5 Z"/></g>
</svg>
