<?xml version="1.0" encoding="UTF-8"?>
<!DOCTYPE svg PUBLIC "-//W3C//DTD SVG 1.1//EN" "http://www.w3.org/Graphics/SVG/1.1/DTD/svg11.dtd">
<svg xmlns="http://www.w3.org/2000/svg" version="1.1" width="350px" height="330px" style="shape-rendering:geometricPrecision; text-rendering:geometricPrecision; image-rendering:optimizeQuality; fill-rule:evenodd; clip-rule:evenodd" xmlns:xlink="http://www.w3.org/1999/xlink">
<g><path style="opacity:0.999" fill="#0f0f0f" d="M 222.5,242.5 C 224.073,252.457 226.407,262.124 229.5,271.5C 230.073,277.455 231.407,283.122 233.5,288.5C 233.809,291.596 234.809,294.429 236.5,297C 235.944,298.011 235.278,298.844 234.5,299.5C 198.498,299.667 162.498,299.5 126.5,299C 125.978,298.439 125.645,297.772 125.5,297C 128.245,290.112 129.912,282.945 130.5,275.5C 133.592,264.781 135.925,253.781 137.5,242.5C 138.913,239.781 139.58,236.781 139.5,233.5C 139.216,231.585 139.549,229.919 140.5,228.5C 146.275,205.056 151.608,181.39 156.5,157.5C 136.758,150.923 123.924,137.589 118,117.5C 110.693,84.624 121.527,59.7907 150.5,43C 180.953,31.3548 207.12,37.5215 229,61.5C 244.029,83.9716 245.362,107.305 233,131.5C 225.586,143.305 215.419,151.972 202.5,157.5C 202.167,158.333 201.833,159.167 201.5,160C 208.138,187.721 215.138,215.221 222.5,242.5 Z"/></g>
<g><path style="opacity:1" fill="#fbfbfb" d="M 227.5,290.5 C 227.5,291.5 227.5,292.5 227.5,293.5C 198.662,293.169 169.995,293.502 141.5,294.5C 138.833,294.5 136.167,294.5 133.5,294.5C 142.091,249.293 151.091,204.127 160.5,159C 160.561,157.289 159.894,155.956 158.5,155C 131.069,142.317 118.402,120.817 120.5,90.5C 127.5,90.5 134.5,90.5 141.5,90.5C 141.429,95.405 143.096,99.5716 146.5,103C 155.398,105.837 164.398,106.17 173.5,104C 177.269,100.294 179.269,95.7944 179.5,90.5C 181.604,90.2011 183.604,90.5344 185.5,91.5C 191.086,106.532 200.753,109.698 214.5,101C 217.923,98.3209 219.923,94.8209 220.5,90.5C 225.031,87.4342 230.031,85.7675 235.5,85.5C 240.085,118.044 227.419,140.878 197.5,154C 196.903,155.062 196.57,156.228 196.5,157.5C 206.679,201.884 217.013,246.217 227.5,290.5 Z"/></g>
<g><path style="opacity:0.011" fill="#e2e2e2" d="M 222.5,242.5 C 215.138,215.221 208.138,187.721 201.5,160C 201.833,159.167 202.167,158.333 202.5,157.5C 215.419,151.972 225.586,143.305 233,131.5C 245.362,107.305 244.029,83.9716 229,61.5C 207.12,37.5215 180.953,31.3548 150.5,43C 121.527,59.7907 110.693,84.624 118,117.5C 123.924,137.589 136.758,150.923 156.5,157.5C 151.608,181.39 146.275,205.056 140.5,228.5C 144.214,204.977 148.881,181.644 154.5,158.5C 148.648,157.159 143.315,154.659 138.5,151C 110.642,125.681 105.808,96.5138 124,63.5C 145.944,35.8549 173.444,28.3549 206.5,41C 239.113,59.8262 249.946,87.3262 239,123.5C 231.891,139.609 220.391,151.442 204.5,159C 203.978,159.561 203.645,160.228 203.5,161C 209.915,188.159 216.248,215.326 222.5,242.5 Z"/></g>
<g><path style="opacity:1" fill="#181818" d="M 165.5,115.5 C 168.266,118.083 171.266,120.583 174.5,123C 184.154,127.764 192.154,125.764 198.5,117C 199.448,116.517 200.448,116.351 201.5,116.5C 201.654,120.025 200.321,122.859 197.5,125C 185.939,133.283 175.772,131.783 167,120.5C 165.991,118.975 165.491,117.308 165.5,115.5 Z"/></g>
<g><path style="opacity:1" fill="#cecece" d="M 124.5,77.5 C 124.167,80.1667 123.833,82.8333 123.5,85.5C 129.5,85.5 135.5,85.5 141.5,85.5C 141.111,82.4467 141.777,79.78 143.5,77.5C 142.841,80.4552 142.508,83.4552 142.5,86.5C 135.5,86.5 128.5,86.5 121.5,86.5C 121.928,83.2154 122.928,80.2154 124.5,77.5 Z"/></g>
<g><path style="opacity:1" fill="#a3a3a3" d="M 179.5,83.5 C 180.404,84.209 180.737,85.209 180.5,86.5C 181.833,86.5 183.167,86.5 184.5,86.5C 183.081,87.4511 181.415,87.7845 179.5,87.5C 179.5,86.1667 179.5,84.8333 179.5,83.5 Z"/></g>
<g><path style="opacity:1" fill="#f2f2f2" d="M 155.5,75.5 C 175.945,73.7799 181.278,81.9465 171.5,100C 164.101,100.848 156.767,100.515 149.5,99C 146.327,95.3258 144.993,90.9925 145.5,86C 145.833,83.8333 146.167,81.6667 146.5,79.5C 149.708,78.391 152.708,77.0577 155.5,75.5 Z"/></g>
<g><path style="opacity:1" fill="#0d0d0d" d="M 158.5,82.5 C 164,81.8314 166.167,84.1647 165,89.5C 158.679,94.2043 156.012,92.5376 157,84.5C 157.717,83.9558 158.217,83.2891 158.5,82.5 Z"/></g>
<g><path style="opacity:1" fill="#f3f3f3" d="M 191.5,75.5 C 198.391,74.9013 205.058,75.7346 211.5,78C 219.682,88.7913 217.348,96.458 204.5,101C 196.693,101.887 191.86,98.3866 190,90.5C 188.977,85.2017 189.477,80.2017 191.5,75.5 Z"/></g>
<g><path style="opacity:1" fill="#161616" d="M 201.5,81.5 C 205.685,82.5427 207.185,85.2094 206,89.5C 202.507,92.5018 200.007,91.8351 198.5,87.5C 198.984,85.1992 199.984,83.1992 201.5,81.5 Z"/></g>
<g><path style="opacity:1" fill="#fafafa" d="M 184.5,86.5 C 183.167,86.5 181.833,86.5 180.5,86.5C 180.737,85.209 180.404,84.209 179.5,83.5C 179.896,80.9556 179.229,78.7889 177.5,77C 174.624,74.563 171.29,73.2297 167.5,73C 158.739,71.2671 150.739,72.7671 143.5,77.5C 141.777,79.78 141.111,82.4467 141.5,85.5C 135.5,85.5 129.5,85.5 123.5,85.5C 123.833,82.8333 124.167,80.1667 124.5,77.5C 131.974,59.8649 144.974,48.3649 163.5,43C 188.127,38.3985 208.627,45.5652 225,64.5C 228.612,69.3892 231.445,74.7226 233.5,80.5C 229.254,82.4587 224.921,84.1253 220.5,85.5C 217.971,75.4834 211.471,70.4834 201,70.5C 196.664,70.5672 192.497,71.4006 188.5,73C 187.723,77.7617 186.39,82.2617 184.5,86.5 Z"/></g>
<g><path style="opacity:0.329" fill="#c6c6c6" d="M 139.5,233.5 C 139.58,236.781 138.913,239.781 137.5,242.5C 137.42,239.219 138.087,236.219 139.5,233.5 Z"/></g>
<g><path style="opacity:0.427" fill="#c2c2c2" d="M 137.5,242.5 C 135.925,253.781 133.592,264.781 130.5,275.5C 132.074,264.221 134.407,253.221 137.5,242.5 Z"/></g>
<g><path style="opacity:0.498" fill="#c6c6c6" d="M 222.5,242.5 C 225.593,251.876 227.927,261.543 229.5,271.5C 226.407,262.124 224.073,252.457 222.5,242.5 Z"/></g>
<g><path style="opacity:0.345" fill="#c6c6c6" d="M 229.5,271.5 C 231.593,276.878 232.927,282.545 233.5,288.5C 231.407,283.122 230.073,277.455 229.5,271.5 Z"/></g>
<g><path style="opacity:1" fill="#c5c5c5" d="M 227.5,290.5 C 228.249,291.531 228.915,292.698 229.5,294C 200.169,294.5 170.835,294.667 141.5,294.5C 169.995,293.502 198.662,293.169 227.5,293.5C 227.5,292.5 227.5,291.5 227.5,290.5 Z"/></g>
<g><path style="opacity:0.255" fill="#cacaca" d="M 130.5,275.5 C 129.912,282.945 128.245,290.112 125.5,297C 125.645,297.772 125.978,298.439 126.5,299C 162.498,299.5 198.498,299.667 234.5,299.5C 199.671,300.498 164.671,300.832 129.5,300.5C 123.458,300.329 122.292,297.996 126,293.5C 127.201,287.295 128.701,281.295 130.5,275.5 Z"/></g>
<g><path style="opacity:0.011" fill="#f9f9f9" d="M 233.5,288.5 C 235.142,291.102 236.808,293.769 238.5,296.5C 238.124,298.383 237.124,299.883 235.5,301C 199.998,301.831 164.664,301.664 129.5,300.5C 164.671,300.832 199.671,300.498 234.5,299.5C 235.278,298.844 235.944,298.011 236.5,297C 234.809,294.429 233.809,291.596 233.5,288.5 Z"/></g>
</svg>
