<?xml version="1.0" encoding="UTF-8"?>
<!DOCTYPE svg PUBLIC "-//W3C//DTD SVG 1.1//EN" "http://www.w3.org/Graphics/SVG/1.1/DTD/svg11.dtd">
<svg xmlns="http://www.w3.org/2000/svg" version="1.1" width="194px" height="171px" style="shape-rendering:geometricPrecision; text-rendering:geometricPrecision; image-rendering:optimizeQuality; fill-rule:evenodd; clip-rule:evenodd" xmlns:xlink="http://www.w3.org/1999/xlink">
<g><path style="opacity:0.031" fill="#dedede" d="M 143.5,129.5 C 143.338,127.473 143.505,125.473 144,123.5C 144.388,122.572 145.055,121.905 146,121.5C 151.462,120.736 156.962,120.236 162.5,120C 170.274,115.361 173.44,108.528 172,99.5C 166.371,92.5309 160.705,85.5309 155,78.5C 149.503,68.1685 143.503,58.1685 137,48.5C 131.336,41.9822 124.502,37.3155 116.5,34.5C 110.91,32.4503 105.244,32.117 99.5,33.5C 77.3275,33.2582 59.3275,41.5916 45.5,58.5C 46.4698,55.3389 48.1365,52.5056 50.5,50C 70.6061,34.3098 93.2728,28.6431 118.5,33C 127.069,36.5557 134.235,42.0557 140,49.5C 146,59.5 152,69.5 158,79.5C 163.776,86.2615 169.11,93.2615 174,100.5C 174.401,116.75 166.734,123.75 151,121.5C 149.416,122.861 147.582,123.528 145.5,123.5C 145.946,126.01 145.28,128.01 143.5,129.5 Z"/></g>
<g><path style="opacity:0.379" fill="#929292" d="M 99.5,33.5 C 105.244,32.117 110.91,32.4503 116.5,34.5C 110.855,33.8658 105.189,33.5324 99.5,33.5 Z"/></g>
<g><path style="opacity:0.995" fill="#1c1b1b" d="M 99.5,33.5 C 105.189,33.5324 110.855,33.8658 116.5,34.5C 124.502,37.3155 131.336,41.9822 137,48.5C 143.503,58.1685 149.503,68.1685 155,78.5C 160.705,85.5309 166.371,92.5309 172,99.5C 173.44,108.528 170.274,115.361 162.5,120C 156.962,120.236 151.462,120.736 146,121.5C 145.055,121.905 144.388,122.572 144,123.5C 143.505,125.473 143.338,127.473 143.5,129.5C 135.783,133.184 128.116,137.017 120.5,141C 103.683,146.153 88.3492,143.486 74.5,133C 72.257,131.864 69.9237,131.03 67.5,130.5C 67.0825,129.778 66.4158,129.278 65.5,129C 66.7932,128.51 68.1266,128.343 69.5,128.5C 76.9327,132.051 84.266,135.884 91.5,140C 101.099,142.516 110.433,141.849 119.5,138C 126.196,133.828 133.196,130.328 140.5,127.5C 140.22,124.728 140.887,122.228 142.5,120C 149.391,118.174 156.391,116.841 163.5,116C 169.119,112.022 170.452,107.188 167.5,101.5C 166.872,98.91 165.705,96.5766 164,94.5C 154.792,83.9369 147.125,72.2702 141,59.5C 139.147,57.0975 137.314,54.7641 135.5,52.5C 133.188,48.1881 129.855,44.8548 125.5,42.5C 123.244,39.5947 120.244,37.928 116.5,37.5C 112.609,35.9926 108.442,35.3259 104,35.5C 100.979,35.5022 98.1459,35.8356 95.5,36.5C 78.8413,36.9909 64.3413,42.6576 52,53.5C 47.8428,60.1463 44.5095,67.1463 42,74.5C 40.0427,82.8557 38.2094,91.189 36.5,99.5C 29.9961,105.534 27.4961,112.867 29,121.5C 35.3497,129.681 43.183,131.681 52.5,127.5C 56.5138,127.334 60.5138,127.501 64.5,128C 62.9419,128.21 61.6085,128.71 60.5,129.5C 52.8864,130.91 45.2197,131.41 37.5,131C 26.6493,126.447 23.1493,118.614 27,107.5C 33.5935,97.1723 37.7601,85.839 39.5,73.5C 41.5172,68.436 43.5172,63.436 45.5,58.5C 59.3275,41.5916 77.3275,33.2582 99.5,33.5 Z"/></g>
<g><path style="opacity:1" fill="#bb9f9f" d="M 135.5,52.5 C 137.314,54.7641 139.147,57.0975 141,59.5C 147.125,72.2702 154.792,83.9369 164,94.5C 165.705,96.5766 166.872,98.91 167.5,101.5C 165.589,101.574 164.422,102.574 164,104.5C 164.281,99.2232 162.114,95.3899 157.5,93C 155.729,92.963 153.896,93.1297 152,93.5C 149.855,93.604 148.021,92.9373 146.5,91.5C 144.836,85.3435 142.669,79.3435 140,73.5C 139.125,70.7854 137.292,69.4521 134.5,69.5C 132.501,63.5742 130.501,57.5742 128.5,51.5C 128.833,51.1667 129.167,50.8333 129.5,50.5C 131.167,51.8333 132.833,53.1667 134.5,54.5C 135.298,54.0431 135.631,53.3764 135.5,52.5 Z"/></g>
<g><path style="opacity:1" fill="#ccb1b1" d="M 125.5,42.5 C 129.855,44.8548 133.188,48.1881 135.5,52.5C 135.631,53.3764 135.298,54.0431 134.5,54.5C 132.833,53.1667 131.167,51.8333 129.5,50.5C 129.167,50.8333 128.833,51.1667 128.5,51.5C 130.501,57.5742 132.501,63.5742 134.5,69.5C 137.292,69.4521 139.125,70.7854 140,73.5C 142.669,79.3435 144.836,85.3435 146.5,91.5C 148.021,92.9373 149.855,93.604 152,93.5C 153.896,93.1297 155.729,92.963 157.5,93C 162.114,95.3899 164.281,99.2232 164,104.5C 164.422,102.574 165.589,101.574 167.5,101.5C 170.452,107.188 169.119,112.022 163.5,116C 156.391,116.841 149.391,118.174 142.5,120C 140.887,122.228 140.22,124.728 140.5,127.5C 133.196,130.328 126.196,133.828 119.5,138C 110.433,141.849 101.099,142.516 91.5,140C 84.266,135.884 76.9327,132.051 69.5,128.5C 66.2822,127.046 62.7822,126.379 59,126.5C 56.6392,126.504 54.4726,126.837 52.5,127.5C 43.183,131.681 35.3497,129.681 29,121.5C 27.4961,112.867 29.9961,105.534 36.5,99.5C 38.6237,98.9688 40.1237,97.6355 41,95.5C 45.1025,83.9757 48.6025,72.309 51.5,60.5C 56.3121,56.8556 60.9788,53.0223 65.5,49C 69.733,46.0885 74.3996,44.2552 79.5,43.5C 73.5972,47.8955 68.0972,52.8955 63,58.5C 60.0579,63.7594 61.5579,66.0928 67.5,65.5C 67.5,66.5 67.5,67.5 67.5,68.5C 68.8333,68.5 70.1667,68.5 71.5,68.5C 71.3336,76.1739 71.5003,83.8406 72,91.5C 73.2989,92.09 74.1322,93.09 74.5,94.5C 75.313,100.088 76.813,105.421 79,110.5C 86.2702,106.398 93.4369,106.565 100.5,111C 105.418,111.195 110.251,111.695 115,112.5C 117.69,109.992 120.69,107.992 124,106.5C 124.458,103.904 123.625,101.737 121.5,100C 122.667,99.5 123.5,98.6667 124,97.5C 124.498,94.1832 124.665,90.8499 124.5,87.5C 125.675,87.281 126.675,87.6143 127.5,88.5C 128.367,91.9842 129.534,95.3175 131,98.5C 132.193,94.4822 133.026,90.3155 133.5,86C 130.406,79.2125 128.573,72.0458 128,64.5C 126.654,61.13 124.821,58.13 122.5,55.5C 121.959,52.7924 121.292,50.1257 120.5,47.5C 123.561,47.2276 126.561,47.2276 129.5,47.5C 128.965,45.7295 128.131,45.3961 127,46.5C 126.209,45.255 125.709,43.9217 125.5,42.5 Z"/></g>
<g><path style="opacity:1" fill="#d7bebe" d="M 63.5,86.5 C 64.1239,86.9169 64.4573,87.5836 64.5,88.5C 63.3747,98.1691 61.7081,107.669 59.5,117C 55.1521,117.238 50.8188,116.905 46.5,116C 42.8988,112.856 38.8988,110.356 34.5,108.5C 39.0544,102.058 42.5544,95.0578 45,87.5C 45.4824,93.1908 48.3157,96.8574 53.5,98.5C 59.149,96.5891 62.4824,92.5891 63.5,86.5 Z"/></g>
<g><path style="opacity:1" fill="#b39494" d="M 95.5,36.5 C 92.4308,36.9854 89.7641,38.3187 87.5,40.5C 84.9239,41.4878 82.2572,42.4878 79.5,43.5C 74.3996,44.2552 69.733,46.0885 65.5,49C 60.9788,53.0223 56.3121,56.8556 51.5,60.5C 48.6025,72.309 45.1025,83.9757 41,95.5C 40.1237,97.6355 38.6237,98.9688 36.5,99.5C 38.2094,91.189 40.0427,82.8557 42,74.5C 44.5095,67.1463 47.8428,60.1463 52,53.5C 64.3413,42.6576 78.8413,36.9909 95.5,36.5 Z"/></g>
<g><path style="opacity:1" fill="#d5bdbd" d="M 111.5,37.5 C 113.167,37.5 114.833,37.5 116.5,37.5C 120.244,37.928 123.244,39.5947 125.5,42.5C 125.709,43.9217 126.209,45.255 127,46.5C 128.131,45.3961 128.965,45.7295 129.5,47.5C 126.561,47.2276 123.561,47.2276 120.5,47.5C 121.292,50.1257 121.959,52.7924 122.5,55.5C 124.821,58.13 126.654,61.13 128,64.5C 128.573,72.0458 130.406,79.2125 133.5,86C 133.026,90.3155 132.193,94.4822 131,98.5C 129.534,95.3175 128.367,91.9842 127.5,88.5C 126.675,87.6143 125.675,87.281 124.5,87.5C 124.665,90.8499 124.498,94.1832 124,97.5C 123.5,98.6667 122.667,99.5 121.5,100C 123.625,101.737 124.458,103.904 124,106.5C 120.69,107.992 117.69,109.992 115,112.5C 110.251,111.695 105.418,111.195 100.5,111C 93.4369,106.565 86.2702,106.398 79,110.5C 76.813,105.421 75.313,100.088 74.5,94.5C 74.1322,93.09 73.2989,92.09 72,91.5C 71.5003,83.8406 71.3336,76.1739 71.5,68.5C 70.1667,68.5 68.8333,68.5 67.5,68.5C 67.5,67.5 67.5,66.5 67.5,65.5C 61.5579,66.0928 60.0579,63.7594 63,58.5C 68.0972,52.8955 73.5972,47.8955 79.5,43.5C 82.2572,42.4878 84.9239,41.4878 87.5,40.5C 91.8839,40.1744 96.2172,40.5078 100.5,41.5C 95.3102,43.5035 89.9769,45.0035 84.5,46C 72.3399,54.4606 70.1732,64.9606 78,77.5C 84.3382,68.4965 90.6716,59.4965 97,50.5C 101.908,47.2616 105.741,43.0949 108.5,38C 109.448,37.5172 110.448,37.3505 111.5,37.5 Z"/></g>
<g><path style="opacity:1" fill="#292424" d="M 109.5,80.5 C 110.5,80.5 111.5,80.5 112.5,80.5C 110.904,83.7928 109.238,87.1261 107.5,90.5C 105.327,88.1576 103.327,85.6576 101.5,83C 101.85,81.7425 102.517,81.4092 103.5,82C 105.049,83.214 106.215,84.714 107,86.5C 108.122,84.5932 108.955,82.5932 109.5,80.5 Z"/></g>
<g><path style="opacity:1" fill="#171414" d="M 86.5,75.5 C 87.8333,75.5 89.1667,75.5 90.5,75.5C 90.5,76.8333 90.5,78.1667 90.5,79.5C 87.5,79.8333 86.1667,78.5 86.5,75.5 Z"/></g>
<g><path style="opacity:1" fill="#373131" d="M 116.5,68.5 C 119.389,68.999 120.056,70.499 118.5,73C 117.552,73.4828 116.552,73.6495 115.5,73.5C 115.366,71.7085 115.699,70.0418 116.5,68.5 Z"/></g>
<g><path style="opacity:1" fill="#c8acac" d="M 95.5,36.5 C 101.026,36.1786 106.36,36.5119 111.5,37.5C 110.448,37.3505 109.448,37.5172 108.5,38C 105.741,43.0949 101.908,47.2616 97,50.5C 90.6716,59.4965 84.3382,68.4965 78,77.5C 70.1732,64.9606 72.3399,54.4606 84.5,46C 89.9769,45.0035 95.3102,43.5035 100.5,41.5C 96.2172,40.5078 91.8839,40.1744 87.5,40.5C 89.7641,38.3187 92.4308,36.9854 95.5,36.5 Z"/></g>
<g><path style="opacity:1" fill="#716363" d="M 95.5,36.5 C 98.1459,35.8356 100.979,35.5022 104,35.5C 108.442,35.3259 112.609,35.9926 116.5,37.5C 114.833,37.5 113.167,37.5 111.5,37.5C 106.36,36.5119 101.026,36.1786 95.5,36.5 Z"/></g>
<g><path style="opacity:0.941" fill="#4f4949" d="M 52.5,127.5 C 54.4726,126.837 56.6392,126.504 59,126.5C 62.7822,126.379 66.2822,127.046 69.5,128.5C 68.1266,128.343 66.7932,128.51 65.5,129C 66.4158,129.278 67.0825,129.778 67.5,130.5C 65.139,130.326 62.8056,129.993 60.5,129.5C 61.6085,128.71 62.9419,128.21 64.5,128C 60.5138,127.501 56.5138,127.334 52.5,127.5 Z"/></g>
<g><path style="opacity:0.051" fill="#dcdcdc" d="M 45.5,58.5 C 43.5172,63.436 41.5172,68.436 39.5,73.5C 37.7601,85.839 33.5935,97.1723 27,107.5C 23.1493,118.614 26.6493,126.447 37.5,131C 45.2197,131.41 52.8864,130.91 60.5,129.5C 62.8056,129.993 65.139,130.326 67.5,130.5C 69.9237,131.03 72.257,131.864 74.5,133C 88.3492,143.486 103.683,146.153 120.5,141C 128.116,137.017 135.783,133.184 143.5,129.5C 131.779,138.271 118.613,143.938 104,146.5C 98.7748,145.78 93.6081,144.614 88.5,143C 81.1356,139.318 73.8022,135.651 66.5,132C 58.6045,131.376 50.7711,131.876 43,133.5C 27.2421,130.981 21.2421,121.981 25,106.5C 27.3333,103.167 29.6667,99.8333 32,96.5C 35.2802,86.9941 37.9469,77.3274 40,67.5C 41.1942,64.0473 43.0275,61.0473 45.5,58.5 Z"/></g>
</svg>
