<svg width="244" height="205" viewBox="0 0 244 205" fill="none" xmlns="http://www.w3.org/2000/svg">
<path opacity="0.031" fill-rule="evenodd" clip-rule="evenodd" d="M180.485 155.249C180.281 152.819 180.491 150.421 181.113 148.056C181.601 146.943 182.44 146.143 183.629 145.658C190.499 144.742 197.416 144.143 204.381 143.86C214.159 138.298 218.141 130.107 216.33 119.284C209.25 110.929 202.124 102.537 194.948 94.1082C188.035 81.7225 180.488 69.7342 172.309 58.1433C165.185 50.3295 156.59 44.7349 146.526 41.3596C139.495 38.9024 132.369 38.5028 125.144 40.1608C97.2573 39.8709 74.6181 49.8613 57.2268 70.1316C58.4466 66.3419 60.5428 62.9453 63.5155 59.9415C88.8035 41.1316 117.312 34.3382 149.041 39.5614C159.819 43.8241 168.832 50.4176 176.082 59.3421C183.629 71.3304 191.175 83.3187 198.722 95.307C205.986 103.413 212.695 111.805 218.845 120.482C219.35 139.963 209.707 148.355 189.918 145.658C187.925 147.289 185.619 148.089 183 148.056C183.561 151.065 182.723 153.462 180.485 155.249Z" fill="#DEDEDE"/>
<path opacity="0.379" fill-rule="evenodd" clip-rule="evenodd" d="M125.144 40.1608C132.369 38.5028 139.495 38.9024 146.526 41.3596C139.426 40.5993 132.3 40.1997 125.144 40.1608Z" fill="#929292"/>
<path opacity="0.995" fill-rule="evenodd" clip-rule="evenodd" d="M125.144 40.1608C132.3 40.1996 139.426 40.5993 146.526 41.3596C156.59 44.7349 165.185 50.3295 172.309 58.1432C180.488 69.7341 188.035 81.7224 194.948 94.1082C202.124 102.537 209.25 110.929 216.33 119.284C218.141 130.107 214.159 138.298 204.381 143.86C197.416 144.143 190.499 144.742 183.629 145.658C182.44 146.143 181.601 146.943 181.113 148.056C180.491 150.421 180.281 152.818 180.485 155.249C170.779 159.665 161.136 164.26 151.557 169.035C130.405 175.213 111.12 172.015 93.701 159.444C90.8799 158.083 87.9453 157.083 84.8969 156.447C84.3718 155.582 83.5333 154.982 82.3814 154.649C84.0079 154.062 85.685 153.861 87.4123 154.05C96.7607 158.307 105.984 162.902 115.082 167.836C127.155 170.852 138.895 170.053 150.299 165.439C158.721 160.437 167.525 156.241 176.711 152.851C176.359 149.528 177.198 146.531 179.227 143.86C187.894 141.671 196.698 140.073 205.639 139.064C212.706 134.295 214.383 128.5 210.67 121.681C209.88 118.576 208.412 115.779 206.268 113.289C194.687 100.626 185.044 86.6397 177.34 71.3304C175.01 68.4502 172.704 65.6528 170.423 62.9386C167.515 57.7693 163.323 53.7733 157.845 50.9503C155.008 47.4673 151.235 45.4692 146.526 44.9561C141.632 43.149 136.391 42.3497 130.804 42.5585C127.005 42.5611 123.441 42.9608 120.113 43.7573C99.1612 44.3458 80.9241 51.1392 65.402 64.1374C60.1734 72.1052 55.981 80.497 52.8247 89.3128C50.363 99.3299 48.0572 109.32 45.9072 119.284C37.727 126.517 34.5827 135.308 36.4742 145.658C44.4604 155.465 54.3126 157.863 66.0309 152.851C71.0792 152.652 76.1101 152.852 81.1237 153.45C79.164 153.702 77.487 154.301 76.0928 155.249C66.5169 156.939 56.8742 157.538 47.1649 157.047C33.5177 151.588 29.1156 142.198 33.9587 128.874C42.2516 116.493 47.4921 102.906 49.6804 88.114C52.2175 82.0431 54.7329 76.049 57.2268 70.1316C74.6181 49.8612 97.2573 39.8709 125.144 40.1608Z" fill="#1C1B1B"/>
<path fill-rule="evenodd" clip-rule="evenodd" d="M170.423 62.9386C172.704 65.6528 175.01 68.4502 177.34 71.3304C185.044 86.6397 194.687 100.626 206.268 113.289C208.412 115.779 209.88 118.576 210.67 121.681C208.267 121.77 206.799 122.969 206.268 125.278C206.621 118.952 203.896 114.356 198.093 111.491C195.865 111.447 193.56 111.647 191.175 112.091C188.477 112.215 186.171 111.416 184.258 109.693C182.165 102.312 179.439 95.1194 176.082 88.114C174.982 84.8596 172.677 83.2612 169.165 83.3187C166.651 76.2146 164.135 69.0217 161.619 61.7397C162.037 61.3402 162.457 60.9405 162.876 60.5409C164.973 62.1393 167.068 63.7378 169.165 65.3362C170.169 64.7885 170.587 63.9892 170.423 62.9386Z" fill="#BB9F9F"/>
<path fill-rule="evenodd" clip-rule="evenodd" d="M157.845 50.9503C163.323 53.7733 167.515 57.7694 170.423 62.9386C170.587 63.9893 170.169 64.7885 169.165 65.3363C167.068 63.7379 164.973 62.1394 162.876 60.541C162.458 60.9405 162.037 61.3402 161.619 61.7398C164.135 69.0217 166.651 76.2147 169.165 83.3187C172.677 83.2613 174.982 84.8597 176.083 88.1141C179.439 95.1194 182.165 102.312 184.258 109.693C186.171 111.416 188.477 112.215 191.175 112.091C193.56 111.647 195.865 111.447 198.093 111.491C203.896 114.356 206.622 118.952 206.268 125.278C206.799 122.969 208.267 121.77 210.67 121.681C214.383 128.5 212.706 134.295 205.639 139.064C196.698 140.073 187.894 141.671 179.227 143.86C177.198 146.531 176.359 149.528 176.711 152.851C167.525 156.241 158.721 160.437 150.299 165.439C138.895 170.053 127.155 170.853 115.083 167.836C105.984 162.902 96.7607 158.307 87.4124 154.05C83.3653 152.307 78.9632 151.507 74.2062 151.652C71.237 151.657 68.512 152.056 66.031 152.851C54.3127 157.863 44.4605 155.466 36.4743 145.658C34.5828 135.308 37.7271 126.517 45.9072 119.284C48.5783 118.647 50.4649 117.048 51.567 114.488C56.7269 100.673 61.1289 86.6863 64.7732 72.5293C70.8256 68.1602 76.695 63.5648 82.3815 58.7427C87.7055 55.2523 93.5748 53.0545 99.9897 52.1491C92.5656 57.4186 85.6481 63.4128 79.2371 70.1316C75.5368 76.4367 77.4234 79.2341 84.8969 78.5234C84.8969 79.7222 84.8969 80.9211 84.8969 82.1199C86.5739 82.1199 88.2509 82.1199 89.9279 82.1199C89.7186 91.3196 89.9282 100.511 90.5567 109.693C92.1904 110.4 93.2385 111.599 93.7011 113.289C94.7236 119.989 96.6102 126.382 99.3609 132.471C108.505 127.553 117.519 127.753 126.402 133.07C132.588 133.304 138.666 133.903 144.639 134.868C148.023 131.862 151.796 129.464 155.959 127.675C156.535 124.563 155.487 121.965 152.814 119.883C154.282 119.284 155.33 118.285 155.959 116.886C156.585 112.91 156.795 108.914 156.588 104.898C158.066 104.635 159.323 105.035 160.361 106.097C161.451 110.273 162.919 114.27 164.763 118.085C166.263 113.268 167.311 108.273 167.907 103.099C164.016 94.9624 161.71 86.3707 160.99 77.3246C159.297 73.2845 156.991 69.688 154.072 66.5351C153.392 63.2892 152.553 60.0922 151.557 56.9445C155.407 56.6179 159.18 56.6179 162.876 56.9445C162.203 54.8219 161.154 54.4223 159.732 55.7456C158.737 54.2531 158.108 52.6547 157.845 50.9503Z" fill="#CCB1B1"/>
<path fill-rule="evenodd" clip-rule="evenodd" d="M79.866 103.699C80.6507 104.199 81.07 104.998 81.1237 106.097C79.7084 117.688 77.6122 129.077 74.835 140.263C69.3665 140.549 63.9164 140.149 58.4845 139.064C53.9552 135.295 48.9242 132.298 43.3917 130.073C49.1199 122.35 53.522 113.958 56.5979 104.898C57.2046 111.72 60.7682 116.116 67.2886 118.085C74.3936 115.794 78.5861 110.999 79.866 103.699Z" fill="#D7BEBE"/>
<path fill-rule="evenodd" clip-rule="evenodd" d="M120.113 43.7573C116.253 44.3392 112.899 45.9376 110.052 48.5526C106.812 49.7369 103.458 50.9357 99.9897 52.1491C93.5748 53.0545 87.7054 55.2523 82.3815 58.7427C76.695 63.5648 70.8255 68.1602 64.7732 72.5293C61.1289 86.6862 56.7269 100.673 51.567 114.488C50.4649 117.048 48.5783 118.647 45.9072 119.284C48.0572 109.32 50.363 99.3299 52.8248 89.3129C55.981 80.497 60.1734 72.1052 65.4021 64.1374C80.9241 51.1392 99.1612 44.3458 120.113 43.7573Z" fill="#B39494"/>
<path fill-rule="evenodd" clip-rule="evenodd" d="M140.237 44.9561C142.334 44.9561 144.429 44.9561 146.526 44.9561C151.235 45.4692 155.008 47.4673 157.845 50.9503C158.108 52.6547 158.737 54.2531 159.732 55.7456C161.154 54.4222 162.203 54.8219 162.876 56.9444C159.18 56.6179 155.407 56.6179 151.557 56.9444C152.553 60.0922 153.392 63.2891 154.072 66.5351C156.991 69.688 159.297 73.2845 160.99 77.3246C161.71 86.3707 164.016 94.9623 167.907 103.099C167.311 108.273 166.263 113.268 164.763 118.085C162.919 114.27 161.451 110.273 160.361 106.096C159.323 105.035 158.065 104.635 156.588 104.898C156.795 108.914 156.585 112.91 155.959 116.886C155.33 118.285 154.282 119.284 152.814 119.883C155.487 121.965 156.535 124.563 155.959 127.675C151.796 129.464 148.022 131.862 144.639 134.868C138.666 133.903 132.588 133.304 126.402 133.07C117.519 127.753 108.505 127.553 99.3608 132.471C96.6101 126.382 94.7235 119.989 93.701 113.289C93.2384 111.599 92.1903 110.4 90.5566 109.693C89.9282 100.511 89.7185 91.3196 89.9278 82.1199C88.2508 82.1199 86.5738 82.1199 84.8968 82.1199C84.8968 80.921 84.8968 79.7222 84.8968 78.5234C77.4233 79.2341 75.5367 76.4367 79.2371 70.1316C85.648 63.4127 92.5655 57.4186 99.9896 52.1491C103.457 50.9357 106.811 49.7368 110.051 48.5526C115.565 48.1623 121.015 48.562 126.402 49.7515C119.875 52.1533 113.167 53.9516 106.278 55.1462C90.9841 65.289 88.259 77.8767 98.103 92.9093C106.075 82.1157 114.041 71.3262 122 60.5409C128.173 56.6586 132.994 51.6635 136.464 45.5555C137.656 44.9768 138.914 44.7769 140.237 44.9561Z" fill="#D5BDBD"/>
<path fill-rule="evenodd" clip-rule="evenodd" d="M137.722 96.5059C138.979 96.5059 140.237 96.5059 141.495 96.5059C139.488 100.453 137.392 104.449 135.206 108.494C132.473 105.686 129.958 102.689 127.66 99.5029C128.1 97.9954 128.939 97.5958 130.175 98.3041C132.123 99.7595 133.59 101.558 134.577 103.699C135.988 101.413 137.036 99.0153 137.722 96.5059Z" fill="#292424"/>
<path fill-rule="evenodd" clip-rule="evenodd" d="M108.794 90.5117C110.471 90.5117 112.148 90.5117 113.825 90.5117C113.825 92.1101 113.825 93.7086 113.825 95.307C110.052 95.7066 108.375 94.1082 108.794 90.5117Z" fill="#171414"/>
<path fill-rule="evenodd" clip-rule="evenodd" d="M146.526 82.1199C150.159 82.7181 150.998 84.5163 149.041 87.5146C147.849 88.0934 146.591 88.2933 145.268 88.114C145.1 85.9663 145.518 83.9682 146.526 82.1199Z" fill="#373131"/>
<path fill-rule="evenodd" clip-rule="evenodd" d="M120.113 43.7573C127.064 43.372 133.772 43.7716 140.237 44.9562C138.914 44.7769 137.656 44.9768 136.464 45.5556C132.994 51.6635 128.173 56.6587 122 60.541C114.041 71.3262 106.075 82.1157 98.1031 92.9094C88.2591 77.8768 90.9842 65.2891 106.278 55.1462C113.167 53.9516 119.875 52.1533 126.402 49.7515C121.015 48.562 115.565 48.1623 110.052 48.5527C112.899 45.9377 116.253 44.3393 120.113 43.7573Z" fill="#C8ACAC"/>
<path fill-rule="evenodd" clip-rule="evenodd" d="M120.113 43.7574C123.441 42.9609 127.005 42.5612 130.804 42.5585C136.391 42.3498 141.632 43.1491 146.526 44.9562C144.429 44.9562 142.334 44.9562 140.237 44.9562C133.772 43.7716 127.064 43.3721 120.113 43.7574Z" fill="#716363"/>
<path opacity="0.941" fill-rule="evenodd" clip-rule="evenodd" d="M66.0309 152.851C68.5119 152.056 71.2369 151.657 74.2061 151.652C78.9631 151.507 83.3652 152.307 87.4123 154.05C85.685 153.862 84.0079 154.062 82.3814 154.649C83.5332 154.982 84.3718 155.582 84.8969 156.447C81.9274 156.239 78.9926 155.84 76.0927 155.249C77.4869 154.301 79.164 153.702 81.1237 153.45C76.1101 152.852 71.0792 152.652 66.0309 152.851Z" fill="#4F4949"/>
<path opacity="0.051" fill-rule="evenodd" clip-rule="evenodd" d="M57.2268 70.1316C54.733 76.049 52.2175 82.0432 49.6804 88.114C47.4921 102.906 42.2516 116.493 33.9587 128.874C29.1156 142.198 33.5177 151.589 47.1649 157.047C56.8742 157.538 66.5169 156.939 76.0928 155.249C78.9926 155.84 81.9274 156.239 84.8969 156.447C87.9453 157.083 90.8799 158.083 93.701 159.444C111.12 172.015 130.405 175.213 151.557 169.035C161.136 164.26 170.779 159.665 180.485 155.249C165.743 165.763 149.183 172.557 130.804 175.629C124.232 174.766 117.734 173.368 111.309 171.433C102.047 167.019 92.8234 162.623 83.6392 158.246C73.7087 157.498 63.8564 158.097 54.0825 160.044C34.2632 157.024 26.7169 146.235 31.4433 127.675C34.378 123.68 37.3127 119.683 40.2474 115.687C44.373 104.291 47.727 92.7025 50.3093 80.9211C51.8112 76.7819 54.117 73.1854 57.2268 70.1316Z" fill="#DCDCDC"/>
</svg>
