<?xml version="1.0" encoding="UTF-8"?>
<!DOCTYPE svg PUBLIC "-//W3C//DTD SVG 1.1//EN" "http://www.w3.org/Graphics/SVG/1.1/DTD/svg11.dtd">
<svg xmlns="http://www.w3.org/2000/svg" version="1.1" width="2048px" height="2048px" style="shape-rendering:geometricPrecision; text-rendering:geometricPrecision; image-rendering:optimizeQuality; fill-rule:evenodd; clip-rule:evenodd" xmlns:xlink="http://www.w3.org/1999/xlink">
<g><path style="opacity:0.955" fill="#020202" d="M 900.5,584.5 C 950.033,585.566 999.2,585.566 1048,584.5C 1054.51,586.346 1061.18,586.346 1068,584.5C 1110.75,584.724 1155.75,585.391 1203,586.5C 1207.37,585.058 1211.87,585.391 1216.5,587.5C 1220.41,587.366 1224.25,587.032 1228,586.5C 1232.33,587.167 1236.67,587.833 1241,588.5C 1247.06,588.777 1252.73,588.444 1258,587.5C 1267.42,588.276 1276.59,589.276 1285.5,590.5C 1293.35,589.7 1301.35,590.367 1309.5,592.5C 1315.36,592.477 1321.2,592.477 1327,592.5C 1330.67,593.167 1334.33,593.833 1338,594.5C 1339.27,594.384 1340.6,594.051 1342,593.5C 1346,594.167 1350,594.833 1354,595.5C 1355.68,595.193 1357.35,594.86 1359,594.5C 1362.52,595.127 1366.02,595.793 1369.5,596.5C 1372.74,596.167 1375.58,595.834 1378,595.5C 1391.48,596.618 1405.14,597.618 1419,598.5C 1433.4,597.643 1447.57,597.31 1461.5,597.5C 1468.03,598.149 1474.53,598.815 1481,599.5C 1482.75,598.826 1484.42,598.493 1486,598.5C 1490,599.167 1494,599.833 1498,600.5C 1506.61,599.883 1515.11,599.883 1523.5,600.5C 1524.75,601.04 1525.91,601.707 1527,602.5C 1542.4,600.707 1557.9,603.207 1573.5,610C 1587.87,618.187 1601.87,627.02 1615.5,636.5C 1623.75,647.253 1632.92,657.253 1643,666.5C 1644.67,668.169 1645.5,670.169 1645.5,672.5C 1646.5,672.5 1647.5,672.5 1648.5,672.5C 1648.24,673.978 1648.57,675.311 1649.5,676.5C 1652.88,679.372 1655.72,682.706 1658,686.5C 1659.06,690.588 1661.39,693.921 1665,696.5C 1665.49,697.793 1665.66,699.127 1665.5,700.5C 1666.55,700.351 1667.55,700.517 1668.5,701C 1675.43,708.26 1681.6,716.094 1687,724.5C 1687.76,727.053 1688.59,729.553 1689.5,732C 1689.17,732.333 1688.83,732.667 1688.5,733C 1690.84,733.837 1692.84,735.171 1694.5,737C 1694.04,737.414 1693.71,737.914 1693.5,738.5C 1696.78,742.57 1699.78,746.737 1702.5,751C 1701.06,753.078 1701.72,753.911 1704.5,753.5C 1704.49,755.308 1704.99,756.975 1706,758.5C 1709.03,763.032 1711.86,767.698 1714.5,772.5C 1714.07,773.293 1713.74,774.127 1713.5,775C 1716.82,784.757 1720.82,794.257 1725.5,803.5C 1725.17,804.167 1724.83,804.833 1724.5,805.5C 1725.47,807.63 1726.63,809.63 1728,811.5C 1728.16,816.297 1729.32,820.797 1731.5,825C 1730.87,827.37 1730.54,829.703 1730.5,832C 1731.17,832.667 1731.83,833.333 1732.5,834C 1731.34,836.44 1731.34,838.94 1732.5,841.5C 1732.28,843.055 1731.61,844.389 1730.5,845.5C 1731.97,847.192 1732.64,849.192 1732.5,851.5C 1731.63,854.53 1731.29,857.53 1731.5,860.5C 1732.61,861.611 1733.28,862.945 1733.5,864.5C 1732.61,865.955 1732.61,867.289 1733.5,868.5C 1730.99,870.59 1731.32,872.423 1734.5,874C 1733.87,876.888 1733.54,879.722 1733.5,882.5C 1733.72,884.055 1734.39,885.389 1735.5,886.5C 1735.02,887.478 1734.36,888.311 1733.5,889C 1734.57,889.739 1735.24,890.739 1735.5,892C 1734.56,899.126 1734.56,906.293 1735.5,913.5C 1733.51,940.313 1722.84,962.813 1703.5,981C 1683.09,999.234 1661.09,1015.4 1637.5,1029.5C 1628.27,1033.18 1619.44,1037.51 1611,1042.5C 1602.24,1045.57 1593.4,1048.4 1584.5,1051C 1569.59,1054.29 1554.76,1056.46 1540,1057.5C 1490.97,1057.47 1441.47,1057.47 1391.5,1057.5C 1382.95,1056.88 1374.45,1056.21 1366,1055.5C 1301.89,1055.38 1239.22,1055.71 1178,1056.5C 1156.63,1055.12 1135.29,1054.12 1114,1053.5C 1096.89,1053.95 1080.23,1053.95 1064,1053.5C 1048.77,1054.07 1033.77,1055.07 1019,1056.5C 1009.62,1056.43 999.95,1056.43 990,1056.5C 986,1057.17 982,1057.83 978,1058.5C 965.63,1058.69 952.963,1058.35 940,1057.5C 921.896,1059.12 903.896,1060.45 886,1061.5C 870.752,1061.32 855.419,1061.32 840,1061.5C 828.767,1062.21 817.433,1063.21 806,1064.5C 778.672,1064.38 750.672,1064.38 722,1064.5C 715.711,1063.79 709.378,1063.13 703,1062.5C 665.682,1062.5 629.182,1062.5 593.5,1062.5C 590.16,1064.95 586.993,1064.61 584,1061.5C 549.924,1027.74 524.257,988.404 507,943.5C 487.548,888.594 484.215,832.594 497,775.5C 502.624,754.691 508.124,734.191 513.5,714C 524.616,690.082 537.949,667.582 553.5,646.5C 558.808,640.68 564.808,635.846 571.5,632C 573.543,630.292 575.21,628.292 576.5,626C 594.304,625.947 612.137,624.78 630,622.5C 633.022,623.237 636.022,622.904 639,621.5C 652.136,620.714 665.803,618.714 680,615.5C 682.935,615.393 685.935,615.393 689,615.5C 733.951,605.989 778.618,597.989 823,591.5C 823.333,591.833 823.667,592.167 824,592.5C 839.773,590.318 855.773,588.318 872,586.5C 873,586.833 874,587.167 875,587.5C 878.955,585.976 882.622,585.643 886,586.5C 890.934,585.856 895.767,585.19 900.5,584.5 Z"/></g>
<g><path style="opacity:1" fill="#fefefe" d="M 1665.5,726.5 C 1665.5,728.5 1666.5,729.5 1668.5,729.5C 1673.1,736.024 1676.6,743.024 1679,750.5C 1680.33,751.833 1681.67,753.167 1683,754.5C 1683.84,757.839 1685.34,760.839 1687.5,763.5C 1688.03,765.446 1689.37,766.446 1691.5,766.5C 1692.43,767.568 1692.77,768.901 1692.5,770.5C 1692.79,773.127 1694.12,774.794 1696.5,775.5C 1698.48,779.365 1699.14,783.365 1698.5,787.5C 1699.98,791.127 1701.98,794.46 1704.5,797.5C 1704.17,798.167 1703.83,798.833 1703.5,799.5C 1708.21,809.348 1711.55,819.682 1713.5,830.5C 1713.36,837.31 1713.36,843.976 1713.5,850.5C 1713.52,852.565 1713.85,854.565 1714.5,856.5C 1713.64,857.531 1712.98,858.697 1712.5,860C 1713.89,865.169 1715.22,870.336 1716.5,875.5C 1715.59,879.149 1715.59,882.483 1716.5,885.5C 1716.21,888.547 1716.21,891.547 1716.5,894.5C 1716.19,903.993 1715.19,913.327 1713.5,922.5C 1712.63,925.003 1711.96,927.67 1711.5,930.5C 1708.97,942.283 1703.64,952.616 1695.5,961.5C 1676.78,979.729 1656.44,995.895 1634.5,1010C 1621.83,1016.33 1609.17,1022.67 1596.5,1029C 1578.14,1035.56 1559.14,1039.23 1539.5,1040C 1511.18,1041.04 1482.84,1041.54 1454.5,1041.5C 1409.99,1041.2 1365.49,1040.54 1321,1039.5C 1282.33,1040.36 1243.83,1040.69 1205.5,1040.5C 1166.84,1039.61 1128.17,1038.94 1089.5,1038.5C 1031.58,1040.32 973.912,1041.82 916.5,1043C 873.297,1044.37 830.131,1046.2 787,1048.5C 724.669,1047.14 662.169,1046.3 599.5,1046C 591.393,1037.88 583.393,1029.72 575.5,1021.5C 570.777,1015.12 566.11,1008.79 561.5,1002.5C 561.573,1000.97 560.906,999.973 559.5,999.5C 532.837,958.804 516.67,914.137 511,865.5C 510.797,855.632 510.297,845.799 509.5,836C 510.029,834.441 510.696,832.941 511.5,831.5C 510.923,829.894 510.59,828.228 510.5,826.5C 511.524,812.069 513.357,797.736 516,783.5C 521.309,764.697 525.976,745.697 530,726.5C 539.828,701.38 552.495,677.714 568,655.5C 575.241,647.574 583.575,641.241 593,636.5C 600.882,637.947 608.882,638.613 617,638.5C 667.989,635.583 718.489,629.249 768.5,619.5C 772.04,619.247 775.373,618.581 778.5,617.5C 819.98,611.553 861.647,607.386 903.5,605C 995.836,604.784 1088.17,604.284 1180.5,603.5C 1219.17,605.016 1257.83,606.516 1296.5,608C 1330.75,611.23 1365.08,613.563 1399.5,615C 1450.96,614.875 1502.29,617.208 1553.5,622C 1559.8,625.214 1566.3,628.047 1573,630.5C 1578.09,635.253 1583.92,638.753 1590.5,641C 1591.26,642.512 1592.26,643.846 1593.5,645C 1598.06,648.404 1602.73,651.571 1607.5,654.5C 1612.09,662.504 1617.75,669.67 1624.5,676C 1625.5,676.333 1626.5,676.667 1627.5,677C 1629.95,681.117 1633.11,684.617 1637,687.5C 1639.17,689.694 1640.51,692.361 1641,695.5C 1644.07,698.213 1646.74,701.213 1649,704.5C 1650.04,706.715 1650.71,709.048 1651,711.5C 1652.09,712.293 1653.25,712.96 1654.5,713.5C 1657.09,718.758 1660.76,723.091 1665.5,726.5 Z"/></g>
<g><path style="opacity:1" fill="#919191" d="M 778.5,617.5 C 775.373,618.581 772.04,619.247 768.5,619.5C 771.507,617.825 774.84,617.159 778.5,617.5 Z"/></g>
<g><path style="opacity:1" fill="#767676" d="M 1665.5,726.5 C 1666.83,727.167 1667.83,728.167 1668.5,729.5C 1666.5,729.5 1665.5,728.5 1665.5,726.5 Z"/></g>
<g><path style="opacity:1" fill="#767676" d="M 1687.5,763.5 C 1689.63,763.554 1690.97,764.554 1691.5,766.5C 1689.37,766.446 1688.03,765.446 1687.5,763.5 Z"/></g>
<g><path style="opacity:1" fill="#707070" d="M 1692.5,770.5 C 1694.52,771.507 1695.86,773.174 1696.5,775.5C 1694.12,774.794 1692.79,773.127 1692.5,770.5 Z"/></g>
<g><path style="opacity:1" fill="#6a6a6a" d="M 1713.5,850.5 C 1715.46,852.32 1715.79,854.32 1714.5,856.5C 1713.85,854.565 1713.52,852.565 1713.5,850.5 Z"/></g>
<g><path style="opacity:1" fill="#606060" d="M 1716.5,885.5 C 1717.68,888.523 1717.68,891.523 1716.5,894.5C 1716.21,891.547 1716.21,888.547 1716.5,885.5 Z"/></g>
<g><path style="opacity:1" fill="#9a9a9a" d="M 1713.5,922.5 C 1713.66,924.857 1713.5,927.19 1713,929.5C 1712.62,930.056 1712.12,930.389 1711.5,930.5C 1711.96,927.67 1712.63,925.003 1713.5,922.5 Z"/></g>
<g><path style="opacity:1" fill="#777777" d="M 559.5,999.5 C 560.906,999.973 561.573,1000.97 561.5,1002.5C 560.094,1002.03 559.427,1001.03 559.5,999.5 Z"/></g>
</svg>
