<?xml version="1.0" encoding="UTF-8"?>
<!DOCTYPE svg PUBLIC "-//W3C//DTD SVG 1.1//EN" "http://www.w3.org/Graphics/SVG/1.1/DTD/svg11.dtd">
<svg xmlns="http://www.w3.org/2000/svg" version="1.1" width="2048px" height="2048px" style="shape-rendering:geometricPrecision; text-rendering:geometricPrecision; image-rendering:optimizeQuality; fill-rule:evenodd; clip-rule:evenodd" xmlns:xlink="http://www.w3.org/1999/xlink">
<g><path style="opacity:0.709" fill="#020201" d="M 634.5,224.5 C 638.828,224.322 641.662,226.322 643,230.5C 643.398,263.286 654.398,291.952 676,316.5C 684,323.833 692,331.167 700,338.5C 701.421,341.009 703.088,343.343 705,345.5C 705.49,346.793 705.657,348.127 705.5,349.5C 702.784,349.678 700.117,350.178 697.5,351C 678.911,368.016 669.411,389.183 669,414.5C 666.767,419.741 664.267,424.741 661.5,429.5C 654.472,410.906 645.639,393.239 635,376.5C 621.514,359.673 604.014,351.34 582.5,351.5C 580.853,348.546 581.519,346.38 584.5,345C 590.426,343.568 596.426,342.568 602.5,342C 616.268,325.634 625.768,306.8 631,285.5C 632.386,278.516 633.553,271.516 634.5,264.5C 632.881,255.34 631.215,246.174 629.5,237C 629.585,232.125 631.251,227.958 634.5,224.5 Z"/></g>
<g><path style="opacity:1" fill="#5c552a" d="M 646.5,294.5 C 644.953,293.232 643.953,291.565 643.5,289.5C 643.368,286.993 642.368,286.326 640.5,287.5C 641.077,285.348 642.244,285.015 644,286.5C 644.941,289.154 645.774,291.821 646.5,294.5 Z"/></g>
<g><path style="opacity:1" fill="#948844" d="M 643.5,289.5 C 642.883,289.389 642.383,289.056 642,288.5C 641.434,290.723 640.6,292.723 639.5,294.5C 639.674,292.139 640.007,289.806 640.5,287.5C 642.368,286.326 643.368,286.993 643.5,289.5 Z"/></g>
<g><path style="opacity:1" fill="#dccb66" d="M 643.5,289.5 C 643.953,291.565 644.953,293.232 646.5,294.5C 647.302,297.574 648.302,300.574 649.5,303.5C 648.504,303.586 647.671,303.252 647,302.5C 646.291,299.464 645.124,296.631 643.5,294C 642.668,293.312 642.002,293.479 641.5,294.5C 641.006,296.026 640.339,297.359 639.5,298.5C 639.5,297.5 639.5,296.5 639.5,295.5C 639.5,295.167 639.5,294.833 639.5,294.5C 640.6,292.723 641.434,290.723 642,288.5C 642.383,289.056 642.883,289.389 643.5,289.5 Z"/></g>
<g><path style="opacity:1" fill="#fbe774" d="M 649.5,303.5 C 651.83,307.492 654.163,311.492 656.5,315.5C 656.427,317.027 657.094,318.027 658.5,318.5C 658.738,320.404 659.738,321.738 661.5,322.5C 661.738,324.404 662.738,325.738 664.5,326.5C 665.419,329.089 667.086,331.089 669.5,332.5C 670.833,335.833 673.167,338.167 676.5,339.5C 676.833,339.5 677.167,339.5 677.5,339.5C 678.833,341.5 680.5,343.167 682.5,344.5C 682.5,345.833 682.5,347.167 682.5,348.5C 677.5,352.833 672.833,357.5 668.5,362.5C 665.395,365.275 663.062,368.608 661.5,372.5C 661.5,373.167 661.5,373.833 661.5,374.5C 660.326,375.514 659.66,376.847 659.5,378.5C 658.833,378.833 658.167,379.167 657.5,379.5C 656.883,379.611 656.383,379.944 656,380.5C 655.583,379.244 654.75,378.577 653.5,378.5C 652.833,378.167 652.167,377.833 651.5,377.5C 651.262,375.596 650.262,374.262 648.5,373.5C 648.573,371.973 647.906,370.973 646.5,370.5C 643.5,365.5 639.5,361.5 634.5,358.5C 633.738,356.738 632.404,355.738 630.5,355.5C 627.825,353.83 625.159,352.164 622.5,350.5C 620.824,348.166 618.491,347.166 615.5,347.5C 615.833,346.167 616.167,344.833 616.5,343.5C 618.262,342.738 619.262,341.404 619.5,339.5C 620.906,339.027 621.573,338.027 621.5,336.5C 622.906,336.027 623.573,335.027 623.5,333.5C 624.674,332.486 625.34,331.153 625.5,329.5C 626.906,329.027 627.573,328.027 627.5,326.5C 628.167,326.167 628.833,325.833 629.5,325.5C 634.934,317.735 638.268,309.069 639.5,299.5C 639.5,299.167 639.5,298.833 639.5,298.5C 640.339,297.359 641.006,296.026 641.5,294.5C 642.002,293.479 642.668,293.312 643.5,294C 645.124,296.631 646.291,299.464 647,302.5C 647.671,303.252 648.504,303.586 649.5,303.5 Z"/></g>
<g><path style="opacity:1" fill="#80763b" d="M 639.5,295.5 C 639.5,296.5 639.5,297.5 639.5,298.5C 639.5,298.833 639.5,299.167 639.5,299.5C 638.833,300.5 638.167,301.5 637.5,302.5C 637.41,299.848 638.076,297.515 639.5,295.5 Z"/></g>
<g><path style="opacity:1" fill="#413c1e" d="M 637.5,302.5 C 637.204,304.403 636.537,306.07 635.5,307.5C 635.12,305.302 635.787,303.635 637.5,302.5 Z"/></g>
<g><path style="opacity:1" fill="#696030" d="M 635.5,307.5 C 635.655,310.716 634.655,313.383 632.5,315.5C 633.129,312.603 634.129,309.936 635.5,307.5 Z"/></g>
<g><path style="opacity:1" fill="#d4c362" d="M 639.5,299.5 C 638.268,309.069 634.934,317.735 629.5,325.5C 629.5,324.833 629.5,324.167 629.5,323.5C 630.5,320.833 631.5,318.167 632.5,315.5C 634.655,313.383 635.655,310.716 635.5,307.5C 636.537,306.07 637.204,304.403 637.5,302.5C 638.167,301.5 638.833,300.5 639.5,299.5 Z"/></g>
<g><path style="opacity:1" fill="#8e8341" d="M 656.5,315.5 C 657.906,315.973 658.573,316.973 658.5,318.5C 657.094,318.027 656.427,317.027 656.5,315.5 Z"/></g>
<g><path style="opacity:1" fill="#8b8040" d="M 658.5,318.5 C 660.262,319.262 661.262,320.596 661.5,322.5C 659.738,321.738 658.738,320.404 658.5,318.5 Z"/></g>
<g><path style="opacity:1" fill="#8a7f40" d="M 661.5,322.5 C 663.262,323.262 664.262,324.596 664.5,326.5C 662.738,325.738 661.738,324.404 661.5,322.5 Z"/></g>
<g><path style="opacity:1" fill="#7a7038" d="M 629.5,323.5 C 629.5,324.167 629.5,324.833 629.5,325.5C 628.833,325.833 628.167,326.167 627.5,326.5C 627.427,324.973 628.094,323.973 629.5,323.5 Z"/></g>
<g><path style="opacity:1" fill="#857b3d" d="M 664.5,326.5 C 666.914,327.911 668.581,329.911 669.5,332.5C 667.086,331.089 665.419,329.089 664.5,326.5 Z"/></g>
<g><path style="opacity:1" fill="#585129" d="M 627.5,326.5 C 627.573,328.027 626.906,329.027 625.5,329.5C 625.427,327.973 626.094,326.973 627.5,326.5 Z"/></g>
<g><path style="opacity:1" fill="#a1944a" d="M 669.5,332.5 C 672.167,334.5 674.5,336.833 676.5,339.5C 673.167,338.167 670.833,335.833 669.5,332.5 Z"/></g>
<g><path style="opacity:1" fill="#746b36" d="M 623.5,333.5 C 623.573,335.027 622.906,336.027 621.5,336.5C 621.427,334.973 622.094,333.973 623.5,333.5 Z"/></g>
<g><path style="opacity:1" fill="#83793d" d="M 621.5,336.5 C 621.573,338.027 620.906,339.027 619.5,339.5C 619.427,337.973 620.094,336.973 621.5,336.5 Z"/></g>
<g><path style="opacity:1" fill="#8c8141" d="M 619.5,339.5 C 619.262,341.404 618.262,342.738 616.5,343.5C 616.738,341.596 617.738,340.262 619.5,339.5 Z"/></g>
<g><path style="opacity:1" fill="#4c4623" d="M 677.5,339.5 C 680.089,340.419 682.089,342.086 683.5,344.5C 683.167,344.5 682.833,344.5 682.5,344.5C 680.5,343.167 678.833,341.5 677.5,339.5 Z"/></g>
<g><path style="opacity:1" fill="#bfaf58" d="M 682.5,344.5 C 682.833,344.5 683.167,344.5 683.5,344.5C 684.833,345.833 684.833,347.167 683.5,348.5C 683.167,348.5 682.833,348.5 682.5,348.5C 682.5,347.167 682.5,345.833 682.5,344.5 Z"/></g>
<g><path style="opacity:1" fill="#9b8f47" d="M 616.5,343.5 C 616.167,344.833 615.833,346.167 615.5,347.5C 614.662,347.158 614.328,346.492 614.5,345.5C 614.833,344.5 615.5,343.833 616.5,343.5 Z"/></g>
<g><path style="opacity:1" fill="#504925" d="M 683.5,344.5 C 684.586,344.62 685.253,345.287 685.5,346.5C 685.253,347.713 684.586,348.38 683.5,348.5C 684.833,347.167 684.833,345.833 683.5,344.5 Z"/></g>
<g><path style="opacity:1" fill="#575028" d="M 614.5,345.5 C 614.328,346.492 614.662,347.158 615.5,347.5C 615.5,347.833 615.5,348.167 615.5,348.5C 613.448,347.947 613.115,346.947 614.5,345.5 Z"/></g>
<g><path style="opacity:1" fill="#bdaf57" d="M 615.5,348.5 C 615.5,348.167 615.5,347.833 615.5,347.5C 618.491,347.166 620.824,348.166 622.5,350.5C 620.167,349.833 617.833,349.167 615.5,348.5 Z"/></g>
<g><path style="opacity:1" fill="#504925" d="M 682.5,348.5 C 682.833,348.5 683.167,348.5 683.5,348.5C 678.833,353.833 673.833,358.833 668.5,363.5C 668.5,363.167 668.5,362.833 668.5,362.5C 672.833,357.5 677.5,352.833 682.5,348.5 Z"/></g>
<g><path style="opacity:1" fill="#8d8241" d="M 630.5,355.5 C 632.404,355.738 633.738,356.738 634.5,358.5C 632.596,358.262 631.262,357.262 630.5,355.5 Z"/></g>
<g><path style="opacity:1" fill="#83793d" d="M 634.5,358.5 C 639.5,361.5 643.5,365.5 646.5,370.5C 642.167,366.833 638.167,362.833 634.5,358.5 Z"/></g>
<g><path style="opacity:1" fill="#8d8241" d="M 668.5,362.5 C 668.5,362.833 668.5,363.167 668.5,363.5C 666.833,366.167 665.167,368.833 663.5,371.5C 662.833,371.833 662.167,372.167 661.5,372.5C 663.062,368.608 665.395,365.275 668.5,362.5 Z"/></g>
<g><path style="opacity:1" fill="#564f27" d="M 646.5,370.5 C 647.906,370.973 648.573,371.973 648.5,373.5C 647.094,373.027 646.427,372.027 646.5,370.5 Z"/></g>
<g><path style="opacity:1" fill="#4e4924" d="M 663.5,371.5 C 663.573,373.027 662.906,374.027 661.5,374.5C 661.5,373.833 661.5,373.167 661.5,372.5C 662.167,372.167 662.833,371.833 663.5,371.5 Z"/></g>
<g><path style="opacity:1" fill="#494322" d="M 648.5,373.5 C 650.262,374.262 651.262,375.596 651.5,377.5C 649.738,376.738 648.738,375.404 648.5,373.5 Z"/></g>
<g><path style="opacity:1" fill="#36321b" d="M 661.5,374.5 C 661.843,376.483 661.176,377.817 659.5,378.5C 659.66,376.847 660.326,375.514 661.5,374.5 Z"/></g>
<g><path style="opacity:1" fill="#ccbb5e" d="M 653.5,378.5 C 654.75,378.577 655.583,379.244 656,380.5C 656.383,379.944 656.883,379.611 657.5,379.5C 657.5,380.833 657.5,382.167 657.5,383.5C 655.973,383.573 654.973,382.906 654.5,381.5C 654.443,380.391 654.11,379.391 653.5,378.5 Z"/></g>
<g><path style="opacity:1" fill="#5e572b" d="M 651.5,377.5 C 652.167,377.833 652.833,378.167 653.5,378.5C 654.11,379.391 654.443,380.391 654.5,381.5C 652.738,380.738 651.738,379.404 651.5,377.5 Z"/></g>
<g><path style="opacity:1" fill="#746a35" d="M 659.5,378.5 C 659.204,380.403 658.537,382.07 657.5,383.5C 657.5,382.167 657.5,380.833 657.5,379.5C 658.167,379.167 658.833,378.833 659.5,378.5 Z"/></g>
<g><path style="opacity:0.712" fill="#030201" d="M 1499.5,443.5 C 1502.29,443.452 1504.13,444.785 1505,447.5C 1505.8,454.698 1507.47,461.698 1510,468.5C 1516.41,481.673 1524.08,494.006 1533,505.5C 1537.43,510.607 1542.43,514.94 1548,518.5C 1551.62,528.135 1548.45,532.301 1538.5,531C 1534.46,535.582 1531.29,540.749 1529,546.5C 1525.52,557.59 1523.18,568.923 1522,580.5C 1520.96,597.831 1519.96,615.164 1519,632.5C 1516.04,639.764 1511.21,641.264 1504.5,637C 1502.66,632.687 1500.16,628.853 1497,625.5C 1492.2,600.315 1485.54,575.648 1477,551.5C 1473.78,543.613 1468.45,537.613 1461,533.5C 1454.11,537.024 1446.94,538.191 1439.5,537C 1434,530.775 1434.67,525.108 1441.5,520C 1448.07,518.162 1454.73,516.828 1461.5,516C 1478.28,501.64 1489.94,483.806 1496.5,462.5C 1494.38,455.511 1495.38,449.178 1499.5,443.5 Z"/></g>
<g><path style="opacity:1" fill="#706734" d="M 1501.5,473.5 C 1500.62,473.369 1499.96,473.702 1499.5,474.5C 1498.14,477.601 1496.81,480.601 1495.5,483.5C 1495.74,478.951 1497.24,474.951 1500,471.5C 1501.03,471.836 1501.53,472.503 1501.5,473.5 Z"/></g>
<g><path style="opacity:1" fill="#fbe774" d="M 1501.5,473.5 C 1501.42,476.649 1502.42,479.316 1504.5,481.5C 1504.43,483.027 1505.09,484.027 1506.5,484.5C 1506.8,486.403 1507.46,488.07 1508.5,489.5C 1508.72,492.546 1510.06,494.879 1512.5,496.5C 1512.99,498.819 1513.99,500.819 1515.5,502.5C 1515.43,504.027 1516.09,505.027 1517.5,505.5C 1518.17,506.833 1518.83,508.167 1519.5,509.5C 1519.74,511.404 1520.74,512.738 1522.5,513.5C 1522.74,515.404 1523.74,516.738 1525.5,517.5C 1526.17,520.167 1527.83,521.833 1530.5,522.5C 1530.5,523.5 1530.5,524.5 1530.5,525.5C 1529.83,525.5 1529.5,525.833 1529.5,526.5C 1528.17,526.5 1527.5,527.167 1527.5,528.5C 1525.74,529.262 1524.74,530.596 1524.5,532.5C 1523.09,532.973 1522.43,533.973 1522.5,535.5C 1521.09,535.973 1520.43,536.973 1520.5,538.5C 1520.5,539.167 1520.5,539.833 1520.5,540.5C 1519.33,541.514 1518.66,542.847 1518.5,544.5C 1517.33,545.514 1516.66,546.847 1516.5,548.5C 1514.93,550.102 1514.26,552.102 1514.5,554.5C 1513.15,559.254 1511.81,563.921 1510.5,568.5C 1509.78,568.918 1509.28,569.584 1509,570.5C 1508.5,573.146 1508.34,575.813 1508.5,578.5C 1507.88,581.534 1507.05,584.534 1506,587.5C 1505.29,586.619 1504.46,585.953 1503.5,585.5C 1503.5,584.833 1503.5,584.167 1503.5,583.5C 1503.43,575.49 1501.1,568.49 1496.5,562.5C 1496.5,562.167 1496.5,561.833 1496.5,561.5C 1496.07,555.992 1494.07,551.326 1490.5,547.5C 1490.57,545.973 1489.91,544.973 1488.5,544.5C 1488.67,543.508 1488.34,542.842 1487.5,542.5C 1487.57,540.973 1486.91,539.973 1485.5,539.5C 1484.92,537.589 1483.92,535.922 1482.5,534.5C 1482.51,531.858 1481.18,530.525 1478.5,530.5C 1477.74,528.738 1476.4,527.738 1474.5,527.5C 1473.51,527.672 1472.84,527.338 1472.5,526.5C 1471.7,525.577 1471.53,524.577 1472,523.5C 1476.85,518.827 1480.69,513.494 1483.5,507.5C 1484.17,506.167 1484.83,504.833 1485.5,503.5C 1486.17,503.167 1486.83,502.833 1487.5,502.5C 1489.29,500.572 1490.29,498.238 1490.5,495.5C 1493.13,493.236 1494.46,490.236 1494.5,486.5C 1495.11,485.609 1495.44,484.609 1495.5,483.5C 1496.81,480.601 1498.14,477.601 1499.5,474.5C 1499.96,473.702 1500.62,473.369 1501.5,473.5 Z"/></g>
<g><path style="opacity:1" fill="#8a8040" d="M 1501.5,473.5 C 1503.58,475.684 1504.58,478.351 1504.5,481.5C 1502.42,479.316 1501.42,476.649 1501.5,473.5 Z"/></g>
<g><path style="opacity:1" fill="#5c552b" d="M 1504.5,481.5 C 1505.91,481.973 1506.57,482.973 1506.5,484.5C 1505.09,484.027 1504.43,483.027 1504.5,481.5 Z"/></g>
<g><path style="opacity:1" fill="#554f27" d="M 1495.5,483.5 C 1495.44,484.609 1495.11,485.609 1494.5,486.5C 1494.17,486.5 1493.83,486.5 1493.5,486.5C 1493.43,484.973 1494.09,483.973 1495.5,483.5 Z"/></g>
<g><path style="opacity:1" fill="#bdae57" d="M 1493.5,486.5 C 1493.83,486.5 1494.17,486.5 1494.5,486.5C 1494.46,490.236 1493.13,493.236 1490.5,495.5C 1491.7,492.574 1492.7,489.574 1493.5,486.5 Z"/></g>
<g><path style="opacity:1" fill="#635b2e" d="M 1508.5,489.5 C 1510.2,491.566 1511.53,493.9 1512.5,496.5C 1510.06,494.879 1508.72,492.546 1508.5,489.5 Z"/></g>
<g><path style="opacity:1" fill="#b9ab56" d="M 1490.5,495.5 C 1490.29,498.238 1489.29,500.572 1487.5,502.5C 1487.5,501.833 1487.5,501.167 1487.5,500.5C 1488.11,498.566 1489.11,496.899 1490.5,495.5 Z"/></g>
<g><path style="opacity:1" fill="#625a2d" d="M 1487.5,500.5 C 1487.5,501.167 1487.5,501.833 1487.5,502.5C 1486.83,502.833 1486.17,503.167 1485.5,503.5C 1485.43,501.973 1486.09,500.973 1487.5,500.5 Z"/></g>
<g><path style="opacity:1" fill="#665e2f" d="M 1515.5,502.5 C 1516.91,502.973 1517.57,503.973 1517.5,505.5C 1516.09,505.027 1515.43,504.027 1515.5,502.5 Z"/></g>
<g><path style="opacity:1" fill="#938743" d="M 1519.5,509.5 C 1521.26,510.262 1522.26,511.596 1522.5,513.5C 1520.74,512.738 1519.74,511.404 1519.5,509.5 Z"/></g>
<g><path style="opacity:1" fill="#908542" d="M 1522.5,513.5 C 1524.26,514.262 1525.26,515.596 1525.5,517.5C 1523.74,516.738 1522.74,515.404 1522.5,513.5 Z"/></g>
<g><path style="opacity:1" fill="#877c3e" d="M 1483.5,507.5 C 1480.69,513.494 1476.85,518.827 1472,523.5C 1471.53,524.577 1471.7,525.577 1472.5,526.5C 1471.51,526.672 1470.84,526.338 1470.5,525.5C 1470.5,524.5 1470.5,523.5 1470.5,522.5C 1475.21,517.795 1479.54,512.795 1483.5,507.5 Z"/></g>
<g><path style="opacity:1" fill="#a1954b" d="M 1525.5,517.5 C 1527.5,518.833 1529.17,520.5 1530.5,522.5C 1527.83,521.833 1526.17,520.167 1525.5,517.5 Z"/></g>
<g><path style="opacity:0.98" fill="#514b26" d="M 1530.5,522.5 C 1532.98,523.26 1532.98,524.26 1530.5,525.5C 1530.5,524.5 1530.5,523.5 1530.5,522.5 Z"/></g>
<g><path style="opacity:1" fill="#312e18" d="M 1470.5,522.5 C 1470.5,523.5 1470.5,524.5 1470.5,525.5C 1468.02,524.74 1468.02,523.74 1470.5,522.5 Z"/></g>
<g><path style="opacity:1" fill="#897e3f" d="M 1474.5,527.5 C 1476.4,527.738 1477.74,528.738 1478.5,530.5C 1476.6,530.262 1475.26,529.262 1474.5,527.5 Z"/></g>
<g><path style="opacity:1" fill="#746b35" d="M 1529.5,526.5 C 1529.17,527.5 1528.5,528.167 1527.5,528.5C 1527.5,527.167 1528.17,526.5 1529.5,526.5 Z"/></g>
<g><path style="opacity:1" fill="#675f30" d="M 1527.5,528.5 C 1527.26,530.404 1526.26,531.738 1524.5,532.5C 1524.74,530.596 1525.74,529.262 1527.5,528.5 Z"/></g>
<g><path style="opacity:1" fill="#c9ba5d" d="M 1478.5,530.5 C 1481.18,530.525 1482.51,531.858 1482.5,534.5C 1482.17,534.5 1481.83,534.5 1481.5,534.5C 1480.5,533.167 1479.5,531.833 1478.5,530.5 Z"/></g>
<g><path style="opacity:1" fill="#83793c" d="M 1524.5,532.5 C 1524.57,534.027 1523.91,535.027 1522.5,535.5C 1522.43,533.973 1523.09,532.973 1524.5,532.5 Z"/></g>
<g><path style="opacity:1" fill="#494322" d="M 1481.5,534.5 C 1481.83,534.5 1482.17,534.5 1482.5,534.5C 1483.92,535.922 1484.92,537.589 1485.5,539.5C 1483.41,538.415 1482.08,536.749 1481.5,534.5 Z"/></g>
<g><path style="opacity:1" fill="#9c9048" d="M 1522.5,535.5 C 1522.5,536.167 1522.5,536.833 1522.5,537.5C 1521.83,537.833 1521.17,538.167 1520.5,538.5C 1520.43,536.973 1521.09,535.973 1522.5,535.5 Z"/></g>
<g><path style="opacity:1" fill="#3e391d" d="M 1522.5,537.5 C 1522.57,539.027 1521.91,540.027 1520.5,540.5C 1520.5,539.833 1520.5,539.167 1520.5,538.5C 1521.17,538.167 1521.83,537.833 1522.5,537.5 Z"/></g>
<g><path style="opacity:1" fill="#6c6432" d="M 1485.5,539.5 C 1486.91,539.973 1487.57,540.973 1487.5,542.5C 1486.09,542.027 1485.43,541.027 1485.5,539.5 Z"/></g>
<g><path style="opacity:1" fill="#322e19" d="M 1520.5,540.5 C 1520.84,542.483 1520.18,543.817 1518.5,544.5C 1518.66,542.847 1519.33,541.514 1520.5,540.5 Z"/></g>
<g><path style="opacity:1" fill="#7e743a" d="M 1488.5,544.5 C 1489.91,544.973 1490.57,545.973 1490.5,547.5C 1489.09,547.027 1488.43,546.027 1488.5,544.5 Z"/></g>
<g><path style="opacity:1" fill="#423d1f" d="M 1518.5,544.5 C 1518.74,546.898 1518.07,548.898 1516.5,550.5C 1516.5,549.833 1516.5,549.167 1516.5,548.5C 1516.66,546.847 1517.33,545.514 1518.5,544.5 Z"/></g>
<g><path style="opacity:1" fill="#b9ab56" d="M 1490.5,547.5 C 1494.07,551.326 1496.07,555.992 1496.5,561.5C 1495.83,560.833 1495.17,560.167 1494.5,559.5C 1494.74,557.102 1494.07,555.102 1492.5,553.5C 1491.83,551.5 1491.17,549.5 1490.5,547.5 Z"/></g>
<g><path style="opacity:1" fill="#797038" d="M 1516.5,548.5 C 1516.5,549.167 1516.5,549.833 1516.5,550.5C 1516.34,552.153 1515.67,553.486 1514.5,554.5C 1514.26,552.102 1514.93,550.102 1516.5,548.5 Z"/></g>
<g><path style="opacity:1" fill="#36311a" d="M 1492.5,553.5 C 1494.07,555.102 1494.74,557.102 1494.5,559.5C 1492.93,557.898 1492.26,555.898 1492.5,553.5 Z"/></g>
<g><path style="opacity:1" fill="#35311a" d="M 1494.5,559.5 C 1495.17,560.167 1495.83,560.833 1496.5,561.5C 1496.5,561.833 1496.5,562.167 1496.5,562.5C 1498.04,567.126 1499.38,571.793 1500.5,576.5C 1497.73,571.182 1495.73,565.515 1494.5,559.5 Z"/></g>
<g><path style="opacity:1" fill="#c9b95d" d="M 1496.5,562.5 C 1501.1,568.49 1503.43,575.49 1503.5,583.5C 1502.83,582.5 1502.17,581.5 1501.5,580.5C 1501.77,578.901 1501.43,577.568 1500.5,576.5C 1499.38,571.793 1498.04,567.126 1496.5,562.5 Z"/></g>
<g><path style="opacity:1" fill="#b7a955" d="M 1510.5,568.5 C 1509.95,571.807 1509.62,575.14 1509.5,578.5C 1509.17,578.5 1508.83,578.5 1508.5,578.5C 1508.34,575.813 1508.5,573.146 1509,570.5C 1509.28,569.584 1509.78,568.918 1510.5,568.5 Z"/></g>
<g><path style="opacity:1" fill="#353119" d="M 1501.5,580.5 C 1502.17,581.5 1502.83,582.5 1503.5,583.5C 1503.5,584.167 1503.5,584.833 1503.5,585.5C 1503.5,586.167 1503.5,586.833 1503.5,587.5C 1502.08,585.485 1501.41,583.152 1501.5,580.5 Z"/></g>
<g><path style="opacity:1" fill="#a2954b" d="M 1508.5,578.5 C 1508.83,578.5 1509.17,578.5 1509.5,578.5C 1509.04,581.482 1508.7,584.482 1508.5,587.5C 1507.84,589.042 1507.17,590.709 1506.5,592.5C 1505.3,590.855 1504.3,589.189 1503.5,587.5C 1503.5,586.833 1503.5,586.167 1503.5,585.5C 1504.46,585.953 1505.29,586.619 1506,587.5C 1507.05,584.534 1507.88,581.534 1508.5,578.5 Z"/></g>
<g><path style="opacity:0.996" fill="#3b371c" d="M 1503.5,587.5 C 1504.3,589.189 1505.3,590.855 1506.5,592.5C 1507.17,590.709 1507.84,589.042 1508.5,587.5C 1508.5,590.167 1508.5,592.833 1508.5,595.5C 1507.18,595.67 1506.01,595.337 1505,594.5C 1504.02,592.26 1503.52,589.927 1503.5,587.5 Z"/></g>
<g><path style="opacity:0.728" fill="#020100" d="M 492.5,1098.5 C 496.698,1098.89 498.532,1101.23 498,1105.5C 498.667,1106.17 499.333,1106.83 500,1107.5C 507,1125.5 513,1143.83 518,1162.5C 519.827,1169.66 523.327,1175.83 528.5,1181C 535.753,1184.2 543.086,1187.2 550.5,1190C 552.225,1191.95 553.558,1194.12 554.5,1196.5C 551.993,1200.42 548.993,1203.92 545.5,1207C 543.167,1207.33 540.833,1207.67 538.5,1208C 531.873,1213.3 526.706,1219.8 523,1227.5C 515.162,1248.56 511.828,1270.23 513,1292.5C 511.54,1295.21 509.54,1295.88 507,1294.5C 500.527,1273.72 491.027,1254.56 478.5,1237C 472.183,1231.84 465.516,1227.17 458.5,1223C 450.542,1219.54 442.209,1217.88 433.5,1218C 432.663,1216.99 432.33,1215.82 432.5,1214.5C 434.655,1214.63 436.655,1214.13 438.5,1213C 461.268,1198.96 476.434,1179.12 484,1153.5C 485.737,1138.13 487.737,1122.8 490,1107.5C 490.199,1104.28 491.032,1101.28 492.5,1098.5 Z"/></g>
<g><path style="opacity:1" fill="#474121" d="M 500.5,1146.5 C 499.833,1146.5 499.5,1146.17 499.5,1145.5C 499.44,1144.96 499.107,1144.62 498.5,1144.5C 497.526,1146.74 497.192,1149.08 497.5,1151.5C 497.795,1153.74 497.461,1155.74 496.5,1157.5C 496.5,1152.17 496.5,1146.83 496.5,1141.5C 499.91,1141.38 501.244,1143.05 500.5,1146.5 Z"/></g>
<g><path style="opacity:1" fill="#978b46" d="M 499.5,1145.5 C 498.539,1147.26 498.205,1149.26 498.5,1151.5C 498.167,1151.5 497.833,1151.5 497.5,1151.5C 497.192,1149.08 497.526,1146.74 498.5,1144.5C 499.107,1144.62 499.44,1144.96 499.5,1145.5 Z"/></g>
<g><path style="opacity:1" fill="#b2a452" d="M 499.5,1145.5 C 499.5,1146.17 499.833,1146.5 500.5,1146.5C 501.15,1148.44 501.483,1150.44 501.5,1152.5C 500.391,1152.44 499.391,1152.11 498.5,1151.5C 498.205,1149.26 498.539,1147.26 499.5,1145.5 Z"/></g>
<g><path style="opacity:1" fill="#fae774" d="M 498.5,1151.5 C 499.391,1152.11 500.391,1152.44 501.5,1152.5C 501.216,1154.41 501.549,1156.08 502.5,1157.5C 502.5,1158.83 502.5,1160.17 502.5,1161.5C 502.345,1164.72 503.345,1167.38 505.5,1169.5C 506.16,1175.14 508.16,1180.14 511.5,1184.5C 512.167,1185.83 512.833,1187.17 513.5,1188.5C 514.5,1191.5 516.5,1193.5 519.5,1194.5C 520.262,1196.26 521.596,1197.26 523.5,1197.5C 523.973,1198.91 524.973,1199.57 526.5,1199.5C 527.573,1200.25 527.74,1201.25 527,1202.5C 521.574,1207.09 517.074,1212.42 513.5,1218.5C 512.094,1218.97 511.427,1219.97 511.5,1221.5C 511.5,1222.17 511.5,1222.83 511.5,1223.5C 511.5,1223.83 511.5,1224.17 511.5,1224.5C 510.326,1225.51 509.66,1226.85 509.5,1228.5C 507.194,1232.08 505.861,1236.08 505.5,1240.5C 504.662,1240.84 504.328,1241.51 504.5,1242.5C 502.787,1243.64 502.12,1245.3 502.5,1247.5C 502.5,1248.17 502.5,1248.83 502.5,1249.5C 501.883,1249.61 501.383,1249.94 501,1250.5C 500.119,1247.99 498.619,1245.99 496.5,1244.5C 496.262,1242.6 495.262,1241.26 493.5,1240.5C 493.267,1238.94 492.6,1237.6 491.5,1236.5C 491.512,1233.86 490.179,1232.52 487.5,1232.5C 485.833,1228.83 483.167,1226.17 479.5,1224.5C 478.415,1222.41 476.749,1221.08 474.5,1220.5C 474.027,1219.09 473.027,1218.43 471.5,1218.5C 470.508,1218.67 469.842,1218.34 469.5,1217.5C 469.027,1216.09 468.027,1215.43 466.5,1215.5C 465.89,1214.61 465.557,1213.61 465.5,1212.5C 468.764,1210.91 471.431,1208.57 473.5,1205.5C 476.637,1202.7 478.971,1199.37 480.5,1195.5C 481.906,1195.03 482.573,1194.03 482.5,1192.5C 483.338,1192.16 483.672,1191.49 483.5,1190.5C 484.906,1190.03 485.573,1189.03 485.5,1187.5C 486.674,1186.49 487.34,1185.15 487.5,1183.5C 488.167,1183.17 488.833,1182.83 489.5,1182.5C 491.38,1180.24 492.38,1177.58 492.5,1174.5C 494.106,1171.01 495.106,1167.35 495.5,1163.5C 495.5,1163.17 495.5,1162.83 495.5,1162.5C 496.79,1161.94 497.623,1160.94 498,1159.5C 498.497,1156.85 498.664,1154.19 498.5,1151.5 Z"/></g>
<g><path style="opacity:1" fill="#bbac56" d="M 497.5,1151.5 C 497.833,1151.5 498.167,1151.5 498.5,1151.5C 498.664,1154.19 498.497,1156.85 498,1159.5C 497.623,1160.94 496.79,1161.94 495.5,1162.5C 495.366,1160.71 495.699,1159.04 496.5,1157.5C 497.461,1155.74 497.795,1153.74 497.5,1151.5 Z"/></g>
<g><path style="opacity:1" fill="#534d26" d="M 502.5,1157.5 C 503.924,1159.51 504.59,1161.85 504.5,1164.5C 503.833,1163.5 503.167,1162.5 502.5,1161.5C 502.5,1160.17 502.5,1158.83 502.5,1157.5 Z"/></g>
<g><path style="opacity:1" fill="#a99c4e" d="M 502.5,1161.5 C 503.167,1162.5 503.833,1163.5 504.5,1164.5C 505.301,1166.04 505.634,1167.71 505.5,1169.5C 503.345,1167.38 502.345,1164.72 502.5,1161.5 Z"/></g>
<g><path style="opacity:1" fill="#877d3e" d="M 495.5,1163.5 C 495.106,1167.35 494.106,1171.01 492.5,1174.5C 492.167,1174.5 491.833,1174.5 491.5,1174.5C 492.462,1170.61 493.796,1166.94 495.5,1163.5 Z"/></g>
<g><path style="opacity:1" fill="#746b35" d="M 505.5,1169.5 C 507.871,1174.26 509.871,1179.26 511.5,1184.5C 508.16,1180.14 506.16,1175.14 505.5,1169.5 Z"/></g>
<g><path style="opacity:1" fill="#60582c" d="M 491.5,1175.5 C 491.573,1177.03 490.906,1178.03 489.5,1178.5C 489.427,1176.97 490.094,1175.97 491.5,1175.5 Z"/></g>
<g><path style="opacity:1" fill="#cebe5f" d="M 491.5,1174.5 C 491.833,1174.5 492.167,1174.5 492.5,1174.5C 492.38,1177.58 491.38,1180.24 489.5,1182.5C 489.5,1181.83 489.5,1181.17 489.5,1180.5C 489.5,1179.83 489.5,1179.17 489.5,1178.5C 490.906,1178.03 491.573,1177.03 491.5,1175.5C 491.5,1175.17 491.5,1174.83 491.5,1174.5 Z"/></g>
<g><path style="opacity:1" fill="#726934" d="M 489.5,1180.5 C 489.5,1181.17 489.5,1181.83 489.5,1182.5C 488.833,1182.83 488.167,1183.17 487.5,1183.5C 487.427,1181.97 488.094,1180.97 489.5,1180.5 Z"/></g>
<g><path style="opacity:1" fill="#5b542a" d="M 485.5,1187.5 C 485.573,1189.03 484.906,1190.03 483.5,1190.5C 483.427,1188.97 484.094,1187.97 485.5,1187.5 Z"/></g>
<g><path style="opacity:1" fill="#857b3d" d="M 513.5,1188.5 C 515.833,1190.17 517.833,1192.17 519.5,1194.5C 516.5,1193.5 514.5,1191.5 513.5,1188.5 Z"/></g>
<g><path style="opacity:1" fill="#756c36" d="M 482.5,1192.5 C 482.573,1194.03 481.906,1195.03 480.5,1195.5C 480.427,1193.97 481.094,1192.97 482.5,1192.5 Z"/></g>
<g><path style="opacity:1" fill="#706834" d="M 519.5,1194.5 C 521.404,1194.74 522.738,1195.74 523.5,1197.5C 521.596,1197.26 520.262,1196.26 519.5,1194.5 Z"/></g>
<g><path style="opacity:1" fill="#7c7239" d="M 480.5,1195.5 C 478.971,1199.37 476.637,1202.7 473.5,1205.5C 473.167,1205.5 472.833,1205.5 472.5,1205.5C 474.794,1201.87 477.46,1198.54 480.5,1195.5 Z"/></g>
<g><path style="opacity:1" fill="#9f9349" d="M 523.5,1197.5 C 524.167,1197.5 524.833,1197.5 525.5,1197.5C 525.833,1198.17 526.167,1198.83 526.5,1199.5C 524.973,1199.57 523.973,1198.91 523.5,1197.5 Z"/></g>
<g><path style="opacity:0.717" fill="#020201" d="M 1571.5,1200.5 C 1572.82,1200.33 1573.99,1200.66 1575,1201.5C 1575.52,1204.02 1576.85,1206.02 1579,1207.5C 1580.15,1214.27 1582.48,1220.61 1586,1226.5C 1594.24,1238.08 1603.24,1249.08 1613,1259.5C 1617.05,1267.69 1614.72,1273.02 1606,1275.5C 1603.63,1273.95 1601.63,1274.29 1600,1276.5C 1594.72,1288.03 1592.89,1300.03 1594.5,1312.5C 1590.91,1322.72 1584.75,1324.72 1576,1318.5C 1574.4,1315.35 1573.4,1312.02 1573,1308.5C 1562.35,1292.5 1550.18,1277.67 1536.5,1264C 1531.99,1265.28 1527.32,1265.61 1522.5,1265C 1515.83,1256.27 1517.83,1249.93 1528.5,1246C 1532.83,1245.67 1537.17,1245.33 1541.5,1245C 1543,1243.5 1544.5,1242 1546,1240.5C 1555.26,1227.65 1563.76,1214.31 1571.5,1200.5 Z"/></g>
<g><path style="opacity:1" fill="#726935" d="M 525.5,1197.5 C 527.384,1197.71 528.717,1198.71 529.5,1200.5C 524.13,1205.57 519.463,1211.23 515.5,1217.5C 514.833,1217.83 514.167,1218.17 513.5,1218.5C 517.074,1212.42 521.574,1207.09 527,1202.5C 527.74,1201.25 527.573,1200.25 526.5,1199.5C 526.167,1198.83 525.833,1198.17 525.5,1197.5 Z"/></g>
<g><path style="opacity:1" fill="#a2954b" d="M 472.5,1205.5 C 472.833,1205.5 473.167,1205.5 473.5,1205.5C 471.431,1208.57 468.764,1210.91 465.5,1212.5C 467.5,1209.83 469.833,1207.5 472.5,1205.5 Z"/></g>
<g><path style="opacity:1" fill="#9b8f48" d="M 464.5,1212.5 C 464.833,1212.5 465.167,1212.5 465.5,1212.5C 465.557,1213.61 465.89,1214.61 466.5,1215.5C 465.833,1215.5 465.167,1215.5 464.5,1215.5C 464.5,1214.5 464.5,1213.5 464.5,1212.5 Z"/></g>
<g><path style="opacity:0.996" fill="#333018" d="M 464.5,1212.5 C 464.5,1213.5 464.5,1214.5 464.5,1215.5C 462.015,1214.74 462.015,1213.74 464.5,1212.5 Z"/></g>
<g><path style="opacity:1" fill="#726935" d="M 464.5,1215.5 C 465.167,1215.5 465.833,1215.5 466.5,1215.5C 468.027,1215.43 469.027,1216.09 469.5,1217.5C 467.597,1217.2 465.93,1216.54 464.5,1215.5 Z"/></g>
<g><path style="opacity:1" fill="#847a3d" d="M 471.5,1218.5 C 473.027,1218.43 474.027,1219.09 474.5,1220.5C 472.973,1220.57 471.973,1219.91 471.5,1218.5 Z"/></g>
<g><path style="opacity:1" fill="#3b361b" d="M 515.5,1217.5 C 515.573,1219.03 514.906,1220.03 513.5,1220.5C 513.5,1219.83 513.5,1219.17 513.5,1218.5C 514.167,1218.17 514.833,1217.83 515.5,1217.5 Z"/></g>
<g><path style="opacity:1" fill="#514b26" d="M 1567.5,1219.5 C 1568.95,1218.11 1569.95,1218.45 1570.5,1220.5C 1569.61,1219.89 1568.61,1219.56 1567.5,1219.5 Z"/></g>
<g><path style="opacity:1" fill="#bdae57" d="M 513.5,1218.5 C 513.5,1219.17 513.5,1219.83 513.5,1220.5C 512.833,1220.83 512.167,1221.17 511.5,1221.5C 511.427,1219.97 512.094,1218.97 513.5,1218.5 Z"/></g>
<g><path style="opacity:1" fill="#9a8e47" d="M 1567.5,1219.5 C 1568.61,1219.56 1569.61,1219.89 1570.5,1220.5C 1571.15,1222.44 1571.48,1224.44 1571.5,1226.5C 1570.07,1225.22 1569.4,1223.55 1569.5,1221.5C 1568.5,1221.5 1567.5,1221.5 1566.5,1221.5C 1566.33,1220.51 1566.66,1219.84 1567.5,1219.5 Z"/></g>
<g><path style="opacity:1" fill="#7b7138" d="M 474.5,1220.5 C 476.749,1221.08 478.415,1222.41 479.5,1224.5C 477.251,1223.92 475.585,1222.59 474.5,1220.5 Z"/></g>
<g><path style="opacity:1" fill="#665e2f" d="M 513.5,1220.5 C 513.573,1222.03 512.906,1223.03 511.5,1223.5C 511.5,1222.83 511.5,1222.17 511.5,1221.5C 512.167,1221.17 512.833,1220.83 513.5,1220.5 Z"/></g>
<g><path style="opacity:1" fill="#797038" d="M 1566.5,1221.5 C 1566.44,1222.61 1566.11,1223.61 1565.5,1224.5C 1565.17,1224.5 1564.83,1224.5 1564.5,1224.5C 1564.43,1222.97 1565.09,1221.97 1566.5,1221.5 Z"/></g>
<g><path style="opacity:1" fill="#fae774" d="M 1566.5,1221.5 C 1567.5,1221.5 1568.5,1221.5 1569.5,1221.5C 1569.4,1223.55 1570.07,1225.22 1571.5,1226.5C 1571.75,1228.97 1572.75,1230.97 1574.5,1232.5C 1575.1,1234.75 1576.1,1236.75 1577.5,1238.5C 1577.74,1240.4 1578.74,1241.74 1580.5,1242.5C 1580.43,1244.03 1581.09,1245.03 1582.5,1245.5C 1583.34,1245.84 1583.67,1246.51 1583.5,1247.5C 1583.43,1249.03 1584.09,1250.03 1585.5,1250.5C 1586.34,1250.84 1586.67,1251.51 1586.5,1252.5C 1587.08,1254.75 1588.41,1256.42 1590.5,1257.5C 1591.63,1259.31 1592.3,1261.31 1592.5,1263.5C 1591.17,1263.5 1590.5,1264.17 1590.5,1265.5C 1588.74,1266.26 1587.74,1267.6 1587.5,1269.5C 1585.79,1270.64 1585.12,1272.3 1585.5,1274.5C 1585.67,1275.49 1585.34,1276.16 1584.5,1276.5C 1583.25,1276.58 1582.42,1277.24 1582,1278.5C 1581.51,1280.13 1581.34,1281.8 1581.5,1283.5C 1581.5,1283.83 1581.5,1284.17 1581.5,1284.5C 1579.55,1285.64 1577.55,1285.64 1575.5,1284.5C 1574.17,1282.83 1572.83,1281.17 1571.5,1279.5C 1571.51,1276.86 1570.18,1275.52 1567.5,1275.5C 1567.5,1273.5 1566.5,1272.5 1564.5,1272.5C 1558.83,1265.83 1553.17,1259.17 1547.5,1252.5C 1547.5,1252.17 1547.5,1251.83 1547.5,1251.5C 1549.59,1250.42 1550.92,1248.75 1551.5,1246.5C 1552.91,1246.03 1553.57,1245.03 1553.5,1243.5C 1554.91,1243.03 1555.57,1242.03 1555.5,1240.5C 1556.34,1240.16 1556.67,1239.49 1556.5,1238.5C 1557.17,1238.17 1557.83,1237.83 1558.5,1237.5C 1559.38,1237.63 1560.04,1237.3 1560.5,1236.5C 1562.57,1232.6 1564.24,1228.6 1565.5,1224.5C 1566.11,1223.61 1566.44,1222.61 1566.5,1221.5 Z"/></g>
<g><path style="opacity:1" fill="#908442" d="M 479.5,1224.5 C 483.167,1226.17 485.833,1228.83 487.5,1232.5C 484.5,1230.17 481.833,1227.5 479.5,1224.5 Z"/></g>
<g><path style="opacity:1" fill="#5c542a" d="M 1564.5,1224.5 C 1564.57,1226.03 1563.91,1227.03 1562.5,1227.5C 1562.43,1225.97 1563.09,1224.97 1564.5,1224.5 Z"/></g>
<g><path style="opacity:1" fill="#3b371d" d="M 511.5,1224.5 C 511.741,1226.9 511.074,1228.9 509.5,1230.5C 509.5,1229.83 509.5,1229.17 509.5,1228.5C 509.66,1226.85 510.326,1225.51 511.5,1224.5 Z"/></g>
<g><path style="opacity:1" fill="#d4c362" d="M 1564.5,1224.5 C 1564.83,1224.5 1565.17,1224.5 1565.5,1224.5C 1564.24,1228.6 1562.57,1232.6 1560.5,1236.5C 1560.04,1237.3 1559.38,1237.63 1558.5,1237.5C 1558.5,1236.83 1558.5,1236.17 1558.5,1235.5C 1560.34,1233.14 1561.68,1230.48 1562.5,1227.5C 1563.91,1227.03 1564.57,1226.03 1564.5,1224.5 Z"/></g>
<g><path style="opacity:1" fill="#675e2f" d="M 1571.5,1226.5 C 1573.25,1228.03 1574.25,1230.03 1574.5,1232.5C 1572.75,1230.97 1571.75,1228.97 1571.5,1226.5 Z"/></g>
<g><path style="opacity:1" fill="#c3b45a" d="M 487.5,1232.5 C 490.179,1232.52 491.512,1233.86 491.5,1236.5C 490.5,1235.83 489.5,1235.17 488.5,1234.5C 488.167,1233.83 487.833,1233.17 487.5,1232.5 Z"/></g>
<g><path style="opacity:1" fill="#635b2d" d="M 509.5,1228.5 C 509.5,1229.17 509.5,1229.83 509.5,1230.5C 508.342,1233.99 507.009,1237.32 505.5,1240.5C 505.861,1236.08 507.194,1232.08 509.5,1228.5 Z"/></g>
<g><path style="opacity:1" fill="#61592c" d="M 1558.5,1235.5 C 1558.5,1236.17 1558.5,1236.83 1558.5,1237.5C 1557.83,1237.83 1557.17,1238.17 1556.5,1238.5C 1556.43,1236.97 1557.09,1235.97 1558.5,1235.5 Z"/></g>
<g><path style="opacity:1" fill="#403b1e" d="M 488.5,1234.5 C 489.5,1235.17 490.5,1235.83 491.5,1236.5C 492.6,1237.6 493.267,1238.94 493.5,1240.5C 491.086,1239.09 489.419,1237.09 488.5,1234.5 Z"/></g>
<g><path style="opacity:1" fill="#7d7339" d="M 1577.5,1238.5 C 1579.26,1239.26 1580.26,1240.6 1580.5,1242.5C 1578.74,1241.74 1577.74,1240.4 1577.5,1238.5 Z"/></g>
<g><path style="opacity:1" fill="#494322" d="M 493.5,1240.5 C 495.262,1241.26 496.262,1242.6 496.5,1244.5C 494.738,1243.74 493.738,1242.4 493.5,1240.5 Z"/></g>
<g><path style="opacity:1" fill="#6f6633" d="M 1555.5,1240.5 C 1555.57,1242.03 1554.91,1243.03 1553.5,1243.5C 1553.43,1241.97 1554.09,1240.97 1555.5,1240.5 Z"/></g>
<g><path style="opacity:1" fill="#ad9f4f" d="M 504.5,1242.5 C 504.5,1243.17 504.5,1243.83 504.5,1244.5C 503.833,1245.5 503.167,1246.5 502.5,1247.5C 502.12,1245.3 502.787,1243.64 504.5,1242.5 Z"/></g>
<g><path style="opacity:1" fill="#7c7339" d="M 1553.5,1243.5 C 1553.57,1245.03 1552.91,1246.03 1551.5,1246.5C 1551.43,1244.97 1552.09,1243.97 1553.5,1243.5 Z"/></g>
<g><path style="opacity:1" fill="#6c6332" d="M 1580.5,1242.5 C 1581.91,1242.97 1582.57,1243.97 1582.5,1245.5C 1581.09,1245.03 1580.43,1244.03 1580.5,1242.5 Z"/></g>
<g><path style="opacity:1" fill="#363219" d="M 504.5,1244.5 C 504.59,1247.15 503.924,1249.49 502.5,1251.5C 502.5,1250.83 502.5,1250.17 502.5,1249.5C 502.5,1248.83 502.5,1248.17 502.5,1247.5C 503.167,1246.5 503.833,1245.5 504.5,1244.5 Z"/></g>
<g><path style="opacity:1" fill="#857a3d" d="M 1551.5,1246.5 C 1550.92,1248.75 1549.59,1250.42 1547.5,1251.5C 1548.08,1249.25 1549.41,1247.58 1551.5,1246.5 Z"/></g>
<g><path style="opacity:1" fill="#82783c" d="M 1583.5,1247.5 C 1584.91,1247.97 1585.57,1248.97 1585.5,1250.5C 1584.09,1250.03 1583.43,1249.03 1583.5,1247.5 Z"/></g>
<g><path style="opacity:1" fill="#655d2f" d="M 496.5,1244.5 C 498.619,1245.99 500.119,1247.99 501,1250.5C 501.383,1249.94 501.883,1249.61 502.5,1249.5C 502.5,1250.17 502.5,1250.83 502.5,1251.5C 501.207,1252.64 500.041,1252.31 499,1250.5C 498.345,1248.37 497.511,1246.37 496.5,1244.5 Z"/></g>
<g><path style="opacity:1" fill="#5e562b" d="M 1547.5,1251.5 C 1547.5,1251.83 1547.5,1252.17 1547.5,1252.5C 1546.66,1252.84 1546.33,1253.51 1546.5,1254.5C 1545.11,1253.05 1545.45,1252.05 1547.5,1251.5 Z"/></g>
<g><path style="opacity:1" fill="#968b45" d="M 1547.5,1252.5 C 1553.17,1259.17 1558.83,1265.83 1564.5,1272.5C 1558.17,1266.83 1552.17,1260.83 1546.5,1254.5C 1546.33,1253.51 1546.66,1252.84 1547.5,1252.5 Z"/></g>
<g><path style="opacity:1" fill="#867b3e" d="M 1586.5,1252.5 C 1588.59,1253.58 1589.92,1255.25 1590.5,1257.5C 1588.41,1256.42 1587.08,1254.75 1586.5,1252.5 Z"/></g>
<g><path style="opacity:1" fill="#766d37" d="M 1590.5,1257.5 C 1593.35,1258.92 1594.02,1260.92 1592.5,1263.5C 1592.3,1261.31 1591.63,1259.31 1590.5,1257.5 Z"/></g>
<g><path style="opacity:1" fill="#7f753b" d="M 1592.5,1263.5 C 1592.17,1264.5 1591.5,1265.17 1590.5,1265.5C 1590.5,1264.17 1591.17,1263.5 1592.5,1263.5 Z"/></g>
<g><path style="opacity:1" fill="#7b7239" d="M 1590.5,1265.5 C 1590.26,1267.4 1589.26,1268.74 1587.5,1269.5C 1587.74,1267.6 1588.74,1266.26 1590.5,1265.5 Z"/></g>
<g><path style="opacity:1" fill="#a09349" d="M 1587.5,1269.5 C 1587.2,1271.4 1586.54,1273.07 1585.5,1274.5C 1585.12,1272.3 1585.79,1270.64 1587.5,1269.5 Z"/></g>
<g><path style="opacity:1" fill="#a0944a" d="M 1564.5,1272.5 C 1566.5,1272.5 1567.5,1273.5 1567.5,1275.5C 1566.17,1274.83 1565.17,1273.83 1564.5,1272.5 Z"/></g>
<g><path style="opacity:1" fill="#c9b95c" d="M 1567.5,1275.5 C 1570.18,1275.52 1571.51,1276.86 1571.5,1279.5C 1570.83,1279.17 1570.17,1278.83 1569.5,1278.5C 1568.83,1277.5 1568.17,1276.5 1567.5,1275.5 Z"/></g>
<g><path style="opacity:1" fill="#413d1f" d="M 1569.5,1278.5 C 1570.17,1278.83 1570.83,1279.17 1571.5,1279.5C 1572.83,1281.17 1574.17,1282.83 1575.5,1284.5C 1575.5,1284.83 1575.5,1285.17 1575.5,1285.5C 1572.76,1283.76 1570.76,1281.43 1569.5,1278.5 Z"/></g>
<g><path style="opacity:1" fill="#beaf58" d="M 1584.5,1276.5 C 1583.07,1278.56 1582.4,1280.89 1582.5,1283.5C 1582.17,1283.5 1581.83,1283.5 1581.5,1283.5C 1581.34,1281.8 1581.51,1280.13 1582,1278.5C 1582.42,1277.24 1583.25,1276.58 1584.5,1276.5 Z"/></g>
<g><path style="opacity:1" fill="#b8aa55" d="M 1575.5,1285.5 C 1575.5,1285.17 1575.5,1284.83 1575.5,1284.5C 1577.55,1285.64 1579.55,1285.64 1581.5,1284.5C 1581.37,1286.09 1580.71,1287.42 1579.5,1288.5C 1578.15,1287.48 1576.81,1286.48 1575.5,1285.5 Z"/></g>
<g><path style="opacity:0.988" fill="#272414" d="M 1581.5,1283.5 C 1581.83,1283.5 1582.17,1283.5 1582.5,1283.5C 1582.33,1285.86 1581.99,1288.19 1581.5,1290.5C 1578.29,1290.29 1576.29,1288.62 1575.5,1285.5C 1576.81,1286.48 1578.15,1287.48 1579.5,1288.5C 1580.71,1287.42 1581.37,1286.09 1581.5,1284.5C 1581.5,1284.17 1581.5,1283.83 1581.5,1283.5 Z"/></g>
</svg>
