<svg width="182" height="90" viewBox="0 0 182 90" fill="none" xmlns="http://www.w3.org/2000/svg">
<path opacity="0.999" fill-rule="evenodd" clip-rule="evenodd" d="M151.328 5.64066C152.176 6.01974 153.06 6.18685 153.982 6.14205C157.75 8.38644 161.001 11.8962 163.738 16.6713C165.083 19.7506 166.488 22.7589 167.952 25.6964C169.149 28.8719 170.345 32.0473 171.542 35.2228C171.885 36.3314 172.146 37.5014 172.322 38.7326C172.608 41.6911 172.972 44.6159 173.415 47.507C173.493 51.3501 173.52 55.1941 173.493 59.039C173.493 59.1225 173.493 59.2062 173.493 59.2897C173.254 60.2341 173.098 61.2368 173.025 62.298C172.78 62.8017 172.624 63.3868 172.557 64.0529C172.227 65.4049 171.759 66.6165 171.152 67.688C169.852 69.1087 168.55 70.5292 167.25 71.9499C165.094 73.4631 162.857 74.5496 160.538 75.2089C158.593 75.3784 156.668 75.7544 154.762 76.337C153.744 76.3864 152.755 76.5536 151.797 76.8384C151.641 76.8384 151.485 76.8384 151.328 76.8384C148.492 76.9974 145.682 77.2481 142.9 77.5905C136.143 78.3346 129.379 78.836 122.608 79.0947C99.819 79.0528 77.03 79.0947 54.241 79.2201C53.3282 79.2634 52.4436 79.3888 51.5875 79.5961C44.0139 79.6743 36.4435 79.5071 28.8765 79.0947C24.3238 79.2619 19.7713 79.3035 15.2187 79.2201C14.9037 79.0935 14.5915 78.9681 14.2822 78.844C14.2083 78.4915 14.0522 78.3243 13.8139 78.3426C12.2396 77.1656 10.9909 75.4107 10.0678 73.078C9.91753 72.1015 9.70942 71.1825 9.4434 70.3203C9.45209 69.0089 9.34802 67.7555 9.13122 66.5599C9.16849 65.1349 9.0124 63.7977 8.66295 62.5487C8.52322 61.217 8.39313 59.8801 8.27273 58.5376C8.24632 55.4021 8.16827 52.3103 8.03859 49.2618C8.03859 49.0946 8.03859 48.9277 8.03859 48.7604C8.01263 47.087 8.03865 45.4156 8.11664 43.7465C8.60627 40.5083 8.9965 37.2492 9.28731 33.9694C9.56461 33.216 9.7207 32.3804 9.75557 31.4624C9.95958 30.6539 10.1157 29.8181 10.2238 28.9554C10.4433 28.8368 10.5474 28.5861 10.536 28.2033C10.8482 27.0333 11.1604 25.8636 11.4726 24.6936C11.6921 24.575 11.7961 24.3243 11.7847 23.9415C12.1295 22.2562 12.7539 20.8774 13.6578 19.805C14.6542 18.4551 15.6948 17.2016 16.7796 16.0446C17.2627 15.8656 17.731 15.6149 18.1844 15.2925C19.5361 15.1672 20.8889 15.1254 22.2427 15.1671C23.0592 15.1811 23.8397 15.0139 24.584 14.6657C28.0163 14.2203 31.4503 13.8025 34.8859 13.4122C36.1195 13.5035 37.3162 13.3363 38.476 12.9109C45.5481 11.992 52.6241 11.1564 59.7041 10.4039C61.3496 10.4632 62.9626 10.296 64.5429 9.9025C65.0558 9.72523 65.576 9.64165 66.1038 9.6518C71.6448 9.53335 77.1599 9.36624 82.6492 9.15041C82.8053 9.15041 82.9614 9.15041 83.1175 9.15041C85.9569 9.21 88.7665 9.04286 91.5463 8.64902C91.8065 8.64902 92.0666 8.64902 92.3268 8.64902C94.5136 8.53089 96.6988 8.36375 98.8825 8.14763C100.681 8.14482 102.45 7.97768 104.19 7.64623C115.79 7.17866 127.393 6.55192 138.997 5.76601C143.107 5.64066 147.218 5.5989 151.328 5.64066Z" fill="#0B0B0B"/>
<path opacity="0.01" fill-rule="evenodd" clip-rule="evenodd" d="M154.606 6.14206C154.398 6.14206 154.19 6.14206 153.982 6.14206C153.13 5.83188 152.245 5.66474 151.328 5.64067C147.218 5.59891 143.107 5.64067 138.997 5.76602C127.393 6.55193 115.79 7.17867 104.19 7.64624C102.39 7.63025 100.621 7.79739 98.8825 8.14764C96.6988 8.36376 94.5136 8.5309 92.3268 8.64903C92.7431 8.48189 93.1592 8.31478 93.5755 8.14764C97.0469 7.64013 100.533 7.26408 104.033 7.0195C114.806 6.55882 125.577 5.97385 136.344 5.26463C142.123 5.03236 147.898 5.11594 153.67 5.51532C154.037 5.57552 154.349 5.78445 154.606 6.14206Z" fill="#DDDDDD"/>
<path opacity="0.169" fill-rule="evenodd" clip-rule="evenodd" d="M151.328 5.64067C152.245 5.66474 153.13 5.83188 153.982 6.14206C153.06 6.18686 152.176 6.01975 151.328 5.64067Z" fill="#A5A5A5"/>
<path opacity="0.841" fill-rule="evenodd" clip-rule="evenodd" d="M104.19 7.64625C102.45 7.9777 100.681 8.14484 98.8825 8.14764C100.621 7.7974 102.39 7.63026 104.19 7.64625Z" fill="#474747"/>
<path opacity="0.01" fill-rule="evenodd" clip-rule="evenodd" d="M93.5754 8.14763C93.1592 8.31477 92.743 8.48188 92.3267 8.64902C92.0665 8.64902 91.8065 8.64902 91.5463 8.64902C88.709 8.68379 85.8994 8.85091 83.1175 9.15041C82.9614 9.15041 82.8053 9.15041 82.6492 9.15041C78.0703 9.10865 73.4916 9.15041 68.9134 9.27576C67.9486 9.31898 67.012 9.44433 66.1037 9.65181C65.576 9.64165 65.0558 9.72524 64.5429 9.9025C63.6583 9.9025 62.7739 9.9025 61.8893 9.9025C58.764 10.0422 55.6422 10.2929 52.524 10.6546C57.6382 9.80493 62.7892 9.26175 67.9768 9.02507C76.5132 8.96402 85.0459 8.67153 93.5754 8.14763Z" fill="#F8F8F8"/>
<path opacity="0.277" fill-rule="evenodd" clip-rule="evenodd" d="M91.5463 8.64902C88.7665 9.04286 85.9569 9.21 83.1175 9.15041C85.8995 8.8509 88.7091 8.68379 91.5463 8.64902Z" fill="#BFBFBF"/>
<path fill-rule="evenodd" clip-rule="evenodd" d="M160.85 16.4206C161.003 17.2151 161.315 17.8001 161.786 18.1755C162.927 20.1682 163.916 22.3409 164.752 24.6936C164.843 25.2574 165.05 25.6751 165.376 25.9471C166.56 28.3262 167.549 30.9166 168.342 33.7187C168.331 34.1015 168.434 34.3522 168.654 34.4708C169.149 35.557 169.566 36.727 169.903 37.9805C169.933 38.8216 170.089 39.5737 170.371 40.2368C170.371 40.404 170.371 40.571 170.371 40.7382C170.331 42.1656 170.487 43.5026 170.84 44.7493C171.004 45.5586 171.107 46.3941 171.152 47.2563C171.235 52.2048 171.13 57.135 170.84 62.0474C170.73 63.0003 170.548 63.9196 170.293 64.805C169.09 66.4461 167.868 68.034 166.625 69.5683C166.332 69.5003 166.124 69.6675 166.001 70.0697C164.73 70.8521 163.43 71.5207 162.099 72.0752C161.685 72.0527 161.32 72.2196 161.006 72.5766C160.901 72.5766 160.798 72.5766 160.694 72.5766C160.28 72.5541 159.915 72.721 159.601 73.078C158.997 72.999 158.424 73.0825 157.884 73.3287C157.068 73.3147 156.287 73.4819 155.543 73.8301C150.753 74.4243 145.966 74.9257 141.183 75.3343C138.603 75.4213 136.054 75.672 133.534 76.0864C126.799 76.4597 120.061 76.6269 113.321 76.5878C94.0959 76.3448 74.871 76.303 55.6458 76.4624C51.643 76.8482 47.6367 77.0571 43.6269 77.0892C41.2027 77.1403 38.8092 76.9731 36.4468 76.5878C35.6951 76.3807 34.9146 76.2553 34.1055 76.2117C27.8081 76.1581 21.5124 76.0327 15.2187 75.8357C15.0494 75.3125 14.7893 74.9783 14.4382 74.8329C14.2689 74.3097 14.0088 73.9755 13.6578 73.8301C12.9718 73.3132 12.5036 72.4773 12.253 71.3231C12.031 70.02 11.9009 68.6831 11.8628 67.312C11.8031 67.1726 11.725 67.0891 11.6286 67.0613C11.6602 66.4471 11.6081 65.8622 11.4725 65.3064C11.4982 64.6328 11.4721 63.9642 11.3945 63.3009C11.351 63.0712 11.273 62.9043 11.1604 62.7995C11.0039 61.7114 10.8218 60.6249 10.6141 59.5404C10.4944 54.0251 10.4423 48.5098 10.458 42.9944C10.6126 42.4158 10.7427 41.831 10.8482 41.2396C11.074 41.0806 11.1781 40.7881 11.1604 40.3621C11.3581 39.0001 11.4622 37.6213 11.4725 36.2256C11.7279 35.2956 11.8319 34.2928 11.7847 33.2173C11.7847 33.1338 11.7847 33.0501 11.7847 32.9666C11.9861 32.8267 12.1161 32.576 12.1749 32.2145C12.4116 30.9553 12.6458 29.7018 12.8773 28.4541C13.5415 27.2417 14.0098 25.8212 14.2822 24.1922C14.7504 23.6073 15.1667 22.9387 15.5309 22.1866C15.9877 21.8714 16.3521 21.3701 16.6235 20.6825C17.2265 19.4867 18.0069 18.7346 18.9648 18.4262C19.7813 18.4402 20.5618 18.273 21.3062 17.9248C22.1686 17.5438 23.053 17.3767 23.9597 17.4234C29.6142 17.2943 35.2334 16.7929 40.8173 15.9192C41.6875 15.6805 42.5719 15.5969 43.4708 15.6685C45.0142 15.7584 46.5232 15.5913 47.9974 15.1671C50.5181 14.9022 53.0155 14.568 55.4897 14.1644C58.7435 13.9496 61.9694 13.6153 65.1672 13.1616C65.4274 13.1616 65.6875 13.1616 65.9477 13.1616C66.8842 13.1616 67.8207 13.1616 68.7573 13.1616C72.4518 13.2033 76.1459 13.1616 79.8396 13.0362C81.064 12.9934 82.2607 12.868 83.4297 12.6602C83.6899 12.6602 83.9499 12.6602 84.2101 12.6602C86.2919 12.7019 88.3732 12.6602 90.4537 12.5348C90.9524 12.4896 91.4207 12.3642 91.8585 12.1588C92.0146 12.1588 92.1707 12.1588 92.3268 12.1588C96.3871 11.8886 100.445 11.5543 104.502 11.156C107.52 11.0737 110.538 10.9483 113.555 10.78C114.002 10.7341 114.418 10.6088 114.804 10.4039C115.116 10.4039 115.428 10.4039 115.74 10.4039C121.862 10.5208 127.95 10.1866 134.003 9.40113C135.383 9.33617 136.736 9.16903 138.061 8.89974C143.109 8.526 148.156 8.56776 153.202 9.02508C156.091 10.5929 158.64 13.0581 160.85 16.4206Z" fill="#FEFEFE"/>
<path opacity="0.183" fill-rule="evenodd" clip-rule="evenodd" d="M82.6492 9.15041C77.1599 9.36624 71.6448 9.53335 66.1038 9.6518C67.012 9.44433 67.9486 9.31898 68.9134 9.27576C73.4916 9.15041 78.0703 9.10865 82.6492 9.15041Z" fill="#CACACA"/>
<path fill-rule="evenodd" clip-rule="evenodd" d="M138.061 8.89971C136.736 9.16901 135.383 9.33615 134.003 9.4011C133.638 9.4011 133.274 9.4011 132.91 9.4011C134.596 9.04155 136.313 8.87442 138.061 8.89971Z" fill="#A9A9A9"/>
<path fill-rule="evenodd" clip-rule="evenodd" d="M132.91 9.40111C133.274 9.40111 133.638 9.40111 134.003 9.40111C127.95 10.1865 121.862 10.5208 115.74 10.4039C121.438 10.0247 127.161 9.69049 132.91 9.40111Z" fill="#C9C9C9"/>
<path opacity="0.962" fill-rule="evenodd" clip-rule="evenodd" d="M61.8894 9.90251C62.7739 9.90251 63.6583 9.90251 64.5429 9.90251C62.9626 10.2961 61.3496 10.4632 59.7041 10.4039C60.4326 10.2368 61.1609 10.0697 61.8894 9.90251Z" fill="#2A2A2A"/>
<path fill-rule="evenodd" clip-rule="evenodd" d="M114.804 10.4039C114.418 10.6087 114.002 10.7341 113.555 10.7799C110.538 10.9483 107.52 11.0737 104.502 11.156C105.178 10.9889 105.855 10.8217 106.531 10.6546C109.289 10.6284 112.047 10.5449 114.804 10.4039Z" fill="#D3D3D3"/>
<path fill-rule="evenodd" clip-rule="evenodd" d="M106.531 10.6546C105.855 10.8217 105.178 10.9889 104.502 11.156C100.445 11.5543 96.3871 11.8886 92.3268 12.1588C97.0326 11.5244 101.767 11.023 106.531 10.6546Z" fill="#B1B1B1"/>
<path fill-rule="evenodd" clip-rule="evenodd" d="M91.8585 12.1588C91.4207 12.3642 90.9524 12.4896 90.4537 12.5348C88.3732 12.6601 86.2919 12.7019 84.2101 12.6602C86.7325 12.3971 89.2821 12.2299 91.8585 12.1588Z" fill="#CFCFCF"/>
<path fill-rule="evenodd" clip-rule="evenodd" d="M79.5275 12.6602C75.9374 12.8273 72.3473 12.9944 68.7573 13.1616C67.8208 13.1616 66.8842 13.1616 65.9477 13.1616C66.7517 12.9543 67.5841 12.829 68.4451 12.7855C72.1388 12.6602 75.833 12.6184 79.5275 12.6602Z" fill="#909090"/>
<path opacity="0.01" fill-rule="evenodd" clip-rule="evenodd" d="M61.8894 9.90251C61.1609 10.0697 60.4326 10.2368 59.7041 10.4039C52.6241 11.1564 45.5481 11.992 38.476 12.9109C37.2516 12.9911 36.0549 13.1582 34.886 13.4123C31.4503 13.8025 28.0163 14.2203 24.5841 14.6657C23.7676 14.6518 22.9871 14.8189 22.2427 15.1671C20.889 15.1254 19.5361 15.1672 18.1844 15.2925C17.731 15.6149 17.2627 15.8656 16.7796 16.0446C15.6948 17.2016 14.6543 18.4551 13.6578 19.805C12.7539 20.8774 12.1295 22.2562 11.7848 23.9415C11.5652 24.0601 11.4612 24.3108 11.4726 24.6936C11.1604 25.8636 10.8482 27.0333 10.536 28.2033C10.3165 28.3219 10.2125 28.5726 10.2239 28.9554C10.1157 29.8181 9.9596 30.6539 9.75559 31.4624C9.47829 32.2157 9.3222 33.0513 9.28733 33.9694C8.99652 37.2492 8.60629 40.5083 8.11666 43.7465C8.03868 45.4157 8.01266 47.087 8.03861 48.7604C7.88366 46.7173 7.83162 44.6282 7.88252 42.493C8.35975 38.6471 8.85404 34.8032 9.36537 30.961C10.2302 27.0544 11.4009 23.4192 12.8774 20.0557C14.1346 18.4544 15.4353 16.9502 16.7796 15.5432C18.4139 14.4321 20.1048 14.1397 21.8525 14.6657C32.0639 13.0735 42.2877 11.7364 52.524 10.6546C55.6422 10.2929 58.764 10.0422 61.8894 9.90251Z" fill="#E3E3E3"/>
<path fill-rule="evenodd" clip-rule="evenodd" d="M79.5274 12.6602C80.8281 12.6602 82.129 12.6602 83.4296 12.6602C82.2607 12.868 81.064 12.9933 79.8396 13.0362C76.1459 13.1616 72.4517 13.2033 68.7573 13.1616C72.3473 12.9944 75.9374 12.8273 79.5274 12.6602Z" fill="#DEDEDE"/>
<path opacity="0.937" fill-rule="evenodd" clip-rule="evenodd" d="M38.476 12.9109C37.3162 13.3363 36.1195 13.5035 34.8859 13.4123C36.0549 13.1582 37.2516 12.9911 38.476 12.9109Z" fill="#373737"/>
<path fill-rule="evenodd" clip-rule="evenodd" d="M65.1672 13.1616C61.9694 13.6153 58.7435 13.9496 55.4897 14.1643C55.4897 14.0808 55.4897 13.9972 55.4897 13.9136C58.7123 13.5588 61.9382 13.3081 65.1672 13.1616Z" fill="#CACACA"/>
<path fill-rule="evenodd" clip-rule="evenodd" d="M55.4897 13.9137C55.4897 13.9972 55.4897 14.0808 55.4897 14.1643C53.0155 14.5679 50.5181 14.9022 47.9974 15.1671C47.5811 15.1671 47.165 15.1671 46.7487 15.1671C49.6353 14.7007 52.549 14.2829 55.4897 13.9137Z" fill="#A6A6A6"/>
<path opacity="0.925" fill-rule="evenodd" clip-rule="evenodd" d="M24.5841 14.6658C23.8397 15.014 23.0592 15.1811 22.2427 15.1671C22.9871 14.8189 23.7676 14.6518 24.5841 14.6658Z" fill="#3D3D3D"/>
<path fill-rule="evenodd" clip-rule="evenodd" d="M46.7487 15.1671C47.165 15.1671 47.5811 15.1671 47.9974 15.1671C46.5231 15.5913 45.0142 15.7584 43.4708 15.6685C44.5349 15.4014 45.6275 15.2343 46.7487 15.1671Z" fill="#C4C4C4"/>
<path fill-rule="evenodd" clip-rule="evenodd" d="M40.8174 15.9192C35.2334 16.7929 29.6142 17.2943 23.9597 17.4234C29.555 16.9361 35.1743 16.4348 40.8174 15.9192Z" fill="#B5B5B5"/>
<path fill-rule="evenodd" clip-rule="evenodd" d="M160.85 16.4206C161.278 16.8566 161.59 17.4416 161.786 18.1755C161.315 17.8 161.003 17.2151 160.85 16.4206Z" fill="#9C9C9C"/>
<path fill-rule="evenodd" clip-rule="evenodd" d="M21.3062 17.9248C20.5618 18.273 19.7813 18.4402 18.9648 18.4262C19.7038 18.0139 20.4842 17.8468 21.3062 17.9248Z" fill="#B9B9B9"/>
<path fill-rule="evenodd" clip-rule="evenodd" d="M16.6235 20.6824C16.3521 21.37 15.9878 21.8714 15.5309 22.1866C15.8023 21.499 16.1666 20.9976 16.6235 20.6824Z" fill="#ADADAD"/>
<path opacity="0.031" fill-rule="evenodd" clip-rule="evenodd" d="M153.982 6.14206C154.19 6.14206 154.398 6.14206 154.606 6.14206C158.379 8.3159 161.579 11.8256 164.206 16.6713C165.378 19.4351 166.627 22.1092 167.952 24.6936C169.213 28.1615 170.515 31.5877 171.854 34.9721C172.696 38.0926 173.19 41.3516 173.337 44.7493C173.574 47.526 173.679 50.3253 173.649 53.1476C173.649 55.155 173.598 57.1189 173.493 59.039C173.52 55.1941 173.493 51.3501 173.415 47.507C172.972 44.6159 172.608 41.6911 172.322 38.7326C172.146 37.5014 171.885 36.3314 171.542 35.2228C170.345 32.0473 169.149 28.8719 167.952 25.6964C166.488 22.7589 165.083 19.7506 163.738 16.6713C161.001 11.8962 157.75 8.38644 153.982 6.14206Z" fill="#DDDDDD"/>
<path fill-rule="evenodd" clip-rule="evenodd" d="M15.5309 22.1866C15.1667 22.9387 14.7504 23.6073 14.2822 24.1922C14.5423 23.273 14.9585 22.6045 15.5309 22.1866Z" fill="#A6A6A6"/>
<path opacity="0.549" fill-rule="evenodd" clip-rule="evenodd" d="M11.7848 23.9415C11.7962 24.3243 11.6921 24.575 11.4726 24.6936C11.4612 24.3108 11.5653 24.0601 11.7848 23.9415Z" fill="#717171"/>
<path fill-rule="evenodd" clip-rule="evenodd" d="M164.752 24.6936C165.078 24.9655 165.286 25.3833 165.376 25.9471C165.05 25.6751 164.843 25.2574 164.752 24.6936Z" fill="#ACACAC"/>
<path fill-rule="evenodd" clip-rule="evenodd" d="M14.2822 24.1922C14.0098 25.8212 13.5416 27.2417 12.8774 28.454C13.227 26.9123 13.6952 25.4918 14.2822 24.1922Z" fill="#C2C2C2"/>
<path opacity="0.49" fill-rule="evenodd" clip-rule="evenodd" d="M10.536 28.2033C10.5474 28.5862 10.4434 28.8368 10.2239 28.9554C10.2125 28.5726 10.3165 28.3219 10.536 28.2033Z" fill="#787878"/>
<path fill-rule="evenodd" clip-rule="evenodd" d="M12.8774 28.454C12.6458 29.7018 12.4116 30.9552 12.175 32.2145C12.1161 32.576 11.9861 32.8267 11.7847 32.9666C11.9654 31.3436 12.3296 29.8394 12.8774 28.454Z" fill="#A9A9A9"/>
<path opacity="0.733" fill-rule="evenodd" clip-rule="evenodd" d="M9.75556 31.4624C9.72069 32.3805 9.5646 33.216 9.28729 33.9694C9.32216 33.0513 9.47825 32.2157 9.75556 31.4624Z" fill="#656565"/>
<path fill-rule="evenodd" clip-rule="evenodd" d="M168.342 33.7187C168.562 33.8372 168.665 34.0879 168.654 34.4707C168.434 34.3522 168.331 34.1015 168.342 33.7187Z" fill="#8A8A8A"/>
<path fill-rule="evenodd" clip-rule="evenodd" d="M11.7847 33.2173C11.8319 34.2928 11.7278 35.2955 11.4725 36.2256C11.4253 35.1501 11.5294 34.1474 11.7847 33.2173Z" fill="#B1B1B1"/>
<path fill-rule="evenodd" clip-rule="evenodd" d="M11.4726 36.2256C11.4622 37.6213 11.3581 39.0001 11.1604 40.3621C11.1781 40.7881 11.074 41.0806 10.8482 41.2396C11 39.519 11.2081 37.8479 11.4726 36.2256Z" fill="#AFAFAF"/>
<path fill-rule="evenodd" clip-rule="evenodd" d="M169.903 37.9805C170.211 38.6283 170.367 39.3804 170.371 40.2368C170.089 39.5737 169.933 38.8216 169.903 37.9805Z" fill="#888888"/>
<path opacity="0.01" fill-rule="evenodd" clip-rule="evenodd" d="M7.88249 42.493C7.83159 44.6282 7.88363 46.7173 8.03857 48.7605C8.03857 48.9277 8.03857 49.0946 8.03857 49.2618C8.01003 53.3605 8.06205 57.4551 8.19466 61.546C7.97222 60.6928 7.84214 59.7735 7.80444 58.7883C7.74606 54.7343 7.66802 50.6813 7.57031 46.6295C7.54084 45.1875 7.6449 43.8087 7.88249 42.493Z" fill="#F9F9F9"/>
<path fill-rule="evenodd" clip-rule="evenodd" d="M170.371 40.7382C170.612 42.0182 170.768 43.3552 170.84 44.7493C170.487 43.5026 170.331 42.1656 170.371 40.7382Z" fill="#8F8F8F"/>
<path opacity="0.01" fill-rule="evenodd" clip-rule="evenodd" d="M173.337 44.7493C173.534 45.4407 173.663 46.1928 173.727 47.0056C173.826 51.1017 173.877 55.1966 173.883 59.2897C173.822 59.9425 173.693 60.5276 173.493 61.0446C173.493 60.4597 173.493 59.8746 173.493 59.2897C173.493 59.2062 173.493 59.1225 173.493 59.039C173.598 57.1189 173.649 55.155 173.649 53.1476C173.679 50.3253 173.574 47.526 173.337 44.7493Z" fill="#FAFAFA"/>
<path opacity="0.27" fill-rule="evenodd" clip-rule="evenodd" d="M8.03859 49.2618C8.16827 52.3103 8.24632 55.4021 8.27273 58.5376C8.39313 59.8801 8.52322 61.2171 8.66295 62.5487C8.45112 62.2755 8.29503 61.9411 8.19468 61.546C8.06207 57.4551 8.01004 53.3605 8.03859 49.2618Z" fill="#B5B5B5"/>
<path fill-rule="evenodd" clip-rule="evenodd" d="M171.152 47.2563C171.323 51.2258 171.402 55.2369 171.386 59.2897C171.253 60.2644 171.072 61.1837 170.84 62.0474C171.13 57.135 171.235 52.2048 171.152 47.2563Z" fill="#C1C1C1"/>
<path opacity="0.122" fill-rule="evenodd" clip-rule="evenodd" d="M173.025 62.298C173.076 63.0479 172.92 63.6327 172.557 64.0529C172.624 63.3868 172.78 62.8017 173.025 62.298Z" fill="#A2A2A2"/>
<path fill-rule="evenodd" clip-rule="evenodd" d="M11.1604 62.7994C11.273 62.9042 11.3511 63.0712 11.3945 63.3008C11.4722 63.9642 11.4982 64.6328 11.4726 65.3064C11.3039 64.5225 11.1998 63.6869 11.1604 62.7994Z" fill="#929292"/>
<path opacity="0.067" fill-rule="evenodd" clip-rule="evenodd" d="M8.66298 62.5487C9.01243 63.7977 9.16852 65.1349 9.13125 66.5599C8.7818 65.3109 8.62571 63.9737 8.66298 62.5487Z" fill="#B8B8B8"/>
<path fill-rule="evenodd" clip-rule="evenodd" d="M11.6287 67.0613C11.725 67.0891 11.8031 67.1726 11.8628 67.312C11.901 68.683 12.031 70.02 12.253 71.3231C11.8558 70.0082 11.6477 68.5878 11.6287 67.0613Z" fill="#BEBEBE"/>
<path opacity="0.208" fill-rule="evenodd" clip-rule="evenodd" d="M9.13124 66.5599C9.34805 67.7554 9.45211 69.0089 9.44342 70.3203C9.22661 69.1247 9.12255 67.8713 9.13124 66.5599Z" fill="#A4A4A4"/>
<path fill-rule="evenodd" clip-rule="evenodd" d="M166.625 69.5683C166.468 69.8626 166.258 70.0296 166.001 70.0697C166.124 69.6676 166.332 69.5003 166.625 69.5683Z" fill="#737373"/>
<path opacity="0.012" fill-rule="evenodd" clip-rule="evenodd" d="M173.493 59.2897C173.493 59.8746 173.493 60.4597 173.493 61.0446C173.225 63.4254 172.652 65.5982 171.776 67.5627C170.42 68.9864 169.12 70.5324 167.874 72.2006C165.25 74.1944 162.492 75.4478 159.601 75.961C157.828 76.2125 156.06 76.505 154.294 76.8384C154.45 76.6712 154.606 76.5043 154.762 76.3371C156.668 75.7544 158.593 75.3784 160.538 75.2089C162.857 74.5496 165.094 73.4631 167.25 71.9499C168.55 70.5292 169.852 69.1087 171.152 67.688C171.759 66.6166 172.227 65.4049 172.557 64.0529C172.92 63.6328 173.076 63.0479 173.025 62.2981C173.098 61.2369 173.254 60.2341 173.493 59.2897Z" fill="#D5D5D5"/>
<path opacity="0.333" fill-rule="evenodd" clip-rule="evenodd" d="M9.44342 70.3203C9.70944 71.1825 9.91756 72.1015 10.0678 73.078C9.67916 72.2943 9.47105 71.3753 9.44342 70.3203Z" fill="#858585"/>
<path fill-rule="evenodd" clip-rule="evenodd" d="M162.099 72.0752C161.785 72.4322 161.42 72.5992 161.006 72.5766C161.32 72.2196 161.685 72.0526 162.099 72.0752Z" fill="#555555"/>
<path fill-rule="evenodd" clip-rule="evenodd" d="M160.694 72.5766C160.38 72.9336 160.015 73.1006 159.601 73.078C159.915 72.721 160.28 72.554 160.694 72.5766Z" fill="#555555"/>
<path fill-rule="evenodd" clip-rule="evenodd" d="M157.884 73.3287C157.14 73.6769 156.359 73.8441 155.543 73.8301C156.287 73.4819 157.068 73.3147 157.884 73.3287Z" fill="#383838"/>
<path fill-rule="evenodd" clip-rule="evenodd" d="M13.6578 73.8301C14.0088 73.9755 14.2689 74.3097 14.4382 74.8329C14.0872 74.6875 13.8271 74.3533 13.6578 73.8301Z" fill="#AFAFAF"/>
<path fill-rule="evenodd" clip-rule="evenodd" d="M14.4382 74.8329C14.7892 74.9783 15.0494 75.3125 15.2187 75.8357C14.8677 75.6903 14.6075 75.3561 14.4382 74.8329Z" fill="#B0B0B0"/>
<path fill-rule="evenodd" clip-rule="evenodd" d="M141.183 75.3343C138.664 75.7802 136.115 76.0309 133.534 76.0863C136.054 75.6719 138.603 75.4213 141.183 75.3343Z" fill="#2D2D2D"/>
<path fill-rule="evenodd" clip-rule="evenodd" d="M15.2187 75.8357C21.5124 76.0327 27.8081 76.1581 34.1055 76.2117C34.9146 76.2553 35.6951 76.3807 36.4468 76.5878C29.5798 76.402 22.7119 76.2766 15.843 76.2117C15.5998 76.1591 15.3917 76.0337 15.2187 75.8357Z" fill="#D0D0D0"/>
<path opacity="0.094" fill-rule="evenodd" clip-rule="evenodd" d="M154.762 76.337C154.606 76.5043 154.45 76.6712 154.294 76.8384C153.462 76.8384 152.629 76.8384 151.797 76.8384C152.755 76.5536 153.744 76.3864 154.762 76.337Z" fill="#A9A9A9"/>
<path opacity="0.129" fill-rule="evenodd" clip-rule="evenodd" d="M151.328 76.8384C149.974 77.0653 148.622 77.316 147.27 77.5905C147.114 77.5905 146.958 77.5905 146.802 77.5905C145.501 77.5905 144.2 77.5905 142.9 77.5905C145.682 77.2481 148.492 76.9974 151.328 76.8384Z" fill="#B8B8B8"/>
<path opacity="0.01" fill-rule="evenodd" clip-rule="evenodd" d="M151.328 76.8384C151.485 76.8384 151.641 76.8384 151.797 76.8384C152.629 76.8384 153.462 76.8384 154.294 76.8384C151.985 77.2777 149.643 77.5284 147.27 77.5905C148.622 77.316 149.974 77.0653 151.328 76.8384Z" fill="#F7F7F7"/>
<path opacity="0.059" fill-rule="evenodd" clip-rule="evenodd" d="M142.9 77.5905C144.2 77.5905 145.501 77.5905 146.802 77.5905C140.639 78.3083 134.447 78.8931 128.227 79.3454C126.354 79.3454 124.481 79.3454 122.608 79.3454C122.608 79.2619 122.608 79.1782 122.608 79.0947C129.379 78.836 136.143 78.3346 142.9 77.5905Z" fill="#DDDDDD"/>
<path opacity="0.545" fill-rule="evenodd" clip-rule="evenodd" d="M13.8139 78.3426C14.0522 78.3243 14.2083 78.4915 14.2822 78.844C14.0438 78.8623 13.8877 78.6951 13.8139 78.3426Z" fill="#6F6F6F"/>
<path opacity="0.185" fill-rule="evenodd" clip-rule="evenodd" d="M122.608 79.0947C122.608 79.1782 122.608 79.2619 122.608 79.3454C98.9337 79.2687 75.2601 79.3521 51.5875 79.5961C52.4436 79.3888 53.3282 79.2634 54.241 79.22C77.03 79.0947 99.819 79.0528 122.608 79.0947Z" fill="#B4B4B4"/>
<path opacity="0.014" fill-rule="evenodd" clip-rule="evenodd" d="M8.1947 61.546C8.29505 61.9411 8.45114 62.2755 8.66297 62.5487C8.6257 63.9737 8.78178 65.3109 9.13124 66.5599C9.12254 67.8713 9.22661 69.1248 9.44342 70.3203C9.47104 71.3753 9.67916 72.2943 10.0678 73.078C10.9909 75.4107 12.2396 77.1656 13.8139 78.3426C13.8878 78.6951 14.0438 78.8623 14.2822 78.844C14.5915 78.9681 14.9037 79.0935 15.2187 79.2201C19.7714 79.3035 24.3239 79.2619 28.8765 79.0947C36.4436 79.5071 44.0139 79.6743 51.5875 79.5961C75.2601 79.3522 98.9337 79.2687 122.608 79.3454C124.481 79.3454 126.354 79.3454 128.227 79.3454C122.896 79.7164 117.537 79.8836 112.15 79.8468C89.6455 79.4304 67.1427 79.5139 44.6415 80.0975C39.514 80.0792 34.389 79.912 29.2667 79.5961C24.7914 79.7611 20.3169 79.8864 15.8431 79.9721C14.9488 79.8638 14.1164 79.4462 13.3456 78.7187C12.0571 77.581 10.9385 76.1187 9.98973 74.3315C9.68681 73.442 9.42665 72.523 9.20928 71.5738C8.89262 68.2223 8.55444 64.8795 8.1947 61.546Z" fill="#EEEEEE"/>
<path d="M43.8645 39.9901V37.4545H55.8105V39.9901H51.3574V52H48.3176V39.9901H43.8645ZM56.5882 52V41.0909H59.5215V42.9943H59.6351C59.834 42.3172 60.1678 41.8059 60.6365 41.4602C61.1053 41.1098 61.6451 40.9347 62.2559 40.9347C62.4074 40.9347 62.5707 40.9441 62.7459 40.9631C62.9211 40.982 63.075 41.008 63.2076 41.0412V43.7259C63.0655 43.6832 62.869 43.6454 62.6181 43.6122C62.3671 43.5791 62.1375 43.5625 61.9292 43.5625C61.4841 43.5625 61.0864 43.6596 60.736 43.8537C60.3903 44.0431 60.1157 44.3082 59.9121 44.6491C59.7132 44.9901 59.6138 45.383 59.6138 45.8281V52H56.5882ZM66.9718 56.0909C66.5882 56.0909 66.2284 56.0601 65.8922 55.9986C65.5608 55.9418 65.2862 55.8684 65.0684 55.7784L65.7502 53.5199C66.1053 53.6288 66.4249 53.688 66.709 53.6974C66.9978 53.7069 67.2464 53.6406 67.4547 53.4986C67.6678 53.3565 67.8406 53.1151 67.9732 52.7741L68.1507 52.3125L64.2374 41.0909H67.4192L69.6777 49.1023H69.7914L72.0712 41.0909H75.2743L71.0343 53.179C70.8307 53.7661 70.5537 54.2775 70.2033 54.7131C69.8577 55.1534 69.4197 55.492 68.8894 55.7287C68.3591 55.9702 67.7199 56.0909 66.9718 56.0909ZM84.0154 52H80.72L85.7413 37.4545H89.7044L94.7186 52H91.4231L87.7797 40.7784H87.666L84.0154 52ZM83.8095 46.2827H91.5936V48.6832H83.8095V46.2827ZM100.819 56.3182C99.8393 56.3182 98.9989 56.1832 98.2981 55.9134C97.6021 55.6482 97.0481 55.286 96.6362 54.8267C96.2243 54.3674 95.9567 53.8513 95.8336 53.2784L98.6319 52.902C98.7172 53.1198 98.8521 53.3234 99.0368 53.5128C99.2214 53.7022 99.4653 53.8537 99.7683 53.9673C100.076 54.0857 100.45 54.1449 100.89 54.1449C101.549 54.1449 102.091 53.9839 102.517 53.6619C102.948 53.3447 103.163 52.812 103.163 52.0639V50.0682H103.035C102.903 50.3712 102.704 50.6577 102.439 50.9276C102.174 51.1974 101.833 51.4176 101.416 51.5881C100.999 51.7585 100.502 51.8438 99.9245 51.8438C99.1054 51.8438 98.3597 51.6544 97.6873 51.2756C97.0197 50.892 96.487 50.3073 96.0893 49.5213C95.6963 48.7306 95.4998 47.7315 95.4998 46.5241C95.4998 45.2884 95.7011 44.2562 96.1035 43.4276C96.506 42.599 97.041 41.9787 97.7086 41.5668C98.381 41.1548 99.1172 40.9489 99.9174 40.9489C100.528 40.9489 101.04 41.053 101.452 41.2614C101.863 41.465 102.195 41.7206 102.446 42.0284C102.702 42.3314 102.898 42.6297 103.035 42.9233H103.149V41.0909H106.153V52.1065C106.153 53.0346 105.926 53.8111 105.471 54.4361C105.017 55.0611 104.387 55.5298 103.582 55.8423C102.782 56.1596 101.861 56.3182 100.819 56.3182ZM100.883 49.571C101.371 49.571 101.783 49.4503 102.119 49.2088C102.46 48.9626 102.72 48.6122 102.9 48.1577C103.085 47.6984 103.177 47.1491 103.177 46.5099C103.177 45.8707 103.087 45.3168 102.907 44.848C102.728 44.3745 102.467 44.0076 102.126 43.7472C101.785 43.4867 101.371 43.3565 100.883 43.3565C100.386 43.3565 99.9672 43.4915 99.6262 43.7614C99.2853 44.0265 99.0273 44.3958 98.8521 44.8693C98.6769 45.3428 98.5893 45.8897 98.5893 46.5099C98.5893 47.1397 98.6769 47.6842 98.8521 48.1435C99.032 48.598 99.2901 48.9508 99.6262 49.2017C99.9672 49.4479 100.386 49.571 100.883 49.571ZM111.672 52.206C110.976 52.206 110.355 52.0852 109.811 51.8438C109.266 51.5975 108.836 51.2353 108.518 50.7571C108.206 50.2741 108.05 49.6728 108.05 48.9531C108.05 48.3471 108.161 47.8381 108.383 47.4261C108.606 47.0142 108.909 46.6828 109.292 46.4318C109.676 46.1809 110.112 45.9915 110.599 45.8636C111.092 45.7358 111.608 45.6458 112.148 45.5938C112.782 45.5275 113.293 45.4659 113.682 45.4091C114.07 45.3475 114.352 45.2576 114.527 45.1392C114.702 45.0208 114.79 44.8456 114.79 44.6136V44.571C114.79 44.1212 114.648 43.7732 114.363 43.527C114.084 43.2808 113.686 43.1577 113.17 43.1577C112.626 43.1577 112.193 43.2784 111.871 43.5199C111.549 43.7566 111.336 44.0549 111.231 44.4148L108.433 44.1875C108.575 43.5246 108.854 42.9517 109.271 42.4688C109.688 41.9811 110.225 41.607 110.883 41.3466C111.546 41.0814 112.313 40.9489 113.184 40.9489C113.791 40.9489 114.371 41.0199 114.925 41.1619C115.483 41.304 115.978 41.5241 116.409 41.8224C116.845 42.1207 117.188 42.5043 117.439 42.973C117.69 43.437 117.815 43.9934 117.815 44.642V52H114.946V50.4872H114.861C114.685 50.8281 114.451 51.1288 114.157 51.3892C113.864 51.6449 113.511 51.8461 113.099 51.9929C112.687 52.1349 112.211 52.206 111.672 52.206ZM112.538 50.1179C112.983 50.1179 113.376 50.0303 113.717 49.8551C114.058 49.6752 114.326 49.4337 114.52 49.1307C114.714 48.8277 114.811 48.4844 114.811 48.1009V46.9432C114.716 47.0047 114.586 47.0616 114.42 47.1136C114.259 47.161 114.077 47.206 113.873 47.2486C113.67 47.2865 113.466 47.322 113.263 47.3551C113.059 47.3835 112.874 47.4096 112.709 47.4332C112.354 47.4853 112.043 47.5682 111.778 47.6818C111.513 47.7955 111.307 47.9493 111.16 48.1435C111.014 48.3329 110.94 48.5696 110.94 48.8537C110.94 49.2656 111.089 49.5805 111.388 49.7983C111.691 50.0114 112.074 50.1179 112.538 50.1179ZM120.162 52V41.0909H123.188V52H120.162ZM121.682 39.6847C121.233 39.6847 120.847 39.5355 120.525 39.2372C120.207 38.9342 120.049 38.572 120.049 38.1506C120.049 37.7339 120.207 37.3764 120.525 37.0781C120.847 36.7751 121.233 36.6236 121.682 36.6236C122.132 36.6236 122.516 36.7751 122.833 37.0781C123.155 37.3764 123.316 37.7339 123.316 38.1506C123.316 38.572 123.155 38.9342 122.833 39.2372C122.516 39.5355 122.132 39.6847 121.682 39.6847ZM128.637 45.6932V52H125.612V41.0909H128.495V43.0156H128.623C128.865 42.3812 129.269 41.8793 129.838 41.5099C130.406 41.1359 131.095 40.9489 131.904 40.9489C132.662 40.9489 133.322 41.1146 133.886 41.446C134.449 41.7775 134.887 42.2509 135.2 42.8665C135.512 43.4773 135.669 44.2064 135.669 45.054V52H132.643V45.5938C132.648 44.9261 132.477 44.4053 132.132 44.0312C131.786 43.6525 131.31 43.4631 130.704 43.4631C130.297 43.4631 129.937 43.5507 129.624 43.7259C129.317 43.901 129.075 44.1567 128.9 44.4929C128.73 44.8243 128.642 45.2244 128.637 45.6932Z" fill="black"/>
</svg>
