<svg width="283" height="153" viewBox="0 0 283 153" fill="none" xmlns="http://www.w3.org/2000/svg">
<g clip-path="url(#clip0_75_2553)">
<path opacity="0.873" fill-rule="evenodd" clip-rule="evenodd" d="M120.313 0.837557C135.2 0.705607 150.075 1.08483 164.938 1.97506C167.568 2.14078 170.193 2.37423 172.813 2.67506C182.669 3.92561 192.526 5.15061 202.388 6.35006C210.891 7.88411 219.408 9.34238 227.938 10.7251C229.997 11.1088 232.04 11.5756 234.063 12.1251C239.514 13.9811 244.939 15.9061 250.338 17.9001C252.931 18.991 255.322 20.391 257.513 22.1001C258.587 22.9985 259.607 23.961 260.575 24.9876C263.673 28.2602 266.707 31.5852 269.675 34.9626C272.652 39.6309 275.452 44.4143 278.075 49.3126C279.074 51.6147 279.774 54.0064 280.175 56.4876C280.947 61.3953 281.764 66.2953 282.625 71.1876C282.896 76.2013 282.954 81.2168 282.8 86.2376C282.077 92.7231 280.093 98.7903 276.85 104.438C271.164 112.342 263.902 118.32 255.063 122.375C248.49 125.305 241.665 127.462 234.588 128.85C230.694 129.477 226.784 130.002 222.863 130.425C220.313 130.982 217.746 131.449 215.163 131.825C209.384 132.261 203.609 132.726 197.838 133.225C178.845 133.29 159.857 133.61 140.875 134.188C136.059 134.16 131.247 134.014 126.438 133.75C114.124 133.547 101.815 133.722 89.5126 134.275C77.613 134.433 65.713 134.55 53.8126 134.625C48.1463 134.816 42.488 135.138 36.8376 135.588C35.0631 139.373 32.9339 142.931 30.4501 146.263C28.6075 148.163 26.7116 150.001 24.7626 151.775C23.8657 152.169 22.9325 152.284 21.9626 152.125C21.7743 151.822 21.7451 151.502 21.8751 151.163C22.5168 150.055 23.1584 148.945 23.8001 147.838C24.4522 145.248 24.8897 142.623 25.1126 139.963C25.1887 137.101 24.4597 134.476 22.9251 132.088C22.4001 131.388 21.8751 130.688 21.3501 129.988C16.1738 125.163 11.5071 119.913 7.35011 114.238C5.26848 110.892 3.46021 107.392 1.92511 103.738C1.33063 101.05 1.18486 98.3371 1.48761 95.6001C1.29966 94.0006 1.15388 92.3958 1.05011 90.7876C0.991832 85.7126 0.933382 80.6376 0.875107 75.5626C0.124707 68.0446 0.0664316 60.5194 0.700107 52.9876C1.89273 44.0153 5.15928 35.907 10.5001 28.6626C14.4117 24.1575 18.9909 20.5118 24.2376 17.7251C35.7108 11.5168 47.9023 7.43331 60.8126 5.47506C70.6994 4.08766 80.616 2.97938 90.5626 2.15006C100.512 1.81581 110.428 1.37831 120.313 0.837557Z" fill="#010101"/>
<path fill-rule="evenodd" clip-rule="evenodd" d="M137.987 4.86245C132.883 4.80452 127.808 4.8628 122.762 5.03745C117.805 5.20317 112.847 5.3199 107.887 5.38745C117.913 4.7074 127.946 4.5324 137.987 4.86245Z" fill="#7E7E7E"/>
<path fill-rule="evenodd" clip-rule="evenodd" d="M122.762 5.03747C127.808 4.86282 132.883 4.80455 137.987 4.86247C138.92 4.86247 139.855 4.86247 140.787 4.86247C141.605 4.9792 142.42 5.09575 143.237 5.21247C141.78 5.21247 140.32 5.21247 138.862 5.21247C133.525 5.03782 128.159 4.97955 122.762 5.03747Z" fill="#C2C2C2"/>
<path fill-rule="evenodd" clip-rule="evenodd" d="M138.863 5.21255C140.32 5.21255 141.78 5.21255 143.238 5.21255C144.263 5.1562 145.254 5.21447 146.213 5.38755C146.762 5.53122 147.345 5.61872 147.963 5.65005C151.811 5.8317 155.661 5.9192 159.513 5.91255C162.885 6.16787 166.268 6.40115 169.663 6.61255C169.895 6.61255 170.13 6.61255 170.363 6.61255C170.436 6.7389 170.552 6.8264 170.713 6.87505C172.484 7.00192 174.234 7.2352 175.963 7.57505C178.637 7.8918 181.319 8.1543 184.013 8.36255C184.086 8.4889 184.202 8.5764 184.363 8.62505C187.388 8.99185 190.421 9.25435 193.463 9.41255C194.157 9.5284 194.857 9.58667 195.563 9.58755C195.795 9.58755 196.03 9.58755 196.263 9.58755C197.097 9.83062 197.972 9.94735 198.888 9.93755C198.945 9.93755 199.005 9.93755 199.063 9.93755C199.775 10.2095 200.533 10.326 201.338 10.2875C201.667 10.4347 202.017 10.4932 202.388 10.4625C202.739 10.7117 203.149 10.8283 203.613 10.8125C203.845 10.8125 204.08 10.8125 204.313 10.8125C204.848 11.0981 205.431 11.3024 206.063 11.425C207.578 11.693 209.094 11.9847 210.613 12.3C211.194 12.3872 211.776 12.4164 212.363 12.3875C212.42 12.3875 212.48 12.3875 212.538 12.3875C213.187 12.6962 213.887 12.9005 214.638 13C216.333 13.2134 218.026 13.4176 219.713 13.6125C219.77 13.6125 219.83 13.6125 219.888 13.6125C219.907 13.7205 219.965 13.808 220.063 13.875C221.114 13.9627 222.164 14.0502 223.213 14.1375C223.445 14.1375 223.68 14.1375 223.913 14.1375C224.975 14.5556 226.083 14.8766 227.238 15.1C227.819 15.1872 228.401 15.2164 228.988 15.1875C229.392 15.2738 229.8 15.3321 230.213 15.3625C230.564 15.6117 230.974 15.7283 231.438 15.7125C231.721 15.8067 232.012 15.865 232.313 15.8875C232.332 15.9955 232.39 16.083 232.488 16.15C233.074 16.2967 233.657 16.4425 234.238 16.5875C234.295 16.5875 234.355 16.5875 234.413 16.5875C234.407 16.762 234.495 16.8787 234.675 16.9375C236.026 17.4365 237.396 17.8449 238.788 18.1625C238.845 18.1625 238.905 18.1625 238.963 18.1625C239.029 18.413 239.204 18.5587 239.488 18.6C240.07 18.7068 240.653 18.7943 241.238 18.8625C241.609 19.2397 242.074 19.4147 242.638 19.3875C242.755 19.3875 242.87 19.3875 242.988 19.3875C243.787 19.8693 244.662 20.2193 245.613 20.4375C245.67 20.4375 245.73 20.4375 245.788 20.4375C246.439 20.8798 247.139 21.2298 247.888 21.4875C248.651 21.9369 249.466 22.2869 250.338 22.5375C250.968 22.9904 251.668 23.3404 252.438 23.5875C252.593 23.6943 252.768 23.7526 252.963 23.7625C253.022 23.9092 253.139 23.9676 253.313 23.9375C253.395 24.1836 253.57 24.3003 253.838 24.2875C253.971 24.5959 254.205 24.7709 254.538 24.8125C254.727 25.1778 255.019 25.411 255.413 25.5125C255.88 26.0958 256.405 26.6208 256.988 27.0875C257.325 27.7175 257.793 28.2425 258.388 28.6625C259.487 30.0529 260.712 31.3362 262.063 32.5125C262.635 33.377 263.335 34.1353 264.163 34.7875C264.56 35.4763 265.085 36.0596 265.738 36.5375C265.78 36.8707 265.955 37.1042 266.263 37.2375C266.305 37.5708 266.48 37.8042 266.788 37.9375C266.775 38.2048 266.891 38.3798 267.138 38.4626C267.18 38.7957 267.355 39.0292 267.663 39.1625C267.663 39.2793 267.663 39.3958 267.663 39.5126C268.56 40.9911 269.376 42.5079 270.113 44.0625C270.312 44.2946 270.547 44.4696 270.813 44.5876C270.8 44.8548 270.916 45.0298 271.163 45.1125C271.163 45.2293 271.163 45.3458 271.163 45.4626C271.751 46.7614 272.51 47.9281 273.438 48.9626C273.425 49.2298 273.541 49.4048 273.788 49.4875C273.847 50.2463 274.138 50.8881 274.663 51.4126C274.825 51.5994 274.885 51.8327 274.838 52.1125C274.815 52.4262 274.873 52.7177 275.013 52.9875C275.111 53.8039 275.343 54.5622 275.713 55.2626C275.819 55.4185 275.877 55.5935 275.888 55.7876C275.86 56.2578 275.888 56.7245 275.975 57.1875C276.124 57.868 276.327 58.5097 276.588 59.1126C276.588 59.2293 276.588 59.3458 276.588 59.4626C276.57 60.5686 276.745 61.6185 277.113 62.6126C277.113 62.7293 277.113 62.8458 277.113 62.9626C277.085 63.4328 277.113 63.8995 277.2 64.3626C277.249 64.5229 277.337 64.6394 277.463 64.7126C277.589 65.1088 277.646 65.517 277.638 65.9375C277.638 66.1708 277.638 66.4043 277.638 66.6376C277.611 67.201 277.786 67.6665 278.163 68.0376C278.163 68.0953 278.163 68.1548 278.163 68.2126C278.163 68.6798 278.163 69.1453 278.163 69.6125C278.626 74.5546 278.801 79.5141 278.688 84.4876C278.688 84.6626 278.688 84.8376 278.688 85.0126C278.378 87.2158 278.028 89.4331 277.638 91.6626C277.485 92.2383 277.368 92.8211 277.288 93.4126C276.806 94.2123 276.456 95.0873 276.238 96.0376C276.012 96.1356 275.867 96.3106 275.8 96.5626C275.693 97.1453 275.606 97.7281 275.538 98.3126C275.42 98.3703 275.305 98.4298 275.188 98.4876C274.722 99.4711 274.257 100.463 273.788 101.463C270.636 106.219 266.728 110.274 262.063 113.625C260.913 114.456 259.746 115.244 258.563 115.988C257.574 116.423 256.583 116.861 255.588 117.3C255.456 117.417 255.397 117.563 255.413 117.738C254.599 117.708 253.957 118 253.488 118.613C253.19 118.585 252.898 118.614 252.613 118.7C251.372 119.264 250.147 119.817 248.938 120.363C248.938 120.48 248.88 120.538 248.763 120.538C248.465 120.51 248.173 120.539 247.888 120.625C247.667 120.699 247.552 120.844 247.538 121.063C246.05 121.486 244.591 121.953 243.163 122.463C241.028 122.923 238.928 123.448 236.863 124.038C236.579 124.132 236.289 124.19 235.988 124.213C235.183 124.424 234.365 124.599 233.538 124.738C232.979 124.748 232.425 124.806 231.875 124.913C231.581 124.932 231.376 125.047 231.263 125.263C230.834 125.228 230.426 125.285 230.038 125.438C228.303 125.436 226.611 125.611 224.963 125.963C224.186 126.069 223.428 126.187 222.688 126.313C221.221 126.421 219.762 126.626 218.313 126.925C217.994 126.96 217.761 127.105 217.613 127.363C217.555 127.363 217.495 127.363 217.438 127.363C217.205 127.363 216.97 127.363 216.738 127.363C215.045 127.48 213.353 127.625 211.663 127.8C210.928 127.893 210.228 128.038 209.563 128.238C208.448 128.211 207.34 128.269 206.238 128.413C205.77 128.413 205.305 128.413 204.838 128.413C202.794 128.514 200.751 128.659 198.713 128.85C193.55 128.88 188.416 128.967 183.313 129.113C182.807 129.058 182.341 129.118 181.913 129.288C174.62 129.258 167.33 129.288 160.038 129.375C159.42 129.407 158.837 129.494 158.288 129.638C157.596 129.772 156.896 129.832 156.188 129.813C154.263 129.813 152.338 129.813 150.413 129.813C141.482 129.891 132.557 129.776 123.638 129.463C116.578 129.429 109.52 129.487 102.463 129.638C94.9107 129.865 87.3857 130.04 79.8876 130.163C79.6543 130.163 79.4209 130.163 79.1876 130.163C70.5541 130.133 61.9207 130.163 53.2876 130.25C52.7285 130.282 52.2035 130.369 51.7126 130.513C51.4793 130.513 51.2459 130.513 51.0126 130.513C48.7595 130.451 46.5429 130.567 44.3626 130.863C43.4381 130.793 42.5631 130.908 41.7376 131.213C39.7025 131.377 37.6608 131.435 35.6126 131.388C35.3723 131.36 35.1389 131.389 34.9126 131.475C33.8922 132.229 33.1922 133.192 32.8126 134.363C32.7059 134.518 32.6476 134.693 32.6376 134.888C32.3154 135.299 32.0822 135.766 31.9376 136.288C31.0666 137.325 30.3666 138.493 29.8376 139.788C29.5084 139.079 29.275 138.321 29.1376 137.513C29.0209 137.163 28.9043 136.813 28.7876 136.463C28.7876 136.23 28.7876 135.995 28.7876 135.763C28.814 133.838 28.1723 132.203 26.8626 130.863C26.821 130.53 26.646 130.296 26.3376 130.163C26.3677 129.989 26.3092 129.872 26.1626 129.813C26.121 129.48 25.946 129.246 25.6376 129.113C25.596 128.78 25.4209 128.546 25.1126 128.413C25.1026 128.218 25.0444 128.043 24.9376 127.888C24.7308 127.483 24.4975 127.074 24.2376 126.663C24.0771 126.552 23.9021 126.495 23.7126 126.488C22.3032 124.902 20.7864 123.444 19.1626 122.113C18.7543 121.588 18.2876 121.12 17.7626 120.713C17.5426 120.2 17.1926 119.792 16.7126 119.488C16.4793 119.138 16.1876 118.845 15.8376 118.613C15.7361 118.219 15.5028 117.927 15.1376 117.738C14.9768 117.284 14.6851 116.934 14.2626 116.688C14.221 116.355 14.0459 116.121 13.7376 115.988C13.5768 115.534 13.2851 115.184 12.8626 114.938C12.821 114.605 12.646 114.371 12.3376 114.238C12.2361 113.844 12.0028 113.552 11.6376 113.363C11.4126 112.904 11.1208 112.496 10.7626 112.138C10.7626 112.02 10.7626 111.905 10.7626 111.788C10.1109 110.426 9.4109 109.084 8.6626 107.763C8.54308 107.7 8.42635 107.64 8.3126 107.588C8.32538 107.32 8.20865 107.145 7.9626 107.063C7.9213 106.517 7.68803 106.109 7.2626 105.838C7.2626 105.72 7.2626 105.605 7.2626 105.488C6.93465 104.422 6.55543 103.372 6.1251 102.338C6.09518 101.081 6.00768 99.8561 5.8626 98.6626C5.91773 96.3736 5.77178 94.0986 5.4251 91.8376C5.36683 86.4703 5.30838 81.1048 5.2501 75.7375C5.20653 74.7645 5.06075 73.8301 4.8126 72.9376C4.49113 67.5773 4.3744 62.2115 4.4626 56.8376C4.60803 55.6771 4.6663 54.5104 4.6376 53.3376C4.84008 52.8523 4.9568 52.3273 4.9876 51.7626C5.1906 51.0309 5.3656 50.2724 5.5126 49.4875C5.5126 49.2543 5.5126 49.0208 5.5126 48.7876C5.7618 48.4349 5.87835 48.0266 5.8626 47.5625C5.83915 47.249 5.89743 46.9574 6.0376 46.6875C6.4996 45.8852 6.79115 45.0102 6.9126 44.0625C7.3396 43.3071 7.63133 42.4905 7.7876 41.6125C7.7876 41.4958 7.84588 41.4375 7.9626 41.4375C9.00928 39.3444 10.0593 37.2444 11.1126 35.1375C11.1126 35.0208 11.1126 34.9043 11.1126 34.7875C11.3587 34.7048 11.4754 34.5298 11.4626 34.2625C11.7897 33.9941 12.023 33.6441 12.1626 33.2125C12.471 33.0792 12.646 32.8457 12.6876 32.5125C13.9828 30.954 15.3828 29.4665 16.8876 28.05C18.257 27.0011 19.5403 25.8636 20.7376 24.6375C21.0708 24.5959 21.3043 24.4209 21.4376 24.1125C21.7708 24.0709 22.0043 23.8959 22.1376 23.5875C22.5485 23.5714 22.8401 23.3964 23.0126 23.0625C26.7077 21.2441 30.3827 19.3776 34.0376 17.4625C34.4181 17.4188 34.7098 17.2438 34.9126 16.9375C35.7614 16.8297 36.5196 16.538 37.1876 16.0625C38.1037 15.7775 38.9787 15.4275 39.8126 15.0125C40.3196 14.9025 40.7863 14.7275 41.2126 14.4875C42.7766 14.1214 44.2931 13.6547 45.7626 13.0875C46.8103 12.9285 47.8019 12.6367 48.7376 12.2125C49.1572 12.2547 49.5072 12.138 49.7876 11.8625C50.3702 11.9124 50.8952 11.7957 51.3626 11.5125C52.7505 11.049 54.1505 10.699 55.5626 10.4625C56.5905 10.3665 57.5823 10.1915 58.5376 9.93755C59.7489 9.91025 60.9157 9.73525 62.0376 9.41255C62.6714 9.4437 63.2549 9.32697 63.7876 9.06255C64.2543 9.06255 64.7209 9.06255 65.1876 9.06255C66.5116 9.01495 67.7949 8.83995 69.0376 8.53755C70.5487 8.60177 72.007 8.42677 73.4126 8.01255C74.4642 8.0416 75.5142 8.01237 76.5626 7.92505C78.9914 7.45307 81.4414 7.16135 83.9126 7.05005C84.8047 6.96657 85.6215 6.76235 86.3626 6.43755C86.5376 6.43755 86.7126 6.43755 86.8876 6.43755C91.4152 6.47972 95.9068 6.30472 100.363 5.91255C100.771 5.91255 101.179 5.91255 101.588 5.91255C102.813 5.91255 104.038 5.91255 105.263 5.91255C109.467 5.7911 113.667 5.58687 117.863 5.30005C124.863 5.21255 131.863 5.18332 138.863 5.21255Z" fill="#FEFEFE"/>
<path d="M28.5227 43L25.3409 31.3636H26.7727L29.2045 40.8409H29.3182L31.7954 31.3636H33.3863L35.8636 40.8409H35.9773L38.4091 31.3636H39.8409L36.6591 43H35.2045L32.6363 33.7273H32.5454L29.9773 43H28.5227ZM44.2613 43.1818C43.4204 43.1818 42.6951 42.9962 42.0852 42.625C41.4792 42.25 41.0113 41.7273 40.6818 41.0568C40.356 40.3826 40.1932 39.5985 40.1932 38.7045C40.1932 37.8106 40.356 37.0227 40.6818 36.3409C41.0113 35.6553 41.4697 35.1212 42.0568 34.7386C42.6477 34.3523 43.3371 34.1591 44.125 34.1591C44.5795 34.1591 45.0284 34.2348 45.4716 34.3864C45.9148 34.5379 46.3182 34.7841 46.6818 35.125C47.0454 35.4621 47.3352 35.9091 47.5511 36.4659C47.767 37.0227 47.875 37.7083 47.875 38.5227V39.0909H41.1477V37.9318H46.5113C46.5113 37.4394 46.4129 37 46.2159 36.6136C46.0227 36.2273 45.7462 35.9223 45.3863 35.6989C45.0303 35.4754 44.6098 35.3636 44.125 35.3636C43.5909 35.3636 43.1288 35.4962 42.7386 35.7614C42.3523 36.0227 42.0549 36.3636 41.8466 36.7841C41.6382 37.2045 41.5341 37.6553 41.5341 38.1364V38.9091C41.5341 39.5682 41.6477 40.1269 41.875 40.5852C42.106 41.0398 42.4261 41.3864 42.8352 41.625C43.2443 41.8598 43.7197 41.9773 44.2613 41.9773C44.6136 41.9773 44.9318 41.928 45.2159 41.8295C45.5038 41.7273 45.7519 41.5758 45.9602 41.375C46.1685 41.1705 46.3295 40.9167 46.4432 40.6136L47.7386 40.9773C47.6023 41.4167 47.3731 41.803 47.0511 42.1364C46.7292 42.4659 46.3314 42.7235 45.8579 42.9091C45.3845 43.0909 44.8523 43.1818 44.2613 43.1818ZM51.2557 31.3636V43H49.9148V31.3636H51.2557ZM57.2571 43.1818C56.4389 43.1818 55.7344 42.9886 55.1435 42.6023C54.5525 42.2159 54.098 41.6837 53.7798 41.0057C53.4616 40.3277 53.3025 39.553 53.3025 38.6818C53.3025 37.7955 53.4654 37.0133 53.7912 36.3352C54.1207 35.6534 54.5791 35.1212 55.1662 34.7386C55.7571 34.3523 56.4465 34.1591 57.2344 34.1591C57.848 34.1591 58.401 34.2727 58.8935 34.5C59.3859 34.7273 59.7893 35.0455 60.1037 35.4545C60.4181 35.8636 60.6131 36.3409 60.6889 36.8864H59.348C59.2457 36.4886 59.0185 36.1364 58.6662 35.8295C58.3177 35.5189 57.848 35.3636 57.2571 35.3636C56.7344 35.3636 56.276 35.5 55.8821 35.7727C55.4919 36.0417 55.187 36.4223 54.9673 36.9148C54.7514 37.4034 54.6435 37.9773 54.6435 38.6364C54.6435 39.3106 54.7495 39.8977 54.9616 40.3977C55.1775 40.8977 55.4806 41.286 55.8707 41.5625C56.2647 41.839 56.7268 41.9773 57.2571 41.9773C57.6056 41.9773 57.9219 41.9167 58.206 41.7955C58.49 41.6742 58.7306 41.5 58.9275 41.2727C59.1245 41.0455 59.2647 40.7727 59.348 40.4545H60.6889C60.6131 40.9697 60.4256 41.4337 60.1264 41.8466C59.831 42.2557 59.4389 42.5814 58.9503 42.8239C58.4654 43.0625 57.901 43.1818 57.2571 43.1818ZM66.1946 43.1818C65.4067 43.1818 64.7154 42.9943 64.1207 42.6193C63.5298 42.2443 63.0677 41.7197 62.7344 41.0455C62.4048 40.3712 62.24 39.5833 62.24 38.6818C62.24 37.7727 62.4048 36.9792 62.7344 36.3011C63.0677 35.6231 63.5298 35.0966 64.1207 34.7216C64.7154 34.3466 65.4067 34.1591 66.1946 34.1591C66.9825 34.1591 67.6719 34.3466 68.2628 34.7216C68.8575 35.0966 69.3196 35.6231 69.6491 36.3011C69.9825 36.9792 70.1491 37.7727 70.1491 38.6818C70.1491 39.5833 69.9825 40.3712 69.6491 41.0455C69.3196 41.7197 68.8575 42.2443 68.2628 42.6193C67.6719 42.9943 66.9825 43.1818 66.1946 43.1818ZM66.1946 41.9773C66.7931 41.9773 67.2855 41.8239 67.6719 41.517C68.0582 41.2102 68.3442 40.8068 68.5298 40.3068C68.7154 39.8068 68.8082 39.2652 68.8082 38.6818C68.8082 38.0985 68.7154 37.5549 68.5298 37.0511C68.3442 36.5473 68.0582 36.1402 67.6719 35.8295C67.2855 35.5189 66.7931 35.3636 66.1946 35.3636C65.5961 35.3636 65.1037 35.5189 64.7173 35.8295C64.331 36.1402 64.045 36.5473 63.8594 37.0511C63.6738 37.5549 63.581 38.0985 63.581 38.6818C63.581 39.2652 63.6738 39.8068 63.8594 40.3068C64.045 40.8068 64.331 41.2102 64.7173 41.517C65.1037 41.8239 65.5961 41.9773 66.1946 41.9773ZM72.196 43V34.2727H73.4915V35.6364H73.6051C73.7869 35.1705 74.0805 34.8087 74.4858 34.5511C74.8911 34.2898 75.3778 34.1591 75.946 34.1591C76.5218 34.1591 77.0009 34.2898 77.3835 34.5511C77.7699 34.8087 78.071 35.1705 78.2869 35.6364H78.3778C78.6013 35.1856 78.9365 34.8277 79.3835 34.5625C79.8305 34.2936 80.3665 34.1591 80.9915 34.1591C81.7718 34.1591 82.41 34.4034 82.9062 34.892C83.4024 35.3769 83.6506 36.1326 83.6506 37.1591V43H82.3096V37.1591C82.3096 36.5152 82.1335 36.0549 81.7812 35.7784C81.429 35.5019 81.0142 35.3636 80.5369 35.3636C79.9233 35.3636 79.4479 35.5492 79.1108 35.9205C78.7737 36.2879 78.6051 36.7538 78.6051 37.3182V43H77.2415V37.0227C77.2415 36.5265 77.0805 36.1269 76.7585 35.8239C76.4365 35.517 76.0218 35.3636 75.5142 35.3636C75.1657 35.3636 74.8399 35.4564 74.5369 35.642C74.2377 35.8277 73.9952 36.0852 73.8096 36.4148C73.6278 36.7405 73.5369 37.1174 73.5369 37.5455V43H72.196ZM89.7613 43.1818C88.9204 43.1818 88.1951 42.9962 87.5852 42.625C86.9792 42.25 86.5113 41.7273 86.1818 41.0568C85.856 40.3826 85.6932 39.5985 85.6932 38.7045C85.6932 37.8106 85.856 37.0227 86.1818 36.3409C86.5113 35.6553 86.9697 35.1212 87.5568 34.7386C88.1477 34.3523 88.8371 34.1591 89.625 34.1591C90.0795 34.1591 90.5284 34.2348 90.9716 34.3864C91.4148 34.5379 91.8182 34.7841 92.1818 35.125C92.5454 35.4621 92.8352 35.9091 93.0511 36.4659C93.267 37.0227 93.375 37.7083 93.375 38.5227V39.0909H86.6477V37.9318H92.0113C92.0113 37.4394 91.9129 37 91.7159 36.6136C91.5227 36.2273 91.2462 35.9223 90.8863 35.6989C90.5303 35.4754 90.1098 35.3636 89.625 35.3636C89.0909 35.3636 88.6288 35.4962 88.2386 35.7614C87.8523 36.0227 87.5549 36.3636 87.3466 36.7841C87.1382 37.2045 87.0341 37.6553 87.0341 38.1364V38.9091C87.0341 39.5682 87.1477 40.1269 87.375 40.5852C87.606 41.0398 87.9261 41.3864 88.3352 41.625C88.7443 41.8598 89.2197 41.9773 89.7613 41.9773C90.1136 41.9773 90.4318 41.928 90.7159 41.8295C91.0038 41.7273 91.2519 41.5758 91.4602 41.375C91.6685 41.1705 91.8295 40.9167 91.9432 40.6136L93.2386 40.9773C93.1023 41.4167 92.8731 41.803 92.5511 42.1364C92.2292 42.4659 91.8314 42.7235 91.3579 42.9091C90.8845 43.0909 90.3523 43.1818 89.7613 43.1818ZM103.71 34.2727V35.4091H99.1875V34.2727H103.71ZM100.506 32.1818H101.847V40.5C101.847 40.8788 101.901 41.1629 102.011 41.3523C102.125 41.5379 102.269 41.6629 102.443 41.7273C102.621 41.7879 102.809 41.8182 103.006 41.8182C103.153 41.8182 103.275 41.8106 103.369 41.7955C103.464 41.7765 103.54 41.7614 103.597 41.75L103.869 42.9545C103.778 42.9886 103.651 43.0227 103.489 43.0568C103.326 43.0947 103.119 43.1136 102.869 43.1136C102.491 43.1136 102.119 43.0322 101.756 42.8693C101.396 42.7064 101.097 42.4583 100.858 42.125C100.623 41.7917 100.506 41.3712 100.506 40.8636V32.1818ZM109.179 43.1818C108.391 43.1818 107.7 42.9943 107.105 42.6193C106.514 42.2443 106.052 41.7197 105.719 41.0455C105.389 40.3712 105.224 39.5833 105.224 38.6818C105.224 37.7727 105.389 36.9792 105.719 36.3011C106.052 35.6231 106.514 35.0966 107.105 34.7216C107.7 34.3466 108.391 34.1591 109.179 34.1591C109.967 34.1591 110.656 34.3466 111.247 34.7216C111.842 35.0966 112.304 35.6231 112.634 36.3011C112.967 36.9792 113.134 37.7727 113.134 38.6818C113.134 39.5833 112.967 40.3712 112.634 41.0455C112.304 41.7197 111.842 42.2443 111.247 42.6193C110.656 42.9943 109.967 43.1818 109.179 43.1818ZM109.179 41.9773C109.777 41.9773 110.27 41.8239 110.656 41.517C111.043 41.2102 111.329 40.8068 111.514 40.3068C111.7 39.8068 111.793 39.2652 111.793 38.6818C111.793 38.0985 111.7 37.5549 111.514 37.0511C111.329 36.5473 111.043 36.1402 110.656 35.8295C110.27 35.5189 109.777 35.3636 109.179 35.3636C108.58 35.3636 108.088 35.5189 107.702 35.8295C107.315 36.1402 107.029 36.5473 106.844 37.0511C106.658 37.5549 106.565 38.0985 106.565 38.6818C106.565 39.2652 106.658 39.8068 106.844 40.3068C107.029 40.8068 107.315 41.2102 107.702 41.517C108.088 41.8239 108.58 41.9773 109.179 41.9773ZM123.476 34.2727V35.4091H118.953V34.2727H123.476ZM120.271 32.1818H121.612V40.5C121.612 40.8788 121.667 41.1629 121.777 41.3523C121.891 41.5379 122.035 41.6629 122.209 41.7273C122.387 41.7879 122.574 41.8182 122.771 41.8182C122.919 41.8182 123.04 41.8106 123.135 41.7955C123.23 41.7765 123.305 41.7614 123.362 41.75L123.635 42.9545C123.544 42.9886 123.417 43.0227 123.254 43.0568C123.091 43.0947 122.885 43.1136 122.635 43.1136C122.256 43.1136 121.885 43.0322 121.521 42.8693C121.161 42.7064 120.862 42.4583 120.624 42.125C120.389 41.7917 120.271 41.3712 120.271 40.8636V32.1818ZM127.021 37.75V43H125.68V31.3636H127.021V35.6364H127.135C127.339 35.1856 127.646 34.8277 128.055 34.5625C128.468 34.2936 129.018 34.1591 129.703 34.1591C130.298 34.1591 130.819 34.2784 131.266 34.517C131.713 34.7519 132.059 35.1136 132.305 35.6023C132.555 36.0871 132.68 36.7045 132.68 37.4545V43H131.339V37.5455C131.339 36.8523 131.16 36.3163 130.8 35.9375C130.444 35.5549 129.949 35.3636 129.317 35.3636C128.877 35.3636 128.483 35.4564 128.135 35.642C127.79 35.8277 127.518 36.0985 127.317 36.4545C127.12 36.8106 127.021 37.2424 127.021 37.75ZM138.793 43.1818C137.952 43.1818 137.226 42.9962 136.616 42.625C136.01 42.25 135.543 41.7273 135.213 41.0568C134.887 40.3826 134.724 39.5985 134.724 38.7045C134.724 37.8106 134.887 37.0227 135.213 36.3409C135.543 35.6553 136.001 35.1212 136.588 34.7386C137.179 34.3523 137.868 34.1591 138.656 34.1591C139.111 34.1591 139.56 34.2348 140.003 34.3864C140.446 34.5379 140.849 34.7841 141.213 35.125C141.577 35.4621 141.866 35.9091 142.082 36.4659C142.298 37.0227 142.406 37.7083 142.406 38.5227V39.0909H135.679V37.9318H141.043C141.043 37.4394 140.944 37 140.747 36.6136C140.554 36.2273 140.277 35.9223 139.918 35.6989C139.562 35.4754 139.141 35.3636 138.656 35.3636C138.122 35.3636 137.66 35.4962 137.27 35.7614C136.884 36.0227 136.586 36.3636 136.378 36.7841C136.169 37.2045 136.065 37.6553 136.065 38.1364V38.9091C136.065 39.5682 136.179 40.1269 136.406 40.5852C136.637 41.0398 136.957 41.3864 137.366 41.625C137.776 41.8598 138.251 41.9773 138.793 41.9773C139.145 41.9773 139.463 41.928 139.747 41.8295C140.035 41.7273 140.283 41.5758 140.491 41.375C140.7 41.1705 140.861 40.9167 140.974 40.6136L142.27 40.9773C142.134 41.4167 141.904 41.803 141.582 42.1364C141.26 42.4659 140.863 42.7235 140.389 42.9091C139.916 43.0909 139.384 43.1818 138.793 43.1818ZM155.128 36.2273L153.923 36.5682C153.848 36.3674 153.736 36.1723 153.588 35.983C153.444 35.7898 153.247 35.6307 152.997 35.5057C152.747 35.3807 152.427 35.3182 152.037 35.3182C151.503 35.3182 151.058 35.4413 150.702 35.6875C150.349 35.9299 150.173 36.2386 150.173 36.6136C150.173 36.947 150.294 37.2102 150.537 37.4034C150.779 37.5966 151.158 37.7576 151.673 37.8864L152.969 38.2045C153.749 38.3939 154.33 38.6837 154.713 39.0739C155.096 39.4602 155.287 39.9583 155.287 40.5682C155.287 41.0682 155.143 41.5152 154.855 41.9091C154.571 42.303 154.173 42.6136 153.662 42.8409C153.151 43.0682 152.556 43.1818 151.878 43.1818C150.988 43.1818 150.251 42.9886 149.668 42.6023C149.084 42.2159 148.715 41.6515 148.56 40.9091L149.832 40.5909C149.954 41.0606 150.183 41.4129 150.52 41.6477C150.861 41.8826 151.306 42 151.855 42C152.48 42 152.976 41.8674 153.344 41.6023C153.715 41.3333 153.901 41.0114 153.901 40.6364C153.901 40.3333 153.794 40.0795 153.582 39.875C153.37 39.6667 153.044 39.5114 152.605 39.4091L151.151 39.0682C150.351 38.8788 149.764 38.5852 149.389 38.1875C149.018 37.786 148.832 37.2841 148.832 36.6818C148.832 36.1894 148.971 35.7538 149.247 35.375C149.527 34.9962 149.908 34.6989 150.389 34.483C150.874 34.267 151.423 34.1591 152.037 34.1591C152.901 34.1591 153.579 34.3485 154.071 34.7273C154.567 35.1061 154.919 35.6061 155.128 36.2273ZM161.101 34.2727V35.4091H156.578V34.2727H161.101ZM157.896 32.1818H159.237V40.5C159.237 40.8788 159.292 41.1629 159.402 41.3523C159.516 41.5379 159.66 41.6629 159.834 41.7273C160.012 41.7879 160.199 41.8182 160.396 41.8182C160.544 41.8182 160.665 41.8106 160.76 41.7955C160.855 41.7765 160.93 41.7614 160.987 41.75L161.26 42.9545C161.169 42.9886 161.042 43.0227 160.879 43.0568C160.716 43.0947 160.51 43.1136 160.26 43.1136C159.881 43.1136 159.51 43.0322 159.146 42.8693C158.786 42.7064 158.487 42.4583 158.249 42.125C158.014 41.7917 157.896 41.3712 157.896 40.8636V32.1818ZM166.57 43.1818C165.782 43.1818 165.09 42.9943 164.496 42.6193C163.905 42.2443 163.443 41.7197 163.109 41.0455C162.78 40.3712 162.615 39.5833 162.615 38.6818C162.615 37.7727 162.78 36.9792 163.109 36.3011C163.443 35.6231 163.905 35.0966 164.496 34.7216C165.09 34.3466 165.782 34.1591 166.57 34.1591C167.357 34.1591 168.047 34.3466 168.638 34.7216C169.232 35.0966 169.695 35.6231 170.024 36.3011C170.357 36.9792 170.524 37.7727 170.524 38.6818C170.524 39.5833 170.357 40.3712 170.024 41.0455C169.695 41.7197 169.232 42.2443 168.638 42.6193C168.047 42.9943 167.357 43.1818 166.57 43.1818ZM166.57 41.9773C167.168 41.9773 167.66 41.8239 168.047 41.517C168.433 41.2102 168.719 40.8068 168.905 40.3068C169.09 39.8068 169.183 39.2652 169.183 38.6818C169.183 38.0985 169.09 37.5549 168.905 37.0511C168.719 36.5473 168.433 36.1402 168.047 35.8295C167.66 35.5189 167.168 35.3636 166.57 35.3636C165.971 35.3636 165.479 35.5189 165.092 35.8295C164.706 36.1402 164.42 36.5473 164.234 37.0511C164.049 37.5549 163.956 38.0985 163.956 38.6818C163.956 39.2652 164.049 39.8068 164.234 40.3068C164.42 40.8068 164.706 41.2102 165.092 41.517C165.479 41.8239 165.971 41.9773 166.57 41.9773ZM172.571 43V34.2727H173.866V35.5909H173.957C174.116 35.1591 174.404 34.8087 174.821 34.5398C175.238 34.2708 175.707 34.1364 176.23 34.1364C176.329 34.1364 176.452 34.1383 176.599 34.142C176.747 34.1458 176.859 34.1515 176.935 34.1591V35.5227C176.889 35.5114 176.785 35.4943 176.622 35.4716C176.463 35.4451 176.294 35.4318 176.116 35.4318C175.692 35.4318 175.313 35.5208 174.98 35.6989C174.651 35.8731 174.389 36.1155 174.196 36.4261C174.007 36.733 173.912 37.0833 173.912 37.4773V43H172.571ZM181.918 43.1818C181.077 43.1818 180.351 42.9962 179.741 42.625C179.135 42.25 178.668 41.7273 178.338 41.0568C178.012 40.3826 177.849 39.5985 177.849 38.7045C177.849 37.8106 178.012 37.0227 178.338 36.3409C178.668 35.6553 179.126 35.1212 179.713 34.7386C180.304 34.3523 180.993 34.1591 181.781 34.1591C182.236 34.1591 182.685 34.2348 183.128 34.3864C183.571 34.5379 183.974 34.7841 184.338 35.125C184.702 35.4621 184.991 35.9091 185.207 36.4659C185.423 37.0227 185.531 37.7083 185.531 38.5227V39.0909H178.804V37.9318H184.168C184.168 37.4394 184.069 37 183.872 36.6136C183.679 36.2273 183.402 35.9223 183.043 35.6989C182.687 35.4754 182.266 35.3636 181.781 35.3636C181.247 35.3636 180.785 35.4962 180.395 35.7614C180.009 36.0227 179.711 36.3636 179.503 36.7841C179.294 37.2045 179.19 37.6553 179.19 38.1364V38.9091C179.19 39.5682 179.304 40.1269 179.531 40.5852C179.762 41.0398 180.082 41.3864 180.491 41.625C180.901 41.8598 181.376 41.9773 181.918 41.9773C182.27 41.9773 182.588 41.928 182.872 41.8295C183.16 41.7273 183.408 41.5758 183.616 41.375C183.825 41.1705 183.986 40.9167 184.099 40.6136L185.395 40.9773C185.259 41.4167 185.029 41.803 184.707 42.1364C184.385 42.4659 183.988 42.7235 183.514 42.9091C183.041 43.0909 182.509 43.1818 181.918 43.1818ZM189.344 31.3636L189.23 39.7273H187.912L187.798 31.3636H189.344ZM188.571 43.0909C188.291 43.0909 188.05 42.9905 187.849 42.7898C187.649 42.589 187.548 42.3485 187.548 42.0682C187.548 41.7879 187.649 41.5473 187.849 41.3466C188.05 41.1458 188.291 41.0455 188.571 41.0455C188.851 41.0455 189.092 41.1458 189.293 41.3466C189.493 41.5473 189.594 41.7879 189.594 42.0682C189.594 42.2538 189.546 42.4242 189.452 42.5795C189.361 42.7348 189.238 42.8598 189.082 42.9545C188.931 43.0455 188.76 43.0909 188.571 43.0909ZM196.706 43V31.3636H200.638C201.551 31.3636 202.297 31.5284 202.876 31.858C203.46 32.1837 203.892 32.625 204.172 33.1818C204.452 33.7386 204.592 34.3598 204.592 35.0455C204.592 35.7311 204.452 36.3542 204.172 36.9148C203.895 37.4754 203.467 37.9223 202.888 38.2557C202.308 38.5852 201.566 38.75 200.66 38.75H197.842V37.5H200.615C201.24 37.5 201.742 37.392 202.121 37.1761C202.5 36.9602 202.774 36.6686 202.945 36.3011C203.119 35.9299 203.206 35.5114 203.206 35.0455C203.206 34.5795 203.119 34.1629 202.945 33.7955C202.774 33.428 202.498 33.1402 202.115 32.9318C201.732 32.7197 201.225 32.6136 200.592 32.6136H198.115V43H196.706ZM206.68 43V34.2727H208.021V43H206.68ZM207.362 32.8182C207.101 32.8182 206.875 32.7292 206.686 32.5511C206.5 32.3731 206.408 32.1591 206.408 31.9091C206.408 31.6591 206.5 31.4451 206.686 31.267C206.875 31.089 207.101 31 207.362 31C207.624 31 207.847 31.089 208.033 31.267C208.222 31.4451 208.317 31.6591 208.317 31.9091C208.317 32.1591 208.222 32.3731 208.033 32.5511C207.847 32.7292 207.624 32.8182 207.362 32.8182ZM214.023 43.1818C213.205 43.1818 212.5 42.9886 211.909 42.6023C211.318 42.2159 210.864 41.6837 210.545 41.0057C210.227 40.3277 210.068 39.553 210.068 38.6818C210.068 37.7955 210.231 37.0133 210.557 36.3352C210.886 35.6534 211.345 35.1212 211.932 34.7386C212.523 34.3523 213.212 34.1591 214 34.1591C214.614 34.1591 215.167 34.2727 215.659 34.5C216.152 34.7273 216.555 35.0455 216.869 35.4545C217.184 35.8636 217.379 36.3409 217.455 36.8864H216.114C216.011 36.4886 215.784 36.1364 215.432 35.8295C215.083 35.5189 214.614 35.3636 214.023 35.3636C213.5 35.3636 213.042 35.5 212.648 35.7727C212.258 36.0417 211.953 36.4223 211.733 36.9148C211.517 37.4034 211.409 37.9773 211.409 38.6364C211.409 39.3106 211.515 39.8977 211.727 40.3977C211.943 40.8977 212.246 41.286 212.636 41.5625C213.03 41.839 213.492 41.9773 214.023 41.9773C214.371 41.9773 214.687 41.9167 214.972 41.7955C215.256 41.6742 215.496 41.5 215.693 41.2727C215.89 41.0455 216.03 40.7727 216.114 40.4545H217.455C217.379 40.9697 217.191 41.4337 216.892 41.8466C216.597 42.2557 216.205 42.5814 215.716 42.8239C215.231 43.0625 214.667 43.1818 214.023 43.1818ZM220.665 39.8182L220.642 38.1591H220.915L224.733 34.2727H226.392L222.324 38.3864H222.21L220.665 39.8182ZM219.415 43V31.3636H220.756V43H219.415ZM224.96 43L221.551 38.6818L222.506 37.75L226.665 43H224.96ZM30.0227 52.2727V53.4091H25.5V52.2727H30.0227ZM26.8182 50.1818H28.1591V58.5C28.1591 58.8788 28.214 59.1629 28.3238 59.3523C28.4375 59.5379 28.5814 59.6629 28.7557 59.7273C28.9337 59.7879 29.1212 59.8182 29.3182 59.8182C29.4659 59.8182 29.5871 59.8106 29.6818 59.7955C29.7765 59.7765 29.8523 59.7614 29.9091 59.75L30.1818 60.9545C30.0909 60.9886 29.964 61.0227 29.8011 61.0568C29.6382 61.0947 29.4318 61.1136 29.1818 61.1136C28.803 61.1136 28.4318 61.0322 28.0682 60.8693C27.7083 60.7064 27.4091 60.4583 27.1704 60.125C26.9356 59.7917 26.8182 59.3712 26.8182 58.8636V50.1818ZM33.5682 55.75V61H32.2273V49.3636H33.5682V53.6364H33.6818C33.8863 53.1856 34.1932 52.8277 34.6023 52.5625C35.0151 52.2936 35.5644 52.1591 36.25 52.1591C36.8447 52.1591 37.3655 52.2784 37.8125 52.517C38.2595 52.7519 38.606 53.1136 38.8523 53.6023C39.1023 54.0871 39.2273 54.7045 39.2273 55.4545V61H37.8863V55.5455C37.8863 54.8523 37.7064 54.3163 37.3466 53.9375C36.9905 53.5549 36.4962 53.3636 35.8636 53.3636C35.4242 53.3636 35.0303 53.4564 34.6818 53.642C34.3371 53.8277 34.0644 54.0985 33.8636 54.4545C33.6667 54.8106 33.5682 55.2424 33.5682 55.75ZM45.3395 61.1818C44.4986 61.1818 43.7732 60.9962 43.1633 60.625C42.5573 60.25 42.0895 59.7273 41.7599 59.0568C41.4342 58.3826 41.2713 57.5985 41.2713 56.7045C41.2713 55.8106 41.4342 55.0227 41.7599 54.3409C42.0895 53.6553 42.5478 53.1212 43.1349 52.7386C43.7258 52.3523 44.4152 52.1591 45.2031 52.1591C45.6577 52.1591 46.1065 52.2348 46.5497 52.3864C46.9929 52.5379 47.3963 52.7841 47.7599 53.125C48.1236 53.4621 48.4133 53.9091 48.6292 54.4659C48.8452 55.0227 48.9531 55.7083 48.9531 56.5227V57.0909H42.2258V55.9318H47.5895C47.5895 55.4394 47.491 55 47.294 54.6136C47.1008 54.2273 46.8243 53.9223 46.4645 53.6989C46.1084 53.4754 45.688 53.3636 45.2031 53.3636C44.669 53.3636 44.2069 53.4962 43.8167 53.7614C43.4304 54.0227 43.133 54.3636 42.9247 54.7841C42.7164 55.2045 42.6122 55.6553 42.6122 56.1364V56.9091C42.6122 57.5682 42.7258 58.1269 42.9531 58.5852C43.1842 59.0398 43.5042 59.3864 43.9133 59.625C44.3224 59.8598 44.7978 59.9773 45.3395 59.9773C45.6917 59.9773 46.0099 59.928 46.294 59.8295C46.5819 59.7273 46.83 59.5758 47.0383 59.375C47.2467 59.1705 47.4077 58.9167 47.5213 58.6136L48.8167 58.9773C48.6804 59.4167 48.4512 59.803 48.1292 60.1364C47.8073 60.4659 47.4095 60.7235 46.9361 60.9091C46.4626 61.0909 45.9304 61.1818 45.3395 61.1818ZM55.4929 61V52.2727H56.8338V61H55.4929ZM56.1747 50.8182C55.9133 50.8182 55.688 50.7292 55.4986 50.5511C55.313 50.3731 55.2202 50.1591 55.2202 49.9091C55.2202 49.6591 55.313 49.4451 55.4986 49.267C55.688 49.089 55.9133 49 56.1747 49C56.4361 49 56.6595 49.089 56.8452 49.267C57.0345 49.4451 57.1292 49.6591 57.1292 49.9091C57.1292 50.1591 57.0345 50.3731 56.8452 50.5511C56.6595 50.7292 56.4361 50.8182 56.1747 50.8182ZM63.0852 52.2727V53.4091H58.5625V52.2727H63.0852ZM59.8807 50.1818H61.2216V58.5C61.2216 58.8788 61.2765 59.1629 61.3863 59.3523C61.5 59.5379 61.6439 59.6629 61.8182 59.7273C61.9962 59.7879 62.1837 59.8182 62.3807 59.8182C62.5284 59.8182 62.6496 59.8106 62.7443 59.7955C62.839 59.7765 62.9148 59.7614 62.9716 59.75L63.2443 60.9545C63.1534 60.9886 63.0265 61.0227 62.8636 61.0568C62.7007 61.0947 62.4943 61.1136 62.2443 61.1136C61.8655 61.1136 61.4943 61.0322 61.1307 60.8693C60.7708 60.7064 60.4716 60.4583 60.2329 60.125C59.9981 59.7917 59.8807 59.3712 59.8807 58.8636V50.1818ZM68.6676 61.1818C67.8267 61.1818 67.1013 60.9962 66.4915 60.625C65.8854 60.25 65.4176 59.7273 65.0881 59.0568C64.7623 58.3826 64.5994 57.5985 64.5994 56.7045C64.5994 55.8106 64.7623 55.0227 65.0881 54.3409C65.4176 53.6553 65.8759 53.1212 66.4631 52.7386C67.054 52.3523 67.7434 52.1591 68.5312 52.1591C68.9858 52.1591 69.4346 52.2348 69.8778 52.3864C70.321 52.5379 70.7244 52.7841 71.0881 53.125C71.4517 53.4621 71.7415 53.9091 71.9574 54.4659C72.1733 55.0227 72.2812 55.7083 72.2812 56.5227V57.0909H65.554V55.9318H70.9176C70.9176 55.4394 70.8191 55 70.6221 54.6136C70.429 54.2273 70.1524 53.9223 69.7926 53.6989C69.4365 53.4754 69.0161 53.3636 68.5312 53.3636C67.9971 53.3636 67.535 53.4962 67.1449 53.7614C66.7585 54.0227 66.4612 54.3636 66.2528 54.7841C66.0445 55.2045 65.9403 55.6553 65.9403 56.1364V56.9091C65.9403 57.5682 66.054 58.1269 66.2812 58.5852C66.5123 59.0398 66.8324 59.3864 67.2415 59.625C67.6506 59.8598 68.1259 59.9773 68.6676 59.9773C69.0199 59.9773 69.3381 59.928 69.6221 59.8295C69.91 59.7273 70.1581 59.5758 70.3665 59.375C70.5748 59.1705 70.7358 58.9167 70.8494 58.6136L72.1449 58.9773C72.0085 59.4167 71.7793 59.803 71.4574 60.1364C71.1354 60.4659 70.7377 60.7235 70.2642 60.9091C69.7907 61.0909 69.2585 61.1818 68.6676 61.1818ZM74.321 61V52.2727H75.6165V53.6364H75.7301C75.9119 53.1705 76.2055 52.8087 76.6108 52.5511C77.0161 52.2898 77.5028 52.1591 78.071 52.1591C78.6468 52.1591 79.1259 52.2898 79.5085 52.5511C79.8949 52.8087 80.196 53.1705 80.4119 53.6364H80.5028C80.7263 53.1856 81.0615 52.8277 81.5085 52.5625C81.9555 52.2936 82.4915 52.1591 83.1165 52.1591C83.8968 52.1591 84.535 52.4034 85.0312 52.892C85.5274 53.3769 85.7756 54.1326 85.7756 55.1591V61H84.4346V55.1591C84.4346 54.5152 84.2585 54.0549 83.9062 53.7784C83.554 53.5019 83.1392 53.3636 82.6619 53.3636C82.0483 53.3636 81.5729 53.5492 81.2358 53.9205C80.8987 54.2879 80.7301 54.7538 80.7301 55.3182V61H79.3665V55.0227C79.3665 54.5265 79.2055 54.1269 78.8835 53.8239C78.5615 53.517 78.1468 53.3636 77.6392 53.3636C77.2907 53.3636 76.9649 53.4564 76.6619 53.642C76.3627 53.8277 76.1202 54.0852 75.9346 54.4148C75.7528 54.7405 75.6619 55.1174 75.6619 55.5455V61H74.321ZM96.5227 52.2727V53.4091H92V52.2727H96.5227ZM93.3182 50.1818H94.6591V58.5C94.6591 58.8788 94.714 59.1629 94.8238 59.3523C94.9375 59.5379 95.0814 59.6629 95.2557 59.7273C95.4337 59.7879 95.6212 59.8182 95.8182 59.8182C95.9659 59.8182 96.0871 59.8106 96.1818 59.7955C96.2765 59.7765 96.3523 59.7614 96.4091 59.75L96.6818 60.9545C96.5909 60.9886 96.464 61.0227 96.3011 61.0568C96.1382 61.0947 95.9318 61.1136 95.6818 61.1136C95.303 61.1136 94.9318 61.0322 94.5682 60.8693C94.2083 60.7064 93.9091 60.4583 93.6704 60.125C93.4356 59.7917 93.3182 59.3712 93.3182 58.8636V50.1818ZM101.991 61.1818C101.204 61.1818 100.512 60.9943 99.9176 60.6193C99.3267 60.2443 98.8646 59.7197 98.5312 59.0455C98.2017 58.3712 98.0369 57.5833 98.0369 56.6818C98.0369 55.7727 98.2017 54.9792 98.5312 54.3011C98.8646 53.6231 99.3267 53.0966 99.9176 52.7216C100.512 52.3466 101.204 52.1591 101.991 52.1591C102.779 52.1591 103.469 52.3466 104.06 52.7216C104.654 53.0966 105.116 53.6231 105.446 54.3011C105.779 54.9792 105.946 55.7727 105.946 56.6818C105.946 57.5833 105.779 58.3712 105.446 59.0455C105.116 59.7197 104.654 60.2443 104.06 60.6193C103.469 60.9943 102.779 61.1818 101.991 61.1818ZM101.991 59.9773C102.59 59.9773 103.082 59.8239 103.469 59.517C103.855 59.2102 104.141 58.8068 104.327 58.3068C104.512 57.8068 104.605 57.2652 104.605 56.6818C104.605 56.0985 104.512 55.5549 104.327 55.0511C104.141 54.5473 103.855 54.1402 103.469 53.8295C103.082 53.5189 102.59 53.3636 101.991 53.3636C101.393 53.3636 100.901 53.5189 100.514 53.8295C100.128 54.1402 99.8418 54.5473 99.6562 55.0511C99.4706 55.5549 99.3778 56.0985 99.3778 56.6818C99.3778 57.2652 99.4706 57.8068 99.6562 58.3068C99.8418 58.8068 100.128 59.2102 100.514 59.517C100.901 59.8239 101.393 59.9773 101.991 59.9773ZM112.675 61V49.3636H114.016V53.6591H114.129C114.228 53.5076 114.364 53.3144 114.538 53.0795C114.716 52.8409 114.97 52.6288 115.3 52.4432C115.633 52.2538 116.084 52.1591 116.652 52.1591C117.387 52.1591 118.035 52.3428 118.595 52.7102C119.156 53.0777 119.593 53.5985 119.908 54.2727C120.222 54.947 120.379 55.7424 120.379 56.6591C120.379 57.5833 120.222 58.3845 119.908 59.0625C119.593 59.7367 119.158 60.2595 118.601 60.6307C118.044 60.9981 117.402 61.1818 116.675 61.1818C116.114 61.1818 115.665 61.089 115.328 60.9034C114.991 60.714 114.732 60.5 114.55 60.2614C114.368 60.0189 114.228 59.8182 114.129 59.6591H113.97V61H112.675ZM113.993 56.6364C113.993 57.2955 114.089 57.8769 114.283 58.3807C114.476 58.8807 114.758 59.2727 115.129 59.5568C115.5 59.8371 115.955 59.9773 116.493 59.9773C117.053 59.9773 117.521 59.8295 117.896 59.5341C118.275 59.2348 118.559 58.8333 118.749 58.3295C118.942 57.822 119.038 57.2576 119.038 56.6364C119.038 56.0227 118.944 55.4697 118.754 54.9773C118.569 54.4811 118.286 54.089 117.908 53.8011C117.533 53.5095 117.061 53.3636 116.493 53.3636C115.947 53.3636 115.489 53.5019 115.118 53.7784C114.747 54.0511 114.466 54.4337 114.277 54.9261C114.088 55.4148 113.993 55.9848 113.993 56.6364ZM127.93 57.4318V52.2727H129.271V61H127.93V59.5227H127.839C127.635 59.9659 127.317 60.3428 126.885 60.6534C126.453 60.9602 125.908 61.1136 125.249 61.1136C124.703 61.1136 124.218 60.9943 123.794 60.7557C123.37 60.5133 123.036 60.1496 122.794 59.6648C122.552 59.1761 122.43 58.5606 122.43 57.8182V52.2727H123.771V57.7273C123.771 58.3636 123.949 58.8712 124.305 59.25C124.665 59.6288 125.124 59.8182 125.68 59.8182C126.014 59.8182 126.353 59.733 126.697 59.5625C127.046 59.392 127.338 59.1307 127.572 58.7784C127.811 58.4261 127.93 57.9773 127.93 57.4318ZM132.591 64.2727C132.364 64.2727 132.161 64.2538 131.983 64.2159C131.805 64.1818 131.682 64.1477 131.614 64.1136L131.955 62.9318C132.28 63.0152 132.568 63.0455 132.818 63.0227C133.068 63 133.29 62.8883 133.483 62.6875C133.68 62.4905 133.86 62.1705 134.023 61.7273L134.273 61.0455L131.045 52.2727H132.5L134.909 59.2273H135L137.409 52.2727H138.864L135.159 62.2727C134.992 62.7235 134.786 63.0966 134.54 63.392C134.294 63.6913 134.008 63.9129 133.682 64.0568C133.36 64.2008 132.996 64.2727 132.591 64.2727ZM142.406 49.3636L142.293 57.7273H140.974L140.861 49.3636H142.406ZM141.634 61.0909C141.353 61.0909 141.113 60.9905 140.912 60.7898C140.711 60.589 140.611 60.3485 140.611 60.0682C140.611 59.7879 140.711 59.5473 140.912 59.3466C141.113 59.1458 141.353 59.0455 141.634 59.0455C141.914 59.0455 142.154 59.1458 142.355 59.3466C142.556 59.5473 142.656 59.7879 142.656 60.0682C142.656 60.2538 142.609 60.4242 142.514 60.5795C142.423 60.7348 142.3 60.8598 142.145 60.9545C141.993 61.0455 141.823 61.0909 141.634 61.0909Z" fill="#1B161B"/>
<path fill-rule="evenodd" clip-rule="evenodd" d="M140.788 4.86255C145.014 5.05575 149.214 5.23075 153.388 5.38755C152.863 5.38755 152.338 5.38755 151.813 5.38755C149.945 5.38755 148.08 5.38755 146.213 5.38755C145.254 5.21447 144.263 5.1562 143.238 5.21255C142.42 5.09582 141.605 4.97927 140.788 4.86255Z" fill="#666666"/>
<path fill-rule="evenodd" clip-rule="evenodd" d="M122.762 5.03752C128.159 4.9796 133.525 5.03787 138.862 5.21252C131.862 5.1833 124.862 5.21252 117.862 5.30002C113.667 5.58685 109.467 5.79107 105.262 5.91252C105.962 5.7958 106.662 5.67925 107.362 5.56252C107.518 5.45577 107.693 5.3975 107.887 5.38752C112.847 5.31997 117.805 5.20325 122.762 5.03752Z" fill="#E7E7E7"/>
<path fill-rule="evenodd" clip-rule="evenodd" d="M146.212 5.38745C148.08 5.38745 149.945 5.38745 151.812 5.38745C154.345 5.6629 156.912 5.77963 159.512 5.73745C159.512 5.79573 159.512 5.85418 159.512 5.91245C155.661 5.9191 151.811 5.8316 147.962 5.64995C147.345 5.61863 146.762 5.53113 146.212 5.38745Z" fill="#E3E3E3"/>
<path fill-rule="evenodd" clip-rule="evenodd" d="M151.812 5.38745C152.337 5.38745 152.862 5.38745 153.387 5.38745C155.458 5.46428 157.5 5.581 159.512 5.73745C156.912 5.77963 154.345 5.6629 151.812 5.38745Z" fill="#888888"/>
<path fill-rule="evenodd" clip-rule="evenodd" d="M103.512 5.56249C102.871 5.67921 102.229 5.79576 101.587 5.91249C101.179 5.91249 100.771 5.91249 100.362 5.91249C99.3708 5.91249 98.3792 5.91249 97.3875 5.91249C99.3937 5.64176 101.435 5.52504 103.512 5.56249Z" fill="#737373"/>
<path fill-rule="evenodd" clip-rule="evenodd" d="M103.512 5.5625C104.796 5.5625 106.079 5.5625 107.362 5.5625C106.662 5.67922 105.962 5.79577 105.262 5.9125C104.037 5.9125 102.812 5.9125 101.587 5.9125C102.229 5.79577 102.871 5.67922 103.512 5.5625Z" fill="#C2C2C2"/>
<path fill-rule="evenodd" clip-rule="evenodd" d="M96.8625 5.91249C93.8007 6.08854 90.7091 6.20526 87.5875 6.26249C90.6446 5.96359 93.7363 5.84686 96.8625 5.91249Z" fill="#676767"/>
<path fill-rule="evenodd" clip-rule="evenodd" d="M162.488 5.73751C163.485 5.71563 164.477 5.77391 165.463 5.91251C165.463 5.97078 165.463 6.02923 165.463 6.08751C164.435 6.07071 163.443 5.95398 162.488 5.73751Z" fill="#646464"/>
<path fill-rule="evenodd" clip-rule="evenodd" d="M96.8625 5.91248C97.0375 5.91248 97.2125 5.91248 97.3875 5.91248C98.3792 5.91248 99.3708 5.91248 100.362 5.91248C95.9066 6.30465 91.4151 6.47965 86.8875 6.43748C87.0744 6.27403 87.3077 6.21558 87.5875 6.26248C90.7091 6.20525 93.8007 6.08853 96.8625 5.91248Z" fill="#D2D2D2"/>
<path fill-rule="evenodd" clip-rule="evenodd" d="M159.512 5.91255C159.512 5.85427 159.512 5.79582 159.512 5.73755C160.505 5.73755 161.495 5.73755 162.487 5.73755C163.443 5.95402 164.435 6.07075 165.462 6.08755C166.281 6.11712 167.099 6.1754 167.912 6.26255C168.495 6.37927 169.08 6.49582 169.662 6.61255C166.267 6.40115 162.885 6.16787 159.512 5.91255Z" fill="#C2C2C2"/>
<path fill-rule="evenodd" clip-rule="evenodd" d="M165.462 6.08748C165.462 6.0292 165.462 5.97075 165.462 5.91248C166.78 5.93453 168.063 6.05125 169.312 6.26248C168.845 6.26248 168.38 6.26248 167.912 6.26248C167.099 6.17533 166.281 6.11705 165.462 6.08748Z" fill="#4E4E4E"/>
<path fill-rule="evenodd" clip-rule="evenodd" d="M167.913 6.26245C168.38 6.26245 168.845 6.26245 169.313 6.26245C169.932 6.30673 170.515 6.42328 171.063 6.61245C170.83 6.61245 170.595 6.61245 170.363 6.61245C170.13 6.61245 169.895 6.61245 169.663 6.61245C169.08 6.49573 168.495 6.37918 167.913 6.26245Z" fill="#939393"/>
<path fill-rule="evenodd" clip-rule="evenodd" d="M171.238 6.61245C172.275 6.54735 173.268 6.66408 174.213 6.96245C173.185 6.94565 172.193 6.82893 171.238 6.61245Z" fill="#818181"/>
<path fill-rule="evenodd" clip-rule="evenodd" d="M170.363 6.61255C170.595 6.61255 170.83 6.61255 171.063 6.61255C171.12 6.61255 171.18 6.61255 171.238 6.61255C172.193 6.82902 173.185 6.94575 174.213 6.96255C174.505 6.96255 174.795 6.96255 175.088 6.96255C176.327 7.29767 177.609 7.47267 178.938 7.48755C179.513 7.62002 180.096 7.73675 180.688 7.83755C181.997 8.02725 183.339 8.14397 184.713 8.18755C184.713 8.24582 184.713 8.30427 184.713 8.36255C184.48 8.36255 184.245 8.36255 184.013 8.36255C181.319 8.1543 178.637 7.8918 175.963 7.57505C174.234 7.2352 172.484 7.00192 170.713 6.87505C170.552 6.8264 170.436 6.7389 170.363 6.61255Z" fill="#CFCFCF"/>
<path fill-rule="evenodd" clip-rule="evenodd" d="M81.6375 6.78748C79.4745 7.306 77.2578 7.59755 74.9875 7.66248C77.1694 7.28815 79.386 6.99643 81.6375 6.78748Z" fill="#6D6D6D"/>
<path fill-rule="evenodd" clip-rule="evenodd" d="M175.087 6.96252C176.41 7.02552 177.693 7.20052 178.937 7.48752C177.609 7.47265 176.326 7.29765 175.087 6.96252Z" fill="#515151"/>
<path fill-rule="evenodd" clip-rule="evenodd" d="M86.3625 6.4375C85.6214 6.7623 84.8046 6.96653 83.9125 7.05C81.4413 7.1613 78.9913 7.45302 76.5625 7.925C75.5141 8.01232 74.4641 8.04155 73.4125 8.0125C73.9375 7.89577 74.4625 7.77922 74.9875 7.6625C77.2578 7.59757 79.4745 7.30602 81.6375 6.7875C83.2146 6.6965 84.7896 6.57995 86.3625 6.4375Z" fill="#D2D2D2"/>
<path fill-rule="evenodd" clip-rule="evenodd" d="M180.688 7.83746C182.07 7.78514 183.411 7.90186 184.713 8.18746C183.339 8.14389 181.997 8.02716 180.688 7.83746Z" fill="#5B5B5B"/>
<path fill-rule="evenodd" clip-rule="evenodd" d="M72.0125 8.01254C71.3008 8.28449 70.5425 8.40104 69.7375 8.36254C70.4492 8.09059 71.2075 7.97404 72.0125 8.01254Z" fill="#727272"/>
<path fill-rule="evenodd" clip-rule="evenodd" d="M72.0125 8.01245C72.4792 8.01245 72.9458 8.01245 73.4125 8.01245C72.0069 8.42668 70.5486 8.60168 69.0375 8.53745C69.2244 8.374 69.4577 8.31555 69.7375 8.36245C70.5425 8.40095 71.3008 8.2844 72.0125 8.01245Z" fill="#C5C5C5"/>
<path fill-rule="evenodd" clip-rule="evenodd" d="M184.012 8.36255C184.245 8.36255 184.48 8.36255 184.712 8.36255C184.83 8.36255 184.945 8.36255 185.062 8.36255C185.897 8.60562 186.772 8.72235 187.687 8.71255C187.805 8.71255 187.92 8.71255 188.037 8.71255C189.052 8.9194 190.102 9.03595 191.187 9.06255C191.882 9.1784 192.582 9.23667 193.287 9.23755C193.345 9.23755 193.405 9.23755 193.462 9.23755C193.462 9.29582 193.462 9.35427 193.462 9.41255C190.421 9.25435 187.388 8.99185 184.362 8.62505C184.201 8.5764 184.086 8.4889 184.012 8.36255Z" fill="#E6E6E6"/>
<path fill-rule="evenodd" clip-rule="evenodd" d="M185.062 8.36255C185.53 8.36255 185.995 8.36255 186.462 8.36255C186.87 8.47927 187.28 8.59582 187.688 8.71255C186.772 8.72235 185.897 8.60562 185.062 8.36255Z" fill="#A3A3A3"/>
<path fill-rule="evenodd" clip-rule="evenodd" d="M186.462 8.36252C187.381 8.32787 188.256 8.44459 189.087 8.71252C188.737 8.71252 188.387 8.71252 188.037 8.71252C187.92 8.71252 187.805 8.71252 187.687 8.71252C187.28 8.59579 186.87 8.47924 186.462 8.36252Z" fill="#4E4E4E"/>
<path fill-rule="evenodd" clip-rule="evenodd" d="M67.6375 8.53748C66.8208 8.71248 66.0042 8.88748 65.1875 9.06248C64.7208 9.06248 64.2542 9.06248 63.7875 9.06248C65.0302 8.76008 66.3134 8.58508 67.6375 8.53748Z" fill="#5F5F5F"/>
<path fill-rule="evenodd" clip-rule="evenodd" d="M67.6375 8.53748C68.1042 8.53748 68.5708 8.53748 69.0375 8.53748C67.7948 8.83988 66.5115 9.01488 65.1875 9.06248C66.0042 8.88748 66.8208 8.71248 67.6375 8.53748Z" fill="#BEBEBE"/>
<path fill-rule="evenodd" clip-rule="evenodd" d="M188.038 8.71252C188.388 8.71252 188.738 8.71252 189.088 8.71252C189.438 8.71252 189.788 8.71252 190.138 8.71252C190.488 8.82925 190.838 8.9458 191.188 9.06252C190.103 9.03592 189.053 8.91937 188.038 8.71252Z" fill="#A2A2A2"/>
<path fill-rule="evenodd" clip-rule="evenodd" d="M190.137 8.71252C191.24 8.71812 192.29 8.89312 193.287 9.23752C192.582 9.23665 191.882 9.17837 191.187 9.06252C190.837 8.9458 190.487 8.82925 190.137 8.71252Z" fill="#595959"/>
<path fill-rule="evenodd" clip-rule="evenodd" d="M63.7875 9.06254C63.2548 9.32696 62.6714 9.44369 62.0375 9.41254C61.9208 9.41254 61.8042 9.41254 61.6875 9.41254C62.3367 9.12624 63.0367 9.00969 63.7875 9.06254Z" fill="#7A7A7A"/>
<path fill-rule="evenodd" clip-rule="evenodd" d="M193.462 9.41246C193.462 9.35419 193.462 9.29574 193.462 9.23746C194.213 9.18461 194.913 9.30116 195.562 9.58746C194.857 9.58659 194.157 9.52831 193.462 9.41246Z" fill="#8D8D8D"/>
<path fill-rule="evenodd" clip-rule="evenodd" d="M61.6875 9.41248C61.8042 9.41248 61.9208 9.41248 62.0375 9.41248C60.9156 9.73518 59.7488 9.91018 58.5375 9.93748C59.5469 9.65258 60.5969 9.47758 61.6875 9.41248Z" fill="#A5A5A5"/>
<path fill-rule="evenodd" clip-rule="evenodd" d="M196.262 9.58748C197.178 9.57768 198.053 9.69441 198.887 9.93748C197.972 9.94728 197.097 9.83056 196.262 9.58748Z" fill="#777777"/>
<path fill-rule="evenodd" clip-rule="evenodd" d="M199.062 9.93747C199.868 9.89897 200.625 10.0155 201.338 10.2875C200.533 10.326 199.775 10.2094 199.062 9.93747Z" fill="#6C6C6C"/>
<path fill-rule="evenodd" clip-rule="evenodd" d="M58.5375 9.93746C57.5822 10.1914 56.5905 10.3664 55.5625 10.4625C56.4952 10.0832 57.487 9.90824 58.5375 9.93746Z" fill="#707070"/>
<path fill-rule="evenodd" clip-rule="evenodd" d="M202.387 10.4625C202.62 10.4625 202.855 10.4625 203.087 10.4625C203.262 10.5792 203.437 10.6958 203.612 10.8125C203.149 10.8283 202.739 10.7117 202.387 10.4625Z" fill="#ACACAC"/>
<path fill-rule="evenodd" clip-rule="evenodd" d="M203.087 10.4625C204.011 10.5106 204.886 10.6856 205.712 10.9875C205.245 10.9292 204.78 10.8708 204.312 10.8125C204.08 10.8125 203.845 10.8125 203.612 10.8125C203.437 10.6958 203.262 10.5792 203.087 10.4625Z" fill="#515151"/>
<path fill-rule="evenodd" clip-rule="evenodd" d="M204.312 10.8125C204.78 10.8708 205.245 10.9292 205.712 10.9875C206.409 11.1266 207.109 11.2433 207.812 11.3375C208.164 11.5867 208.574 11.7032 209.037 11.6875C209.867 11.7664 210.682 11.8831 211.487 12.0375C211.78 12.1542 212.07 12.2708 212.363 12.3875C211.776 12.4164 211.194 12.3871 210.612 12.3C209.093 11.9847 207.578 11.6929 206.062 11.425C205.431 11.3023 204.848 11.0981 204.312 10.8125Z" fill="#C0C0C0"/>
<path fill-rule="evenodd" clip-rule="evenodd" d="M207.812 11.3375C208.276 11.3217 208.686 11.4383 209.038 11.6875C208.574 11.7032 208.164 11.5867 207.812 11.3375Z" fill="#6B6B6B"/>
<path fill-rule="evenodd" clip-rule="evenodd" d="M51.3625 11.5125C50.8951 11.7956 50.3701 11.9123 49.7875 11.8625C50.2728 11.66 50.7978 11.5433 51.3625 11.5125Z" fill="#646464"/>
<path fill-rule="evenodd" clip-rule="evenodd" d="M49.7875 11.8625C49.5072 12.138 49.1572 12.2547 48.7375 12.2125C49.0179 11.9371 49.3679 11.8203 49.7875 11.8625Z" fill="#757575"/>
<path fill-rule="evenodd" clip-rule="evenodd" d="M211.487 12.0375C212.347 12.0134 213.164 12.1299 213.937 12.3875C213.47 12.3875 213.005 12.3875 212.537 12.3875C212.48 12.3875 212.42 12.3875 212.362 12.3875C212.07 12.2708 211.78 12.1543 211.487 12.0375Z" fill="#4E4E4E"/>
<path fill-rule="evenodd" clip-rule="evenodd" d="M214.638 12.5626C215.497 12.5384 216.314 12.655 217.088 12.9126C216.225 12.96 215.408 12.8433 214.638 12.5626Z" fill="#4E4E4E"/>
<path fill-rule="evenodd" clip-rule="evenodd" d="M48.7375 12.2125C47.8018 12.6367 46.8102 12.9284 45.7625 13.0875C46.69 12.6437 47.6817 12.352 48.7375 12.2125Z" fill="#8A8A8A"/>
<path fill-rule="evenodd" clip-rule="evenodd" d="M212.538 12.3875C213.005 12.3875 213.47 12.3875 213.938 12.3875C214.125 12.5509 214.358 12.6094 214.638 12.5625C215.408 12.8432 216.225 12.9599 217.088 12.9125C217.336 13.0789 217.628 13.1372 217.963 13.0875C218.53 13.3263 219.112 13.5013 219.713 13.6125C218.026 13.4175 216.333 13.2133 214.638 13C213.887 12.9004 213.187 12.6962 212.538 12.3875Z" fill="#D7D7D7"/>
<path fill-rule="evenodd" clip-rule="evenodd" d="M217.962 13.0875C219.235 13.1932 220.46 13.4267 221.637 13.7875C221.058 13.6911 220.475 13.6328 219.887 13.6125C219.83 13.6125 219.77 13.6125 219.712 13.6125C219.112 13.5014 218.529 13.3264 217.962 13.0875Z" fill="#767676"/>
<path fill-rule="evenodd" clip-rule="evenodd" d="M219.888 13.6125C220.476 13.6328 221.058 13.6911 221.638 13.7875C221.988 13.7875 222.338 13.7875 222.688 13.7875C222.863 13.9043 223.038 14.0208 223.213 14.1375C222.164 14.0502 221.114 13.9627 220.063 13.875C219.965 13.808 219.907 13.7205 219.888 13.6125Z" fill="#CECECE"/>
<path fill-rule="evenodd" clip-rule="evenodd" d="M222.688 13.7875C223.151 13.7718 223.561 13.8883 223.913 14.1375C223.68 14.1375 223.445 14.1375 223.212 14.1375C223.037 14.0208 222.862 13.9043 222.688 13.7875Z" fill="#646464"/>
<path fill-rule="evenodd" clip-rule="evenodd" d="M45.7625 13.0875C44.293 13.6547 42.7765 14.1214 41.2125 14.4875C42.6556 13.8267 44.1723 13.3602 45.7625 13.0875Z" fill="#929292"/>
<path fill-rule="evenodd" clip-rule="evenodd" d="M224.612 14.1375C225.076 14.1218 225.486 14.2383 225.837 14.4875C225.374 14.5033 224.964 14.3867 224.612 14.1375Z" fill="#6B6B6B"/>
<path fill-rule="evenodd" clip-rule="evenodd" d="M41.2125 14.4875C40.7862 14.7274 40.3195 14.9024 39.8125 15.0125C40.183 14.6353 40.6497 14.4603 41.2125 14.4875Z" fill="#737373"/>
<path fill-rule="evenodd" clip-rule="evenodd" d="M223.913 14.1375C224.145 14.1375 224.38 14.1375 224.613 14.1375C224.964 14.3867 225.374 14.5032 225.838 14.4875C226.42 14.5457 227.005 14.6042 227.588 14.6625C227.939 14.9117 228.349 15.0282 228.813 15.0125C228.87 15.0125 228.93 15.0125 228.988 15.0125C228.988 15.0707 228.988 15.1292 228.988 15.1875C228.401 15.2163 227.819 15.1871 227.238 15.1C226.083 14.8765 224.975 14.5555 223.913 14.1375Z" fill="#C2C2C2"/>
<path fill-rule="evenodd" clip-rule="evenodd" d="M227.587 14.6625C228.065 14.6049 228.473 14.7214 228.812 15.0125C228.349 15.0282 227.939 14.9117 227.587 14.6625Z" fill="#565656"/>
<path fill-rule="evenodd" clip-rule="evenodd" d="M228.987 15.1875C228.987 15.1292 228.987 15.0708 228.987 15.0125C229.451 14.9968 229.861 15.1133 230.212 15.3625C229.799 15.3321 229.392 15.2738 228.987 15.1875Z" fill="#787878"/>
<path fill-rule="evenodd" clip-rule="evenodd" d="M39.8125 15.0125C38.9786 15.4274 38.1036 15.7774 37.1875 16.0625C37.9512 15.478 38.8262 15.128 39.8125 15.0125Z" fill="#7C7C7C"/>
<path fill-rule="evenodd" clip-rule="evenodd" d="M230.212 15.3625C230.445 15.3625 230.68 15.3625 230.912 15.3625C231.087 15.4793 231.262 15.5958 231.437 15.7125C230.974 15.7283 230.564 15.6117 230.212 15.3625Z" fill="#9A9A9A"/>
<path fill-rule="evenodd" clip-rule="evenodd" d="M230.913 15.3625C231.511 15.3674 232.036 15.5424 232.488 15.8875C232.43 15.8875 232.37 15.8875 232.313 15.8875C232.012 15.865 231.721 15.8067 231.438 15.7125C231.263 15.5958 231.088 15.4793 230.913 15.3625Z" fill="#474747"/>
<path fill-rule="evenodd" clip-rule="evenodd" d="M232.312 15.8875C232.37 15.8875 232.43 15.8875 232.487 15.8875C232.99 16.0859 233.515 16.2025 234.062 16.2375C234.12 16.3542 234.18 16.4707 234.237 16.5875C233.656 16.4424 233.074 16.2966 232.487 16.15C232.389 16.0829 232.332 15.9954 232.312 15.8875Z" fill="#BABABA"/>
<path fill-rule="evenodd" clip-rule="evenodd" d="M234.062 16.2375C235.361 16.5723 236.586 17.0389 237.737 17.6375C236.63 17.2875 235.52 16.9375 234.412 16.5875C234.355 16.5875 234.295 16.5875 234.237 16.5875C234.18 16.4708 234.12 16.3543 234.062 16.2375Z" fill="#5B5B5B"/>
<path fill-rule="evenodd" clip-rule="evenodd" d="M37.1875 16.0625C36.5195 16.538 35.7612 16.8297 34.9125 16.9375C35.5941 16.4765 36.3524 16.1848 37.1875 16.0625Z" fill="#8D8D8D"/>
<path fill-rule="evenodd" clip-rule="evenodd" d="M34.9125 16.9375C34.7097 17.2438 34.4179 17.4187 34.0375 17.4625C34.21 17.1286 34.5016 16.9536 34.9125 16.9375Z" fill="#7E7E7E"/>
<path fill-rule="evenodd" clip-rule="evenodd" d="M234.412 16.5875C235.52 16.9375 236.63 17.2875 237.737 17.6375C238.007 17.7777 238.299 17.836 238.612 17.8125C238.67 17.9292 238.73 18.0458 238.787 18.1625C237.396 17.8449 236.026 17.4364 234.675 16.9375C234.495 16.8787 234.407 16.762 234.412 16.5875Z" fill="#D3D3D3"/>
<path fill-rule="evenodd" clip-rule="evenodd" d="M238.612 17.8125C239.216 17.9145 239.741 18.1478 240.187 18.5125C239.78 18.3958 239.37 18.2792 238.962 18.1625C238.905 18.1625 238.845 18.1625 238.787 18.1625C238.73 18.0458 238.67 17.9292 238.612 17.8125Z" fill="#5C5C5C"/>
<path fill-rule="evenodd" clip-rule="evenodd" d="M238.962 18.1625C239.37 18.2792 239.78 18.3958 240.187 18.5125C240.588 18.5291 240.938 18.6458 241.237 18.8625C240.653 18.7942 240.07 18.7067 239.487 18.6C239.204 18.5587 239.029 18.4129 238.962 18.1625Z" fill="#BBBBBB"/>
<path fill-rule="evenodd" clip-rule="evenodd" d="M241.237 18.8625C241.745 18.9726 242.21 19.1476 242.637 19.3875C242.074 19.4147 241.608 19.2397 241.237 18.8625Z" fill="#939393"/>
<path fill-rule="evenodd" clip-rule="evenodd" d="M242.987 19.3875C243.938 19.6057 244.813 19.9557 245.612 20.4375C244.662 20.2192 243.787 19.8692 242.987 19.3875Z" fill="#636363"/>
<path fill-rule="evenodd" clip-rule="evenodd" d="M34.0375 17.4625C30.3826 19.3775 26.7076 21.2441 23.0125 23.0625C26.3322 21.0519 29.7738 19.2144 33.3375 17.55C33.5638 17.4643 33.7972 17.435 34.0375 17.4625Z" fill="#9D9D9D"/>
<path fill-rule="evenodd" clip-rule="evenodd" d="M245.788 20.4375C246.857 20.711 247.847 21.1193 248.763 21.6625C248.479 21.5683 248.189 21.5101 247.888 21.4875C247.139 21.2297 246.439 20.8797 245.788 20.4375Z" fill="#7E7E7E"/>
<path fill-rule="evenodd" clip-rule="evenodd" d="M249.462 21.8375C249.73 21.8247 249.905 21.9414 249.987 22.1875C249.72 22.2003 249.545 22.0835 249.462 21.8375Z" fill="#595959"/>
<path fill-rule="evenodd" clip-rule="evenodd" d="M247.888 21.4875C248.189 21.5101 248.479 21.5684 248.763 21.6625C248.995 21.7208 249.23 21.7793 249.463 21.8375C249.545 22.0836 249.72 22.2003 249.988 22.1875C250.105 22.3043 250.22 22.4208 250.338 22.5375C249.466 22.2869 248.651 21.9369 247.888 21.4875Z" fill="#CBCBCB"/>
<path fill-rule="evenodd" clip-rule="evenodd" d="M250.337 22.5375C250.995 22.7209 251.638 22.9542 252.262 23.2375C252.32 23.3542 252.38 23.4708 252.437 23.5875C251.667 23.3404 250.967 22.9904 250.337 22.5375Z" fill="#B6B6B6"/>
<path fill-rule="evenodd" clip-rule="evenodd" d="M23.0125 23.0625C22.8399 23.3964 22.5484 23.5714 22.1375 23.5875C22.3403 23.2812 22.632 23.1062 23.0125 23.0625Z" fill="#808080"/>
<path fill-rule="evenodd" clip-rule="evenodd" d="M252.263 23.2375C252.595 23.2792 252.83 23.4542 252.963 23.7625C252.768 23.7526 252.593 23.6943 252.438 23.5875C252.38 23.4708 252.32 23.3543 252.263 23.2375Z" fill="#4E4E4E"/>
<path fill-rule="evenodd" clip-rule="evenodd" d="M22.1375 23.5875C22.0041 23.8959 21.7707 24.0709 21.4375 24.1125C21.5708 23.8042 21.8043 23.6292 22.1375 23.5875Z" fill="#7B7B7B"/>
<path fill-rule="evenodd" clip-rule="evenodd" d="M253.312 23.9375C253.58 23.9247 253.755 24.0414 253.837 24.2875C253.57 24.3002 253.395 24.1835 253.312 23.9375Z" fill="#4C4C4C"/>
<path fill-rule="evenodd" clip-rule="evenodd" d="M21.4375 24.1125C21.3042 24.4209 21.0707 24.5959 20.7375 24.6375C20.8709 24.3292 21.1043 24.1542 21.4375 24.1125Z" fill="#868686"/>
<path fill-rule="evenodd" clip-rule="evenodd" d="M254.538 24.8125C254.931 24.914 255.224 25.1473 255.413 25.5125C255.019 25.411 254.727 25.1777 254.538 24.8125Z" fill="#3C3C3C"/>
<path fill-rule="evenodd" clip-rule="evenodd" d="M256.987 27.0875C257.582 27.5075 258.05 28.0325 258.387 28.6625C257.792 28.2425 257.325 27.7175 256.987 27.0875Z" fill="#747474"/>
<path fill-rule="evenodd" clip-rule="evenodd" d="M258.388 28.6625C259.739 29.8388 260.964 31.1221 262.063 32.5125C260.712 31.3361 259.487 30.0529 258.388 28.6625Z" fill="#808080"/>
<path fill-rule="evenodd" clip-rule="evenodd" d="M20.7375 24.6375C19.5401 25.8635 18.2569 27.001 16.8875 28.05C15.3827 29.4664 13.9827 30.9539 12.6875 32.5125C14.9114 29.4134 17.5949 26.7884 20.7375 24.6375Z" fill="#8C8C8C"/>
<path fill-rule="evenodd" clip-rule="evenodd" d="M12.6875 32.5125C12.6458 32.8457 12.4708 33.0791 12.1625 33.2125C12.2041 32.8793 12.3791 32.6458 12.6875 32.5125Z" fill="#898989"/>
<path fill-rule="evenodd" clip-rule="evenodd" d="M262.062 32.5125C262.89 33.1647 263.59 33.923 264.162 34.7875C263.335 34.1352 262.635 33.377 262.062 32.5125Z" fill="#949494"/>
<path fill-rule="evenodd" clip-rule="evenodd" d="M12.1625 33.2125C12.0229 33.6441 11.7896 33.9941 11.4625 34.2625C11.5229 33.7904 11.7562 33.4404 12.1625 33.2125Z" fill="#989898"/>
<path fill-rule="evenodd" clip-rule="evenodd" d="M11.4624 34.2625C11.4752 34.5297 11.3585 34.7047 11.1124 34.7875C11.0996 34.5202 11.2164 34.3452 11.4624 34.2625Z" fill="#777777"/>
<path fill-rule="evenodd" clip-rule="evenodd" d="M264.163 34.7875C264.815 35.2654 265.34 35.8487 265.738 36.5375C265.085 36.0596 264.56 35.4763 264.163 34.7875Z" fill="#979797"/>
<path fill-rule="evenodd" clip-rule="evenodd" d="M11.1124 34.7875C11.1124 34.9042 11.1124 35.0208 11.1124 35.1375C10.9957 35.1958 10.8791 35.2542 10.7624 35.3125C10.7496 35.0453 10.8664 34.8703 11.1124 34.7875Z" fill="#616161"/>
<path fill-rule="evenodd" clip-rule="evenodd" d="M265.737 36.5375C266.045 36.6708 266.22 36.9043 266.262 37.2375C265.954 37.1041 265.779 36.8707 265.737 36.5375Z" fill="#8B8B8B"/>
<path fill-rule="evenodd" clip-rule="evenodd" d="M266.263 37.2375C266.571 37.3709 266.746 37.6043 266.788 37.9375C266.48 37.8042 266.305 37.5707 266.263 37.2375Z" fill="#878787"/>
<path fill-rule="evenodd" clip-rule="evenodd" d="M266.787 37.9375C267.034 38.0203 267.15 38.1953 267.137 38.4625C266.891 38.3797 266.775 38.2047 266.787 37.9375Z" fill="#818181"/>
<path fill-rule="evenodd" clip-rule="evenodd" d="M267.138 38.4625C267.446 38.5959 267.621 38.8293 267.663 39.1625C267.355 39.0292 267.18 38.7957 267.138 38.4625Z" fill="#7D7D7D"/>
<path fill-rule="evenodd" clip-rule="evenodd" d="M11.1125 35.1375C10.0592 37.2443 9.00918 39.3443 7.9625 41.4375C8.66023 39.2841 9.5935 37.2424 10.7625 35.3125C10.8792 35.2542 10.9958 35.1957 11.1125 35.1375Z" fill="#9A9A9A"/>
<path fill-rule="evenodd" clip-rule="evenodd" d="M267.663 39.1625C267.909 39.2453 268.025 39.4203 268.013 39.6875C267.895 39.6292 267.78 39.5708 267.663 39.5125C267.663 39.3958 267.663 39.2792 267.663 39.1625Z" fill="#686868"/>
<path fill-rule="evenodd" clip-rule="evenodd" d="M267.663 39.5125C267.78 39.5707 267.895 39.6292 268.013 39.6875C268.567 40.4457 269.035 41.2625 269.413 42.1375C269.4 42.4047 269.516 42.5797 269.763 42.6625C269.967 42.8399 270.085 43.0732 270.113 43.3625C270.1 43.6297 270.216 43.8047 270.463 43.8875C270.667 44.0649 270.785 44.2982 270.813 44.5875C270.547 44.4695 270.312 44.2945 270.113 44.0625C269.376 42.5078 268.56 40.991 267.663 39.5125Z" fill="#ADADAD"/>
<path fill-rule="evenodd" clip-rule="evenodd" d="M269.412 42.1375C269.659 42.2202 269.775 42.3952 269.762 42.6625C269.516 42.5797 269.4 42.4047 269.412 42.1375Z" fill="#6D6D6D"/>
<path fill-rule="evenodd" clip-rule="evenodd" d="M7.7875 41.6125C7.63122 42.4905 7.3395 43.3071 6.9125 44.0625C7.01382 43.1634 7.30555 42.3467 7.7875 41.6125Z" fill="#7B7B7B"/>
<path fill-rule="evenodd" clip-rule="evenodd" d="M270.112 43.3625C270.359 43.4453 270.475 43.6203 270.462 43.8875C270.216 43.8048 270.1 43.6298 270.112 43.3625Z" fill="#6A6A6A"/>
<path fill-rule="evenodd" clip-rule="evenodd" d="M6.9125 44.0625C6.79105 45.0101 6.4995 45.8851 6.0375 46.6875C6.22807 45.7658 6.5198 44.8908 6.9125 44.0625Z" fill="#8C8C8C"/>
<path fill-rule="evenodd" clip-rule="evenodd" d="M270.812 44.5875C271.059 44.6703 271.175 44.8453 271.162 45.1125C270.916 45.0297 270.8 44.8547 270.812 44.5875Z" fill="#757575"/>
<path fill-rule="evenodd" clip-rule="evenodd" d="M271.163 45.1125C271.409 45.1953 271.525 45.3703 271.513 45.6375C271.395 45.5793 271.28 45.5208 271.163 45.4625C271.163 45.3458 271.163 45.2293 271.163 45.1125Z" fill="#676767"/>
<path fill-rule="evenodd" clip-rule="evenodd" d="M271.163 45.4625C271.28 45.5208 271.395 45.5792 271.513 45.6375C272.286 46.6585 272.928 47.7669 273.438 48.9625C272.51 47.9281 271.751 46.7614 271.163 45.4625Z" fill="#9E9E9E"/>
<path fill-rule="evenodd" clip-rule="evenodd" d="M5.86254 47.5625C5.87829 48.0266 5.76174 48.4349 5.51254 48.7875C5.49679 48.3234 5.61334 47.9151 5.86254 47.5625Z" fill="#797979"/>
<path fill-rule="evenodd" clip-rule="evenodd" d="M273.437 48.9625C273.684 49.0453 273.8 49.2203 273.787 49.4875C273.541 49.4047 273.425 49.2297 273.437 48.9625Z" fill="#616161"/>
<path fill-rule="evenodd" clip-rule="evenodd" d="M5.51254 48.7875C5.51254 49.0208 5.51254 49.2542 5.51254 49.4875C5.39581 49.6625 5.27926 49.8375 5.16254 50.0125C5.14679 49.5484 5.26334 49.1401 5.51254 48.7875Z" fill="#535353"/>
<path fill-rule="evenodd" clip-rule="evenodd" d="M273.788 49.4875C274.216 50.0545 274.509 50.6963 274.663 51.4125C274.138 50.8881 273.847 50.2463 273.788 49.4875Z" fill="#7C7C7C"/>
<path fill-rule="evenodd" clip-rule="evenodd" d="M5.5125 49.4875C5.3655 50.2724 5.1905 51.0309 4.9875 51.7625C4.9875 51.5293 4.9875 51.2958 4.9875 51.0625C4.99048 50.7012 5.04875 50.3512 5.1625 50.0125C5.27923 49.8375 5.39578 49.6625 5.5125 49.4875Z" fill="#999999"/>
<path fill-rule="evenodd" clip-rule="evenodd" d="M274.838 52.1125C275.331 52.8353 275.623 53.652 275.713 54.5625C275.48 54.0375 275.245 53.5125 275.013 52.9875C274.873 52.7177 274.815 52.4261 274.838 52.1125Z" fill="#737373"/>
<path fill-rule="evenodd" clip-rule="evenodd" d="M4.98749 51.0625C4.98749 51.2958 4.98749 51.5292 4.98749 51.7625C4.95669 52.3272 4.83997 52.8522 4.63749 53.3375C4.59899 52.5325 4.71554 51.7742 4.98749 51.0625Z" fill="#626262"/>
<path fill-rule="evenodd" clip-rule="evenodd" d="M275.013 52.9875C275.245 53.5125 275.48 54.0375 275.713 54.5625C275.713 54.6208 275.713 54.6793 275.713 54.7375C275.713 54.9125 275.713 55.0875 275.713 55.2625C275.343 54.5622 275.111 53.8039 275.013 52.9875Z" fill="#D0D0D0"/>
<path fill-rule="evenodd" clip-rule="evenodd" d="M275.712 54.7375C275.987 55.0179 276.104 55.3679 276.062 55.7875C276.005 55.7875 275.945 55.7875 275.887 55.7875C275.877 55.5935 275.819 55.4185 275.712 55.2625C275.712 55.0875 275.712 54.9125 275.712 54.7375Z" fill="#5D5D5D"/>
<path fill-rule="evenodd" clip-rule="evenodd" d="M4.6375 53.3375C4.6662 54.5104 4.60792 55.6771 4.4625 56.8375C4.40422 56.8375 4.34577 56.8375 4.2875 56.8375C4.32862 55.6381 4.44535 54.4713 4.6375 53.3375Z" fill="#595959"/>
<path fill-rule="evenodd" clip-rule="evenodd" d="M276.063 56.1375C276.311 56.4901 276.428 56.8984 276.413 57.3625C276.164 57.0098 276.047 56.6016 276.063 56.1375Z" fill="#4A4A4A"/>
<path fill-rule="evenodd" clip-rule="evenodd" d="M275.887 55.7875C275.945 55.7875 276.005 55.7875 276.062 55.7875C276.062 55.9042 276.062 56.0208 276.062 56.1375C276.047 56.6016 276.164 57.0099 276.412 57.3625C276.556 57.9337 276.615 58.5171 276.587 59.1125C276.327 58.5096 276.124 57.8679 275.975 57.1875C275.887 56.7244 275.859 56.2577 275.887 55.7875Z" fill="#A2A2A2"/>
<path fill-rule="evenodd" clip-rule="evenodd" d="M276.588 59.4625C276.826 60.4793 277.001 61.5293 277.113 62.6125C276.745 61.6185 276.57 60.5685 276.588 59.4625Z" fill="#8C8C8C"/>
<path fill-rule="evenodd" clip-rule="evenodd" d="M277.112 62.9625C277.301 63.5097 277.419 64.093 277.462 64.7125C277.336 64.6394 277.249 64.5228 277.2 64.3625C277.112 63.8995 277.084 63.4327 277.112 62.9625Z" fill="#9F9F9F"/>
<path fill-rule="evenodd" clip-rule="evenodd" d="M277.638 65.9375C277.886 66.2901 278.003 66.6987 277.988 67.1625C277.87 66.9875 277.755 66.8125 277.638 66.6375C277.638 66.4042 277.638 66.1708 277.638 65.9375Z" fill="#6F6F6F"/>
<path fill-rule="evenodd" clip-rule="evenodd" d="M277.638 66.6375C277.755 66.8125 277.87 66.9875 277.988 67.1625C278.128 67.432 278.185 67.7242 278.163 68.0375C277.786 67.6665 277.611 67.201 277.638 66.6375Z" fill="#A2A2A2"/>
<path fill-rule="evenodd" clip-rule="evenodd" d="M4.28743 56.8375C4.3457 56.8375 4.40415 56.8375 4.46243 56.8375C4.37423 62.2114 4.49095 67.5773 4.81243 72.9375C4.81243 73.1125 4.81243 73.2875 4.81243 73.4625C4.6957 72.9953 4.57915 72.5298 4.46243 72.0625C4.08723 66.991 4.02895 61.9165 4.28743 56.8375Z" fill="#999999"/>
<path fill-rule="evenodd" clip-rule="evenodd" d="M4.4625 72.0625C4.57923 72.5298 4.69578 72.9952 4.8125 73.4625C4.914 74.2167 4.97245 74.9745 4.9875 75.7375C4.92923 75.7375 4.87078 75.7375 4.8125 75.7375C4.61913 74.5213 4.5024 73.2962 4.4625 72.0625Z" fill="#4F4F4F"/>
<path fill-rule="evenodd" clip-rule="evenodd" d="M278.163 69.6125C278.401 70.1515 278.546 70.7343 278.6 71.3625C278.833 75.734 278.92 80.109 278.863 84.4875C278.805 84.4875 278.745 84.4875 278.688 84.4875C278.801 79.514 278.626 74.5545 278.163 69.6125Z" fill="#CCCCCC"/>
<path fill-rule="evenodd" clip-rule="evenodd" d="M4.8125 72.9375C5.06065 73.83 5.20642 74.7645 5.25 75.7375C5.30827 81.1047 5.36672 86.4703 5.425 91.8375C5.77167 94.0985 5.91762 96.3735 5.8625 98.6625C5.74577 98.4298 5.62922 98.1952 5.5125 97.9625C5.54312 96.118 5.42658 94.3102 5.1625 92.5375C5.1625 92.3048 5.1625 92.0702 5.1625 91.8375C4.9987 86.4738 4.94025 81.1065 4.9875 75.7375C4.97245 74.9745 4.914 74.2168 4.8125 73.4625C4.8125 73.2875 4.8125 73.1125 4.8125 72.9375Z" fill="#CCCCCC"/>
<path fill-rule="evenodd" clip-rule="evenodd" d="M4.81252 75.7375C4.8708 75.7375 4.92925 75.7375 4.98752 75.7375C4.94027 81.1065 4.99872 86.4738 5.16252 91.8375C5.02007 91.4648 4.93257 91.057 4.90002 90.6125C4.81252 85.6548 4.7833 80.697 4.81252 75.7375Z" fill="#3E3E3E"/>
<path fill-rule="evenodd" clip-rule="evenodd" d="M278.163 68.2125C278.642 69.9048 278.905 71.6548 278.95 73.4625C279.095 77.75 279.066 82.0095 278.863 86.2375C278.863 85.6548 278.863 85.0703 278.863 84.4875C278.92 80.109 278.833 75.734 278.6 71.3625C278.546 70.7343 278.401 70.1515 278.163 69.6125C278.163 69.1453 278.163 68.6798 278.163 68.2125Z" fill="#696969"/>
<path fill-rule="evenodd" clip-rule="evenodd" d="M278.688 85.0125C278.714 86.1272 278.656 87.235 278.513 88.3375C278.513 88.5702 278.513 88.8047 278.513 89.0375C278.266 89.5135 278.149 90.0385 278.163 90.6125C277.888 90.8925 277.771 91.2425 277.813 91.6625C277.755 91.6625 277.695 91.6625 277.638 91.6625C278.028 89.433 278.378 87.2157 278.688 85.0125Z" fill="#DCDCDC"/>
<path fill-rule="evenodd" clip-rule="evenodd" d="M278.688 84.4875C278.745 84.4875 278.805 84.4875 278.863 84.4875C278.863 85.0703 278.863 85.6548 278.863 86.2375C278.892 86.8238 278.863 87.4065 278.775 87.9875C278.726 88.1485 278.639 88.264 278.513 88.3375C278.656 87.235 278.714 86.1273 278.688 85.0125C278.688 84.8375 278.688 84.6625 278.688 84.4875Z" fill="#727272"/>
<path fill-rule="evenodd" clip-rule="evenodd" d="M278.513 89.0375C278.527 89.6115 278.409 90.1365 278.163 90.6125C278.149 90.0385 278.266 89.5135 278.513 89.0375Z" fill="#404040"/>
<path fill-rule="evenodd" clip-rule="evenodd" d="M278.163 90.6125C278.205 91.0325 278.087 91.3825 277.813 91.6625C277.771 91.2425 277.888 90.8925 278.163 90.6125Z" fill="#545454"/>
<path fill-rule="evenodd" clip-rule="evenodd" d="M277.638 91.6625C277.695 91.6625 277.755 91.6625 277.813 91.6625C277.774 92.303 277.599 92.8875 277.288 93.4125C277.368 92.821 277.485 92.2382 277.638 91.6625Z" fill="#696969"/>
<path fill-rule="evenodd" clip-rule="evenodd" d="M277.287 93.4125C277.002 94.4432 276.652 95.4355 276.237 96.3875C276.237 96.2702 276.237 96.1547 276.237 96.0375C276.456 95.0872 276.806 94.2122 277.287 93.4125Z" fill="#8A8A8A"/>
<path fill-rule="evenodd" clip-rule="evenodd" d="M5.1625 92.5375C5.42657 94.3102 5.54312 96.118 5.5125 97.9625C5.2885 96.188 5.17177 94.3785 5.1625 92.5375Z" fill="#545454"/>
<path fill-rule="evenodd" clip-rule="evenodd" d="M276.238 96.0375C276.238 96.1547 276.238 96.2702 276.238 96.3875C276.031 97.0385 275.798 97.679 275.538 98.3125C275.606 97.728 275.693 97.1452 275.8 96.5625C275.867 96.3105 276.012 96.1355 276.238 96.0375Z" fill="#B3B3B3"/>
<path fill-rule="evenodd" clip-rule="evenodd" d="M275.537 98.3125C275.436 98.9163 275.201 99.4413 274.837 99.8875C274.99 99.4308 275.107 98.9635 275.187 98.4875C275.305 98.4298 275.42 98.3703 275.537 98.3125Z" fill="#6E6E6E"/>
<path fill-rule="evenodd" clip-rule="evenodd" d="M5.5125 97.9625C5.62922 98.1953 5.74577 98.4298 5.8625 98.6625C5.8625 99.9453 5.8625 101.23 5.8625 102.513C5.69502 101.027 5.57847 99.5095 5.5125 97.9625Z" fill="#747474"/>
<path fill-rule="evenodd" clip-rule="evenodd" d="M275.188 98.4875C275.107 98.9635 274.99 99.4308 274.838 99.8875C274.596 100.428 274.304 100.953 273.963 101.463C273.905 101.463 273.845 101.463 273.788 101.463C274.257 100.463 274.722 99.471 275.188 98.4875Z" fill="#B3B3B3"/>
<path fill-rule="evenodd" clip-rule="evenodd" d="M5.8625 98.6625C6.00758 99.856 6.09508 101.081 6.125 102.337C6.55533 103.372 6.93455 104.422 7.2625 105.487C7.14578 105.43 7.02923 105.37 6.9125 105.312C6.92738 104.761 6.75238 104.294 6.3875 103.912C6.2146 103.461 6.0396 102.995 5.8625 102.512C5.8625 101.23 5.8625 99.9452 5.8625 98.6625Z" fill="#C7C7C7"/>
<path fill-rule="evenodd" clip-rule="evenodd" d="M6.38735 103.912C6.75222 104.294 6.92722 104.761 6.91235 105.312C6.54747 104.931 6.37247 104.464 6.38735 103.912Z" fill="#414141"/>
<path fill-rule="evenodd" clip-rule="evenodd" d="M6.91242 105.312C7.02915 105.37 7.1457 105.43 7.26242 105.487C7.26242 105.605 7.26242 105.72 7.26242 105.837C7.01637 105.755 6.89965 105.58 6.91242 105.312Z" fill="#515151"/>
<path fill-rule="evenodd" clip-rule="evenodd" d="M7.2625 105.838C7.68792 106.109 7.9212 106.517 7.9625 107.063C7.5971 106.741 7.36382 106.333 7.2625 105.838Z" fill="#8A8A8A"/>
<path fill-rule="evenodd" clip-rule="evenodd" d="M7.96242 107.062C8.20847 107.145 8.32519 107.32 8.31242 107.587C8.06637 107.505 7.94964 107.33 7.96242 107.062Z" fill="#959595"/>
<path fill-rule="evenodd" clip-rule="evenodd" d="M8.3125 107.588C8.42625 107.64 8.54297 107.7 8.6625 107.763C9.4108 109.084 10.1108 110.426 10.7625 111.788C10.6458 111.73 10.5292 111.67 10.4125 111.613C9.66858 110.3 8.96858 108.958 8.3125 107.588Z" fill="#BEBEBE"/>
<path fill-rule="evenodd" clip-rule="evenodd" d="M273.787 101.463C273.845 101.463 273.905 101.463 273.962 101.463C270.021 107.621 264.887 112.521 258.562 116.163C258.562 116.105 258.562 116.045 258.562 115.988C259.745 115.244 260.913 114.456 262.062 113.625C266.728 110.274 270.636 106.219 273.787 101.463Z" fill="#7B7B7B"/>
<path fill-rule="evenodd" clip-rule="evenodd" d="M10.4124 111.613C10.5291 111.67 10.6457 111.73 10.7624 111.788C10.7624 111.905 10.7624 112.02 10.7624 112.138C10.5164 112.055 10.3996 111.88 10.4124 111.613Z" fill="#4B4B4B"/>
<path fill-rule="evenodd" clip-rule="evenodd" d="M11.6375 113.363C12.0027 113.552 12.236 113.844 12.3375 114.238C11.9723 114.049 11.739 113.756 11.6375 113.363Z" fill="#484848"/>
<path fill-rule="evenodd" clip-rule="evenodd" d="M12.8625 114.938C13.285 115.184 13.5767 115.534 13.7375 115.987C13.3151 115.741 13.0233 115.391 12.8625 114.938Z" fill="#484848"/>
<path fill-rule="evenodd" clip-rule="evenodd" d="M258.563 115.988C258.563 116.045 258.563 116.105 258.563 116.163C258.003 116.413 257.478 116.705 256.988 117.038C256.522 117.113 256.114 117.288 255.763 117.563C255.703 117.71 255.586 117.767 255.413 117.738C255.397 117.563 255.456 117.417 255.588 117.3C256.583 116.861 257.574 116.423 258.563 115.988Z" fill="#B9B9B9"/>
<path fill-rule="evenodd" clip-rule="evenodd" d="M14.2625 116.688C14.6849 116.934 14.9767 117.284 15.1375 117.737C14.715 117.491 14.4233 117.141 14.2625 116.688Z" fill="#4A4A4A"/>
<path fill-rule="evenodd" clip-rule="evenodd" d="M256.988 117.037C256.694 117.445 256.286 117.62 255.763 117.562C256.114 117.288 256.522 117.113 256.988 117.037Z" fill="#373737"/>
<path fill-rule="evenodd" clip-rule="evenodd" d="M15.1375 117.738C15.5027 117.927 15.736 118.219 15.8375 118.613C15.4723 118.424 15.239 118.131 15.1375 117.738Z" fill="#3E3E3E"/>
<path fill-rule="evenodd" clip-rule="evenodd" d="M255.412 117.738C254.812 118.107 254.17 118.399 253.487 118.613C253.956 118 254.599 117.708 255.412 117.738Z" fill="#AAAAAA"/>
<path fill-rule="evenodd" clip-rule="evenodd" d="M253.488 118.613C253.194 118.877 252.844 119.052 252.438 119.138C251.972 119.213 251.564 119.388 251.213 119.663C250.92 119.78 250.63 119.895 250.338 120.013C249.881 120.165 249.414 120.282 248.938 120.363C250.147 119.817 251.372 119.264 252.613 118.7C252.898 118.614 253.19 118.585 253.488 118.613Z" fill="#C2C2C2"/>
<path fill-rule="evenodd" clip-rule="evenodd" d="M252.437 119.137C252.143 119.545 251.736 119.72 251.212 119.662C251.564 119.388 251.972 119.213 252.437 119.137Z" fill="#3C3C3C"/>
<path fill-rule="evenodd" clip-rule="evenodd" d="M16.7125 119.488C17.1925 119.792 17.5425 120.2 17.7625 120.713C17.2825 120.408 16.9325 120 16.7125 119.488Z" fill="#4C4C4C"/>
<path fill-rule="evenodd" clip-rule="evenodd" d="M250.338 120.012C249.891 120.376 249.366 120.611 248.763 120.712C248.763 120.655 248.763 120.595 248.763 120.537C248.88 120.537 248.938 120.48 248.938 120.362C249.414 120.282 249.881 120.165 250.338 120.012Z" fill="#636363"/>
<path fill-rule="evenodd" clip-rule="evenodd" d="M248.763 120.538C248.763 120.595 248.763 120.655 248.763 120.713C248.399 120.795 248.049 120.912 247.713 121.063C247.655 121.063 247.595 121.063 247.538 121.063C247.552 120.844 247.667 120.699 247.888 120.625C248.173 120.539 248.465 120.51 248.763 120.538Z" fill="#C0C0C0"/>
<path fill-rule="evenodd" clip-rule="evenodd" d="M247.538 121.062C247.595 121.062 247.655 121.062 247.713 121.062C246.274 121.726 244.757 122.191 243.163 122.462C244.591 121.953 246.05 121.486 247.538 121.062Z" fill="#8E8E8E"/>
<path fill-rule="evenodd" clip-rule="evenodd" d="M19.1625 122.113C20.7863 123.444 22.303 124.902 23.7125 126.488C23.7125 126.545 23.7125 126.605 23.7125 126.663C22.1375 125.205 20.6208 123.688 19.1625 122.113Z" fill="#7D7D7D"/>
<path fill-rule="evenodd" clip-rule="evenodd" d="M242.288 122.813C241.936 123.061 241.526 123.178 241.062 123.163C241.414 122.914 241.824 122.797 242.288 122.813Z" fill="#3C3C3C"/>
<path fill-rule="evenodd" clip-rule="evenodd" d="M243.162 122.463C242.895 122.604 242.604 122.722 242.287 122.813C241.824 122.797 241.414 122.914 241.062 123.163C240.305 123.357 239.545 123.532 238.787 123.688C238.324 123.672 237.914 123.789 237.562 124.038C237.445 124.038 237.33 124.038 237.212 124.038C237.095 124.038 236.98 124.038 236.862 124.038C238.927 123.448 241.027 122.923 243.162 122.463Z" fill="#AEAEAE"/>
<path fill-rule="evenodd" clip-rule="evenodd" d="M238.788 123.688C238.436 123.936 238.026 124.053 237.562 124.038C237.914 123.789 238.324 123.672 238.788 123.688Z" fill="#484848"/>
<path fill-rule="evenodd" clip-rule="evenodd" d="M236.862 124.037C236.98 124.037 237.095 124.037 237.212 124.037C236.861 124.286 236.451 124.403 235.987 124.387C235.987 124.33 235.987 124.27 235.987 124.212C236.288 124.19 236.579 124.132 236.862 124.037Z" fill="#696969"/>
<path fill-rule="evenodd" clip-rule="evenodd" d="M233.538 124.738C233.538 124.795 233.538 124.855 233.538 124.913C232.925 125.161 232.285 125.277 231.613 125.263C231.495 125.263 231.38 125.263 231.263 125.263C231.376 125.047 231.581 124.932 231.875 124.913C232.425 124.806 232.979 124.748 233.538 124.738Z" fill="#AFAFAF"/>
<path fill-rule="evenodd" clip-rule="evenodd" d="M235.988 124.213C235.988 124.27 235.988 124.33 235.988 124.388C235.2 124.675 234.383 124.85 233.538 124.913C233.538 124.855 233.538 124.795 233.538 124.738C234.365 124.599 235.183 124.424 235.988 124.213Z" fill="#8C8C8C"/>
<path fill-rule="evenodd" clip-rule="evenodd" d="M231.263 125.262C231.38 125.262 231.495 125.262 231.613 125.262C231.128 125.465 230.603 125.581 230.038 125.612C230.038 125.555 230.038 125.495 230.038 125.437C230.426 125.285 230.834 125.227 231.263 125.262Z" fill="#686868"/>
<path fill-rule="evenodd" clip-rule="evenodd" d="M230.037 125.438C230.037 125.495 230.037 125.555 230.037 125.613C228.749 125.691 227.467 125.807 226.187 125.963C225.78 125.963 225.37 125.963 224.962 125.963C226.611 125.611 228.303 125.436 230.037 125.438Z" fill="#A7A7A7"/>
<path fill-rule="evenodd" clip-rule="evenodd" d="M224.962 125.963C225.37 125.963 225.78 125.963 226.188 125.963C225.06 126.241 223.893 126.416 222.688 126.488C222.688 126.43 222.688 126.37 222.688 126.313C223.428 126.187 224.185 126.069 224.962 125.963Z" fill="#6C6C6C"/>
<path fill-rule="evenodd" clip-rule="evenodd" d="M23.7125 126.663C23.7125 126.605 23.7125 126.545 23.7125 126.488C23.902 126.495 24.077 126.552 24.2375 126.663C24.4974 127.074 24.7307 127.483 24.9375 127.888C24.7042 127.713 24.4708 127.538 24.2375 127.363C24.1959 127.03 24.0209 126.796 23.7125 126.663Z" fill="#D4D4D4"/>
<path fill-rule="evenodd" clip-rule="evenodd" d="M222.687 126.312C222.687 126.37 222.687 126.43 222.687 126.487C220.992 126.757 219.301 127.048 217.612 127.362C217.761 127.105 217.994 126.96 218.312 126.925C219.761 126.626 221.221 126.421 222.687 126.312Z" fill="#ABABAB"/>
<path fill-rule="evenodd" clip-rule="evenodd" d="M23.7125 126.662C24.0209 126.795 24.1959 127.03 24.2375 127.362C23.9292 127.229 23.7542 126.995 23.7125 126.662Z" fill="#4D4D4D"/>
<path fill-rule="evenodd" clip-rule="evenodd" d="M216.738 127.363C215.63 127.595 214.52 127.83 213.413 128.063C212.469 128.022 211.535 128.08 210.613 128.238C210.263 128.238 209.913 128.238 209.562 128.238C210.228 128.038 210.928 127.893 211.663 127.8C213.353 127.625 215.045 127.48 216.738 127.363Z" fill="#BBBBBB"/>
<path fill-rule="evenodd" clip-rule="evenodd" d="M216.738 127.363C216.97 127.363 217.205 127.363 217.438 127.363C217.364 127.489 217.249 127.576 217.088 127.625C215.871 127.861 214.646 128.007 213.413 128.063C214.52 127.83 215.63 127.595 216.738 127.363Z" fill="#414141"/>
<path fill-rule="evenodd" clip-rule="evenodd" d="M24.2375 127.363C24.4708 127.538 24.7042 127.713 24.9375 127.888C25.0443 128.043 25.1025 128.218 25.1125 128.413C24.6901 128.166 24.3983 127.816 24.2375 127.363Z" fill="#454545"/>
<path fill-rule="evenodd" clip-rule="evenodd" d="M209.562 128.237C209.912 128.237 210.262 128.237 210.612 128.237C209.186 128.43 207.728 128.547 206.237 128.587C206.237 128.53 206.237 128.47 206.237 128.412C207.34 128.269 208.448 128.211 209.562 128.237Z" fill="#444444"/>
<path fill-rule="evenodd" clip-rule="evenodd" d="M204.838 128.412C205.305 128.412 205.77 128.412 206.238 128.412C206.238 128.47 206.238 128.53 206.238 128.587C205.534 128.614 204.834 128.671 204.138 128.762C203.963 128.762 203.788 128.762 203.613 128.762C204.02 128.645 204.43 128.53 204.838 128.412Z" fill="#727272"/>
<path fill-rule="evenodd" clip-rule="evenodd" d="M204.837 128.412C204.43 128.53 204.02 128.645 203.612 128.762C202.793 128.733 201.976 128.762 201.163 128.85C200.889 128.887 200.657 128.974 200.462 129.112C200.288 129.112 200.112 129.112 199.938 129.112C194.395 129.112 188.855 129.112 183.312 129.112C188.415 128.967 193.55 128.88 198.712 128.85C200.751 128.659 202.793 128.514 204.837 128.412Z" fill="#DADADA"/>
<path fill-rule="evenodd" clip-rule="evenodd" d="M203.612 128.763C203.787 128.763 203.962 128.763 204.137 128.763C202.944 128.95 201.719 129.065 200.462 129.113C200.657 128.974 200.889 128.887 201.162 128.85C201.976 128.763 202.793 128.733 203.612 128.763Z" fill="#5E5E5E"/>
<path fill-rule="evenodd" clip-rule="evenodd" d="M181.913 129.288C181.913 129.345 181.913 129.405 181.913 129.463C181.095 129.463 180.28 129.463 179.463 129.463C172.403 129.419 165.344 129.477 158.288 129.638C158.837 129.494 159.42 129.407 160.038 129.375C167.33 129.288 174.62 129.258 181.913 129.288Z" fill="#BFBFBF"/>
<path fill-rule="evenodd" clip-rule="evenodd" d="M183.313 129.112C188.855 129.112 194.395 129.112 199.938 129.112C199.094 129.258 198.219 129.345 197.313 129.375C192.18 129.462 187.047 129.492 181.913 129.462C181.913 129.405 181.913 129.345 181.913 129.287C182.341 129.118 182.807 129.058 183.313 129.112Z" fill="#464646"/>
<path fill-rule="evenodd" clip-rule="evenodd" d="M25.6375 129.113C25.9458 129.246 26.1208 129.48 26.1625 129.813C25.8541 129.68 25.6791 129.445 25.6375 129.113Z" fill="#535353"/>
<path fill-rule="evenodd" clip-rule="evenodd" d="M123.637 129.462C123.637 129.52 123.637 129.58 123.637 129.637C117.451 129.587 111.268 129.646 105.087 129.812C104.212 129.812 103.337 129.812 102.462 129.812C102.462 129.755 102.462 129.695 102.462 129.637C109.52 129.487 116.578 129.429 123.637 129.462Z" fill="#999999"/>
<path fill-rule="evenodd" clip-rule="evenodd" d="M179.462 129.462C171.729 129.55 163.97 129.725 156.188 129.987C156.188 129.93 156.188 129.87 156.188 129.812C156.896 129.832 157.596 129.772 158.287 129.637C165.344 129.476 172.403 129.419 179.462 129.462Z" fill="#5D5D5D"/>
<path fill-rule="evenodd" clip-rule="evenodd" d="M102.462 129.637C102.462 129.695 102.462 129.755 102.462 129.812C98.3803 129.968 94.297 130.085 90.2125 130.162C86.7708 130.162 83.3292 130.162 79.8875 130.162C87.3855 130.04 94.9105 129.865 102.462 129.637Z" fill="#D2D2D2"/>
<path fill-rule="evenodd" clip-rule="evenodd" d="M102.462 129.812C103.337 129.812 104.212 129.812 105.087 129.812C100.161 130.108 95.2026 130.283 90.2125 130.337C90.2125 130.28 90.2125 130.22 90.2125 130.162C94.297 130.086 98.3803 129.968 102.462 129.812Z" fill="#5D5D5D"/>
<path fill-rule="evenodd" clip-rule="evenodd" d="M123.812 129.637C125.888 129.62 127.93 129.737 129.938 129.987C127.862 130.005 125.82 129.888 123.812 129.637Z" fill="#5F5F5F"/>
<path fill-rule="evenodd" clip-rule="evenodd" d="M123.637 129.638C123.637 129.58 123.637 129.52 123.637 129.463C132.557 129.776 141.482 129.891 150.412 129.813C143.734 129.988 137.025 130.045 130.287 129.988C130.17 129.988 130.055 129.988 129.937 129.988C127.93 129.737 125.888 129.62 123.812 129.638C123.755 129.638 123.695 129.638 123.637 129.638Z" fill="#D2D2D2"/>
<path fill-rule="evenodd" clip-rule="evenodd" d="M150.413 129.812C152.338 129.812 154.263 129.812 156.188 129.812C156.188 129.87 156.188 129.93 156.188 129.987C147.525 130.19 138.892 130.19 130.288 129.987C137.025 130.045 143.735 129.987 150.413 129.812Z" fill="#848484"/>
<path fill-rule="evenodd" clip-rule="evenodd" d="M79.1875 130.163C77.3208 130.28 75.4542 130.395 73.5875 130.513C66.2958 130.513 59.0042 130.513 51.7125 130.513C52.2034 130.369 52.7284 130.282 53.2875 130.25C61.9206 130.163 70.5541 130.133 79.1875 130.163Z" fill="#D8D8D8"/>
<path fill-rule="evenodd" clip-rule="evenodd" d="M79.1875 130.162C79.4208 130.162 79.6542 130.162 79.8875 130.162C83.3292 130.162 86.7708 130.162 90.2125 130.162C90.2125 130.22 90.2125 130.28 90.2125 130.337C85.3697 130.323 80.528 130.383 75.6875 130.512C74.9875 130.512 74.2875 130.512 73.5875 130.512C75.4542 130.395 77.3208 130.28 79.1875 130.162Z" fill="#8B8B8B"/>
<path fill-rule="evenodd" clip-rule="evenodd" d="M26.3375 130.162C26.6459 130.295 26.8209 130.53 26.8625 130.862C26.5542 130.729 26.3792 130.495 26.3375 130.162Z" fill="#636363"/>
<path fill-rule="evenodd" clip-rule="evenodd" d="M51.0125 130.512C50.8884 130.67 50.7134 130.729 50.4875 130.687C48.8514 130.684 47.2182 130.743 45.5875 130.862C45.1792 130.862 44.7708 130.862 44.3625 130.862C46.5428 130.567 48.7594 130.451 51.0125 130.512Z" fill="#D6D6D6"/>
<path fill-rule="evenodd" clip-rule="evenodd" d="M50.4875 130.688C50.4875 130.745 50.4875 130.805 50.4875 130.863C48.852 130.87 47.2185 130.927 45.5875 131.038C45.5875 130.98 45.5875 130.92 45.5875 130.863C47.2182 130.744 48.8514 130.684 50.4875 130.688Z" fill="#7C7C7C"/>
<path fill-rule="evenodd" clip-rule="evenodd" d="M51.0125 130.512C51.2458 130.512 51.4792 130.512 51.7125 130.512C59.0042 130.512 66.2958 130.512 73.5875 130.512C74.2875 130.512 74.9875 130.512 75.6875 130.512C67.316 130.645 58.916 130.761 50.4875 130.862C50.4875 130.805 50.4875 130.745 50.4875 130.687C50.7134 130.729 50.8884 130.67 51.0125 130.512Z" fill="#474747"/>
<path fill-rule="evenodd" clip-rule="evenodd" d="M44.3625 130.863C44.7708 130.863 45.1792 130.863 45.5875 130.863C45.5875 130.92 45.5875 130.98 45.5875 131.038C44.5996 131.148 43.6081 131.207 42.6125 131.213C42.3208 131.213 42.0292 131.213 41.7375 131.213C42.563 130.908 43.438 130.793 44.3625 130.863Z" fill="#9A9A9A"/>
<path fill-rule="evenodd" clip-rule="evenodd" d="M41.7375 131.213C42.0292 131.213 42.3208 131.213 42.6125 131.213C42.2396 131.354 41.8313 131.442 41.3875 131.475C39.5792 131.533 37.7708 131.592 35.9625 131.65C35.5145 131.717 35.1061 131.864 34.7375 132.088C34.9426 131.731 35.2342 131.498 35.6125 131.388C37.6607 131.435 39.7024 131.377 41.7375 131.213Z" fill="#4F4F4F"/>
<path fill-rule="evenodd" clip-rule="evenodd" d="M35.6125 131.388C35.2341 131.498 34.9426 131.731 34.7375 132.088C33.8873 132.646 33.3039 133.404 32.9875 134.363C32.9292 134.363 32.8708 134.363 32.8125 134.363C33.1921 133.192 33.8921 132.229 34.9125 131.475C35.1388 131.389 35.3722 131.36 35.6125 131.388Z" fill="#9F9F9F"/>
<path fill-rule="evenodd" clip-rule="evenodd" d="M27.7374 132.787C27.9835 132.87 28.1002 133.045 28.0874 133.312C27.8414 133.23 27.7246 133.055 27.7374 132.787Z" fill="#575757"/>
<path fill-rule="evenodd" clip-rule="evenodd" d="M26.8625 130.863C28.1722 132.203 28.8139 133.838 28.7875 135.763C28.6409 135.703 28.5824 135.586 28.6125 135.413C28.6283 134.949 28.5117 134.539 28.2625 134.188C28.2399 133.887 28.1817 133.596 28.0875 133.313C28.1003 133.045 27.9836 132.87 27.7375 132.788C27.4909 132.119 27.1992 131.479 26.8625 130.863Z" fill="#B1B1B1"/>
<path fill-rule="evenodd" clip-rule="evenodd" d="M32.8125 134.363C32.8708 134.363 32.9292 134.363 32.9875 134.363C33.0003 134.63 32.8835 134.805 32.6375 134.888C32.6475 134.693 32.7057 134.518 32.8125 134.363Z" fill="#565656"/>
<path fill-rule="evenodd" clip-rule="evenodd" d="M28.2625 134.188C28.5117 134.539 28.6283 134.949 28.6125 135.413C28.3633 135.061 28.2468 134.651 28.2625 134.188Z" fill="#424242"/>
<path fill-rule="evenodd" clip-rule="evenodd" d="M31.9375 136.287C31.6591 136.786 31.4258 137.311 31.2375 137.862C30.9915 137.945 30.8747 138.12 30.8875 138.387C30.6126 138.762 30.3793 139.17 30.1875 139.612C30.0708 139.67 29.9542 139.73 29.8375 139.787C30.3665 138.492 31.0665 137.325 31.9375 136.287Z" fill="#ACACAC"/>
<path fill-rule="evenodd" clip-rule="evenodd" d="M31.2374 137.863C31.2502 138.13 31.1335 138.305 30.8874 138.388C30.8746 138.12 30.9914 137.945 31.2374 137.863Z" fill="#474747"/>
<path fill-rule="evenodd" clip-rule="evenodd" d="M29.1375 137.512C29.2749 138.321 29.5083 139.079 29.8375 139.787C29.7285 140.174 29.5535 140.524 29.3125 140.837C29.1393 139.763 29.081 138.653 29.1375 137.512Z" fill="#DFDFDF"/>
<path fill-rule="evenodd" clip-rule="evenodd" d="M28.7875 136.463C28.9042 136.813 29.0208 137.163 29.1375 137.513C29.081 138.654 29.1392 139.763 29.3125 140.838C29.3125 140.895 29.3125 140.955 29.3125 141.013C28.9698 139.565 28.7948 138.05 28.7875 136.463Z" fill="#747474"/>
<path fill-rule="evenodd" clip-rule="evenodd" d="M30.1875 139.613C30.0237 140.167 29.732 140.635 29.3125 141.013C29.3125 140.955 29.3125 140.895 29.3125 140.838C29.5535 140.524 29.7285 140.174 29.8375 139.788C29.9542 139.73 30.0708 139.67 30.1875 139.613Z" fill="#3D3D3D"/>
</g>
<defs>
<clipPath id="clip0_75_2553">
<rect width="283" height="153" fill="white"/>
</clipPath>
</defs>
</svg>
