<?xml version="1.0" encoding="UTF-8"?>
<!DOCTYPE svg PUBLIC "-//W3C//DTD SVG 1.1//EN" "http://www.w3.org/Graphics/SVG/1.1/DTD/svg11.dtd">
<svg xmlns="http://www.w3.org/2000/svg" version="1.1" width="348px" height="317px" style="shape-rendering:geometricPrecision; text-rendering:geometricPrecision; image-rendering:optimizeQuality; fill-rule:evenodd; clip-rule:evenodd" xmlns:xlink="http://www.w3.org/1999/xlink">
<g><path style="opacity:0.999" fill="#090606" d="M 188.5,33.5 C 192.534,33.5045 196.534,33.8379 200.5,34.5C 203.273,35.6572 206.273,36.3239 209.5,36.5C 212.518,38.3999 215.851,39.7333 219.5,40.5C 228.613,44.2229 237.613,48.2229 246.5,52.5C 246.973,53.9063 247.973,54.573 249.5,54.5C 253.553,57.8827 257.886,60.8827 262.5,63.5C 266.833,68.5 271.5,73.1667 276.5,77.5C 283.076,84.3231 288.409,91.9897 292.5,100.5C 292.427,102.027 293.094,103.027 294.5,103.5C 296.112,107.058 297.445,110.725 298.5,114.5C 299.88,120.274 301.213,125.941 302.5,131.5C 303.369,133.717 303.702,136.05 303.5,138.5C 304.325,159.531 299.658,179.198 289.5,197.5C 288.094,197.973 287.427,198.973 287.5,200.5C 286.094,200.973 285.427,201.973 285.5,203.5C 283.738,204.262 282.738,205.596 282.5,207.5C 277.861,212.474 273.195,217.474 268.5,222.5C 265.911,223.419 263.911,225.086 262.5,227.5C 257.886,230.117 253.553,233.117 249.5,236.5C 243.849,238.659 238.516,241.326 233.5,244.5C 227.267,246.462 221.267,248.796 215.5,251.5C 195.115,256.739 174.448,258.405 153.5,256.5C 149.433,254.946 145.1,254.28 140.5,254.5C 138.194,254.007 135.861,253.674 133.5,253.5C 130.495,251.723 127.162,250.723 123.5,250.5C 121.708,250.634 120.042,250.301 118.5,249.5C 116.491,247.935 114.157,246.935 111.5,246.5C 106.349,244.424 101.349,242.09 96.5,239.5C 96.0269,238.094 95.0269,237.427 93.5,237.5C 91.847,237.34 90.5137,236.674 89.5,235.5C 89.0269,234.094 88.0269,233.427 86.5,233.5C 78.6144,228.623 71.281,222.956 64.5,216.5C 62.5698,212.9 59.9031,209.9 56.5,207.5C 55.9202,205.251 54.5869,203.585 52.5,202.5C 52.573,200.973 51.9063,199.973 50.5,199.5C 48.7505,195.665 46.7505,191.999 44.5,188.5C 43.6743,185.515 42.341,182.849 40.5,180.5C 40.5,180.167 40.5,179.833 40.5,179.5C 39.2042,174.607 37.5376,169.94 35.5,165.5C 35.5,164.833 35.5,164.167 35.5,163.5C 35.5905,160.848 34.9238,158.515 33.5,156.5C 31.6373,141.872 32.9706,127.538 37.5,113.5C 38.5375,112.07 39.2041,110.403 39.5,108.5C 40.5,105.833 41.5,103.167 42.5,100.5C 43.9063,100.027 44.573,99.0269 44.5,97.5C 44.3284,96.5084 44.6618,95.8417 45.5,95.5C 46.9063,95.0269 47.573,94.0269 47.5,92.5C 64.252,66.93 87.252,49.43 116.5,40C 123.712,37.8633 131.045,36.3633 138.5,35.5C 151.149,34.6784 163.815,34.3451 176.5,34.5C 180.566,34.693 184.566,34.3597 188.5,33.5 Z"/></g>
<g><path style="opacity:1" fill="#5fc288" d="M 191.5,47.5 C 195.681,48.6604 200.015,49.6604 204.5,50.5C 238.193,59.9114 263.36,79.9114 280,110.5C 287.734,127.548 289.568,145.215 285.5,163.5C 283.747,166.146 282.747,169.146 282.5,172.5C 281.172,176.967 279.338,181.3 277,185.5C 273.918,189.734 271.084,194.067 268.5,198.5C 264.167,202.167 260.167,206.167 256.5,210.5C 251.64,214.423 246.64,218.09 241.5,221.5C 239.326,221.75 237.659,222.75 236.5,224.5C 234.02,225.242 231.687,226.242 229.5,227.5C 227.62,227.229 226.287,227.896 225.5,229.5C 203.264,238.967 180.264,242.3 156.5,239.5C 150.791,237.495 144.791,236.495 138.5,236.5C 130.698,233.839 123.031,230.672 115.5,227C 114.251,226.26 113.251,226.427 112.5,227.5C 103.074,224.288 94.7408,219.288 87.5,212.5C 86.4154,210.413 84.7488,209.08 82.5,208.5C 81.8333,208.167 81.1667,207.833 80.5,207.5C 76.8333,203.167 72.8333,199.167 68.5,195.5C 63.5052,188.185 59.0052,180.518 55,172.5C 53.2103,168.673 52.0436,164.673 51.5,160.5C 49.7475,144.39 50.4141,128.39 53.5,112.5C 61.3707,90.7764 75.3707,73.9431 95.5,62C 106.987,54.9199 119.321,50.0865 132.5,47.5C 140.501,47.3341 148.168,46.0008 155.5,43.5C 165.128,42.2293 174.794,42.396 184.5,44C 186.067,46.741 188.401,47.9077 191.5,47.5 Z"/></g>
<g><path style="opacity:1" fill="#040805" d="M 210.5,133.5 C 204.167,139.167 198.167,145.167 192.5,151.5C 182.418,160.37 173.752,170.37 166.5,181.5C 162.934,184.633 160.934,188.633 160.5,193.5C 158.874,193.938 157.207,194.272 155.5,194.5C 152.915,193.258 150.582,191.591 148.5,189.5C 140.145,176.126 132.811,162.126 126.5,147.5C 125.538,143.605 124.204,139.939 122.5,136.5C 122.03,135.307 121.03,134.64 119.5,134.5C 110.907,136.309 102.241,136.809 93.5,136C 92.1667,134.667 92.1667,133.333 93.5,132C 96.2065,130.092 99.2065,129.259 102.5,129.5C 105.152,129.59 107.485,128.924 109.5,127.5C 113.638,126.346 117.804,125.346 122,124.5C 124.47,124.34 126.636,125.007 128.5,126.5C 135.564,144.627 144.73,161.627 156,177.5C 160.56,169.607 165.893,162.273 172,155.5C 194.528,132.638 217.361,110.138 240.5,88C 247.392,87.3078 249.225,90.1411 246,96.5C 233.599,108.399 221.765,120.732 210.5,133.5 Z"/></g>
<g><path style="opacity:0.01" fill="#e2e2e2" d="M 303.5,168.5 C 304.563,158.339 304.563,148.339 303.5,138.5C 303.702,136.05 303.369,133.717 302.5,131.5C 302.776,125.354 301.443,119.688 298.5,114.5C 297.445,110.725 296.112,107.058 294.5,103.5C 294.573,101.973 293.906,100.973 292.5,100.5C 288.409,91.9897 283.076,84.3231 276.5,77.5C 272.833,71.8333 268.167,67.1667 262.5,63.5C 257.886,60.8827 253.553,57.8827 249.5,54.5C 249.027,53.0937 248.027,52.427 246.5,52.5C 237.613,48.2229 228.613,44.2229 219.5,40.5C 216.691,38.1034 213.358,36.7701 209.5,36.5C 206.273,36.3239 203.273,35.6572 200.5,34.5C 198.321,33.0744 195.821,32.4078 193,32.5C 191.293,32.5085 189.793,32.8418 188.5,33.5C 184.566,34.3597 180.566,34.693 176.5,34.5C 171.511,33.834 166.344,33.5006 161,33.5C 153.272,33.316 145.772,33.9826 138.5,35.5C 131.045,36.3633 123.712,37.8633 116.5,40C 87.252,49.43 64.252,66.93 47.5,92.5C 46.0937,92.9731 45.427,93.9731 45.5,95.5C 44.6618,95.8417 44.3284,96.5084 44.5,97.5C 43.0937,97.9731 42.427,98.9731 42.5,100.5C 41.5,103.167 40.5,105.833 39.5,108.5C 37.7868,109.635 37.1201,111.302 37.5,113.5C 32.9706,127.538 31.6373,141.872 33.5,156.5C 33.4095,159.152 34.0762,161.485 35.5,163.5C 35.5,164.167 35.5,164.833 35.5,165.5C 36.0094,170.703 37.6761,175.37 40.5,179.5C 40.5,179.833 40.5,180.167 40.5,180.5C 40.4152,183.649 41.4152,186.316 43.5,188.5C 43.5,189.833 43.5,191.167 43.5,192.5C 19.792,143.602 28.1253,100.769 68.5,64C 101.328,38.731 138.495,28.231 180,32.5C 184,31.8333 188,31.1667 192,30.5C 234.71,37.1592 268.044,58.1592 292,93.5C 305.618,117.191 309.451,142.191 303.5,168.5 Z"/></g>
<g><path style="opacity:0.694" fill="#545454" d="M 47.5,92.5 C 47.573,94.0269 46.9063,95.0269 45.5,95.5C 45.427,93.9731 46.0937,92.9731 47.5,92.5 Z"/></g>
<g><path style="opacity:0.149" fill="#8f8f8f" d="M 262.5,63.5 C 268.167,67.1667 272.833,71.8333 276.5,77.5C 271.5,73.1667 266.833,68.5 262.5,63.5 Z"/></g>
<g><path style="opacity:0.439" fill="#848484" d="M 246.5,52.5 C 248.027,52.427 249.027,53.0937 249.5,54.5C 247.973,54.573 246.973,53.9063 246.5,52.5 Z"/></g>
<g><path style="opacity:1" fill="#392a24" d="M 191.5,47.5 C 196.312,46.9645 200.645,47.9645 204.5,50.5C 200.015,49.6604 195.681,48.6604 191.5,47.5 Z"/></g>
<g><path style="opacity:1" fill="#5ea777" d="M 155.5,43.5 C 148.168,46.0008 140.501,47.3341 132.5,47.5C 139.84,44.998 147.507,43.6646 155.5,43.5 Z"/></g>
<g><path style="opacity:0.31" fill="#848484" d="M 209.5,36.5 C 213.358,36.7701 216.691,38.1034 219.5,40.5C 215.851,39.7333 212.518,38.3999 209.5,36.5 Z"/></g>
<g><path style="opacity:0.937" fill="#333333" d="M 176.5,34.5 C 163.815,34.3451 151.149,34.6784 138.5,35.5C 145.772,33.9826 153.272,33.316 161,33.5C 166.344,33.5006 171.511,33.834 176.5,34.5 Z"/></g>
<g><path style="opacity:0.153" fill="#adadad" d="M 188.5,33.5 C 189.793,32.8418 191.293,32.5085 193,32.5C 195.821,32.4078 198.321,33.0744 200.5,34.5C 196.534,33.8379 192.534,33.5045 188.5,33.5 Z"/></g>
<g><path style="opacity:0.514" fill="#7a7a7a" d="M 44.5,97.5 C 44.573,99.0269 43.9063,100.027 42.5,100.5C 42.427,98.9731 43.0937,97.9731 44.5,97.5 Z"/></g>
<g><path style="opacity:0.486" fill="#7f7f7f" d="M 292.5,100.5 C 293.906,100.973 294.573,101.973 294.5,103.5C 293.094,103.027 292.427,102.027 292.5,100.5 Z"/></g>
<g><path style="opacity:0.357" fill="#868686" d="M 39.5,108.5 C 39.2041,110.403 38.5375,112.07 37.5,113.5C 37.1201,111.302 37.7868,109.635 39.5,108.5 Z"/></g>
<g><path style="opacity:0.851" fill="#5c5c5c" d="M 298.5,114.5 C 301.443,119.688 302.776,125.354 302.5,131.5C 301.213,125.941 299.88,120.274 298.5,114.5 Z"/></g>
<g><path style="opacity:1" fill="#1f3d2b" d="M 109.5,127.5 C 107.485,128.924 105.152,129.59 102.5,129.5C 104.515,128.076 106.848,127.41 109.5,127.5 Z"/></g>
<g><path style="opacity:1" fill="#5eaf7d" d="M 53.5,112.5 C 50.4141,128.39 49.7475,144.39 51.5,160.5C 48.6758,149.8 47.8425,138.8 49,127.5C 49.747,122.157 51.247,117.157 53.5,112.5 Z"/></g>
<g><path style="opacity:1" fill="#468f64" d="M 122.5,136.5 C 124.204,139.939 125.538,143.605 126.5,147.5C 125.542,147.047 124.708,146.381 124,145.5C 123.304,142.522 122.804,139.522 122.5,136.5 Z"/></g>
<g><path style="opacity:1" fill="#43885f" d="M 210.5,133.5 C 205.543,140.457 199.543,146.457 192.5,151.5C 198.167,145.167 204.167,139.167 210.5,133.5 Z"/></g>
<g><path style="opacity:0.557" fill="#686868" d="M 33.5,156.5 C 34.9238,158.515 35.5905,160.848 35.5,163.5C 34.0762,161.485 33.4095,159.152 33.5,156.5 Z"/></g>
<g><path style="opacity:0.333" fill="#727272" d="M 35.5,165.5 C 37.5376,169.94 39.2042,174.607 40.5,179.5C 37.6761,175.37 36.0094,170.703 35.5,165.5 Z"/></g>
<g><path style="opacity:0.009" fill="#cccccc" d="M 303.5,138.5 C 304.563,148.339 304.563,158.339 303.5,168.5C 302.61,174.166 300.943,179.5 298.5,184.5C 297.542,184.953 296.708,185.619 296,186.5C 294.801,190.923 292.634,194.59 289.5,197.5C 299.658,179.198 304.325,159.531 303.5,138.5 Z"/></g>
<g><path style="opacity:1" fill="#5a8562" d="M 285.5,163.5 C 285.253,166.854 284.253,169.854 282.5,172.5C 282.747,169.146 283.747,166.146 285.5,163.5 Z"/></g>
<g><path style="opacity:0.169" fill="#939393" d="M 40.5,180.5 C 42.341,182.849 43.6743,185.515 44.5,188.5C 44.1667,188.5 43.8333,188.5 43.5,188.5C 41.4152,186.316 40.4152,183.649 40.5,180.5 Z"/></g>
<g><path style="opacity:0.027" fill="#cccccc" d="M 43.5,188.5 C 43.8333,188.5 44.1667,188.5 44.5,188.5C 46.7505,191.999 48.7505,195.665 50.5,199.5C 49.391,199.443 48.391,199.11 47.5,198.5C 45.684,196.882 44.3507,194.882 43.5,192.5C 43.5,191.167 43.5,189.833 43.5,188.5 Z"/></g>
<g><path style="opacity:1" fill="#448c62" d="M 166.5,181.5 C 164.728,185.79 162.728,189.79 160.5,193.5C 160.934,188.633 162.934,184.633 166.5,181.5 Z"/></g>
<g><path style="opacity:1" fill="#468e63" d="M 148.5,189.5 C 150.582,191.591 152.915,193.258 155.5,194.5C 157.207,194.272 158.874,193.938 160.5,193.5C 159.486,194.765 157.986,195.431 156,195.5C 152.065,195.298 149.565,193.298 148.5,189.5 Z"/></g>
<g><path style="opacity:1" fill="#3e312a" d="M 68.5,195.5 C 72.8333,199.167 76.8333,203.167 80.5,207.5C 75.5,204.5 71.5,200.5 68.5,195.5 Z"/></g>
<g><path style="opacity:0.4" fill="#8c8c8c" d="M 289.5,197.5 C 289.573,199.027 288.906,200.027 287.5,200.5C 287.427,198.973 288.094,197.973 289.5,197.5 Z"/></g>
<g><path style="opacity:0.007" fill="#efefef" d="M 298.5,184.5 C 283.588,216.908 259.255,239.075 225.5,251C 177.511,267.356 131.511,263.023 87.5,238C 70.9812,227.981 57.6478,214.814 47.5,198.5C 48.391,199.11 49.391,199.443 50.5,199.5C 51.9063,199.973 52.573,200.973 52.5,202.5C 53.0798,204.749 54.4131,206.415 56.5,207.5C 58.4302,211.1 61.0969,214.1 64.5,216.5C 71.281,222.956 78.6144,228.623 86.5,233.5C 86.9731,234.906 87.9731,235.573 89.5,235.5C 90.5137,236.674 91.847,237.34 93.5,237.5C 93.9731,238.906 94.9731,239.573 96.5,239.5C 101.349,242.09 106.349,244.424 111.5,246.5C 113.09,248.821 115.423,249.821 118.5,249.5C 120.042,250.301 121.708,250.634 123.5,250.5C 126.505,252.277 129.838,253.277 133.5,253.5C 135.515,254.924 137.848,255.59 140.5,255.5C 143.833,255.833 147.167,256.167 150.5,256.5C 151.263,257.268 152.263,257.768 153.5,258C 172.692,259.35 191.692,258.016 210.5,254C 212.744,253.95 214.411,253.117 215.5,251.5C 220.109,250.244 224.775,249.078 229.5,248C 231.093,247.051 232.426,245.885 233.5,244.5C 238.79,243.359 243.79,241.359 248.5,238.5C 249.298,238.043 249.631,237.376 249.5,236.5C 253.553,233.117 257.886,230.117 262.5,227.5C 265.089,226.581 267.089,224.914 268.5,222.5C 274.55,218.783 279.217,213.783 282.5,207.5C 282.738,205.596 283.738,204.262 285.5,203.5C 286.906,203.027 287.573,202.027 287.5,200.5C 288.906,200.027 289.573,199.027 289.5,197.5C 292.634,194.59 294.801,190.923 296,186.5C 296.708,185.619 297.542,184.953 298.5,184.5 Z"/></g>
<g><path style="opacity:0.212" fill="#a1a1a1" d="M 215.5,251.5 C 214.411,253.117 212.744,253.95 210.5,254C 191.692,258.016 172.692,259.35 153.5,258C 152.263,257.768 151.263,257.268 150.5,256.5C 151.5,256.5 152.5,256.5 153.5,256.5C 174.448,258.405 195.115,256.739 215.5,251.5 Z"/></g>
<g><path style="opacity:0.859" fill="#373737" d="M 140.5,255.5 C 140.5,255.167 140.5,254.833 140.5,254.5C 145.1,254.28 149.433,254.946 153.5,256.5C 152.5,256.5 151.5,256.5 150.5,256.5C 147.167,256.167 143.833,255.833 140.5,255.5 Z"/></g>
<g><path style="opacity:0.455" fill="#8f8f8f" d="M 133.5,253.5 C 135.861,253.674 138.194,254.007 140.5,254.5C 140.5,254.833 140.5,255.167 140.5,255.5C 137.848,255.59 135.515,254.924 133.5,253.5 Z"/></g>
<g><path style="opacity:0.82" fill="#4a4a4a" d="M 123.5,250.5 C 127.162,250.723 130.495,251.723 133.5,253.5C 129.838,253.277 126.505,252.277 123.5,250.5 Z"/></g>
<g><path style="opacity:0.275" fill="#979797" d="M 233.5,244.5 C 232.426,245.885 231.093,247.051 229.5,248C 224.775,249.078 220.109,250.244 215.5,251.5C 221.267,248.796 227.267,246.462 233.5,244.5 Z"/></g>
<g><path style="opacity:0.224" fill="#9a9a9a" d="M 111.5,246.5 C 114.157,246.935 116.491,247.935 118.5,249.5C 115.423,249.821 113.09,248.821 111.5,246.5 Z"/></g>
<g><path style="opacity:0.192" fill="#a0a0a0" d="M 249.5,236.5 C 249.631,237.376 249.298,238.043 248.5,238.5C 243.79,241.359 238.79,243.359 233.5,244.5C 238.516,241.326 243.849,238.659 249.5,236.5 Z"/></g>
<g><path style="opacity:0.671" fill="#575757" d="M 93.5,237.5 C 95.0269,237.427 96.0269,238.094 96.5,239.5C 94.9731,239.573 93.9731,238.906 93.5,237.5 Z"/></g>
<g><path style="opacity:1" fill="#5b8f68" d="M 138.5,236.5 C 144.791,236.495 150.791,237.495 156.5,239.5C 150.209,239.505 144.209,238.505 138.5,236.5 Z"/></g>
<g><path style="opacity:0.651" fill="#606060" d="M 86.5,233.5 C 88.0269,233.427 89.0269,234.094 89.5,235.5C 87.9731,235.573 86.9731,234.906 86.5,233.5 Z"/></g>
<g><path style="opacity:1" fill="#577055" d="M 229.5,227.5 C 228.486,228.674 227.153,229.34 225.5,229.5C 226.287,227.896 227.62,227.229 229.5,227.5 Z"/></g>
<g><path style="opacity:1" fill="#5b936a" d="M 138.5,236.5 C 129.338,234.669 120.671,231.669 112.5,227.5C 113.251,226.427 114.251,226.26 115.5,227C 123.031,230.672 130.698,233.839 138.5,236.5 Z"/></g>
<g><path style="opacity:0.255" fill="#9e9e9e" d="M 268.5,222.5 C 267.089,224.914 265.089,226.581 262.5,227.5C 263.911,225.086 265.911,223.419 268.5,222.5 Z"/></g>
<g><path style="opacity:1" fill="#45392f" d="M 241.5,221.5 C 240.514,223.408 238.848,224.408 236.5,224.5C 237.659,222.75 239.326,221.75 241.5,221.5 Z"/></g>
<g><path style="opacity:0.196" fill="#a9a9a9" d="M 282.5,207.5 C 279.217,213.783 274.55,218.783 268.5,222.5C 273.195,217.474 277.861,212.474 282.5,207.5 Z"/></g>
<g><path style="opacity:1" fill="#5b8c66" d="M 82.5,208.5 C 84.7488,209.08 86.4154,210.413 87.5,212.5C 85.2512,211.92 83.5846,210.587 82.5,208.5 Z"/></g>
<g><path style="opacity:0.2" fill="#8d8d8d" d="M 56.5,207.5 C 59.9031,209.9 62.5698,212.9 64.5,216.5C 61.0969,214.1 58.4302,211.1 56.5,207.5 Z"/></g>
<g><path style="opacity:0.318" fill="#949494" d="M 52.5,202.5 C 54.5869,203.585 55.9202,205.251 56.5,207.5C 54.4131,206.415 53.0798,204.749 52.5,202.5 Z"/></g>
<g><path style="opacity:1" fill="#42342c" d="M 268.5,198.5 C 265.5,203.5 261.5,207.5 256.5,210.5C 260.167,206.167 264.167,202.167 268.5,198.5 Z"/></g>
<g><path style="opacity:0.373" fill="#909090" d="M 287.5,200.5 C 287.573,202.027 286.906,203.027 285.5,203.5C 285.427,201.973 286.094,200.973 287.5,200.5 Z"/></g>
</svg>
